<?xml version="1.0" encoding="utf-8"?>
<!-- Generator: Adobe Illustrator 23.0.6, SVG Export Plug-In . SVG Version: 6.00 Build 0)  -->
<svg version="1.1" id="圖層_3" xmlns="http://www.w3.org/2000/svg" xmlns:xlink="http://www.w3.org/1999/xlink" x="0px" y="0px"
	 viewBox="0 0 571.3 427.1" style="enable-background:new 0 0 571.3 427.1;" xml:space="preserve">
<style type="text/css">
	.st0{fill:#232391;}
	.st1{fill:#E47863;}
	.st2{fill:#0C8E7B;}
	.st3{fill:#1E71C4;}
	.st4{fill:#A36800;}
	.st5{fill:#698C13;}
	.st6{fill:#FFFFFF;}
</style>
<g>
	<g>
		<path class="st0" d="M332.2,310.3l45.6,86c25.4-14.1,47.5-34.1,64.1-58.1l-81.1-53.9C353.2,294.9,343.5,303.8,332.2,310.3z"/>
		<path class="st1" d="M378.3,230.2c0,8-1,15.8-2.9,23.2l93.3,27.9c4.6-16.6,7-33.8,7-51.2c0-75.2-44.1-143-112.5-173.5l-38,89.6
			C356.6,161.1,378.3,193.1,378.3,230.2z"/>
		<path class="st2" d="M193,230.2c0-50,39.6-90.8,89.2-92.6V40.2C179,42.1,95.7,126.6,95.7,230.2c0,104.8,85.2,190,190,190
			c16.8,0,33.5-2.2,49.7-6.6l-27.2-93.5c-7.2,1.8-14.7,2.8-22.5,2.8C234.5,322.9,193,281.4,193,230.2z"/>
		<path class="st3" d="M356.7,53.9c-21.5-8.7-44.2-13.3-67.5-13.7v97.3c10.3,0.4,20.3,2.5,29.5,6L356.7,53.9z"/>
		<path class="st4" d="M445.8,332.4c8.9-13.8,15.9-28.7,20.9-44.4l-93.3-27.9c-2.2,6.5-5.1,12.7-8.7,18.4L445.8,332.4z"/>
		<path class="st5" d="M342.1,411.6c10.2-3.2,20.1-7.2,29.6-12l-45.6-86c-3.6,1.7-7.3,3.2-11.1,4.5L342.1,411.6z"/>
	</g>
</g>
<g>
	<g>
		<path class="st6" d="M63.9,12c-1.5,0-2.2,0.6-2.2,1.7c0,0.6,0.2,1.1,0.5,1.3s1,0.5,2.1,0.7c1.1,0.2,1.8,0.5,2.2,0.9
			c0.4,0.4,0.7,1,0.7,1.9c0,2.1-1.1,3.2-3.3,3.2c-0.7,0-1.6-0.1-2.7-0.3l-0.5-0.1l0.1-1c1.4,0.2,2.4,0.3,3.1,0.3
			c1.5,0,2.2-0.7,2.2-2.1c0-0.6-0.2-1-0.5-1.2s-0.9-0.5-1.8-0.6c-1.2-0.2-2-0.6-2.5-1s-0.7-1.1-0.7-2c0-1.9,1.1-2.8,3.3-2.8
			c0.7,0,1.6,0.1,2.6,0.2l0.5,0.1l-0.1,1C65.4,12.1,64.4,12,63.9,12z"/>
		<path class="st6" d="M70.1,21.5H69V10.7h1.1v3.7c0.8-0.4,1.6-0.6,2.3-0.6c1,0,1.7,0.3,2,0.8s0.5,1.5,0.5,2.9v4h-1.1v-3.9
			c0-1-0.1-1.8-0.3-2.1s-0.6-0.6-1.3-0.6c-0.6,0-1.2,0.1-1.8,0.3l-0.3,0.1C70.1,15.3,70.1,21.5,70.1,21.5z"/>
		<path class="st6" d="M77,12.3V11h1.1v1.3H77z M77,21.5V14h1.1v7.5H77z"/>
		<path class="st6" d="M80.3,24.8V14h1.1v0.5c0.8-0.5,1.5-0.7,2.2-0.7c0.9,0,1.6,0.3,2.1,0.9s0.6,1.6,0.6,3c0,1.4-0.3,2.4-0.8,3
			s-1.3,0.9-2.5,0.9c-0.6,0-1.2-0.1-1.7-0.2v3.3h-1V24.8z M83.5,14.9c-0.3,0-0.6,0-1,0.1c-0.3,0.1-0.6,0.2-0.8,0.3l-0.3,0.1v5.1
			c0.7,0.1,1.2,0.2,1.6,0.2c0.8,0,1.4-0.2,1.7-0.7s0.5-1.2,0.5-2.2s-0.1-1.8-0.4-2.2C84.5,15.1,84,14.9,83.5,14.9z"/>
		<path class="st6" d="M88.2,24.8V14h1.1v0.5c0.8-0.5,1.5-0.7,2.2-0.7c0.9,0,1.6,0.3,2.1,0.9s0.6,1.6,0.6,3c0,1.4-0.3,2.4-0.8,3
			s-1.3,0.9-2.5,0.9c-0.6,0-1.2-0.1-1.7-0.2v3.3h-1V24.8z M91.4,14.9c-0.3,0-0.6,0-1,0.1c-0.3,0.1-0.6,0.2-0.8,0.3l-0.3,0.1v5.1
			c0.7,0.1,1.2,0.2,1.6,0.2c0.8,0,1.4-0.2,1.7-0.7s0.5-1.2,0.5-2.2S93,16,92.7,15.5C92.4,15.1,91.9,14.9,91.4,14.9z"/>
		<path class="st6" d="M96.1,12.3V11h1.1v1.3H96.1z M96.1,21.5V14h1.1v7.5H96.1z"/>
		<path class="st6" d="M100.5,21.5h-1.1V14h1.1v0.5c0.8-0.5,1.6-0.7,2.3-0.7c1,0,1.7,0.3,2,0.8s0.5,1.5,0.5,2.9v4h-1.1v-3.9
			c0-1-0.1-1.8-0.3-2.1c-0.2-0.4-0.6-0.6-1.3-0.6c-0.3,0-0.7,0-1,0.1c-0.4,0.1-0.6,0.2-0.8,0.3l-0.3,0.1
			C100.5,15.4,100.5,21.5,100.5,21.5z"/>
		<path class="st6" d="M110.3,25c-1.2,0-2-0.2-2.5-0.5s-0.7-0.9-0.7-1.8c0-0.4,0.1-0.7,0.3-1c0.2-0.3,0.5-0.5,0.9-0.9
			c-0.3-0.2-0.4-0.5-0.4-1c0-0.2,0.1-0.5,0.4-0.9l0.1-0.2c-0.8-0.4-1.2-1.1-1.2-2.3c0-1.7,0.9-2.6,2.8-2.6c0.5,0,0.9,0,1.3,0.1h0.2
			l2.2-0.1v1h-1.4c0.3,0.3,0.5,0.8,0.5,1.5c0,0.9-0.2,1.6-0.7,2s-1.2,0.6-2.2,0.6c-0.3,0-0.5,0-0.7-0.1c-0.2,0.4-0.3,0.7-0.3,0.9
			c0,0.3,0.1,0.5,0.3,0.6c0.2,0.1,0.8,0.1,1.7,0.1c1,0,1.6,0.1,2.1,0.4c0.4,0.3,0.6,0.9,0.6,1.8C113.6,24.2,112.5,25,110.3,25z
			 M108.2,22.7c0,0.5,0.1,0.9,0.4,1.1s0.8,0.3,1.6,0.3s1.4-0.1,1.7-0.3s0.5-0.6,0.5-1.1s-0.1-0.8-0.4-1c-0.2-0.2-0.7-0.2-1.5-0.2
			l-1.6-0.1c-0.3,0.2-0.6,0.4-0.7,0.6C108.3,22.2,108.2,22.4,108.2,22.7z M108.3,16.4c0,0.6,0.1,1,0.4,1.3s0.7,0.4,1.3,0.4
			s1-0.1,1.3-0.4c0.3-0.2,0.4-0.7,0.4-1.3c0-0.6-0.1-1-0.4-1.3c-0.3-0.2-0.7-0.4-1.3-0.4s-1,0.1-1.3,0.4S108.3,15.8,108.3,16.4z"/>
	</g>
	<g>
		<path class="st6" d="M181.3,11.6v7h-1.1v-0.9h-4.3v4.9h-1.2v-4.9h-4.3v0.9h-1.1v-7.1h5.4V9h1.2v2.7L181.3,11.6L181.3,11.6z
			 M174.7,16.7v-4h-4.3v4H174.7z M180.2,16.7v-4h-4.3v4H180.2z"/>
		<path class="st6" d="M190.1,19.2c0,0,0,0.3,0,0.4c-0.2,1.6-0.3,2.3-0.6,2.6c-0.2,0.2-0.5,0.3-0.8,0.3s-0.9,0-1.6,0
			c0-0.3-0.1-0.6-0.2-0.8c0.6,0.1,1.2,0.1,1.3,0.1c0.2,0,0.3,0,0.5-0.1c0.2-0.2,0.3-0.6,0.4-1.6h-2c-0.4,1.2-1.3,2.1-3,2.7
			c-0.1-0.2-0.3-0.6-0.5-0.8c1.4-0.4,2.1-1,2.5-1.9h-2v-0.8h2.2c0.1-0.3,0.1-0.6,0.2-1h1c0,0.4-0.1,0.7-0.1,1h2.7V19.2z M196.8,10
			v0.9h-6v0.9h5v0.8h-11v-0.8h4.9v-0.9h-5.9V10h5.9V9h1.1v1H196.8z M193.5,16.3c-0.2,0.3-0.4,0.7-0.6,0.9h3.8v0.9h-12.9v-0.9h3.9
			c-0.1-0.3-0.4-0.7-0.6-1l0.7-0.2h-2.4v-2.7h9.9V16h-2.6L193.5,16.3z M186.4,15.4h7.8v-1.2h-7.8V15.4z M188.2,16.2
			c0.3,0.3,0.5,0.7,0.6,1l-0.5,0.1h3.5c0.2-0.4,0.4-0.8,0.6-1.1H188.2z M191,18.9h5.1v3.7h-1v-0.4H192v0.5h-1V18.9z M192,19.7v1.6
			h3.1v-1.6H192z"/>
	</g>
	<g>
		<path class="st6" d="M258,20.4c-1.3,0.8-3.4,1.7-5,2.2c-0.2-0.2-0.5-0.6-0.7-0.9c1.6-0.5,3.7-1.3,4.7-2.1L258,20.4z M265.7,19.5
			h-13.2v-1h2.7v-6.7h-2.3v-1.1h2.3V9h1.1v1.7h5.5V9h1.1v1.7h2.4v1.1h-2.4v6.7h2.7L265.7,19.5L265.7,19.5z M256.3,11.8v1.5h5.5v-1.5
			H256.3z M256.3,15.8h5.5v-1.6h-5.5V15.8z M256.3,18.4h5.5v-1.6h-5.5V18.4z M260.9,19.8c1.8,0.6,3.7,1.4,4.8,2.1l-1,0.7
			c-1.1-0.6-2.8-1.5-4.6-2.1L260.9,19.8z"/>
		<path class="st6" d="M271.6,9.3c-0.4,1.1-1,2.2-1.6,3.3v10h-1v-8.4c-0.5,0.7-1,1.3-1.5,1.8c-0.1-0.3-0.4-0.8-0.6-1.1
			c1.5-1.4,2.9-3.7,3.7-6L271.6,9.3z M278.8,21.5c0.9,0,1.1-0.4,1.2-2.2c0.3,0.2,0.7,0.4,1,0.4c-0.2,2.1-0.5,2.7-2.2,2.7h-3.9
			c-1.8,0-2.3-0.4-2.3-2.1v-4.9l-1.5,0.6l-0.4-1l1.9-0.8v-3.9h1V14l2.2-0.9V9h1v3.7l2.5-1l0.2-0.2l0.8,0.3V12c0,2.2-0.2,5-0.4,6.8
			l-0.9-0.3c0.2-1.4,0.2-3.7,0.3-5.7l-2.4,0.9v5.5h-1v-5.1l-2.2,0.9v5.3c0,0.9,0.2,1.1,1.3,1.1h3.8V21.5z"/>
	</g>
	<g>
		<path class="st6" d="M336.1,9.8h5.2v1H339c-0.2,1.2-0.6,2.4-0.9,3.6h3v6.4h-3V22h-0.9v-5.4c-0.3,0.4-0.5,0.9-0.8,1.2
			c-0.1-0.3-0.3-0.9-0.5-1.2c1-1.4,1.7-3.5,2.1-5.8h-1.9L336.1,9.8L336.1,9.8z M340.1,15.3h-2v4.4h2V15.3z M349.7,16.2H348v6.5h-1.1
			v-6.5h-2.4c0,2.3-0.4,4.8-2.1,6.5c-0.2-0.2-0.6-0.5-0.8-0.6c1.5-1.6,1.9-3.9,1.9-5.9h-1.6v-1.1h1.6v-4.3h-1.2v-1h7.2v1H348v4.3
			h1.7V16.2z M346.9,15.1v-4.3h-2.4v4.3H346.9z"/>
		<path class="st6" d="M353.4,10.9c-0.5,0.8-1,1.4-1.6,1.9c-0.2-0.2-0.5-0.6-0.8-0.7c0.9-0.8,1.8-2,2.3-3.3l1,0.3
			c-0.1,0.3-0.3,0.6-0.4,0.9h3.9v0.9H355c0.5,0.4,1,1,1.3,1.3l-0.7,0.6c-0.3-0.4-0.9-1-1.4-1.5l0.6-0.4H353.4z M357.9,12
			c0.2,0.3,0.5,0.8,0.6,1.2h5.5v2.4h-1.1V14H353v1.6h-1.1v-2.4h5.5c-0.1-0.3-0.3-0.7-0.5-0.9L357.9,12z M354.7,19h8.3v3.7h-1.1v-0.5
			h-7.2v0.5h-1.1V15h8.6v3h-7.5L354.7,19L354.7,19z M354.7,15.8v1.3h6.4v-1.3H354.7z M354.7,19.8v1.4h7.2v-1.4H354.7z M364.6,10.1
			V11h-3.2c0.5,0.4,1.2,1,1.5,1.4l-0.8,0.7c-0.3-0.4-1-1.1-1.6-1.5l0.6-0.5h-1.7c-0.3,0.5-0.7,0.9-1.1,1.2c-0.2-0.2-0.6-0.5-0.8-0.7
			c0.8-0.6,1.5-1.6,1.9-2.6l1,0.3c-0.1,0.3-0.3,0.6-0.4,0.9L364.6,10.1L364.6,10.1z"/>
	</g>
	<g>
		<path class="st6" d="M422.2,15.8c-0.5-0.5-1.6-1.1-2.4-1.5l0.6-0.8c0.9,0.4,1.9,1,2.5,1.4L422.2,15.8z M420.2,21.8
			c0.6-1.2,1.5-3.1,2.1-4.9l0.9,0.6c-0.6,1.6-1.3,3.4-2,4.8L420.2,21.8z M421.2,9.2c0.9,0.4,2,1,2.6,1.5l-0.7,0.9
			c-0.5-0.5-1.7-1.2-2.6-1.6L421.2,9.2z M425.8,11.7c-0.5,1-1,1.8-1.6,2.5c-0.2-0.2-0.7-0.5-1-0.6c1.1-1.1,2-2.9,2.5-4.6l1.1,0.3
			c-0.2,0.5-0.4,1-0.6,1.4h6.9v1H425.8z M432.3,17.2c-0.1,0.9-0.1,1.7-0.2,2.3h1v1H432c-0.2,0.8-0.3,1.2-0.5,1.5
			c-0.3,0.4-0.6,0.5-1,0.5s-1.2,0-1.9,0c0-0.3-0.1-0.7-0.3-0.9c0.8,0.1,1.5,0.1,1.7,0.1c0.3,0,0.4,0,0.6-0.2
			c0.1-0.1,0.2-0.4,0.3-0.9h-6.6c0.2-0.9,0.4-2.1,0.5-3.3h-1.4v-1h1.5c0.1-1.1,0.3-2.1,0.4-3.1h7.2c0,0,0,0.4,0,0.5
			c0,0.9-0.1,1.8-0.1,2.5h1.2v1H432.3z M431,19.5c0.1-0.6,0.2-1.3,0.2-2.3h-5.4c-0.1,0.8-0.2,1.6-0.3,2.3H431z M426.2,14.1
			c-0.1,0.7-0.2,1.4-0.3,2.1h3.2c-0.3-0.5-1-1.2-1.7-1.7l0.6-0.4c0.6,0.5,1.4,1.2,1.7,1.7l-0.6,0.4h2.1c0-0.6,0.1-1.3,0.1-2.1H426.2
			z M427.7,17.2c0.7,0.5,1.4,1.3,1.8,1.8l-0.7,0.5c-0.3-0.5-1.1-1.3-1.8-1.9L427.7,17.2z"/>
		<path class="st6" d="M441.2,11.2l0.8,0.3c-0.8,5.9-3.1,9.4-6.3,11.2c-0.2-0.3-0.6-0.7-0.9-0.9c1.7-0.9,3.2-2.3,4.3-4.3
			c-0.6-0.7-1.5-1.7-2.4-2.5c-0.3,0.5-0.6,1-0.9,1.4c-0.2-0.2-0.7-0.6-0.9-0.7c1.4-1.5,2.3-4,2.8-6.6l1.1,0.2
			c-0.2,0.7-0.3,1.4-0.5,2.1h2.8L441.2,11.2z M437.8,12.3c-0.2,0.6-0.5,1.2-0.7,1.7c0.8,0.7,1.8,1.6,2.5,2.3c0.5-1.2,0.9-2.5,1.1-4
			C440.7,12.3,437.8,12.3,437.8,12.3z M444.8,13.5c1.3,1,2.9,2.4,3.7,3.4l-0.9,0.8c-0.7-0.9-2-2.1-3.2-3.1v8.1h-1.1V9h1.1v4.8
			L444.8,13.5z"/>
	</g>
	<g>
		<path class="st6" d="M509.1,20.3c-1.1,0.8-3,1.6-4.6,1.9c-0.1-0.3-0.4-0.6-0.7-0.8c1.5-0.3,3.5-0.8,4.4-1.5L509.1,20.3z
			 M516.9,18.2v0.9h-6v3.6h-1.1v-3.6h-5.9v-0.9h5.9V17h-4.5v-0.9h4.5V15h-5.3v-0.9h3.2c-0.1-0.4-0.5-1-0.8-1.4l0.8-0.2h-3.9v-0.9
			h2.4c-0.2-0.6-0.7-1.5-1.2-2.2l0.9-0.3c0.5,0.7,1.1,1.6,1.3,2.2l-0.8,0.3h1.8V9h1v2.7h1.8V9h1.1v2.7h1.8l-0.6-0.2
			c0.4-0.6,0.9-1.6,1.2-2.3l1.1,0.3c-0.4,0.8-0.9,1.6-1.3,2.2h2.3v0.9h-3.9l1,0.3c-0.3,0.5-0.7,1-1,1.4h3.4v0.9h-5.4v1.1h4.7V17
			h-4.7v1.1h6.2V18.2z M508.1,12.6c0.3,0.5,0.7,1.1,0.8,1.5l-0.6,0.2h4.1l-0.5-0.2c0.3-0.4,0.7-1,0.9-1.5H508.1z M512.5,19.8
			c1.4,0.5,3.3,1.2,4.4,1.7l-0.7,0.7c-1-0.5-2.9-1.2-4.3-1.8L512.5,19.8z"/>
		<path class="st6" d="M522.9,17.6c0.3-0.6,0.6-1.5,0.8-2.4h-1.4v6.2c0,0.6-0.1,0.9-0.5,1.1s-1,0.2-1.9,0.2c0-0.3-0.2-0.7-0.3-1
			c0.6,0,1.2,0,1.4,0s0.2-0.1,0.2-0.2v-4.8c-0.6,1.4-1.4,2.9-2.2,3.7c-0.1-0.3-0.4-0.8-0.6-1c0.9-0.9,1.9-2.5,2.4-4h-2.3v-1h4
			c-0.8-0.7-2.2-1.5-3.3-2l0.7-0.7c0.5,0.2,1,0.4,1.5,0.7c0.6-0.4,1.1-1,1.6-1.5h-4.2v-1h5h0.2l0.7,0.5c-0.6,0.9-1.5,1.9-2.4,2.5
			c0.5,0.3,0.9,0.6,1.3,0.9l-0.6,0.6h1.1l0.2-0.1l0.7,0.2c-0.1,0.3-0.1,0.5-0.2,0.8c1-0.3,1.9-0.7,2.7-1.2c-0.6-0.5-1.1-1.2-1.5-1.8
			c-0.4,0.4-0.7,0.8-1.1,1.1c-0.2-0.2-0.6-0.5-0.9-0.6c1.2-0.9,2.2-2.2,2.9-3.7l1.1,0.3c-0.2,0.4-0.4,0.9-0.7,1.3h5v0.9h-1.2
			c-0.4,1-1,1.9-1.8,2.5c0.9,0.6,2.1,1,3.3,1.3c-0.2,0.2-0.6,0.7-0.7,1c-1.3-0.3-2.4-0.9-3.4-1.6c-0.9,0.7-2.1,1.2-3.3,1.5
			c-0.1-0.2-0.2-0.4-0.4-0.6c-0.3,0.9-0.6,1.7-0.9,2.3L522.9,17.6z M531.7,17.3c0,0,0,0.3,0,0.5c-0.3,2.8-0.6,3.9-1,4.4
			c-0.3,0.3-0.5,0.3-0.9,0.4c-0.4,0-1,0-1.7,0c0-0.3-0.1-0.8-0.3-1c0.6,0.1,1.2,0.1,1.5,0.1s0.4,0,0.5-0.2c0.3-0.3,0.5-1.1,0.7-3.2
			H528c-0.5,1.9-1.6,3.5-4,4.4c-0.1-0.3-0.4-0.7-0.7-0.9c2.1-0.8,3-2,3.5-3.5h-2.3v-0.9h2.6c0.1-0.5,0.2-1,0.2-1.5h1.1
			c0,0.5-0.1,1-0.2,1.5L531.7,17.3L531.7,17.3z M526.5,11.5c0.4,0.7,1,1.4,1.7,1.9c0.6-0.5,1.1-1.2,1.5-1.9H526.5z"/>
	</g>
</g>
<g>
	<circle class="st3" cx="48" cy="16.5" r="9.6"/>
	<circle class="st1" cx="154.8" cy="16.5" r="9.6"/>
	<circle class="st4" cx="238" cy="16.5" r="9.6"/>
	<circle class="st0" cx="319.9" cy="16.5" r="9.6"/>
	<circle class="st5" cx="407.8" cy="16.5" r="9.6"/>
	<circle class="st2" cx="491" cy="16.5" r="9.6"/>
</g>
<g>
	<g>
		<path class="st6" d="M420,159.2v6.8h-0.7v-0.9h-4.8v5h-0.7v-5H409v1h-0.7v-6.8h5.5v-2.7h0.7v2.7h5.5V159.2z M413.7,164.4V160h-4.8
			v4.4H413.7z M419.2,164.4V160h-4.8v4.4H419.2z"/>
		<path class="st6" d="M428.8,166.7c0,0,0,0.2,0,0.3c-0.2,1.7-0.3,2.4-0.6,2.7c-0.2,0.2-0.4,0.3-0.8,0.3c-0.3,0-0.9,0-1.6,0
			c0-0.2-0.1-0.4-0.2-0.6c0.7,0.1,1.3,0.1,1.5,0.1s0.4,0,0.4-0.1c0.2-0.2,0.3-0.7,0.5-2h-2.4c-0.4,1.3-1.2,2.2-2.9,2.8
			c-0.1-0.2-0.3-0.4-0.4-0.5c1.5-0.5,2.3-1.2,2.7-2.3h-2.2v-0.6h2.4c0.1-0.3,0.1-0.7,0.2-1.1h0.7c0,0.4-0.1,0.8-0.2,1.1L428.8,166.7
			L428.8,166.7z M435.6,157.6v0.6h-6.2v1.1h5.2v0.6h-11v-0.6h5.1v-1.1h-6v-0.6h6v-1.1h0.7v1.1H435.6z M432.1,163.7
			c-0.2,0.4-0.5,0.8-0.7,1.1h4.1v0.6h-12.8v-0.6h4.2c-0.1-0.3-0.5-0.9-0.8-1.2l0.4-0.1h-2.2v-2.6h9.7v2.6h-2.5L432.1,163.7z
			 M424.9,162.9h8.3v-1.4h-8.3V162.9z M426.7,163.5c0.4,0.3,0.7,0.8,0.8,1.1l-0.6,0.2h3.7c0.3-0.4,0.6-0.9,0.8-1.3H426.7z
			 M429.8,166.3h5v3.7h-0.7v-0.5h-3.7v0.6h-0.7v-3.8H429.8z M430.5,166.9v2h3.7v-2H430.5z"/>
		<path class="st6" d="M407.6,183.4h-5.1v-0.6l2.5-2.6c0.4-0.4,0.7-0.7,0.9-1c0.2-0.2,0.3-0.5,0.5-0.8c0.1-0.3,0.2-0.6,0.2-0.9
			c0-0.5-0.2-0.9-0.5-1.1c-0.3-0.2-0.8-0.3-1.4-0.3c-0.5,0-1.1,0.1-1.8,0.2l-0.3,0.1l-0.1-0.6c0.8-0.2,1.5-0.3,2.3-0.3
			s1.4,0.2,1.8,0.5s0.6,0.9,0.6,1.6c0,0.6-0.1,1-0.4,1.4s-0.7,0.9-1.2,1.5l-2.3,2.4h4.2L407.6,183.4L407.6,183.4z"/>
		<path class="st6" d="M412.9,183.4v-1.6h-4v-0.6l2.3-5.7h0.8l-2.3,5.7h3.2v-2.5h0.7v2.5h1.1v0.7h-1.1v1.6L412.9,183.4L412.9,183.4z
			"/>
		<path class="st6" d="M416.8,175.4c0.9,0,1.3,0.5,1.3,1.6c0,0.6-0.1,1-0.3,1.3c-0.2,0.3-0.5,0.4-0.9,0.4s-0.7-0.1-0.9-0.4
			c-0.2-0.3-0.3-0.7-0.3-1.3C415.6,175.9,416,175.4,416.8,175.4z M416.2,177c0,0.8,0.2,1.2,0.7,1.2c0.2,0,0.4-0.1,0.5-0.3
			s0.2-0.5,0.2-0.9s-0.1-0.7-0.2-0.9s-0.3-0.3-0.5-0.3s-0.4,0.1-0.5,0.3C416.2,176.3,416.2,176.6,416.2,177z M417.1,183.4l2.4-8.1
			l0.5,0.2l-2.4,8.1L417.1,183.4z M418.9,181.8c0-1.1,0.4-1.6,1.3-1.6s1.3,0.5,1.3,1.6c0,0.6-0.1,1-0.3,1.3
			c-0.2,0.3-0.5,0.4-0.9,0.4s-0.7-0.1-0.9-0.4C419.1,182.8,418.9,182.4,418.9,181.8z M419.6,181.8c0,0.8,0.2,1.2,0.7,1.2
			s0.7-0.4,0.7-1.2c0-0.4-0.1-0.7-0.2-0.8c-0.1-0.2-0.3-0.3-0.5-0.3s-0.4,0.1-0.5,0.3C419.6,181.2,419.6,181.4,419.6,181.8z"/>
		<path class="st6" d="M423.7,177.1c-0.2,1.1-0.4,2-0.4,2.7s0.1,1.4,0.3,2.3c0.2,0.9,0.4,1.5,0.6,2l0.3,0.8h-0.7
			c-0.1-0.2-0.2-0.5-0.3-0.8c-0.1-0.3-0.3-1-0.5-1.9s-0.3-1.7-0.3-2.3s0-1.2,0.1-1.7s0.2-1,0.3-1.5c0.2-0.9,0.4-1.6,0.6-2.1l0.1-0.3
			h0.7C424.2,175.1,423.9,176,423.7,177.1z"/>
		<path class="st6" d="M426.2,175.9c0.5-0.3,1.2-0.5,2.1-0.5s1.6,0.2,2.1,0.5s0.8,0.8,0.8,1.5c0,0.5-0.1,0.9-0.3,1.2
			c-0.2,0.3-0.6,0.5-1.1,0.7c0.5,0.2,0.9,0.4,1.2,0.7c0.3,0.3,0.4,0.7,0.4,1.3c0,1.5-1,2.3-3,2.3c-0.9,0-1.6-0.2-2.1-0.5
			s-0.8-0.9-0.8-1.6c0-0.6,0.1-1,0.4-1.3c0.2-0.3,0.6-0.6,1.1-0.8c-0.5-0.2-0.8-0.5-1-0.7c-0.2-0.3-0.3-0.7-0.3-1.1
			C425.4,176.7,425.7,176.2,426.2,175.9z M428.3,182.8c0.7,0,1.2-0.1,1.6-0.4c0.4-0.2,0.6-0.6,0.6-1.2s-0.1-0.9-0.4-1.1
			c-0.3-0.2-0.7-0.4-1.2-0.5h-1.3c-0.5,0.1-0.8,0.3-1.1,0.6c-0.2,0.3-0.4,0.6-0.4,1.1C426.1,182.3,426.8,182.8,428.3,182.8z
			 M430.3,177.5c0-1-0.7-1.4-2-1.4c-1.4,0-2,0.5-2,1.4c0,0.4,0.1,0.7,0.3,0.9c0.2,0.2,0.5,0.4,1,0.6h1.3c0.5-0.1,0.9-0.3,1.1-0.6
			C430.2,178.2,430.3,177.8,430.3,177.5z"/>
		<path class="st6" d="M432.9,175.9c0.5-0.3,1.2-0.5,2.1-0.5s1.6,0.2,2.1,0.5s0.8,0.8,0.8,1.5c0,0.5-0.1,0.9-0.3,1.2
			c-0.2,0.3-0.6,0.5-1.1,0.7c0.5,0.2,0.9,0.4,1.2,0.7c0.3,0.3,0.4,0.7,0.4,1.3c0,1.5-1,2.3-3,2.3c-0.9,0-1.6-0.2-2.1-0.5
			s-0.8-0.9-0.8-1.6c0-0.6,0.1-1,0.4-1.3c0.2-0.3,0.6-0.6,1.1-0.8c-0.5-0.2-0.8-0.5-1-0.7c-0.2-0.3-0.3-0.7-0.3-1.1
			C432.2,176.7,432.4,176.2,432.9,175.9z M435,182.8c0.7,0,1.2-0.1,1.6-0.4c0.4-0.2,0.6-0.6,0.6-1.2s-0.1-0.9-0.4-1.1
			c-0.3-0.2-0.7-0.4-1.2-0.5h-1.3c-0.5,0.1-0.8,0.3-1.1,0.6c-0.2,0.3-0.4,0.6-0.4,1.1C432.8,182.3,433.5,182.8,435,182.8z
			 M437,177.5c0-1-0.7-1.4-2-1.4c-1.4,0-2,0.5-2,1.4c0,0.4,0.1,0.7,0.3,0.9c0.2,0.2,0.5,0.4,1,0.6h1.3c0.5-0.1,0.9-0.3,1.1-0.6
			C436.9,178.2,437,177.8,437,177.5z"/>
		<path class="st6" d="M440.4,177.2c0.2,1,0.3,1.8,0.3,2.5s-0.1,1.5-0.3,2.4c-0.2,0.9-0.4,1.5-0.6,2l-0.3,0.7h-0.7
			c0.3-0.7,0.5-1.5,0.8-2.6s0.4-1.9,0.4-2.5s-0.1-1.5-0.3-2.4s-0.4-1.6-0.6-2.2l-0.3-0.8h0.7c0.1,0.2,0.2,0.5,0.3,0.9
			C440,175.6,440.2,176.3,440.4,177.2z"/>
	</g>
	<g>
		<path class="st6" d="M425.2,299.4c-1.3,0.9-3.4,1.7-5,2.3c-0.1-0.2-0.3-0.4-0.5-0.6c1.7-0.5,3.7-1.4,4.8-2.2L425.2,299.4z
			 M433.1,298.6h-13.2v-0.7h2.9v-7.1h-2.5v-0.7h2.5v-1.9h0.7v1.9h6.1v-1.9h0.7v1.9h2.5v0.7h-2.5v7.1h2.9v0.7H433.1z M423.4,290.8
			v1.8h6.1v-1.8H423.4z M423.4,295.2h6.1v-2h-6.1V295.2z M423.4,297.9h6.1v-2h-6.1V297.9z M428.2,299c1.8,0.6,3.7,1.5,4.9,2.1
			l-0.6,0.5c-1.1-0.7-2.9-1.5-4.8-2.2L428.2,299z"/>
		<path class="st6" d="M438.9,288.4c-0.5,1.2-1,2.3-1.6,3.3v10h-0.7v-8.9c-0.6,0.8-1.2,1.6-1.8,2.2c-0.1-0.1-0.3-0.5-0.4-0.6
			c1.5-1.5,3-3.8,3.9-6.2L438.9,288.4z M446.4,301c1,0,1.1-0.5,1.2-2.2c0.2,0.1,0.5,0.3,0.7,0.3c-0.2,2-0.4,2.6-1.9,2.6h-4.3
			c-1.6,0-2.1-0.3-2.1-1.8v-5.4l-1.7,0.7l-0.3-0.6l2-0.8v-4.2h0.7v3.9l2.6-1v-4.3h0.7v4l2.8-1.1l0.2-0.2l0.5,0.2v0.2
			c0,2.2-0.1,5.1-0.3,6.8l-0.6-0.2c0.2-1.5,0.2-4,0.3-6l-2.8,1.1v5.6h-0.7v-5.3l-2.6,1v5.7c0,0.8,0.2,1.1,1.3,1.1h4.3V301z"/>
		<path class="st6" d="M423.2,307.1v0.7h-3.9l-0.2,2.8c0.6-0.4,1.3-0.5,2-0.5c1.7,0,2.5,0.8,2.5,2.3c0,0.9-0.2,1.6-0.7,2
			s-1.1,0.7-1.9,0.7c-0.7,0-1.4-0.1-2.2-0.2l-0.4-0.1l0.1-0.6c0.9,0.2,1.7,0.3,2.3,0.3c0.7,0,1.2-0.2,1.5-0.5
			c0.3-0.4,0.5-0.8,0.5-1.5c0-0.6-0.2-1.1-0.5-1.3c-0.3-0.3-0.8-0.4-1.3-0.4c-0.3,0-0.6,0-0.9,0.1s-0.6,0.2-0.8,0.3l-0.3,0.1
			l-0.6-0.1l0.2-4.1L423.2,307.1L423.2,307.1z"/>
		<path class="st6" d="M425.9,307c0.9,0,1.3,0.5,1.3,1.6c0,0.6-0.1,1-0.3,1.3c-0.2,0.3-0.5,0.4-0.9,0.4s-0.7-0.1-0.9-0.4
			c-0.2-0.3-0.3-0.7-0.3-1.3C424.6,307.6,425,307,425.9,307z M425.2,308.7c0,0.8,0.2,1.2,0.7,1.2c0.2,0,0.4-0.1,0.5-0.3
			c0.1-0.2,0.2-0.5,0.2-0.9s-0.1-0.7-0.2-0.9c-0.1-0.2-0.3-0.3-0.5-0.3s-0.4,0.1-0.5,0.3C425.3,308,425.2,308.3,425.2,308.7z
			 M426.1,315.1l2.4-8.1l0.5,0.2l-2.4,8.1L426.1,315.1z M428,313.5c0-1.1,0.4-1.6,1.3-1.6s1.3,0.5,1.3,1.6c0,0.6-0.1,1-0.3,1.3
			s-0.5,0.4-0.9,0.4s-0.7-0.1-0.9-0.4C428.1,314.5,428,314.1,428,313.5z M428.6,313.5c0,0.8,0.2,1.2,0.7,1.2s0.7-0.4,0.7-1.2
			c0-0.4-0.1-0.7-0.2-0.8c-0.1-0.2-0.3-0.3-0.5-0.3s-0.4,0.1-0.5,0.3C428.6,312.8,428.6,313.1,428.6,313.5z"/>
		<path class="st6" d="M432.7,308.8c-0.2,1.1-0.4,2-0.4,2.7s0.1,1.4,0.3,2.3c0.2,0.9,0.4,1.5,0.6,2l0.3,0.8h-0.7
			c-0.1-0.2-0.2-0.5-0.3-0.8c-0.1-0.3-0.3-1-0.5-1.9s-0.3-1.7-0.3-2.3c0-0.6,0-1.2,0.1-1.7s0.2-1,0.3-1.5c0.2-0.9,0.4-1.6,0.6-2.1
			l0.1-0.3h0.7C433.2,306.8,433,307.7,432.7,308.8z"/>
		<path class="st6" d="M438.5,307.1v7.9h-0.7v-7l-2.1,1.4l-0.3-0.6l2.5-1.7L438.5,307.1L438.5,307.1z"/>
		<path class="st6" d="M441.6,307.8v-0.7h4.9v1.1l-3.1,7l-0.7-0.2l3.1-6.8v-0.3h-4.2V307.8z"/>
		<path class="st6" d="M449.4,308.9c0.2,1,0.3,1.8,0.3,2.5s-0.1,1.5-0.3,2.4s-0.4,1.5-0.6,2l-0.3,0.7h-0.7c0.3-0.7,0.5-1.5,0.8-2.6
			c0.2-1,0.4-1.9,0.4-2.6s-0.1-1.5-0.3-2.4c-0.2-0.9-0.4-1.6-0.6-2.2l-0.3-0.8h0.7c0.1,0.2,0.2,0.5,0.3,0.9S449.2,308,449.4,308.9z"
			/>
	</g>
	<g>
		<path class="st6" d="M379.3,332.7h5.2v0.7h-2.4c-0.3,1.4-0.6,2.7-1,3.9h3.1v6.2h-3.1v1.2h-0.7v-5.9c-0.3,0.5-0.6,1-0.9,1.5
			c-0.1-0.2-0.3-0.5-0.4-0.7c1.1-1.5,1.8-3.8,2.3-6.3h-2v-0.6H379.3z M381.1,337.9v4.9h2.4v-4.9H381.1z M392.8,338.7H391v6.6h-0.7
			v-6.6h-2.9c0,2.4-0.4,4.8-2.1,6.7c-0.1-0.1-0.4-0.3-0.6-0.4c1.7-1.8,2-4.1,2.1-6.3H385V338h1.8v-4.7h-1.4v-0.7h7.1v0.7H391v4.7
			h1.8V338.7z M390.3,338v-4.7h-2.9v4.7H390.3z"/>
		<path class="st6" d="M396.4,333.6c-0.5,0.8-1,1.4-1.6,2c-0.1-0.1-0.4-0.4-0.6-0.5c1-0.8,1.8-2.1,2.4-3.4l0.7,0.2
			c-0.1,0.4-0.3,0.7-0.5,1.1h4.2v0.6L396.4,333.6L396.4,333.6z M400.9,334.8c0.2,0.4,0.5,0.8,0.6,1.2h5.5v2.4h-0.7v-1.8H396v1.8
			h-0.7V336h5.5c-0.1-0.3-0.3-0.7-0.5-1L400.9,334.8z M397.5,341.8h8.5v3.5h-0.7v-0.5h-7.8v0.6h-0.7v-7.6h8.4v2.8h-7.7L397.5,341.8
			L397.5,341.8z M397.8,333.7c0.5,0.4,1.1,1.1,1.4,1.5l-0.5,0.4c-0.3-0.4-0.9-1.1-1.4-1.5L397.8,333.7z M397.5,338.3v1.6h7v-1.6
			H397.5z M397.5,342.4v1.8h7.8v-1.8H397.5z M407.7,333v0.6h-5.2c-0.3,0.5-0.7,0.9-1.1,1.3c-0.1-0.1-0.4-0.3-0.6-0.4
			c0.8-0.7,1.5-1.7,1.9-2.7l0.7,0.2c-0.2,0.4-0.3,0.8-0.5,1.1h4.8V333z M405.4,335.6c-0.3-0.4-1-1-1.6-1.5l0.5-0.4
			c0.5,0.4,1.2,1,1.6,1.5L405.4,335.6z"/>
		<path class="st6" d="M378.3,351.1c0.5-0.3,1.2-0.5,2.1-0.5s1.6,0.2,2.1,0.5s0.8,0.8,0.8,1.5c0,0.5-0.1,0.9-0.3,1.2
			c-0.2,0.3-0.6,0.5-1.1,0.7c0.5,0.2,0.9,0.4,1.2,0.7s0.4,0.7,0.4,1.3c0,1.5-1,2.3-3,2.3c-0.9,0-1.6-0.2-2.1-0.5s-0.8-0.9-0.8-1.6
			c0-0.6,0.1-1,0.4-1.3s0.6-0.6,1.1-0.8c-0.5-0.2-0.8-0.5-1-0.7c-0.2-0.3-0.3-0.7-0.3-1.1C377.5,352,377.8,351.5,378.3,351.1z
			 M380.4,358.1c0.7,0,1.2-0.1,1.6-0.4c0.4-0.2,0.6-0.6,0.6-1.2s-0.1-0.9-0.4-1.1s-0.7-0.4-1.2-0.5h-1.3c-0.5,0.1-0.8,0.3-1.1,0.6
			c-0.2,0.3-0.4,0.6-0.4,1.1C378.2,357.6,378.9,358.1,380.4,358.1z M382.4,352.7c0-1-0.7-1.4-2-1.4c-1.4,0-2,0.5-2,1.4
			c0,0.4,0.1,0.7,0.3,0.9c0.2,0.2,0.5,0.4,1,0.6h1.3c0.5-0.1,0.9-0.3,1.1-0.6S382.4,353.1,382.4,352.7z"/>
		<path class="st6" d="M385.4,350.6c0.9,0,1.3,0.5,1.3,1.6c0,0.6-0.1,1-0.3,1.3c-0.2,0.3-0.5,0.4-0.9,0.4s-0.7-0.1-0.9-0.4
			c-0.2-0.3-0.3-0.7-0.3-1.3C384.1,351.2,384.6,350.6,385.4,350.6z M384.7,352.3c0,0.8,0.2,1.2,0.7,1.2c0.2,0,0.4-0.1,0.5-0.3
			c0.1-0.2,0.2-0.5,0.2-0.9s-0.1-0.7-0.2-0.9c-0.1-0.2-0.3-0.3-0.5-0.3s-0.4,0.1-0.5,0.3C384.8,351.6,384.7,351.9,384.7,352.3z
			 M385.7,358.7l2.4-8.1l0.5,0.2l-2.4,8.1L385.7,358.7z M387.5,357.1c0-1.1,0.4-1.6,1.3-1.6s1.3,0.5,1.3,1.6c0,0.6-0.1,1-0.3,1.3
			c-0.2,0.3-0.5,0.4-0.9,0.4s-0.7-0.1-0.9-0.4C387.6,358.1,387.5,357.7,387.5,357.1z M388.1,357.1c0,0.8,0.2,1.2,0.7,1.2
			s0.7-0.4,0.7-1.2c0-0.4-0.1-0.7-0.2-0.8c-0.1-0.2-0.3-0.3-0.5-0.3s-0.4,0.1-0.5,0.3C388.2,356.4,388.1,356.7,388.1,357.1z"/>
		<path class="st6" d="M392.3,352.4c-0.2,1.1-0.4,2-0.4,2.7s0.1,1.4,0.3,2.3c0.2,0.9,0.4,1.5,0.6,2l0.3,0.8h-0.7
			c-0.1-0.2-0.2-0.5-0.3-0.8c-0.1-0.3-0.3-1-0.5-1.9s-0.3-1.7-0.3-2.3s0-1.2,0.1-1.7s0.2-1,0.3-1.5c0.2-0.9,0.4-1.6,0.6-2.1l0.1-0.3
			h0.7C392.8,350.4,392.5,351.3,392.3,352.4z"/>
		<path class="st6" d="M394.4,350.9c0.8-0.2,1.5-0.3,2.4-0.3s1.5,0.2,1.8,0.5c0.4,0.3,0.6,0.8,0.6,1.5c0,0.8-0.4,1.4-1.1,1.7
			l-0.1,0.1c0.5,0.2,0.9,0.4,1.1,0.6c0.2,0.3,0.4,0.7,0.4,1.3c0,0.8-0.2,1.4-0.6,1.8s-1.1,0.6-1.9,0.6s-1.5-0.1-2.2-0.2l-0.4-0.1
			l0.1-0.6c0.9,0.2,1.7,0.3,2.5,0.3c1.2,0,1.8-0.5,1.8-1.6c0-1-0.6-1.6-1.7-1.6h-1.6v-0.6h1.6c0.4,0,0.7-0.1,1-0.4s0.5-0.7,0.5-1.1
			c0-0.5-0.1-0.8-0.4-1s-0.7-0.3-1.3-0.3s-1.3,0.1-1.9,0.2l-0.3,0.1L394.4,350.9z"/>
		<path class="st6" d="M401.1,352.3c0.2-0.6,0.5-1.1,0.9-1.3c0.4-0.2,0.9-0.4,1.4-0.4c0.6,0,1,0.1,1.3,0.2s0.6,0.4,0.9,0.7
			c0.5,0.6,0.7,1.7,0.7,3.2s-0.2,2.6-0.7,3.2s-1.2,0.9-2.1,0.9s-1.7-0.3-2.1-0.9c-0.5-0.6-0.7-1.6-0.7-3.1
			C400.7,353.8,400.8,352.9,401.1,352.3z M404.7,351.6c-0.3-0.2-0.7-0.3-1.2-0.3s-0.9,0.1-1.2,0.3c-0.6,0.4-0.9,1.5-0.9,3.3
			c0,1.2,0.2,2.1,0.5,2.6s0.9,0.7,1.6,0.7c0.5,0,0.8-0.1,1.1-0.3c0.6-0.4,0.9-1.4,0.9-3C405.6,353.1,405.3,352,404.7,351.6z"/>
		<path class="st6" d="M409,352.5c0.2,1,0.3,1.8,0.3,2.5s-0.1,1.5-0.3,2.4c-0.2,0.9-0.4,1.5-0.6,2l-0.3,0.7h-0.7
			c0.3-0.7,0.5-1.5,0.8-2.6c0.2-1,0.4-1.9,0.4-2.5s-0.1-1.5-0.3-2.4c-0.2-0.9-0.4-1.6-0.6-2.2l-0.3-0.8h0.7c0.1,0.2,0.2,0.5,0.3,0.9
			C408.6,350.9,408.8,351.6,409,352.5z"/>
	</g>
	<g>
		<path class="st6" d="M334.4,367.3c-0.5-0.5-1.6-1.1-2.4-1.5l0.4-0.5c0.9,0.4,1.9,1,2.5,1.4L334.4,367.3z M332.4,373.6
			c0.6-1.2,1.5-3.2,2.1-4.9l0.6,0.4c-0.5,1.6-1.3,3.5-2,4.9L332.4,373.6z M333.2,360.9c0.9,0.4,2,1,2.6,1.5l-0.4,0.6
			c-0.6-0.5-1.7-1.1-2.6-1.5L333.2,360.9z M337.7,363.2c-0.5,1-1.1,1.9-1.7,2.6c-0.2-0.1-0.5-0.3-0.7-0.4c1.1-1.2,2-2.9,2.6-4.7
			l0.7,0.2c-0.2,0.6-0.4,1.1-0.6,1.6h7.2v0.7L337.7,363.2L337.7,363.2z M344.3,368.7c-0.1,1.1-0.1,2-0.2,2.7h1.1v0.7H344
			c-0.1,0.9-0.3,1.3-0.5,1.6c-0.3,0.3-0.5,0.4-1,0.4c-0.4,0-1.2,0-1.9-0.1c0-0.2-0.1-0.5-0.2-0.6c0.8,0.1,1.6,0.1,1.9,0.1
			s0.4,0,0.6-0.2s0.3-0.5,0.4-1.2h-6.9c0.2-0.9,0.4-2.1,0.6-3.4h-1.4V368h1.5c0.2-1.1,0.3-2.2,0.4-3.2h7.1c0,0,0,0.3,0,0.4
			c0,1-0.1,1.9-0.1,2.8h1.2v0.7L344.3,368.7L344.3,368.7z M343.4,371.5c0.1-0.7,0.2-1.6,0.2-2.7h-6c-0.1,1-0.3,2-0.4,2.7H343.4z
			 M338,365.6c-0.1,0.8-0.2,1.7-0.3,2.5h5.9c0-0.7,0.1-1.6,0.1-2.5H338z M341.1,371.3c-0.4-0.6-1.2-1.4-1.9-2l0.5-0.3
			c0.7,0.6,1.5,1.4,1.9,2L341.1,371.3z M340,365.7c0.7,0.5,1.5,1.3,1.9,1.8l-0.5,0.3c-0.3-0.5-1.1-1.3-1.8-1.8L340,365.7z"/>
		<path class="st6" d="M353.5,363l0.5,0.2c-0.9,5.8-3.2,9.3-6.3,11c-0.1-0.2-0.4-0.5-0.6-0.6c1.8-1,3.3-2.5,4.4-4.6
			c-0.6-0.8-1.7-1.9-2.8-2.7c-0.3,0.6-0.6,1.1-1,1.5c-0.1-0.1-0.5-0.3-0.6-0.5c1.4-1.6,2.4-4,3-6.7l0.7,0.1
			c-0.2,0.8-0.4,1.5-0.6,2.2h3.2L353.5,363z M349.9,363.8c-0.3,0.7-0.6,1.4-0.9,2c1,0.8,2.1,1.8,2.8,2.6c0.6-1.3,1.1-2.9,1.3-4.6
			H349.9z M356.6,365.3c1.4,1,3.1,2.4,4,3.3l-0.5,0.5c-0.8-0.9-2.4-2.2-3.7-3.3v8.4h-0.7v-13.6h0.7v4.8L356.6,365.3z"/>
		<path class="st6" d="M330.7,379.9c0.8-0.2,1.5-0.3,2.4-0.3s1.5,0.2,1.8,0.5c0.4,0.3,0.6,0.8,0.6,1.5c0,0.8-0.4,1.4-1.1,1.7
			l-0.1,0.1c0.5,0.2,0.9,0.4,1.1,0.6c0.2,0.3,0.4,0.7,0.4,1.3c0,0.8-0.2,1.4-0.6,1.8s-1.1,0.6-1.9,0.6s-1.5-0.1-2.2-0.2l-0.4-0.1
			l0.1-0.6c0.9,0.2,1.7,0.3,2.5,0.3c1.2,0,1.8-0.5,1.8-1.6c0-1-0.6-1.6-1.7-1.6h-1.6v-0.6h1.6c0.4,0,0.7-0.1,1-0.4s0.5-0.7,0.5-1.1
			c0-0.5-0.1-0.8-0.4-1s-0.7-0.3-1.3-0.3s-1.3,0.1-1.9,0.2l-0.3,0.1L330.7,379.9z"/>
		<path class="st6" d="M338.2,379.6c0.9,0,1.3,0.5,1.3,1.6c0,0.6-0.1,1-0.3,1.3c-0.2,0.3-0.5,0.4-0.9,0.4s-0.7-0.1-0.9-0.4
			c-0.2-0.3-0.3-0.7-0.3-1.3C336.9,380.1,337.3,379.6,338.2,379.6z M337.5,381.2c0,0.8,0.2,1.2,0.7,1.2c0.2,0,0.4-0.1,0.5-0.3
			c0.1-0.2,0.2-0.5,0.2-0.9s-0.1-0.7-0.2-0.9c-0.1-0.2-0.3-0.3-0.5-0.3s-0.4,0.1-0.5,0.3C337.6,380.5,337.5,380.8,337.5,381.2z
			 M338.5,387.6l2.4-8.1l0.5,0.2l-2.4,8.1L338.5,387.6z M340.3,386c0-1.1,0.4-1.6,1.3-1.6s1.3,0.5,1.3,1.6c0,0.6-0.1,1-0.3,1.3
			s-0.5,0.4-0.9,0.4s-0.7-0.1-0.9-0.4C340.4,387,340.3,386.6,340.3,386z M340.9,386c0,0.8,0.2,1.2,0.7,1.2s0.7-0.4,0.7-1.2
			c0-0.4-0.1-0.7-0.2-0.8c-0.1-0.2-0.3-0.3-0.5-0.3s-0.4,0.1-0.5,0.3S340.9,385.6,340.9,386z"/>
		<path class="st6" d="M345,381.3c-0.2,1.1-0.4,2-0.4,2.7s0.1,1.4,0.3,2.3s0.4,1.5,0.6,2l0.3,0.8h-0.7c-0.1-0.2-0.2-0.5-0.3-0.8
			c-0.1-0.3-0.3-1-0.5-1.9s-0.3-1.7-0.3-2.3c0-0.6,0-1.2,0.1-1.7s0.2-1,0.3-1.5c0.2-0.9,0.4-1.6,0.6-2.1l0.1-0.3h0.7
			C345.5,379.3,345.3,380.2,345,381.3z"/>
		<path class="st6" d="M350.8,379.7v7.9h-0.7v-7.1l-2.1,1.4l-0.3-0.6l2.5-1.7h0.6V379.7z"/>
		<path class="st6" d="M358.9,387.6h-5.1V387l2.5-2.6c0.4-0.4,0.7-0.7,0.9-1c0.2-0.2,0.3-0.5,0.5-0.8s0.2-0.6,0.2-0.9
			c0-0.5-0.2-0.9-0.5-1.1s-0.8-0.3-1.4-0.3c-0.5,0-1.1,0.1-1.8,0.2l-0.3,0.1l-0.1-0.6c0.8-0.2,1.5-0.3,2.3-0.3s1.4,0.2,1.8,0.5
			s0.6,0.9,0.6,1.6c0,0.6-0.1,1-0.4,1.4s-0.7,0.9-1.2,1.5l-2.3,2.4h4.2L358.9,387.6L358.9,387.6z"/>
		<path class="st6" d="M361.8,381.4c0.2,1,0.3,1.8,0.3,2.5s-0.1,1.5-0.3,2.4c-0.2,0.9-0.4,1.5-0.6,2l-0.3,0.7h-0.7
			c0.3-0.7,0.5-1.5,0.8-2.6c0.2-1,0.4-1.9,0.4-2.5c0-0.7-0.1-1.5-0.3-2.4c-0.2-0.9-0.4-1.6-0.6-2.2l-0.3-0.8h0.7
			c0.1,0.2,0.2,0.5,0.3,0.9S361.5,380.5,361.8,381.4z"/>
	</g>
	<g>
		<path class="st6" d="M140.4,222.8c-1.1,0.8-3.2,1.5-4.7,1.9c-0.1-0.2-0.3-0.4-0.5-0.6c1.6-0.3,3.6-0.9,4.7-1.6L140.4,222.8z
			 M148.2,220.9v0.6H142v3.7h-0.7v-3.7h-6.1v-0.6h6.1v-1.4h-4.7v-0.6h4.7v-1.4h-5.4V217h3.5c-0.1-0.5-0.5-1.2-0.9-1.7l0.6-0.2
			c0.4,0.5,0.8,1.2,0.9,1.7l-0.5,0.2h4.2l-0.5-0.2c0.3-0.5,0.8-1.2,1-1.7l0.7,0.2c-0.3,0.6-0.7,1.2-1.1,1.7h3.7v0.6h-5.6v1.4h4.8
			v0.6h-4.8v1.4h6.3V220.9z M148.2,215.1h-12.9v-0.6h4.6v-2.8h0.7v2.8h2.2v-2.8h0.7v2.8h4.7V215.1z M138,214.4
			c-0.2-0.6-0.8-1.6-1.3-2.3l0.6-0.2c0.6,0.7,1.1,1.6,1.4,2.3L138,214.4z M143.6,222.4c1.5,0.5,3.5,1.2,4.6,1.7l-0.4,0.5
			c-1-0.5-3.1-1.2-4.6-1.8L143.6,222.4z M147,212.1c-0.4,0.8-0.9,1.7-1.4,2.4l-0.6-0.2c0.4-0.6,1-1.7,1.3-2.4L147,212.1z"/>
		<path class="st6" d="M162.1,213.9c-0.5,1.1-1.1,2-2,2.7c1,0.7,2.2,1.3,3.6,1.6c-0.2,0.2-0.4,0.4-0.5,0.6c-1.3-0.4-2.6-1-3.6-1.8
			c-1,0.7-2.1,1.3-3.4,1.7c-0.1-0.1-0.2-0.4-0.4-0.5c-0.3,0.8-0.6,1.7-1,2.2l-0.5-0.3c0.4-0.7,0.8-1.7,1-2.6h-1.9v6.7
			c0,0.4-0.1,0.6-0.4,0.8c-0.3,0.1-0.8,0.1-1.7,0.1c0-0.2-0.1-0.5-0.2-0.7c0.7,0,1.3,0,1.5,0s0.2-0.1,0.2-0.2v-5.8
			c-0.6,1.7-1.5,3.3-2.4,4.3c-0.1-0.2-0.3-0.5-0.4-0.6c1-1,2-2.8,2.5-4.6H150v-0.7h5.6h0.1l0.5,0.2c-0.1,0.4-0.2,0.7-0.4,1.1
			c1.2-0.3,2.3-0.8,3.2-1.5c-0.7-0.6-1.4-1.4-1.8-2.2c-0.4,0.5-0.9,1-1.3,1.4c-0.1-0.1-0.4-0.3-0.6-0.5c1.2-0.9,2.2-2.2,2.9-3.7
			l0.7,0.2c-0.2,0.5-0.5,1-0.8,1.4h5.3v0.6h-1.3V213.9z M151.2,214.1c0.5,0.2,1.1,0.5,1.6,0.8c0.7-0.5,1.5-1.2,2-1.8h-4.7v-0.6h5.2
			h0.1l0.5,0.3c-0.6,0.9-1.6,1.9-2.6,2.6c0.6,0.4,1,0.7,1.4,1.1l-0.5,0.6c-0.7-0.7-2.2-1.7-3.5-2.3L151.2,214.1z M163,220
			c0,0,0,0.3,0,0.4c-0.3,2.9-0.6,4-1,4.5c-0.2,0.2-0.5,0.3-0.9,0.3c-0.3,0-1,0-1.7,0c0-0.2-0.1-0.5-0.2-0.7c0.7,0.1,1.4,0.1,1.6,0.1
			c0.3,0,0.4,0,0.5-0.1c0.3-0.3,0.6-1.3,0.8-3.7h-3c-0.5,2-1.6,3.6-4,4.5c-0.1-0.2-0.3-0.4-0.4-0.6c2.2-0.8,3.2-2.2,3.7-4h-2.7V220
			h2.8c0.1-0.5,0.2-1,0.2-1.6h0.7c-0.1,0.5-0.1,1.1-0.2,1.6H163z M157.6,213.9c0.5,0.9,1.1,1.6,1.9,2.3c0.8-0.6,1.4-1.4,1.8-2.3
			H157.6L157.6,213.9z"/>
		<path class="st6" d="M131.7,230.6v0.7h-3.9l-0.2,2.8c0.6-0.4,1.3-0.5,2-0.5c1.7,0,2.5,0.8,2.5,2.3c0,0.9-0.2,1.6-0.7,2
			c-0.5,0.5-1.1,0.7-1.9,0.7c-0.7,0-1.4-0.1-2.2-0.2l-0.4-0.1l0.1-0.6c0.9,0.2,1.7,0.3,2.3,0.3c0.7,0,1.2-0.2,1.5-0.5
			c0.3-0.4,0.5-0.8,0.5-1.5s-0.2-1.1-0.5-1.3c-0.3-0.3-0.8-0.4-1.3-0.4c-0.3,0-0.6,0-0.9,0.1c-0.3,0.1-0.6,0.2-0.8,0.3l-0.3,0.1
			l-0.6-0.1l0.2-4.1H131.7z"/>
		<path class="st6" d="M138.4,230.6v0.7h-3.9l-0.2,2.8c0.6-0.4,1.3-0.5,2-0.5c1.7,0,2.5,0.8,2.5,2.3c0,0.9-0.2,1.6-0.7,2
			c-0.5,0.5-1.1,0.7-1.9,0.7c-0.7,0-1.4-0.1-2.2-0.2l-0.4-0.1l0.1-0.6c0.9,0.2,1.7,0.3,2.3,0.3c0.7,0,1.2-0.2,1.5-0.5
			c0.3-0.4,0.5-0.8,0.5-1.5s-0.2-1.1-0.5-1.3c-0.3-0.3-0.8-0.4-1.3-0.4c-0.3,0-0.6,0-0.9,0.1c-0.3,0.1-0.6,0.2-0.8,0.3l-0.3,0.1
			l-0.6-0.1l0.2-4.1H138.4z"/>
		<path class="st6" d="M141.2,230.5c0.9,0,1.3,0.5,1.3,1.6c0,0.6-0.1,1-0.3,1.3s-0.5,0.4-0.9,0.4s-0.7-0.1-0.9-0.4
			c-0.2-0.3-0.3-0.7-0.3-1.3C139.9,231,140.3,230.5,141.2,230.5z M140.5,232.1c0,0.8,0.2,1.2,0.7,1.2c0.2,0,0.4-0.1,0.5-0.3
			s0.2-0.5,0.2-0.9s-0.1-0.7-0.2-0.9c-0.1-0.2-0.3-0.3-0.5-0.3s-0.4,0.1-0.5,0.3C140.5,231.5,140.5,231.7,140.5,232.1z M141.4,238.6
			l2.4-8.1l0.5,0.2l-2.4,8.1L141.4,238.6z M143.3,237c0-1.1,0.4-1.6,1.3-1.6c0.9,0,1.3,0.5,1.3,1.6c0,0.6-0.1,1-0.3,1.3
			s-0.5,0.4-0.9,0.4s-0.7-0.1-0.9-0.4C143.4,237.9,143.3,237.5,143.3,237z M143.9,237c0,0.8,0.2,1.2,0.7,1.2s0.7-0.4,0.7-1.2
			c0-0.4-0.1-0.7-0.2-0.8c-0.1-0.2-0.3-0.3-0.5-0.3s-0.4,0.1-0.5,0.3C143.9,236.3,143.9,236.6,143.9,237z"/>
		<path class="st6" d="M148,232.3c-0.2,1.1-0.4,2-0.4,2.7s0.1,1.4,0.3,2.3c0.2,0.9,0.4,1.5,0.6,2l0.3,0.8h-0.7
			c-0.1-0.2-0.2-0.5-0.3-0.8s-0.3-1-0.5-1.9s-0.3-1.7-0.3-2.3s0-1.2,0.1-1.7s0.2-1,0.3-1.5c0.2-0.9,0.4-1.6,0.6-2.1l0.1-0.3h0.7
			C148.5,230.3,148.2,231.2,148,232.3z"/>
		<path class="st6" d="M155.1,238.5H150v-0.6l2.5-2.6c0.4-0.4,0.7-0.7,0.9-1c0.2-0.2,0.3-0.5,0.5-0.8c0.1-0.3,0.2-0.6,0.2-0.9
			c0-0.5-0.2-0.9-0.5-1.1s-0.8-0.3-1.4-0.3c-0.5,0-1.1,0.1-1.8,0.2l-0.3,0.1l-0.1-0.6c0.8-0.2,1.5-0.3,2.3-0.3s1.4,0.2,1.8,0.5
			s0.6,0.9,0.6,1.6c0,0.6-0.1,1-0.4,1.4c-0.2,0.4-0.7,0.9-1.2,1.5l-2.3,2.4h4.2v0.5H155.1z"/>
		<path class="st6" d="M156.8,232.1c0.2-0.6,0.5-1.1,0.9-1.3s0.9-0.4,1.4-0.4c0.6,0,1,0.1,1.3,0.2c0.3,0.1,0.6,0.4,0.9,0.7
			c0.5,0.6,0.7,1.7,0.7,3.2s-0.2,2.6-0.7,3.2c-0.5,0.6-1.2,0.9-2.1,0.9c-0.9,0-1.7-0.3-2.1-0.9c-0.5-0.6-0.7-1.6-0.7-3.1
			C156.5,233.6,156.6,232.8,156.8,232.1z M160.5,231.4c-0.3-0.2-0.7-0.3-1.2-0.3s-0.9,0.1-1.2,0.3c-0.6,0.4-0.9,1.5-0.9,3.3
			c0,1.2,0.2,2.1,0.5,2.6s0.9,0.7,1.6,0.7c0.5,0,0.8-0.1,1.1-0.3c0.6-0.4,0.9-1.4,0.9-3C161.4,232.9,161.1,231.9,160.5,231.4z"/>
		<path class="st6" d="M167.1,238.5v-1.6h-4v-0.6l2.3-5.7h0.8l-2.3,5.7h3.2v-2.5h0.7v2.5h1.1v0.7h-1.1v1.6L167.1,238.5L167.1,238.5z
			"/>
		<path class="st6" d="M171.4,232.4c0.2,1,0.3,1.8,0.3,2.5s-0.1,1.5-0.3,2.4s-0.4,1.5-0.6,2l-0.3,0.7h-0.7c0.3-0.7,0.5-1.5,0.8-2.6
			c0.2-1,0.4-1.9,0.4-2.5s-0.1-1.5-0.3-2.4s-0.4-1.6-0.6-2.2l-0.3-0.8h0.7c0.1,0.2,0.2,0.5,0.3,0.9
			C171,230.8,171.2,231.4,171.4,232.4z"/>
	</g>
	<g>
		<path class="st6" d="M288.4,82.3c-1.5,0-2.2,0.6-2.2,1.7c0,0.6,0.2,1.1,0.5,1.3c0.3,0.2,1,0.5,2.1,0.7s1.8,0.5,2.2,0.9
			c0.4,0.4,0.7,1,0.7,1.9c0,2.1-1.1,3.2-3.3,3.2c-0.7,0-1.6-0.1-2.7-0.3l-0.5-0.1l0.1-1c1.4,0.2,2.4,0.3,3.1,0.3
			c1.5,0,2.2-0.7,2.2-2.1c0-0.6-0.2-1-0.5-1.2s-0.9-0.5-1.8-0.6c-1.2-0.2-2-0.6-2.5-1s-0.7-1.1-0.7-2c0-1.9,1.1-2.8,3.3-2.8
			c0.7,0,1.6,0.1,2.6,0.2l0.5,0.1l-0.1,1C290,82.4,289,82.3,288.4,82.3z"/>
		<path class="st6" d="M294.6,91.9h-1.1V81.1h1.1v3.7c0.8-0.4,1.6-0.6,2.3-0.6c1,0,1.7,0.3,2,0.8s0.5,1.5,0.5,2.9v4h-1.1V88
			c0-1-0.1-1.8-0.3-2.1s-0.6-0.6-1.3-0.6c-0.6,0-1.2,0.1-1.8,0.3l-0.3,0.1L294.6,91.9L294.6,91.9z"/>
		<path class="st6" d="M301.6,82.7v-1.3h1.1v1.3H301.6z M301.6,91.9v-7.5h1.1v7.5H301.6z"/>
		<path class="st6" d="M304.9,95.2V84.4h1.1v0.5c0.8-0.5,1.5-0.7,2.2-0.7c0.9,0,1.6,0.3,2.1,0.9s0.6,1.6,0.6,3s-0.3,2.4-0.8,3
			s-1.3,0.9-2.5,0.9c-0.6,0-1.2-0.1-1.7-0.2v3.3L304.9,95.2L304.9,95.2z M308.1,85.2c-0.3,0-0.6,0-1,0.1c-0.3,0.1-0.6,0.2-0.8,0.3
			l-0.3,0.1v5.1c0.7,0.1,1.2,0.2,1.6,0.2c0.8,0,1.4-0.2,1.7-0.7s0.5-1.2,0.5-2.2s-0.1-1.8-0.4-2.2C309.1,85.4,308.6,85.2,308.1,85.2
			z"/>
		<path class="st6" d="M312.8,95.2V84.4h1.1v0.5c0.8-0.5,1.5-0.7,2.2-0.7c0.9,0,1.6,0.3,2.1,0.9s0.6,1.6,0.6,3s-0.3,2.4-0.8,3
			s-1.3,0.9-2.5,0.9c-0.6,0-1.2-0.1-1.7-0.2v3.3L312.8,95.2L312.8,95.2z M316,85.2c-0.3,0-0.6,0-1,0.1c-0.3,0.1-0.6,0.2-0.8,0.3
			l-0.3,0.1v5.1c0.7,0.1,1.2,0.2,1.6,0.2c0.8,0,1.4-0.2,1.7-0.7s0.5-1.2,0.5-2.2s-0.1-1.8-0.4-2.2C317,85.4,316.5,85.2,316,85.2z"/>
		<path class="st6" d="M320.7,82.7v-1.3h1.1v1.3H320.7z M320.7,91.9v-7.5h1.1v7.5H320.7z"/>
		<path class="st6" d="M325.1,91.9H324v-7.5h1.1v0.5c0.8-0.5,1.6-0.7,2.3-0.7c1,0,1.7,0.3,2,0.8s0.5,1.5,0.5,2.9v4h-1.1V88
			c0-1-0.1-1.8-0.3-2.1c-0.2-0.4-0.6-0.6-1.3-0.6c-0.3,0-0.7,0-1,0.1c-0.4,0.1-0.6,0.2-0.8,0.3l-0.3,0.1L325.1,91.9L325.1,91.9z"/>
		<path class="st6" d="M334.9,95.4c-1.2,0-2-0.2-2.5-0.5s-0.7-0.9-0.7-1.8c0-0.4,0.1-0.7,0.3-1c0.2-0.3,0.5-0.5,0.9-0.9
			c-0.3-0.2-0.4-0.5-0.4-1c0-0.2,0.1-0.5,0.4-0.9L333,89c-0.8-0.4-1.2-1.1-1.2-2.3c0-1.7,0.9-2.6,2.8-2.6c0.5,0,0.9,0,1.3,0.1h0.2
			l2.2-0.1v1h-1.4c0.3,0.3,0.5,0.8,0.5,1.5c0,0.9-0.2,1.6-0.7,2s-1.2,0.6-2.2,0.6c-0.3,0-0.5,0-0.7-0.1c-0.2,0.4-0.3,0.7-0.3,0.9
			c0,0.3,0.1,0.5,0.3,0.6c0.2,0.1,0.8,0.1,1.7,0.1c1,0,1.6,0.1,2.1,0.4c0.4,0.3,0.6,0.9,0.6,1.8C338.2,94.6,337.1,95.4,334.9,95.4z
			 M332.8,93c0,0.5,0.1,0.9,0.4,1.1s0.8,0.3,1.6,0.3s1.4-0.1,1.7-0.3s0.5-0.6,0.5-1.1s-0.1-0.8-0.4-1c-0.2-0.2-0.7-0.2-1.5-0.2
			l-1.6-0.1c-0.3,0.2-0.6,0.4-0.7,0.6C332.8,92.5,332.8,92.7,332.8,93z M332.9,86.8c0,0.6,0.1,1,0.4,1.3s0.7,0.4,1.3,0.4
			s1-0.1,1.3-0.4c0.3-0.2,0.4-0.7,0.4-1.3c0-0.6-0.1-1-0.4-1.3c-0.3-0.2-0.7-0.4-1.3-0.4s-1,0.1-1.3,0.4S332.9,86.2,332.9,86.8z"/>
		<path class="st6" d="M300.7,99c-0.7-0.1-1.4-0.1-2.1-0.1s-1.2,0.3-1.6,0.8s-0.6,1.2-0.6,2.2l0.3-0.1c0.7-0.3,1.3-0.4,1.8-0.4
			c1.8,0,2.6,0.8,2.6,2.4c0,0.8-0.2,1.5-0.7,1.9c-0.5,0.5-1.1,0.7-2,0.7c-1.8,0-2.8-1.4-2.8-4.1c0-1.4,0.3-2.4,0.8-3
			c0.5-0.7,1.3-1,2.2-1c0.5,0,1.1,0,1.8,0.1h0.3L300.7,99z M298.5,102c-0.3,0-0.6,0-0.9,0.1s-0.6,0.2-0.8,0.3l-0.3,0.1
			c0,2.1,0.7,3.2,2,3.2c0.6,0,1.1-0.2,1.5-0.5s0.5-0.8,0.5-1.4C300.4,102.6,299.8,102,298.5,102z"/>
		<path class="st6" d="M303.4,98.2c0.9,0,1.3,0.5,1.3,1.6c0,0.6-0.1,1-0.3,1.3c-0.2,0.3-0.5,0.4-0.9,0.4s-0.7-0.1-0.9-0.4
			c-0.2-0.3-0.3-0.7-0.3-1.3C302.1,98.8,302.5,98.2,303.4,98.2z M302.7,99.8c0,0.8,0.2,1.2,0.7,1.2c0.2,0,0.4-0.1,0.5-0.3
			c0.1-0.2,0.2-0.5,0.2-0.9s-0.1-0.7-0.2-0.9c-0.1-0.2-0.3-0.3-0.5-0.3s-0.4,0.1-0.5,0.3C302.8,99.2,302.7,99.5,302.7,99.8z
			 M303.7,106.3l2.4-8.1l0.5,0.2l-2.4,8.1L303.7,106.3z M305.5,104.7c0-1.1,0.4-1.6,1.3-1.6s1.3,0.5,1.3,1.6c0,0.6-0.1,1-0.3,1.3
			c-0.2,0.3-0.5,0.4-0.9,0.4s-0.7-0.1-0.9-0.4C305.6,105.7,305.5,105.3,305.5,104.7z M306.1,104.7c0,0.8,0.2,1.2,0.7,1.2
			s0.7-0.4,0.7-1.2c0-0.4-0.1-0.7-0.2-0.8c-0.1-0.2-0.3-0.3-0.5-0.3s-0.4,0.1-0.5,0.3C306.2,104,306.1,104.3,306.1,104.7z"/>
		<path class="st6" d="M310.2,100c-0.2,1.1-0.4,2-0.4,2.7s0.1,1.4,0.3,2.3c0.2,0.9,0.4,1.5,0.6,2l0.3,0.8h-0.7
			c-0.1-0.2-0.2-0.5-0.3-0.8c-0.1-0.3-0.3-1-0.5-1.9s-0.3-1.7-0.3-2.3s0-1.2,0.1-1.7s0.2-1,0.3-1.5c0.2-0.9,0.4-1.6,0.6-2.1l0.1-0.3
			h0.7C310.7,98,310.5,98.9,310.2,100z"/>
		<path class="st6" d="M317.4,106.3h-5.1v-0.6l2.5-2.6c0.4-0.4,0.7-0.7,0.9-1c0.2-0.2,0.3-0.5,0.5-0.8c0.1-0.3,0.2-0.6,0.2-0.9
			c0-0.5-0.2-0.9-0.5-1.1s-0.8-0.3-1.4-0.3c-0.5,0-1.1,0.1-1.8,0.2l-0.3,0.1l-0.1-0.6c0.8-0.2,1.5-0.3,2.3-0.3s1.4,0.2,1.8,0.5
			s0.6,0.9,0.6,1.6c0,0.6-0.1,1-0.4,1.4c-0.2,0.4-0.7,0.9-1.2,1.5l-2.3,2.4h4.2L317.4,106.3L317.4,106.3z"/>
		<path class="st6" d="M319.1,98.5c0.8-0.2,1.5-0.3,2.4-0.3s1.5,0.2,1.8,0.5c0.4,0.3,0.6,0.8,0.6,1.5c0,0.8-0.4,1.4-1.1,1.7
			l-0.1,0.1c0.5,0.2,0.9,0.4,1.1,0.6c0.2,0.3,0.4,0.7,0.4,1.3c0,0.8-0.2,1.4-0.6,1.8s-1.1,0.6-1.9,0.6s-1.5-0.1-2.2-0.2l-0.4-0.1
			l0.1-0.6c0.9,0.2,1.7,0.3,2.5,0.3c1.2,0,1.8-0.5,1.8-1.6c0-1-0.6-1.6-1.7-1.6H320v-0.6h1.6c0.4,0,0.7-0.1,1-0.4s0.5-0.7,0.5-1.1
			c0-0.5-0.1-0.8-0.4-1s-0.7-0.3-1.3-0.3s-1.3,0.1-1.9,0.2l-0.3,0.1L319.1,98.5z"/>
		<path class="st6" d="M327,100.1c0.2,1,0.3,1.8,0.3,2.5s-0.1,1.5-0.3,2.4c-0.2,0.9-0.4,1.5-0.6,2l-0.3,0.7h-0.7
			c0.3-0.7,0.5-1.5,0.8-2.6c0.2-1,0.4-1.9,0.4-2.5s-0.1-1.5-0.3-2.4c-0.2-0.9-0.4-1.6-0.6-2.2l-0.3-0.8h0.7c0.1,0.2,0.2,0.5,0.3,0.9
			C326.6,98.5,326.7,99.1,327,100.1z"/>
	</g>
</g>
</svg>
