<?xml version="1.0" encoding="utf-8"?>
<!-- Generator: Adobe Illustrator 23.0.6, SVG Export Plug-In . SVG Version: 6.00 Build 0)  -->
<svg version="1.1" id="圖層_1" xmlns="http://www.w3.org/2000/svg" xmlns:xlink="http://www.w3.org/1999/xlink" x="0px" y="0px"
	 viewBox="0 0 1920 1080" style="enable-background:new 0 0 1920 1080;" xml:space="preserve">
<style type="text/css">
	.st0{fill:#753C93;}
	.st1{fill:#FFFFFF;}
	.st2{fill:#B5398F;}
	.st3{fill:#00ADEC;}
	.st4{fill:#E60045;}
</style>
<path d="M883.5,637.4H810v73.7h73.5c2.8,0,5-2.3,5-5v-63.7C888.5,639.6,886.3,637.4,883.5,637.4z"/>
<path d="M379.5,785H274c-2.8,0-5-2.2-5-5v-63.7c0-2.8,2.2-5,5-5h105.5c2.8,0,5,2.2,5,5V780C384.5,782.8,382.3,785,379.5,785z"/>
<path d="M314.6,744.2h1.8v1.1h-1.8v3.1c0.5-0.2,1-0.3,1.5-0.5l0.2,1.1l-1.7,0.6v4.6c0,0.7-0.1,1-0.5,1.2s-1,0.2-2,0.2
	c0-0.3-0.2-0.8-0.4-1.1c0.7,0,1.3,0,1.5,0s0.3-0.1,0.3-0.3V750c-0.7,0.2-1.4,0.5-2,0.6l-0.3-1.1c0.6-0.2,1.4-0.4,2.3-0.7v-3.5h-2
	v-1.1h2V741h1.1V744.2L314.6,744.2z M324.4,750.2c-0.4,1.2-0.9,2.1-1.7,2.9c1.2,0.5,2.3,1.1,3.1,1.6l-0.9,0.9
	c-0.8-0.5-1.9-1.1-3.2-1.7c-1.1,0.8-2.7,1.4-4.8,1.7c-0.1-0.3-0.3-0.8-0.5-1c1.7-0.3,3.1-0.6,4.1-1.2c-1.1-0.5-2.2-0.9-3.2-1.2
	c0.4-0.5,0.9-1.2,1.3-1.9h-2.2v-1h2.8c0.3-0.5,0.6-1.1,0.8-1.6l1.1,0.2c-0.2,0.4-0.4,0.9-0.7,1.4h2.9c0.1-0.3,0.1-0.6,0.2-0.9
	l1.1,0.2c0,0.3-0.1,0.5-0.1,0.7h1.4v1L324.4,750.2L324.4,750.2z M325.9,747.4h-9.2v-1h5.4c0.4-0.7,1-1.8,1.2-2.5l1.1,0.3
	c-0.4,0.7-0.8,1.5-1.2,2.2h2.7V747.4L325.9,747.4z M325.6,743.7h-8.5v-1h3.9c-0.2-0.5-0.5-1.1-0.7-1.5l1.3-0.2
	c0.3,0.5,0.6,1.2,0.9,1.8h3.2L325.6,743.7L325.6,743.7z M319.4,746.3c-0.2-0.5-0.7-1.4-1.1-2l1-0.4c0.5,0.6,1,1.4,1.2,2L319.4,746.3
	z M320,750.2c-0.3,0.5-0.6,1-0.9,1.4c0.8,0.3,1.7,0.6,2.5,1c0.7-0.6,1.2-1.4,1.6-2.4H320L320,750.2z"/>
<path d="M341.8,753.4h-6.5v2.3h-1.2v-2.3h-6.4v-1h6.4v-1.2h-4.8v-5.6h11v5.6h-5v1.2h6.5V753.4L341.8,753.4z M334.1,744.7h-5.2v-3.1
	h5.2V744.7z M333,742.4h-3v1.5h3.1v-1.5H333z M330.5,747.9h3.6v-1.4h-3.6V747.9z M334.1,750.2v-1.4h-3.6v1.4H334.1z M339.1,746.5
	h-3.8v1.4h3.8V746.5z M339.1,748.8h-3.8v1.4h3.8V748.8z M340.7,744.7h-5.3v-3.1h5.3V744.7z M339.6,742.4h-3.1v1.5h3.1V742.4z"/>
<path class="st0" d="M375.5,781H270c-2.8,0-5-2.2-5-5v-63.7c0-2.8,2.2-5,5-5h105.5c2.8,0,5,2.2,5,5V776
	C380.5,778.8,378.3,781,375.5,781z"/>
<path class="st1" d="M310.6,740.2h1.8v1.1h-1.8v3.1c0.5-0.2,1-0.3,1.5-0.5l0.2,1.1l-1.7,0.6v4.6c0,0.7-0.1,1-0.5,1.2s-1,0.2-2,0.2
	c0-0.3-0.2-0.8-0.4-1.1c0.7,0,1.3,0,1.5,0s0.3-0.1,0.3-0.3V746c-0.7,0.2-1.4,0.5-2,0.6l-0.3-1.1c0.6-0.2,1.4-0.4,2.3-0.7v-3.5h-2
	v-1.1h2V737h1.1V740.2L310.6,740.2z M320.4,746.2c-0.4,1.2-0.9,2.1-1.7,2.9c1.2,0.5,2.3,1.1,3.1,1.6l-0.9,0.9
	c-0.8-0.5-1.9-1.1-3.2-1.7c-1.1,0.8-2.7,1.4-4.8,1.7c-0.1-0.3-0.3-0.8-0.5-1c1.7-0.3,3.1-0.6,4.1-1.2c-1.1-0.5-2.2-0.9-3.2-1.2
	c0.4-0.5,0.9-1.2,1.3-1.9h-2.2v-1h2.8c0.3-0.5,0.6-1.1,0.8-1.6l1.1,0.2c-0.2,0.4-0.4,0.9-0.7,1.4h2.9c0.1-0.3,0.1-0.6,0.2-0.9
	l1.1,0.2c0,0.3-0.1,0.5-0.1,0.7h1.4v1L320.4,746.2L320.4,746.2z M321.9,743.4h-9.2v-1h5.4c0.4-0.7,1-1.8,1.2-2.5l1.1,0.3
	c-0.4,0.7-0.8,1.5-1.2,2.2h2.7V743.4L321.9,743.4z M321.6,739.7h-8.5v-1h3.9c-0.2-0.5-0.5-1.1-0.7-1.5l1.3-0.2
	c0.3,0.5,0.6,1.2,0.9,1.8h3.2L321.6,739.7L321.6,739.7z M315.4,742.3c-0.2-0.5-0.7-1.4-1.1-2l1-0.4c0.5,0.6,1,1.4,1.2,2L315.4,742.3
	z M316,746.2c-0.3,0.5-0.6,1-0.9,1.4c0.8,0.3,1.7,0.6,2.5,1c0.7-0.6,1.2-1.4,1.6-2.4H316L316,746.2z"/>
<path class="st1" d="M337.8,749.4h-6.5v2.3h-1.2v-2.3h-6.4v-1h6.4v-1.2h-4.8v-5.6h11v5.6h-5v1.2h6.5V749.4L337.8,749.4z
	 M330.1,740.7h-5.2v-3.1h5.2V740.7z M329,738.4h-3v1.5h3.1v-1.5H329z M326.5,743.9h3.6v-1.4h-3.6V743.9z M330.1,746.2v-1.4h-3.6v1.4
	H330.1z M335.1,742.5h-3.8v1.4h3.8V742.5z M335.1,744.8h-3.8v1.4h3.8V744.8z M336.7,740.7h-5.3v-3.1h5.3V740.7z M335.6,738.4h-3.1
	v1.5h3.1V738.4z"/>
<path d="M504.5,956.1H399c-2.8,0-5-2.2-5-5v-63.7c0-2.8,2.2-5,5-5h105.5c2.8,0,5,2.2,5,5v63.7C509.5,953.8,507.3,956.1,504.5,956.1z
	"/>
<path d="M504.5,958.6H399c-4.1,0-7.5-3.4-7.5-7.5v-63.7c0-4.1,3.4-7.5,7.5-7.5h105.5c4.1,0,7.5,3.4,7.5,7.5v63.7
	C512,955.2,508.6,958.6,504.5,958.6z M399,884.9c-1.4,0-2.5,1.1-2.5,2.5v63.7c0,1.4,1.1,2.5,2.5,2.5h105.5c1.4,0,2.5-1.1,2.5-2.5
	v-63.7c0-1.4-1.1-2.5-2.5-2.5H399z"/>
<path d="M440.6,921.4h2.9v1h-2.9v3.2h-1.1v-3.2h-3v-1h3v-1.7h-2.6v-1h1.5c-0.1-0.5-0.4-1.3-0.8-2l0.9-0.2c0.4,0.6,0.7,1.4,0.8,1.9
	l-0.8,0.3h2c0.4-0.7,0.9-1.6,1.1-2.3l1,0.3c-0.3,0.7-0.7,1.4-1.1,2h1.6v1h-2.5V921.4z M443.5,916.3h-6.9v-1h3v-1.6H437v-1h2.5V911
	h1.1v1.6h2.4v1h-2.4v1.6h2.8L443.5,916.3L443.5,916.3z M450.6,917.4c-0.4,1.9-1,3.7-2,5.2c0.7,0.9,1.6,1.5,2.5,2
	c-0.3,0.2-0.6,0.7-0.8,1c-0.9-0.5-1.7-1.2-2.4-2c-0.7,0.8-1.4,1.6-2.3,2.2c-0.1-0.2-0.3-0.4-0.5-0.6v0.5H444v-13.9h6.2v3.1
	c0,0.6-0.1,0.9-0.6,1.1s-1.3,0.2-2.5,0.2c0-0.3-0.2-0.7-0.4-1.1c1,0,1.8,0,2.1,0c0.3,0,0.3-0.1,0.3-0.3v-2h-4v4.3h4.5h0.2
	L450.6,917.4z M445.2,924.7c0.8-0.6,1.5-1.3,2.2-2.1c-0.9-1.3-1.5-2.8-2-4.4h-0.1L445.2,924.7L445.2,924.7z M446.3,918.1
	c0.4,1.2,0.9,2.4,1.6,3.5c0.6-1.1,1.1-2.3,1.4-3.5H446.3z"/>
<path d="M456.6,911.4c-0.4,1.1-0.8,2.1-1.2,3.1v11.1h-1.1v-9c-0.5,0.8-1,1.5-1.5,2.1c-0.1-0.3-0.4-0.9-0.6-1.2
	c1.4-1.6,2.6-4,3.4-6.5L456.6,911.4z M460.8,924c-1,0.7-2.5,1.3-4,1.7c-0.2-0.2-0.5-0.6-0.7-0.8c1.4-0.3,2.9-0.9,3.8-1.4L460.8,924z
	 M459.9,912.7h-3.1v-0.9H467v0.9h-3.3v1h2.8v3.1h-9.3v-3.1h2.8L459.9,912.7L459.9,912.7z M457.4,923.3v-5.8h8.8v5.8H457.4z
	 M458.1,916h1.7v-1.5h-1.7V916z M458.5,919.2h6.5v-0.9h-6.5V919.2z M458.5,920.9h6.5V920h-6.5V920.9z M458.5,922.5h6.5v-1h-6.5
	V922.5z M462.6,912.7h-1.8v1h1.8V912.7z M460.8,916h1.8v-1.5h-1.8V916z M463.4,923.4c1.4,0.5,2.9,1.1,3.8,1.5l-1,0.7
	c-0.8-0.5-2.2-1.1-3.6-1.6L463.4,923.4z M463.6,914.5v1.5h1.8v-1.5H463.6z"/>
<path class="st0" d="M500.5,952.1H395c-2.8,0-5-2.2-5-5v-63.7c0-2.8,2.2-5,5-5h105.5c2.8,0,5,2.2,5,5v63.7
	C505.5,949.8,503.3,952.1,500.5,952.1z"/>
<path class="st2" d="M500.5,954.6H395c-4.1,0-7.5-3.4-7.5-7.5v-63.7c0-4.1,3.4-7.5,7.5-7.5h105.5c4.1,0,7.5,3.4,7.5,7.5v63.7
	C508,951.2,504.6,954.6,500.5,954.6z M395,880.9c-1.4,0-2.5,1.1-2.5,2.5v63.7c0,1.4,1.1,2.5,2.5,2.5h105.5c1.4,0,2.5-1.1,2.5-2.5
	v-63.7c0-1.4-1.1-2.5-2.5-2.5H395z"/>
<path class="st1" d="M436.6,917.4h2.9v1h-2.9v3.2h-1.1v-3.2h-3v-1h3v-1.7h-2.6v-1h1.5c-0.1-0.5-0.4-1.3-0.8-2l0.9-0.2
	c0.4,0.6,0.7,1.4,0.8,1.9l-0.8,0.3h2c0.4-0.7,0.9-1.6,1.1-2.3l1,0.3c-0.3,0.7-0.7,1.4-1.1,2h1.6v1h-2.5V917.4z M439.5,912.3h-6.9v-1
	h3v-1.6H433v-1h2.5V907h1.1v1.6h2.4v1h-2.4v1.6h2.8L439.5,912.3L439.5,912.3z M446.6,913.4c-0.4,1.9-1,3.7-2,5.2
	c0.7,0.9,1.6,1.5,2.5,2c-0.3,0.2-0.6,0.7-0.8,1c-0.9-0.5-1.7-1.2-2.4-2c-0.7,0.8-1.4,1.6-2.3,2.2c-0.1-0.2-0.3-0.4-0.5-0.6v0.5H440
	v-13.9h6.2v3.1c0,0.6-0.1,0.9-0.6,1.1s-1.3,0.2-2.5,0.2c0-0.3-0.2-0.7-0.4-1.1c1,0,1.8,0,2.1,0c0.3,0,0.3-0.1,0.3-0.3v-2h-4v4.3h4.5
	h0.2L446.6,913.4z M441.2,920.7c0.8-0.6,1.5-1.3,2.2-2.1c-0.9-1.3-1.5-2.8-2-4.4h-0.1L441.2,920.7L441.2,920.7z M442.3,914.1
	c0.4,1.2,0.9,2.4,1.6,3.5c0.6-1.1,1.1-2.3,1.4-3.5H442.3z"/>
<path class="st1" d="M452.6,907.4c-0.4,1.1-0.8,2.1-1.2,3.1v11.1h-1.1v-9c-0.5,0.8-1,1.5-1.5,2.1c-0.1-0.3-0.4-0.9-0.6-1.2
	c1.4-1.6,2.6-4,3.4-6.5L452.6,907.4z M456.8,920c-1,0.7-2.5,1.3-4,1.7c-0.2-0.2-0.5-0.6-0.7-0.8c1.4-0.3,2.9-0.9,3.8-1.4L456.8,920z
	 M455.9,908.7h-3.1v-0.9H463v0.9h-3.3v1h2.8v3.1h-9.3v-3.1h2.8L455.9,908.7L455.9,908.7z M453.4,919.3v-5.8h8.8v5.8H453.4z
	 M454.1,912h1.7v-1.5h-1.7V912z M454.5,915.2h6.5v-0.9h-6.5V915.2z M454.5,916.9h6.5V916h-6.5V916.9z M454.5,918.5h6.5v-1h-6.5
	V918.5z M458.6,908.7h-1.8v1h1.8V908.7z M456.8,912h1.8v-1.5h-1.8V912z M459.4,919.4c1.4,0.5,2.9,1.1,3.8,1.5l-1,0.7
	c-0.8-0.5-2.2-1.1-3.6-1.6L459.4,919.4z M459.6,910.5v1.5h1.8v-1.5H459.6z"/>
<path d="M883.5,540H778c-2.8,0-5-2.2-5-5v-63.7c0-2.8,2.2-5,5-5h105.5c2.8,0,5,2.2,5,5V535C888.5,537.8,886.3,540,883.5,540z"/>
<path d="M883.5,542.5H778c-4.1,0-7.5-3.4-7.5-7.5v-63.7c0-4.1,3.4-7.5,7.5-7.5h105.5c4.1,0,7.5,3.4,7.5,7.5V535
	C891,539.1,887.6,542.5,883.5,542.5z M778,468.8c-1.4,0-2.5,1.1-2.5,2.5V535c0,1.4,1.1,2.5,2.5,2.5h105.5c1.4,0,2.5-1.1,2.5-2.5
	v-63.7c0-1.4-1.1-2.5-2.5-2.5H778z"/>
<path d="M806,499.7c-0.8,0.2-2,0.3-3.1,0.3c-3.3,0-4-2-4-5.7c0-3.8,0.7-5.7,4-5.7c1.1,0,2.3,0.2,3.1,0.4v1c-0.7-0.1-2-0.3-2.9-0.3
	c-2.5,0-2.9,1.5-2.9,4.6s0.4,4.6,2.9,4.6c0.9,0,2.1-0.1,2.8-0.3L806,499.7z"/>
<path d="M813.9,491.9v8h-1.2v-0.6c0,0-1.2,0.7-2.4,0.7c-2.2,0-2.7-1-2.7-4v-4.2h1.2v4.2c0,2.2,0.2,2.9,1.7,2.9
	c1.2,0,2.2-0.6,2.2-0.6v-6.5L813.9,491.9L813.9,491.9z"/>
<path d="M821.5,493c0,0-1.8-0.3-2.8-0.3s-1.7,0.3-1.7,1.2c0,0.8,0.4,1,2.1,1.2c2,0.3,2.8,0.7,2.8,2.3c0,1.9-1.2,2.5-3.1,2.5
	c-1,0-2.8-0.3-2.8-0.3l0.1-1c0,0,1.8,0.3,2.6,0.3c1.3,0,2-0.3,2-1.4c0-0.8-0.4-1-2.2-1.3s-2.7-0.6-2.7-2.2c0-1.8,1.4-2.3,2.9-2.3
	c1.2,0,2.9,0.3,2.9,0.3L821.5,493z"/>
<path d="M825.2,492.9v3.8c0,1.7,0.1,2.2,1.2,2.2c0.5,0,1.4-0.1,1.4-0.1l0.1,1c0,0-1.1,0.2-1.6,0.2c-1.7,0-2.2-0.6-2.2-2.9v-4.2H823
	v-1h1.1v-2.5h1.2v2.5h2.5v1H825.2L825.2,492.9z"/>
<path d="M835.7,495.8c0,2.9-0.7,4.3-3.4,4.3s-3.4-1.3-3.4-4.3c0-2.8,0.9-4.1,3.4-4.1C834.8,491.7,835.7,493,835.7,495.8z
	 M834.5,495.8c0-2.2-0.5-3-2.2-3s-2.2,0.8-2.2,3c0,2.3,0.3,3.2,2.2,3.2S834.5,498,834.5,495.8z"/>
<path d="M837.7,499.9v-8h1.2v0.6c0,0,1.2-0.7,2.3-0.7s1.7,0.2,2.1,0.8c0,0,1.4-0.8,2.8-0.8c2.2,0,2.7,1,2.7,3.9v4.2h-1.2v-4.2
	c0-2.1-0.2-2.9-1.7-2.9c-1.2,0-2.3,0.6-2.3,0.6c0.1,0.4,0.2,1.4,0.2,2.3v4.2h-1.2v-4.1c0-2.2-0.2-3-1.7-3c-1.1,0-2.2,0.6-2.2,0.6
	v6.5H837.7L837.7,499.9z"/>
<path d="M857,498.8v0.9c0,0-1.8,0.3-3.1,0.3c-2.4,0-3.2-1.4-3.2-4.1c0-3,1.3-4.2,3.3-4.2c2.1,0,3.2,1.1,3.2,3.8l-0.1,0.9h-5.3
	c0,1.7,0.5,2.6,2.1,2.6C855.2,499,857,498.8,857,498.8z M856.1,495.4c0-2-0.6-2.7-2-2.7s-2.1,0.8-2.1,2.7H856.1z"/>
<path d="M859.1,491.9h1.2v1.1c0,0,1.4-1,2.9-1.3v1.2c-1.5,0.3-2.9,1.1-2.9,1.1v5.9h-1.2V491.9z"/>
<path d="M811.4,513.1v3.7h-1.2v-11.1h4c2.4,0,3.5,1.2,3.5,3.6s-1.1,3.8-3.5,3.8H811.4L811.4,513.1z M814.2,512c1.6,0,2.3-1,2.3-2.7
	s-0.7-2.5-2.3-2.5h-2.8v5.2H814.2z"/>
<path d="M819.5,508.9h1.2v1.1c0,0,1.4-1,2.9-1.3v1.2c-1.5,0.3-2.9,1.1-2.9,1.1v5.9h-1.2V508.9z"/>
<path d="M831.3,512.8c0,2.9-0.7,4.3-3.4,4.3s-3.4-1.3-3.4-4.3c0-2.8,0.9-4.1,3.4-4.1C830.4,508.7,831.3,510,831.3,512.8z
	 M830.1,512.8c0-2.2-0.5-3-2.2-3s-2.2,0.8-2.2,3c0,2.3,0.3,3.2,2.2,3.2S830.1,515,830.1,512.8z"/>
<path d="M834.8,516.9h-1.2v-7h-1v-1h1v-0.7c0-2.3,0.6-2.9,2.2-2.9c0.5,0,1.6,0.1,1.6,0.1v1c0,0-0.9,0-1.4,0c-0.9,0-1.2,0.4-1.2,1.9
	v0.7h2.3v1h-2.3L834.8,516.9L834.8,516.9z"/>
<path d="M838.6,505.7h1.2v1.4h-1.2V505.7z M838.6,508.9h1.2v8h-1.2V508.9z"/>
<path d="M842.2,505.4h1.2v11.5h-1.2V505.4z"/>
<path d="M851.7,515.8v0.9c0,0-1.8,0.3-3.1,0.3c-2.4,0-3.2-1.4-3.2-4.1c0-3,1.3-4.2,3.3-4.2c2.1,0,3.2,1.1,3.2,3.8l-0.1,0.9h-5.3
	c0,1.7,0.5,2.6,2.1,2.6C849.9,516,851.7,515.8,851.7,515.8z M850.8,512.4c0-2-0.6-2.7-2-2.7s-2.1,0.8-2.1,2.7H850.8z"/>
<path d="M1008.5,540H903c-2.8,0-5-2.2-5-5v-63.7c0-2.8,2.2-5,5-5h105.5c2.8,0,5,2.2,5,5V535C1013.5,537.8,1011.3,540,1008.5,540z"/>
<path d="M1008.5,542.5H903c-4.1,0-7.5-3.4-7.5-7.5v-63.7c0-4.1,3.4-7.5,7.5-7.5h105.5c4.1,0,7.5,3.4,7.5,7.5V535
	C1016,539.1,1012.6,542.5,1008.5,542.5z M903,468.8c-1.4,0-2.5,1.1-2.5,2.5V535c0,1.4,1.1,2.5,2.5,2.5h105.5c1.4,0,2.5-1.1,2.5-2.5
	v-63.7c0-1.4-1.1-2.5-2.5-2.5H903z"/>
<path d="M945.4,490c0,0-2.2-0.3-3.2-0.3c-1.6,0-2.4,0.6-2.4,1.8c0,1.4,0.8,1.7,2.7,2.1c2.2,0.5,3.2,1,3.2,3c0,2.5-1.3,3.4-3.5,3.4
	c-1.3,0-3.5-0.4-3.5-0.4l0.1-1c0,0,2.2,0.3,3.3,0.3c1.6,0,2.4-0.7,2.4-2.2c0-1.2-0.7-1.6-2.5-2c-2.3-0.5-3.4-1-3.4-3.1s1.4-3,3.6-3
	c1.3,0,3.3,0.3,3.3,0.3L945.4,490z"/>
<path d="M953.3,498.4c0,0.5,0.4,0.6,0.9,0.7v0.9c-0.8,0-1.4-0.2-1.9-0.6c0,0-1.4,0.6-2.9,0.6s-2.3-0.8-2.3-2.5
	c0-1.5,0.8-2.2,2.5-2.4l2.5-0.2v-0.7c0-1.1-0.5-1.5-1.4-1.5c-1.1,0-3,0.2-3,0.2V492c0,0,1.8-0.4,3.1-0.4c1.8,0,2.6,0.8,2.6,2.6
	L953.3,498.4L953.3,498.4z M949.7,496.1c-1,0.1-1.4,0.6-1.4,1.4c0,0.9,0.4,1.5,1.2,1.5c1.2,0,2.5-0.5,2.5-0.5v-2.6L949.7,496.1z"/>
<path d="M955.7,488.4h1.2v11.5h-1.2V488.4z"/>
<path d="M965.2,498.8v0.9c0,0-1.8,0.3-3.1,0.3c-2.4,0-3.2-1.4-3.2-4.1c0-3,1.3-4.2,3.3-4.2c2.1,0,3.2,1.1,3.2,3.8l-0.1,0.9H960
	c0,1.7,0.5,2.6,2.1,2.6C963.5,499,965.2,498.8,965.2,498.8z M964.3,495.4c0-2-0.6-2.7-2-2.7s-2.1,0.8-2.1,2.7H964.3z"/>
<path d="M972.7,493c0,0-1.8-0.3-2.8-0.3s-1.8,0.3-1.8,1.2c0,0.8,0.4,1,2.1,1.2c2,0.3,2.8,0.7,2.8,2.3c0,1.9-1.2,2.5-3.1,2.5
	c-1,0-2.8-0.3-2.8-0.3l0.1-1c0,0,1.8,0.3,2.6,0.3c1.3,0,2-0.3,2-1.4c0-0.8-0.4-1-2.2-1.3s-2.7-0.6-2.7-2.2c0-1.8,1.4-2.3,2.9-2.3
	c1.2,0,2.9,0.3,2.9,0.3V493z"/>
<path d="M934.2,505.8h1.2v11.1h-1.2V505.8z"/>
<path d="M937.9,516.9v-8h1.2v0.6c0,0,1.3-0.7,2.5-0.7c2.2,0,2.7,1.1,2.7,3.9v4.2h-1.2v-4.2c0-2.1-0.2-2.9-1.7-2.9
	c-1.2,0-2.3,0.6-2.3,0.6v6.5H937.9L937.9,516.9z"/>
<path d="M951.8,510c0,0-1.8-0.3-2.8-0.3s-1.7,0.3-1.7,1.2c0,0.8,0.4,1,2.1,1.2c2,0.3,2.8,0.7,2.8,2.3c0,1.9-1.2,2.5-3.1,2.5
	c-1,0-2.8-0.3-2.8-0.3l0.1-1c0,0,1.8,0.3,2.6,0.3c1.3,0,2-0.3,2-1.4c0-0.8-0.4-1-2.2-1.3s-2.7-0.6-2.7-2.2c0-1.8,1.4-2.3,2.9-2.3
	c1.2,0,2.9,0.3,2.9,0.3L951.8,510z"/>
<path d="M953.9,505.7h1.2v1.4h-1.2V505.7z M953.9,508.9h1.2v8h-1.2V508.9z"/>
<path d="M957.1,518.2c0-0.9,0.4-1.4,1.3-2c-0.3-0.2-0.5-0.6-0.5-1.1c0-0.3,0.5-1.3,0.5-1.3c-0.7-0.3-1.3-0.9-1.3-2.4
	c0-2,1.2-2.7,3-2.7c0.8,0,1.7,0.2,1.7,0.2l2.4-0.1v1h-1.5c0.3,0.3,0.5,0.8,0.5,1.6c0,2.1-1,2.7-3.1,2.7c-0.2,0-0.6,0-0.8-0.1
	c0,0-0.3,0.7-0.3,0.9c0,0.6,0.1,0.7,1.9,0.7c2.3,0,3.1,0.5,3.1,2.4c0,1.8-1.3,2.5-3.5,2.5C958,520.6,957.1,520.1,957.1,518.2z
	 M959.2,516.7c-0.7,0.5-0.9,0.8-0.9,1.4c0,1.1,0.5,1.5,2.3,1.5c1.6,0,2.3-0.4,2.3-1.5c0-1.2-0.5-1.3-2-1.3
	C960.3,516.8,959.2,516.7,959.2,516.7z M962,511.4c0-1.3-0.5-1.8-1.8-1.8c-1.2,0-1.8,0.5-1.8,1.8c0,1.3,0.5,1.7,1.8,1.7
	C961.5,513.2,962,512.7,962,511.4z"/>
<path d="M965.7,516.9v-11.5h1.2v3.9c0,0,1.3-0.6,2.5-0.6c2.2,0,2.7,1.1,2.7,3.9v4.2h-1.2v-4.2c0-2.1-0.2-2.9-1.7-2.9
	c-1.1,0-2.3,0.5-2.3,0.5v6.6L965.7,516.9L965.7,516.9z"/>
<path d="M975.8,509.9v3.8c0,1.7,0.1,2.2,1.2,2.2c0.5,0,1.4-0.1,1.4-0.1l0.1,1c0,0-1.1,0.2-1.6,0.2c-1.7,0-2.2-0.6-2.2-2.9v-4.2h-1.1
	v-1h1.1v-2.5h1.2v2.5h2.5v1L975.8,509.9L975.8,509.9z"/>
<path d="M1133.5,540H1028c-2.8,0-5-2.2-5-5v-63.7c0-2.8,2.2-5,5-5h105.5c2.8,0,5,2.2,5,5V535C1138.5,537.8,1136.3,540,1133.5,540z"
	/>
<path d="M1133.5,542.5H1028c-4.1,0-7.5-3.4-7.5-7.5v-63.7c0-4.1,3.4-7.5,7.5-7.5h105.5c4.1,0,7.5,3.4,7.5,7.5V535
	C1141,539.1,1137.6,542.5,1133.5,542.5z M1028,468.8c-1.4,0-2.5,1.1-2.5,2.5V535c0,1.4,1.1,2.5,2.5,2.5h105.5c1.4,0,2.5-1.1,2.5-2.5
	v-63.7c0-1.4-1.1-2.5-2.5-2.5H1028z"/>
<path d="M1074.4,508.7c-0.8,0.2-2,0.3-3.1,0.3c-3.3,0-4.1-2-4.1-5.7c0-3.8,0.7-5.7,4.1-5.7c1.1,0,2.3,0.2,3.1,0.4l-0.1,1
	c-0.7-0.1-2-0.3-2.9-0.3c-2.5,0-2.9,1.5-2.9,4.6s0.4,4.6,2.9,4.6c0.9,0,2.1-0.1,2.8-0.3L1074.4,508.7z"/>
<path d="M1077.7,505.1v3.7h-1.2v-11.1h4.1c2.4,0,3.5,1.2,3.5,3.6s-1.1,3.8-3.5,3.8H1077.7L1077.7,505.1z M1080.5,504
	c1.6,0,2.3-1,2.3-2.7s-0.7-2.5-2.3-2.5h-2.8v5.2H1080.5z"/>
<path d="M1091.2,508.9c-0.3,0.1-0.8,0.1-1.3,0.1c-3.4,0-4.4-1.9-4.4-5.6c0-3.6,0.9-5.8,4.4-5.8c3.4,0,4.4,2.1,4.4,5.8
	c0,2.6-0.4,4.3-1.8,5.1l1.4,2.2l-1.2,0.5L1091.2,508.9z M1093,503.4c0-3-0.6-4.7-3.1-4.7s-3.1,1.6-3.1,4.7c0,3,0.5,4.6,3.1,4.6
	C1092.4,507.9,1093,506.5,1093,503.4z"/>
<path d="M883.5,796.5H778c-2.8,0-5-2.2-5-5v-63.7c0-2.8,2.2-5,5-5h105.5c2.8,0,5,2.2,5,5v63.7C888.5,794.3,886.3,796.5,883.5,796.5z
	"/>
<path d="M805.4,756c0,0-2.2-0.3-3.2-0.3c-1.6,0-2.4,0.6-2.4,1.8c0,1.4,0.8,1.7,2.7,2.1c2.2,0.5,3.2,1,3.2,3c0,2.5-1.3,3.4-3.5,3.4
	c-1.3,0-3.5-0.3-3.5-0.3l0.1-1c0,0,2.2,0.3,3.3,0.3c1.6,0,2.4-0.7,2.4-2.2c0-1.2-0.7-1.6-2.5-2c-2.3-0.5-3.4-1-3.4-3.2
	c0-2.1,1.4-3,3.6-3c1.3,0,3.3,0.3,3.3,0.3L805.4,756z"/>
<path d="M813.3,764.4c0,0.5,0.4,0.6,0.9,0.7v0.9c-0.8,0-1.4-0.2-1.9-0.6c0,0-1.4,0.6-2.9,0.6s-2.3-0.8-2.3-2.5
	c0-1.5,0.8-2.2,2.5-2.4l2.5-0.2v-0.7c0-1.1-0.5-1.5-1.4-1.5c-1.1,0-3,0.2-3,0.2V758c0,0,1.8-0.3,3.1-0.3c1.8,0,2.6,0.8,2.6,2.6
	L813.3,764.4L813.3,764.4z M809.8,762.1c-1,0.1-1.4,0.6-1.4,1.4c0,0.9,0.4,1.5,1.2,1.5c1.2,0,2.5-0.5,2.5-0.5v-2.6L809.8,762.1z"/>
<path d="M815.8,754.4h1.2v11.5h-1.2V754.4z"/>
<path d="M825.3,764.8v1c0,0-1.8,0.3-3.1,0.3c-2.4,0-3.2-1.4-3.2-4.1c0-3,1.3-4.2,3.3-4.2c2.1,0,3.2,1.1,3.2,3.8l-0.1,0.9h-5.3
	c0,1.7,0.5,2.6,2.1,2.6C823.5,765,825.3,764.8,825.3,764.8z M824.4,761.4c0-2-0.6-2.7-2-2.7s-2.1,0.8-2.1,2.7H824.4z"/>
<path d="M832.8,759c0,0-1.8-0.3-2.8-0.3s-1.7,0.3-1.7,1.2c0,0.8,0.4,1,2.1,1.2c2,0.3,2.8,0.7,2.8,2.3c0,1.9-1.2,2.5-3.1,2.5
	c-1,0-2.8-0.3-2.8-0.3l0.1-1c0,0,1.8,0.3,2.6,0.3c1.3,0,2-0.3,2-1.4c0-0.8-0.4-1-2.2-1.3s-2.7-0.6-2.7-2.2c0-1.8,1.4-2.3,2.9-2.3
	c1.2,0,2.9,0.3,2.9,0.3L832.8,759z"/>
<path d="M840.7,754.8h2.7l3,11.1h-1.2l-0.8-2.8h-4.7l-0.8,2.8h-1.2L840.7,754.8z M839.9,761.9h4.2l-1.7-6.1h-0.8L839.9,761.9z"/>
<path d="M848,757.9h1.2v0.6c0,0,1.2-0.7,2.4-0.7c2,0,2.9,1.2,2.9,4.1c0,3.1-1,4.3-3.5,4.3c-0.8,0-1.6-0.1-1.8-0.2v3.6H848V757.9
	L848,757.9z M849.2,759.4v5.4c0.2,0,1,0.2,1.7,0.2c1.8,0,2.3-0.9,2.3-3.2c0-2.2-0.7-3-1.9-3C850.3,758.8,849.2,759.4,849.2,759.4z"
	/>
<path d="M856.4,757.9h1.2v0.6c0,0,1.2-0.7,2.4-0.7c2,0,2.9,1.2,2.9,4.1c0,3.1-1,4.3-3.5,4.3c-0.8,0-1.6-0.1-1.8-0.2v3.6h-1.2
	L856.4,757.9L856.4,757.9z M857.6,759.4v5.4c0.2,0,1,0.2,1.7,0.2c1.8,0,2.3-0.9,2.3-3.2c0-2.2-0.7-3-1.9-3
	C858.7,758.8,857.6,759.4,857.6,759.4z"/>
<path d="M827.4,642.5h2.3l2.7,9.7h-1.1l-0.7-2.5h-4.2l-0.7,2.5h-1.1L827.4,642.5z M826.8,648.7h3.7l-1.5-5.3h-0.7L826.8,648.7z"/>
<path d="M838.7,648.6c0,2.5-0.6,3.7-3,3.7c-2.3,0-3-1.2-3-3.7c0-2.4,0.8-3.6,3-3.6S838.7,646.2,838.7,648.6z M837.6,648.6
	c0-2-0.4-2.7-1.9-2.7s-1.9,0.7-1.9,2.7s0.3,2.8,1.9,2.8C837.4,651.4,837.6,650.6,837.6,648.6z"/>
<path d="M839.7,645.2h1v1c0,0,1.2-0.8,2.6-1.1v1.1c-1.3,0.3-2.5,1-2.5,1v5.1h-1L839.7,645.2L839.7,645.2z"/>
<path d="M849.3,645.2v7h-1v-0.5c0,0-1,0.6-2.1,0.6c-2,0-2.4-0.9-2.4-3.5v-3.7h1v3.6c0,1.9,0.2,2.6,1.5,2.6c1,0,1.9-0.5,1.9-0.5v-5.7
	L849.3,645.2L849.3,645.2z"/>
<path d="M855.2,646.2c0,0-1.6-0.2-2.5-0.2s-1.5,0.2-1.5,1.1c0,0.7,0.3,0.8,1.8,1.1c1.8,0.3,2.4,0.6,2.4,2c0,1.6-1,2.2-2.7,2.2
	c-0.9,0-2.5-0.3-2.5-0.3l0.1-0.9c0,0,1.6,0.2,2.3,0.2c1.2,0,1.8-0.2,1.8-1.2c0-0.7-0.4-0.9-1.9-1.2c-1.6-0.2-2.3-0.5-2.3-2
	s1.2-2,2.5-2c1,0,2.5,0.3,2.5,0.3L855.2,646.2z"/>
<path d="M858.7,652.2v-0.9l2.7-2.8c1.2-1.2,1.9-2,1.9-3c0-1.2-0.7-1.6-2-1.6c-1,0-2.4,0.3-2.4,0.3l-0.1-0.9c0,0,1.3-0.4,2.7-0.4
	c2,0,2.9,0.7,2.9,2.5c0,1.4-0.6,2.2-1.9,3.5l-2.5,2.5h4.6v0.9L858.7,652.2L858.7,652.2z"/>
<path d="M865.8,650.6h1.2v1.6h-1.2V650.6z"/>
<path d="M874.5,647.7c0,3.5-1.2,4.6-3.4,4.6s-3.4-1-3.4-4.6c0-3.8,1.2-4.9,3.4-4.9S874.5,643.9,874.5,647.7z M868.9,647.7
	c0,2.9,0.8,3.7,2.2,3.7c1.5,0,2.3-0.8,2.3-3.7c0-3.1-0.7-4-2.3-4C869.6,643.7,868.9,644.6,868.9,647.7z"/>
<path d="M837.4,659.5h5.9v1h-4.8v3.3h4v0.9h-4v3.5h4.8v1h-5.9V659.5z"/>
<path d="M844.4,669.2v-9.7h3.5c2.8,0,3.6,2,3.6,4.7c0,2.8-0.7,5-3.6,5H844.4L844.4,669.2z M847.9,660.4h-2.4v7.8h2.4
	c2,0,2.5-1.9,2.5-4C850.4,662.1,849.9,660.4,847.9,660.4z"/>
<path d="M852.8,659.5h2l2.8,8.2l2.8-8.2h2v9.7h-1.1v-8.5h-0.2l-2.8,8.2h-1.2l-2.8-8.2h-0.2v8.5H853L852.8,659.5L852.8,659.5z"/>
<path d="M818.9,681.2h2.7v4.8c-0.3,0.1-2.1,0.3-3.2,0.3c-3,0-3.8-1.8-3.8-5s0.8-5,3.7-5c1.5,0,3.2,0.4,3.2,0.4v0.9
	c0,0-1.7-0.3-3-0.3c-2.2,0-2.7,1.3-2.7,4s0.5,4,2.7,4c0.7,0,1.6-0.1,2-0.2v-3h-1.6L818.9,681.2L818.9,681.2z"/>
<path d="M827.7,684.9c0,0.4,0.4,0.6,0.8,0.6v0.8c-0.7,0-1.2-0.1-1.7-0.6c0,0-1.3,0.6-2.5,0.6c-1.3,0-2-0.7-2-2.1
	c0-1.3,0.7-1.9,2.1-2.1l2.2-0.2v-0.6c0-1-0.4-1.3-1.3-1.3c-1,0-2.7,0.2-2.7,0.2v-0.8c0,0,1.5-0.3,2.8-0.3c1.6,0,2.2,0.7,2.2,2.2
	L827.7,684.9L827.7,684.9z M824.6,682.9c-0.8,0.1-1.2,0.5-1.2,1.3s0.3,1.3,1.1,1.3c1,0,2.2-0.4,2.2-0.4v-2.3L824.6,682.9z"/>
<path d="M829.1,686.2v-7h1v0.5c0,0,1-0.6,2-0.6c0.9,0,1.5,0.2,1.8,0.7c0,0,1.2-0.7,2.5-0.7c1.9,0,2.4,0.9,2.4,3.5v3.7h-1v-3.7
	c0-1.8-0.2-2.5-1.5-2.5c-1,0-2,0.5-2,0.5c0.1,0.3,0.2,1.2,0.2,2v3.6h-1v-3.6c0-1.9-0.2-2.6-1.5-2.6c-1,0-1.9,0.5-1.9,0.5v5.7
	L829.1,686.2L829.1,686.2z"/>
<path d="M845.3,685.3v0.8c0,0-1.6,0.2-2.7,0.2c-2.1,0-2.8-1.2-2.8-3.6c0-2.7,1.2-3.7,2.9-3.7c1.9,0,2.8,1,2.8,3.3l-0.1,0.8h-4.6
	c0,1.5,0.5,2.3,1.8,2.3C843.8,685.4,845.3,685.3,845.3,685.3z M844.5,682.3c0-1.7-0.5-2.3-1.8-2.3c-1.2,0-1.9,0.7-1.9,2.3H844.5z"/>
<path d="M852.6,676.5c1.9,0,2.9,0.7,2.9,2.5c0,1.3-0.5,1.9-1.2,2.2c0.8,0.3,1.5,0.9,1.5,2.3c0,2-1.2,2.7-3,2.7H849v-9.7H852.6
	L852.6,676.5z M850.1,677.4v3.3h2.5c1.2,0,1.7-0.6,1.7-1.7c0-1.1-0.6-1.6-1.8-1.6H850.1z M850.1,681.7v3.5h2.6c1.2,0,2-0.4,2-1.8
	c0-1.5-1.3-1.7-2-1.7H850.1L850.1,681.7z"/>
<path d="M862.2,679.2v7h-1v-0.5c0,0-1,0.6-2.1,0.6c-2,0-2.4-0.9-2.4-3.5v-3.7h1v3.6c0,1.9,0.2,2.6,1.5,2.6c1,0,1.9-0.5,1.9-0.5v-5.7
	L862.2,679.2L862.2,679.2z"/>
<path d="M863.5,686.2v-7h1v0.5c0,0,1.1-0.6,2.2-0.6c1.9,0,2.4,1,2.4,3.5v3.7h-1v-3.7c0-1.8-0.2-2.5-1.5-2.5c-1,0-2,0.5-2,0.5v5.7
	L863.5,686.2L863.5,686.2z"/>
<path d="M875.7,686.2h-1v-0.5c0,0-1.1,0.6-2.1,0.6c-1.4,0-2.5-0.6-2.5-3.6c0-2.5,0.8-3.7,2.9-3.7c0.6,0,1.5,0.1,1.7,0.2v-3.1h1
	L875.7,686.2L875.7,686.2z M874.7,684.9v-4.8c-0.2,0-1.1-0.2-1.7-0.2c-1.5,0-1.9,1-1.9,2.8c0,2.3,0.7,2.7,1.6,2.7
	C873.7,685.4,874.7,684.9,874.7,684.9z"/>
<path d="M877.1,676.1h1v10.1h-1V676.1z"/>
<path d="M884.8,685.3v0.8c0,0-1.6,0.2-2.7,0.2c-2.1,0-2.8-1.2-2.8-3.6c0-2.7,1.2-3.7,2.9-3.7c1.9,0,2.8,1,2.8,3.3l-0.1,0.8h-4.6
	c0,1.5,0.5,2.3,1.8,2.3C883.2,685.4,884.8,685.3,884.8,685.3z M884,682.3c0-1.7-0.5-2.3-1.8-2.3c-1.2,0-1.9,0.7-1.9,2.3H884z"/>
<path d="M812.5,694.4h-2.4v7.8h2.4c2,0,2.5-1.9,2.5-4C815,696.1,814.5,694.4,812.5,694.4z"/>
<path d="M817.2,693.4h1v1.2h-1V693.4z M817.2,696.2h1v7h-1V696.2z"/>
<path d="M819.2,704.3c0-0.8,0.4-1.2,1.1-1.7c-0.2-0.2-0.4-0.5-0.4-1c0-0.3,0.5-1.1,0.5-1.1c-0.6-0.3-1.1-0.8-1.1-2.1
	c0-1.7,1.1-2.4,2.6-2.4c0.7,0,1.5,0.2,1.5,0.2l2.1-0.1v0.9h-1.3c0.3,0.3,0.5,0.7,0.5,1.4c0,1.8-0.9,2.4-2.7,2.4
	c-0.1,0-0.5,0-0.7-0.1c0,0-0.2,0.6-0.2,0.8c0,0.6,0.1,0.6,1.7,0.6c2,0,2.7,0.4,2.7,2.1c0,1.6-1.1,2.2-3.1,2.2
	C820,706.5,819.2,706,819.2,704.3z M821,703c-0.6,0.4-0.8,0.7-0.8,1.2c0,1,0.4,1.3,2,1.3c1.4,0,2-0.4,2-1.3c0-1.1-0.5-1.2-1.7-1.2
	C822.1,703.1,821,703,821,703z M823.5,698.4c0-1.1-0.4-1.5-1.6-1.5c-1.1,0-1.6,0.4-1.6,1.5s0.5,1.5,1.6,1.5
	C823.1,700,823.5,699.5,823.5,698.4z"/>
<path d="M826,693.4h1v1.2h-1V693.4z M826,696.2h1v7h-1V696.2z"/>
<path d="M829.8,697.1v3.3c0,1.5,0.1,2,1,2c0.4,0,1.2-0.1,1.2-0.1l0.1,0.9c0,0-0.9,0.2-1.4,0.2c-1.4,0-1.9-0.5-1.9-2.6v-3.7h-1v-0.9
	h1V694h1v2.1h2.2v0.9L829.8,697.1L829.8,697.1z"/>
<path d="M837.6,701.9c0,0.4,0.4,0.6,0.8,0.6v0.8c-0.7,0-1.2-0.1-1.7-0.6c0,0-1.3,0.6-2.5,0.6c-1.3,0-2-0.7-2-2.1
	c0-1.3,0.7-1.9,2.1-2.1l2.2-0.2v-0.6c0-1-0.4-1.3-1.3-1.3c-1,0-2.7,0.2-2.7,0.2v-0.8c0,0,1.5-0.3,2.8-0.3c1.6,0,2.3,0.7,2.3,2.2
	L837.6,701.9L837.6,701.9z M834.4,699.9c-0.8,0.1-1.2,0.5-1.2,1.3s0.3,1.3,1.1,1.3c1,0,2.2-0.4,2.2-0.4v-2.3L834.4,699.9z"/>
<path d="M839,693.1h1v10.1h-1V693.1z"/>
<path d="M844,693.5h5.8v1h-4.7v3.8h4v1h-4v4H844V693.5z"/>
<path d="M855.9,699.6c0,2.5-0.6,3.7-3,3.7c-2.3,0-3-1.2-3-3.7c0-2.4,0.8-3.6,3-3.6C855.2,696,855.9,697.2,855.9,699.6z M854.9,699.6
	c0-2-0.4-2.7-1.9-2.7s-1.9,0.7-1.9,2.7s0.3,2.8,1.9,2.8C854.6,702.4,854.9,701.6,854.9,699.6z"/>
<path d="M862.6,699.6c0,2.5-0.6,3.7-3,3.7c-2.3,0-3-1.2-3-3.7c0-2.4,0.8-3.6,3-3.6C861.9,696,862.6,697.2,862.6,699.6z M861.6,699.6
	c0-2-0.4-2.7-1.9-2.7s-1.9,0.7-1.9,2.7s0.3,2.8,1.9,2.8C861.3,702.4,861.6,701.6,861.6,699.6z"/>
<path d="M865,697.1v3.3c0,1.5,0.1,2,1,2c0.4,0,1.2-0.1,1.2-0.1l0.1,0.9c0,0-0.9,0.2-1.4,0.2c-1.4,0-1.9-0.5-1.9-2.6v-3.7h-1v-0.9h1
	V694h1v2.1h2.2v0.9L865,697.1L865,697.1z"/>
<path d="M867.8,696.2h1v0.5c0,0,1.1-0.6,2.1-0.6c1.8,0,2.5,1.1,2.5,3.6c0,2.8-0.9,3.7-3,3.7c-0.7,0-1.4-0.1-1.6-0.2v3.1h-1V696.2
	L867.8,696.2z M868.8,697.5v4.7c0.2,0,0.9,0.2,1.5,0.2c1.5,0,2-0.8,2-2.8c0-1.9-0.6-2.6-1.6-2.6C869.8,697,868.8,697.5,868.8,697.5z
	"/>
<path d="M874.5,696.2h1v1c0,0,1.2-0.8,2.6-1.1v1.1c-1.3,0.3-2.5,1-2.5,1v5.1h-1L874.5,696.2L874.5,696.2z"/>
<path d="M878.6,693.4h1v1.2h-1V693.4z M878.6,696.2h1v7h-1V696.2z"/>
<path d="M881,703.2v-7h1v0.5c0,0,1.1-0.6,2.2-0.6c1.9,0,2.4,1,2.4,3.5v3.7h-1v-3.7c0-1.8-0.2-2.5-1.5-2.5c-1,0-2,0.5-2,0.5v5.7
	L881,703.2L881,703.2z"/>
<path class="st0" d="M879.5,536H774c-2.8,0-5-2.2-5-5v-63.7c0-2.8,2.2-5,5-5h105.5c2.8,0,5,2.2,5,5V531
	C884.5,533.8,882.3,536,879.5,536z"/>
<path class="st3" d="M879.5,538.5H774c-4.1,0-7.5-3.4-7.5-7.5v-63.7c0-4.1,3.4-7.5,7.5-7.5h105.5c4.1,0,7.5,3.4,7.5,7.5V531
	C887,535.1,883.6,538.5,879.5,538.5z M774,464.8c-1.4,0-2.5,1.1-2.5,2.5V531c0,1.4,1.1,2.5,2.5,2.5h105.5c1.4,0,2.5-1.1,2.5-2.5
	v-63.7c0-1.4-1.1-2.5-2.5-2.5H774z"/>
<path class="st1" d="M802,495.7c-0.8,0.2-2,0.3-3.1,0.3c-3.3,0-4-2-4-5.7c0-3.8,0.7-5.7,4-5.7c1.1,0,2.3,0.2,3.1,0.4v1
	c-0.7-0.1-2-0.3-2.9-0.3c-2.5,0-2.9,1.5-2.9,4.6s0.4,4.6,2.9,4.6c0.9,0,2.1-0.1,2.8-0.3L802,495.7z"/>
<path class="st1" d="M809.9,487.9v8h-1.2v-0.6c0,0-1.2,0.7-2.4,0.7c-2.2,0-2.7-1-2.7-4v-4.2h1.2v4.2c0,2.2,0.2,2.9,1.7,2.9
	c1.2,0,2.2-0.6,2.2-0.6v-6.5L809.9,487.9L809.9,487.9z"/>
<path class="st1" d="M817.5,489c0,0-1.8-0.3-2.8-0.3s-1.7,0.3-1.7,1.2c0,0.8,0.4,1,2.1,1.2c2,0.3,2.8,0.7,2.8,2.3
	c0,1.9-1.2,2.5-3.1,2.5c-1,0-2.8-0.3-2.8-0.3l0.1-1c0,0,1.8,0.3,2.6,0.3c1.3,0,2-0.3,2-1.4c0-0.8-0.4-1-2.2-1.3s-2.7-0.6-2.7-2.2
	c0-1.8,1.4-2.3,2.9-2.3c1.2,0,2.9,0.3,2.9,0.3L817.5,489z"/>
<path class="st1" d="M821.2,488.9v3.8c0,1.7,0.1,2.2,1.2,2.2c0.5,0,1.4-0.1,1.4-0.1l0.1,1c0,0-1.1,0.2-1.6,0.2
	c-1.7,0-2.2-0.6-2.2-2.9v-4.2H819v-1h1.1v-2.5h1.2v2.5h2.5v1H821.2L821.2,488.9z"/>
<path class="st1" d="M831.7,491.8c0,2.9-0.7,4.3-3.4,4.3s-3.4-1.3-3.4-4.3c0-2.8,0.9-4.1,3.4-4.1C830.8,487.7,831.7,489,831.7,491.8
	z M830.5,491.8c0-2.2-0.5-3-2.2-3s-2.2,0.8-2.2,3c0,2.3,0.3,3.2,2.2,3.2S830.5,494,830.5,491.8z"/>
<path class="st1" d="M833.7,495.9v-8h1.2v0.6c0,0,1.2-0.7,2.3-0.7s1.7,0.2,2.1,0.8c0,0,1.4-0.8,2.8-0.8c2.2,0,2.7,1,2.7,3.9v4.2
	h-1.2v-4.2c0-2.1-0.2-2.9-1.7-2.9c-1.2,0-2.3,0.6-2.3,0.6c0.1,0.4,0.2,1.4,0.2,2.3v4.2h-1.2v-4.1c0-2.2-0.2-3-1.7-3
	c-1.1,0-2.2,0.6-2.2,0.6v6.5H833.7L833.7,495.9z"/>
<path class="st1" d="M853,494.8v0.9c0,0-1.8,0.3-3.1,0.3c-2.4,0-3.2-1.4-3.2-4.1c0-3,1.3-4.2,3.3-4.2c2.1,0,3.2,1.1,3.2,3.8
	l-0.1,0.9h-5.3c0,1.7,0.5,2.6,2.1,2.6C851.2,495,853,494.8,853,494.8z M852.1,491.4c0-2-0.6-2.7-2-2.7s-2.1,0.8-2.1,2.7H852.1z"/>
<path class="st1" d="M855.1,487.9h1.2v1.1c0,0,1.4-1,2.9-1.3v1.2c-1.5,0.3-2.9,1.1-2.9,1.1v5.9h-1.2V487.9z"/>
<path class="st1" d="M807.4,509.1v3.7h-1.2v-11.1h4c2.4,0,3.5,1.2,3.5,3.6s-1.1,3.8-3.5,3.8L807.4,509.1L807.4,509.1z M810.2,508
	c1.6,0,2.3-1,2.3-2.7s-0.7-2.5-2.3-2.5h-2.8v5.2H810.2z"/>
<path class="st1" d="M815.5,504.9h1.2v1.1c0,0,1.4-1,2.9-1.3v1.2c-1.5,0.3-2.9,1.1-2.9,1.1v5.9h-1.2V504.9z"/>
<path class="st1" d="M827.3,508.8c0,2.9-0.7,4.3-3.4,4.3s-3.4-1.3-3.4-4.3c0-2.8,0.9-4.1,3.4-4.1C826.4,504.7,827.3,506,827.3,508.8
	z M826.1,508.8c0-2.2-0.5-3-2.2-3s-2.2,0.8-2.2,3c0,2.3,0.3,3.2,2.2,3.2S826.1,511,826.1,508.8z"/>
<path class="st1" d="M830.8,512.9h-1.2v-7h-1v-1h1v-0.7c0-2.3,0.6-2.9,2.2-2.9c0.5,0,1.6,0.1,1.6,0.1v1c0,0-0.9,0-1.4,0
	c-0.9,0-1.2,0.4-1.2,1.9v0.7h2.3v1h-2.3L830.8,512.9L830.8,512.9z"/>
<path class="st1" d="M834.6,501.7h1.2v1.4h-1.2V501.7z M834.6,504.9h1.2v8h-1.2V504.9z"/>
<path class="st1" d="M838.2,501.4h1.2v11.5h-1.2V501.4z"/>
<path class="st1" d="M847.7,511.8v0.9c0,0-1.8,0.3-3.1,0.3c-2.4,0-3.2-1.4-3.2-4.1c0-3,1.3-4.2,3.3-4.2c2.1,0,3.2,1.1,3.2,3.8
	l-0.1,0.9h-5.3c0,1.7,0.5,2.6,2.1,2.6C845.9,512,847.7,511.8,847.7,511.8z M846.8,508.4c0-2-0.6-2.7-2-2.7s-2.1,0.8-2.1,2.7H846.8z"
	/>
<path class="st0" d="M810,633.4v73.7h69.5c2.8,0,5-2.3,5-5v-63.7c0-2.8-2.2-5-5-5L810,633.4z"/>
<path class="st0" d="M1004.5,536H899c-2.8,0-5-2.2-5-5v-63.7c0-2.8,2.2-5,5-5h105.5c2.8,0,5,2.2,5,5V531
	C1009.5,533.8,1007.3,536,1004.5,536z"/>
<path class="st4" d="M1004.5,538.5H899c-4.1,0-7.5-3.4-7.5-7.5v-63.7c0-4.1,3.4-7.5,7.5-7.5h105.5c4.1,0,7.5,3.4,7.5,7.5V531
	C1012,535.1,1008.6,538.5,1004.5,538.5z M899,464.8c-1.4,0-2.5,1.1-2.5,2.5V531c0,1.4,1.1,2.5,2.5,2.5h105.5c1.4,0,2.5-1.1,2.5-2.5
	v-63.7c0-1.4-1.1-2.5-2.5-2.5H899z"/>
<path class="st1" d="M941.4,486c0,0-2.2-0.3-3.2-0.3c-1.6,0-2.4,0.6-2.4,1.8c0,1.4,0.8,1.7,2.7,2.1c2.2,0.5,3.2,1,3.2,3
	c0,2.5-1.3,3.4-3.5,3.4c-1.3,0-3.5-0.4-3.5-0.4l0.1-1c0,0,2.2,0.3,3.3,0.3c1.6,0,2.4-0.7,2.4-2.2c0-1.2-0.7-1.6-2.5-2
	c-2.3-0.5-3.4-1-3.4-3.1s1.4-3,3.6-3c1.3,0,3.3,0.3,3.3,0.3L941.4,486z"/>
<path class="st1" d="M949.3,494.4c0,0.5,0.4,0.6,0.9,0.7v0.9c-0.8,0-1.4-0.2-1.9-0.6c0,0-1.4,0.6-2.9,0.6s-2.3-0.8-2.3-2.5
	c0-1.5,0.8-2.2,2.5-2.4l2.5-0.2v-0.7c0-1.1-0.5-1.5-1.4-1.5c-1.1,0-3,0.2-3,0.2V488c0,0,1.8-0.4,3.1-0.4c1.8,0,2.6,0.8,2.6,2.6
	L949.3,494.4L949.3,494.4z M945.7,492.1c-1,0.1-1.4,0.6-1.4,1.4c0,0.9,0.4,1.5,1.2,1.5c1.2,0,2.5-0.5,2.5-0.5v-2.6L945.7,492.1z"/>
<path class="st1" d="M951.7,484.4h1.2v11.5h-1.2V484.4z"/>
<path class="st1" d="M961.2,494.8v0.9c0,0-1.8,0.3-3.1,0.3c-2.4,0-3.2-1.4-3.2-4.1c0-3,1.3-4.2,3.3-4.2c2.1,0,3.2,1.1,3.2,3.8
	l-0.1,0.9H956c0,1.7,0.5,2.6,2.1,2.6C959.5,495,961.2,494.8,961.2,494.8z M960.3,491.4c0-2-0.6-2.7-2-2.7s-2.1,0.8-2.1,2.7H960.3z"
	/>
<path class="st1" d="M968.7,489c0,0-1.8-0.3-2.8-0.3s-1.8,0.3-1.8,1.2c0,0.8,0.4,1,2.1,1.2c2,0.3,2.8,0.7,2.8,2.3
	c0,1.9-1.2,2.5-3.1,2.5c-1,0-2.8-0.3-2.8-0.3l0.1-1c0,0,1.8,0.3,2.6,0.3c1.3,0,2-0.3,2-1.4c0-0.8-0.4-1-2.2-1.3s-2.7-0.6-2.7-2.2
	c0-1.8,1.4-2.3,2.9-2.3c1.2,0,2.9,0.3,2.9,0.3V489z"/>
<path class="st1" d="M930.2,501.8h1.2v11.1h-1.2V501.8z"/>
<path class="st1" d="M933.9,512.9v-8h1.2v0.6c0,0,1.3-0.7,2.5-0.7c2.2,0,2.7,1.1,2.7,3.9v4.2h-1.2v-4.2c0-2.1-0.2-2.9-1.7-2.9
	c-1.2,0-2.3,0.6-2.3,0.6v6.5H933.9L933.9,512.9z"/>
<path class="st1" d="M947.8,506c0,0-1.8-0.3-2.8-0.3s-1.7,0.3-1.7,1.2c0,0.8,0.4,1,2.1,1.2c2,0.3,2.8,0.7,2.8,2.3
	c0,1.9-1.2,2.5-3.1,2.5c-1,0-2.8-0.3-2.8-0.3l0.1-1c0,0,1.8,0.3,2.6,0.3c1.3,0,2-0.3,2-1.4c0-0.8-0.4-1-2.2-1.3s-2.7-0.6-2.7-2.2
	c0-1.8,1.4-2.3,2.9-2.3c1.2,0,2.9,0.3,2.9,0.3L947.8,506z"/>
<path class="st1" d="M949.9,501.7h1.2v1.4h-1.2V501.7z M949.9,504.9h1.2v8h-1.2V504.9z"/>
<path class="st1" d="M953.1,514.2c0-0.9,0.4-1.4,1.3-2c-0.3-0.2-0.5-0.6-0.5-1.1c0-0.3,0.5-1.3,0.5-1.3c-0.7-0.3-1.3-0.9-1.3-2.4
	c0-2,1.2-2.7,3-2.7c0.8,0,1.7,0.2,1.7,0.2l2.4-0.1v1h-1.5c0.3,0.3,0.5,0.8,0.5,1.6c0,2.1-1,2.7-3.1,2.7c-0.2,0-0.6,0-0.8-0.1
	c0,0-0.3,0.7-0.3,0.9c0,0.6,0.1,0.7,1.9,0.7c2.3,0,3.1,0.5,3.1,2.4c0,1.8-1.3,2.5-3.5,2.5C954,516.6,953.1,516.1,953.1,514.2z
	 M955.2,512.7c-0.7,0.5-0.9,0.8-0.9,1.4c0,1.1,0.5,1.5,2.3,1.5c1.6,0,2.3-0.4,2.3-1.5c0-1.2-0.5-1.3-2-1.3
	C956.3,512.8,955.2,512.7,955.2,512.7z M958,507.4c0-1.3-0.5-1.8-1.8-1.8c-1.2,0-1.8,0.5-1.8,1.8s0.5,1.7,1.8,1.7
	C957.5,509.2,958,508.7,958,507.4z"/>
<path class="st1" d="M961.7,512.9v-11.5h1.2v3.9c0,0,1.3-0.6,2.5-0.6c2.2,0,2.7,1.1,2.7,3.9v4.2h-1.2v-4.2c0-2.1-0.2-2.9-1.7-2.9
	c-1.1,0-2.3,0.5-2.3,0.5v6.6L961.7,512.9L961.7,512.9z"/>
<path class="st1" d="M971.8,505.9v3.8c0,1.7,0.1,2.2,1.2,2.2c0.5,0,1.4-0.1,1.4-0.1l0.1,1c0,0-1.1,0.2-1.6,0.2
	c-1.7,0-2.2-0.6-2.2-2.9v-4.2h-1.1v-1h1.1v-2.5h1.2v2.5h2.5v1H971.8L971.8,505.9z"/>
<path class="st0" d="M1129.5,536H1024c-2.8,0-5-2.2-5-5v-63.7c0-2.8,2.2-5,5-5h105.5c2.8,0,5,2.2,5,5V531
	C1134.5,533.8,1132.3,536,1129.5,536z"/>
<path class="st2" d="M1129.5,538.5H1024c-4.1,0-7.5-3.4-7.5-7.5v-63.7c0-4.1,3.4-7.5,7.5-7.5h105.5c4.1,0,7.5,3.4,7.5,7.5V531
	C1137,535.1,1133.6,538.5,1129.5,538.5z M1024,464.8c-1.4,0-2.5,1.1-2.5,2.5V531c0,1.4,1.1,2.5,2.5,2.5h105.5c1.4,0,2.5-1.1,2.5-2.5
	v-63.7c0-1.4-1.1-2.5-2.5-2.5H1024z"/>
<path class="st1" d="M1070.4,504.7c-0.8,0.2-2,0.3-3.1,0.3c-3.3,0-4.1-2-4.1-5.7c0-3.8,0.7-5.7,4.1-5.7c1.1,0,2.3,0.2,3.1,0.4
	l-0.1,1c-0.7-0.1-2-0.3-2.9-0.3c-2.5,0-2.9,1.5-2.9,4.6s0.4,4.6,2.9,4.6c0.9,0,2.1-0.1,2.8-0.3L1070.4,504.7z"/>
<path class="st1" d="M1073.7,501.1v3.7h-1.2v-11.1h4.1c2.4,0,3.5,1.2,3.5,3.6s-1.1,3.8-3.5,3.8H1073.7L1073.7,501.1z M1076.5,500
	c1.6,0,2.3-1,2.3-2.7s-0.7-2.5-2.3-2.5h-2.8v5.2H1076.5z"/>
<path class="st1" d="M1087.2,504.9c-0.3,0.1-0.8,0.1-1.3,0.1c-3.4,0-4.4-1.9-4.4-5.6c0-3.6,0.9-5.8,4.4-5.8c3.4,0,4.4,2.1,4.4,5.8
	c0,2.6-0.4,4.3-1.8,5.1l1.4,2.2l-1.2,0.5L1087.2,504.9z M1089,499.4c0-3-0.6-4.7-3.1-4.7s-3.1,1.6-3.1,4.7c0,3,0.5,4.6,3.1,4.6
	C1088.4,503.9,1089,502.5,1089,499.4z"/>
<path class="st0" d="M879.5,792.5H774c-2.8,0-5-2.2-5-5v-63.7c0-2.8,2.2-5,5-5h105.5c2.8,0,5,2.2,5,5v63.7
	C884.5,790.3,882.3,792.5,879.5,792.5z"/>
<path class="st1" d="M801.4,752c0,0-2.2-0.3-3.2-0.3c-1.6,0-2.4,0.6-2.4,1.8c0,1.4,0.8,1.7,2.7,2.1c2.2,0.5,3.2,1,3.2,3
	c0,2.5-1.3,3.4-3.5,3.4c-1.3,0-3.5-0.3-3.5-0.3l0.1-1c0,0,2.2,0.3,3.3,0.3c1.6,0,2.4-0.7,2.4-2.2c0-1.2-0.7-1.6-2.5-2
	c-2.3-0.5-3.4-1-3.4-3.2c0-2.1,1.4-3,3.6-3c1.3,0,3.3,0.3,3.3,0.3L801.4,752z"/>
<path class="st1" d="M809.3,760.4c0,0.5,0.4,0.6,0.9,0.7v0.9c-0.8,0-1.4-0.2-1.9-0.6c0,0-1.4,0.6-2.9,0.6s-2.3-0.8-2.3-2.5
	c0-1.5,0.8-2.2,2.5-2.4l2.5-0.2v-0.7c0-1.1-0.5-1.5-1.4-1.5c-1.1,0-3,0.2-3,0.2V754c0,0,1.8-0.3,3.1-0.3c1.8,0,2.6,0.8,2.6,2.6
	L809.3,760.4L809.3,760.4z M805.8,758.1c-1,0.1-1.4,0.6-1.4,1.4c0,0.9,0.4,1.5,1.2,1.5c1.2,0,2.5-0.5,2.5-0.5v-2.6L805.8,758.1z"/>
<path class="st1" d="M811.8,750.4h1.2v11.5h-1.2V750.4z"/>
<path class="st1" d="M821.3,760.8v1c0,0-1.8,0.3-3.1,0.3c-2.4,0-3.2-1.4-3.2-4.1c0-3,1.3-4.2,3.3-4.2c2.1,0,3.2,1.1,3.2,3.8
	l-0.1,0.9h-5.3c0,1.7,0.5,2.6,2.1,2.6C819.5,761,821.3,760.8,821.3,760.8z M820.4,757.4c0-2-0.6-2.7-2-2.7s-2.1,0.8-2.1,2.7H820.4z"
	/>
<path class="st1" d="M828.8,755c0,0-1.8-0.3-2.8-0.3s-1.7,0.3-1.7,1.2c0,0.8,0.4,1,2.1,1.2c2,0.3,2.8,0.7,2.8,2.3
	c0,1.9-1.2,2.5-3.1,2.5c-1,0-2.8-0.3-2.8-0.3l0.1-1c0,0,1.8,0.3,2.6,0.3c1.3,0,2-0.3,2-1.4c0-0.8-0.4-1-2.2-1.3s-2.7-0.6-2.7-2.2
	c0-1.8,1.4-2.3,2.9-2.3c1.2,0,2.9,0.3,2.9,0.3L828.8,755z"/>
<path class="st1" d="M836.7,750.8h2.7l3,11.1h-1.2l-0.8-2.8h-4.7l-0.8,2.8h-1.2L836.7,750.8z M835.9,757.9h4.2l-1.7-6.1h-0.8
	L835.9,757.9z"/>
<path class="st1" d="M844,753.9h1.2v0.6c0,0,1.2-0.7,2.4-0.7c2,0,2.9,1.2,2.9,4.1c0,3.1-1,4.3-3.5,4.3c-0.8,0-1.6-0.1-1.8-0.2v3.6
	H844V753.9L844,753.9z M845.2,755.4v5.4c0.2,0,1,0.2,1.7,0.2c1.8,0,2.3-0.9,2.3-3.2c0-2.2-0.7-3-1.9-3
	C846.3,754.8,845.2,755.4,845.2,755.4z"/>
<path class="st1" d="M852.4,753.9h1.2v0.6c0,0,1.2-0.7,2.4-0.7c2,0,2.9,1.2,2.9,4.1c0,3.1-1,4.3-3.5,4.3c-0.8,0-1.6-0.1-1.8-0.2v3.6
	h-1.2L852.4,753.9L852.4,753.9z M853.6,755.4v5.4c0.2,0,1,0.2,1.7,0.2c1.8,0,2.3-0.9,2.3-3.2c0-2.2-0.7-3-1.9-3
	C854.7,754.8,853.6,755.4,853.6,755.4z"/>
<path class="st1" d="M827.8,644.6h1.9l2.2,7.8H831l-0.6-2H827l-0.6,2h-0.9L827.8,644.6z M827.3,649.6h3l-1.2-4.3h-0.6L827.3,649.6z"
	/>
<path class="st1" d="M836.9,649.6c0,2-0.5,3-2.4,3s-2.4-1-2.4-3c0-1.9,0.6-2.9,2.4-2.9S836.9,647.6,836.9,649.6z M836,649.6
	c0-1.6-0.3-2.2-1.5-2.2s-1.5,0.6-1.5,2.2c0,1.6,0.2,2.3,1.5,2.3C835.9,651.8,836,651.2,836,649.6z"/>
<path class="st1" d="M837.7,646.8h0.8v0.8c0,0,1-0.6,2.1-0.9v0.9c-1.1,0.2-2,0.8-2,0.8v4.1h-0.8L837.7,646.8L837.7,646.8z"/>
<path class="st1" d="M845.5,646.8v5.7h-0.8v-0.4c0,0-0.8,0.5-1.7,0.5c-1.6,0-1.9-0.7-1.9-2.8v-3h0.8v2.9c0,1.5,0.2,2.1,1.2,2.1
	c0.8,0,1.5-0.4,1.5-0.4v-4.6H845.5L845.5,646.8z"/>
<path class="st1" d="M850.3,647.6c0,0-1.3-0.2-2-0.2s-1.2,0.2-1.2,0.9c0,0.6,0.2,0.6,1.5,0.9c1.5,0.2,1.9,0.5,1.9,1.6
	c0,1.3-0.8,1.8-2.2,1.8c-0.7,0-2-0.2-2-0.2l0.1-0.7c0,0,1.3,0.2,1.9,0.2c1,0,1.5-0.2,1.5-1c0-0.6-0.3-0.7-1.5-1
	c-1.3-0.2-1.9-0.4-1.9-1.6s1-1.6,2-1.6c0.8,0,2,0.2,2,0.2L850.3,647.6z"/>
<path class="st1" d="M853.1,652.5v-0.7l2.2-2.3c1-1,1.5-1.6,1.5-2.4c0-1-0.6-1.3-1.6-1.3c-0.8,0-1.9,0.2-1.9,0.2l-0.1-0.7
	c0,0,1.1-0.3,2.2-0.3c1.6,0,2.3,0.6,2.3,2c0,1.1-0.5,1.8-1.5,2.8l-2,2h3.7v0.7H853.1L853.1,652.5z"/>
<path class="st1" d="M858.8,651.2h1v1.3h-1V651.2z"/>
<path class="st1" d="M865.9,648.8c0,2.8-1,3.7-2.7,3.7s-2.7-0.8-2.7-3.7c0-3.1,1-4,2.7-4S865.9,645.8,865.9,648.8z M861.3,648.8
	c0,2.3,0.6,3,1.8,3s1.9-0.6,1.9-3c0-2.5-0.6-3.2-1.9-3.2C861.9,645.6,861.3,646.3,861.3,648.8z"/>
<path class="st1" d="M835.9,658.4h4.8v0.8h-3.9v2.7h3.2v0.7h-3.2v2.8h3.9v0.8h-4.8V658.4z"/>
<path class="st1" d="M841.5,666.2v-7.8h2.8c2.3,0,2.9,1.6,2.9,3.8c0,2.3-0.6,4-2.9,4H841.5L841.5,666.2z M844.4,659.1h-1.9v6.3h1.9
	c1.6,0,2-1.5,2-3.2C846.4,660.5,846,659.1,844.4,659.1z"/>
<path class="st1" d="M848.3,658.4h1.6l2.3,6.6l2.3-6.6h1.6v7.8h-0.9v-6.9H855l-2.3,6.6h-1l-2.3-6.6h-0.2v6.9h-0.9V658.4L848.3,658.4
	z"/>
<path class="st1" d="M820.9,675.9h2.2v3.9c-0.2,0.1-1.7,0.2-2.6,0.2c-2.4,0-3.1-1.5-3.1-4s0.6-4,3-4c1.2,0,2.6,0.3,2.6,0.3v0.7
	c0,0-1.4-0.2-2.4-0.2c-1.8,0-2.2,1.1-2.2,3.2s0.4,3.2,2.2,3.2c0.6,0,1.3-0.1,1.6-0.2v-2.4h-1.3V675.9L820.9,675.9z"/>
<path class="st1" d="M828,678.9c0,0.3,0.3,0.5,0.6,0.5v0.6c-0.6,0-1-0.1-1.4-0.5c0,0-1.1,0.5-2,0.5c-1.1,0-1.6-0.6-1.6-1.7
	c0-1.1,0.6-1.5,1.7-1.7l1.8-0.2V676c0-0.8-0.3-1.1-1.1-1.1s-2.2,0.2-2.2,0.2v-0.6c0,0,1.2-0.2,2.3-0.2c1.3,0,1.8,0.6,1.8,1.8
	L828,678.9L828,678.9z M825.5,677.3c-0.6,0.1-1,0.4-1,1.1c0,0.6,0.2,1.1,0.9,1.1c0.8,0,1.8-0.3,1.8-0.3v-1.9L825.5,677.3z"/>
<path class="st1" d="M829.2,680v-5.7h0.8v0.4c0,0,0.8-0.5,1.6-0.5c0.7,0,1.2,0.2,1.5,0.6c0,0,1-0.6,2-0.6c1.5,0,1.9,0.7,1.9,2.8v3
	h-0.8v-3c0-1.5-0.2-2-1.2-2c-0.8,0-1.6,0.4-1.6,0.4c0.1,0.2,0.2,1,0.2,1.6v2.9h-0.8V677c0-1.5-0.2-2.1-1.2-2.1
	c-0.8,0-1.5,0.4-1.5,0.4v4.6L829.2,680L829.2,680z"/>
<path class="st1" d="M842.2,679.2v0.6c0,0-1.3,0.2-2.2,0.2c-1.7,0-2.3-1-2.3-2.9c0-2.2,1-3,2.3-3c1.5,0,2.3,0.8,2.3,2.7l-0.1,0.6
	h-3.7c0,1.2,0.4,1.9,1.5,1.9C841,679.3,842.2,679.2,842.2,679.2z M841.6,676.8c0-1.4-0.4-1.9-1.5-1.9c-1,0-1.5,0.6-1.5,1.9H841.6z"
	/>
<path class="st1" d="M848.1,672.1c1.5,0,2.3,0.6,2.3,2c0,1.1-0.4,1.5-1,1.8c0.6,0.2,1.2,0.7,1.2,1.9c0,1.6-1,2.2-2.4,2.2h-3.1v-7.8
	h3V672.1z M846.1,672.8v2.7h2c1,0,1.4-0.5,1.4-1.4s-0.5-1.3-1.5-1.3H846.1z M846.1,676.3v2.8h2.1c1,0,1.6-0.3,1.6-1.5
	s-1.1-1.4-1.6-1.4h-2.1V676.3z"/>
<path class="st1" d="M855.9,674.3v5.7h-0.8v-0.4c0,0-0.8,0.5-1.7,0.5c-1.6,0-1.9-0.7-1.9-2.8v-3h0.8v2.9c0,1.5,0.2,2.1,1.2,2.1
	c0.8,0,1.5-0.4,1.5-0.4v-4.6H855.9L855.9,674.3z"/>
<path class="st1" d="M857,680v-5.7h0.8v0.4c0,0,0.9-0.5,1.8-0.5c1.5,0,1.9,0.8,1.9,2.8v3h-0.8v-3c0-1.5-0.2-2-1.2-2
	c-0.8,0-1.6,0.4-1.6,0.4v4.6H857L857,680z"/>
<path class="st1" d="M866.8,680H866v-0.4c0,0-0.9,0.5-1.7,0.5c-1.1,0-2-0.5-2-2.9c0-2,0.6-3,2.3-3c0.5,0,1.2,0.1,1.4,0.2v-2.5h0.8
	V680L866.8,680z M866,678.9V675c-0.2,0-0.9-0.2-1.4-0.2c-1.2,0-1.5,0.8-1.5,2.3c0,1.9,0.6,2.2,1.3,2.2
	C865.2,679.3,866,678.9,866,678.9z"/>
<path class="st1" d="M868,671.8h0.8v8.2H868V671.8z"/>
<path class="st1" d="M874.2,679.2v0.6c0,0-1.3,0.2-2.2,0.2c-1.7,0-2.3-1-2.3-2.9c0-2.2,1-3,2.3-3c1.5,0,2.3,0.8,2.3,2.7l-0.1,0.6
	h-3.7c0,1.2,0.4,1.9,1.5,1.9C872.9,679.3,874.2,679.2,874.2,679.2z M873.5,676.8c0-1.4-0.4-1.9-1.5-1.9c-1,0-1.5,0.6-1.5,1.9H873.5z
	"/>
<path class="st1" d="M812.9,693.7v-7.8h2.8c2.3,0,2.9,1.6,2.9,3.8c0,2.3-0.6,4-2.9,4H812.9L812.9,693.7z M815.7,686.6h-1.9v6.3h1.9
	c1.6,0,2-1.5,2-3.2C817.8,688,817.3,686.6,815.7,686.6z"/>
<path class="st1" d="M819.5,685.8h0.8v1h-0.8V685.8z M819.5,688h0.8v5.7h-0.8V688z"/>
<path class="st1" d="M821.1,694.6c0-0.6,0.3-1,0.9-1.4c-0.2-0.2-0.3-0.4-0.3-0.8c0-0.2,0.4-0.9,0.4-0.9c-0.5-0.2-0.9-0.6-0.9-1.7
	c0-1.4,0.9-1.9,2.1-1.9c0.6,0,1.2,0.2,1.2,0.2l1.7-0.1v0.7h-1.1c0.2,0.2,0.4,0.6,0.4,1.1c0,1.5-0.7,1.9-2.2,1.9
	c-0.1,0-0.4,0-0.6-0.1c0,0-0.2,0.5-0.2,0.6c0,0.5,0.1,0.5,1.4,0.5c1.6,0,2.2,0.3,2.2,1.7c0,1.3-0.9,1.8-2.5,1.8
	C821.8,696.4,821.1,696,821.1,694.6z M822.6,693.5c-0.5,0.3-0.6,0.6-0.6,1c0,0.8,0.3,1.1,1.6,1.1c1.1,0,1.6-0.3,1.6-1.1
	c0-0.9-0.4-1-1.4-1C823.5,693.6,822.6,693.5,822.6,693.5z M824.6,689.8c0-0.9-0.3-1.2-1.3-1.2c-0.9,0-1.3,0.3-1.3,1.2
	s0.4,1.2,1.3,1.2C824.3,691.1,824.6,690.7,824.6,689.8z"/>
<path class="st1" d="M826.6,685.8h0.8v1h-0.8V685.8z M826.6,688h0.8v5.7h-0.8V688z"/>
<path class="st1" d="M829.7,688.8v2.7c0,1.2,0.1,1.6,0.8,1.6c0.3,0,1-0.1,1-0.1l0.1,0.7c0,0-0.7,0.2-1.1,0.2c-1.1,0-1.5-0.4-1.5-2.1
	v-3h-0.8V688h0.8v-1.8h0.8v1.7h1.8v0.7L829.7,688.8L829.7,688.8z"/>
<path class="st1" d="M836,692.6c0,0.3,0.3,0.5,0.6,0.5v0.6c-0.6,0-1-0.1-1.4-0.5c0,0-1.1,0.5-2,0.5c-1.1,0-1.6-0.6-1.6-1.7
	c0-1.1,0.6-1.5,1.7-1.7l1.8-0.2v-0.5c0-0.8-0.3-1.1-1.1-1.1s-2.2,0.2-2.2,0.2v-0.6c0,0,1.2-0.2,2.3-0.2c1.3,0,1.9,0.6,1.9,1.8V692.6
	L836,692.6z M833.4,691c-0.6,0.1-1,0.4-1,1.1s0.2,1.1,0.9,1.1c0.8,0,1.8-0.3,1.8-0.3V691H833.4z"/>
<path class="st1" d="M837.2,685.5h0.8v8.2h-0.8V685.5z"/>
<path class="st1" d="M841.2,685.9h4.7v0.8h-3.8v3.1h3.2v0.8h-3.2v3.2h-0.9V685.9z"/>
<path class="st1" d="M850.8,690.8c0,2-0.5,3-2.4,3s-2.4-1-2.4-3c0-1.9,0.6-2.9,2.4-2.9C850.3,687.9,850.8,688.8,850.8,690.8z
	 M850,690.8c0-1.6-0.3-2.2-1.5-2.2s-1.5,0.6-1.5,2.2c0,1.6,0.2,2.3,1.5,2.3C849.8,693,850,692.4,850,690.8z"/>
<path class="st1" d="M856.2,690.8c0,2-0.5,3-2.4,3s-2.4-1-2.4-3c0-1.9,0.6-2.9,2.4-2.9C855.7,687.9,856.2,688.8,856.2,690.8z
	 M855.4,690.8c0-1.6-0.3-2.2-1.5-2.2s-1.5,0.6-1.5,2.2c0,1.6,0.2,2.3,1.5,2.3C855.2,693,855.4,692.4,855.4,690.8z"/>
<path class="st1" d="M858.2,688.8v2.7c0,1.2,0.1,1.6,0.8,1.6c0.3,0,1-0.1,1-0.1l0.1,0.7c0,0-0.7,0.2-1.1,0.2c-1.1,0-1.5-0.4-1.5-2.1
	v-3h-0.8V688h0.8v-1.8h0.8v1.7h1.8v0.7L858.2,688.8L858.2,688.8z"/>
<path class="st1" d="M860.4,688h0.8v0.4c0,0,0.9-0.5,1.7-0.5c1.5,0,2,0.9,2,2.9c0,2.3-0.7,3-2.4,3c-0.6,0-1.1-0.1-1.3-0.2v2.5h-0.8
	V688L860.4,688z M861.2,689.1v3.8c0.2,0,0.7,0.2,1.2,0.2c1.2,0,1.6-0.6,1.6-2.3c0-1.5-0.5-2.1-1.3-2.1
	C862.1,688.7,861.2,689.1,861.2,689.1z"/>
<path class="st1" d="M865.9,688h0.8v0.8c0,0,1-0.6,2.1-0.9v0.9c-1.1,0.2-2,0.8-2,0.8v4.1H866L865.9,688L865.9,688z"/>
<path class="st1" d="M869.2,685.8h0.8v1h-0.8V685.8z M869.2,688h0.8v5.7h-0.8V688z"/>
<path class="st1" d="M871.1,693.7V688h0.8v0.4c0,0,0.9-0.5,1.8-0.5c1.5,0,1.9,0.8,1.9,2.8v3h-0.8v-3c0-1.5-0.2-2-1.2-2
	c-0.8,0-1.6,0.4-1.6,0.4v4.6H871.1L871.1,693.7z"/>
<path class="st1" d="M877.7,688.8v2.7c0,1.2,0.1,1.6,0.8,1.6c0.3,0,1-0.1,1-0.1l0.1,0.7c0,0-0.7,0.2-1.1,0.2c-1.1,0-1.5-0.4-1.5-2.1
	v-3h-0.8V688h0.8v-1.8h0.8v1.7h1.8v0.7L877.7,688.8L877.7,688.8z"/>
<rect x="453" y="952.1" class="st2" width="2" height="1.5"/>
<rect x="909.5" y="460.8" class="st4" width="2" height="1.5"/>
</svg>
