<?xml version="1.0" encoding="utf-8"?>
<!-- Generator: Adobe Illustrator 23.0.6, SVG Export Plug-In . SVG Version: 6.00 Build 0)  -->
<svg version="1.1" id="圖層_1" xmlns="http://www.w3.org/2000/svg" xmlns:xlink="http://www.w3.org/1999/xlink" x="0px" y="0px"
	 viewBox="0 0 1920 1080" style="enable-background:new 0 0 1920 1080;" xml:space="preserve">
<style type="text/css">
	.st0{fill:#FFFFFF;}
	.st1{fill:#C2ACA3;}
	.st2{opacity:0.35;}
	.st3{fill:#E60045;}
</style>
<path d="M810,633.4h-36c-2.8,0-5,2.2-5,5v63.7c0,2.8,2.2,5,5,5h36V633.4z"/>
<g>
	<path class="st0" d="M781.2,675.7c-0.8,0.2-2,0.3-3.1,0.3c-3.3,0-4-2-4-5.7c0-3.8,0.7-5.7,4-5.7c1.1,0,2.3,0.2,3.1,0.3v1
		c-0.7-0.1-2-0.3-2.9-0.3c-2.5,0-2.9,1.5-2.9,4.6s0.4,4.6,2.9,4.6c0.9,0,2.1-0.1,2.8-0.3L781.2,675.7z"/>
	<path class="st0" d="M784,671.6v4.2h-1.2v-11.1h4.1c2.3,0,3.5,1,3.5,3.4c0,1.6-0.6,2.8-2,3.2l2.1,4.5h-1.4l-2-4.2L784,671.6
		L784,671.6z M786.9,665.9H784v4.7h2.9c1.7,0,2.3-1,2.3-2.4C789.2,666.6,788.5,665.9,786.9,665.9z"/>
	<path class="st0" d="M792.3,664.8h2.2l3.1,9.4l3.1-9.4h2.2v11.1h-1.2v-9.8h-0.2l-3.2,9.4H797l-3.2-9.4h-0.2v9.8h-1.2L792.3,664.8
		L792.3,664.8z"/>
</g>
<g>
	<path d="M250.5,781H145c-2.8,0-5-2.2-5-5v-63.7c0-2.8,2.2-5,5-5h105.5c2.8,0,5,2.2,5,5V776C255.5,778.8,253.3,781,250.5,781z"/>
	<g>
		<path class="st0" d="M180,746.1v3.7h-1.2v-11.1h4.1c2.4,0,3.5,1.2,3.5,3.6c0,2.4-1.1,3.8-3.5,3.8H180z M182.8,745
			c1.6,0,2.3-1,2.3-2.7s-0.7-2.5-2.3-2.5H180v5.2H182.8z"/>
		<path class="st0" d="M194.5,745.8c0,2.9-0.7,4.3-3.4,4.3s-3.4-1.3-3.4-4.3c0-2.8,0.9-4.1,3.4-4.1S194.5,743,194.5,745.8z
			 M193.2,745.8c0-2.2-0.5-3-2.2-3s-2.2,0.8-2.2,3c0,2.3,0.3,3.2,2.2,3.2S193.2,748,193.2,745.8z"/>
		<path class="st0" d="M196.4,741.9h1.2v1.1c0,0,1.4-1,2.9-1.3v1.2c-1.5,0.3-2.9,1.1-2.9,1.1v5.9h-1.2V741.9L196.4,741.9z"/>
		<path class="st0" d="M203.6,742.9v3.8c0,1.7,0.1,2.2,1.1,2.2c0.4,0,1.4-0.1,1.4-0.1l0.1,1c0,0-1.1,0.2-1.6,0.2
			c-1.6,0-2.2-0.6-2.2-2.9v-4.2h-1.1v-1h1.1v-2.5h1.2v2.5h2.6v1H203.6z"/>
		<path class="st0" d="M213.2,748.4c0,0.5,0.4,0.6,0.9,0.7L214,750c-0.9,0-1.4-0.2-1.9-0.6c0,0-1.4,0.6-2.9,0.6s-2.3-0.8-2.3-2.5
			c0-1.5,0.8-2.2,2.4-2.4l2.5-0.2v-0.7c0-1.1-0.5-1.5-1.4-1.5c-1.1,0-3,0.2-3,0.2l-0.1-0.9c0,0,1.8-0.3,3.1-0.3
			c1.8,0,2.6,0.8,2.6,2.6L213.2,748.4L213.2,748.4z M209.6,746.1c-1,0.1-1.4,0.6-1.4,1.4c0,0.9,0.4,1.5,1.2,1.5
			c1.2,0,2.5-0.5,2.5-0.5v-2.6L209.6,746.1z"/>
		<path class="st0" d="M215.7,738.4h1.2v11.5h-1.2V738.4z"/>
	</g>
</g>
<g>
	<path d="M250.5,866.5H145c-2.8,0-5-2.2-5-5v-63.7c0-2.8,2.2-5,5-5h105.5c2.8,0,5,2.2,5,5v63.7C255.5,864.3,253.3,866.5,250.5,866.5
		z"/>
	<g>
		<path class="st0" d="M155.6,836.4l-2.1-5h-0.1h-1.1v5h-1.5v-11.8h2.6c2.1,0,3.6,0.9,3.6,3.3c0,1.7-0.8,2.8-2.1,3.2l2.3,5.2
			L155.6,836.4L155.6,836.4z M153.2,830.2c1.5,0,2.3-0.7,2.3-2.3c0-1.5-0.8-2.1-2.3-2.1h-0.9v4.4L153.2,830.2L153.2,830.2z"/>
		<path class="st0" d="M158.5,832.1c0-3.1,1.5-4.6,3.3-4.6s3.3,1.5,3.3,4.6c0,3-1.5,4.5-3.3,4.5S158.5,835.1,158.5,832.1z
			 M163.6,832.1c0-2.2-0.8-3.4-1.8-3.4c-1.1,0-1.8,1.2-1.8,3.4s0.7,3.3,1.8,3.3C162.8,835.4,163.6,834.2,163.6,832.1z"/>
		<path class="st0" d="M168.8,833.7v-8.4h-2.1v-1.2h3.6v9.7c0,1.1,0.5,1.5,1.2,1.5c0.4,0,0.7-0.1,1.1-0.3l0.4,1.1
			c-0.6,0.3-1.1,0.4-1.9,0.4C169.6,836.6,168.8,835.6,168.8,833.7z"/>
		<path class="st0" d="M176.8,833.7v-8.4h-2.1v-1.2h3.6v9.7c0,1.1,0.5,1.5,1.2,1.5c0.4,0,0.7-0.1,1.1-0.3l0.4,1.1
			c-0.6,0.3-1.1,0.4-1.9,0.4C177.6,836.6,176.8,835.6,176.8,833.7z"/>
		<path class="st0" d="M185.8,828.9h-2.9v-1.2h4.4v8.7h-1.5V828.9z M185.4,824.9c0-0.6,0.4-1,1-1s1,0.4,1,1s-0.4,1-1,1
			S185.4,825.5,185.4,824.9z"/>
		<path class="st0" d="M190.8,827.7h1.2l0.1,1.2h0.1c0.7-0.8,1.5-1.4,2.5-1.4c1.6,0,2.2,1.1,2.2,3.1v5.8h-1.5v-5.6
			c0-1.4-0.3-2-1.3-2c-0.7,0-1.2,0.4-1.8,1.3v6.3h-1.5V827.7z"/>
		<path class="st0" d="M198.6,838c0-0.8,0.4-1.4,1.1-2l0,0c-0.4-0.3-0.7-0.7-0.7-1.4s0.4-1.3,0.9-1.7v-0.1c-0.5-0.5-0.9-1.2-0.9-2.3
			c0-2,1.3-3,2.7-3c0.3,0,0.7,0.1,1,0.2h2.8v1.1h-1.6c0.3,0.4,0.5,1,0.5,1.8c0,1.9-1.2,3-2.6,3c-0.3,0-0.7-0.1-1.1-0.3
			c-0.3,0.3-0.4,0.5-0.4,1c0,0.6,0.3,1,1.4,1h1.1c1.8,0,2.7,0.6,2.7,2.1c0,1.6-1.4,2.9-3.7,2.9C199.9,840.3,198.6,839.5,198.6,838z
			 M203.9,837.6c0-0.8-0.6-1.1-1.6-1.1h-0.7c-0.4,0-0.6,0-1-0.1c-0.5,0.5-0.7,1-0.7,1.5c0,0.9,0.7,1.5,1.9,1.5
			C203.1,839.3,203.9,838.4,203.9,837.6z M202.9,830.6c0-1.4-0.6-2-1.3-2s-1.3,0.6-1.3,2s0.6,2.1,1.3,2.1
			C202.3,832.6,202.9,831.9,202.9,830.6z"/>
		<path class="st0" d="M215.4,824.6h5.5v1.3h-4.1v4h3.4v1.3h-3.4v5.3h-1.5L215.4,824.6L215.4,824.6z"/>
		<path class="st0" d="M222.6,830.6c0-4.2,1.9-6.1,4.1-6.1c1.1,0,2,0.6,2.5,1.3l-0.9,0.9c-0.4-0.5-0.9-0.9-1.6-0.9
			c-1.3,0-2.6,1.4-2.6,4.8c0,3.4,1.1,4.8,2.6,4.8c0.7,0,1.2-0.3,1.8-1l0.9,0.9c-0.8,0.9-1.6,1.4-2.8,1.4
			C224.4,836.6,222.6,834.7,222.6,830.6z"/>
		<path class="st0" d="M230.5,834.9l0.9-1c0.7,0.9,1.5,1.4,2.4,1.4c1,0,1.7-0.7,1.7-1.7c0-1.2-0.6-1.8-1.5-2.4l-1.2-0.8
			c-1.1-0.7-1.9-1.5-1.9-3.1c0-1.7,1.2-3,3-3c1.2,0,2.1,0.6,2.9,1.5l-0.8,1c-0.6-0.7-1.2-1.1-2-1.1c-0.9,0-1.5,0.6-1.5,1.5
			c0,1,0.5,1.5,1.6,2.2l1.1,0.7c1.1,0.7,1.9,1.5,1.9,3.2c0,1.8-1.2,3.2-3.2,3.2C232.5,836.6,231.4,835.9,230.5,834.9z"/>
		<path class="st0" d="M241,825.9h-2.8v-1.3h7.1v1.3h-2.8v10.5H241V825.9L241,825.9z"/>
	</g>
</g>
<g>
	<g>
		<path d="M250.5,952.1H145c-2.8,0-5-2.2-5-5v-63.7c0-2.8,2.2-5,5-5h105.5c2.8,0,5,2.2,5,5v63.7
			C255.5,949.8,253.3,952.1,250.5,952.1z"/>
		<path class="st1" d="M250.5,954.6H145c-4.1,0-7.5-3.4-7.5-7.5v-63.7c0-4.1,3.4-7.5,7.5-7.5h105.5c4.1,0,7.5,3.4,7.5,7.5v63.7
			C258,951.2,254.6,954.6,250.5,954.6z M145,880.9c-1.4,0-2.5,1.1-2.5,2.5v63.7c0,1.4,1.1,2.5,2.5,2.5h105.5c1.4,0,2.5-1.1,2.5-2.5
			v-63.7c0-1.4-1.1-2.5-2.5-2.5H145z"/>
	</g>
	<g>
		<path class="st0" d="M182.9,919.9v-11.1h3.9c3.2,0,4.1,2.2,4.1,5.4s-0.8,5.7-4.1,5.7L182.9,919.9L182.9,919.9z M186.8,909.9h-2.7
			v8.9h2.7c2.3,0,2.8-2.2,2.8-4.6S189.1,909.9,186.8,909.9z"/>
		<path class="st0" d="M199.9,919.7c-0.8,0.2-2,0.3-3.1,0.3c-3.3,0-4.1-2-4.1-5.7c0-3.8,0.7-5.7,4.1-5.7c1.1,0,2.4,0.2,3.1,0.3
			l-0.1,1c-0.7-0.1-2-0.3-2.9-0.3c-2.5,0-2.9,1.5-2.9,4.6s0.4,4.6,2.9,4.6c0.9,0,2.1-0.1,2.9-0.3L199.9,919.7z"/>
		<path class="st0" d="M201.9,908.8h2.2l3.1,9.4l3.1-9.4h2.2v11.1h-1.2v-9.8h-0.2l-3.2,9.4h-1.4l-3.2-9.4h-0.2v9.8h-1.2L201.9,908.8
			L201.9,908.8z"/>
	</g>
</g>
<g>
	<g class="st2">
		<path d="M629.5,870.5H524c-2.8,0-5-2.2-5-5v-63.7c0-2.8,2.2-5,5-5h105.5c2.8,0,5,2.2,5,5v63.7
			C634.5,868.3,632.3,870.5,629.5,870.5z"/>
	</g>
	<g>
		<path d="M625.5,866.5H520c-2.8,0-5-2.2-5-5v-63.7c0-2.8,2.2-5,5-5h105.5c2.8,0,5,2.2,5,5v63.7
			C630.5,864.3,628.3,866.5,625.5,866.5z"/>
	</g>
</g>
<path class="st3" d="M625.5,869H520c-4.1,0-7.5-3.4-7.5-7.5v-63.7c0-4.1,3.4-7.5,7.5-7.5h105.5c4.1,0,7.5,3.4,7.5,7.5v63.7
	C633,865.7,629.6,869,625.5,869z M520,795.4c-1.4,0-2.5,1.1-2.5,2.5v63.7c0,1.4,1.1,2.5,2.5,2.5h105.5c1.4,0,2.5-1.1,2.5-2.5v-63.7
	c0-1.4-1.1-2.5-2.5-2.5H520z"/>
<g>
	<path class="st0" d="M547.6,847.6c-1.2,0.7-3.1,1.4-4.6,1.8c-0.2-0.2-0.6-0.6-0.8-0.8c1.5-0.3,3.4-0.8,4.4-1.4L547.6,847.6z
		 M551.2,847.1c1.6,0.5,3.2,1,4.2,1.5l-0.8,0.7c-1-0.5-2.7-1.1-4.4-1.6l0.6-0.5h-6.6v-4.8c-0.4,0.1-0.8,0.2-1.3,0.3
		c-0.1-0.3-0.3-0.7-0.5-0.9c1.9-0.3,3-0.8,3.6-1.4h-2.5c0.1-0.7,0.3-1.6,0.4-2.4h3v-0.9H543v-0.7h3.7v-0.8h1v0.8h2.3v-0.8h1v0.8h3.3
		v2.3H551v0.9h4.3c0,0,0,0.2,0,0.4c-0.1,0.8-0.2,1.2-0.4,1.4s-0.4,0.3-0.7,0.3c-0.1,0-0.2,0-0.4,0v5.3h-2.6L551.2,847.1L551.2,847.1
		z M544.6,838.8c0,0.3-0.1,0.6-0.1,0.9h2c0.1-0.3,0.2-0.6,0.2-0.9H544.6z M552.7,842.2h-7.5v0.9h7.5V842.2z M552.7,843.9h-7.5v0.9
		h7.5V843.9z M545.2,846.4h7.5v-0.9h-7.5V846.4z M547.2,840.4c-0.2,0.4-0.6,0.8-1.1,1.1h6.7c0-0.2-0.1-0.3-0.2-0.5
		c0.4,0,0.9,0.1,1,0.1c0.2,0,0.3,0,0.3-0.1c0.1-0.1,0.1-0.2,0.2-0.5h-3.2v1h-1v-1L547.2,840.4L547.2,840.4z M550,838.8h-2.3
		c0,0.3-0.1,0.6-0.2,0.9h2.5V838.8z M547.7,838.1h2.3v-0.9h-2.3V838.1z M551.1,837.2v0.9h2.3v-0.9H551.1z"/>
	<path class="st0" d="M569.6,847.8c0,0.7-0.2,1.1-0.7,1.2c-0.5,0.2-1.4,0.2-2.8,0.2c0-0.3-0.2-0.8-0.4-1.1c1.1,0,2.1,0,2.3,0
		c0.3,0,0.4-0.1,0.4-0.4v-3h-4v4.4h-1.1v-4.4h-3.7c-0.2,1.7-0.7,3.4-1.9,4.6c-0.2-0.2-0.6-0.6-0.9-0.7c1.6-1.9,1.8-4.5,1.8-6.6v-5.4
		h10.9v11.2H569.6z M563.4,843.7v-2.5h-3.6v0.9c0,0.5,0,1-0.1,1.6H563.4z M559.8,837.8v2.4h3.6v-2.4H559.8z M568.5,837.8h-4v2.4h4
		V837.8z M568.5,843.7v-2.5h-4v2.5H568.5z"/>
	<path class="st0" d="M577,839.2h-3.1v-1.1h7.5v1.1h-3.1v9H577V839.2z"/>
	<path class="st0" d="M590.5,849.7c-1.4-0.4-2.7-0.8-3.9-1.2c-0.2-0.1-0.4-0.2-0.6-0.2c-2.4-0.1-4.5-1.9-4.5-5.1
		c0-3.2,2-5.3,4.7-5.3s4.5,2.1,4.5,5.1c0,2.6-1.2,4.3-2.9,4.8v0.1c1,0.3,2.1,0.5,3,0.6L590.5,849.7z M589.4,843.1c0-2-1-4.1-3.2-4.1
		s-3.3,2-3.3,4.2c0,2.1,1.2,4.1,3.2,4.1C588.2,847.3,589.4,845.4,589.4,843.1z"/>
	<path class="st0" d="M601,843.8c-0.1-1.4-0.2-3.1-0.1-4.4l0,0c-0.3,1.2-0.8,2.4-1.3,3.8l-1.8,4.9h-1l-1.6-4.8
		c-0.5-1.4-0.9-2.7-1.2-3.9l0,0c0,1.3-0.1,3-0.2,4.5l-0.3,4.3h-1.2l0.7-10.1h1.7l1.7,4.9c0.4,1.2,0.8,2.4,1,3.4l0,0
		c0.3-1,0.6-2.1,1.1-3.4l1.8-4.9h1.7l0.6,10.1h-1.3L601,843.8z"/>
</g>
<g>
	<path class="st0" d="M567.3,813.7c0.6-0.1,1.6-0.2,2.5-0.2c1.4,0,2.3,0.2,3,0.8c0.6,0.4,0.9,1.1,0.9,1.9c0,1-0.7,2-1.8,2.4l0,0
		c1,0.3,2.2,1.1,2.2,2.7c0,0.9-0.4,1.6-0.9,2.2c-0.8,0.7-2,1-3.7,1c-1,0-1.7-0.1-2.2-0.1V813.7z M568.7,818.2h1.3
		c1.5,0,2.3-0.8,2.3-1.8c0-1.3-1-1.8-2.4-1.8c-0.6,0-1,0-1.2,0.1L568.7,818.2L568.7,818.2z M568.7,823.3c0.3,0,0.7,0.1,1.2,0.1
		c1.4,0,2.8-0.5,2.8-2.1c0-1.5-1.3-2.1-2.8-2.1h-1.2V823.3z"/>
	<path class="st0" d="M577.4,813.6v10.8H576v-10.8H577.4z"/>
</g>
</svg>
