<svg id="圖層_2" data-name="圖層 2" xmlns="http://www.w3.org/2000/svg" viewBox="0 0 33 33"><defs><style>.cls-1{fill:none;}.cls-2{fill:#fff;}</style></defs><title>icons</title><circle class="cls-1" cx="29.23" cy="27.82" r="0.54"/><circle class="cls-1" cx="29.23" cy="23.51" r="0.54"/><path class="cls-1" d="M26,17.58H15.22a.54.54,0,0,0-.54.54V28.89a.54.54,0,0,0,.54.54H26a.54.54,0,0,0,.54-.54V18.12A.54.54,0,0,0,26,17.58Zm-.53,10.77h-9.7V18.66h9.7Z"/><path class="cls-1" d="M18.45,26.74h4.31a1.08,1.08,0,0,0,1.08-1.08V21.35a1.08,1.08,0,0,0-1.08-1.08H18.45a1.08,1.08,0,0,0-1.08,1.08v4.31A1.08,1.08,0,0,0,18.45,26.74Zm0-5.39h4.31v4.31H18.45Z"/><path class="cls-1" d="M12.52,3.57V6.8H30.84V3.57H12.52ZM29.77,5.72H13.6V4.65H29.77Z"/><path class="cls-1" d="M12.52,7.88v3.23H30.84V7.88H12.52ZM29.77,10H13.6V9H29.77Z"/><rect class="cls-2" x="9.29" y="22.97" width="2.16" height="2.16"/><rect class="cls-2" x="9.29" y="26.2" width="2.16" height="2.16"/><rect class="cls-2" x="9.29" y="19.73" width="2.16" height="2.16"/><rect class="cls-2" x="18.45" y="21.35" width="4.31" height="4.31"/><rect class="cls-2" x="6.06" y="26.2" width="2.16" height="2.16"/><rect class="cls-2" x="6.06" y="4.65" width="4.31" height="2.16"/><rect class="cls-2" x="6.06" y="10.03" width="4.31" height="4.31"/><path class="cls-2" d="M15.76,28.35h9.7V18.66h-9.7Zm1.61-7a1.08,1.08,0,0,1,1.08-1.08h4.31a1.08,1.08,0,0,1,1.08,1.08v4.31a1.08,1.08,0,0,1-1.08,1.08H18.45a1.08,1.08,0,0,1-1.08-1.08Z"/><rect class="cls-2" x="6.06" y="22.97" width="2.16" height="2.16"/><rect class="cls-2" x="6.06" y="19.73" width="2.16" height="2.16"/><circle class="cls-2" cx="29.23" cy="23.51" r="0.54"/><rect class="cls-2" x="13.6" y="4.65" width="16.17" height="1.08"/><rect class="cls-2" x="13.6" y="8.96" width="16.17" height="1.08"/><path class="cls-1" d="M12.52,12.19v3.23H30.84V12.19H12.52Zm17.25,2.15H13.6V13.27H29.77Z"/><polygon class="cls-1" points="12.52 12.19 12.52 15.42 30.84 15.42 30.84 12.19 30.84 12.19 12.52 12.19"/><polygon class="cls-1" points="12.52 7.88 12.52 11.11 30.84 11.11 30.84 7.88 30.84 7.88 12.52 7.88"/><polygon class="cls-1" points="12.52 3.57 12.52 6.8 30.84 6.8 30.84 6.8 30.84 3.57 30.84 3.57 12.52 3.57"/><polygon class="cls-1" points="12.52 12.19 12.52 15.42 30.84 15.42 30.84 12.19 30.84 12.19 12.52 12.19"/><path class="cls-1" d="M28.22,22.2a1,1,0,0,0-.3.3,1.65,1.65,0,0,0,2.31,2.31.89.89,0,0,0,.31-.3A1.66,1.66,0,0,0,28.22,22.2Z"/><polygon class="cls-1" points="12.52 7.88 12.52 11.11 30.84 11.11 30.84 7.88 30.84 7.88 12.52 7.88"/><path class="cls-1" d="M28.22,26.51a1,1,0,0,0-.3.3,1.65,1.65,0,0,0,2.31,2.31.89.89,0,0,0,.31-.3A1.66,1.66,0,0,0,28.22,26.51Z"/><polygon class="cls-1" points="12.52 3.57 12.52 6.8 30.84 6.8 30.84 6.8 30.84 3.57 30.84 3.57 12.52 3.57"/><path class="cls-1" d="M28.22,26.51a1,1,0,0,0-.3.3,1.65,1.65,0,0,0,2.31,2.31.89.89,0,0,0,.31-.3A1.66,1.66,0,0,0,28.22,26.51Z"/><rect class="cls-1" x="14.68" y="17.58" width="11.85" height="11.85"/><polygon class="cls-1" points="12.52 12.19 12.52 15.42 30.84 15.42 30.84 12.19 30.84 12.19 12.52 12.19"/><path class="cls-1" d="M28.22,22.2a1,1,0,0,0-.3.3,1.65,1.65,0,0,0,2.31,2.31.89.89,0,0,0,.31-.3A1.66,1.66,0,0,0,28.22,22.2Z"/><polygon class="cls-1" points="12.52 7.88 12.52 11.11 30.84 11.11 30.84 7.88 30.84 7.88 12.52 7.88"/><polygon class="cls-1" points="12.52 3.57 12.52 6.8 30.84 6.8 30.84 6.8 30.84 3.57 30.84 3.57 12.52 3.57"/><polygon class="cls-1" points="12.52 12.19 12.52 15.42 30.84 15.42 30.84 12.19 30.84 12.19 12.52 12.19"/><path class="cls-1" d="M28.22,26.51a1,1,0,0,0-.3.3,1.65,1.65,0,0,0,2.31,2.31.89.89,0,0,0,.31-.3A1.66,1.66,0,0,0,28.22,26.51Z"/><rect class="cls-1" x="4.98" y="3.57" width="6.47" height="4.31"/><rect class="cls-1" x="14.68" y="17.58" width="11.85" height="11.85"/><path class="cls-1" d="M28.22,22.2a1,1,0,0,0-.3.3,1.65,1.65,0,0,0,2.31,2.31.89.89,0,0,0,.31-.3A1.66,1.66,0,0,0,28.22,22.2Z"/><rect class="cls-1" x="4.98" y="8.96" width="6.47" height="6.47"/><polygon class="cls-1" points="12.52 7.88 12.52 11.11 30.84 11.11 30.84 7.88 30.84 7.88 12.52 7.88"/><polygon class="cls-1" points="12.52 3.57 12.52 6.8 30.84 6.8 30.84 6.8 30.84 3.57 30.84 3.57 12.52 3.57"/><path class="cls-2" d="M2.82,1.41V31.59H33V1.41ZM5,3.57h6.47V7.88H5ZM5,9h6.47v6.46H5Zm7.54,20.47H5V18.66h7.54Zm14,0H14.68V17.58H26.53Zm4-.61a.89.89,0,0,1-.31.3,1.65,1.65,0,0,1-2.31-2.31,1,1,0,0,1,.3-.3A1.66,1.66,0,0,1,30.54,28.82Zm0-4.31a.89.89,0,0,1-.31.3,1.65,1.65,0,0,1-2.31-2.31,1,1,0,0,1,.3-.3A1.66,1.66,0,0,1,30.54,24.51Zm.3-9.09H12.52V12.19H30.84Zm0-4.31H12.52V7.88H30.84Zm0-4.31H12.52V3.57H30.84Z"/><rect class="cls-2" x="13.6" y="13.27" width="16.17" height="1.08"/><circle class="cls-2" cx="29.23" cy="27.82" r="0.54"/><path class="cls-2" d="M0,5.49h2.3a0,0,0,0,0,0,0V2.54a0,0,0,0,0,0,0H0a0,0,0,0,0,0,0v2.9A0,0,0,0,0,0,5.49Z"/><path class="cls-2" d="M0,7.3h2.3a0,0,0,0,0,0,0V6.1a0,0,0,0,0,0,0H0a0,0,0,0,0,0,0V7.25A0,0,0,0,0,0,7.3Z"/><path class="cls-2" d="M0,10.86h2.3a0,0,0,0,0,0,0V7.91a0,0,0,0,0,0,0H0a0,0,0,0,0,0,0v2.9A0,0,0,0,0,0,10.86Z"/></svg>