<?xml version="1.0" encoding="utf-8"?>
<!-- Generator: Adobe Illustrator 23.0.6, SVG Export Plug-In . SVG Version: 6.00 Build 0)  -->
<svg version="1.1" id="圖層_1" xmlns="http://www.w3.org/2000/svg" xmlns:xlink="http://www.w3.org/1999/xlink" x="0px" y="0px"
	 viewBox="0 0 24 24" style="enable-background:new 0 0 24 24;" xml:space="preserve">
<style type="text/css">
	.st0{fill:url(#Ellipse_8_1_);}
	.st1{fill:url(#Ellipse_9_1_);}
	.st2{fill:url(#Path_1044_1_);}
</style>
<g>
	
		<linearGradient id="Ellipse_8_1_" gradientUnits="userSpaceOnUse" x1="99.1667" y1="-104.6667" x2="99.1667" y2="-105.6667" gradientTransform="matrix(3 0 0 -3 -282 -306)">
		<stop  offset="0" style="stop-color:#F7C598"/>
		<stop  offset="1" style="stop-color:#FF8886"/>
	</linearGradient>
	<circle id="Ellipse_8" class="st0" cx="15.5" cy="9.5" r="1.5"/>
	
		<linearGradient id="Ellipse_9_1_" gradientUnits="userSpaceOnUse" x1="99.1667" y1="-104.6667" x2="99.1667" y2="-105.6667" gradientTransform="matrix(3 0 0 -3 -289 -306)">
		<stop  offset="0" style="stop-color:#F7C598"/>
		<stop  offset="1" style="stop-color:#FF8886"/>
	</linearGradient>
	<circle id="Ellipse_9" class="st1" cx="8.5" cy="9.5" r="1.5"/>
	
		<linearGradient id="Path_1044_1_" gradientUnits="userSpaceOnUse" x1="15.3" y1="4.7" x2="15.3" y2="3.7" gradientTransform="matrix(20 0 0 -20 -294 96)">
		<stop  offset="0" style="stop-color:#F7C598"/>
		<stop  offset="1" style="stop-color:#FF8886"/>
	</linearGradient>
	<path id="Path_1044" class="st2" d="M12,2C6.5,2,2,6.5,2,12s4.5,10,10,10c5.5,0,10-4.5,10-10C22,6.5,17.5,2,12,2C12,2,12,2,12,2z
		 M12,20c-4.4,0-8-3.6-8-8s3.6-8,8-8s8,3.6,8,8S16.4,20,12,20z M12,16c-1.4,0-2.7-0.8-3.4-2H6.9c1.1,2.8,4.3,4.2,7.1,3.1
		c1.4-0.6,2.6-1.7,3.1-3.1h-1.7C14.7,15.2,13.4,16,12,16z"/>
</g>
</svg>
