<?xml version="1.0" encoding="utf-8"?>
<!-- Generator: Adobe Illustrator 23.0.6, SVG Export Plug-In . SVG Version: 6.00 Build 0)  -->
<svg version="1.1" id="圖層_1" xmlns="http://www.w3.org/2000/svg" xmlns:xlink="http://www.w3.org/1999/xlink" x="0px" y="0px"
	 viewBox="0 0 24 24" style="enable-background:new 0 0 24 24;" xml:space="preserve">
<style type="text/css">
	.st0{fill:#FFFFFF;}
</style>
<g id="Group_14" transform="translate(0 -4.393)">
	<path id="Path_999" class="st0" d="M3.3,25.2v-20H0.8v22.5h22.5v-2.5H3.3z"/>
	<path id="Path_1000" class="st0" d="M6.8,20.2l3.6-6c0.5,0.1,1,0,1.5-0.2l3.8,3.2c-0.4,1.2,0.3,2.6,1.5,3c1.2,0.4,2.6-0.3,3-1.5
		c0.2-0.7,0.1-1.6-0.4-2.2l3.9-6.6l-1.5-0.9l-3.9,6.7c-0.5-0.1-1.1,0-1.5,0.3L13,12.6c0.4-1.2-0.3-2.6-1.5-3s-2.6,0.3-3,1.5
		c-0.2,0.7-0.1,1.6,0.4,2.2l-3.6,6L6.8,20.2z"/>
</g>
</svg>
