<?xml version="1.0" encoding="utf-8"?>
<!-- Generator: Adobe Illustrator 23.0.6, SVG Export Plug-In . SVG Version: 6.00 Build 0)  -->
<svg version="1.1" id="圖層_1" xmlns="http://www.w3.org/2000/svg" xmlns:xlink="http://www.w3.org/1999/xlink" x="0px" y="0px"
	 viewBox="0 0 24 24" style="enable-background:new 0 0 24 24;" xml:space="preserve">
<style type="text/css">
	.st0{fill:#ADADAD;}
</style>
<g id="Group_37" transform="translate(-263 -536)">
	<circle id="Ellipse_10" class="st0" cx="278.7" cy="545.4" r="1.5"/>
	<circle id="Ellipse_11" class="st0" cx="271.3" cy="545.4" r="1.5"/>
	<path id="Path_1046" class="st0" d="M275,550c-2.3,0-4.3,1.4-5.1,3.5h1.7c1.1-1.9,3.5-2.6,5.4-1.5c0.6,0.4,1.1,0.9,1.5,1.5h1.7
		C279.3,551.4,277.3,550,275,550z M275,538c-5.5,0-10,4.5-10,10s4.5,10,10,10c5.5,0,10-4.5,10-10C285,542.5,280.5,538,275,538
		C275,538,275,538,275,538z M275,556c-4.4,0-8-3.6-8-8s3.6-8,8-8s8,3.6,8,8S279.4,556,275,556z"/>
</g>
</svg>
