<svg id="圖層_2" data-name="圖層 2" xmlns="http://www.w3.org/2000/svg" viewBox="0 0 33 33"><defs><style>.cls-1{fill:#fff;fill-rule:evenodd;}</style></defs><title>icons</title><path class="cls-1" d="M20.47,12.46H3.85v8.17H24.12V16.07l.63-.62v-.94H20.46v-2ZM31,18.82h1.81V11.67h-4.7V9.83H.22v5.42a1.25,1.25,0,0,1,0,2.5v5.42H24.36l.18-.68h2.89l.18.68h.85l.18-.68h4.14V19.73H31a.46.46,0,0,1-.48-.44A.48.48,0,0,1,31,18.82Zm-.24-6.67h1.61v.4H30.73Zm0,1h1.61v.4H30.73Zm0,1h1.61v.4H30.73Zm0,1h1.61v.4H30.73Zm0,1h1.61v.4H30.73Zm0,1h1.61v.4H30.73Zm0,1h1.61v.4H30.73Zm-7.58-7.61h1.9v1.23h-1.9Zm0,1.63h1.9v.46h-1.9Zm2.35,3.8-.63.62v5H3.1V11.71H21.21v2H25.5Zm1.36-3.38H25.48V10.33h1.38Zm3.87,8h1.61v.4H30.73Zm0,1h1.61v.4H30.73Z"/></svg>