<svg id="圖層_2" data-name="圖層 2" xmlns="http://www.w3.org/2000/svg" viewBox="0 0 33 33"><defs><style>.cls-1{fill:#fff;}</style></defs><title>icons</title><path class="cls-1" d="M33,15h0v-2.3H0V15a.89.89,0,0,1,.69,1,.89.89,0,0,1-.69,1v.3a.89.89,0,0,1,.69,1,.87.87,0,0,1-.69.95v1.14H16.87V19.18h1.48v1.11H33V19.16h0c-.39,0-.71-.43-.71-.95s.32-1,.71-1h0V17h0c-.39,0-.71-.43-.71-1S32.6,15,33,15ZM11.58,13.69h2.06v3.36H11.58Zm-3.09,0h2.06v3.36H8.49Zm-3.09,0H7.46v3.36H5.4Zm-3.1,0H4.36v3.36H2.3Zm14.2,6.19H.67v-.72H16.5ZM28,13.69h2.06v3.36H28Zm-3.09,0H27v3.36H24.92Zm-3.09,0h2.06v3.36H21.83Zm-3.1,0h2.06v3.36H18.73Zm13.53,6.19H18.73v-.72H32.26Z"/></svg>