<svg id="圖層_2" data-name="圖層 2" xmlns="http://www.w3.org/2000/svg" viewBox="0 0 33 33"><defs><style>.cls-1{fill:#fff;}</style></defs><title>icons</title><path class="cls-1" d="M27.72,7.29h-25V5H0V6H1.71v1.8h0v16.9h0V28h1V25.24H13.87V28H31.13V25.24H33V12.58Zm-3,11.21a1.9,1.9,0,0,1-.24-.47l.27-.08a3.22,3.22,0,0,0,1.16.46,5.23,5.23,0,0,1,1.86,2,5.51,5.51,0,0,1-3,1.38C25,20.76,25.21,19.18,24.76,18.5Zm1.39-1.11a2.18,2.18,0,0,1-.51-.17,1.59,1.59,0,0,0,.14-.26,3,3,0,0,0,1.14-.48,5.32,5.32,0,0,1,2.73.08,5.49,5.49,0,0,1-1.11,3C28,18.73,27,17.54,26.15,17.39Zm2.18-4.72a5.45,5.45,0,0,1,1.27,2.81c-1-.21-2.57-.33-3.26.14a2.39,2.39,0,0,1-.48.24,1.29,1.29,0,0,0-.08-.28,3.14,3.14,0,0,0,.47-1.16C26.32,14,27.48,13.16,28.33,12.67Zm-3.86-1.94a5.49,5.49,0,0,1,3.08,1.19c-.9.55-2.17,1.51-2.33,2.31a2.1,2.1,0,0,1-.16.5,1.26,1.26,0,0,0-.26-.13,3,3,0,0,0-.48-1.15A5.86,5.86,0,0,1,24.47,10.73ZM23.7,21.81a5.6,5.6,0,0,1-3-1.16c.92-.6,2.15-1.59,2.3-2.34a2.19,2.19,0,0,1,.16-.51,1.3,1.3,0,0,0,.26.14,3,3,0,0,0,.48,1.14A5.63,5.63,0,0,1,23.7,21.81Zm-3.79-1.9A5.58,5.58,0,0,1,18.59,17a13.9,13.9,0,0,0,2,.3,2.28,2.28,0,0,0,1.3-.34,2.33,2.33,0,0,1,.47-.24,1.31,1.31,0,0,0,.09.28A3.16,3.16,0,0,0,22,18.11C21.89,18.48,20.77,19.38,19.91,19.91Zm3.49-9.15c-.23,1.06-.39,2.63.05,3.28a1.61,1.61,0,0,1,.24.47l-.28.08a2.93,2.93,0,0,0-1.15-.46,5.93,5.93,0,0,1-1.8-2.05A5.55,5.55,0,0,1,23.4,10.76Zm-3.68,2.11c.59.9,1.57,2.13,2.35,2.28a2.68,2.68,0,0,1,.5.16c-.05.09-.1.17-.14.26a3.14,3.14,0,0,0-1.14.48,6.49,6.49,0,0,1-2.72-.15A5.44,5.44,0,0,1,19.72,12.87Zm-3.57,2.74c-1-.21-2.57-.33-3.26.14a2.68,2.68,0,0,1-.48.24,1.29,1.29,0,0,0-.08-.28,3,3,0,0,0,.46-1.15c.08-.39,1.24-1.27,2.09-1.76A5.45,5.45,0,0,1,16.15,15.61Zm0,1.08a5.41,5.41,0,0,1-1.1,3c-.55-.87-1.57-2.06-2.4-2.21a2.09,2.09,0,0,1-.5-.17,1.05,1.05,0,0,0,.13-.26,2.81,2.81,0,0,0,1.15-.48A5.28,5.28,0,0,1,16.19,16.69ZM10,10.89c-.23,1.06-.39,2.63.05,3.28a1.9,1.9,0,0,1,.24.47l-.28.08a3,3,0,0,0-1.15-.46,5.93,5.93,0,0,1-1.8-2A5.55,5.55,0,0,1,10,10.89ZM6.26,13c.59.9,1.58,2.13,2.36,2.28a2.68,2.68,0,0,1,.5.16A1.65,1.65,0,0,0,9,15.7a3.14,3.14,0,0,0-1.14.48A6.48,6.48,0,0,1,5.12,16,5.51,5.51,0,0,1,6.26,13ZM5.14,17.09a13.9,13.9,0,0,0,2,.3,2.28,2.28,0,0,0,1.3-.34,2.09,2.09,0,0,1,.47-.24,1.31,1.31,0,0,0,.09.28,3,3,0,0,0-.47,1.15c-.07.37-1.19,1.27-2,1.8A5.58,5.58,0,0,1,5.14,17.09Zm5.11,4.85a5.6,5.6,0,0,1-3-1.16c.92-.6,2.15-1.59,2.29-2.34a2.18,2.18,0,0,1,.17-.51,1.3,1.3,0,0,0,.26.14,3,3,0,0,0,.48,1.14A5.63,5.63,0,0,1,10.25,21.94ZM11,10.86a5.57,5.57,0,0,1,3.08,1.19c-.9.55-2.17,1.51-2.33,2.31a2.45,2.45,0,0,1-.16.5,1.58,1.58,0,0,0-.26-.13,3.18,3.18,0,0,0-.48-1.15A5.86,5.86,0,0,1,11,10.86Zm.31,11.05c.24-1,.43-2.6,0-3.28a1.9,1.9,0,0,1-.24-.47l.27-.08a3.15,3.15,0,0,0,1.16.46,5.23,5.23,0,0,1,1.86,2A5.51,5.51,0,0,1,11.33,21.91Zm18.75,5h-.73V26H28.3v1H26.82V26H25.77v1H24.29V26H23.24v1H21.76V26H20.71v1H19.22V26h-1v1H16.69V26h-1v1h-.74V25.24H30.08Z"/></svg>