<?xml version="1.0" encoding="utf-8"?>
<!-- Generator: Adobe Illustrator 23.0.6, SVG Export Plug-In . SVG Version: 6.00 Build 0)  -->
<svg version="1.1" id="圖層_1" xmlns="http://www.w3.org/2000/svg" xmlns:xlink="http://www.w3.org/1999/xlink" x="0px" y="0px"
	 viewBox="0 0 24 24" style="enable-background:new 0 0 24 24;" xml:space="preserve">
<style type="text/css">
	.st0{fill:#FFFFFF;}
</style>
<g>
	<path id="Path_992" class="st0" d="M11.2,17.8c0.9,0,1.7,0.7,1.8,1.7c0,1-0.8,1.8-1.8,1.8c-1,0-1.8-0.8-1.8-1.8
		C9.5,18.5,10.3,17.8,11.2,17.8z"/>
	<path id="Path_993" class="st0" d="M19.7,17.8c0.9,0,1.6,0.8,1.7,1.7c0,0.9-0.7,1.7-1.7,1.8c-1,0-1.7-0.8-1.8-1.7c0,0,0,0,0,0
		C18,18.5,18.8,17.8,19.7,17.8z"/>
	<path id="Path_994" class="st0" d="M1.3,4.5c-0.5,0-0.8-0.4-0.8-0.9c0-0.4,0.4-0.8,0.8-0.8h3.8l1.4,3.5h17l-2.3,8.2H9.6l0.4,1h10.8
		c0.5,0,0.8,0.4,0.8,0.9c0,0.4-0.4,0.8-0.8,0.8H8.9L4,4.5H1.3z"/>
</g>
</svg>
