<?xml version="1.0" encoding="utf-8"?>
<!-- Generator: Adobe Illustrator 23.0.6, SVG Export Plug-In . SVG Version: 6.00 Build 0)  -->
<svg version="1.1" id="圖層_1" xmlns="http://www.w3.org/2000/svg" xmlns:xlink="http://www.w3.org/1999/xlink" x="0px" y="0px"
	 viewBox="0 0 24 24" style="enable-background:new 0 0 24 24;" xml:space="preserve">
<style type="text/css">
	.st0{fill:#FFFFFF;}
</style>
<path id="Path_14" class="st0" d="M22.6,20.6c-0.6-1.4-3.7-2.3-5.7-3.1s-1.8-1.4-1.8-2.1c0-0.1,0-0.2,0-0.4c0.6-0.7,1.1-1.4,1.4-2.3
	l0-0.1c0.1-0.2,0.1-0.4,0.2-0.6c0.5-0.1,0.8-0.5,0.8-1c0.2-0.3,0.3-0.7,0.3-1.1c0-0.4-0.2-0.7-0.5-1c0-0.2,0-0.4,0.1-0.6
	c0-0.9,0.4-3.6-0.6-4.6c-0.5-0.6-1.1-1.1-1.8-1.5L15.1,2l-0.8,0l-0.1,0l0.1-0.4l-0.7,0.2l0.2-0.5l-1.1,0.4c-0.1,0-0.2,0-0.4,0
	c-1.4,0-2.8,0.4-3.8,1.3C8.3,3.2,7.7,3.4,7.7,3.4l0.2,0.3l0,0.1L7.1,4.1l0.4,0.3l0,0.1L6.8,4.9l0.5-0.1C7,6.1,6.8,7.4,6.8,8.7
	c0,0,0,0.1,0,0.2C6.4,9.1,6.2,9.5,6.2,10c0,0.4,0.1,0.8,0.3,1.1c0.1,0.5,0.4,0.9,0.9,1c0.1,0.2,0.1,0.4,0.2,0.6l0,0l0,0
	c0.3,0.9,0.8,1.7,1.5,2.3c0,0.1,0,0.2,0,0.3c-0.1,0.7,0.1,1.2-1.9,2.1c-2,0.8-5.1,1.7-5.7,3.1C1,21.2,0.9,22,1,22.7H23
	C23.1,22,22.9,21.2,22.6,20.6z"/>
</svg>
