<svg id="圖層_2" data-name="圖層 2" xmlns="http://www.w3.org/2000/svg" viewBox="0 0 33 33"><defs><style>.cls-1{fill:#fff;}</style></defs><title>icons</title><rect class="cls-1" x="7.57" y="7.31" width="17.86" height="10.34"/><path class="cls-1" d="M33,28.42l-4-8V4H4V20.44l-4,8a.37.37,0,0,0,0,.37A.38.38,0,0,0,.38,29H32.62a.4.4,0,0,0,.33-.18A.37.37,0,0,0,33,28.42ZM15.5,5.05h2a.38.38,0,1,1,0,.76h-2a.39.39,0,0,1-.39-.39A.37.37,0,0,1,15.5,5.05ZM6,6.05H27V18.9H6Zm12,21.8H14.93v-1h3.14ZM27,25H6V24H27Zm0-2.11H6v-1H27Z"/></svg>