<svg id="圖層_2" data-name="圖層 2" xmlns="http://www.w3.org/2000/svg" viewBox="0 0 33 33"><defs><style>.cls-1{fill:#fff;}</style></defs><title>icons</title><path class="cls-1" d="M22.87,20.75A7.56,7.56,0,0,0,24,18.08a10.26,10.26,0,0,0,5.74-1.72,13.2,13.2,0,0,0-3-8.29,13.1,13.1,0,0,1-3.35,5,7.63,7.63,0,0,0-1.75-2.31A10.31,10.31,0,0,0,23,5a13.13,13.13,0,0,0-6.5-1.71,14.27,14.27,0,0,0-2.19.18A13.26,13.26,0,0,1,17,8.85h-.5a7.8,7.8,0,0,0-2.38.37A10.33,10.33,0,0,0,9.76,5.1a13.22,13.22,0,0,0-5.67,6.76,13.28,13.28,0,0,1,6,.39A7.56,7.56,0,0,0,9,14.92a10.26,10.26,0,0,0-5.74,1.72,13.22,13.22,0,0,0,3,8.29,13.1,13.1,0,0,1,3.35-5,7.63,7.63,0,0,0,1.75,2.31A10.31,10.31,0,0,0,10,28a13.09,13.09,0,0,0,8.69,1.52A13.15,13.15,0,0,1,16,24.15h.5a7.51,7.51,0,0,0,2.38-.38,10.28,10.28,0,0,0,4.36,4.12,13.22,13.22,0,0,0,5.67-6.76A13.28,13.28,0,0,1,22.87,20.75ZM16.5,22.34a5.84,5.84,0,1,1,5.84-5.84A5.84,5.84,0,0,1,16.5,22.34Z"/><circle class="cls-1" cx="16.5" cy="16.5" r="4.56"/><path class="cls-1" d="M30.94,0H2.06A2.07,2.07,0,0,0,0,2.06V30.94A2.07,2.07,0,0,0,2.06,33H30.94A2.07,2.07,0,0,0,33,30.94V2.06A2.07,2.07,0,0,0,30.94,0Zm-28,1.31A1.55,1.55,0,1,1,1.37,2.85,1.54,1.54,0,0,1,2.92,1.31Zm0,30.16a1.55,1.55,0,1,1,1.54-1.55A1.54,1.54,0,0,1,2.92,31.47Zm13.58-.35A14.62,14.62,0,1,1,31.12,16.5,14.63,14.63,0,0,1,16.5,31.12ZM30,31.47a1.55,1.55,0,1,1,1.54-1.55A1.54,1.54,0,0,1,30,31.47ZM30,4.4a1.55,1.55,0,1,1,1.54-1.55A1.54,1.54,0,0,1,30,4.4Z"/></svg>