<?xml version="1.0" encoding="utf-8"?>
<!-- Generator: Adobe Illustrator 23.0.6, SVG Export Plug-In . SVG Version: 6.00 Build 0)  -->
<svg version="1.1" id="圖層_4" xmlns="http://www.w3.org/2000/svg" xmlns:xlink="http://www.w3.org/1999/xlink" x="0px" y="0px"
	 viewBox="0 0 375 159" style="enable-background:new 0 0 375 159;" xml:space="preserve">
<style type="text/css">
	.st0{opacity:0.1;fill:#FFFFFF;enable-background:new    ;}
	.st1{opacity:0.5;fill:#FFFFFF;enable-background:new    ;}
	.st2{fill:#0090D0;}
	.st3{fill:#963ED6;}
	.st4{fill:#24AD6E;}
	.st5{fill:#FF6400;}
	.st6{fill:#FFFFFF;}
	.st7{opacity:5.000000e-02;}
	.st8{fill:none;}
</style>
<rect x="93.7" y="17.6" class="st0" width="232.6" height="15.3"/>
<path class="st0" d="M326,105.1c0.1,0,0.1,0,0.2,0V89.8c-0.1,0-0.1,0-0.2,0H93.7v15.3H326z"/>
<path class="st0" d="M326,69c0.1,0,0.1,0,0.2,0V53.7c-0.1,0-0.1,0-0.2,0H93.7V69H326z"/>
<path class="st0" d="M326,141.2c0.1,0,0.1,0,0.2,0v-15.3c-0.1,0-0.1,0-0.2,0H93.7v15.3H326z"/>
<rect x="93.7" y="17.6" class="st1" width="202" height="15.3"/>
<rect x="93.7" y="89.8" class="st1" width="148.4" height="15.3"/>
<rect x="93.7" y="53.7" class="st1" width="188.9" height="15.3"/>
<rect x="93.7" y="125.9" class="st1" width="155.4" height="15.3"/>
<polygon class="st2" points="284.5,20.1 93.7,20.1 93.7,30.3 284.4,30.3 "/>
<rect x="93.7" y="92.4" class="st3" width="152.5" height="10.2"/>
<rect x="93.7" y="56.2" class="st4" width="155.4" height="10.2"/>
<rect x="93.7" y="128.5" class="st5" width="146.8" height="10.2"/>
<rect x="291.4" y="17" class="st5" width="1" height="16.4"/>
<path class="st6" d="M63.8,30.4V20.1h6.3v1H65v3.6h4.3v1H65v3.8h5.2v1L63.8,30.4L63.8,30.4z"/>
<path class="st6" d="M73.2,27.3c0,1.5,0.8,2.2,2.4,2.2c0.8,0,1.5-0.2,1.9-0.5c0.4-0.4,0.6-0.9,0.6-1.7V20h1.1v7.2
	c0,1.2-0.3,2-0.9,2.5s-1.5,0.8-2.7,0.8s-2.1-0.3-2.7-0.8S72,28.3,72,27.2V20h1.2V27.3z"/>
<rect x="238.3" y="89.3" class="st5" width="1" height="16.4"/>
<path class="st6" d="M46.6,102.5V92.4h2.2l4,9.2H53v-9.2h1.1v10.2H52l-4-9.2h-0.3v9.2L46.6,102.5L46.6,102.5z"/>
<path class="st6" d="M55.8,102.5l2.9-10.2h2.5l2.8,10.2h-1.1l-0.8-2.6h-4.4l-0.8,2.6H55.8z M59.5,93.3L58,98.9h3.9l-1.6-5.6H59.5z"
	/>
<path class="st6" d="M71.4,102.5h-5.7V92.4h1.2v9.1h4.6L71.4,102.5L71.4,102.5z"/>
<path class="st6" d="M71.9,102.5l2.9-10.2h2.5l2.9,10.2H79l-0.8-2.6h-4.4l-0.8,2.6H71.9z M75.7,93.3l-1.6,5.6H78l-1.6-5.6H75.7z"/>
<rect x="276.2" y="53.1" class="st5" width="1" height="16.4"/>
<path class="st6" d="M64.6,57.1v7h-1.1v-0.9h-4.3v4.9H58v-4.9h-4.3v0.9h-1.1V57H58v-2.7h1.2V57L64.6,57.1L64.6,57.1z M58,62.2v-4
	h-4.3v4H58z M63.5,62.2v-4h-4.3v4H63.5z"/>
<path class="st6" d="M73.4,64.7c0,0,0,0.3,0,0.4c-0.2,1.6-0.3,2.3-0.6,2.6C72.6,67.9,72.3,68,72,68s-0.9,0-1.6,0
	c0-0.3-0.1-0.6-0.2-0.8c0.6,0.1,1.2,0.1,1.4,0.1c0.2,0,0.3,0,0.4-0.1c0.2-0.2,0.3-0.6,0.4-1.6h-2c-0.4,1.2-1.3,2.1-3,2.7
	c-0.1-0.2-0.3-0.6-0.5-0.8c1.4-0.4,2.1-1,2.5-1.9h-2v-0.8h2.2c0.1-0.3,0.1-0.6,0.1-1h1c0,0.4-0.1,0.7-0.1,1L73.4,64.7L73.4,64.7z
	 M80.2,55.5v0.9h-6v0.9h5v0.8h-11v-0.8h4.9v-0.9h-5.9v-0.9h5.9v-1h1.1v1H80.2z M76.9,61.9c-0.2,0.3-0.4,0.7-0.6,0.9h3.8v0.9h-13
	v-0.9H71c-0.1-0.3-0.4-0.7-0.6-1l0.7-0.1h-2.4V59h9.9v2.7H76L76.9,61.9z M69.7,60.9h7.8v-1.2h-7.8V60.9z M71.5,61.7
	c0.3,0.3,0.5,0.7,0.6,1l-0.5,0.1h3.5c0.2-0.4,0.5-0.8,0.6-1.1H71.5z M74.3,64.4h5.1v3.7h-1v-0.4h-3.1v0.5h-1V64.4z M75.3,65.2v1.6
	h3.1v-1.6H75.3z"/>
<rect x="243.2" y="125.4" class="st5" width="1" height="16.4"/>
<path class="st6" d="M46.7,138.7l2.9-10.4h2.5l2.9,10.4h-1.1l-0.8-2.7h-4.4l-0.8,2.7H46.7z M50.4,129.3l-1.6,5.7h3.9l-1.6-5.7H50.4z
	"/>
<path class="st6" d="M60.4,135.2h-2.6v3.5h-1.2v-10.4h3.8c1.1,0,2,0.3,2.5,0.8s0.8,1.4,0.8,2.5C63.7,134.1,62.6,135.2,60.4,135.2z
	 M57.7,134.2h2.6c1.4,0,2.1-0.8,2.1-2.5c0-0.8-0.2-1.4-0.5-1.8s-0.9-0.6-1.6-0.6h-2.6V134.2z"/>
<path class="st6" d="M65.4,138.7v-10.4h6.3v1h-5.2v3.6h4.3v1h-4.3v3.8h5.2v1H65.4z"/>
<path class="st6" d="M79.9,138.6c-1,0.2-2,0.3-2.8,0.3s-1.5-0.1-2-0.3s-0.9-0.6-1.2-1s-0.5-1-0.6-1.6s-0.2-1.4-0.2-2.3
	s0.1-1.7,0.2-2.3s0.3-1.2,0.6-1.7c0.3-0.5,0.7-0.8,1.2-1s1.1-0.3,2-0.3c0.8,0,1.7,0.1,2.8,0.3v1c-1-0.2-1.9-0.3-2.7-0.3
	c-1.1,0-1.8,0.3-2.2,1c-0.4,0.7-0.5,1.8-0.5,3.4c0,0.8,0,1.4,0.1,1.9s0.2,0.9,0.4,1.3c0.2,0.4,0.5,0.7,0.8,0.8
	c0.4,0.2,0.9,0.2,1.6,0.2s1.5-0.1,2.5-0.3L79.9,138.6z"/>
<g id="Group_16_1_" transform="translate(87 320.379)" class="st7">
	<g id="Group_15_1_">
		<line id="Line_3_1_" class="st8" x1="0.5" y1="-203.3" x2="241.4" y2="-203.3"/>
		<line id="Line_4_1_" class="st8" x1="0.5" y1="-239.1" x2="241.4" y2="-239.1"/>
		<line id="Line_5_1_" class="st8" x1="0.5" y1="-274.9" x2="241.4" y2="-274.9"/>
		<line id="Line_6_1_" class="st8" x1="0.5" y1="-310.8" x2="241.4" y2="-310.8"/>
	</g>
	<path id="Path_1001_1_" class="st8" d="M0.5-310.8V-171h240.9"/>
</g>
</svg>
