<?xml version="1.0" encoding="utf-8"?>
<!-- Generator: Adobe Illustrator 23.0.6, SVG Export Plug-In . SVG Version: 6.00 Build 0)  -->
<svg version="1.1" id="圖層_5" xmlns="http://www.w3.org/2000/svg" xmlns:xlink="http://www.w3.org/1999/xlink" x="0px" y="0px"
	 viewBox="0 0 375 159.5" style="enable-background:new 0 0 375 159.5;" xml:space="preserve">
<style type="text/css">
	.st0{fill:#24AD6E;}
	.st1{fill:#FE8C38;}
	.st2{enable-background:new    ;}
	.st3{fill:#FFFFFF;}
</style>
<g id="Group_83" transform="translate(-84 -103)">
	<rect id="Rectangle_80" x="188" y="118.1" class="st0" width="25" height="7"/>
	<rect id="Rectangle_81" x="282" y="118.1" class="st1" width="25" height="7"/>
	<g class="st2">
		<path class="st3" d="M220.9,117.2c-0.3,0.8-0.7,1.6-1.1,2.3v7.4h-1V121c-0.3,0.4-0.6,0.8-1,1.1c-0.1-0.2-0.4-0.8-0.6-1
			c1.1-1,2.1-2.6,2.7-4.2L220.9,117.2z M222.9,123.7c-0.5,0.9-1.2,2-1.8,2.7c-0.2-0.2-0.6-0.5-0.8-0.6c0.6-0.6,1.2-1.6,1.7-2.4
			L222.9,123.7z M224.5,123v3.9h-1V123h-3v-0.9h3v-1.2h-2.3v-3.6h5.7v3.6h-2.4v1.2h3v0.9H224.5z M222.2,120h3.7v-1.8h-3.7V120z
			 M225.8,123.4c0.7,0.8,1.4,1.7,1.8,2.4l-0.8,0.5c-0.3-0.7-1.1-1.7-1.7-2.5L225.8,123.4z"/>
		<path class="st3" d="M231.9,117.6c-0.3,0.9-0.6,2-0.9,2.9c0.7,0.9,0.8,1.7,0.8,2.3c0,0.6-0.1,1.1-0.4,1.4
			c-0.2,0.1-0.3,0.2-0.6,0.2c-0.2,0-0.4,0-0.7,0c0-0.2-0.1-0.6-0.2-0.9c0.2,0,0.4,0,0.5,0s0.2,0,0.3-0.1s0.2-0.4,0.2-0.7
			c0-0.5-0.1-1.3-0.8-2.1c0.2-0.7,0.5-1.6,0.7-2.4h-1.1v8.7h-0.9v-9.6h2.3h0.1L231.9,117.6z M233.9,123.8c-0.1,0.3-0.2,0.5-0.3,0.7
			c0.4,0.3,0.9,0.6,1.1,0.9l-0.5,0.7c-0.2-0.2-0.6-0.6-1-0.9c-0.4,0.7-1,1.3-1.6,1.7c-0.1-0.2-0.5-0.5-0.7-0.7c1-0.6,1.7-1.5,2-2.6
			L233.9,123.8z M233.3,119.4c-0.4,0.3-0.7,0.5-1.1,0.7c-0.1-0.2-0.5-0.5-0.7-0.7c1.3-0.7,2.5-1.7,3.1-2.8l1,0.3
			c-0.1,0.1-0.2,0.2-0.2,0.4c0.8,0.7,2.1,1.4,3.2,1.8c-0.2,0.2-0.4,0.7-0.4,1c-0.5-0.2-1-0.5-1.6-0.8v0.8h-3.2v-0.7
			C233.4,119.4,233.3,119.4,233.3,119.4z M232.1,120.8h2.5v2.7h-2.5V120.8z M232.9,122.7h1v-1.3h-1V122.7z M236.5,119.3
			c-0.6-0.4-1.2-0.8-1.6-1.2c-0.4,0.4-0.8,0.8-1.3,1.2H236.5z M237,123.8c-0.1,0.3-0.2,0.6-0.3,0.9c0.7,0.4,1.4,1,1.8,1.4l-0.6,0.7
			c-0.4-0.4-1-0.9-1.6-1.3c-0.3,0.6-0.8,1.1-1.3,1.5c-0.1-0.2-0.5-0.5-0.7-0.7c0.9-0.5,1.4-1.5,1.7-2.6L237,123.8z M235.2,120.8h2.6
			v2.7h-2.6V120.8z M236,122.7h1v-1.3h-1V122.7z"/>
		<path class="st3" d="M243.9,123.6v3.3H243v-0.3h-1.7v0.3h-0.9v-3.2c-0.2,0.1-0.3,0.1-0.5,0.2c-0.1-0.2-0.3-0.6-0.5-0.8
			c0.7-0.2,1.4-0.6,2-1c-0.3-0.2-0.5-0.3-0.7-0.4l0.6-0.6c0.3,0.1,0.5,0.3,0.8,0.5c0.3-0.3,0.5-0.6,0.7-1h-1.5
			c-0.3,0.5-0.7,0.9-1.2,1.3c-0.1-0.2-0.4-0.5-0.5-0.7c0.8-0.6,1.4-1.4,1.6-2.1l0.8,0.2c-0.1,0.2-0.2,0.4-0.2,0.6h1.5h0.1l0.5,0.4
			c-0.3,0.7-0.7,1.3-1.1,1.9c0.6,0.4,1.2,0.7,1.6,1L243.9,123.6z M240.4,119.8h-0.8v-1.9h2c-0.1-0.3-0.2-0.5-0.3-0.8l0.8-0.3
			c0.2,0.3,0.3,0.7,0.5,1h1.8v1.9h-0.8v-1.1h-3.2V119.8z M243.7,123.6c-0.4-0.3-0.9-0.6-1.5-1c-0.5,0.4-1,0.7-1.5,1H243.7z
			 M242.9,125.8v-1.4h-1.7v1.4H242.9z M246.8,125.6c-0.6,0.5-1.6,1.1-2.3,1.4c-0.1-0.2-0.3-0.5-0.4-0.8c0.7-0.3,1.6-0.9,2.1-1.3
			L246.8,125.6z M246.4,119.1c0.1-0.3,0.1-0.6,0.2-0.9h-1.9v-0.9h4.8v0.9h-2c-0.1,0.3-0.2,0.6-0.3,0.9h1.9v5.7H245v-5.7H246.4z
			 M248.2,119.9h-2.3v0.8h2.3V119.9z M248.2,121.5h-2.3v0.9h2.3V121.5z M248.2,123.2h-2.3v0.9h2.3V123.2z M247.8,124.9
			c0.6,0.4,1.4,1,1.8,1.4L249,127c-0.4-0.4-1.2-1-1.8-1.4L247.8,124.9z"/>
		<path class="st3" d="M252.4,120.8c0,1.8-0.1,4.4-1,6.1c-0.2-0.2-0.7-0.4-0.9-0.5c0.9-1.7,1-4,1-5.7v-2.9h4.1
			c-0.1-0.3-0.2-0.6-0.4-0.8l1-0.2c0.2,0.3,0.4,0.7,0.5,1.1h3.7v0.9h-8L252.4,120.8L252.4,120.8z M259.6,123.4
			c-0.5,0.9-1.2,1.6-2.1,2.1c0.9,0.3,1.9,0.5,3.1,0.5c-0.2,0.2-0.5,0.6-0.6,0.9c-1.4-0.1-2.6-0.4-3.6-0.9c-1.1,0.4-2.4,0.7-3.7,0.8
			c-0.1-0.3-0.3-0.6-0.4-0.9c1.1-0.1,2.1-0.2,3-0.5c-0.6-0.4-1.2-0.8-1.6-1.4l0.4-0.2h-1.3V123h6.1h0.2L259.6,123.4z M254.3,122.5
			v-1.8h-1.6v-0.8h1.6v-0.8h1v0.8h2.4v-0.8h1v0.8h1.7v0.8h-1.7v1.8H254.3z M254.7,123.9c0.4,0.5,1,0.8,1.7,1.2
			c0.7-0.3,1.3-0.7,1.7-1.2H254.7z M255.2,120.8v1h2.4v-1H255.2z"/>
	</g>
	<g class="st2">
		<path class="st3" d="M317.6,122.3c1,1.3,2.6,2.6,4.1,3.2c-0.2,0.2-0.6,0.6-0.7,0.9c-1.4-0.7-2.8-1.9-3.8-3.3v3.8H316v-3.8
			c-1,1.4-2.5,2.5-3.8,3.2c-0.2-0.3-0.5-0.6-0.7-0.9c1.5-0.7,3.1-1.9,4-3.2h-3.7v-1h4.3v-1.7h-3.5v-1h3.5v-1.7h1.1v1.7h3.6v1H317
			v1.7h4.3v1h-3.7L317.6,122.3L317.6,122.3z"/>
		<path class="st3" d="M324.5,121.7c-0.5-0.4-1.4-0.8-2.1-1.1l0.5-0.8c0.7,0.2,1.7,0.7,2.1,1L324.5,121.7z M322.8,126.1
			c0.6-0.8,1.4-2.2,2-3.5l0.8,0.7c-0.6,1.1-1.3,2.5-1.9,3.5L322.8,126.1z M323.6,116.9c0.7,0.3,1.6,0.7,2.1,1.1l-0.6,0.8
			c-0.4-0.4-1.3-0.9-2-1.2L323.6,116.9z M332.3,118.9v4.9h-1v-0.6h-1.7v3.6h-1v-3.6h-1.7v0.6h-1v-5h2.7v-2.1h1v2.1L332.3,118.9
			L332.3,118.9z M328.6,122.3v-2.4h-1.7v2.4H328.6z M331.3,122.3v-2.4h-1.7v2.4H331.3z"/>
		<path class="st3" d="M334.9,119c-0.4,0.3-0.7,0.6-1.1,0.9c-0.1-0.2-0.3-0.7-0.5-1c0.9-0.5,1.7-1.4,2.2-2.2l0.8,0.3
			c-0.1,0.1-0.1,0.2-0.2,0.3c0.5,0.3,1.1,0.6,1.5,0.9l-0.5,0.8c-0.3-0.3-1-0.7-1.5-1c-0.2,0.3-0.5,0.5-0.7,0.8h1.7v0.7h-1.9V119
			H334.9z M336.6,124.1c0.4,0.7,0.9,1.6,1.1,2.2l-0.8,0.4c-0.1-0.2-0.2-0.5-0.4-0.8c-2.1,0.8-2.4,1-2.6,1.1
			c-0.1-0.2-0.2-0.7-0.4-0.9c0.2-0.1,0.5-0.2,0.5-0.6v-5.2h3.2v3.8H335v1.6l1.2-0.4c-0.1-0.2-0.2-0.5-0.4-0.7L336.6,124.1z
			 M335,120.9v0.7h1.4v-0.7H335z M336.4,123.1v-0.8H335v0.8H336.4z M341,122.9v3c0,0.5-0.1,0.7-0.4,0.9c-0.3,0.1-0.7,0.2-1.4,0.2
			c-0.1-0.2-0.2-0.6-0.3-0.8c0.4,0,0.8,0,1,0c0.1,0,0.2,0,0.2-0.2v-3h-2.3v-1h2.3v-1.1h-1.6V120h4.2c-0.8-0.5-1.5-1.1-2.1-1.8
			c-0.7,0.8-1.6,1.5-2.5,2c-0.1-0.2-0.4-0.5-0.6-0.7c1.2-0.6,2.4-1.6,3.1-2.7l0.8,0.3c-0.1,0.1-0.2,0.3-0.2,0.4
			c0.8,0.8,1.7,1.4,2.7,1.9c-0.2,0.2-0.5,0.6-0.6,0.8c-0.1-0.1-0.3-0.1-0.4-0.2v0.9H341v1.1h2.3v0.9L341,122.9L341,122.9z
			 M339.4,123.6c-0.3,0.8-0.8,1.8-1.2,2.4c-0.2-0.1-0.5-0.4-0.7-0.5c0.4-0.6,0.8-1.4,1.1-2.2L339.4,123.6z M342.4,123.3
			c0.4,0.7,0.9,1.8,1.2,2.3l-0.8,0.4c-0.2-0.6-0.7-1.6-1.1-2.4L342.4,123.3z"/>
		<path class="st3" d="M348.9,123.6v3.3H348v-0.3h-1.7v0.3h-0.9v-3.2c-0.2,0.1-0.3,0.1-0.5,0.2c-0.1-0.2-0.3-0.6-0.5-0.8
			c0.7-0.2,1.4-0.6,2-1c-0.3-0.2-0.5-0.3-0.7-0.4l0.6-0.6c0.3,0.1,0.5,0.3,0.8,0.5c0.3-0.3,0.5-0.6,0.7-1h-1.5
			c-0.3,0.5-0.7,0.9-1.2,1.3c-0.1-0.2-0.4-0.5-0.5-0.7c0.8-0.6,1.4-1.4,1.6-2.1l0.8,0.2c-0.1,0.2-0.2,0.4-0.2,0.6h1.5h0.1l0.5,0.4
			c-0.3,0.7-0.7,1.3-1.1,1.9c0.6,0.4,1.2,0.7,1.6,1L348.9,123.6z M345.4,119.8h-0.8v-1.9h2c-0.1-0.3-0.2-0.5-0.3-0.8l0.8-0.3
			c0.2,0.3,0.3,0.7,0.5,1h1.8v1.9h-0.8v-1.1h-3.2V119.8z M348.7,123.6c-0.4-0.3-0.9-0.6-1.5-1c-0.5,0.4-1,0.7-1.5,1H348.7z
			 M347.9,125.8v-1.4h-1.7v1.4H347.9z M351.8,125.6c-0.6,0.5-1.6,1.1-2.3,1.4c-0.1-0.2-0.3-0.5-0.4-0.8c0.7-0.3,1.6-0.9,2.1-1.3
			L351.8,125.6z M351.4,119.1c0.1-0.3,0.1-0.6,0.2-0.9h-1.9v-0.9h4.8v0.9h-2c-0.1,0.3-0.2,0.6-0.3,0.9h1.9v5.7H350v-5.7H351.4z
			 M353.2,119.9h-2.3v0.8h2.3V119.9z M353.2,121.5h-2.3v0.9h2.3V121.5z M353.2,123.2h-2.3v0.9h2.3V123.2z M352.8,124.9
			c0.6,0.4,1.4,1,1.8,1.4L354,127c-0.4-0.4-1.2-1-1.8-1.4L352.8,124.9z"/>
	</g>
</g>
<path id="Path_1085_1_" class="st3" d="M299.7,145.5c-0.3-62.1-50.8-112.3-113-112C125,33.7,75,83.7,74.7,145.5h55.2
	c0.3-31.6,26.2-57,57.8-56.7c31.2,0.3,56.4,25.5,56.7,56.7H299.7z"/>
<path id="Path_1086_1_" class="st1" d="M115.3,59.9l35.1,41.9c24.5-20.3,60.8-17,81.1,7.5c8.4,10.1,13.1,22.8,13.3,35.9h54.7
	c-0.5-62-51.1-111.8-113.1-111.4C160.4,34,135.3,43.2,115.3,59.9z"/>
<path id="Path_1087_1_" class="st0" d="M146.7,105.2c1.1-1.1,2.2-2.1,3.3-3l-35.1-41.9c-2.4,2-4.6,4.1-6.8,6.3
	C87,87.3,75.2,115.6,75,145.2h54.7C129.8,130.1,136,115.7,146.7,105.2z"/>
<g class="st2">
	<path class="st3" d="M161.4,141.8c0.5,0.5,1.2,1,1.8,1.2c-0.2,0.2-0.5,0.5-0.6,0.7c-0.8-0.4-1.7-1.2-2.2-2H158
		c-0.6,0.8-1.7,1.5-2.6,1.9c-0.1-0.2-0.3-0.4-0.5-0.6v1h-2.2v1h-1v-9.6h3.2v7.4c0.7-0.2,1.4-0.7,2-1.1h-1.6v-0.9h1.9V140h-1.5v-0.9
		h1.5v-0.7H156v-3.5h6.4v3.5h-1.1v0.7h1.5v0.9h-1.5v0.8h1.8v0.9h-1.7V141.8z M152.6,136.6v2.7h1.2v-2.7H152.6z M153.8,143v-2.7h-1.2
		v2.7H153.8z M161.7,143.4c-0.3,0.4-0.7,0.7-1.1,1.1c0.8,0.3,1.5,0.7,2,1l-0.6,0.8c-0.6-0.4-1.5-0.8-2.4-1.2v0.7
		c0,0.5-0.1,0.7-0.4,0.9c-0.4,0.1-0.9,0.2-1.6,0.2c0-0.3-0.2-0.6-0.3-0.9c0.5,0,1,0,1.1,0c0.2,0,0.2-0.1,0.2-0.2v-0.7
		c-1.1,0.5-2.2,1-3.1,1.3l-0.4-0.9c0.9-0.3,2.2-0.8,3.5-1.3v-1.8h1.1v1.9l0.3,0.1c0.3-0.3,0.8-0.8,1-1.2L161.7,143.4z M157.4,144.4
		c-0.2-0.3-0.5-0.7-0.9-1l0.7-0.5c0.3,0.3,0.7,0.7,0.9,1L157.4,144.4z M156.9,136.5h4.2v-0.6h-4.2V136.5z M156.9,137.8h4.2v-0.6
		h-4.2V137.8z M158.1,139.3h2v-0.7h-2V139.3z M158.1,140.9h2v-0.8h-2V140.9z"/>
	<path class="st3" d="M168.4,135.6c-0.3,1.1-0.7,2.4-1.1,3.4c0.8,1,1,2,1,2.7c0,0.8-0.2,1.3-0.5,1.6c-0.2,0.1-0.4,0.2-0.7,0.3
		c-0.2,0-0.5,0-0.8,0c0-0.3-0.1-0.8-0.3-1c0.2,0,0.4,0,0.6,0c0.1,0,0.2,0,0.3-0.1c0.2-0.1,0.2-0.5,0.2-0.8c0-0.7-0.2-1.5-0.9-2.5
		c0.3-0.9,0.6-2,0.8-2.8h-1.3v10.3h-1v-11.4h2.7h0.2L168.4,135.6z M170.8,142.9c-0.1,0.3-0.2,0.6-0.3,0.9c0.5,0.3,1.1,0.7,1.4,1
		l-0.6,0.8c-0.2-0.3-0.7-0.7-1.2-1c-0.5,0.8-1.2,1.5-1.9,2c-0.2-0.2-0.6-0.6-0.8-0.8c1.2-0.7,2-1.8,2.4-3.1L170.8,142.9z
		 M170.1,137.7c-0.4,0.3-0.9,0.6-1.3,0.9c-0.2-0.2-0.5-0.6-0.8-0.8c1.5-0.8,2.9-2.1,3.7-3.2l1.2,0.4c-0.1,0.1-0.2,0.3-0.3,0.4
		c0.9,0.8,2.5,1.7,3.8,2.1c-0.2,0.3-0.4,0.8-0.5,1.1c-0.6-0.3-1.2-0.6-1.9-1v0.9h-3.8L170.1,137.7L170.1,137.7z M168.6,139.3h3v3.2
		h-3V139.3z M169.6,141.6h1.1v-1.5h-1.1V141.6z M173.8,137.5c-0.7-0.4-1.4-0.9-1.9-1.4c-0.5,0.5-1,1-1.5,1.4H173.8z M174.4,142.8
		c-0.1,0.4-0.2,0.8-0.3,1.1c0.8,0.5,1.7,1.2,2.1,1.6l-0.7,0.8c-0.4-0.4-1.1-1-1.8-1.5c-0.4,0.7-0.9,1.3-1.5,1.7
		c-0.1-0.2-0.5-0.6-0.8-0.8c1-0.7,1.7-1.8,2-3.1L174.4,142.8z M172.3,139.3h3.1v3.2h-3.1V139.3z M173.3,141.6h1.2v-1.5h-1.2V141.6z"
		/>
	<path class="st3" d="M183.1,143.8c0,0.4,0.1,0.9,0.1,1.1c-3.7,1-4.2,1.1-4.6,1.4c-0.1-0.3-0.4-0.8-0.6-1c0.2-0.2,0.6-0.5,0.6-1.1
		v-9.5h1.2v3.9h3.1v1.2H180v4.8L183.1,143.8z M187.5,145.1c0.6,0,0.6-0.5,0.7-2.3c0.3,0.2,0.8,0.5,1.1,0.5c-0.2,2.1-0.5,2.9-1.8,2.9
		h-2c-1.4,0-1.7-0.4-1.7-2v-9.6h1.2v3.9h3.4v1.2H185v4.6c0,0.7,0.1,0.8,0.6,0.8L187.5,145.1L187.5,145.1z"/>
	<path class="st3" d="M193.7,135c-0.2,0.8-0.5,1.6-0.8,2.4v9.2h-1.1v-6.9c-0.2,0.4-0.5,0.8-0.8,1.1c-0.1-0.3-0.4-1-0.6-1.3
		c0.9-1.2,1.7-3,2.2-4.9L193.7,135z M197.5,138.1l0.7,0.2c-0.4,4.3-1.8,6.9-4,8.2c-0.1-0.3-0.5-0.7-0.7-0.9c1-0.5,1.9-1.4,2.5-2.7
		c-0.4-0.4-1-1-1.6-1.4c-0.2,0.3-0.3,0.5-0.5,0.8c-0.1-0.2-0.4-0.8-0.7-1c0.9-1.1,1.4-2.9,1.7-4.8h-1.1v-1.1h4.3v1.1H196
		c-0.1,0.6-0.2,1.2-0.3,1.7h1.7L197.5,138.1z M195.4,139.3c-0.1,0.4-0.3,0.8-0.5,1.2c0.5,0.4,1.1,0.9,1.5,1.3
		c0.3-0.8,0.5-1.6,0.6-2.5H195.4z M202,134.7V145c0,0.8-0.2,1.1-0.6,1.3c-0.4,0.2-1.2,0.2-2.3,0.2c-0.1-0.3-0.2-0.9-0.4-1.2
		c0.8,0,1.6,0,1.9,0c0.2,0,0.3-0.1,0.3-0.3v-10.3H202z M199.8,143.4h-1v-7.3h1V143.4z"/>
</g>
<g class="st2">
	<path class="st3" d="M204.1,137.9V137h5.3v1.3l-3.3,7.4l-0.9-0.3l3.2-7.2v-0.3H204.1z"/>
	<path class="st3" d="M211.5,137.9V137h5.3v1.3l-3.3,7.4l-0.9-0.3l3.2-7.2v-0.3H211.5z"/>
	<path class="st3" d="M219.7,136.8c1,0,1.4,0.6,1.4,1.8c0,0.6-0.1,1.1-0.4,1.4c-0.3,0.3-0.6,0.5-1.1,0.5s-0.8-0.2-1.1-0.5
		s-0.4-0.8-0.4-1.4C218.3,137.4,218.8,136.8,219.7,136.8z M219.1,138.6c0,0.8,0.2,1.2,0.6,1.2s0.6-0.4,0.6-1.2c0-0.4,0-0.7-0.1-0.9
		s-0.3-0.3-0.5-0.3s-0.4,0.1-0.5,0.3C219.1,138,219.1,138.2,219.1,138.6z M219.9,145.6l2.7-8.9l0.6,0.2l-2.7,8.9L219.9,145.6z
		 M222,143.8c0-1.2,0.5-1.8,1.4-1.8s1.4,0.6,1.4,1.8c0,0.6-0.1,1.1-0.4,1.4s-0.6,0.5-1.1,0.5s-0.8-0.2-1-0.5S222,144.5,222,143.8z
		 M222.8,143.8c0,0.8,0.2,1.2,0.6,1.2c0.2,0,0.4-0.1,0.5-0.3s0.1-0.5,0.1-0.9s0-0.7-0.1-0.9s-0.3-0.3-0.5-0.3s-0.4,0.1-0.5,0.3
		S222.8,143.4,222.8,143.8z"/>
</g>
<g class="st2">
	<path class="st3" d="M205.1,76.6c0,2-1.1,3-3.2,3h-0.2l-0.2,1.7c-0.5,0-0.8-0.1-0.8-0.1l0.2-1.7l-2.1-0.3l0.1-0.9
		c0.8,0.1,1.5,0.2,2.1,0.2l0.5-3.8c-1-0.2-1.7-0.5-2.2-0.9c-0.4-0.4-0.7-1-0.7-1.9c0-1.8,1.1-2.7,3.2-2.7c0.2,0,0.3,0,0.3,0l0.3-1.9
		h0.8l-0.3,2l1.9,0.2l-0.1,0.9c-0.7-0.1-1.3-0.1-1.9-0.2l-0.5,3.5c1,0.2,1.7,0.5,2.1,0.9C204.9,75.3,205.1,75.8,205.1,76.6z
		 M199.9,72.1c0,0.5,0.1,0.9,0.4,1.2c0.3,0.2,0.8,0.4,1.5,0.6l0.4-3.4H202C200.6,70.5,199.9,71,199.9,72.1z M204,76.7
		c0-0.5-0.1-0.8-0.4-1.1c-0.2-0.2-0.7-0.4-1.3-0.6l-0.5,3.6l0,0C203.3,78.7,204,78,204,76.7z"/>
	<path class="st3" d="M207.3,70.7v-1.1h6.2v1.5l-3.8,8.5l-1.1-0.3l3.7-8.3v-0.4h-5L207.3,70.7L207.3,70.7z"/>
	<path class="st3" d="M219.9,79.6v-1.9h-4.8v-0.9l2.8-7.1h1.3l-2.9,6.9h3.6v-3.1h1.2v3.1h1.3v1h-1.3v1.9L219.9,79.6L219.9,79.6z"/>
	<path class="st3" d="M223.4,81.4l0.7-3.5h1.2l-1,3.5H223.4z"/>
	<path class="st3" d="M227.4,70.7v-1.1h6.2v1.5l-3.8,8.5l-1.1-0.3l3.7-8.3v-0.4h-5L227.4,70.7L227.4,70.7z"/>
	<path class="st3" d="M235.8,70.7v-1.1h6.2v1.5l-3.8,8.5l-1.1-0.3l3.7-8.3v-0.4h-5L235.8,70.7L235.8,70.7z"/>
	<path class="st3" d="M247.2,69.5c0.8,0,1.5,0.2,2,0.5c1.1,0.6,1.6,2.2,1.6,4.8c0,1.8-0.3,3.1-0.9,3.8c-0.6,0.7-1.5,1.1-2.7,1.1
		s-2.1-0.4-2.7-1.1c-0.6-0.7-0.9-2-0.9-3.9s0.3-3.2,0.9-4S246,69.5,247.2,69.5z M247.3,70.5c-0.6,0-1,0.1-1.4,0.4
		c-0.7,0.5-1.1,1.8-1.1,3.9c0,1.5,0.2,2.5,0.6,3.1c0.4,0.6,1,0.8,1.8,0.8s1.4-0.3,1.8-0.9c0.4-0.6,0.6-1.6,0.6-3.2s-0.2-2.6-0.6-3.2
		C248.7,70.8,248.1,70.5,247.3,70.5z"/>
</g>
<g class="st2">
	<path class="st3" d="M88.1,113.6c0,2-1.1,3-3.2,3h-0.2l-0.2,1.7c-0.5,0-0.8-0.1-0.8-0.1l0.2-1.7l-2.1-0.3l0.1-0.9
		c0.8,0.1,1.5,0.2,2.1,0.2l0.5-3.8c-1-0.2-1.7-0.5-2.2-0.9s-0.7-1-0.7-1.9c0-1.8,1.1-2.7,3.2-2.7c0.2,0,0.3,0,0.3,0l0.3-1.9h0.8
		l-0.3,2l1.9,0.2l-0.1,0.9c-0.7-0.1-1.3-0.1-1.9-0.2l-0.5,3.5c1,0.2,1.7,0.5,2.1,0.9C87.9,112.3,88.1,112.8,88.1,113.6z M82.9,109.1
		c0,0.5,0.1,0.9,0.4,1.2c0.3,0.2,0.8,0.4,1.5,0.6l0.4-3.4H85C83.6,107.5,82.9,108,82.9,109.1z M87,113.7c0-0.5-0.1-0.8-0.4-1.1
		c-0.2-0.2-0.7-0.4-1.3-0.6l-0.5,3.6l0,0C86.3,115.7,87,115,87,113.7z"/>
	<path class="st3" d="M94.9,106.7v9.9h-1.2V108l-2.6,1.7l-0.5-0.9l3.1-2.1H94.9z"/>
	<path class="st3" d="M101.2,115.7c1.8,0,2.7-1.1,2.7-3.5c-1,0.4-1.9,0.6-2.6,0.6c-2.2,0-3.2-1-3.2-3c0-1,0.3-1.8,0.9-2.4
		s1.5-0.9,2.5-0.9c1.2,0,2.1,0.4,2.7,1.3s0.9,2.2,0.9,3.9c0,1.7-0.3,3-1,3.8s-1.6,1.2-2.9,1.2c-0.8,0-1.5-0.1-2.3-0.2l-0.4-0.1
		l0.1-0.9C99.5,115.6,100.4,115.7,101.2,115.7z M101.5,111.8c0.6,0,1.3-0.1,2.1-0.4l0.4-0.1c0-2.5-0.8-3.7-2.4-3.7
		c-0.7,0-1.2,0.2-1.6,0.6s-0.6,1-0.6,1.7C99.3,111.1,100,111.8,101.5,111.8z"/>
	<path class="st3" d="M106.4,118.4l0.7-3.5h1.2l-1,3.5H106.4z"/>
	<path class="st3" d="M113.4,106.5c0.8,0,1.5,0.2,2,0.5c1.1,0.6,1.6,2.2,1.6,4.8c0,1.8-0.3,3.1-0.9,3.8c-0.6,0.7-1.5,1.1-2.7,1.1
		s-2.1-0.4-2.7-1.1s-0.9-2-0.9-3.9s0.3-3.2,0.9-4S112.2,106.5,113.4,106.5z M113.5,107.5c-0.6,0-1,0.1-1.4,0.4
		c-0.7,0.5-1.1,1.8-1.1,3.9c0,1.5,0.2,2.5,0.6,3.1s1,0.8,1.8,0.8s1.4-0.3,1.8-0.9s0.6-1.6,0.6-3.2s-0.2-2.6-0.6-3.2
		C114.9,107.8,114.3,107.5,113.5,107.5z"/>
	<path class="st3" d="M121.8,106.5c0.8,0,1.5,0.2,2,0.5c1.1,0.6,1.6,2.2,1.6,4.8c0,1.8-0.3,3.1-0.9,3.8c-0.6,0.7-1.5,1.1-2.7,1.1
		s-2.1-0.4-2.7-1.1s-0.9-2-0.9-3.9s0.3-3.2,0.9-4C119.7,106.9,120.6,106.5,121.8,106.5z M121.9,107.5c-0.6,0-1,0.1-1.4,0.4
		c-0.7,0.5-1.1,1.8-1.1,3.9c0,1.5,0.2,2.5,0.6,3.1s1,0.8,1.8,0.8s1.4-0.3,1.8-0.9s0.6-1.6,0.6-3.2s-0.2-2.6-0.6-3.2
		C123.3,107.8,122.7,107.5,121.9,107.5z"/>
	<path class="st3" d="M130.2,106.5c0.8,0,1.5,0.2,2,0.5c1.1,0.6,1.6,2.2,1.6,4.8c0,1.8-0.3,3.1-0.9,3.8c-0.6,0.7-1.5,1.1-2.7,1.1
		s-2.1-0.4-2.7-1.1c-0.6-0.7-0.9-2-0.9-3.9s0.3-3.2,0.9-4C128.1,106.9,129,106.5,130.2,106.5z M130.3,107.5c-0.6,0-1,0.1-1.4,0.4
		c-0.7,0.5-1.1,1.8-1.1,3.9c0,1.5,0.2,2.5,0.6,3.1s1,0.8,1.8,0.8s1.4-0.3,1.8-0.9c0.4-0.6,0.6-1.6,0.6-3.2s-0.2-2.6-0.6-3.2
		C131.7,107.8,131.1,107.5,130.3,107.5z"/>
</g>
</svg>
