<?xml version="1.0" encoding="utf-8"?>
<!-- Generator: Adobe Illustrator 23.0.6, SVG Export Plug-In . SVG Version: 6.00 Build 0)  -->
<svg version="1.1" id="圖層_1" xmlns="http://www.w3.org/2000/svg" xmlns:xlink="http://www.w3.org/1999/xlink" x="0px" y="0px"
	 viewBox="0 0 375 159" style="enable-background:new 0 0 375 159;" xml:space="preserve">
<style type="text/css">
	.st0{opacity:0.1;fill:#FFFFFF;enable-background:new    ;}
	.st1{opacity:0.5;fill:#FFFFFF;enable-background:new    ;}
	.st2{fill:#0090D0;}
	.st3{fill:#24AD6E;}
	.st4{fill:#963ED6;}
	.st5{fill:#FF6400;}
	.st6{enable-background:new    ;}
	.st7{fill:#FFFFFF;}
</style>
<g>
	<path id="Path_1002" class="st0" d="M312.6,26.5H104.6c-2.8,0-5.1-2.3-5.1-5.1l0,0c0-2.8,2.3-5.1,5.1-5.1h207.9
		c2.8,0,5.1,2.3,5.1,5.1c0,0,0,0,0,0l0,0l0,0C317.6,24.2,315.4,26.5,312.6,26.5C312.6,26.5,312.6,26.5,312.6,26.5L312.6,26.5z"/>
	<path id="Path_1003" class="st0" d="M312.6,61.4H104.6c-2.8,0-5.1-2.3-5.1-5.1l0,0c0-2.8,2.3-5.1,5.1-5.1h207.9
		c2.8,0,5.1,2.3,5.1,5.1l0,0l0,0C317.6,59.2,315.4,61.4,312.6,61.4C312.6,61.4,312.6,61.4,312.6,61.4L312.6,61.4z"/>
	<path id="Path_1004" class="st0" d="M312.6,96.4H104.6c-2.8,0-5.1-2.3-5.1-5.1l0,0c0-2.8,2.3-5.1,5.1-5.1h207.9
		c2.8,0,5.1,2.3,5.1,5.1l0,0C317.6,94.1,315.4,96.4,312.6,96.4L312.6,96.4z"/>
	<path id="Path_1005" class="st0" d="M312.6,131.3H104.6c-2.8,0-5.1-2.3-5.1-5.1l0,0c0-2.8,2.3-5.1,5.1-5.1h207.9
		c2.8,0,5.1,2.3,5.1,5.1l0,0C317.6,129.1,315.4,131.3,312.6,131.3z"/>
	<path id="Path_1006" class="st1" d="M266.1,26.5H104.6c-2.8,0-5.1-2.3-5.1-5.1l0,0c0-2.8,2.3-5.1,5.1-5.1h161.5
		c2.8,0,5.1,2.3,5.1,5.1l0,0C271.2,24.2,268.9,26.5,266.1,26.5z"/>
	<path id="Path_1007" class="st1" d="M216.6,61.4h-112c-2.8,0-5.1-2.3-5.1-5.1l0,0c0-2.8,2.3-5.1,5.1-5.1h112c2.8,0,5.1,2.3,5.1,5.1
		l0,0l0,0l0,0C221.7,59.2,219.4,61.4,216.6,61.4C216.6,61.4,216.6,61.4,216.6,61.4L216.6,61.4z"/>
	<path id="Path_1008" class="st1" d="M207,96.4H104.6c-2.8,0-5.1-2.3-5.1-5.1l0,0c0-2.8,2.3-5.1,5.1-5.1H207c2.8,0,5.1,2.3,5.1,5.1
		l0,0C212.1,94.1,209.8,96.4,207,96.4L207,96.4z"/>
	<path id="Path_1009" class="st1" d="M194.7,131.3h-90.1c-2.8,0-5.1-2.3-5.1-5.1l0,0c0-2.8,2.3-5.1,5.1-5.1h90.1
		c2.8,0,5.1,2.3,5.1,5.1l0,0C199.8,129.1,197.5,131.3,194.7,131.3z"/>
	<path id="Path_1010" class="st2" d="M245.8,26.5H104.6c-2.8,0-5.1-2.3-5.1-5.1l0,0c0-2.8,2.3-5.1,5.1-5.1h141.2
		c2.8,0,5.1,2.3,5.1,5.1c0,0,0,0,0,0l0,0l0,0C250.9,24.2,248.6,26.5,245.8,26.5C245.8,26.5,245.8,26.5,245.8,26.5z"/>
	<path id="Path_1011" class="st3" d="M205.3,61.4H104.6c-2.8,0-5.1-2.3-5.1-5.1l0,0c0-2.8,2.3-5.1,5.1-5.1h100.7
		c2.8,0,5.1,2.3,5.1,5.1l0,0C210.4,59.2,208.1,61.4,205.3,61.4L205.3,61.4z"/>
	<path id="Path_1012" class="st4" d="M192.8,96.4h-88.2c-2.8,0-5.1-2.3-5.1-5.1l0,0c0-2.8,2.3-5.1,5.1-5.1h88.2
		c2.8,0,5.1,2.3,5.1,5.1l0,0C197.9,94.1,195.6,96.4,192.8,96.4L192.8,96.4z"/>
	<path id="Path_1013" class="st5" d="M177.4,131.3h-72.8c-2.8,0-5.1-2.3-5.1-5.1l0,0c0-2.8,2.3-5.1,5.1-5.1h72.8
		c2.8,0,5.1,2.3,5.1,5.1l0,0C182.4,129.1,180.2,131.3,177.4,131.3z"/>
	<rect x="261.2" y="14.3" class="st5" width="1" height="14.2"/>
	<rect x="194.8" y="49.3" class="st5" width="1" height="14.2"/>
	<rect x="204.2" y="84.2" class="st5" width="1" height="14.2"/>
	<rect x="191.4" y="119.2" class="st5" width="1" height="14.2"/>
	<g id="中國">
		<g class="st6">
			<path class="st7" d="M70.9,17v7h-1.1v-0.9h-4.3v4.9h-1.2v-4.9H60v0.9h-1.1V17h5.4v-2.7h1.2V17H70.9z M64.3,22.1v-4H60v4H64.3z
				 M69.7,22.1v-4h-4.3v4H69.7z"/>
			<path class="st7" d="M86.1,15v13H85v-0.7H74.7v0.7h-1.1V15H86.1z M85,26.4V16.1H74.7v10.3H85z M79.9,24.1
				c-1.6,0.3-3.1,0.6-4.4,0.8l-0.2-0.8c1.1-0.2,2.8-0.5,4.5-0.8L79.9,24.1z M83.6,19.8c-0.4,1.4-0.9,2.6-1.7,3.7
				c0.3,0.8,0.7,1.3,1.2,1.4c0.2,0.1,0.4-0.6,0.5-1.5c0.2,0.2,0.5,0.4,0.7,0.5c-0.2,1.6-0.7,2.2-1.5,1.9c-0.7-0.1-1.2-0.7-1.6-1.5
				c-0.6,0.7-1.2,1.2-2,1.7c-0.1-0.2-0.5-0.5-0.7-0.7c0.9-0.5,1.6-1.2,2.3-2c-0.4-1.2-0.6-2.7-0.8-4.4h-4.6V18H80
				c0-0.5-0.1-1-0.1-1.6h1c0,0.5,0.1,1.1,0.1,1.6h3.3v0.8h-3.2c0.1,1.3,0.3,2.5,0.6,3.5c0.5-0.8,0.9-1.7,1.1-2.8L83.6,19.8z
				 M79.4,19.8v2.9h-3.3v-2.9H79.4z M78.6,20.5h-1.7V22h1.7V20.5z M83.3,17.9c-0.3-0.3-1-0.8-1.6-1l0.5-0.6c0.6,0.3,1.3,0.7,1.6,1
				L83.3,17.9z"/>
		</g>
	</g>
	<g id="亞洲" transform="translate(0 34.901)">
		<g class="st6">
			<path class="st7" d="M70.6,25.4v1H58.1v-1h4.2v-2.5h-3.2v-4.7h3.2v-2.2h-3.8v-1h11.8v1h-3.9v2.2h3.2v4.7h-0.5v0h-2.7v2.5H70.6z
				 M63.3,22v3.4h2.1V22h3.2v-2.9h-3.2v-3.1h-2.1v3.1h-3.1V22H63.3z"/>
			<path class="st7" d="M74.3,20.3c-0.5-0.4-1.6-1-2.4-1.4l0.6-0.8c0.8,0.4,1.8,0.9,2.4,1.3L74.3,20.3z M72.2,26.3
				c0.6-1.1,1.4-2.9,1.9-4.5l0.8,0.6c-0.5,1.5-1.2,3.2-1.8,4.4L72.2,26.3z M74.8,16.6c-0.5-0.4-1.5-1.1-2.2-1.5l0.6-0.7
				c0.8,0.4,1.8,1,2.3,1.5L74.8,16.6z M77.1,14.5h1v4.9c0,2.7-0.2,5.5-2,7.6c-0.2-0.2-0.6-0.5-0.9-0.6c1.7-2,1.9-4.5,1.9-7V14.5z
				 M76.2,21.9c-0.1-0.9-0.5-2.3-1-3.3l0.8-0.3c0.4,1.1,0.9,2.4,1,3.3L76.2,21.9z M78.9,18.3c0.4,1,0.8,2.2,1,3.1l-0.8,0.3
				c-0.1-0.8-0.5-2.1-0.9-3.1L78.9,18.3z M84.1,14.5V27h-1v-5.6l-0.7,0.3c-0.2-0.8-0.8-2.1-1.3-3.1v8.1h-1v-12h1v3.7l0.6-0.3
				c0.6,1,1.1,2.2,1.4,3.1v-6.8H84.1z"/>
		</g>
	</g>
	<g id="歐洲" transform="translate(0 69.802)">
		<g class="st6">
			<path class="st7" d="M68,19.2c0,0.3,0,0.7,0,1.1c0.4,2.8,1.2,4.4,2.7,5.9c-0.3,0.2-0.5,0.5-0.7,0.8c-1.2-1.2-1.9-2.5-2.4-4.2
				c-0.4,1.4-1,2.9-2.3,4.2c-0.2-0.3-0.5-0.6-0.7-0.8l0,0c-0.3,0-0.7,0-1.1,0h-3c-1.5,0-2-0.5-2-2.1v-8.3H58v-0.9h6.8v0.9h-5.4v8.4
				c0,0.8,0.3,1.1,1,1.1h3.1c0.4,0,1,0,1.3-0.1c0,0.2,0.1,0.5,0.1,0.7c2-2.2,2.1-4.9,2.1-6.8v-0.9h1V19.2z M59.9,20.8H62v3.5h-2.1
				V20.8z M64,19.9h-3.6v-3.1H64V19.9z M60.5,23.7h0.9v-2.1h-0.9V23.7z M63.1,17.5h-2v1.8h2V17.5z M64.7,24.4h-2.2v-3.5h2.2V24.4z
				 M64,21.6h-1v2.1h1V21.6z M66.5,17.4c-0.3,1.1-0.7,2-1.2,2.8c-0.2-0.2-0.6-0.4-0.8-0.6c0.9-1.3,1.5-3.3,1.8-5.4l1,0.2
				c-0.1,0.7-0.2,1.4-0.4,2.1h3.3l0.2-0.1l0.7,0.2c-0.3,1.2-0.6,2.7-1,3.6l-0.8-0.3c0.2-0.7,0.5-1.7,0.7-2.6H66.5z"/>
			<path class="st7" d="M74.3,20.3c-0.5-0.4-1.6-1-2.4-1.4l0.6-0.8c0.8,0.4,1.8,0.9,2.4,1.3L74.3,20.3z M72.2,26.3
				c0.6-1.1,1.4-2.9,1.9-4.5l0.8,0.6c-0.5,1.5-1.2,3.2-1.8,4.4L72.2,26.3z M74.8,16.6c-0.5-0.4-1.5-1.1-2.2-1.5l0.6-0.7
				c0.8,0.4,1.8,1,2.3,1.5L74.8,16.6z M77.1,14.5h1v4.9c0,2.7-0.2,5.5-2,7.6c-0.2-0.2-0.6-0.5-0.9-0.6c1.7-2,1.9-4.5,1.9-7V14.5z
				 M76.2,21.9c-0.1-0.9-0.5-2.3-1-3.3l0.8-0.3c0.4,1.1,0.9,2.4,1,3.3L76.2,21.9z M78.9,18.3c0.4,1,0.8,2.2,1,3.1l-0.8,0.3
				c-0.1-0.8-0.5-2.1-0.9-3.1L78.9,18.3z M84.1,14.5V27h-1v-5.6l-0.7,0.3c-0.2-0.8-0.8-2.1-1.3-3.1v8.1h-1v-12h1v3.7l0.6-0.3
				c0.6,1,1.1,2.2,1.4,3.1v-6.8H84.1z"/>
		</g>
	</g>
	<g id="美洲" transform="translate(0 104.703)">
		<g class="st6">
			<path class="st7" d="M70.6,20.3v0.9h-5.8c0,0.4-0.1,0.7-0.2,1.1h5.8v0.9h-6c-0.7,1.9-2.2,3.1-5.8,3.7c-0.1-0.3-0.4-0.7-0.5-0.9
				c3.2-0.5,4.6-1.4,5.2-2.8h-4.7v-0.9h5c0.1-0.3,0.1-0.7,0.2-1.1h-5.5v-0.9h5.6v-1.2h-4.4v-0.9h4.4v-1.1h-5.1v-0.9h3
				c-0.2-0.5-0.7-1.1-1.1-1.6l0.9-0.4c0.5,0.5,1,1.3,1.2,1.8l-0.5,0.2h3.7c0.4-0.6,0.9-1.4,1.2-2l1.1,0.3c-0.3,0.6-0.8,1.2-1.1,1.7
				h3v0.9h-5.2v1.1h4.5v0.9h-4.5v1.2H70.6z M64.9,23.4c1.9,0.7,4.4,1.9,5.7,2.8L70.1,27c-1.2-0.9-3.7-2.1-5.7-2.9L64.9,23.4z"/>
			<path class="st7" d="M74.3,20.3c-0.5-0.4-1.6-1-2.4-1.4l0.6-0.8c0.8,0.4,1.8,0.9,2.4,1.3L74.3,20.3z M72.2,26.3
				c0.6-1.1,1.4-2.9,1.9-4.5l0.8,0.6c-0.5,1.5-1.2,3.2-1.8,4.4L72.2,26.3z M74.8,16.6c-0.5-0.4-1.5-1.1-2.2-1.5l0.6-0.7
				c0.8,0.4,1.8,1,2.3,1.5L74.8,16.6z M77.1,14.5h1v4.9c0,2.7-0.2,5.5-2,7.6c-0.2-0.2-0.6-0.5-0.9-0.6c1.7-2,1.9-4.5,1.9-7V14.5z
				 M76.2,21.9c-0.1-0.9-0.5-2.3-1-3.3l0.8-0.3c0.4,1.1,0.9,2.4,1,3.3L76.2,21.9z M78.9,18.3c0.4,1,0.8,2.2,1,3.1l-0.8,0.3
				c-0.1-0.8-0.5-2.1-0.9-3.1L78.9,18.3z M84.1,14.5V27h-1v-5.6l-0.7,0.3c-0.2-0.8-0.8-2.1-1.3-3.1v8.1h-1v-12h1v3.7l0.6-0.3
				c0.6,1,1.1,2.2,1.4,3.1v-6.8H84.1z"/>
		</g>
	</g>
</g>
</svg>
