<?xml version="1.0" encoding="utf-8"?>
<!-- Generator: Adobe Illustrator 23.0.6, SVG Export Plug-In . SVG Version: 6.00 Build 0)  -->
<svg version="1.1" id="圖層_1" xmlns="http://www.w3.org/2000/svg" xmlns:xlink="http://www.w3.org/1999/xlink" x="0px" y="0px"
	 viewBox="0 0 375 251" style="enable-background:new 0 0 375 251;" xml:space="preserve">
<style type="text/css">
	.st0{fill:#FE8C38;}
	.st1{fill:#24AD6E;}
	.st2{fill:#6962FF;}
	.st3{fill:#FFFFFF;stroke:#FFFFFF;stroke-width:2;stroke-miterlimit:10;}
	.st4{fill:#0090D0;}
	.st5{enable-background:new    ;}
	.st6{fill:#FFFFFF;}
</style>
<path class="st0" d="M255.4,125.5c0,3.3-0.2,6.6-0.7,9.7l46.1,9.9c5-28.8-1-58-17-82.5C267,36.9,241.1,19.2,211,12.9
	c-16-3.3-32.9-3.2-49,0.4l12.3,45.6c4.3-0.8,8.7-1.3,13.3-1.3C225,57.6,255.4,88,255.4,125.5z"/>
<path class="st1" d="M196.9,192.7l3.5,47c23.3-2.7,44.8-12.2,62.6-27.6c17.7-15.4,30.1-35.5,35.9-58.2l-46.1-9.9
	C245.5,169.6,223.8,189,196.9,192.7z"/>
<path class="st2" d="M119.8,130H72.6c1.1,29.1,13,56.3,33.8,76.9c21.7,21.6,50.5,33.5,81.1,33.6c1.3,0,2.7,0,4-0.1l-3.5-47.1
	c-0.2,0-0.3,0-0.5,0C151.5,193.4,122.1,165.4,119.8,130z"/>
<path class="st3" d="M168.3,54.9L154,1.5C127.3,9.8,104.3,26,87.2,48.2S60.7,97,59.5,124.8h55.3C116.9,92.3,138.6,65.1,168.3,54.9z"
	/>
<path class="st4" d="M168.3,54.9L154,1.5C127.3,9.8,104.3,26,87.2,48.2S60.7,97,59.5,124.8h55.3C116.9,92.3,138.6,65.1,168.3,54.9z"
	/>
<g class="st5">
	<path class="st6" d="M255,71.4V58.9h7.6v1.2h-6.2v4.3h5.1v1.2h-5.1v4.5h6.2v1.2H255V71.4z"/>
	<path class="st6" d="M266.4,67.6c0,1.8,1,2.7,2.9,2.7c1,0,1.8-0.2,2.3-0.6s0.8-1.1,0.8-2.1v-8.7h1.4v8.7c0,1.4-0.4,2.4-1.1,3
		s-1.8,0.9-3.3,0.9c-1.4,0-2.5-0.3-3.2-0.9s-1.1-1.6-1.1-3v-8.7h1.4L266.4,67.6L266.4,67.6z"/>
</g>
<g class="st5">
	<path class="st6" d="M246.8,77.6c0.8-0.2,1.6-0.3,2.4-0.3s1.5,0.2,1.9,0.5s0.6,0.9,0.6,1.6c0,0.4-0.1,0.6-0.2,0.8
		c-0.1,0.2-0.2,0.3-0.2,0.4c-0.1,0.1-0.1,0.2-0.2,0.3c-0.2,0.1-0.3,0.2-0.4,0.3l-0.1,0.1c0.5,0.2,0.8,0.4,1,0.6s0.3,0.7,0.3,1.3
		c0,0.8-0.2,1.4-0.6,1.8c-0.4,0.4-1.1,0.6-1.9,0.6c-0.7,0-1.4-0.1-2.2-0.2l-0.4-0.1l0.1-0.8c0.9,0.2,1.7,0.3,2.4,0.3
		c1.1,0,1.7-0.5,1.7-1.5s-0.5-1.4-1.6-1.5h-1.6V81h1.6c0.3,0,0.7-0.1,1-0.4s0.5-0.6,0.5-1.1c0-0.4-0.1-0.8-0.4-1s-0.7-0.3-1.2-0.3
		c-0.6,0-1.3,0.1-1.9,0.2l-0.3,0.1L246.8,77.6z"/>
	<path class="st6" d="M258.6,85.4h-5.1v-0.8l2.3-2.4c0.4-0.4,0.7-0.7,0.9-0.9c0.2-0.2,0.4-0.5,0.5-0.8s0.2-0.6,0.2-0.9
		c0-0.5-0.1-0.9-0.4-1.1s-0.7-0.3-1.3-0.3c-0.5,0-1.1,0.1-1.7,0.2l-0.3,0.1l-0.1-0.8c0.8-0.2,1.5-0.3,2.4-0.3c0.8,0,1.4,0.2,1.8,0.5
		s0.6,0.9,0.6,1.6c0,0.6-0.1,1-0.4,1.5s-0.7,0.9-1.3,1.5l-2.1,2.1h4L258.6,85.4L258.6,85.4z"/>
	<path class="st6" d="M260.4,85.4V84h1v1.4H260.4z"/>
	<path class="st6" d="M263.2,78.3v-0.8h4.9v1.2l-3,6.8l-0.9-0.3l3-6.6v-0.3C267.2,78.3,263.2,78.3,263.2,78.3z"/>
	<path class="st6" d="M274.8,78.3c-0.7-0.1-1.4-0.1-2.1-0.1s-1.2,0.2-1.6,0.7s-0.6,1.1-0.6,2l0.3-0.1c0.2-0.1,0.5-0.1,0.8-0.2
		s0.6-0.1,0.9-0.1c1.8,0,2.7,0.8,2.7,2.5c0,0.8-0.2,1.5-0.7,1.9c-0.5,0.5-1.2,0.7-2,0.7c-1.9,0-2.8-1.4-2.8-4.1
		c0-1.4,0.3-2.4,0.8-3.1s1.3-1,2.3-1c0.6,0,1.3,0,1.8,0.1l0.3,0.1L274.8,78.3z M272.5,81.2c-0.3,0-0.6,0-0.9,0.1s-0.6,0.1-0.8,0.2
		l-0.3,0.1c0,0.9,0.2,1.6,0.5,2.2c0.3,0.5,0.8,0.8,1.4,0.8s1.1-0.2,1.4-0.5s0.5-0.7,0.5-1.3c0-0.6-0.2-1-0.5-1.3
		C273.5,81.4,273.1,81.2,272.5,81.2z"/>
	<path class="st6" d="M277.5,77.3c0.9,0,1.3,0.6,1.3,1.7c0,0.6-0.1,1-0.3,1.3c-0.2,0.3-0.6,0.4-1,0.4s-0.7-0.1-1-0.4
		c-0.2-0.3-0.3-0.7-0.3-1.3C276.2,77.9,276.7,77.3,277.5,77.3z M276.9,79c0,0.7,0.2,1.1,0.6,1.1s0.6-0.4,0.6-1.1
		c0-0.4,0-0.6-0.1-0.8c-0.1-0.2-0.2-0.3-0.5-0.3c-0.2,0-0.4,0.1-0.5,0.3C277,78.4,276.9,78.6,276.9,79z M277.7,85.4l2.5-8.2l0.6,0.2
		l-2.5,8.2L277.7,85.4z M279.6,83.8c0-1.1,0.4-1.6,1.3-1.6s1.3,0.6,1.3,1.7c0,0.6-0.1,1-0.3,1.3c-0.2,0.3-0.6,0.4-1,0.4
		s-0.7-0.1-1-0.4C279.7,84.8,279.6,84.3,279.6,83.8z M280.4,83.8c0,0.7,0.2,1.1,0.6,1.1c0.2,0,0.4-0.1,0.5-0.3
		c0.1-0.2,0.1-0.4,0.1-0.8s0-0.6-0.1-0.8c-0.1-0.2-0.2-0.2-0.5-0.2c-0.2,0-0.4,0.1-0.5,0.2C280.4,83.2,280.4,83.4,280.4,83.8z"/>
</g>
<g class="st5">
	<path class="st6" d="M231.5,194.4v-12.5h2.6l4.8,11.2h0.4v-11.2h1.4v12.5H238l-4.8-11.2h-0.3v11.2H231.5z"/>
	<path class="st6" d="M242.7,194.4l3.4-12.5h3l3.4,12.5h-1.4l-0.9-3.2H245l-0.9,3.2H242.7z M247.2,183.1l-1.9,6.8h4.7l-1.9-6.8
		H247.2z"/>
	<path class="st6" d="M261.5,194.4h-6.9v-12.5h1.4v11.2h5.5V194.4z"/>
	<path class="st6" d="M262.4,194.4l3.4-12.5h3l3.4,12.5h-1.4l-0.9-3.2h-5.3l-0.9,3.2H262.4z M266.8,183.1l-1.9,6.8h4.7l-1.9-6.8
		H266.8z"/>
</g>
<g class="st5">
	<path class="st6" d="M238.8,208.4h-5.1v-0.8l2.3-2.4c0.4-0.4,0.7-0.7,0.9-0.9s0.3-0.5,0.5-0.8c0.1-0.3,0.2-0.6,0.2-0.9
		c0-0.5-0.1-0.9-0.4-1.1c-0.3-0.2-0.7-0.3-1.3-0.3c-0.5,0-1.1,0.1-1.7,0.2l-0.3,0.1l-0.1-0.8c0.8-0.2,1.5-0.3,2.4-0.3
		c0.8,0,1.4,0.2,1.8,0.5c0.4,0.3,0.6,0.9,0.6,1.6c0,0.6-0.1,1-0.4,1.5s-0.7,0.9-1.3,1.5l-2.1,2.1h4L238.8,208.4L238.8,208.4z"/>
	<path class="st6" d="M243.1,200.3c0.7,0,1.2,0.1,1.6,0.4c0.9,0.5,1.3,1.8,1.3,3.8c0,1.4-0.2,2.5-0.7,3.1s-1.2,0.9-2.2,0.9
		s-1.7-0.3-2.2-0.9c-0.5-0.6-0.7-1.6-0.7-3.1s0.2-2.6,0.7-3.2C241.4,200.6,242.1,200.3,243.1,200.3z M243.1,201.1
		c-0.5,0-0.8,0.1-1.1,0.3c-0.6,0.4-0.9,1.4-0.9,3.1c0,1.2,0.2,2,0.5,2.5s0.8,0.7,1.5,0.7s1.2-0.2,1.5-0.7s0.5-1.3,0.5-2.5
		s-0.2-2.1-0.5-2.6S243.8,201.1,243.1,201.1z"/>
	<path class="st6" d="M247.4,208.4V207h1v1.4H247.4z"/>
	<path class="st6" d="M250.2,201.3v-0.8h4.9v1.2l-3,6.8l-0.9-0.3l3-6.6v-0.3L250.2,201.3L250.2,201.3z"/>
	<path class="st6" d="M257.3,200.8c0.5-0.3,1.2-0.5,2.1-0.5s1.6,0.2,2.1,0.5s0.8,0.9,0.8,1.5c0,0.5-0.1,0.9-0.3,1.1
		c-0.2,0.3-0.5,0.5-1,0.7c0.5,0.2,0.8,0.5,1.1,0.8c0.2,0.3,0.4,0.7,0.4,1.2c0,1.5-1,2.3-3,2.3s-3-0.7-3-2.1c0-0.6,0.1-1,0.3-1.3
		c0.2-0.3,0.6-0.6,1-0.8c-0.4-0.2-0.7-0.5-0.9-0.7c-0.2-0.3-0.3-0.7-0.3-1.1C256.6,201.7,256.8,201.2,257.3,200.8z M257.4,206.2
		c0,1,0.7,1.5,2,1.5s2-0.5,2-1.5c0-0.4-0.1-0.7-0.4-0.9c-0.2-0.2-0.6-0.4-1-0.5h-1.3c-0.4,0.1-0.8,0.3-1,0.5
		C257.5,205.4,257.4,205.8,257.4,206.2z M261.3,202.5c0-0.9-0.6-1.3-1.9-1.3s-1.9,0.4-1.9,1.3c0,0.4,0.1,0.6,0.3,0.9
		c0.2,0.2,0.5,0.4,0.9,0.5h1.3c0.4-0.1,0.8-0.3,1-0.5C261.2,203.1,261.3,202.8,261.3,202.5z"/>
	<path class="st6" d="M264.5,200.3c0.9,0,1.3,0.6,1.3,1.7c0,0.6-0.1,1-0.3,1.3c-0.2,0.3-0.6,0.4-1,0.4s-0.7-0.1-1-0.4
		c-0.2-0.3-0.3-0.7-0.3-1.3C263.2,200.9,263.7,200.3,264.5,200.3z M263.9,202c0,0.7,0.2,1.1,0.6,1.1s0.6-0.4,0.6-1.1
		c0-0.4,0-0.6-0.1-0.8s-0.2-0.3-0.5-0.3c-0.2,0-0.4,0.1-0.5,0.3C264,201.4,263.9,201.6,263.9,202z M264.7,208.4l2.5-8.2l0.6,0.2
		l-2.5,8.2L264.7,208.4z M266.6,206.8c0-1.1,0.4-1.6,1.3-1.6s1.3,0.6,1.3,1.7c0,0.6-0.1,1-0.3,1.3c-0.2,0.3-0.6,0.4-1,0.4
		s-0.7-0.1-1-0.4C266.7,207.8,266.6,207.3,266.6,206.8z M267.4,206.8c0,0.7,0.2,1.1,0.6,1.1c0.2,0,0.4-0.1,0.5-0.3s0.1-0.4,0.1-0.8
		c0-0.4,0-0.6-0.1-0.8s-0.2-0.2-0.5-0.2c-0.2,0-0.4,0.1-0.5,0.2C267.4,206.2,267.4,206.4,267.4,206.8z"/>
</g>
<g class="st5">
	<path class="st6" d="M83.4,66.7l4-14.6h3.5l4,14.6h-1.6L92.2,63h-6.2l-1.1,3.7H83.4z M88.5,53.5l-2.2,8h5.5l-2.2-8
		C89.6,53.5,88.5,53.5,88.5,53.5z"/>
	<path class="st6" d="M102.7,61.8h-3.7v4.9h-1.5V52.1h5.4c1.6,0,2.8,0.4,3.5,1.2c0.7,0.8,1.2,2,1.2,3.5
		C107.4,60.2,105.9,61.8,102.7,61.8z M99.1,60.3h3.6c2,0,3-1.2,3-3.5c0-1.2-0.2-2-0.7-2.5c-0.5-0.6-1.3-0.8-2.3-0.8h-3.6V60.3z"/>
	<path class="st6" d="M110.1,66.7V52.1h8.9v1.4h-7.3v5h6V60h-6v5.3h7.3v1.4h-8.9V66.7z"/>
	<path class="st6" d="M130.6,66.5c-1.4,0.4-2.7,0.5-3.9,0.5c-1.2,0-2.1-0.1-2.8-0.5c-0.7-0.4-1.3-0.8-1.6-1.5
		c-0.4-0.7-0.7-1.4-0.8-2.3c-0.1-0.8-0.2-2-0.2-3.3c0-1.3,0.1-2.3,0.2-3.3c0.1-0.9,0.5-1.6,0.8-2.3c0.4-0.7,0.9-1.2,1.6-1.5
		c0.7-0.4,1.6-0.5,2.7-0.5s2.5,0.1,4,0.5l-0.1,1.4c-1.4-0.1-2.6-0.2-3.7-0.2c-1.5,0-2.6,0.5-3,1.4c-0.5,0.9-0.7,2.5-0.7,4.7
		c0,1.1,0,2,0.1,2.7c0.1,0.7,0.2,1.3,0.6,1.9c0.2,0.6,0.7,0.9,1.2,1.2s1.3,0.4,2.2,0.4c0.9,0,2.1-0.1,3.5-0.4L130.6,66.5z"/>
</g>
<g class="st5">
	<path class="st6" d="M92.5,83.1h-6v-0.9l2.7-2.8c0.5-0.5,0.8-0.8,1.1-1.1c0.2-0.2,0.5-0.6,0.6-0.9c0.1-0.4,0.2-0.7,0.2-1.1
		c0-0.6-0.1-1.1-0.5-1.3s-0.8-0.4-1.5-0.4c-0.6,0-1.3,0.1-2,0.2l-0.4,0.1l-0.1-0.9c0.9-0.2,1.8-0.4,2.8-0.4c0.9,0,1.6,0.2,2.1,0.6
		c0.5,0.4,0.7,1.1,0.7,1.9c0,0.7-0.1,1.2-0.5,1.8c-0.4,0.6-0.8,1.1-1.5,1.8l-2.5,2.5h4.7V83.1z"/>
	<path class="st6" d="M97.5,73.7c0.8,0,1.4,0.1,1.9,0.5c1.1,0.6,1.5,2.1,1.5,4.4c0,1.6-0.2,2.9-0.8,3.6c-0.6,0.7-1.4,1.1-2.6,1.1
		c-1.2,0-2-0.4-2.6-1.1c-0.6-0.7-0.8-1.9-0.8-3.6s0.2-3,0.8-3.7C95.5,74,96.4,73.7,97.5,73.7z M97.5,74.6c-0.6,0-0.9,0.1-1.3,0.4
		c-0.7,0.5-1.1,1.6-1.1,3.6c0,1.4,0.2,2.3,0.6,2.9c0.4,0.6,0.9,0.8,1.8,0.8s1.4-0.2,1.8-0.8c0.4-0.6,0.6-1.5,0.6-2.9
		c0-1.4-0.1-2.5-0.6-3C98.9,74.9,98.4,74.6,97.5,74.6z"/>
	<path class="st6" d="M102.6,83.1v-1.6h1.2v1.6H102.6z"/>
	<path class="st6" d="M111.5,73.8v0.9h-4.6l-0.2,3c0.7-0.4,1.4-0.6,2.2-0.6c2,0,2.9,0.9,2.9,2.7c0,1.1-0.2,1.9-0.8,2.5
		c-0.6,0.6-1.3,0.8-2.3,0.8c-0.8,0-1.6-0.1-2.6-0.4l-0.5-0.1l0.1-0.8c1.1,0.2,2,0.4,2.7,0.4c0.7,0,1.3-0.2,1.6-0.6s0.6-0.9,0.6-1.6
		c0-0.7-0.1-1.2-0.5-1.4c-0.4-0.2-0.8-0.5-1.4-0.5c-0.4,0-0.7,0-1.1,0.1c-0.4,0.1-0.7,0.2-0.8,0.2l-0.4,0.1l-0.7-0.1l0.2-4.8h5.4
		V73.8z"/>
	<path class="st6" d="M117.8,83.1v-1.8h-4.4v-0.8l2.7-6.7h1.2l-2.7,6.6h3.4v-2.9h1.1v2.8h1.2v0.9H119V83h-1.2V83.1z"/>
	<path class="st6" d="M122.6,73.7c1.1,0,1.5,0.7,1.5,2c0,0.7-0.1,1.2-0.4,1.5c-0.2,0.4-0.7,0.5-1.2,0.5c-0.5,0-0.8-0.1-1.2-0.5
		c-0.2-0.4-0.4-0.8-0.4-1.5C121.1,74.4,121.7,73.7,122.6,73.7z M121.9,75.6c0,0.8,0.2,1.3,0.7,1.3c0.5,0,0.7-0.5,0.7-1.3
		c0-0.5,0-0.7-0.1-0.9c-0.1-0.2-0.2-0.4-0.6-0.4c-0.2,0-0.5,0.1-0.6,0.4C122,74.9,121.9,75.2,121.9,75.6z M122.8,83.1l2.9-9.6
		l0.7,0.2l-2.9,9.6L122.8,83.1z M125.1,81.3c0-1.3,0.5-1.9,1.5-1.9s1.5,0.7,1.5,2c0,0.7-0.1,1.2-0.4,1.5s-0.7,0.5-1.2,0.5
		s-0.8-0.1-1.2-0.5C125.1,82.6,125.1,81.8,125.1,81.3z M126,81.3c0,0.8,0.2,1.3,0.7,1.3c0.2,0,0.5-0.1,0.6-0.4
		c0.1-0.2,0.1-0.5,0.1-0.9s0-0.7-0.1-0.9c-0.1-0.2-0.2-0.2-0.6-0.2c-0.2,0-0.5,0.1-0.6,0.2C126,80.6,126,80.8,126,81.3z"/>
</g>
<g class="st5">
	<path class="st6" d="M122.4,182.5v8.4H121v-1h-5.2v5.8h-1.4v-5.8h-5.1v1.1H108v-8.5h6.5v-3.2h1.4v3.2H122.4z M114.5,188.6v-4.8
		h-5.1v4.8H114.5z M121,188.6v-4.8h-5.2v4.8H121z"/>
	<path class="st6" d="M133.2,191.6c0,0,0,0.3,0,0.5c-0.2,1.9-0.4,2.8-0.7,3.1s-0.6,0.4-1,0.4s-1.1,0-1.9,0c0-0.3-0.1-0.7-0.3-1
		c0.7,0.1,1.4,0.1,1.6,0.1c0.3,0,0.4,0,0.5-0.1c0.2-0.2,0.3-0.7,0.5-1.9h-2.4c-0.5,1.5-1.5,2.5-3.6,3.2c-0.1-0.3-0.4-0.7-0.6-0.9
		c1.7-0.5,2.5-1.2,3-2.3h-2.4v-1h2.7c0.1-0.4,0.1-0.8,0.2-1.2h1.2c0,0.4-0.1,0.8-0.2,1.2h3.4V191.6z M141.2,180.5v1H134v1.1h6v1
		h-13.2v-1h5.9v-1.1h-7.1v-1h7.1v-1.2h1.3v1.2H141.2z M137.3,188.1c-0.3,0.4-0.5,0.8-0.7,1.1h4.6v1.1h-15.5v-1.1h4.7
		c-0.1-0.4-0.4-0.8-0.7-1.2l0.8-0.2h-2.9v-3.3h11.9v3.3h-3.1L137.3,188.1z M128.7,187h9.3v-1.4h-9.3V187z M130.9,187.9
		c0.3,0.4,0.6,0.9,0.8,1.2l-0.6,0.1h4.2c0.3-0.4,0.5-1,0.7-1.4L130.9,187.9L130.9,187.9z M134.2,191.2h6.2v4.5h-1.3v-0.5h-3.7v0.6
		h-1.2V191.2z M135.4,192.2v1.9h3.7v-1.9H135.4z"/>
</g>
<g class="st5">
	<path class="st6" d="M111.8,208.4h-5.1v-0.8l2.3-2.4c0.4-0.4,0.7-0.7,0.9-0.9s0.4-0.5,0.5-0.8s0.2-0.6,0.2-0.9
		c0-0.5-0.1-0.9-0.4-1.1c-0.3-0.2-0.7-0.3-1.3-0.3c-0.5,0-1.1,0.1-1.7,0.2l-0.3,0.1l-0.1-0.8c0.8-0.2,1.5-0.3,2.4-0.3
		c0.8,0,1.4,0.2,1.8,0.5s0.6,0.9,0.6,1.6c0,0.6-0.1,1-0.4,1.5s-0.7,0.9-1.3,1.5l-2.1,2.1h4V208.4z"/>
	<path class="st6" d="M118.5,200.4v0.8h-3.9l-0.2,2.6c0.6-0.3,1.2-0.5,1.9-0.5c1.7,0,2.5,0.8,2.5,2.3c0,0.9-0.2,1.6-0.7,2.1
		s-1.1,0.7-2,0.7c-0.7,0-1.4-0.1-2.2-0.3l-0.4-0.1l0.1-0.7c0.9,0.2,1.7,0.3,2.3,0.3s1.1-0.2,1.4-0.5s0.5-0.8,0.5-1.4s-0.1-1-0.4-1.2
		s-0.7-0.4-1.2-0.4c-0.3,0-0.6,0-0.9,0.1s-0.6,0.2-0.7,0.2l-0.3,0.1l-0.6-0.1l0.2-4.1L118.5,200.4L118.5,200.4z"/>
	<path class="st6" d="M120.4,208.4V207h1v1.4H120.4z"/>
	<path class="st6" d="M125.2,207.7c1.4,0,2.2-0.9,2.2-2.8c-0.8,0.3-1.5,0.5-2.1,0.5c-1.7,0-2.6-0.8-2.6-2.4c0-0.8,0.2-1.4,0.7-1.9
		s1.2-0.7,2-0.7c1,0,1.7,0.4,2.2,1.1s0.7,1.8,0.7,3.2s-0.3,2.4-0.8,3s-1.3,0.9-2.3,0.9c-0.6,0-1.2-0.1-1.9-0.2H123l0.1-0.7
		C123.8,207.6,124.5,207.7,125.2,207.7z M125.4,204.5c0.5,0,1.1-0.1,1.7-0.3l0.3-0.1c0-2-0.7-3-1.9-3c-0.6,0-1,0.2-1.3,0.5
		s-0.5,0.8-0.5,1.3C123.7,204,124.3,204.5,125.4,204.5z"/>
	<path class="st6" d="M132.4,200.3c0.7,0,1.2,0.1,1.6,0.4c0.9,0.5,1.3,1.8,1.3,3.8c0,1.4-0.2,2.5-0.7,3.1s-1.2,0.9-2.2,0.9
		s-1.7-0.3-2.2-0.9s-0.7-1.6-0.7-3.1s0.2-2.6,0.7-3.2C130.7,200.6,131.4,200.3,132.4,200.3z M132.4,201.1c-0.5,0-0.8,0.1-1.1,0.3
		c-0.6,0.4-0.9,1.4-0.9,3.1c0,1.2,0.2,2,0.5,2.5s0.8,0.7,1.5,0.7s1.2-0.2,1.5-0.7s0.5-1.3,0.5-2.5s-0.1-2.1-0.5-2.6
		C133.6,201.4,133.1,201.1,132.4,201.1z"/>
	<path class="st6" d="M137.5,200.3c0.9,0,1.3,0.6,1.3,1.7c0,0.6-0.1,1-0.3,1.3s-0.6,0.4-1,0.4s-0.7-0.1-1-0.4
		c-0.2-0.3-0.3-0.7-0.3-1.3C136.2,200.9,136.7,200.3,137.5,200.3z M136.9,202c0,0.7,0.2,1.1,0.6,1.1s0.6-0.4,0.6-1.1
		c0-0.4,0-0.6-0.1-0.8s-0.2-0.3-0.5-0.3c-0.2,0-0.4,0.1-0.5,0.3C137,201.4,136.9,201.6,136.9,202z M137.7,208.4l2.5-8.2l0.6,0.2
		l-2.5,8.2L137.7,208.4z M139.6,206.8c0-1.1,0.4-1.6,1.3-1.6s1.3,0.6,1.3,1.7c0,0.6-0.1,1-0.3,1.3s-0.6,0.4-1,0.4s-0.7-0.1-1-0.4
		S139.6,207.3,139.6,206.8z M140.4,206.8c0,0.7,0.2,1.1,0.6,1.1c0.2,0,0.4-0.1,0.5-0.3s0.1-0.4,0.1-0.8c0-0.4,0-0.6-0.1-0.8
		s-0.2-0.2-0.5-0.2c-0.2,0-0.4,0.1-0.5,0.2C140.4,206.2,140.4,206.4,140.4,206.8z"/>
</g>
</svg>
