<?xml version="1.0" encoding="utf-8"?>
<!-- Generator: Adobe Illustrator 23.0.6, SVG Export Plug-In . SVG Version: 6.00 Build 0)  -->
<svg version="1.1" id="圖層_2" xmlns="http://www.w3.org/2000/svg" xmlns:xlink="http://www.w3.org/1999/xlink" x="0px" y="0px"
	 viewBox="0 0 375 251" style="enable-background:new 0 0 375 251;" xml:space="preserve">
<style type="text/css">
	.st0{fill:#0090D0;}
	.st1{fill:#963ED6;}
	.st2{fill:#4840FF;}
	.st3{fill:#FF9D00;}
	.st4{fill:#24AD6E;}
	.st5{enable-background:new    ;}
	.st6{fill:#FFFFFF;}
	.st7{fill:#6E6E6E;}
</style>
<g id="Group_91" transform="translate(-19.969 -6.468)">
	<g id="圖層_3">
		<g id="Group_91-2">
			<path id="Path_1108" class="st0" d="M140.2,138.9L89,141.1c0.4,5.5,1.2,10.9,2.4,16.3l49.6-12.6
				C140.7,142.8,140.4,140.9,140.2,138.9z"/>
			<path id="Path_1109" class="st1" d="M139.9,130.1l-51-4.5c-0.1,2-0.1,4-0.2,6c0,0.5,0,1,0,1.5l51.2-2.2
				C139.8,130.6,139.9,130.3,139.9,130.1z"/>
			<path id="Path_1110" class="st2" d="M90.2,112.3c-0.3,1.7-0.5,3.5-0.7,5.3l47.3,4.2L90.2,112.3z"/>
			<path id="Path_1111" class="st3" d="M207.7,63.7c37.5,0,67.9,30.4,67.9,67.9c0,4.9-0.5,9.8-1.6,14.5l49.4,13.5
				c15.4-63.9-24-128.2-87.9-143.6s-128.2,24-143.6,87.9c0,0.2-0.1,0.4-0.1,0.6l50.2,10.2C149.7,84.6,176.7,63.7,207.7,63.7z"/>
			<path id="Path_1112" class="st4" d="M207.7,199.4c-29.4,0-55.5-18.9-64.6-46.9l-49.7,12.6c18.6,63.1,84.7,99.2,147.8,80.6
				c38.1-11.2,68.1-40.6,80-78.5l-49.4-13.5C262.4,181.1,236.6,199.4,207.7,199.4z"/>
		</g>
	</g>
	<g>
		<g id="VGA_52.98_">
			<g class="st5">
				<path class="st6" d="M200,27.8h1.4l-3.3,12.5h-3.1l-3.3-12.5h1.4l2.9,11.2h1L200,27.8z"/>
				<path class="st6" d="M208.2,35.1v-1.2h3.4V40c-1.5,0.3-2.9,0.4-4,0.4c-1.8,0-3.1-0.5-3.8-1.6s-1.1-2.7-1.1-4.8
					c0-2.2,0.4-3.8,1.1-4.8c0.7-1.1,1.9-1.6,3.7-1.6c1.1,0,2.3,0.1,3.5,0.4l0.6,0.1l-0.1,1.2c-1.5-0.3-2.8-0.4-3.9-0.4
					c-1.4,0-2.3,0.4-2.8,1.2c-0.5,0.8-0.7,2.1-0.7,4c0,1.9,0.2,3.2,0.7,4c0.5,0.8,1.4,1.2,2.8,1.2c0.8,0,1.7-0.1,2.6-0.3v-3.8H208.2
					z"/>
				<path class="st6" d="M213.5,40.2l3.4-12.5h3l3.4,12.5H222l-0.9-3.2h-5.3l-0.9,3.2H213.5z M217.9,28.9l-1.9,6.8h4.7l-1.9-6.8
					H217.9z"/>
			</g>
			<g class="st5">
				<path class="st6" d="M194.9,46.3v0.8h-3.9l-0.2,2.6c0.6-0.3,1.2-0.5,1.9-0.5c1.7,0,2.5,0.8,2.5,2.3c0,0.9-0.2,1.6-0.7,2.1
					c-0.5,0.5-1.1,0.7-2,0.7c-0.7,0-1.4-0.1-2.2-0.3l-0.4-0.1l0.1-0.7c0.9,0.2,1.7,0.3,2.3,0.3s1.1-0.2,1.4-0.5
					c0.3-0.3,0.5-0.8,0.5-1.4s-0.1-1-0.4-1.2s-0.7-0.4-1.2-0.4c-0.3,0-0.6,0-0.9,0.1s-0.6,0.2-0.7,0.2l-0.3,0.1l-0.6-0.1l0.2-4.1
					H194.9z"/>
				<path class="st6" d="M199.4,46.2c0.7,0,1.2,0.1,1.6,0.4c0.9,0.5,1.3,1.8,1.3,3.8c0,1.4-0.2,2.5-0.7,3.1
					c-0.5,0.6-1.2,0.9-2.2,0.9s-1.7-0.3-2.2-0.9s-0.7-1.6-0.7-3.1c0-1.5,0.2-2.6,0.7-3.2C197.7,46.5,198.4,46.2,199.4,46.2z
					 M199.4,47c-0.5,0-0.8,0.1-1.1,0.3c-0.6,0.4-0.9,1.4-0.9,3.1c0,1.2,0.2,2,0.5,2.5s0.8,0.7,1.5,0.7s1.2-0.2,1.5-0.7
					s0.5-1.3,0.5-2.5s-0.1-2.1-0.5-2.6C200.5,47.2,200.1,47,199.4,47z"/>
				<path class="st6" d="M203.6,54.2v-1.4h1v1.4H203.6z"/>
				<path class="st6" d="M208.9,46.2c0.7,0,1.2,0.1,1.6,0.4c0.9,0.5,1.3,1.8,1.3,3.8c0,1.4-0.2,2.5-0.7,3.1
					c-0.5,0.6-1.2,0.9-2.2,0.9s-1.7-0.3-2.2-0.9s-0.7-1.6-0.7-3.1c0-1.5,0.2-2.6,0.7-3.2C207.2,46.5,207.9,46.2,208.9,46.2z
					 M208.9,47c-0.5,0-0.8,0.1-1.1,0.3c-0.6,0.4-0.9,1.4-0.9,3.1c0,1.2,0.2,2,0.5,2.5s0.8,0.7,1.5,0.7s1.2-0.2,1.5-0.7
					c0.3-0.5,0.5-1.3,0.5-2.5s-0.2-2.1-0.5-2.6S209.6,47,208.9,47z"/>
				<path class="st6" d="M213.2,47.1v-0.8h4.9v1.2l-3,6.8l-0.9-0.3l3-6.6v-0.3H213.2z"/>
				<path class="st6" d="M220.8,46.2c0.9,0,1.3,0.6,1.3,1.7c0,0.6-0.1,1-0.3,1.3c-0.2,0.3-0.6,0.4-1,0.4s-0.7-0.1-1-0.4
					c-0.2-0.3-0.3-0.7-0.3-1.3C219.5,46.7,219.9,46.2,220.8,46.2z M220.2,47.8c0,0.7,0.2,1.1,0.6,1.1c0.4,0,0.6-0.4,0.6-1.1
					c0-0.4,0-0.6-0.1-0.8c-0.1-0.2-0.2-0.3-0.5-0.3c-0.2,0-0.4,0.1-0.5,0.3C220.3,47.2,220.2,47.5,220.2,47.8z M221,54.3l2.5-8.2
					l0.6,0.2l-2.5,8.2L221,54.3z M222.9,52.6c0-1.1,0.4-1.6,1.3-1.6s1.3,0.6,1.3,1.7c0,0.6-0.1,1-0.3,1.3c-0.2,0.3-0.6,0.4-1,0.4
					s-0.7-0.1-1-0.4C223,53.6,222.9,53.2,222.9,52.6z M223.6,52.6c0,0.7,0.2,1.1,0.6,1.1c0.2,0,0.4-0.1,0.5-0.3
					c0.1-0.2,0.1-0.4,0.1-0.8c0-0.4,0-0.6-0.1-0.8c-0.1-0.2-0.2-0.2-0.5-0.2c-0.2,0-0.4,0.1-0.5,0.2C223.7,52,223.6,52.3,223.6,52.6
					z"/>
			</g>
		</g>
		<g id="MB_41.63_">
			<g class="st5">
				<path class="st6" d="M195.9,224.1v-12.5h2.5l3.5,10.5l3.5-10.5h2.5v12.5h-1.4v-11h-0.3l-3.6,10.5h-1.5l-3.6-10.5h-0.3v11H195.9z
					"/>
				<path class="st6" d="M211.2,211.6h4.5c1.2,0,2.2,0.3,2.8,0.8c0.6,0.5,0.9,1.3,0.9,2.4c0,0.8-0.1,1.4-0.4,1.8
					c-0.3,0.4-0.7,0.8-1.2,1c1.3,0.5,2,1.4,2,2.9c0,1.2-0.3,2.1-1,2.7c-0.7,0.5-1.6,0.8-2.9,0.8h-4.8V211.6z M215.7,212.9h-3.1v4.3
					h3.2c0.8,0,1.3-0.2,1.7-0.5c0.4-0.4,0.5-0.9,0.5-1.7c0-0.7-0.2-1.3-0.6-1.6S216.5,212.9,215.7,212.9z M215.8,218.4h-3.2v4.5h3.3
					c0.8,0,1.4-0.2,1.9-0.5c0.4-0.3,0.6-0.9,0.6-1.8c0-0.5-0.1-0.8-0.3-1.2c-0.2-0.3-0.4-0.5-0.7-0.7
					C216.9,218.5,216.4,218.4,215.8,218.4z"/>
			</g>
			<g class="st5">
				<path class="st6" d="M193.5,238.1v-1.5h-3.8v-0.7l2.3-5.7h1l-2.3,5.6h2.9v-2.5h0.9v2.5h1v0.8h-1v1.5H193.5z"/>
				<path class="st6" d="M200.3,238.1v-1.5h-3.8v-0.7l2.3-5.7h1l-2.3,5.6h2.9v-2.5h0.9v2.5h1v0.8h-1v1.5H200.3z"/>
				<path class="st6" d="M203.6,238.1v-1.4h1v1.4H203.6z"/>
				<path class="st6" d="M211.2,230.2v0.8h-3.9l-0.2,2.6c0.6-0.3,1.2-0.5,1.9-0.5c1.7,0,2.5,0.8,2.5,2.3c0,0.9-0.2,1.6-0.7,2.1
					c-0.5,0.5-1.1,0.7-2,0.7c-0.7,0-1.4-0.1-2.2-0.3l-0.4-0.1l0.1-0.7c0.9,0.2,1.7,0.3,2.3,0.3s1.1-0.2,1.4-0.5
					c0.3-0.3,0.5-0.8,0.5-1.4s-0.1-1-0.4-1.2s-0.7-0.4-1.2-0.4c-0.3,0-0.6,0-0.9,0.1c-0.3,0.1-0.6,0.2-0.7,0.2l-0.3,0.1l-0.6-0.1
					l0.2-4.1H211.2z"/>
				<path class="st6" d="M217,230.2v7.9h-0.9v-6.9l-2,1.3l-0.4-0.7l2.5-1.7H217z"/>
				<path class="st6" d="M220.8,230.1c0.9,0,1.3,0.6,1.3,1.7c0,0.6-0.1,1-0.3,1.3c-0.2,0.3-0.6,0.4-1,0.4s-0.7-0.1-1-0.4
					c-0.2-0.3-0.3-0.7-0.3-1.3C219.5,230.6,219.9,230.1,220.8,230.1z M220.2,231.7c0,0.7,0.2,1.1,0.6,1.1c0.4,0,0.6-0.4,0.6-1.1
					c0-0.4,0-0.6-0.1-0.8c-0.1-0.2-0.2-0.3-0.5-0.3c-0.2,0-0.4,0.1-0.5,0.3C220.3,231.1,220.2,231.4,220.2,231.7z M221,238.1
					l2.5-8.2l0.6,0.2l-2.5,8.2L221,238.1z M222.9,236.5c0-1.1,0.4-1.6,1.3-1.6s1.3,0.6,1.3,1.7c0,0.6-0.1,1-0.3,1.3
					c-0.2,0.3-0.6,0.4-1,0.4s-0.7-0.1-1-0.4C223,237.5,222.9,237.1,222.9,236.5z M223.6,236.5c0,0.7,0.2,1.1,0.6,1.1
					c0.2,0,0.4-0.1,0.5-0.3c0.1-0.2,0.1-0.4,0.1-0.8c0-0.4,0-0.6-0.1-0.8c-0.1-0.2-0.2-0.2-0.5-0.2c-0.2,0-0.4,0.1-0.5,0.2
					C223.7,235.9,223.6,236.2,223.6,236.5z"/>
			</g>
		</g>
		<g id="Brix_1.92_" transform="translate(-18 -47)">
			<g class="st5">
				<path class="st6" d="M67.1,177.8h3.5c1,0,1.7,0.2,2.2,0.6c0.5,0.4,0.7,1,0.7,1.9c0,0.6-0.1,1.1-0.3,1.4s-0.5,0.6-0.9,0.8
					c1,0.4,1.5,1.1,1.5,2.3c0,1-0.3,1.7-0.8,2.1s-1.3,0.6-2.2,0.6h-3.7V177.8z M70.6,178.8h-2.4v3.3h2.5c0.6,0,1-0.1,1.3-0.4
					c0.3-0.3,0.4-0.7,0.4-1.3c0-0.6-0.1-1-0.4-1.2S71.2,178.8,70.6,178.8z M70.7,183h-2.5v3.5h2.6c0.6,0,1.1-0.1,1.4-0.4
					c0.3-0.3,0.5-0.7,0.5-1.4c0-0.4-0.1-0.7-0.2-0.9c-0.1-0.2-0.3-0.4-0.5-0.5C71.6,183.1,71.2,183,70.7,183z"/>
				<path class="st6" d="M75.7,187.5v-7h1v1c0.8-0.6,1.7-0.9,2.6-1.1v1.1c-0.4,0.1-0.8,0.2-1.2,0.3c-0.4,0.2-0.7,0.3-1,0.4l-0.4,0.2
					v5.1H75.7z"/>
				<path class="st6" d="M80.6,178.9v-1.2h1.1v1.2H80.6z M80.6,187.5v-7h1.1v7H80.6z"/>
				<path class="st6" d="M83.1,180.5h1.1l1.7,2.7l1.7-2.7h1.1l-2.2,3.5l2.2,3.5h-1.1l-1.7-2.7l-1.7,2.7h-1.1l2.2-3.5L83.1,180.5z"/>
			</g>
			<g class="st5">
				<path class="st6" d="M68.1,192.2v7.3h-0.8v-6.3l-1.9,1.2l-0.4-0.6l2.3-1.5H68.1z"/>
				<path class="st6" d="M70.8,199.5v-1.3h0.9v1.3H70.8z"/>
				<path class="st6" d="M73.7,192.6c0.5-0.3,1.1-0.5,1.9-0.5c0.8,0,1.4,0.2,1.9,0.5c0.5,0.3,0.7,0.8,0.7,1.4c0,0.5-0.1,0.8-0.3,1
					c-0.2,0.2-0.5,0.5-0.9,0.7c0.4,0.2,0.8,0.4,1,0.7c0.2,0.3,0.3,0.6,0.3,1.1c0,1.4-0.9,2.1-2.7,2.1c-1.8,0-2.7-0.7-2.7-2
					c0-0.5,0.1-0.9,0.3-1.2s0.5-0.5,1-0.8c-0.4-0.2-0.7-0.4-0.9-0.7c-0.2-0.3-0.3-0.6-0.3-1C73,193.4,73.3,192.9,73.7,192.6z
					 M73.8,197.5c0,0.9,0.6,1.3,1.8,1.3c1.2,0,1.8-0.5,1.8-1.4c0-0.4-0.1-0.7-0.3-0.9c-0.2-0.2-0.5-0.3-1-0.5H75
					c-0.4,0.1-0.7,0.3-0.9,0.5C73.9,196.8,73.8,197.1,73.8,197.5z M77.4,194.1c0-0.8-0.6-1.2-1.7-1.2s-1.7,0.4-1.7,1.2
					c0,0.3,0.1,0.6,0.3,0.8c0.2,0.2,0.4,0.4,0.8,0.5h1.2c0.4-0.1,0.7-0.3,0.9-0.5C77.3,194.7,77.4,194.4,77.4,194.1z"/>
				<path class="st6" d="M80,192.6c0.5-0.3,1.1-0.5,1.9-0.5c0.8,0,1.4,0.2,1.9,0.5c0.5,0.3,0.7,0.8,0.7,1.4c0,0.5-0.1,0.8-0.3,1
					c-0.2,0.2-0.5,0.5-0.9,0.7c0.4,0.2,0.8,0.4,1,0.7c0.2,0.3,0.3,0.6,0.3,1.1c0,1.4-0.9,2.1-2.7,2.1c-1.8,0-2.7-0.7-2.7-2
					c0-0.5,0.1-0.9,0.3-1.2s0.5-0.5,1-0.8c-0.4-0.2-0.7-0.4-0.9-0.7c-0.2-0.3-0.3-0.6-0.3-1C79.3,193.4,79.5,192.9,80,192.6z
					 M80.1,197.5c0,0.9,0.6,1.3,1.8,1.3c1.2,0,1.8-0.5,1.8-1.4c0-0.4-0.1-0.7-0.3-0.9c-0.2-0.2-0.5-0.3-1-0.5h-1.2
					c-0.4,0.1-0.7,0.3-0.9,0.5C80.2,196.8,80.1,197.1,80.1,197.5z M83.6,194.1c0-0.8-0.6-1.2-1.7-1.2s-1.7,0.4-1.7,1.2
					c0,0.3,0.1,0.6,0.3,0.8c0.2,0.2,0.4,0.4,0.8,0.5h1.2c0.4-0.1,0.7-0.3,0.9-0.5C83.5,194.7,83.6,194.4,83.6,194.1z"/>
				<path class="st6" d="M86.6,192.1c0.8,0,1.2,0.5,1.2,1.5c0,0.5-0.1,0.9-0.3,1.2c-0.2,0.3-0.5,0.4-0.9,0.4s-0.7-0.1-0.9-0.4
					c-0.2-0.3-0.3-0.6-0.3-1.2C85.4,192.6,85.8,192.1,86.6,192.1z M86,193.6c0,0.7,0.2,1,0.5,1c0.4,0,0.5-0.3,0.5-1
					c0-0.3,0-0.6-0.1-0.7s-0.2-0.2-0.4-0.2s-0.3,0.1-0.4,0.2S86,193.3,86,193.6z M86.8,199.5L89,192l0.5,0.2l-2.3,7.5L86.8,199.5z
					 M88.5,198c0-1,0.4-1.5,1.2-1.5c0.8,0,1.2,0.5,1.2,1.5c0,0.5-0.1,0.9-0.3,1.2c-0.2,0.3-0.5,0.4-0.9,0.4s-0.7-0.1-0.9-0.4
					C88.6,199,88.5,198.6,88.5,198z M89.2,198c0,0.7,0.2,1,0.5,1c0.2,0,0.3-0.1,0.4-0.2c0.1-0.2,0.1-0.4,0.1-0.7
					c0-0.3,0-0.6-0.1-0.7c-0.1-0.1-0.2-0.2-0.4-0.2c-0.2,0-0.3,0.1-0.4,0.2C89.2,197.5,89.2,197.7,89.2,198z"/>
			</g>
		</g>
		<g id="SSD_1.13_" transform="translate(10 35)">
			<g class="st5">
				<path class="st6" d="M49.9,135.4c-1.4,0-2.1,0.5-2.1,1.6c0,0.6,0.2,1,0.5,1.2c0.3,0.2,1,0.4,2,0.7c1,0.2,1.7,0.5,2.1,0.9
					s0.6,0.9,0.6,1.7c0,2-1,3-3.1,3c-0.7,0-1.5-0.1-2.6-0.2l-0.5-0.1l0.1-0.9c1.3,0.2,2.2,0.3,2.9,0.3c1.4,0,2.1-0.6,2.1-1.9
					c0-0.5-0.2-0.9-0.5-1.1c-0.3-0.2-0.9-0.4-1.7-0.6c-1.1-0.2-1.9-0.5-2.3-0.9c-0.5-0.4-0.7-1-0.7-1.9c0-1.7,1-2.6,3.1-2.6
					c0.7,0,1.5,0.1,2.5,0.2l0.5,0.1l-0.1,0.9C51.4,135.4,50.4,135.4,49.9,135.4z"/>
				<path class="st6" d="M57.6,135.4c-1.4,0-2.1,0.5-2.1,1.6c0,0.6,0.2,1,0.5,1.2c0.3,0.2,1,0.4,2,0.7c1,0.2,1.7,0.5,2.1,0.9
					s0.6,0.9,0.6,1.7c0,2-1,3-3.1,3c-0.7,0-1.5-0.1-2.6-0.2l-0.5-0.1l0.1-0.9c1.3,0.2,2.2,0.3,2.9,0.3c1.4,0,2.1-0.6,2.1-1.9
					c0-0.5-0.2-0.9-0.5-1.1c-0.3-0.2-0.9-0.4-1.7-0.6c-1.1-0.2-1.9-0.5-2.3-0.9c-0.5-0.4-0.7-1-0.7-1.9c0-1.7,1-2.6,3.1-2.6
					c0.7,0,1.5,0.1,2.5,0.2l0.5,0.1l-0.1,0.9C59.1,135.4,58.1,135.4,57.6,135.4z"/>
				<path class="st6" d="M66.1,144.2h-3.5v-9.7h3.5c1.6,0,2.6,0.6,3.1,1.9c0.3,0.7,0.4,1.7,0.4,2.8c0,2.4-0.6,4-1.8,4.6
					C67.4,144.1,66.8,144.2,66.1,144.2z M68.6,139.3c0-1.9-0.4-3-1.2-3.5c-0.3-0.2-0.7-0.3-1.2-0.3h-2.4v7.8h2.4
					C67.7,143.3,68.6,142,68.6,139.3z"/>
			</g>
			<g class="st5">
				<path class="st6" d="M52.9,156.2h-4.6v-0.7l2.1-2.2c0.4-0.4,0.6-0.7,0.8-0.9c0.2-0.2,0.3-0.4,0.5-0.7c0.1-0.3,0.2-0.5,0.2-0.8
					c0-0.5-0.1-0.8-0.4-1c-0.3-0.2-0.7-0.3-1.2-0.3c-0.5,0-1,0.1-1.6,0.2l-0.3,0.1l-0.1-0.7c0.7-0.2,1.4-0.3,2.2-0.3
					c0.7,0,1.3,0.2,1.7,0.5c0.4,0.3,0.6,0.8,0.6,1.5c0,0.5-0.1,1-0.3,1.3c-0.2,0.4-0.6,0.8-1.2,1.4l-1.9,2h3.6V156.2z"/>
				<path class="st6" d="M54.5,156.2V155h0.9v1.3H54.5z"/>
				<path class="st6" d="M61.7,156.2H57v-0.7l2.1-2.2c0.4-0.4,0.6-0.7,0.8-0.9c0.2-0.2,0.3-0.4,0.5-0.7c0.1-0.3,0.2-0.5,0.2-0.8
					c0-0.5-0.1-0.8-0.4-1c-0.3-0.2-0.7-0.3-1.2-0.3c-0.5,0-1,0.1-1.6,0.2l-0.3,0.1l-0.1-0.7c0.7-0.2,1.4-0.3,2.2-0.3
					c0.7,0,1.3,0.2,1.7,0.5c0.4,0.3,0.6,0.8,0.6,1.5c0,0.5-0.1,1-0.3,1.3c-0.2,0.4-0.6,0.8-1.2,1.4l-1.9,2h3.6V156.2z"/>
				<path class="st6" d="M64,148.9c0.8,0,1.2,0.5,1.2,1.5c0,0.5-0.1,0.9-0.3,1.2c-0.2,0.3-0.5,0.4-0.9,0.4c-0.4,0-0.7-0.1-0.9-0.4
					c-0.2-0.3-0.3-0.6-0.3-1.2C62.8,149.4,63.2,148.9,64,148.9z M63.5,150.4c0,0.7,0.2,1,0.5,1s0.5-0.3,0.5-1c0-0.3,0-0.6-0.1-0.7
					c-0.1-0.2-0.2-0.2-0.4-0.2s-0.3,0.1-0.4,0.2C63.5,149.8,63.5,150.1,63.5,150.4z M64.2,156.3l2.3-7.5l0.5,0.2l-2.3,7.5
					L64.2,156.3z M66,154.8c0-1,0.4-1.5,1.2-1.5s1.2,0.5,1.2,1.5c0,0.5-0.1,0.9-0.3,1.2c-0.2,0.3-0.5,0.4-0.9,0.4
					c-0.4,0-0.7-0.1-0.9-0.4C66.1,155.7,66,155.3,66,154.8z M66.6,154.8c0,0.7,0.2,1,0.5,1c0.2,0,0.3-0.1,0.4-0.2
					c0.1-0.2,0.1-0.4,0.1-0.7c0-0.3,0-0.6-0.1-0.7c-0.1-0.1-0.2-0.2-0.4-0.2c-0.2,0-0.3,0.1-0.4,0.2
					C66.7,154.2,66.6,154.5,66.6,154.8z"/>
			</g>
		</g>
		<g id="Monitor_0.52_">
			<g class="st5">
				<path class="st6" d="M41.4,91.5v-9.7h1.9L46,90l2.7-8.2h1.9v9.7h-1.1V83h-0.2l-2.8,8.2h-1.2L42.6,83h-0.2v8.5H41.4z"/>
				<path class="st6" d="M52.7,88c0-1.3,0.2-2.2,0.7-2.8c0.5-0.6,1.2-0.9,2.3-0.9c1.1,0,1.9,0.3,2.3,0.9c0.5,0.6,0.7,1.5,0.7,2.8
					c0,1.3-0.2,2.2-0.6,2.8c-0.4,0.6-1.2,0.9-2.4,0.9s-1.9-0.3-2.4-0.9C52.9,90.2,52.7,89.3,52.7,88z M53.7,88c0,1,0.1,1.7,0.4,2.1
					c0.2,0.4,0.8,0.6,1.6,0.6c0.8,0,1.3-0.2,1.5-0.6s0.4-1.1,0.4-2.1c0-1-0.1-1.7-0.4-2.1c-0.3-0.4-0.8-0.6-1.5-0.6
					c-0.7,0-1.2,0.2-1.5,0.6C53.9,86.2,53.7,86.9,53.7,88z"/>
				<path class="st6" d="M61.5,91.5h-1.1v-7h1V85c0.8-0.4,1.5-0.6,2.2-0.6c0.9,0,1.6,0.3,1.9,0.8c0.3,0.5,0.5,1.4,0.5,2.7v3.7h-1
					v-3.7c0-1-0.1-1.6-0.3-2s-0.6-0.5-1.2-0.5c-0.3,0-0.6,0-0.9,0.1c-0.3,0.1-0.6,0.2-0.8,0.3l-0.3,0.1V91.5z"/>
				<path class="st6" d="M68.1,82.9v-1.2h1.1v1.2H68.1z M68.1,91.5v-7h1.1v7H68.1z"/>
				<path class="st6" d="M74.9,85.4h-2.2v3.3c0,0.8,0.1,1.3,0.2,1.6s0.4,0.4,0.8,0.4l1.2-0.1l0.1,0.9c-0.6,0.1-1.1,0.2-1.4,0.2
					c-0.7,0-1.2-0.2-1.5-0.5s-0.4-1-0.4-2v-3.7h-1v-0.9h1v-2.1h1v2.1h2.2V85.4z"/>
				<path class="st6" d="M76,88c0-1.3,0.2-2.2,0.7-2.8c0.5-0.6,1.2-0.9,2.3-0.9c1.1,0,1.9,0.3,2.3,0.9c0.5,0.6,0.7,1.5,0.7,2.8
					c0,1.3-0.2,2.2-0.6,2.8c-0.4,0.6-1.2,0.9-2.4,0.9s-1.9-0.3-2.4-0.9C76.2,90.2,76,89.3,76,88z M77.1,88c0,1,0.1,1.7,0.4,2.1
					c0.2,0.4,0.8,0.6,1.6,0.6c0.8,0,1.3-0.2,1.5-0.6s0.4-1.1,0.4-2.1c0-1-0.1-1.7-0.4-2.1c-0.3-0.4-0.8-0.6-1.5-0.6
					c-0.7,0-1.2,0.2-1.5,0.6C77.2,86.2,77.1,86.9,77.1,88z"/>
				<path class="st6" d="M83.8,91.5v-7h1v1c0.8-0.6,1.7-0.9,2.6-1.1v1.1c-0.4,0.1-0.8,0.2-1.2,0.3c-0.4,0.2-0.7,0.3-1,0.4l-0.4,0.2
					v5.1H83.8z"/>
			</g>
			<g class="st5">
				<path class="st6" d="M54.5,96.2v7.3h-0.8v-6.3l-1.9,1.2l-0.4-0.6l2.3-1.5H54.5z"/>
				<path class="st6" d="M57.2,103.5v-1.3h0.9v1.3H57.2z"/>
				<path class="st6" d="M59.8,96.4c0.7-0.2,1.4-0.3,2.2-0.3c0.8,0,1.4,0.2,1.7,0.5c0.4,0.3,0.5,0.8,0.5,1.4c0,0.3,0,0.6-0.1,0.7
					s-0.2,0.3-0.2,0.3c-0.1,0.1-0.1,0.2-0.2,0.2c-0.2,0.1-0.3,0.2-0.4,0.3l-0.1,0.1c0.4,0.2,0.7,0.4,0.9,0.6
					c0.2,0.2,0.3,0.6,0.3,1.2c0,0.7-0.2,1.3-0.6,1.7c-0.4,0.4-1,0.5-1.8,0.5c-0.6,0-1.3-0.1-2-0.2l-0.3-0.1l0.1-0.7
					c0.8,0.2,1.5,0.2,2.2,0.2c1,0,1.6-0.5,1.6-1.4c0-0.9-0.5-1.3-1.5-1.4h-1.5v-0.7H62c0.3,0,0.6-0.1,0.9-0.4c0.3-0.2,0.4-0.6,0.4-1
					s-0.1-0.7-0.3-0.9c-0.2-0.2-0.6-0.3-1.1-0.3c-0.6,0-1.2,0.1-1.7,0.2l-0.3,0.1L59.8,96.4z"/>
				<path class="st6" d="M69.2,103.5v-1.4h-3.5v-0.7l2.1-5.2h0.9l-2.1,5.1h2.6v-2.3H70v2.3h0.9v0.7H70v1.4H69.2z"/>
				<path class="st6" d="M73,96.1c0.8,0,1.2,0.5,1.2,1.5c0,0.5-0.1,0.9-0.3,1.2c-0.2,0.3-0.5,0.4-0.9,0.4s-0.7-0.1-0.9-0.4
					c-0.2-0.3-0.3-0.6-0.3-1.2C71.8,96.6,72.2,96.1,73,96.1z M72.4,97.6c0,0.7,0.2,1,0.5,1c0.4,0,0.5-0.3,0.5-1c0-0.3,0-0.6-0.1-0.7
					s-0.2-0.2-0.4-0.2s-0.3,0.1-0.4,0.2S72.4,97.3,72.4,97.6z M73.2,103.5l2.3-7.5l0.5,0.2l-2.3,7.5L73.2,103.5z M74.9,102
					c0-1,0.4-1.5,1.2-1.5c0.8,0,1.2,0.5,1.2,1.5c0,0.5-0.1,0.9-0.3,1.2c-0.2,0.3-0.5,0.4-0.9,0.4s-0.7-0.1-0.9-0.4
					C75,103,74.9,102.6,74.9,102z M75.6,102c0,0.7,0.2,1,0.5,1c0.2,0,0.3-0.1,0.4-0.2c0.1-0.2,0.1-0.4,0.1-0.7c0-0.3,0-0.6-0.1-0.7
					c-0.1-0.1-0.2-0.2-0.4-0.2c-0.2,0-0.3,0.1-0.4,0.2C75.6,101.5,75.6,101.7,75.6,102z"/>
			</g>
		</g>
		<rect x="88" y="96.6" transform="matrix(0.7894 -0.6139 0.6139 0.7894 -47.6682 77.0688)" class="st7" width="1" height="22.8"/>
		
			<rect x="71.9" y="134.7" transform="matrix(0.7502 -0.6613 0.6613 0.7502 -68.632 88.8528)" class="st7" width="22.7" height="1"/>
		
			<rect x="72.3" y="161.5" transform="matrix(0.4743 -0.8803 0.8803 0.4743 -96.8449 161.8103)" class="st7" width="29.5" height="1"/>
	</g>
</g>
</svg>
