<?xml version="1.0" encoding="utf-8"?>
<!-- Generator: Adobe Illustrator 23.0.6, SVG Export Plug-In . SVG Version: 6.00 Build 0)  -->
<svg version="1.1" id="圖層_1" xmlns="http://www.w3.org/2000/svg" xmlns:xlink="http://www.w3.org/1999/xlink" x="0px" y="0px"
	 viewBox="0 0 375 251" style="enable-background:new 0 0 375 251;" xml:space="preserve">
<style type="text/css">
	.st0{fill:#FE8C38;}
	.st1{fill:#24AD6E;}
	.st2{fill:#2876E0;}
	.st3{fill:#0090D0;}
	.st4{fill:#765EFC;}
	.st5{fill:#963ED6;}
	.st6{enable-background:new    ;}
	.st7{fill:#FFFFFF;}
	.st8{fill:#6E6E6E;}
</style>
<g>
	<path class="st0" d="M187.5,57.6c32.5,0,59.7,22.9,66.3,53.4l46.2-7.3c-11.7-60.3-69.4-101-130.5-91.4c-26.9,4.3-51.5,18-69.2,38.8
		c-16.8,19.7-26.5,44.6-27.4,70.4h46.8C121.8,85.9,151.3,57.6,187.5,57.6z"/>
	<path class="st1" d="M72.9,130.2c0.2,4.4,0.6,8.8,1.3,13.2l45.9-9.2c-0.2-1.3-0.3-2.7-0.4-4H72.9z"/>
	<path class="st2" d="M301.3,112.3l-46.3,7.3c0.2,1.9,0.3,3.9,0.3,5.9c0,23.2-11.6,43.6-29.3,55.9l23.8,40.3
		C286.5,197.9,306.4,155.7,301.3,112.3z"/>
	<path class="st3" d="M75.9,152c1.4,5.7,3.2,11.4,5.4,16.8l42.6-19.4c-0.8-2.2-1.5-4.4-2.1-6.6L75.9,152z"/>
	<path class="st4" d="M155.5,185.4l-24.7,39.7c34.6,19.8,76.6,20.2,111.5,1.1l-23.7-40.3c-9.3,4.8-19.9,7.5-31.1,7.5
		C175.9,193.4,165,190.5,155.5,185.4z"/>
	<path class="st5" d="M127.5,157.4l-42.6,19.4c8.9,17.7,22,32.7,38.4,43.7l24.7-39.7C139.5,174.7,132.5,166.7,127.5,157.4z"/>
</g>
<g id="韓國_47.59_" transform="translate(-11.119 -13.421)">
	<g class="st6">
		<path class="st7" d="M183.4,45.4h3v1.2h-3v3.2h-1.3v-3.2H179v-1.2h3.1v-1.5h-2.4V38h2.4v-1.5h-2.9v-1.2h2.9v-1.9h1.3v1.9h2.9v1.2
			h-2.9V38h2.5v5.9h-2.5V45.4z M180.8,40.4h3.8v-1.4h-3.8V40.4z M180.8,42.8h3.8v-1.4h-3.8V42.8z M195.3,38.5h-9.1v-1.1h2.7
			c0.1-0.4,0.1-0.9,0.2-1.5h-2v-1.1h2.1c0.1-0.5,0.1-1,0.1-1.4l1.2,0.1c0,0.4-0.1,0.9-0.1,1.4h3.5v2.5h1.4V38.5z M195.4,47.9h-3.2
			v1.9h-1.3v-1.9h-3.6c0.2-0.8,0.5-1.8,0.7-2.8h-1.2V44h4.1v-1h-3.3v-3.7h6.9V43h-2.3v1h2.8v1.1h-2.8v1.7h3.2V47.9z M188.8,42h4.3
			v-1.8h-4.3V42z M190.9,46.8v-1.7h-1.7c-0.1,0.6-0.3,1.2-0.4,1.7H190.9z M190.4,35.9c-0.1,0.5-0.1,1-0.2,1.5h2.6v-1.5H190.4z"/>
		<path class="st7" d="M212.8,34.2v15.7h-1.3v-0.8h-12.4v0.8h-1.3V34.2H212.8z M211.5,47.8V35.4h-12.4v12.4H211.5z M205.4,45.1
			c-1.9,0.4-3.8,0.7-5.3,1l-0.2-1c1.4-0.2,3.4-0.6,5.4-0.9L205.4,45.1z M209.8,39.9c-0.5,1.7-1.1,3.2-2,4.4c0.4,1,0.9,1.6,1.5,1.7
			c0.3,0.1,0.4-0.7,0.6-1.9c0.2,0.2,0.6,0.5,0.9,0.6c-0.2,2-0.8,2.7-1.8,2.3c-0.8-0.2-1.4-0.8-1.9-1.7c-0.7,0.8-1.5,1.5-2.4,2.1
			c-0.2-0.2-0.6-0.6-0.8-0.8c1.1-0.6,2-1.4,2.7-2.4c-0.5-1.4-0.8-3.3-1-5.3h-5.5v-1h5.4c-0.1-0.6-0.1-1.3-0.1-1.9h1.2
			c0,0.6,0.1,1.3,0.1,1.9h3.9v1h-3.8c0.1,1.5,0.4,3,0.7,4.1c0.6-1,1-2.1,1.3-3.3L209.8,39.9z M204.7,39.9v3.5h-4v-3.5H204.7z
			 M203.8,40.8h-2.1v1.8h2.1V40.8z M209.5,37.6c-0.4-0.4-1.2-1-1.9-1.3l0.6-0.7c0.7,0.3,1.5,0.8,1.9,1.2L209.5,37.6z"/>
	</g>
	<g class="st6">
		<path class="st7" d="M182.2,62.5v-1.5h-3.8v-0.7l2.3-5.7h1l-2.3,5.6h2.9v-2.5h0.9v2.5h1v0.8h-1v1.5H182.2z"/>
		<path class="st7" d="M185.9,54.9c0.5-0.3,1.2-0.5,2.1-0.5s1.6,0.2,2.1,0.5c0.5,0.3,0.8,0.9,0.8,1.5c0,0.5-0.1,0.9-0.3,1.1
			c-0.2,0.3-0.5,0.5-1,0.7c0.5,0.2,0.8,0.5,1.1,0.8s0.4,0.7,0.4,1.2c0,1.5-1,2.3-3,2.3c-2,0-3-0.7-3-2.1c0-0.6,0.1-1,0.3-1.3
			c0.2-0.3,0.6-0.6,1-0.8c-0.4-0.2-0.7-0.5-0.9-0.7s-0.3-0.7-0.3-1.1C185.2,55.8,185.4,55.3,185.9,54.9z M186.1,60.3
			c0,1,0.7,1.5,2,1.5s2-0.5,2-1.5c0-0.4-0.1-0.7-0.4-0.9c-0.2-0.2-0.6-0.4-1-0.5h-1.3c-0.4,0.1-0.8,0.3-1,0.5
			C186.2,59.5,186.1,59.9,186.1,60.3z M189.9,56.6c0-0.9-0.6-1.3-1.9-1.3c-1.2,0-1.9,0.4-1.9,1.3c0,0.4,0.1,0.6,0.3,0.9
			c0.2,0.2,0.5,0.4,0.9,0.5h1.3c0.4-0.1,0.8-0.3,1-0.5C189.8,57.2,189.9,56.9,189.9,56.6z"/>
		<path class="st7" d="M192.3,62.5v-1.4h1v1.4H192.3z"/>
		<path class="st7" d="M199.9,54.5v0.8h-3.9l-0.2,2.6c0.6-0.3,1.2-0.5,1.9-0.5c1.7,0,2.5,0.8,2.5,2.3c0,0.9-0.2,1.6-0.7,2.1
			c-0.5,0.5-1.1,0.7-2,0.7c-0.7,0-1.4-0.1-2.2-0.3l-0.4-0.1l0.1-0.7c0.9,0.2,1.7,0.3,2.3,0.3s1.1-0.2,1.4-0.5
			c0.3-0.3,0.5-0.8,0.5-1.4s-0.1-1-0.4-1.2s-0.7-0.4-1.2-0.4c-0.3,0-0.6,0-0.9,0.1c-0.3,0.1-0.6,0.2-0.7,0.2l-0.3,0.1l-0.6-0.1
			l0.2-4.1H199.9z"/>
		<path class="st7" d="M205.7,54.5v7.9h-0.9v-6.9l-2,1.3l-0.4-0.7l2.5-1.7H205.7z"/>
		<path class="st7" d="M209.5,54.4c0.9,0,1.3,0.6,1.3,1.7c0,0.6-0.1,1-0.3,1.3c-0.2,0.3-0.6,0.4-1,0.4s-0.7-0.1-1-0.4
			c-0.2-0.3-0.3-0.7-0.3-1.3C208.2,55,208.6,54.4,209.5,54.4z M208.9,56.1c0,0.7,0.2,1.1,0.6,1.1c0.4,0,0.6-0.4,0.6-1.1
			c0-0.4,0-0.6-0.1-0.8c-0.1-0.2-0.2-0.3-0.5-0.3c-0.2,0-0.4,0.1-0.5,0.3C208.9,55.5,208.9,55.7,208.9,56.1z M209.7,62.5l2.5-8.2
			l0.6,0.2l-2.5,8.2L209.7,62.5z M211.6,60.9c0-1.1,0.4-1.6,1.3-1.6s1.3,0.6,1.3,1.7c0,0.6-0.1,1-0.3,1.3c-0.2,0.3-0.6,0.4-1,0.4
			s-0.7-0.1-1-0.4C211.7,61.9,211.6,61.4,211.6,60.9z M212.3,60.9c0,0.7,0.2,1.1,0.6,1.1c0.2,0,0.4-0.1,0.5-0.3
			c0.1-0.2,0.1-0.4,0.1-0.8c0-0.4,0-0.6-0.1-0.8c-0.1-0.2-0.2-0.2-0.5-0.2c-0.2,0-0.4,0.1-0.5,0.2C212.3,60.3,212.3,60.5,212.3,60.9
			z"/>
	</g>
</g>
<g id="澳大利亞_18.58_" transform="translate(-19.329 -13.421)">
	<g class="st6">
		<path class="st7" d="M256.9,169c-0.6-0.6-1.9-1.5-3-2.1l0.7-0.9c1,0.6,2.4,1.4,3,2L256.9,169z M258.1,171.1
			c-0.8,1.8-1.8,4-2.6,5.6l-1.1-0.8c0.8-1.4,1.9-3.6,2.8-5.6L258.1,171.1z M257.8,164.2c-0.6-0.7-1.9-1.6-3-2.2l0.8-0.8
			c1,0.6,2.3,1.5,3,2.1L257.8,164.2z M270.3,172.1v1.2h-5.9c-0.7,2-2.3,3.2-5.8,4c-0.1-0.3-0.5-0.8-0.7-1.1c3-0.5,4.5-1.5,5.2-2.9
			h-4.8v-1.2h5.2c0.1-0.3,0.1-0.7,0.2-1h1.3c-0.1,0.4-0.1,0.7-0.2,1H270.3z M260.4,171.1h-1.2v-8.6h3.8c0.3-0.6,0.5-1.3,0.6-1.8
			l1.5,0.3c-0.2,0.5-0.5,1-0.7,1.5h5.1v7.6c0,0.5-0.1,0.8-0.4,1c-0.3,0.2-0.8,0.2-1.5,0.2c-0.1-0.3-0.3-0.7-0.4-1h0.9
			c0.1,0,0.2-0.1,0.2-0.2v-6.5h-7.9V171.1z M263.8,170.7v-2.1c-0.6,0.9-1.5,1.7-2.4,2.2c-0.1-0.2-0.5-0.6-0.6-0.7
			c0.9-0.4,1.9-1.3,2.6-2.2h-2.3V167h1.3c-0.1-0.4-0.4-0.9-0.7-1.3l0.7-0.3c0.3,0.4,0.6,1,0.8,1.4l-0.5,0.3h1.2v-1.8
			c-0.8,0.1-1.6,0.2-2.3,0.2c0-0.2-0.2-0.5-0.3-0.7c1.8-0.1,4-0.4,5.3-0.7l0.6,0.7c-0.6,0.2-1.5,0.3-2.3,0.5v1.9h1.2l-0.5-0.2
			c0.3-0.4,0.6-1.1,0.8-1.5l0.8,0.3c-0.3,0.5-0.6,1-0.9,1.4h1.5v0.8h-2.9v0c0.5,0.3,2.2,1.4,2.7,1.7l-0.5,0.8
			c-0.4-0.4-1.4-1.1-2.1-1.6v1.9H263.8z M265.5,173.5c1.5,0.9,3.6,2.1,4.8,2.9l-0.8,0.9c-1-0.8-3.2-2.1-4.7-3L265.5,173.5z"/>
		<path class="st7" d="M281.5,167.3c1.3,4,3.6,7.2,7.1,8.6c-0.3,0.3-0.8,0.9-1,1.3c-3.5-1.6-5.7-4.8-7.2-8.9
			c-0.9,3.5-2.8,6.9-7.2,8.9c-0.2-0.4-0.6-0.8-1-1.1c4.5-1.9,6.3-5.4,7-8.8h-6.6v-1.4h6.9c0.3-1.9,0.3-3.7,0.3-5.1h1.4
			c0,1.4,0,3.2-0.3,5.1h7.4v1.4H281.5z"/>
		<path class="st7" d="M295.7,166.2h3.7v1.2h-3.7v0.5c0.9,0.8,2.9,2.9,3.5,3.4l-0.8,1.1c-0.5-0.7-1.7-2-2.7-3v7.8h-1.3v-7.7
			c-0.9,2.1-2.2,4.1-3.4,5.3c-0.2-0.4-0.5-0.9-0.7-1.3c1.4-1.4,3-3.8,3.9-6.1h-3.5v-1.2h3.8v-3.1c-1.2,0.2-2.3,0.4-3.5,0.6
			c-0.1-0.3-0.3-0.8-0.4-1.1c2.6-0.4,5.7-1,7.4-1.7l1,1c-0.9,0.3-2,0.7-3.2,1V166.2z M302.1,172.8h-1.3v-9.9h1.3V172.8z M305.9,161
			v14.4c0,0.9-0.3,1.3-0.8,1.5c-0.6,0.2-1.6,0.3-3.2,0.3c-0.1-0.4-0.3-1-0.5-1.4c1.2,0,2.4,0,2.7,0c0.3,0,0.5-0.1,0.5-0.5V161H305.9
			z"/>
		<path class="st7" d="M324.8,175.2v1.2h-16.1v-1.2h5.3V172H310v-6h4.1v-2.8h-4.9v-1.2h15.1v1.2h-5v2.8h4.1v6h-0.6v0h-3.5v3.2H324.8
			z M315.3,170.8v4.4h2.7v-4.4h4.1v-3.7H318v-3.9h-2.7v4h-4v3.7H315.3z"/>
	</g>
	<g class="st6">
		<path class="st7" d="M275.8,181.9v7.9h-0.9V183l-2,1.3l-0.4-0.7l2.5-1.7H275.8z"/>
		<path class="st7" d="M279.2,182.3c0.5-0.3,1.2-0.5,2.1-0.5s1.6,0.2,2.1,0.5c0.5,0.3,0.8,0.9,0.8,1.5c0,0.5-0.1,0.9-0.3,1.1
			c-0.2,0.3-0.5,0.5-1,0.7c0.5,0.2,0.8,0.5,1.1,0.8c0.2,0.3,0.4,0.7,0.4,1.2c0,1.5-1,2.3-3,2.3c-2,0-3-0.7-3-2.1
			c0-0.6,0.1-1,0.3-1.3c0.2-0.3,0.6-0.6,1-0.8c-0.4-0.2-0.7-0.5-0.9-0.7c-0.2-0.3-0.3-0.7-0.3-1.1
			C278.4,183.2,278.7,182.7,279.2,182.3z M279.3,187.7c0,1,0.7,1.5,2,1.5c1.3,0,2-0.5,2-1.5c0-0.4-0.1-0.7-0.4-0.9
			c-0.2-0.2-0.6-0.4-1-0.5h-1.3c-0.4,0.1-0.8,0.3-1,0.5C279.4,186.9,279.3,187.2,279.3,187.7z M283.1,184c0-0.9-0.6-1.3-1.9-1.3
			s-1.9,0.4-1.9,1.3c0,0.4,0.1,0.6,0.3,0.9c0.2,0.2,0.5,0.4,0.9,0.5h1.3c0.4-0.1,0.8-0.3,1-0.5C283,184.6,283.1,184.3,283.1,184z"/>
		<path class="st7" d="M285.5,189.8v-1.4h1v1.4H285.5z"/>
		<path class="st7" d="M288.4,182.8v-0.8h4.9v1.2l-3,6.8l-0.9-0.3l3-6.6v-0.3H288.4z"/>
		<path class="st7" d="M295.1,182.1c0.8-0.2,1.6-0.3,2.4-0.3c0.9,0,1.5,0.2,1.9,0.5c0.4,0.3,0.6,0.9,0.6,1.6c0,0.4,0,0.6-0.1,0.8
			c-0.1,0.2-0.2,0.3-0.2,0.4c-0.1,0.1-0.1,0.2-0.2,0.3c-0.2,0.1-0.3,0.2-0.4,0.3l-0.1,0.1c0.5,0.2,0.8,0.4,1,0.6
			c0.2,0.3,0.3,0.7,0.3,1.3c0,0.8-0.2,1.4-0.6,1.8c-0.4,0.4-1.1,0.6-2,0.6c-0.7,0-1.4-0.1-2.2-0.2l-0.4-0.1l0.1-0.8
			c0.9,0.2,1.7,0.3,2.4,0.3c1.1,0,1.7-0.5,1.7-1.5c0-1-0.5-1.4-1.6-1.5H296v-0.8h1.6c0.3,0,0.7-0.1,1-0.4c0.3-0.3,0.5-0.6,0.5-1.1
			c0-0.4-0.1-0.8-0.4-1s-0.7-0.3-1.2-0.3c-0.6,0-1.3,0.1-1.9,0.2l-0.3,0.1L295.1,182.1z"/>
		<path class="st7" d="M302.7,181.8c0.9,0,1.3,0.6,1.3,1.7c0,0.6-0.1,1-0.3,1.3c-0.2,0.3-0.6,0.4-1,0.4s-0.7-0.1-1-0.4
			c-0.2-0.3-0.3-0.7-0.3-1.3C301.4,182.4,301.8,181.8,302.7,181.8z M302.1,183.5c0,0.7,0.2,1.1,0.6,1.1c0.4,0,0.6-0.4,0.6-1.1
			c0-0.4,0-0.6-0.1-0.8s-0.2-0.3-0.5-0.3s-0.4,0.1-0.5,0.3S302.1,183.1,302.1,183.5z M302.9,189.9l2.5-8.2l0.6,0.2l-2.5,8.2
			L302.9,189.9z M304.8,188.3c0-1.1,0.4-1.6,1.3-1.6s1.3,0.6,1.3,1.7c0,0.6-0.1,1-0.3,1.3s-0.6,0.4-1,0.4s-0.7-0.1-1-0.4
			C304.9,189.3,304.8,188.8,304.8,188.3z M305.5,188.3c0,0.7,0.2,1.1,0.6,1.1c0.2,0,0.4-0.1,0.5-0.3s0.1-0.4,0.1-0.8
			c0-0.4,0-0.6-0.1-0.8s-0.2-0.2-0.5-0.2s-0.4,0.1-0.5,0.2S305.5,187.9,305.5,188.3z"/>
	</g>
</g>
<g id="台灣_17.61_" transform="translate(-11.119 -12.421)">
	<g class="st6">
		<path class="st7" d="M190,214.6c1.7,1.5,3.8,3.7,4.8,5.2l-1.1,0.8c-0.3-0.5-0.6-1-1.1-1.5c-10.3,0.6-11.3,0.6-12,0.9
			c-0.1-0.3-0.3-1-0.4-1.3c0.4-0.1,0.9-0.5,1.5-1.1c0.6-0.6,2.7-2.8,4.1-5.1l1.3,0.6c-1.4,1.9-3,3.8-4.6,5.3l9.2-0.5
			c-0.8-0.9-1.7-1.9-2.6-2.6L190,214.6z M181.4,221.4h11.5v7.5h-1.4V228h-8.7v1h-1.4V221.4z M182.8,222.7v4h8.7v-4H182.8z"/>
		<path class="st7" d="M199.6,220.3c-0.5-0.6-1.7-1.4-2.6-1.9l0.8-0.9c0.9,0.5,2.1,1.2,2.6,1.8L199.6,220.3z M197.4,228.1
			c0.6-1.4,1.6-3.7,2.3-5.7l1,0.7c-0.6,1.9-1.4,4.1-2.1,5.7L197.4,228.1z M199.9,215.7c-0.5-0.6-1.6-1.4-2.5-2l0.8-0.9
			c0.9,0.5,2,1.3,2.5,1.9L199.9,215.7z M201.9,219.2c-0.2,0.9-0.5,1.9-0.8,2.5c-0.1-0.1-0.5-0.3-0.7-0.4c0.3-0.6,0.5-1.4,0.7-2.2
			L201.9,219.2z M204.3,218.4c-0.1-0.2-0.1-0.4-0.2-0.6c-2.4,0.3-2.9,0.4-3.1,0.6c0-0.2-0.2-0.5-0.3-0.7c0.3,0,0.5-0.3,0.8-0.6
			c0.2-0.2,0.6-0.7,1.1-1.3c-1.2,0.1-1.5,0.2-1.7,0.3c-0.1-0.2-0.2-0.5-0.3-0.7c0.2,0,0.4-0.2,0.6-0.5c0.2-0.3,0.8-1.3,1.1-2.2
			l0.8,0.3c-0.3,0.8-0.8,1.5-1.2,2.1l1.2-0.1c0.2-0.3,0.3-0.5,0.5-0.8l0.8,0.3c-0.6,1-1.4,2.1-2.2,2.9l1.6-0.2
			c-0.1-0.2-0.2-0.4-0.3-0.6l0.7-0.2c0.4,0.6,0.7,1.3,0.9,1.8L204.3,218.4z M212.7,225.4c0,0,0,0.4-0.1,0.5
			c-0.3,1.5-0.7,2.3-1.2,2.7c-0.4,0.3-0.8,0.3-1.4,0.3c-0.5,0-1.6,0-2.8-0.1c0-0.3-0.2-0.7-0.4-1c1.2,0.1,2.3,0.1,2.8,0.1
			c0.4,0,0.6,0,0.8-0.1c0.3-0.2,0.5-0.7,0.8-1.5h-9.5c0.3-0.8,0.6-1.8,0.8-2.7h8.1v-0.9h-8.8v-0.9h10v2.7h-8.3
			c-0.1,0.3-0.2,0.6-0.3,0.9H212.7z M202.7,221.3c0-0.6-0.2-1.5-0.4-2.2l0.7-0.2c0.2,0.7,0.4,1.6,0.4,2.1L202.7,221.3z M204.3,218.7
			c0.3,0.6,0.6,1.4,0.6,1.9l-0.7,0.3c-0.1-0.5-0.3-1.4-0.6-2L204.3,218.7z M209.1,215.2h-4.3v-0.8h1.9c-0.1-0.4-0.5-1-0.7-1.4
			l0.9-0.2c0.3,0.4,0.6,1,0.8,1.4l-0.8,0.2h2.2V215.2z M205.3,218.5h3.4v2.6h-3.4V218.5z M208.6,216.5h-3.3v-0.8h3.3V216.5z
			 M205.3,217.1h3.3v0.7h-3.3V217.1z M206.1,220.4h1.6v-1.2h-1.6V220.4z M210.3,219.1c-0.2,0.9-0.5,1.8-0.8,2.5
			c-0.1-0.1-0.5-0.4-0.7-0.5c0.4-0.6,0.6-1.4,0.7-2.2L210.3,219.1z M212.7,218.5c-0.1-0.2-0.1-0.4-0.3-0.7c-2.5,0.3-2.9,0.5-3.2,0.5
			c-0.1-0.1-0.2-0.5-0.3-0.7c0.3,0,0.5-0.3,0.8-0.6c0.2-0.2,0.6-0.7,1.1-1.4c-1.2,0.1-1.5,0.2-1.7,0.3c-0.1-0.2-0.2-0.5-0.3-0.7
			c0.2,0,0.3-0.2,0.5-0.5c0.2-0.3,0.8-1.3,1.1-2.2l0.8,0.3c-0.3,0.7-0.8,1.5-1.2,2.1l1.2-0.1c0.2-0.3,0.3-0.5,0.5-0.8l0.8,0.4
			c-0.6,1-1.4,2-2.2,2.9l1.6-0.2c-0.1-0.2-0.2-0.4-0.3-0.6l0.6-0.3c0.4,0.6,0.8,1.4,0.9,1.9L212.7,218.5z M211.1,221.5
			c0-0.6-0.2-1.6-0.5-2.4l0.7-0.2c0.3,0.8,0.4,1.7,0.5,2.3L211.1,221.5z M212.6,218.6c0.4,0.7,0.7,1.7,0.8,2.3l-0.7,0.3
			c-0.1-0.6-0.4-1.6-0.7-2.4L212.6,218.6z"/>
	</g>
	<g class="st6">
		<path class="st7" d="M182.5,233.7v7.9h-0.9v-6.9l-2,1.3l-0.4-0.7l2.5-1.7H182.5z"/>
		<path class="st7" d="M190.4,233.7v0.8h-3.9l-0.2,2.6c0.6-0.3,1.2-0.5,1.9-0.5c1.7,0,2.5,0.8,2.5,2.3c0,0.9-0.2,1.6-0.7,2.1
			c-0.5,0.5-1.1,0.7-2,0.7c-0.7,0-1.4-0.1-2.2-0.3l-0.4-0.1l0.1-0.7c0.9,0.2,1.7,0.3,2.3,0.3s1.1-0.2,1.4-0.5
			c0.3-0.3,0.5-0.8,0.5-1.4s-0.1-1-0.4-1.2s-0.7-0.4-1.2-0.4c-0.3,0-0.6,0-0.9,0.1c-0.3,0.1-0.6,0.2-0.7,0.2l-0.3,0.1l-0.6-0.1
			l0.2-4.1H190.4z"/>
		<path class="st7" d="M192.3,241.6v-1.4h1v1.4H192.3z"/>
		<path class="st7" d="M197.2,240.9c1.4,0,2.2-0.9,2.2-2.8c-0.8,0.3-1.5,0.5-2.1,0.5c-1.7,0-2.6-0.8-2.6-2.4c0-0.8,0.2-1.4,0.7-1.9
			s1.2-0.7,2-0.7c1,0,1.7,0.4,2.2,1.1c0.5,0.7,0.7,1.8,0.7,3.2c0,1.4-0.3,2.4-0.8,3s-1.3,0.9-2.3,0.9c-0.6,0-1.2-0.1-1.9-0.2l-0.3,0
			l0.1-0.7C195.8,240.9,196.5,240.9,197.2,240.9z M197.3,237.8c0.5,0,1.1-0.1,1.7-0.3l0.3-0.1c0-2-0.7-3-1.9-3c-0.6,0-1,0.2-1.3,0.5
			c-0.3,0.3-0.5,0.8-0.5,1.3C195.6,237.2,196.2,237.8,197.3,237.8z"/>
		<path class="st7" d="M201.9,234.5v-0.8h4.9v1.2l-3,6.8l-0.9-0.3l3-6.6v-0.3H201.9z"/>
		<path class="st7" d="M209.5,233.6c0.9,0,1.3,0.6,1.3,1.7c0,0.6-0.1,1-0.3,1.3c-0.2,0.3-0.6,0.4-1,0.4s-0.7-0.1-1-0.4
			c-0.2-0.3-0.3-0.7-0.3-1.3C208.2,234.1,208.6,233.6,209.5,233.6z M208.9,235.2c0,0.7,0.2,1.1,0.6,1.1c0.4,0,0.6-0.4,0.6-1.1
			c0-0.4,0-0.6-0.1-0.8c-0.1-0.2-0.2-0.3-0.5-0.3c-0.2,0-0.4,0.1-0.5,0.3C208.9,234.6,208.9,234.9,208.9,235.2z M209.7,241.6
			l2.5-8.2l0.6,0.2l-2.5,8.2L209.7,241.6z M211.6,240c0-1.1,0.4-1.6,1.3-1.6s1.3,0.6,1.3,1.7c0,0.6-0.1,1-0.3,1.3
			c-0.2,0.3-0.6,0.4-1,0.4s-0.7-0.1-1-0.4C211.7,241,211.6,240.6,211.6,240z M212.3,240c0,0.7,0.2,1.1,0.6,1.1
			c0.2,0,0.4-0.1,0.5-0.3c0.1-0.2,0.1-0.4,0.1-0.8c0-0.4,0-0.6-0.1-0.8c-0.1-0.2-0.2-0.2-0.5-0.2c-0.2,0-0.4,0.1-0.5,0.2
			C212.3,239.4,212.3,239.7,212.3,240z"/>
	</g>
</g>
<g id="日本_3.48_" transform="translate(-10.329 -14.421)">
	<g class="st6">
		<path class="st7" d="M123.1,188.7v14.9h-1.4v-1.1h-8.9v1.2h-1.4v-15H123.1z M112.8,190v4.9h8.9V190H112.8z M121.7,201.2v-5h-8.9v5
			H121.7z"/>
		<path class="st7" d="M137.6,192.6c1.3,3,3.6,5.9,6,7.3c-0.3,0.3-0.8,0.8-1,1.1c-2.7-1.7-5-4.9-6.3-8.4H136v6.6h4.2v1.3H136v3.3
			h-1.4v-3.3h-4.2v-1.3h4.2v-6.6h-0.3c-1.4,3.5-3.7,6.7-6.3,8.5c-0.2-0.3-0.6-0.8-1-1.1c2.4-1.5,4.6-4.4,5.9-7.4h-5.4v-1.3h7.1v-3.8
			h1.4v3.8h7.1v1.3H137.6z"/>
	</g>
	<g class="st6">
		<path class="st7" d="M114.2,215.8c1.4,0,2.2-0.9,2.2-2.8c-0.8,0.3-1.5,0.5-2.1,0.5c-1.7,0-2.6-0.8-2.6-2.4c0-0.8,0.2-1.4,0.7-1.9
			s1.2-0.7,2-0.7c1,0,1.7,0.4,2.2,1.1s0.7,1.8,0.7,3.2c0,1.4-0.3,2.4-0.8,3c-0.5,0.6-1.3,0.9-2.3,0.9c-0.6,0-1.2-0.1-1.9-0.2l-0.3,0
			l0.1-0.7C112.9,215.8,113.6,215.8,114.2,215.8z M114.4,212.7c0.5,0,1.1-0.1,1.7-0.3l0.3-0.1c0-2-0.7-3-1.9-3c-0.6,0-1,0.2-1.3,0.5
			c-0.3,0.3-0.5,0.8-0.5,1.3C112.7,212.2,113.3,212.7,114.4,212.7z"/>
		<path class="st7" d="M118.9,216.5v-1.4h1v1.4H118.9z"/>
		<path class="st7" d="M123.8,215.8c1.4,0,2.2-0.9,2.2-2.8c-0.8,0.3-1.5,0.5-2.1,0.5c-1.7,0-2.6-0.8-2.6-2.4c0-0.8,0.2-1.4,0.7-1.9
			s1.2-0.7,2-0.7c1,0,1.7,0.4,2.2,1.1s0.7,1.8,0.7,3.2c0,1.4-0.3,2.4-0.8,3c-0.5,0.6-1.3,0.9-2.3,0.9c-0.6,0-1.2-0.1-1.9-0.2l-0.3,0
			l0.1-0.7C122.4,215.8,123.1,215.8,123.8,215.8z M123.9,212.7c0.5,0,1.1-0.1,1.7-0.3l0.3-0.1c0-2-0.7-3-1.9-3c-0.6,0-1,0.2-1.3,0.5
			c-0.3,0.3-0.5,0.8-0.5,1.3C122.2,212.2,122.8,212.7,123.9,212.7z"/>
		<path class="st7" d="M133.4,209.5c-0.7-0.1-1.4-0.1-2.1-0.1c-0.7,0-1.2,0.2-1.6,0.7c-0.4,0.5-0.6,1.1-0.6,2l0.3-0.1
			c0.2-0.1,0.5-0.1,0.8-0.2c0.3-0.1,0.6-0.1,0.9-0.1c1.8,0,2.7,0.8,2.7,2.5c0,0.8-0.2,1.5-0.7,1.9c-0.5,0.5-1.2,0.7-2,0.7
			c-1.9,0-2.8-1.4-2.8-4.1c0-1.4,0.3-2.4,0.8-3.1c0.5-0.7,1.3-1,2.3-1c0.6,0,1.3,0,1.8,0.1l0.3,0.1L133.4,209.5z M131.1,212.4
			c-0.3,0-0.6,0-0.9,0.1c-0.3,0.1-0.6,0.1-0.8,0.2l-0.3,0.1c0,0.9,0.2,1.6,0.5,2.2c0.3,0.5,0.8,0.8,1.4,0.8c0.6,0,1.1-0.2,1.4-0.5
			c0.3-0.3,0.5-0.7,0.5-1.3c0-0.6-0.2-1-0.5-1.3C132.1,212.5,131.6,212.4,131.1,212.4z"/>
		<path class="st7" d="M136.1,208.5c0.9,0,1.3,0.6,1.3,1.7c0,0.6-0.1,1-0.3,1.3c-0.2,0.3-0.6,0.4-1,0.4s-0.7-0.1-1-0.4
			c-0.2-0.3-0.3-0.7-0.3-1.3C134.8,209.1,135.2,208.5,136.1,208.5z M135.5,210.2c0,0.7,0.2,1.1,0.6,1.1s0.6-0.4,0.6-1.1
			c0-0.4,0-0.6-0.1-0.8c-0.1-0.2-0.2-0.3-0.5-0.3c-0.2,0-0.4,0.1-0.5,0.3C135.5,209.5,135.5,209.8,135.5,210.2z M136.3,216.6
			l2.5-8.2l0.6,0.2l-2.5,8.2L136.3,216.6z M138.2,215c0-1.1,0.4-1.6,1.3-1.6s1.3,0.6,1.3,1.7c0,0.6-0.1,1-0.3,1.3
			c-0.2,0.3-0.6,0.4-1,0.4s-0.7-0.1-1-0.4S138.2,215.5,138.2,215z M138.9,215c0,0.7,0.2,1.1,0.6,1.1c0.2,0,0.4-0.1,0.5-0.3
			c0.1-0.2,0.1-0.4,0.1-0.8c0-0.4,0-0.6-0.1-0.8c-0.1-0.2-0.2-0.2-0.5-0.2c-0.2,0-0.4,0.1-0.5,0.2
			C138.9,214.3,138.9,214.6,138.9,215z"/>
	</g>
</g>
<g id="香港_3.48_" transform="translate(-2.329 -13.421)">
	<g class="st6">
		<path class="st7" d="M44.4,181.8c2.2,1.2,4.6,2.6,5.9,3.7l-0.8,1.1c-1.4-1.3-4.3-3.1-6.7-4.4v3.1h-1.4v-3.2
			c-1.7,1.8-4.3,3.4-6.6,4.2c-0.2-0.3-0.6-0.8-0.9-1.1c2.2-0.7,4.6-2,6.2-3.5h-5.9v-1.2h7.2v-1.9c-1.8,0.2-3.7,0.3-5.4,0.4
			c0-0.3-0.2-0.8-0.3-1.1c4.1-0.2,8.8-0.7,11.4-1.4l1,1c-1.5,0.4-3.3,0.7-5.3,0.9v2h7.3v1.2H44.4z M36.9,185.9h10.8v7h-1.4v-0.6
			h-8.1v0.6h-1.3V185.9z M38.2,186.9v1.6h8.1v-1.6H38.2z M46.3,191.2v-1.7h-8.1v1.7H46.3z"/>
		<path class="st7" d="M55,184.5c-0.6-0.5-1.9-1.3-2.9-1.8l0.8-1c1,0.5,2.3,1.1,3,1.7L55,184.5z M56,187c-0.6,1.7-1.5,3.8-2.3,5.4
			l-1.2-0.8c0.7-1.3,1.7-3.5,2.4-5.4L56,187z M55.8,179.7c-0.6-0.6-1.8-1.4-2.7-1.9l0.8-0.9c0.9,0.5,2.1,1.2,2.8,1.8L55.8,179.7z
			 M60.2,189.1v1.8c0,0.6,0.2,0.7,1.3,0.7h4c0.9,0,1.1-0.3,1.2-2.1c0.3,0.2,0.8,0.4,1.1,0.5c-0.2,2.1-0.6,2.7-2.2,2.7h-4.1
			c-1.9,0-2.5-0.4-2.5-1.9v-4.9c-0.6,0.8-1.4,1.6-2.1,2.1c-0.2-0.3-0.6-0.8-0.9-1c1.3-0.8,2.6-2.4,3.4-4h-3.2v-1.2h3.2v-2.1h-2.4
			v-1.2h2.4v-2h1.3v2h3.5v-2h1.3v2h2.7v1.2h-2.7v2.1h3.2v1.2h-3.2c0.8,1.5,2,2.8,3.3,3.6c-0.3,0.2-0.8,0.7-1,1
			c-0.7-0.5-1.4-1.2-2.1-1.9v3.3H60.2z M60.7,183c-0.3,0.7-0.6,1.4-1.1,2h5.6c-0.4-0.6-0.8-1.3-1.1-2H60.7z M64.6,186.1h-4.4v2h4.4
			V186.1z M60.7,181.8h3.5v-2.1h-3.5V181.8z"/>
	</g>
	<g class="st6">
		<path class="st7" d="M37.1,197.8c0.8-0.2,1.6-0.3,2.4-0.3c0.9,0,1.5,0.2,1.9,0.5c0.4,0.3,0.6,0.9,0.6,1.6c0,0.4-0.1,0.6-0.1,0.8
			c-0.1,0.2-0.2,0.3-0.2,0.4c-0.1,0.1-0.1,0.2-0.2,0.3c-0.2,0.1-0.3,0.2-0.4,0.3l-0.1,0.1c0.5,0.2,0.8,0.4,1,0.6
			c0.2,0.3,0.3,0.7,0.3,1.3c0,0.8-0.2,1.4-0.6,1.8c-0.4,0.4-1.1,0.6-1.9,0.6c-0.7,0-1.4-0.1-2.2-0.2l-0.4-0.1l0.1-0.8
			c0.9,0.2,1.7,0.3,2.4,0.3c1.1,0,1.7-0.5,1.7-1.5c0-1-0.5-1.4-1.6-1.5H38V201h1.6c0.3,0,0.7-0.1,1-0.4c0.3-0.3,0.5-0.6,0.5-1.1
			c0-0.4-0.1-0.8-0.4-1s-0.7-0.3-1.2-0.3c-0.6,0-1.3,0.1-1.9,0.2l-0.3,0.1L37.1,197.8z"/>
		<path class="st7" d="M43.9,205.5v-1.4h1v1.4H43.9z"/>
		<path class="st7" d="M50.1,205.5V204h-3.8v-0.7l2.3-5.7h1l-2.3,5.6h2.9v-2.5H51v2.5h1v0.8h-1v1.5H50.1z"/>
		<path class="st7" d="M58.5,205.5h-5.1v-0.8l2.3-2.4c0.4-0.4,0.7-0.7,0.9-0.9s0.4-0.5,0.5-0.8s0.2-0.6,0.2-0.9
			c0-0.5-0.1-0.9-0.4-1.1c-0.3-0.2-0.7-0.3-1.3-0.3c-0.5,0-1.1,0.1-1.7,0.2l-0.3,0.1l-0.1-0.8c0.8-0.2,1.5-0.3,2.4-0.3
			c0.8,0,1.4,0.2,1.8,0.5c0.4,0.3,0.6,0.9,0.6,1.6c0,0.6-0.1,1-0.4,1.5s-0.7,0.9-1.3,1.5l-2.1,2.1h4V205.5z"/>
		<path class="st7" d="M61.1,197.5c0.9,0,1.3,0.6,1.3,1.7c0,0.6-0.1,1-0.3,1.3c-0.2,0.3-0.6,0.4-1,0.4s-0.7-0.1-1-0.4
			c-0.2-0.3-0.3-0.7-0.3-1.3C59.8,198.1,60.2,197.5,61.1,197.5z M60.5,199.2c0,0.7,0.2,1.1,0.6,1.1s0.6-0.4,0.6-1.1
			c0-0.4,0-0.6-0.1-0.8c-0.1-0.2-0.2-0.3-0.5-0.3c-0.2,0-0.4,0.1-0.5,0.3C60.5,198.5,60.5,198.8,60.5,199.2z M61.3,205.6l2.5-8.2
			l0.6,0.2l-2.5,8.2L61.3,205.6z M63.2,204c0-1.1,0.4-1.6,1.3-1.6c0.9,0,1.3,0.6,1.3,1.7c0,0.6-0.1,1-0.3,1.3
			c-0.2,0.3-0.6,0.4-1,0.4s-0.7-0.1-1-0.4S63.2,204.5,63.2,204z M63.9,204c0,0.7,0.2,1.1,0.6,1.1c0.2,0,0.4-0.1,0.5-0.3
			c0.1-0.2,0.1-0.4,0.1-0.8c0-0.4,0-0.6-0.1-0.8c-0.1-0.2-0.2-0.2-0.5-0.2c-0.2,0-0.4,0.1-0.5,0.2C63.9,203.3,63.9,203.6,63.9,204z"
			/>
	</g>
</g>
<g id="紐西蘭_3.30_" transform="translate(-10.329 -14.421)">
	<g class="st6">
		<path class="st7" d="M21.7,133.2c-0.2,1.5-0.5,3.2-0.9,4.3c-0.2-0.1-0.7-0.3-1-0.4c0.4-1.1,0.7-2.7,0.8-4.1L21.7,133.2z M25,128.2
			c0.5,1.1,1.1,2.6,1.3,3.5l-1,0.4c-0.1-0.2-0.1-0.5-0.2-0.8c-3.9,0.6-4.5,0.7-4.8,0.9c-0.1-0.3-0.3-0.9-0.4-1.2
			c0.4-0.1,0.8-0.5,1.3-1.2c0.3-0.3,0.8-1.1,1.5-2.1c-1.9,0.2-2.3,0.3-2.5,0.4c-0.1-0.3-0.3-0.9-0.4-1.2c0.3-0.1,0.6-0.4,1-1
			c0.4-0.5,1.6-2.6,2.4-4.6l1.2,0.5c-0.8,1.7-1.8,3.5-2.8,4.8l1.9-0.2c0.5-0.8,0.9-1.6,1.3-2.4l1.1,0.7c-1.2,2.1-2.6,4.2-4,5.8
			l2.9-0.4c-0.2-0.6-0.5-1.2-0.7-1.8L25,128.2z M23.4,132.9c0.2,1.2,0.4,2.7,0.5,3.8l-1,0.2c0-1-0.2-2.6-0.5-3.8L23.4,132.9z
			 M25.1,132.5c0.4,1,0.8,2.3,1,3.2l-1,0.3c-0.2-0.9-0.6-2.2-1-3.2L25.1,132.5z M34.4,130.3c-0.1,2.2-0.1,4.3-0.2,5.9h1.8v1.2h-9.4
			v-1.2h1.9c0.2-1.6,0.4-3.7,0.6-5.9h-2.7V129h2.8c0.1-1.9,0.3-3.7,0.4-5.4H27v-1.3h7.5c0,2,0,4.3-0.1,6.6h1.8v1.2H34.4z
			 M32.8,136.2c0.1-1.6,0.2-3.7,0.3-5.9h-2.8c-0.2,2.2-0.4,4.3-0.6,5.9H32.8z M30.7,123.7c-0.1,1.7-0.2,3.5-0.4,5.4h2.7
			c0.1-1.8,0.1-3.7,0.1-5.4H30.7z"/>
		<path class="st7" d="M48.7,124v2.6h4.5v11.3H52v-1H40.6v1.1h-1.3v-11.3h4.3V124h-5.3v-1.3h15.7v1.3H48.7z M52,135.5v-3.1h-0.2
			h-2.4c-1.5,0-1.8-0.4-1.8-1.8v-2.8h-2.6c-0.1,1.9-0.8,4-3.5,5.3c-0.1-0.3-0.5-0.7-0.8-0.9v3.3H52z M40.6,127.8v4.4
			c2.4-1.2,2.9-2.8,3-4.4H40.6z M47.5,124h-2.6v2.6h2.6V124z M48.7,127.8v2.8c0,0.5,0.1,0.5,0.7,0.5h2.2c0.2,0,0.3,0,0.4,0v-3.3
			H48.7z"/>
		<path class="st7" d="M60.2,123.6h-3.6v-1.1h3.6v-1h1.3v1H64v1.1h-2.5v0.9h-1.3V123.6z M58.6,129v8.9h-1.3v-13h6.1v4.1H58.6z
			 M58.6,125.8v0.8h3.7v-0.8H58.6z M62.3,128.1v-0.8h-3.7v0.8H62.3z M67.9,137.1c-0.5-0.4-2.1-1.5-3-2.1v2.6h-1.1v-2.5
			c-1,0.8-2.4,1.6-3.7,2.1c-0.2-0.3-0.5-0.6-0.7-0.8c1.3-0.3,2.7-1,3.7-1.7h-2.6v-3.3h3.3v-0.7h-3.9v-0.8h3.9v-1h1.1v1h4.1v0.8h-4.1
			v0.7h3.5v3.3h-2.8c1,0.5,2.5,1.4,2.9,1.7L67.9,137.1z M61.4,133.8h2.5v-1.7h-2.5V133.8z M62.6,132.3c0.3,0.3,0.6,0.8,0.8,1.1
			l-0.6,0.3c-0.2-0.3-0.5-0.8-0.8-1.2L62.6,132.3z M72.3,122.5v1.1h-3.6v0.9h-1.3v-0.9h-2.7v-1.1h2.7v-1h1.3v1H72.3z M67.4,132.1
			h-2.6v1.7h2.6V132.1z M71.5,136.4c0,0.7-0.2,1-0.6,1.2c-0.4,0.2-1.1,0.2-2.1,0.2c-0.1-0.3-0.3-0.8-0.4-1.1c0.7,0,1.4,0,1.6,0
			c0.2,0,0.3-0.1,0.3-0.3V129h-5.1v-4.1h6.4V136.4z M65.3,133.5c0.3-0.3,0.6-0.9,0.8-1.2l0.7,0.3c-0.3,0.5-0.7,0.8-1,1.2L65.3,133.5
			z M66.4,125.8v0.8h3.9v-0.8H66.4z M70.3,128.1v-0.8h-3.9v0.8H70.3z"/>
	</g>
	<g class="st6">
		<path class="st7" d="M32.1,142.8c0.8-0.2,1.6-0.3,2.4-0.3c0.9,0,1.5,0.2,1.9,0.5c0.4,0.3,0.6,0.9,0.6,1.6c0,0.4-0.1,0.6-0.1,0.8
			c-0.1,0.2-0.2,0.3-0.2,0.4c-0.1,0.1-0.1,0.2-0.2,0.3c-0.2,0.1-0.3,0.2-0.4,0.3l-0.1,0.1c0.5,0.2,0.8,0.4,1,0.6
			c0.2,0.3,0.3,0.7,0.3,1.3c0,0.8-0.2,1.4-0.6,1.8c-0.4,0.4-1.1,0.6-1.9,0.6c-0.7,0-1.4-0.1-2.2-0.2l-0.4-0.1l0.1-0.8
			c0.9,0.2,1.7,0.3,2.4,0.3c1.1,0,1.7-0.5,1.7-1.5c0-1-0.5-1.4-1.6-1.5H33V146h1.6c0.3,0,0.7-0.1,1-0.4c0.3-0.3,0.5-0.6,0.5-1.1
			c0-0.4-0.1-0.8-0.4-1s-0.7-0.3-1.2-0.3c-0.6,0-1.3,0.1-1.9,0.2l-0.3,0.1L32.1,142.8z"/>
		<path class="st7" d="M38.9,150.5v-1.4h1v1.4H38.9z"/>
		<path class="st7" d="M45.1,150.5V149h-3.8v-0.7l2.3-5.7h1l-2.3,5.6h2.9v-2.5H46v2.5h1v0.8h-1v1.5H45.1z"/>
		<path class="st7" d="M52.3,142.6v7.9h-0.9v-6.9l-2,1.3l-0.4-0.7l2.5-1.7H52.3z"/>
		<path class="st7" d="M56.1,142.5c0.9,0,1.3,0.6,1.3,1.7c0,0.6-0.1,1-0.3,1.3c-0.2,0.3-0.6,0.4-1,0.4s-0.7-0.1-1-0.4
			c-0.2-0.3-0.3-0.7-0.3-1.3C54.8,143.1,55.2,142.5,56.1,142.5z M55.5,144.2c0,0.7,0.2,1.1,0.6,1.1s0.6-0.4,0.6-1.1
			c0-0.4,0-0.6-0.1-0.8c-0.1-0.2-0.2-0.3-0.5-0.3c-0.2,0-0.4,0.1-0.5,0.3C55.5,143.5,55.5,143.8,55.5,144.2z M56.3,150.6l2.5-8.2
			l0.6,0.2l-2.5,8.2L56.3,150.6z M58.2,149c0-1.1,0.4-1.6,1.3-1.6s1.3,0.6,1.3,1.7c0,0.6-0.1,1-0.3,1.3c-0.2,0.3-0.6,0.4-1,0.4
			s-0.7-0.1-1-0.4S58.2,149.5,58.2,149z M58.9,149c0,0.7,0.2,1.1,0.6,1.1c0.2,0,0.4-0.1,0.5-0.3c0.1-0.2,0.1-0.4,0.1-0.8
			c0-0.4,0-0.6-0.1-0.8c-0.1-0.2-0.2-0.2-0.5-0.2c-0.2,0-0.4,0.1-0.5,0.2C58.9,148.3,58.9,148.6,58.9,149z"/>
	</g>
</g>
<rect x="69" y="162.1" transform="matrix(0.8478 -0.5304 0.5304 0.8478 -74.3085 66.344)" class="st8" width="18.9" height="1"/>
<rect x="71.9" y="122.2" transform="matrix(0.4104 -0.9119 0.9119 0.4104 -78.694 144.5332)" class="st8" width="1" height="21.9"/>
</svg>
