<?xml version="1.0" encoding="utf-8"?>
<!-- Generator: Adobe Illustrator 23.0.6, SVG Export Plug-In . SVG Version: 6.00 Build 0)  -->
<svg version="1.1" id="圖層_5" xmlns="http://www.w3.org/2000/svg" xmlns:xlink="http://www.w3.org/1999/xlink" x="0px" y="0px"
	 viewBox="0 0 697 159.5" style="enable-background:new 0 0 697 159.5;" xml:space="preserve">
<style type="text/css">
	.st0{opacity:0.5;fill:url(#SVGID_1_);enable-background:new    ;}
	.st1{opacity:0.5;fill:url(#SVGID_2_);enable-background:new    ;}
	.st2{enable-background:new    ;}
	.st3{fill:#ADADAD;}
	.st4{opacity:0.25;fill:#FFFFFF;enable-background:new    ;}
	.st5{fill:#FF6400;}
	.st6{fill:#24AD6E;}
	.st7{fill:#C6C6C6;}
</style>
<g>
	<linearGradient id="SVGID_1_" gradientUnits="userSpaceOnUse" x1="367.6302" y1="74.3073" x2="367.6302" y2="140.7613">
		<stop  offset="0" style="stop-color:#FF6400"/>
		<stop  offset="1" style="stop-color:#FF6400;stop-opacity:0"/>
	</linearGradient>
	<path class="st0" d="M673.4,140.1c0,0-39.7-66.4-38.6-66.4c1.1,0-114.7,0-114.7,0l-35.2,4.5H367.3l-36.9-9.7L214,66.3l-35.2,4h-117
		v73.2h611.5V140.1z"/>
	<linearGradient id="SVGID_2_" gradientUnits="userSpaceOnUse" x1="176.8528" y1="71.9397" x2="176.8528" y2="139.1111">
		<stop  offset="0" style="stop-color:#24AD6E"/>
		<stop  offset="1" style="stop-color:#24AD6E;stop-opacity:0"/>
	</linearGradient>
	<polygon class="st1" points="291.8,75.4 252.7,86.8 214,76 175.4,95.9 138.5,66.3 101.1,66.3 61.9,89 61.9,143.6 291.8,143.6 	"/>
	<g>
		<g class="st2">
			<path class="st3" d="M51.7,154.2h-2.8v-0.4l1.3-1.4c0.2-0.2,0.4-0.4,0.5-0.5c0.1-0.1,0.2-0.3,0.3-0.4c0.1-0.2,0.1-0.3,0.1-0.5
				c0-0.3-0.1-0.5-0.2-0.6c-0.2-0.1-0.4-0.2-0.7-0.2c-0.3,0-0.6,0-1,0.1l-0.2,0l0-0.4c0.4-0.1,0.9-0.2,1.3-0.2c0.4,0,0.8,0.1,1,0.3
				c0.2,0.2,0.3,0.5,0.3,0.9c0,0.3-0.1,0.6-0.2,0.8c-0.1,0.2-0.4,0.5-0.7,0.8l-1.2,1.2h2.2V154.2z"/>
			<path class="st3" d="M54,149.7c0.4,0,0.7,0.1,0.9,0.2c0.5,0.3,0.7,1,0.7,2.1c0,0.8-0.1,1.4-0.4,1.7c-0.3,0.3-0.7,0.5-1.2,0.5
				c-0.5,0-0.9-0.2-1.2-0.5c-0.3-0.3-0.4-0.9-0.4-1.7c0-0.8,0.1-1.4,0.4-1.8C53,149.9,53.4,149.7,54,149.7z M54,150.2
				c-0.3,0-0.5,0.1-0.6,0.2c-0.3,0.2-0.5,0.8-0.5,1.7c0,0.7,0.1,1.1,0.3,1.4c0.2,0.3,0.4,0.4,0.8,0.4c0.4,0,0.6-0.1,0.8-0.4
				c0.2-0.3,0.3-0.7,0.3-1.4s-0.1-1.2-0.3-1.4C54.6,150.3,54.4,150.2,54,150.2z"/>
			<path class="st3" d="M58.4,149.8v4.4h-0.5v-3.8l-1.1,0.7l-0.2-0.4l1.4-0.9H58.4z"/>
			<path class="st3" d="M61.2,153.8c0.8,0,1.2-0.5,1.2-1.5c-0.4,0.2-0.8,0.3-1.1,0.3c-1,0-1.4-0.4-1.4-1.3c0-0.4,0.1-0.8,0.4-1.1
				c0.3-0.3,0.6-0.4,1.1-0.4c0.5,0,0.9,0.2,1.2,0.6c0.3,0.4,0.4,1,0.4,1.8c0,0.8-0.1,1.3-0.4,1.7c-0.3,0.3-0.7,0.5-1.3,0.5
				c-0.3,0-0.7,0-1-0.1l-0.2,0l0-0.4C60.5,153.8,60.8,153.8,61.2,153.8z M61.3,152c0.3,0,0.6-0.1,0.9-0.2l0.2-0.1
				c0-1.1-0.4-1.7-1.1-1.7c-0.3,0-0.6,0.1-0.7,0.3c-0.2,0.2-0.3,0.4-0.3,0.7C60.4,151.8,60.7,152,61.3,152z"/>
			<path class="st3" d="M65.7,154.2v-0.9h-2.1v-0.4l1.3-3.1h0.6l-1.3,3.1h1.6v-1.4h0.5v1.4h0.6v0.5h-0.6v0.9H65.7z"/>
			<path class="st3" d="M69.6,149.8v4.4h-0.5v-3.8l-1.1,0.7l-0.2-0.4l1.4-0.9H69.6z"/>
		</g>
		<g class="st2">
			<path class="st3" d="M90,154.2h-2.8v-0.4l1.3-1.4c0.2-0.2,0.4-0.4,0.5-0.5c0.1-0.1,0.2-0.3,0.3-0.4c0.1-0.2,0.1-0.3,0.1-0.5
				c0-0.3-0.1-0.5-0.2-0.6c-0.2-0.1-0.4-0.2-0.7-0.2c-0.3,0-0.6,0-1,0.1l-0.2,0l0-0.4c0.4-0.1,0.9-0.2,1.3-0.2s0.8,0.1,1,0.3
				c0.2,0.2,0.3,0.5,0.3,0.9c0,0.3-0.1,0.6-0.2,0.8c-0.1,0.2-0.4,0.5-0.7,0.8l-1.2,1.2H90V154.2z"/>
			<path class="st3" d="M92.4,149.7c0.4,0,0.7,0.1,0.9,0.2c0.5,0.3,0.7,1,0.7,2.1c0,0.8-0.1,1.4-0.4,1.7c-0.3,0.3-0.7,0.5-1.2,0.5
				c-0.5,0-0.9-0.2-1.2-0.5c-0.3-0.3-0.4-0.9-0.4-1.7c0-0.8,0.1-1.4,0.4-1.8C91.4,149.9,91.8,149.7,92.4,149.7z M92.4,150.2
				c-0.3,0-0.5,0.1-0.6,0.2c-0.3,0.2-0.5,0.8-0.5,1.7c0,0.7,0.1,1.1,0.3,1.4c0.2,0.3,0.4,0.4,0.8,0.4c0.4,0,0.6-0.1,0.8-0.4
				c0.2-0.3,0.3-0.7,0.3-1.4s-0.1-1.2-0.3-1.4C93,150.3,92.7,150.2,92.4,150.2z"/>
			<path class="st3" d="M96.8,149.8v4.4h-0.5v-3.8l-1.1,0.7l-0.2-0.4l1.4-0.9H96.8z"/>
			<path class="st3" d="M99.6,153.8c0.8,0,1.2-0.5,1.2-1.5c-0.4,0.2-0.8,0.3-1.1,0.3c-1,0-1.4-0.4-1.4-1.3c0-0.4,0.1-0.8,0.4-1.1
				c0.3-0.3,0.6-0.4,1.1-0.4c0.5,0,0.9,0.2,1.2,0.6c0.3,0.4,0.4,1,0.4,1.8c0,0.8-0.1,1.3-0.4,1.7c-0.3,0.3-0.7,0.5-1.3,0.5
				c-0.3,0-0.7,0-1-0.1l-0.2,0l0-0.4C98.8,153.8,99.2,153.8,99.6,153.8z M99.7,152c0.3,0,0.6-0.1,0.9-0.2l0.2-0.1
				c0-1.1-0.4-1.7-1.1-1.7c-0.3,0-0.6,0.1-0.7,0.3c-0.2,0.2-0.3,0.4-0.3,0.7C98.8,151.8,99.1,152,99.7,152z"/>
			<path class="st3" d="M104.1,154.2v-0.9H102v-0.4l1.3-3.1h0.6l-1.3,3.1h1.6v-1.4h0.5v1.4h0.6v0.5h-0.6v0.9H104.1z"/>
			<path class="st3" d="M108.7,154.2h-2.8v-0.4l1.3-1.4c0.2-0.2,0.4-0.4,0.5-0.5c0.1-0.1,0.2-0.3,0.3-0.4c0.1-0.2,0.1-0.3,0.1-0.5
				c0-0.3-0.1-0.5-0.2-0.6c-0.2-0.1-0.4-0.2-0.7-0.2c-0.3,0-0.6,0-1,0.1l-0.2,0l0-0.4c0.4-0.1,0.9-0.2,1.3-0.2c0.4,0,0.8,0.1,1,0.3
				c0.2,0.2,0.3,0.5,0.3,0.9c0,0.3-0.1,0.6-0.2,0.8c-0.1,0.2-0.4,0.5-0.7,0.8l-1.2,1.2h2.2V154.2z"/>
		</g>
		<g class="st2">
			<path class="st3" d="M128.4,154.2h-2.8v-0.4l1.3-1.4c0.2-0.2,0.4-0.4,0.5-0.5c0.1-0.1,0.2-0.3,0.3-0.4c0.1-0.2,0.1-0.3,0.1-0.5
				c0-0.3-0.1-0.5-0.2-0.6c-0.2-0.1-0.4-0.2-0.7-0.2c-0.3,0-0.6,0-1,0.1l-0.2,0l0-0.4c0.4-0.1,0.9-0.2,1.3-0.2c0.4,0,0.8,0.1,1,0.3
				c0.2,0.2,0.3,0.5,0.3,0.9c0,0.3-0.1,0.6-0.2,0.8c-0.1,0.2-0.4,0.5-0.7,0.8l-1.2,1.2h2.2V154.2z"/>
			<path class="st3" d="M130.7,149.7c0.4,0,0.7,0.1,0.9,0.2c0.5,0.3,0.7,1,0.7,2.1c0,0.8-0.1,1.4-0.4,1.7c-0.3,0.3-0.7,0.5-1.2,0.5
				c-0.5,0-0.9-0.2-1.2-0.5c-0.3-0.3-0.4-0.9-0.4-1.7c0-0.8,0.1-1.4,0.4-1.8C129.8,149.9,130.2,149.7,130.7,149.7z M130.7,150.2
				c-0.3,0-0.5,0.1-0.6,0.2c-0.3,0.2-0.5,0.8-0.5,1.7c0,0.7,0.1,1.1,0.3,1.4c0.2,0.3,0.4,0.4,0.8,0.4s0.6-0.1,0.8-0.4
				c0.2-0.3,0.3-0.7,0.3-1.4s-0.1-1.2-0.3-1.4C131.4,150.3,131.1,150.2,130.7,150.2z"/>
			<path class="st3" d="M135.2,149.8v4.4h-0.5v-3.8l-1.1,0.7l-0.2-0.4l1.4-0.9H135.2z"/>
			<path class="st3" d="M138,153.8c0.8,0,1.2-0.5,1.2-1.5c-0.4,0.2-0.8,0.3-1.1,0.3c-1,0-1.4-0.4-1.4-1.3c0-0.4,0.1-0.8,0.4-1.1
				c0.3-0.3,0.6-0.4,1.1-0.4c0.5,0,0.9,0.2,1.2,0.6c0.3,0.4,0.4,1,0.4,1.8c0,0.8-0.1,1.3-0.4,1.7c-0.3,0.3-0.7,0.5-1.3,0.5
				c-0.3,0-0.7,0-1-0.1l-0.2,0l0-0.4C137.2,153.8,137.6,153.8,138,153.8z M138.1,152c0.3,0,0.6-0.1,0.9-0.2l0.2-0.1
				c0-1.1-0.4-1.7-1.1-1.7c-0.3,0-0.6,0.1-0.7,0.3c-0.2,0.2-0.3,0.4-0.3,0.7C137.1,151.8,137.5,152,138.1,152z"/>
			<path class="st3" d="M142.5,154.2v-0.9h-2.1v-0.4l1.3-3.1h0.6l-1.3,3.1h1.6v-1.4h0.5v1.4h0.6v0.5H143v0.9H142.5z"/>
			<path class="st3" d="M144.3,149.9c0.4-0.1,0.9-0.2,1.3-0.2c0.5,0,0.8,0.1,1,0.3c0.2,0.2,0.3,0.5,0.3,0.9c0,0.2,0,0.4-0.1,0.4
				c-0.1,0.1-0.1,0.2-0.1,0.2c0,0-0.1,0.1-0.1,0.1c-0.1,0.1-0.2,0.1-0.2,0.2l-0.1,0c0.3,0.1,0.4,0.2,0.6,0.4s0.2,0.4,0.2,0.7
				c0,0.4-0.1,0.8-0.3,1c-0.2,0.2-0.6,0.3-1.1,0.3c-0.4,0-0.8,0-1.2-0.1l-0.2,0l0-0.4c0.5,0.1,0.9,0.1,1.3,0.1c0.6,0,1-0.3,1-0.9
				c0-0.5-0.3-0.8-0.9-0.8h-0.9v-0.4h0.9c0.2,0,0.4-0.1,0.5-0.2c0.2-0.1,0.3-0.3,0.3-0.6s-0.1-0.4-0.2-0.5c-0.1-0.1-0.4-0.2-0.7-0.2
				c-0.4,0-0.7,0-1.1,0.1l-0.2,0L144.3,149.9z"/>
		</g>
		<g class="st2">
			<path class="st3" d="M166.8,154.2H164v-0.4l1.3-1.4c0.2-0.2,0.4-0.4,0.5-0.5c0.1-0.1,0.2-0.3,0.3-0.4s0.1-0.3,0.1-0.5
				c0-0.3-0.1-0.5-0.2-0.6c-0.2-0.1-0.4-0.2-0.7-0.2c-0.3,0-0.6,0-1,0.1l-0.2,0l0-0.4c0.4-0.1,0.9-0.2,1.3-0.2s0.8,0.1,1,0.3
				c0.2,0.2,0.3,0.5,0.3,0.9c0,0.3-0.1,0.6-0.2,0.8c-0.1,0.2-0.4,0.5-0.7,0.8l-1.2,1.2h2.2V154.2z"/>
			<path class="st3" d="M169.1,149.7c0.4,0,0.7,0.1,0.9,0.2c0.5,0.3,0.7,1,0.7,2.1c0,0.8-0.1,1.4-0.4,1.7c-0.3,0.3-0.7,0.5-1.2,0.5
				c-0.5,0-0.9-0.2-1.2-0.5c-0.3-0.3-0.4-0.9-0.4-1.7c0-0.8,0.1-1.4,0.4-1.8C168.2,149.9,168.6,149.7,169.1,149.7z M169.1,150.2
				c-0.3,0-0.5,0.1-0.6,0.2c-0.3,0.2-0.5,0.8-0.5,1.7c0,0.7,0.1,1.1,0.3,1.4c0.2,0.3,0.4,0.4,0.8,0.4s0.6-0.1,0.8-0.4
				c0.2-0.3,0.3-0.7,0.3-1.4s-0.1-1.2-0.3-1.4C169.8,150.3,169.5,150.2,169.1,150.2z"/>
			<path class="st3" d="M173.6,149.8v4.4h-0.5v-3.8l-1.1,0.7l-0.2-0.4l1.4-0.9H173.6z"/>
			<path class="st3" d="M176.4,153.8c0.8,0,1.2-0.5,1.2-1.5c-0.4,0.2-0.8,0.3-1.1,0.3c-1,0-1.4-0.4-1.4-1.3c0-0.4,0.1-0.8,0.4-1.1
				c0.3-0.3,0.6-0.4,1.1-0.4c0.5,0,0.9,0.2,1.2,0.6c0.3,0.4,0.4,1,0.4,1.8c0,0.8-0.1,1.3-0.4,1.7c-0.3,0.3-0.7,0.5-1.3,0.5
				c-0.3,0-0.7,0-1-0.1l-0.2,0l0-0.4C175.6,153.8,176,153.8,176.4,153.8z M176.5,152c0.3,0,0.6-0.1,0.9-0.2l0.2-0.1
				c0-1.1-0.4-1.7-1.1-1.7c-0.3,0-0.6,0.1-0.7,0.3c-0.2,0.2-0.3,0.4-0.3,0.7C175.5,151.8,175.8,152,176.5,152z"/>
			<path class="st3" d="M180.9,154.2v-0.9h-2.1v-0.4l1.3-3.1h0.6l-1.3,3.1h1.6v-1.4h0.5v1.4h0.6v0.5h-0.6v0.9H180.9z"/>
			<path class="st3" d="M184.6,154.2v-0.9h-2.1v-0.4l1.3-3.1h0.6l-1.3,3.1h1.6v-1.4h0.5v1.4h0.6v0.5h-0.6v0.9H184.6z"/>
		</g>
		<g class="st2">
			<path class="st3" d="M205.2,154.2h-2.8v-0.4l1.3-1.4c0.2-0.2,0.4-0.4,0.5-0.5c0.1-0.1,0.2-0.3,0.3-0.4s0.1-0.3,0.1-0.5
				c0-0.3-0.1-0.5-0.2-0.6c-0.2-0.1-0.4-0.2-0.7-0.2c-0.3,0-0.6,0-1,0.1l-0.2,0l0-0.4c0.4-0.1,0.9-0.2,1.3-0.2c0.4,0,0.8,0.1,1,0.3
				c0.2,0.2,0.3,0.5,0.3,0.9c0,0.3-0.1,0.6-0.2,0.8c-0.1,0.2-0.4,0.5-0.7,0.8l-1.2,1.2h2.2V154.2z"/>
			<path class="st3" d="M207.5,149.7c0.4,0,0.7,0.1,0.9,0.2c0.5,0.3,0.7,1,0.7,2.1c0,0.8-0.1,1.4-0.4,1.7c-0.3,0.3-0.7,0.5-1.2,0.5
				c-0.5,0-0.9-0.2-1.2-0.5c-0.3-0.3-0.4-0.9-0.4-1.7c0-0.8,0.1-1.4,0.4-1.8C206.6,149.9,207,149.7,207.5,149.7z M207.5,150.2
				c-0.3,0-0.5,0.1-0.6,0.2c-0.3,0.2-0.5,0.8-0.5,1.7c0,0.7,0.1,1.1,0.3,1.4c0.2,0.3,0.4,0.4,0.8,0.4s0.6-0.1,0.8-0.4
				c0.2-0.3,0.3-0.7,0.3-1.4s-0.1-1.2-0.3-1.4C208.2,150.3,207.9,150.2,207.5,150.2z"/>
			<path class="st3" d="M212,149.8v4.4h-0.5v-3.8l-1.1,0.7l-0.2-0.4l1.4-0.9H212z"/>
			<path class="st3" d="M214.8,153.8c0.8,0,1.2-0.5,1.2-1.5c-0.4,0.2-0.8,0.3-1.1,0.3c-1,0-1.4-0.4-1.4-1.3c0-0.4,0.1-0.8,0.4-1.1
				c0.3-0.3,0.6-0.4,1.1-0.4c0.5,0,0.9,0.2,1.2,0.6c0.3,0.4,0.4,1,0.4,1.8c0,0.8-0.1,1.3-0.4,1.7c-0.3,0.3-0.7,0.5-1.3,0.5
				c-0.3,0-0.7,0-1-0.1l-0.2,0l0-0.4C214,153.8,214.4,153.8,214.8,153.8z M214.9,152c0.3,0,0.6-0.1,0.9-0.2l0.2-0.1
				c0-1.1-0.4-1.7-1.1-1.7c-0.3,0-0.6,0.1-0.7,0.3c-0.2,0.2-0.3,0.4-0.3,0.7C213.9,151.8,214.2,152,214.9,152z"/>
			<path class="st3" d="M219.2,154.2v-0.9h-2.1v-0.4l1.3-3.1h0.6l-1.3,3.1h1.6v-1.4h0.5v1.4h0.6v0.5h-0.6v0.9H219.2z"/>
			<path class="st3" d="M223.7,149.8v0.5h-2.1l-0.1,1.4c0.3-0.2,0.7-0.3,1-0.3c0.9,0,1.4,0.4,1.4,1.3c0,0.5-0.1,0.9-0.4,1.1
				c-0.3,0.3-0.6,0.4-1.1,0.4c-0.4,0-0.8,0-1.2-0.1l-0.2,0l0.1-0.4c0.5,0.1,0.9,0.1,1.3,0.1s0.6-0.1,0.8-0.3
				c0.2-0.2,0.3-0.4,0.3-0.8c0-0.3-0.1-0.6-0.2-0.7c-0.2-0.1-0.4-0.2-0.7-0.2c-0.2,0-0.3,0-0.5,0.1c-0.2,0-0.3,0.1-0.4,0.1l-0.1,0.1
				l-0.4-0.1l0.1-2.3H223.7z"/>
		</g>
		<g class="st2">
			<path class="st3" d="M243.6,154.2h-2.8v-0.4l1.3-1.4c0.2-0.2,0.4-0.4,0.5-0.5c0.1-0.1,0.2-0.3,0.3-0.4s0.1-0.3,0.1-0.5
				c0-0.3-0.1-0.5-0.2-0.6c-0.2-0.1-0.4-0.2-0.7-0.2c-0.3,0-0.6,0-1,0.1l-0.2,0l0-0.4c0.4-0.1,0.9-0.2,1.3-0.2s0.8,0.1,1,0.3
				c0.2,0.2,0.3,0.5,0.3,0.9c0,0.3-0.1,0.6-0.2,0.8c-0.1,0.2-0.4,0.5-0.7,0.8l-1.2,1.2h2.2V154.2z"/>
			<path class="st3" d="M245.9,149.7c0.4,0,0.7,0.1,0.9,0.2c0.5,0.3,0.7,1,0.7,2.1c0,0.8-0.1,1.4-0.4,1.7c-0.3,0.3-0.7,0.5-1.2,0.5
				c-0.5,0-0.9-0.2-1.2-0.5c-0.3-0.3-0.4-0.9-0.4-1.7c0-0.8,0.1-1.4,0.4-1.8C244.9,149.9,245.3,149.7,245.9,149.7z M245.9,150.2
				c-0.3,0-0.5,0.1-0.6,0.2c-0.3,0.2-0.5,0.8-0.5,1.7c0,0.7,0.1,1.1,0.3,1.4c0.2,0.3,0.4,0.4,0.8,0.4s0.6-0.1,0.8-0.4
				c0.2-0.3,0.3-0.7,0.3-1.4s-0.1-1.2-0.3-1.4C246.5,150.3,246.3,150.2,245.9,150.2z"/>
			<path class="st3" d="M250.4,149.8v4.4h-0.5v-3.8l-1.1,0.7l-0.2-0.4l1.4-0.9H250.4z"/>
			<path class="st3" d="M253.1,153.8c0.8,0,1.2-0.5,1.2-1.5c-0.4,0.2-0.8,0.3-1.1,0.3c-1,0-1.4-0.4-1.4-1.3c0-0.4,0.1-0.8,0.4-1.1
				c0.3-0.3,0.6-0.4,1.1-0.4c0.5,0,0.9,0.2,1.2,0.6c0.3,0.4,0.4,1,0.4,1.8c0,0.8-0.1,1.3-0.4,1.7c-0.3,0.3-0.7,0.5-1.3,0.5
				c-0.3,0-0.7,0-1-0.1l-0.2,0l0-0.4C252.4,153.8,252.8,153.8,253.1,153.8z M253.2,152c0.3,0,0.6-0.1,0.9-0.2l0.2-0.1
				c0-1.1-0.4-1.7-1.1-1.7c-0.3,0-0.6,0.1-0.7,0.3c-0.2,0.2-0.3,0.4-0.3,0.7C252.3,151.8,252.6,152,253.2,152z"/>
			<path class="st3" d="M257.6,154.2v-0.9h-2.1v-0.4l1.3-3.1h0.6l-1.3,3.1h1.6v-1.4h0.5v1.4h0.6v0.5h-0.6v0.9H257.6z"/>
			<path class="st3" d="M262.2,150.2c-0.4-0.1-0.8-0.1-1.2-0.1c-0.4,0-0.7,0.1-0.9,0.4c-0.2,0.3-0.3,0.6-0.3,1.1l0.2-0.1
				c0.1,0,0.3-0.1,0.4-0.1c0.2,0,0.3-0.1,0.5-0.1c1,0,1.5,0.5,1.5,1.4c0,0.5-0.1,0.8-0.4,1.1c-0.3,0.3-0.6,0.4-1.1,0.4
				c-1,0-1.6-0.8-1.6-2.3c0-0.8,0.1-1.3,0.4-1.7c0.3-0.4,0.7-0.5,1.3-0.5c0.4,0,0.7,0,1,0.1l0.2,0L262.2,150.2z M260.9,151.9
				c-0.2,0-0.3,0-0.5,0.1c-0.2,0-0.3,0.1-0.4,0.1l-0.2,0.1c0,0.5,0.1,0.9,0.3,1.2c0.2,0.3,0.4,0.4,0.8,0.4c0.3,0,0.6-0.1,0.8-0.3
				c0.2-0.2,0.3-0.4,0.3-0.7c0-0.3-0.1-0.5-0.3-0.7C261.4,152,261.2,151.9,260.9,151.9z"/>
		</g>
		<g class="st2">
			<path class="st3" d="M281.9,154.2h-2.8v-0.4l1.3-1.4c0.2-0.2,0.4-0.4,0.5-0.5c0.1-0.1,0.2-0.3,0.3-0.4s0.1-0.3,0.1-0.5
				c0-0.3-0.1-0.5-0.2-0.6c-0.2-0.1-0.4-0.2-0.7-0.2c-0.3,0-0.6,0-1,0.1l-0.2,0l0-0.4c0.4-0.1,0.9-0.2,1.3-0.2s0.8,0.1,1,0.3
				c0.2,0.2,0.3,0.5,0.3,0.9c0,0.3-0.1,0.6-0.2,0.8c-0.1,0.2-0.4,0.5-0.7,0.8l-1.2,1.2h2.2V154.2z"/>
			<path class="st3" d="M284.3,149.7c0.4,0,0.7,0.1,0.9,0.2c0.5,0.3,0.7,1,0.7,2.1c0,0.8-0.1,1.4-0.4,1.7c-0.3,0.3-0.7,0.5-1.2,0.5
				c-0.5,0-0.9-0.2-1.2-0.5c-0.3-0.3-0.4-0.9-0.4-1.7c0-0.8,0.1-1.4,0.4-1.8C283.3,149.9,283.7,149.7,284.3,149.7z M284.3,150.2
				c-0.3,0-0.5,0.1-0.6,0.2c-0.3,0.2-0.5,0.8-0.5,1.7c0,0.7,0.1,1.1,0.3,1.4c0.2,0.3,0.4,0.4,0.8,0.4c0.4,0,0.6-0.1,0.8-0.4
				c0.2-0.3,0.3-0.7,0.3-1.4s-0.1-1.2-0.3-1.4C284.9,150.3,284.7,150.2,284.3,150.2z"/>
			<path class="st3" d="M288.7,149.8v4.4h-0.5v-3.8l-1.1,0.7l-0.2-0.4l1.4-0.9H288.7z"/>
			<path class="st3" d="M291.5,153.8c0.8,0,1.2-0.5,1.2-1.5c-0.4,0.2-0.8,0.3-1.1,0.3c-1,0-1.4-0.4-1.4-1.3c0-0.4,0.1-0.8,0.4-1.1
				c0.3-0.3,0.6-0.4,1.1-0.4c0.5,0,0.9,0.2,1.2,0.6c0.3,0.4,0.4,1,0.4,1.8c0,0.8-0.1,1.3-0.4,1.7c-0.3,0.3-0.7,0.5-1.3,0.5
				c-0.3,0-0.7,0-1-0.1l-0.2,0l0-0.4C290.8,153.8,291.1,153.8,291.5,153.8z M291.6,152c0.3,0,0.6-0.1,0.9-0.2l0.2-0.1
				c0-1.1-0.4-1.7-1.1-1.7c-0.3,0-0.6,0.1-0.7,0.3c-0.2,0.2-0.3,0.4-0.3,0.7C290.7,151.8,291,152,291.6,152z"/>
			<path class="st3" d="M296,154.2v-0.9h-2.1v-0.4l1.3-3.1h0.6l-1.3,3.1h1.6v-1.4h0.5v1.4h0.6v0.5h-0.6v0.9H296z"/>
			<path class="st3" d="M297.9,150.2v-0.5h2.7v0.7l-1.7,3.8l-0.5-0.2l1.7-3.7v-0.2H297.9z"/>
		</g>
		<g class="st2">
			<path class="st3" d="M320.3,154.2h-2.8v-0.4l1.3-1.4c0.2-0.2,0.4-0.4,0.5-0.5c0.1-0.1,0.2-0.3,0.3-0.4s0.1-0.3,0.1-0.5
				c0-0.3-0.1-0.5-0.2-0.6c-0.2-0.1-0.4-0.2-0.7-0.2c-0.3,0-0.6,0-1,0.1l-0.2,0l0-0.4c0.4-0.1,0.9-0.2,1.3-0.2s0.8,0.1,1,0.3
				c0.2,0.2,0.3,0.5,0.3,0.9c0,0.3-0.1,0.6-0.2,0.8c-0.1,0.2-0.4,0.5-0.7,0.8l-1.2,1.2h2.2V154.2z"/>
			<path class="st3" d="M322.7,149.7c0.4,0,0.7,0.1,0.9,0.2c0.5,0.3,0.7,1,0.7,2.1c0,0.8-0.1,1.4-0.4,1.7c-0.3,0.3-0.7,0.5-1.2,0.5
				c-0.5,0-0.9-0.2-1.2-0.5c-0.3-0.3-0.4-0.9-0.4-1.7c0-0.8,0.1-1.4,0.4-1.8C321.7,149.9,322.1,149.7,322.7,149.7z M322.7,150.2
				c-0.3,0-0.5,0.1-0.6,0.2c-0.3,0.2-0.5,0.8-0.5,1.7c0,0.7,0.1,1.1,0.3,1.4c0.2,0.3,0.4,0.4,0.8,0.4c0.4,0,0.6-0.1,0.8-0.4
				c0.2-0.3,0.3-0.7,0.3-1.4s-0.1-1.2-0.3-1.4C323.3,150.3,323,150.2,322.7,150.2z"/>
			<path class="st3" d="M327.1,149.8v4.4h-0.5v-3.8l-1.1,0.7l-0.2-0.4l1.4-0.9H327.1z"/>
			<path class="st3" d="M329.9,153.8c0.8,0,1.2-0.5,1.2-1.5c-0.4,0.2-0.8,0.3-1.1,0.3c-1,0-1.4-0.4-1.4-1.3c0-0.4,0.1-0.8,0.4-1.1
				c0.3-0.3,0.6-0.4,1.1-0.4c0.5,0,0.9,0.2,1.2,0.6c0.3,0.4,0.4,1,0.4,1.8c0,0.8-0.1,1.3-0.4,1.7c-0.3,0.3-0.7,0.5-1.3,0.5
				c-0.3,0-0.7,0-1-0.1l-0.2,0l0-0.4C329.1,153.8,329.5,153.8,329.9,153.8z M330,152c0.3,0,0.6-0.1,0.9-0.2l0.2-0.1
				c0-1.1-0.4-1.7-1.1-1.7c-0.3,0-0.6,0.1-0.7,0.3c-0.2,0.2-0.3,0.4-0.3,0.7C329.1,151.8,329.4,152,330,152z"/>
			<path class="st3" d="M334.4,154.2v-0.9h-2.1v-0.4l1.3-3.1h0.6l-1.3,3.1h1.6v-1.4h0.5v1.4h0.6v0.5h-0.6v0.9H334.4z"/>
			<path class="st3" d="M336.4,150c0.3-0.2,0.7-0.3,1.1-0.3c0.5,0,0.9,0.1,1.2,0.3c0.3,0.2,0.4,0.5,0.4,0.9c0,0.3-0.1,0.5-0.2,0.6
				c-0.1,0.1-0.3,0.3-0.6,0.4c0.3,0.1,0.5,0.3,0.6,0.4c0.1,0.2,0.2,0.4,0.2,0.7c0,0.8-0.5,1.3-1.6,1.3c-1.1,0-1.6-0.4-1.6-1.2
				c0-0.3,0.1-0.6,0.2-0.7c0.1-0.2,0.3-0.3,0.6-0.5c-0.2-0.1-0.4-0.3-0.5-0.4c-0.1-0.2-0.2-0.4-0.2-0.6
				C336,150.5,336.1,150.2,336.4,150z M336.5,153c0,0.5,0.4,0.8,1.1,0.8c0.7,0,1.1-0.3,1.1-0.8c0-0.2-0.1-0.4-0.2-0.5
				s-0.3-0.2-0.6-0.3h-0.7c-0.2,0.1-0.4,0.2-0.5,0.3C336.5,152.5,336.5,152.7,336.5,153z M338.6,150.9c0-0.5-0.3-0.7-1-0.7
				s-1,0.2-1,0.7c0,0.2,0.1,0.4,0.2,0.5c0.1,0.1,0.3,0.2,0.5,0.3h0.7c0.2-0.1,0.4-0.2,0.5-0.3S338.6,151.1,338.6,150.9z"/>
		</g>
		<g class="st2">
			<path class="st3" d="M358.7,154.2h-2.8v-0.4l1.3-1.4c0.2-0.2,0.4-0.4,0.5-0.5c0.1-0.1,0.2-0.3,0.3-0.4s0.1-0.3,0.1-0.5
				c0-0.3-0.1-0.5-0.2-0.6c-0.2-0.1-0.4-0.2-0.7-0.2c-0.3,0-0.6,0-1,0.1l-0.2,0l0-0.4c0.4-0.1,0.9-0.2,1.3-0.2s0.8,0.1,1,0.3
				c0.2,0.2,0.3,0.5,0.3,0.9c0,0.3-0.1,0.6-0.2,0.8c-0.1,0.2-0.4,0.5-0.7,0.8l-1.2,1.2h2.2V154.2z"/>
			<path class="st3" d="M361,149.7c0.4,0,0.7,0.1,0.9,0.2c0.5,0.3,0.7,1,0.7,2.1c0,0.8-0.1,1.4-0.4,1.7c-0.3,0.3-0.7,0.5-1.2,0.5
				c-0.5,0-0.9-0.2-1.2-0.5c-0.3-0.3-0.4-0.9-0.4-1.7c0-0.8,0.1-1.4,0.4-1.8C360.1,149.9,360.5,149.7,361,149.7z M361,150.2
				c-0.3,0-0.5,0.1-0.6,0.2c-0.3,0.2-0.5,0.8-0.5,1.7c0,0.7,0.1,1.1,0.3,1.4c0.2,0.3,0.4,0.4,0.8,0.4s0.6-0.1,0.8-0.4
				c0.2-0.3,0.3-0.7,0.3-1.4s-0.1-1.2-0.3-1.4C361.7,150.3,361.4,150.2,361,150.2z"/>
			<path class="st3" d="M365.5,149.8v4.4H365v-3.8l-1.1,0.7l-0.2-0.4l1.4-0.9H365.5z"/>
			<path class="st3" d="M368.3,153.8c0.8,0,1.2-0.5,1.2-1.5c-0.4,0.2-0.8,0.3-1.1,0.3c-1,0-1.4-0.4-1.4-1.3c0-0.4,0.1-0.8,0.4-1.1
				c0.3-0.3,0.6-0.4,1.1-0.4c0.5,0,0.9,0.2,1.2,0.6c0.3,0.4,0.4,1,0.4,1.8c0,0.8-0.1,1.3-0.4,1.7c-0.3,0.3-0.7,0.5-1.3,0.5
				c-0.3,0-0.7,0-1-0.1l-0.2,0l0-0.4C367.5,153.8,367.9,153.8,368.3,153.8z M368.4,152c0.3,0,0.6-0.1,0.9-0.2l0.2-0.1
				c0-1.1-0.4-1.7-1.1-1.7c-0.3,0-0.6,0.1-0.7,0.3c-0.2,0.2-0.3,0.4-0.3,0.7C367.4,151.8,367.8,152,368.4,152z"/>
			<path class="st3" d="M372.8,154.2v-0.9h-2.1v-0.4l1.3-3.1h0.6l-1.3,3.1h1.6v-1.4h0.5v1.4h0.6v0.5h-0.6v0.9H372.8z"/>
			<path class="st3" d="M375.8,153.8c0.8,0,1.2-0.5,1.2-1.5c-0.4,0.2-0.8,0.3-1.1,0.3c-1,0-1.4-0.4-1.4-1.3c0-0.4,0.1-0.8,0.4-1.1
				c0.3-0.3,0.6-0.4,1.1-0.4c0.5,0,0.9,0.2,1.2,0.6c0.3,0.4,0.4,1,0.4,1.8c0,0.8-0.1,1.3-0.4,1.7c-0.3,0.3-0.7,0.5-1.3,0.5
				c-0.3,0-0.7,0-1-0.1l-0.2,0l0-0.4C375,153.8,375.4,153.8,375.8,153.8z M375.9,152c0.3,0,0.6-0.1,0.9-0.2l0.2-0.1
				c0-1.1-0.4-1.7-1.1-1.7c-0.3,0-0.6,0.1-0.7,0.3c-0.2,0.2-0.3,0.4-0.3,0.7C374.9,151.8,375.2,152,375.9,152z"/>
		</g>
		<g class="st2">
			<path class="st3" d="M397.1,154.2h-2.8v-0.4l1.3-1.4c0.2-0.2,0.4-0.4,0.5-0.5c0.1-0.1,0.2-0.3,0.3-0.4s0.1-0.3,0.1-0.5
				c0-0.3-0.1-0.5-0.2-0.6c-0.2-0.1-0.4-0.2-0.7-0.2c-0.3,0-0.6,0-1,0.1l-0.2,0l0-0.4c0.4-0.1,0.9-0.2,1.3-0.2s0.8,0.1,1,0.3
				c0.2,0.2,0.3,0.5,0.3,0.9c0,0.3-0.1,0.6-0.2,0.8c-0.1,0.2-0.4,0.5-0.7,0.8l-1.2,1.2h2.2V154.2z"/>
			<path class="st3" d="M399.4,149.7c0.4,0,0.7,0.1,0.9,0.2c0.5,0.3,0.7,1,0.7,2.1c0,0.8-0.1,1.4-0.4,1.7c-0.3,0.3-0.7,0.5-1.2,0.5
				c-0.5,0-0.9-0.2-1.2-0.5c-0.3-0.3-0.4-0.9-0.4-1.7c0-0.8,0.1-1.4,0.4-1.8C398.5,149.9,398.9,149.7,399.4,149.7z M399.4,150.2
				c-0.3,0-0.5,0.1-0.6,0.2c-0.3,0.2-0.5,0.8-0.5,1.7c0,0.7,0.1,1.1,0.3,1.4c0.2,0.3,0.4,0.4,0.8,0.4c0.4,0,0.6-0.1,0.8-0.4
				c0.2-0.3,0.3-0.7,0.3-1.4s-0.1-1.2-0.3-1.4C400.1,150.3,399.8,150.2,399.4,150.2z"/>
			<path class="st3" d="M403.9,149.8v4.4h-0.5v-3.8l-1.1,0.7l-0.2-0.4l1.4-0.9H403.9z"/>
			<path class="st3" d="M406.7,153.8c0.8,0,1.2-0.5,1.2-1.5c-0.4,0.2-0.8,0.3-1.1,0.3c-1,0-1.4-0.4-1.4-1.3c0-0.4,0.1-0.8,0.4-1.1
				c0.3-0.3,0.6-0.4,1.1-0.4c0.5,0,0.9,0.2,1.2,0.6c0.3,0.4,0.4,1,0.4,1.8c0,0.8-0.1,1.3-0.4,1.7c-0.3,0.3-0.7,0.5-1.3,0.5
				c-0.3,0-0.7,0-1-0.1l-0.2,0l0-0.4C405.9,153.8,406.3,153.8,406.7,153.8z M406.8,152c0.3,0,0.6-0.1,0.9-0.2l0.2-0.1
				c0-1.1-0.4-1.7-1.1-1.7c-0.3,0-0.6,0.1-0.7,0.3c-0.2,0.2-0.3,0.4-0.3,0.7C405.8,151.8,406.1,152,406.8,152z"/>
			<path class="st3" d="M411.9,149.8v0.5h-2.1l-0.1,1.4c0.3-0.2,0.7-0.3,1-0.3c0.9,0,1.4,0.4,1.4,1.3c0,0.5-0.1,0.9-0.4,1.1
				c-0.3,0.3-0.6,0.4-1.1,0.4c-0.4,0-0.8,0-1.2-0.1l-0.2,0l0.1-0.4c0.5,0.1,0.9,0.1,1.3,0.1c0.3,0,0.6-0.1,0.8-0.3
				c0.2-0.2,0.3-0.4,0.3-0.8c0-0.3-0.1-0.6-0.2-0.7c-0.2-0.1-0.4-0.2-0.7-0.2c-0.2,0-0.3,0-0.5,0.1c-0.2,0-0.3,0.1-0.4,0.1l-0.1,0.1
				l-0.4-0.1l0.1-2.3H411.9z"/>
			<path class="st3" d="M414.3,149.7c0.4,0,0.7,0.1,0.9,0.2c0.5,0.3,0.7,1,0.7,2.1c0,0.8-0.1,1.4-0.4,1.7c-0.3,0.3-0.7,0.5-1.2,0.5
				c-0.5,0-0.9-0.2-1.2-0.5c-0.3-0.3-0.4-0.9-0.4-1.7c0-0.8,0.1-1.4,0.4-1.8C413.4,149.9,413.8,149.7,414.3,149.7z M414.4,150.2
				c-0.3,0-0.5,0.1-0.6,0.2c-0.3,0.2-0.5,0.8-0.5,1.7c0,0.7,0.1,1.1,0.3,1.4c0.2,0.3,0.4,0.4,0.8,0.4c0.4,0,0.6-0.1,0.8-0.4
				c0.2-0.3,0.3-0.7,0.3-1.4s-0.1-1.2-0.3-1.4C415,150.3,414.7,150.2,414.4,150.2z"/>
		</g>
		<g class="st2">
			<path class="st3" d="M435.5,154.2h-2.8v-0.4l1.3-1.4c0.2-0.2,0.4-0.4,0.5-0.5c0.1-0.1,0.2-0.3,0.3-0.4s0.1-0.3,0.1-0.5
				c0-0.3-0.1-0.5-0.2-0.6c-0.2-0.1-0.4-0.2-0.7-0.2c-0.3,0-0.6,0-1,0.1l-0.2,0l0-0.4c0.4-0.1,0.9-0.2,1.3-0.2s0.8,0.1,1,0.3
				c0.2,0.2,0.3,0.5,0.3,0.9c0,0.3-0.1,0.6-0.2,0.8c-0.1,0.2-0.4,0.5-0.7,0.8l-1.2,1.2h2.2V154.2z"/>
			<path class="st3" d="M437.8,149.7c0.4,0,0.7,0.1,0.9,0.2c0.5,0.3,0.7,1,0.7,2.1c0,0.8-0.1,1.4-0.4,1.7c-0.3,0.3-0.7,0.5-1.2,0.5
				c-0.5,0-0.9-0.2-1.2-0.5c-0.3-0.3-0.4-0.9-0.4-1.7c0-0.8,0.1-1.4,0.4-1.8C436.9,149.9,437.3,149.7,437.8,149.7z M437.8,150.2
				c-0.3,0-0.5,0.1-0.6,0.2c-0.3,0.2-0.5,0.8-0.5,1.7c0,0.7,0.1,1.1,0.3,1.4c0.2,0.3,0.4,0.4,0.8,0.4c0.4,0,0.6-0.1,0.8-0.4
				c0.2-0.3,0.3-0.7,0.3-1.4s-0.1-1.2-0.3-1.4C438.5,150.3,438.2,150.2,437.8,150.2z"/>
			<path class="st3" d="M442.3,149.8v4.4h-0.5v-3.8l-1.1,0.7l-0.2-0.4l1.4-0.9H442.3z"/>
			<path class="st3" d="M445.1,153.8c0.8,0,1.2-0.5,1.2-1.5c-0.4,0.2-0.8,0.3-1.1,0.3c-1,0-1.4-0.4-1.4-1.3c0-0.4,0.1-0.8,0.4-1.1
				c0.3-0.3,0.6-0.4,1.1-0.4c0.5,0,0.9,0.2,1.2,0.6c0.3,0.4,0.4,1,0.4,1.8c0,0.8-0.1,1.3-0.4,1.7c-0.3,0.3-0.7,0.5-1.3,0.5
				c-0.3,0-0.7,0-1-0.1l-0.2,0l0-0.4C444.3,153.8,444.7,153.8,445.1,153.8z M445.2,152c0.3,0,0.6-0.1,0.9-0.2l0.2-0.1
				c0-1.1-0.4-1.7-1.1-1.7c-0.3,0-0.6,0.1-0.7,0.3c-0.2,0.2-0.3,0.4-0.3,0.7C444.2,151.8,444.5,152,445.2,152z"/>
			<path class="st3" d="M450.3,149.8v0.5h-2.1l-0.1,1.4c0.3-0.2,0.7-0.3,1-0.3c0.9,0,1.4,0.4,1.4,1.3c0,0.5-0.1,0.9-0.4,1.1
				c-0.3,0.3-0.6,0.4-1.1,0.4c-0.4,0-0.8,0-1.2-0.1l-0.2,0l0.1-0.4c0.5,0.1,0.9,0.1,1.3,0.1c0.3,0,0.6-0.1,0.8-0.3
				c0.2-0.2,0.3-0.4,0.3-0.8c0-0.3-0.1-0.6-0.2-0.7c-0.2-0.1-0.4-0.2-0.7-0.2c-0.2,0-0.3,0-0.5,0.1c-0.2,0-0.3,0.1-0.4,0.1l-0.1,0.1
				l-0.4-0.1l0.1-2.3H450.3z"/>
			<path class="st3" d="M453.5,149.8v4.4H453v-3.8l-1.1,0.7l-0.2-0.4l1.4-0.9H453.5z"/>
		</g>
		<g class="st2">
			<path class="st3" d="M473.9,154.2h-2.8v-0.4l1.3-1.4c0.2-0.2,0.4-0.4,0.5-0.5c0.1-0.1,0.2-0.3,0.3-0.4s0.1-0.3,0.1-0.5
				c0-0.3-0.1-0.5-0.2-0.6c-0.2-0.1-0.4-0.2-0.7-0.2c-0.3,0-0.6,0-1,0.1l-0.2,0l0-0.4c0.4-0.1,0.9-0.2,1.3-0.2s0.8,0.1,1,0.3
				c0.2,0.2,0.3,0.5,0.3,0.9c0,0.3-0.1,0.6-0.2,0.8c-0.1,0.2-0.4,0.5-0.7,0.8l-1.2,1.2h2.2V154.2z"/>
			<path class="st3" d="M476.2,149.7c0.4,0,0.7,0.1,0.9,0.2c0.5,0.3,0.7,1,0.7,2.1c0,0.8-0.1,1.4-0.4,1.7c-0.3,0.3-0.7,0.5-1.2,0.5
				c-0.5,0-0.9-0.2-1.2-0.5c-0.3-0.3-0.4-0.9-0.4-1.7c0-0.8,0.1-1.4,0.4-1.8C475.2,149.9,475.6,149.7,476.2,149.7z M476.2,150.2
				c-0.3,0-0.5,0.1-0.6,0.2c-0.3,0.2-0.5,0.8-0.5,1.7c0,0.7,0.1,1.1,0.3,1.4c0.2,0.3,0.4,0.4,0.8,0.4c0.4,0,0.6-0.1,0.8-0.4
				c0.2-0.3,0.3-0.7,0.3-1.4s-0.1-1.2-0.3-1.4C476.8,150.3,476.6,150.2,476.2,150.2z"/>
			<path class="st3" d="M480.7,149.8v4.4h-0.5v-3.8l-1.1,0.7l-0.2-0.4l1.4-0.9H480.7z"/>
			<path class="st3" d="M483.4,153.8c0.8,0,1.2-0.5,1.2-1.5c-0.4,0.2-0.8,0.3-1.1,0.3c-1,0-1.4-0.4-1.4-1.3c0-0.4,0.1-0.8,0.4-1.1
				c0.3-0.3,0.6-0.4,1.1-0.4c0.5,0,0.9,0.2,1.2,0.6c0.3,0.4,0.4,1,0.4,1.8c0,0.8-0.1,1.3-0.4,1.7c-0.3,0.3-0.7,0.5-1.3,0.5
				c-0.3,0-0.7,0-1-0.1l-0.2,0l0-0.4C482.7,153.8,483.1,153.8,483.4,153.8z M483.5,152c0.3,0,0.6-0.1,0.9-0.2l0.2-0.1
				c0-1.1-0.4-1.7-1.1-1.7c-0.3,0-0.6,0.1-0.7,0.3c-0.2,0.2-0.3,0.4-0.3,0.7C482.6,151.8,482.9,152,483.5,152z"/>
			<path class="st3" d="M488.7,149.8v0.5h-2.1l-0.1,1.4c0.3-0.2,0.7-0.3,1-0.3c0.9,0,1.4,0.4,1.4,1.3c0,0.5-0.1,0.9-0.4,1.1
				c-0.3,0.3-0.6,0.4-1.1,0.4c-0.4,0-0.8,0-1.2-0.1l-0.2,0l0.1-0.4c0.5,0.1,0.9,0.1,1.3,0.1c0.3,0,0.6-0.1,0.8-0.3
				c0.2-0.2,0.3-0.4,0.3-0.8c0-0.3-0.1-0.6-0.2-0.7c-0.2-0.1-0.4-0.2-0.7-0.2c-0.2,0-0.3,0-0.5,0.1c-0.2,0-0.3,0.1-0.4,0.1l-0.1,0.1
				l-0.4-0.1l0.1-2.3H488.7z"/>
			<path class="st3" d="M492.5,154.2h-2.8v-0.4l1.3-1.4c0.2-0.2,0.4-0.4,0.5-0.5c0.1-0.1,0.2-0.3,0.3-0.4s0.1-0.3,0.1-0.5
				c0-0.3-0.1-0.5-0.2-0.6c-0.2-0.1-0.4-0.2-0.7-0.2c-0.3,0-0.6,0-1,0.1l-0.2,0l0-0.4c0.4-0.1,0.9-0.2,1.3-0.2s0.8,0.1,1,0.3
				c0.2,0.2,0.3,0.5,0.3,0.9c0,0.3-0.1,0.6-0.2,0.8c-0.1,0.2-0.4,0.5-0.7,0.8l-1.2,1.2h2.2V154.2z"/>
		</g>
		<g class="st2">
			<path class="st3" d="M512.2,154.2h-2.8v-0.4l1.3-1.4c0.2-0.2,0.4-0.4,0.5-0.5c0.1-0.1,0.2-0.3,0.3-0.4s0.1-0.3,0.1-0.5
				c0-0.3-0.1-0.5-0.2-0.6c-0.2-0.1-0.4-0.2-0.7-0.2c-0.3,0-0.6,0-1,0.1l-0.2,0l0-0.4c0.4-0.1,0.9-0.2,1.3-0.2s0.8,0.1,1,0.3
				c0.2,0.2,0.3,0.5,0.3,0.9c0,0.3-0.1,0.6-0.2,0.8c-0.1,0.2-0.4,0.5-0.7,0.8l-1.2,1.2h2.2V154.2z"/>
			<path class="st3" d="M514.6,149.7c0.4,0,0.7,0.1,0.9,0.2c0.5,0.3,0.7,1,0.7,2.1c0,0.8-0.1,1.4-0.4,1.7c-0.3,0.3-0.7,0.5-1.2,0.5
				c-0.5,0-0.9-0.2-1.2-0.5c-0.3-0.3-0.4-0.9-0.4-1.7c0-0.8,0.1-1.4,0.4-1.8C513.6,149.9,514,149.7,514.6,149.7z M514.6,150.2
				c-0.3,0-0.5,0.1-0.6,0.2c-0.3,0.2-0.5,0.8-0.5,1.7c0,0.7,0.1,1.1,0.3,1.4c0.2,0.3,0.4,0.4,0.8,0.4s0.6-0.1,0.8-0.4
				c0.2-0.3,0.3-0.7,0.3-1.4s-0.1-1.2-0.3-1.4C515.2,150.3,515,150.2,514.6,150.2z"/>
			<path class="st3" d="M519.7,154.2h-2.8v-0.4l1.3-1.4c0.2-0.2,0.4-0.4,0.5-0.5c0.1-0.1,0.2-0.3,0.3-0.4c0.1-0.2,0.1-0.3,0.1-0.5
				c0-0.3-0.1-0.5-0.2-0.6c-0.2-0.1-0.4-0.2-0.7-0.2c-0.3,0-0.6,0-1,0.1l-0.2,0l0-0.4c0.4-0.1,0.9-0.2,1.3-0.2c0.4,0,0.8,0.1,1,0.3
				c0.2,0.2,0.3,0.5,0.3,0.9c0,0.3-0.1,0.6-0.2,0.8c-0.1,0.2-0.4,0.5-0.7,0.8l-1.2,1.2h2.2V154.2z"/>
			<path class="st3" d="M522,149.7c0.4,0,0.7,0.1,0.9,0.2c0.5,0.3,0.7,1,0.7,2.1c0,0.8-0.1,1.4-0.4,1.7c-0.3,0.3-0.7,0.5-1.2,0.5
				c-0.5,0-0.9-0.2-1.2-0.5c-0.3-0.3-0.4-0.9-0.4-1.7c0-0.8,0.1-1.4,0.4-1.8C521.1,149.9,521.5,149.7,522,149.7z M522,150.2
				c-0.3,0-0.5,0.1-0.6,0.2c-0.3,0.2-0.5,0.8-0.5,1.7c0,0.7,0.1,1.1,0.3,1.4c0.2,0.3,0.4,0.4,0.8,0.4c0.4,0,0.6-0.1,0.8-0.4
				c0.2-0.3,0.3-0.7,0.3-1.4s-0.1-1.2-0.3-1.4C522.7,150.3,522.4,150.2,522,150.2z"/>
			<path class="st3" d="M525.8,149.7c0.4,0,0.7,0.1,0.9,0.2c0.5,0.3,0.7,1,0.7,2.1c0,0.8-0.1,1.4-0.4,1.7c-0.3,0.3-0.7,0.5-1.2,0.5
				c-0.5,0-0.9-0.2-1.2-0.5c-0.3-0.3-0.4-0.9-0.4-1.7c0-0.8,0.1-1.4,0.4-1.8C524.8,149.9,525.2,149.7,525.8,149.7z M525.8,150.2
				c-0.3,0-0.5,0.1-0.6,0.2c-0.3,0.2-0.5,0.8-0.5,1.7c0,0.7,0.1,1.1,0.3,1.4c0.2,0.3,0.4,0.4,0.8,0.4s0.6-0.1,0.8-0.4
				c0.2-0.3,0.3-0.7,0.3-1.4s-0.1-1.2-0.3-1.4C526.4,150.3,526.2,150.2,525.8,150.2z"/>
			<path class="st3" d="M530.2,149.8v4.4h-0.5v-3.8l-1.1,0.7l-0.2-0.4l1.4-0.9H530.2z"/>
		</g>
		<g class="st2">
			<path class="st3" d="M550.6,154.2h-2.8v-0.4l1.3-1.4c0.2-0.2,0.4-0.4,0.5-0.5c0.1-0.1,0.2-0.3,0.3-0.4c0.1-0.2,0.1-0.3,0.1-0.5
				c0-0.3-0.1-0.5-0.2-0.6c-0.2-0.1-0.4-0.2-0.7-0.2c-0.3,0-0.6,0-1,0.1l-0.2,0l0-0.4c0.4-0.1,0.9-0.2,1.3-0.2c0.4,0,0.8,0.1,1,0.3
				c0.2,0.2,0.3,0.5,0.3,0.9c0,0.3-0.1,0.6-0.2,0.8c-0.1,0.2-0.4,0.5-0.7,0.8l-1.2,1.2h2.2V154.2z"/>
			<path class="st3" d="M553,149.7c0.4,0,0.7,0.1,0.9,0.2c0.5,0.3,0.7,1,0.7,2.1c0,0.8-0.1,1.4-0.4,1.7c-0.3,0.3-0.7,0.5-1.2,0.5
				c-0.5,0-0.9-0.2-1.2-0.5c-0.3-0.3-0.4-0.9-0.4-1.7c0-0.8,0.1-1.4,0.4-1.8C552,149.9,552.4,149.7,553,149.7z M553,150.2
				c-0.3,0-0.5,0.1-0.6,0.2c-0.3,0.2-0.5,0.8-0.5,1.7c0,0.7,0.1,1.1,0.3,1.4c0.2,0.3,0.4,0.4,0.8,0.4s0.6-0.1,0.8-0.4
				c0.2-0.3,0.3-0.7,0.3-1.4s-0.1-1.2-0.3-1.4C553.6,150.3,553.3,150.2,553,150.2z"/>
			<path class="st3" d="M558.1,154.2h-2.8v-0.4l1.3-1.4c0.2-0.2,0.4-0.4,0.5-0.5c0.1-0.1,0.2-0.3,0.3-0.4c0.1-0.2,0.1-0.3,0.1-0.5
				c0-0.3-0.1-0.5-0.2-0.6c-0.2-0.1-0.4-0.2-0.7-0.2c-0.3,0-0.6,0-1,0.1l-0.2,0l0-0.4c0.4-0.1,0.9-0.2,1.3-0.2c0.4,0,0.8,0.1,1,0.3
				c0.2,0.2,0.3,0.5,0.3,0.9c0,0.3-0.1,0.6-0.2,0.8c-0.1,0.2-0.4,0.5-0.7,0.8l-1.2,1.2h2.2V154.2z"/>
			<path class="st3" d="M560.4,149.7c0.4,0,0.7,0.1,0.9,0.2c0.5,0.3,0.7,1,0.7,2.1c0,0.8-0.1,1.4-0.4,1.7c-0.3,0.3-0.7,0.5-1.2,0.5
				c-0.5,0-0.9-0.2-1.2-0.5c-0.3-0.3-0.4-0.9-0.4-1.7c0-0.8,0.1-1.4,0.4-1.8C559.5,149.9,559.9,149.7,560.4,149.7z M560.4,150.2
				c-0.3,0-0.5,0.1-0.6,0.2c-0.3,0.2-0.5,0.8-0.5,1.7c0,0.7,0.1,1.1,0.3,1.4c0.2,0.3,0.4,0.4,0.8,0.4c0.4,0,0.6-0.1,0.8-0.4
				c0.2-0.3,0.3-0.7,0.3-1.4s-0.1-1.2-0.3-1.4C561.1,150.3,560.8,150.2,560.4,150.2z"/>
			<path class="st3" d="M564.1,149.7c0.4,0,0.7,0.1,0.9,0.2c0.5,0.3,0.7,1,0.7,2.1c0,0.8-0.1,1.4-0.4,1.7c-0.3,0.3-0.7,0.5-1.2,0.5
				c-0.5,0-0.9-0.2-1.2-0.5c-0.3-0.3-0.4-0.9-0.4-1.7c0-0.8,0.1-1.4,0.4-1.8C563.2,149.9,563.6,149.7,564.1,149.7z M564.2,150.2
				c-0.3,0-0.5,0.1-0.6,0.2c-0.3,0.2-0.5,0.8-0.5,1.7c0,0.7,0.1,1.1,0.3,1.4c0.2,0.3,0.4,0.4,0.8,0.4s0.6-0.1,0.8-0.4
				c0.2-0.3,0.3-0.7,0.3-1.4s-0.1-1.2-0.3-1.4C564.8,150.3,564.5,150.2,564.2,150.2z"/>
			<path class="st3" d="M569.3,154.2h-2.8v-0.4l1.3-1.4c0.2-0.2,0.4-0.4,0.5-0.5c0.1-0.1,0.2-0.3,0.3-0.4c0.1-0.2,0.1-0.3,0.1-0.5
				c0-0.3-0.1-0.5-0.2-0.6c-0.2-0.1-0.4-0.2-0.7-0.2c-0.3,0-0.6,0-1,0.1l-0.2,0l0-0.4c0.4-0.1,0.9-0.2,1.3-0.2c0.4,0,0.8,0.1,1,0.3
				c0.2,0.2,0.3,0.5,0.3,0.9c0,0.3-0.1,0.6-0.2,0.8c-0.1,0.2-0.4,0.5-0.7,0.8l-1.2,1.2h2.2V154.2z"/>
		</g>
		<g class="st2">
			<path class="st3" d="M589,154.2h-2.8v-0.4l1.3-1.4c0.2-0.2,0.4-0.4,0.5-0.5c0.1-0.1,0.2-0.3,0.3-0.4c0.1-0.2,0.1-0.3,0.1-0.5
				c0-0.3-0.1-0.5-0.2-0.6c-0.2-0.1-0.4-0.2-0.7-0.2c-0.3,0-0.6,0-1,0.1l-0.2,0l0-0.4c0.4-0.1,0.9-0.2,1.3-0.2c0.4,0,0.8,0.1,1,0.3
				c0.2,0.2,0.3,0.5,0.3,0.9c0,0.3-0.1,0.6-0.2,0.8c-0.1,0.2-0.4,0.5-0.7,0.8l-1.2,1.2h2.2V154.2z"/>
			<path class="st3" d="M591.3,149.7c0.4,0,0.7,0.1,0.9,0.2c0.5,0.3,0.7,1,0.7,2.1c0,0.8-0.1,1.4-0.4,1.7c-0.3,0.3-0.7,0.5-1.2,0.5
				c-0.5,0-0.9-0.2-1.2-0.5c-0.3-0.3-0.4-0.9-0.4-1.7c0-0.8,0.1-1.4,0.4-1.8C590.4,149.9,590.8,149.7,591.3,149.7z M591.3,150.2
				c-0.3,0-0.5,0.1-0.6,0.2c-0.3,0.2-0.5,0.8-0.5,1.7c0,0.7,0.1,1.1,0.3,1.4c0.2,0.3,0.4,0.4,0.8,0.4s0.6-0.1,0.8-0.4
				c0.2-0.3,0.3-0.7,0.3-1.4s-0.1-1.2-0.3-1.4C592,150.3,591.7,150.2,591.3,150.2z"/>
			<path class="st3" d="M596.5,154.2h-2.8v-0.4l1.3-1.4c0.2-0.2,0.4-0.4,0.5-0.5c0.1-0.1,0.2-0.3,0.3-0.4s0.1-0.3,0.1-0.5
				c0-0.3-0.1-0.5-0.2-0.6c-0.2-0.1-0.4-0.2-0.7-0.2c-0.3,0-0.6,0-1,0.1l-0.2,0l0-0.4c0.4-0.1,0.9-0.2,1.3-0.2c0.4,0,0.8,0.1,1,0.3
				c0.2,0.2,0.3,0.5,0.3,0.9c0,0.3-0.1,0.6-0.2,0.8c-0.1,0.2-0.4,0.5-0.7,0.8l-1.2,1.2h2.2V154.2z"/>
			<path class="st3" d="M598.8,149.7c0.4,0,0.7,0.1,0.9,0.2c0.5,0.3,0.7,1,0.7,2.1c0,0.8-0.1,1.4-0.4,1.7c-0.3,0.3-0.7,0.5-1.2,0.5
				c-0.5,0-0.9-0.2-1.2-0.5c-0.3-0.3-0.4-0.9-0.4-1.7c0-0.8,0.1-1.4,0.4-1.8C597.9,149.9,598.3,149.7,598.8,149.7z M598.8,150.2
				c-0.3,0-0.5,0.1-0.6,0.2c-0.3,0.2-0.5,0.8-0.5,1.7c0,0.7,0.1,1.1,0.3,1.4c0.2,0.3,0.4,0.4,0.8,0.4c0.4,0,0.6-0.1,0.8-0.4
				c0.2-0.3,0.3-0.7,0.3-1.4s-0.1-1.2-0.3-1.4C599.5,150.3,599.2,150.2,598.8,150.2z"/>
			<path class="st3" d="M602.5,149.7c0.4,0,0.7,0.1,0.9,0.2c0.5,0.3,0.7,1,0.7,2.1c0,0.8-0.1,1.4-0.4,1.7c-0.3,0.3-0.7,0.5-1.2,0.5
				c-0.5,0-0.9-0.2-1.2-0.5c-0.3-0.3-0.4-0.9-0.4-1.7c0-0.8,0.1-1.4,0.4-1.8C601.6,149.9,602,149.7,602.5,149.7z M602.5,150.2
				c-0.3,0-0.5,0.1-0.6,0.2c-0.3,0.2-0.5,0.8-0.5,1.7c0,0.7,0.1,1.1,0.3,1.4c0.2,0.3,0.4,0.4,0.8,0.4s0.6-0.1,0.8-0.4
				c0.2-0.3,0.3-0.7,0.3-1.4s-0.1-1.2-0.3-1.4C603.2,150.3,602.9,150.2,602.5,150.2z"/>
			<path class="st3" d="M604.9,149.9c0.4-0.1,0.9-0.2,1.3-0.2c0.5,0,0.8,0.1,1,0.3c0.2,0.2,0.3,0.5,0.3,0.9c0,0.2,0,0.4-0.1,0.4
				c-0.1,0.1-0.1,0.2-0.1,0.2c0,0-0.1,0.1-0.1,0.1c-0.1,0.1-0.2,0.1-0.2,0.2l-0.1,0c0.3,0.1,0.4,0.2,0.6,0.4s0.2,0.4,0.2,0.7
				c0,0.4-0.1,0.8-0.3,1c-0.2,0.2-0.6,0.3-1.1,0.3c-0.4,0-0.8,0-1.2-0.1l-0.2,0l0-0.4c0.5,0.1,0.9,0.1,1.3,0.1c0.6,0,1-0.3,1-0.9
				c0-0.5-0.3-0.8-0.9-0.8h-0.9v-0.4h0.9c0.2,0,0.4-0.1,0.5-0.2c0.2-0.1,0.3-0.3,0.3-0.6s-0.1-0.4-0.2-0.5s-0.4-0.2-0.7-0.2
				c-0.4,0-0.7,0-1.1,0.1l-0.2,0L604.9,149.9z"/>
		</g>
		<g class="st2">
			<path class="st3" d="M627.4,154.2h-2.8v-0.4l1.3-1.4c0.2-0.2,0.4-0.4,0.5-0.5c0.1-0.1,0.2-0.3,0.3-0.4c0.1-0.2,0.1-0.3,0.1-0.5
				c0-0.3-0.1-0.5-0.2-0.6c-0.2-0.1-0.4-0.2-0.7-0.2c-0.3,0-0.6,0-1,0.1l-0.2,0l0-0.4c0.4-0.1,0.9-0.2,1.3-0.2c0.4,0,0.8,0.1,1,0.3
				c0.2,0.2,0.3,0.5,0.3,0.9c0,0.3-0.1,0.6-0.2,0.8c-0.1,0.2-0.4,0.5-0.7,0.8l-1.2,1.2h2.2V154.2z"/>
			<path class="st3" d="M629.7,149.7c0.4,0,0.7,0.1,0.9,0.2c0.5,0.3,0.7,1,0.7,2.1c0,0.8-0.1,1.4-0.4,1.7c-0.3,0.3-0.7,0.5-1.2,0.5
				c-0.5,0-0.9-0.2-1.2-0.5c-0.3-0.3-0.4-0.9-0.4-1.7c0-0.8,0.1-1.4,0.4-1.8C628.8,149.9,629.2,149.7,629.7,149.7z M629.7,150.2
				c-0.3,0-0.5,0.1-0.6,0.2c-0.3,0.2-0.5,0.8-0.5,1.7c0,0.7,0.1,1.1,0.3,1.4c0.2,0.3,0.4,0.4,0.8,0.4c0.4,0,0.6-0.1,0.8-0.4
				c0.2-0.3,0.3-0.7,0.3-1.4s-0.1-1.2-0.2-1.4C630.4,150.3,630.1,150.2,629.7,150.2z"/>
			<path class="st3" d="M634.9,154.2h-2.8v-0.4l1.3-1.4c0.2-0.2,0.4-0.4,0.5-0.5c0.1-0.1,0.2-0.3,0.3-0.4c0.1-0.2,0.1-0.3,0.1-0.5
				c0-0.3-0.1-0.5-0.2-0.6c-0.2-0.1-0.4-0.2-0.7-0.2c-0.3,0-0.6,0-1,0.1l-0.2,0l0-0.4c0.4-0.1,0.9-0.2,1.3-0.2c0.4,0,0.8,0.1,1,0.3
				c0.2,0.2,0.3,0.5,0.3,0.9c0,0.3-0.1,0.6-0.2,0.8c-0.1,0.2-0.4,0.5-0.7,0.8l-1.2,1.2h2.2V154.2z"/>
			<path class="st3" d="M637.2,149.7c0.4,0,0.7,0.1,0.9,0.2c0.5,0.3,0.7,1,0.7,2.1c0,0.8-0.1,1.4-0.4,1.7c-0.3,0.3-0.7,0.5-1.2,0.5
				c-0.5,0-0.9-0.2-1.2-0.5c-0.3-0.3-0.4-0.9-0.4-1.7c0-0.8,0.1-1.4,0.4-1.8C636.2,149.9,636.6,149.7,637.2,149.7z M637.2,150.2
				c-0.3,0-0.5,0.1-0.6,0.2c-0.3,0.2-0.5,0.8-0.5,1.7c0,0.7,0.1,1.1,0.3,1.4c0.2,0.3,0.4,0.4,0.8,0.4c0.4,0,0.6-0.1,0.8-0.4
				c0.2-0.3,0.3-0.7,0.3-1.4s-0.1-1.2-0.2-1.4C637.8,150.3,637.6,150.2,637.2,150.2z"/>
			<path class="st3" d="M640.9,149.7c0.4,0,0.7,0.1,0.9,0.2c0.5,0.3,0.7,1,0.7,2.1c0,0.8-0.1,1.4-0.4,1.7c-0.3,0.3-0.7,0.5-1.2,0.5
				c-0.5,0-0.9-0.2-1.2-0.5c-0.3-0.3-0.4-0.9-0.4-1.7c0-0.8,0.1-1.4,0.4-1.8C640,149.9,640.4,149.7,640.9,149.7z M640.9,150.2
				c-0.3,0-0.5,0.1-0.6,0.2c-0.3,0.2-0.5,0.8-0.5,1.7c0,0.7,0.1,1.1,0.3,1.4c0.2,0.3,0.4,0.4,0.8,0.4c0.4,0,0.6-0.1,0.8-0.4
				c0.2-0.3,0.3-0.7,0.3-1.4s-0.1-1.2-0.2-1.4C641.6,150.3,641.3,150.2,640.9,150.2z"/>
			<path class="st3" d="M645.2,154.2v-0.9h-2.1v-0.4l1.3-3.1h0.6l-1.3,3.1h1.6v-1.4h0.5v1.4h0.6v0.5h-0.6v0.9H645.2z"/>
		</g>
		<g class="st2">
			<path class="st3" d="M665.8,154.2H663v-0.4l1.3-1.4c0.2-0.2,0.4-0.4,0.5-0.5c0.1-0.1,0.2-0.3,0.3-0.4c0.1-0.2,0.1-0.3,0.1-0.5
				c0-0.3-0.1-0.5-0.2-0.6c-0.2-0.1-0.4-0.2-0.7-0.2c-0.3,0-0.6,0-1,0.1l-0.2,0l0-0.4c0.4-0.1,0.9-0.2,1.3-0.2c0.4,0,0.8,0.1,1,0.3
				c0.2,0.2,0.3,0.5,0.3,0.9c0,0.3-0.1,0.6-0.2,0.8c-0.1,0.2-0.4,0.5-0.7,0.8l-1.2,1.2h2.2V154.2z"/>
			<path class="st3" d="M668.1,149.7c0.4,0,0.7,0.1,0.9,0.2c0.5,0.3,0.7,1,0.7,2.1c0,0.8-0.1,1.4-0.4,1.7c-0.3,0.3-0.7,0.5-1.2,0.5
				c-0.5,0-0.9-0.2-1.2-0.5c-0.3-0.3-0.4-0.9-0.4-1.7c0-0.8,0.1-1.4,0.4-1.8C667.2,149.9,667.6,149.7,668.1,149.7z M668.1,150.2
				c-0.3,0-0.5,0.1-0.6,0.2c-0.3,0.2-0.5,0.8-0.5,1.7c0,0.7,0.1,1.1,0.3,1.4c0.2,0.3,0.4,0.4,0.8,0.4c0.4,0,0.6-0.1,0.8-0.4
				c0.2-0.3,0.3-0.7,0.3-1.4s-0.1-1.2-0.3-1.4C668.8,150.3,668.5,150.2,668.1,150.2z"/>
			<path class="st3" d="M673.2,154.2h-2.8v-0.4l1.3-1.4c0.2-0.2,0.4-0.4,0.5-0.5c0.1-0.1,0.2-0.3,0.3-0.4c0.1-0.2,0.1-0.3,0.1-0.5
				c0-0.3-0.1-0.5-0.2-0.6c-0.2-0.1-0.4-0.2-0.7-0.2c-0.3,0-0.6,0-1,0.1l-0.2,0l0-0.4c0.4-0.1,0.9-0.2,1.3-0.2c0.4,0,0.8,0.1,1,0.3
				c0.2,0.2,0.3,0.5,0.3,0.9c0,0.3-0.1,0.6-0.2,0.8c-0.1,0.2-0.4,0.5-0.7,0.8l-1.2,1.2h2.2V154.2z"/>
			<path class="st3" d="M675.6,149.7c0.4,0,0.7,0.1,0.9,0.2c0.5,0.3,0.7,1,0.7,2.1c0,0.8-0.1,1.4-0.4,1.7c-0.3,0.3-0.7,0.5-1.2,0.5
				c-0.5,0-0.9-0.2-1.2-0.5c-0.3-0.3-0.4-0.9-0.4-1.7c0-0.8,0.1-1.4,0.4-1.8C674.6,149.9,675,149.7,675.6,149.7z M675.6,150.2
				c-0.3,0-0.5,0.1-0.6,0.2c-0.3,0.2-0.5,0.8-0.5,1.7c0,0.7,0.1,1.1,0.3,1.4c0.2,0.3,0.4,0.4,0.8,0.4c0.4,0,0.6-0.1,0.8-0.4
				c0.2-0.3,0.3-0.7,0.3-1.4s-0.1-1.2-0.3-1.4C676.2,150.3,676,150.2,675.6,150.2z"/>
			<path class="st3" d="M679.3,149.7c0.4,0,0.7,0.1,0.9,0.2c0.5,0.3,0.7,1,0.7,2.1c0,0.8-0.1,1.4-0.4,1.7c-0.3,0.3-0.7,0.5-1.2,0.5
				c-0.5,0-0.9-0.2-1.2-0.5c-0.3-0.3-0.4-0.9-0.4-1.7c0-0.8,0.1-1.4,0.4-1.8C678.4,149.9,678.8,149.7,679.3,149.7z M679.3,150.2
				c-0.3,0-0.5,0.1-0.6,0.2c-0.3,0.2-0.5,0.8-0.5,1.7c0,0.7,0.1,1.1,0.3,1.4c0.2,0.3,0.4,0.4,0.8,0.4c0.4,0,0.6-0.1,0.8-0.4
				c0.2-0.3,0.3-0.7,0.3-1.4s-0.1-1.2-0.3-1.4C680,150.3,679.7,150.2,679.3,150.2z"/>
			<path class="st3" d="M684.3,149.8v0.5h-2.1l-0.1,1.4c0.3-0.2,0.7-0.3,1-0.3c0.9,0,1.4,0.4,1.4,1.3c0,0.5-0.1,0.9-0.4,1.1
				c-0.3,0.3-0.6,0.4-1.1,0.4c-0.4,0-0.8,0-1.2-0.1l-0.2,0l0.1-0.4c0.5,0.1,0.9,0.1,1.3,0.1c0.3,0,0.6-0.1,0.8-0.3
				c0.2-0.2,0.3-0.4,0.3-0.8c0-0.3-0.1-0.6-0.2-0.7c-0.2-0.1-0.4-0.2-0.7-0.2c-0.2,0-0.3,0-0.5,0.1c-0.2,0-0.3,0.1-0.4,0.1l-0.1,0.1
				l-0.4-0.1l0.1-2.3H684.3z"/>
		</g>
	</g>
	<g class="st2">
		<path class="st3" d="M15.6,22.5c0.4,0,0.7,0.1,0.9,0.2c0.5,0.3,0.7,1,0.7,2.1c0,0.8-0.1,1.4-0.4,1.7c-0.3,0.3-0.7,0.5-1.2,0.5
			c-0.5,0-0.9-0.2-1.2-0.5c-0.3-0.3-0.4-0.9-0.4-1.7c0-0.8,0.1-1.4,0.4-1.8C14.7,22.7,15.1,22.5,15.6,22.5z M15.6,23
			c-0.3,0-0.5,0.1-0.6,0.2c-0.3,0.2-0.5,0.8-0.5,1.7c0,0.7,0.1,1.1,0.3,1.4c0.2,0.3,0.4,0.4,0.8,0.4c0.4,0,0.6-0.1,0.8-0.4
			c0.2-0.3,0.3-0.7,0.3-1.4s-0.1-1.2-0.3-1.4C16.3,23.1,16,23,15.6,23z"/>
		<path class="st3" d="M17.9,27v-0.8h0.5V27H17.9z"/>
		<path class="st3" d="M21.3,27v-0.9h-2.1v-0.4l1.3-3.1H21l-1.3,3.1h1.6v-1.4h0.5v1.4h0.6v0.5h-0.6V27H21.3z"/>
		<path class="st3" d="M27.7,22.3c-0.1,0.3-0.2,0.7-0.3,1h2.2v4.3h-0.5v-0.4h-3.4v0.4h-0.5v-4.3h1.6c0.1-0.3,0.1-0.7,0.2-1h-2.6
			v-0.5h5.8v0.5H27.7z M29.2,23.7h-3.4v1.2h3.4V23.7z M29.2,26.6v-1.2h-3.4v1.2H29.2z"/>
		<path class="st3" d="M32.7,22.2h-1.5v-0.4h1.5v-0.4h0.5v0.4H34v0.4h-0.8v0.4h-0.5V22.2z M36.7,27c0,0.2,0,0.3-0.2,0.4
			c-0.2,0.1-0.4,0.1-0.9,0.1c0-0.1-0.1-0.3-0.1-0.4c0.3,0,0.6,0,0.6,0c0.1,0,0.1,0,0.1-0.1v-1.4h-1.9v0.7l0.8,0
			c-0.1-0.2-0.2-0.3-0.3-0.4l0.4-0.1c0.3,0.4,0.6,0.8,0.7,1.2L35.5,27c0-0.1-0.1-0.2-0.2-0.4c-1.1,0.1-2.2,0.1-2.9,0.2l0-0.4
			c0.4,0,0.9,0,1.4-0.1v-0.7H32v1.9h-0.5v-1.9h-0.3v-0.4h0.3v-0.2H32v0.2h1.9v-0.4h-1.9v-2h4.3v2h-2v0.4h2.4V27z M32.4,23.6h1.4
			v-0.5h-1.4V23.6z M33.9,24.4v-0.5h-1.4v0.5H33.9z M37,21.8v0.4h-1.5v0.4H35v-0.4h-0.8v-0.4H35v-0.4h0.5v0.4H37z M35.8,23.1h-1.5
			v0.5h1.5V23.1z M35.8,23.9h-1.5v0.5h1.5V23.9z"/>
	</g>
	<g class="st2">
		<path class="st3" d="M15.6,52.3c0.4,0,0.7,0.1,0.9,0.2c0.5,0.3,0.7,1,0.7,2.1c0,0.8-0.1,1.4-0.4,1.7c-0.3,0.3-0.7,0.5-1.2,0.5
			c-0.5,0-0.9-0.2-1.2-0.5S14,55.5,14,54.6c0-0.8,0.1-1.4,0.4-1.8C14.7,52.5,15.1,52.3,15.6,52.3z M15.6,52.8
			c-0.3,0-0.5,0.1-0.6,0.2c-0.3,0.2-0.5,0.8-0.5,1.7c0,0.7,0.1,1.1,0.3,1.4c0.2,0.3,0.4,0.4,0.8,0.4c0.4,0,0.6-0.1,0.8-0.4
			c0.2-0.3,0.3-0.7,0.3-1.4c0-0.7-0.1-1.2-0.3-1.4C16.3,52.9,16,52.8,15.6,52.8z"/>
		<path class="st3" d="M17.9,56.8V56h0.5v0.8H17.9z"/>
		<path class="st3" d="M19.4,52.5c0.4-0.1,0.9-0.2,1.3-0.2c0.5,0,0.8,0.1,1,0.3c0.2,0.2,0.3,0.5,0.3,0.9c0,0.2,0,0.4-0.1,0.4
			c-0.1,0.1-0.1,0.2-0.1,0.2c0,0-0.1,0.1-0.1,0.1c-0.1,0.1-0.2,0.1-0.2,0.2l-0.1,0c0.3,0.1,0.4,0.2,0.6,0.4c0.1,0.1,0.2,0.4,0.2,0.7
			c0,0.4-0.1,0.8-0.3,1c-0.2,0.2-0.6,0.3-1.1,0.3c-0.4,0-0.8,0-1.2-0.1l-0.2,0l0-0.4c0.5,0.1,0.9,0.1,1.3,0.1c0.6,0,1-0.3,1-0.9
			c0-0.5-0.3-0.8-0.9-0.8h-0.9v-0.4h0.9c0.2,0,0.4-0.1,0.5-0.2c0.2-0.1,0.3-0.3,0.3-0.6c0-0.2-0.1-0.4-0.2-0.5
			c-0.1-0.1-0.4-0.2-0.7-0.2c-0.4,0-0.7,0-1.1,0.1l-0.2,0L19.4,52.5z"/>
		<path class="st3" d="M27.7,52.1c-0.1,0.3-0.2,0.7-0.3,1h2.2v4.3h-0.5v-0.4h-3.4v0.4h-0.5V53h1.6c0.1-0.3,0.1-0.7,0.2-1h-2.6v-0.5
			h5.8v0.5H27.7z M29.2,53.5h-3.4v1.2h3.4V53.5z M29.2,56.4v-1.2h-3.4v1.2H29.2z"/>
		<path class="st3" d="M32.7,52h-1.5v-0.4h1.5v-0.4h0.5v0.4H34V52h-0.8v0.4h-0.5V52z M36.8,56.8c0,0.2,0,0.3-0.2,0.4
			c-0.2,0.1-0.4,0.1-0.9,0.1c0-0.1-0.1-0.3-0.1-0.4c0.3,0,0.6,0,0.6,0c0.1,0,0.1,0,0.1-0.1v-1.4h-1.9v0.7l0.8,0
			c-0.1-0.2-0.2-0.3-0.3-0.4l0.4-0.1c0.3,0.4,0.6,0.8,0.7,1.2l-0.4,0.1c0-0.1-0.1-0.2-0.2-0.4c-1.1,0.1-2.2,0.1-2.9,0.2l0-0.4
			c0.4,0,0.9,0,1.4-0.1v-0.7H32v1.9h-0.5v-1.9h-0.3V55h0.3v-0.2H32V55h1.9v-0.4H32v-2h4.3v2h-2V55h2.4V56.8z M32.4,53.4h1.4v-0.5
			h-1.4V53.4z M33.9,54.2v-0.5h-1.4v0.5H33.9z M37,51.6V52h-1.5v0.4H35V52h-0.8v-0.4H35v-0.4h0.5v0.4H37z M35.8,52.9h-1.5v0.5h1.5
			V52.9z M35.8,53.7h-1.5v0.5h1.5V53.7z"/>
	</g>
	<g class="st2">
		<path class="st3" d="M15.6,82.1c0.4,0,0.7,0.1,0.9,0.2c0.5,0.3,0.7,1,0.7,2.1c0,0.8-0.1,1.4-0.4,1.7c-0.3,0.3-0.7,0.5-1.2,0.5
			c-0.5,0-0.9-0.2-1.2-0.5c-0.3-0.3-0.4-0.9-0.4-1.7c0-0.8,0.1-1.4,0.4-1.8C14.7,82.3,15.1,82.1,15.6,82.1z M15.6,82.6
			c-0.3,0-0.5,0.1-0.6,0.2c-0.3,0.2-0.5,0.8-0.5,1.7c0,0.7,0.1,1.1,0.3,1.4c0.2,0.3,0.4,0.4,0.8,0.4c0.4,0,0.6-0.1,0.8-0.4
			c0.2-0.3,0.3-0.7,0.3-1.4s-0.1-1.2-0.3-1.4C16.3,82.7,16,82.6,15.6,82.6z"/>
		<path class="st3" d="M17.9,86.6v-0.8h0.5v0.8H17.9z"/>
		<path class="st3" d="M22.2,86.6h-2.8v-0.4l1.3-1.4c0.2-0.2,0.4-0.4,0.5-0.5c0.1-0.1,0.2-0.3,0.3-0.4c0.1-0.2,0.1-0.3,0.1-0.5
			c0-0.3-0.1-0.5-0.2-0.6c-0.2-0.1-0.4-0.2-0.7-0.2c-0.3,0-0.6,0-1,0.1l-0.2,0l0-0.4c0.4-0.1,0.9-0.2,1.3-0.2s0.8,0.1,1,0.3
			c0.2,0.2,0.3,0.5,0.3,0.9c0,0.3-0.1,0.6-0.2,0.8c-0.1,0.2-0.4,0.5-0.7,0.8L20,86.2h2.2V86.6z"/>
		<path class="st3" d="M27.7,81.9c-0.1,0.3-0.2,0.7-0.3,1h2.2v4.3h-0.5v-0.4h-3.4v0.4h-0.5v-4.3h1.6c0.1-0.3,0.1-0.7,0.2-1h-2.6
			v-0.5h5.8v0.5H27.7z M29.2,83.3h-3.4v1.2h3.4V83.3z M29.2,86.2V85h-3.4v1.2H29.2z"/>
		<path class="st3" d="M32.7,81.9h-1.5v-0.4h1.5V81h0.5v0.4H34v0.4h-0.8v0.4h-0.5V81.9z M36.8,86.6c0,0.2,0,0.3-0.2,0.4
			c-0.2,0.1-0.4,0.1-0.9,0.1c0-0.1-0.1-0.3-0.1-0.4c0.3,0,0.6,0,0.6,0c0.1,0,0.1,0,0.1-0.1v-1.4h-1.9v0.7l0.8,0
			c-0.1-0.2-0.2-0.3-0.3-0.4l0.4-0.1c0.3,0.4,0.6,0.8,0.7,1.2l-0.4,0.1c0-0.1-0.1-0.2-0.2-0.4c-1.1,0.1-2.2,0.1-2.9,0.2l0-0.4
			c0.4,0,0.9,0,1.4-0.1v-0.7H32v1.9h-0.5v-1.9h-0.3v-0.4h0.3v-0.2H32v0.2h1.9v-0.4H32v-2h4.3v2h-2v0.4h2.4V86.6z M32.4,83.2h1.4
			v-0.5h-1.4V83.2z M33.9,84v-0.5h-1.4V84H33.9z M37,81.4v0.4h-1.5v0.4H35v-0.4h-0.8v-0.4H35V81h0.5v0.4H37z M35.8,82.7h-1.5v0.5
			h1.5V82.7z M35.8,83.5h-1.5V84h1.5V83.5z"/>
	</g>
	<g class="st2">
		<path class="st3" d="M15.6,111.9c0.4,0,0.7,0.1,0.9,0.2c0.5,0.3,0.7,1,0.7,2.1c0,0.8-0.1,1.4-0.4,1.7c-0.3,0.3-0.7,0.5-1.2,0.5
			c-0.5,0-0.9-0.2-1.2-0.5c-0.3-0.3-0.4-0.9-0.4-1.7c0-0.8,0.1-1.4,0.4-1.8C14.7,112.1,15.1,111.9,15.6,111.9z M15.6,112.4
			c-0.3,0-0.5,0.1-0.6,0.2c-0.3,0.2-0.5,0.8-0.5,1.7c0,0.7,0.1,1.1,0.3,1.4c0.2,0.3,0.4,0.4,0.8,0.4c0.4,0,0.6-0.1,0.8-0.4
			c0.2-0.3,0.3-0.7,0.3-1.4c0-0.7-0.1-1.2-0.3-1.4C16.3,112.5,16,112.4,15.6,112.4z"/>
		<path class="st3" d="M17.9,116.4v-0.8h0.5v0.8H17.9z"/>
		<path class="st3" d="M21.5,112v4.4H21v-3.8l-1.1,0.7l-0.2-0.4L21,112H21.5z"/>
		<path class="st3" d="M27.7,111.7c-0.1,0.3-0.2,0.7-0.3,1h2.2v4.3h-0.5v-0.4h-3.4v0.4h-0.5v-4.3h1.6c0.1-0.3,0.1-0.7,0.2-1h-2.6
			v-0.5h5.8v0.5H27.7z M29.2,113.1h-3.4v1.2h3.4V113.1z M29.2,116v-1.2h-3.4v1.2H29.2z"/>
		<path class="st3" d="M32.7,111.7h-1.5v-0.4h1.5v-0.4h0.5v0.4H34v0.4h-0.8v0.4h-0.5V111.7z M36.8,116.4c0,0.2,0,0.3-0.2,0.4
			c-0.2,0.1-0.4,0.1-0.9,0.1c0-0.1-0.1-0.3-0.1-0.4c0.3,0,0.6,0,0.6,0c0.1,0,0.1,0,0.1-0.1V115h-1.9v0.7l0.8,0
			c-0.1-0.2-0.2-0.3-0.3-0.4l0.4-0.1c0.3,0.4,0.6,0.8,0.7,1.2l-0.4,0.1c0-0.1-0.1-0.2-0.2-0.4c-1.1,0.1-2.2,0.1-2.9,0.2l0-0.4
			c0.4,0,0.9,0,1.4-0.1V115H32v1.9h-0.5V115h-0.3v-0.4h0.3v-0.2H32v0.2h1.9v-0.4H32v-2h4.3v2h-2v0.4h2.4V116.4z M32.4,113h1.4v-0.5
			h-1.4V113z M33.9,113.8v-0.5h-1.4v0.5H33.9z M37,111.2v0.4h-1.5v0.4H35v-0.4h-0.8v-0.4H35v-0.4h0.5v0.4H37z M35.8,112.5h-1.5v0.5
			h1.5V112.5z M35.8,113.4h-1.5v0.5h1.5V113.4z"/>
	</g>
	<g class="st2">
		<path class="st3" d="M15.6,141.7c0.4,0,0.7,0.1,0.9,0.2c0.5,0.3,0.7,1,0.7,2.1c0,0.8-0.1,1.4-0.4,1.7c-0.3,0.3-0.7,0.5-1.2,0.5
			c-0.5,0-0.9-0.2-1.2-0.5c-0.3-0.3-0.4-0.9-0.4-1.7c0-0.8,0.1-1.4,0.4-1.8C14.7,141.9,15.1,141.7,15.6,141.7z M15.6,142.2
			c-0.3,0-0.5,0.1-0.6,0.2c-0.3,0.2-0.5,0.8-0.5,1.7c0,0.7,0.1,1.1,0.3,1.4c0.2,0.3,0.4,0.4,0.8,0.4c0.4,0,0.6-0.1,0.8-0.4
			c0.2-0.3,0.3-0.7,0.3-1.4s-0.1-1.2-0.3-1.4C16.3,142.3,16,142.2,15.6,142.2z"/>
		<path class="st3" d="M17.9,146.2v-0.8h0.5v0.8H17.9z"/>
		<path class="st3" d="M20.8,141.7c0.4,0,0.7,0.1,0.9,0.2c0.5,0.3,0.7,1,0.7,2.1c0,0.8-0.1,1.4-0.4,1.7c-0.3,0.3-0.7,0.5-1.2,0.5
			c-0.5,0-0.9-0.2-1.2-0.5c-0.3-0.3-0.4-0.9-0.4-1.7c0-0.8,0.1-1.4,0.4-1.8C19.8,141.9,20.2,141.7,20.8,141.7z M20.8,142.2
			c-0.3,0-0.5,0.1-0.6,0.2c-0.3,0.2-0.5,0.8-0.5,1.7c0,0.7,0.1,1.1,0.3,1.4c0.2,0.3,0.4,0.4,0.8,0.4s0.6-0.1,0.8-0.4
			c0.2-0.3,0.3-0.7,0.3-1.4s-0.1-1.2-0.3-1.4C21.4,142.3,21.2,142.2,20.8,142.2z"/>
		<path class="st3" d="M27.7,141.5c-0.1,0.3-0.2,0.7-0.3,1h2.2v4.3h-0.5v-0.4h-3.4v0.4h-0.5v-4.3h1.6c0.1-0.3,0.1-0.7,0.2-1h-2.6
			V141h5.8v0.5H27.7z M29.2,142.9h-3.4v1.2h3.4V142.9z M29.2,145.8v-1.2h-3.4v1.2H29.2z"/>
		<path class="st3" d="M32.7,141.5h-1.5v-0.4h1.5v-0.4h0.5v0.4H34v0.4h-0.8v0.4h-0.5V141.5z M36.8,146.2c0,0.2,0,0.3-0.2,0.4
			c-0.2,0.1-0.4,0.1-0.9,0.1c0-0.1-0.1-0.3-0.1-0.4c0.3,0,0.6,0,0.6,0c0.1,0,0.1,0,0.1-0.1v-1.4h-1.9v0.7l0.8,0
			c-0.1-0.2-0.2-0.3-0.3-0.4l0.4-0.1c0.3,0.4,0.6,0.8,0.7,1.2l-0.4,0.1c0-0.1-0.1-0.2-0.2-0.4c-1.1,0.1-2.2,0.1-2.9,0.2l0-0.4
			c0.4,0,0.9,0,1.4-0.1v-0.7H32v1.9h-0.5v-1.9h-0.3v-0.4h0.3v-0.2H32v0.2h1.9V144H32v-2h4.3v2h-2v0.4h2.4V146.2z M32.4,142.8h1.4
			v-0.5h-1.4V142.8z M33.9,143.6v-0.5h-1.4v0.5H33.9z M37,141.1v0.4h-1.5v0.4H35v-0.4h-0.8v-0.4H35v-0.4h0.5v0.4H37z M35.8,142.3
			h-1.5v0.5h1.5V142.3z M35.8,143.2h-1.5v0.5h1.5V143.2z"/>
	</g>
	<g>
		<rect x="46.2" y="23.5" class="st4" width="636" height="0.6"/>
		<rect x="46.2" y="53.4" class="st4" width="636" height="0.6"/>
		<rect x="46.2" y="83.4" class="st4" width="636" height="0.6"/>
		<rect x="46.2" y="113.3" class="st4" width="636" height="0.6"/>
		<rect x="46.2" y="143.3" class="st4" width="636" height="0.6"/>
	</g>
	<path class="st5" d="M672.9,140.4c-0.1-0.2-9.9-16.6-19.5-32.9c-14.8-25-18.3-31.5-19-33.3H520.1l-35.2,4.5H367.3l-0.1,0l-36.8-9.6
		l-116.3-2.3l-35.2,4h-117v-1.1h116.9l35.2-4l0,0L330.5,68l0.1,0l36.8,9.6h117.4l35.2-4.5h114.7v0.6l0.4,0.4
		c0.1-0.2,0.1-0.3,0.1-0.4c0.5,2,23.3,40.7,38.6,66.2L672.9,140.4z"/>
	<polygon class="st6" points="175.4,96.5 138.3,66.9 101.2,66.9 62.2,89.5 61.6,88.6 100.9,65.8 138.7,65.8 175.5,95.2 214,75.4 
		214.2,75.4 252.6,86.2 291.7,74.9 292,76 252.7,87.4 252.5,87.3 214.1,76.6 	"/>
	<g>
		
			<rect x="61.9" y="53.2" transform="matrix(0.9684 -0.2495 0.2495 0.9684 -11.4392 17.2432)" class="st7" width="0.9" height="1.1"/>
		<path class="st7" d="M215.7,74.9l-1.6-0.7l0.4-1l1.5,0.6l-0.1,0.3l0.1,0.7L215.7,74.9z M217.6,74.6l-0.2-1.1l1.7-0.3l0.2,1.1
			L217.6,74.6z M221,74l-0.2-1.1l1.7-0.3l0.2,1.1L221,74z M224.3,73.5l-0.2-1.1l1.7-0.3l0.2,1.1L224.3,73.5z M212.5,73.5l-1.6-0.7
			l0.4-1l1.6,0.7L212.5,73.5z M227.7,73l-0.2-1.1l1.7-0.3l0.2,1.1L227.7,73z M231.1,72.5l-0.2-1.1l1.7-0.3l0.2,1.1L231.1,72.5z
			 M209.4,72.2l-1.6-0.7l0.4-1l1.6,0.7L209.4,72.2z M234.4,72l-0.2-1.1l1.7-0.3l0.2,1.1L234.4,72z M237.8,71.4l-0.2-1.1l1.7-0.3
			l0.2,1.1L237.8,71.4z M241.2,70.9l-0.2-1.1l1.7-0.3l0.2,1.1L241.2,70.9z M206.2,70.8l-1.6-0.7l0.4-1l1.6,0.7L206.2,70.8z
			 M244.5,70.4l-0.2-1.1L246,69l0.2,1.1L244.5,70.4z M247.9,69.9l-0.2-1.1l1.7-0.3l0.2,1.1L247.9,69.9z M203.1,69.5l-1.6-0.7l0.4-1
			l1.6,0.7L203.1,69.5z M251.3,69.3l-0.2-1.1l1.7-0.3l0.2,1.1L251.3,69.3z M254.6,68.8l-0.2-1.1l1.7-0.3l0.2,1.1L254.6,68.8z
			 M258,68.3l-0.2-1.1l1.7-0.3l0.2,1.1L258,68.3z M200,68.1l-1.6-0.7l0.4-1l1.6,0.7L200,68.1z M261.3,67.8l-0.2-1.1l1.7-0.3l0.2,1.1
			L261.3,67.8z M264.7,67.2l-0.2-1.1l1.7-0.3l0.2,1.1L264.7,67.2z M268.1,66.8l-0.1-1.1l1.7-0.2l0.1,1.1L268.1,66.8z M196.9,66.8
			l-1.6-0.7l0.4-1l1.6,0.7L196.9,66.8z M271.4,66.4l-0.1-1.1l1.7-0.2l0.1,1.1L271.4,66.4z M274.8,66l-0.1-1.1l1.7-0.2l0.1,1.1
			L274.8,66z M278.2,65.6l-0.1-1.1l1.7-0.2l0.1,1.1L278.2,65.6z M193.7,65.4l-1.6-0.7l0.4-1l1.6,0.7L193.7,65.4z M281.6,65.3
			l-0.1-1.1l1.7-0.2l0.1,1.1L281.6,65.3z M285,64.9l-0.1-1.1l1.7-0.2l0.1,1.1L285,64.9z M288.4,64.5l-0.1-1.1l1.7-0.2l0.1,1.1
			L288.4,64.5z M291.7,64.1l-0.1-1.1l1.7-0.2l0.1,1.1L291.7,64.1z M190.6,64.1l-1.6-0.7l0.4-1L191,63L190.6,64.1z M295.1,63.7
			l-0.1-1.1l1.7-0.2l0.1,1.1L295.1,63.7z M298.5,63.4l-0.1-1.1l1.7-0.2l0.1,1.1L298.5,63.4z M301.9,63l-0.1-1.1l1.7-0.2l0.1,1.1
			L301.9,63z M187.5,62.7l-1.6-0.7l0.4-1l1.6,0.7L187.5,62.7z M305.3,62.6l-0.1-1.1l1.7-0.2l0.1,1.1L305.3,62.6z M308.7,62.2
			l-0.1-1.1l1.7-0.2l0.1,1.1L308.7,62.2z M312,61.8l-0.1-1.1l1.7-0.2l0.1,1.1L312,61.8z M315.4,61.5l-0.1-1.1l1.7-0.2l0.1,1.1
			L315.4,61.5z M184.3,61.4l-1.6-0.7l0.4-1l1.6,0.7L184.3,61.4z M318.8,61.1l-0.1-1.1l1.7-0.2l0.1,1.1L318.8,61.1z M322.2,60.7
			l-0.1-1.1l1.7-0.2l0.1,1.1L322.2,60.7z M325.6,60.3l-0.1-1.1l1.7-0.2l0.1,1.1L325.6,60.3z M181.2,60l-1.6-0.7l0.4-1l1.6,0.7
			L181.2,60z M328.9,59.9l-0.1-1.1l1.7-0.2l0.1,1.1L328.9,59.9z M332.3,59.6l-0.1-1.1l0.5-0.1h1.3v1.1h-1.2L332.3,59.6z M364.6,59.5
			h-1.7v-1.1h1.7V59.5z M361.2,59.5h-1.7v-1.1h1.7V59.5z M357.8,59.5h-1.7v-1.1h1.7V59.5z M354.4,59.5h-1.7v-1.1h1.7V59.5z
			 M351,59.5h-1.7v-1.1h1.7V59.5z M347.6,59.5h-1.7v-1.1h1.7V59.5z M344.2,59.5h-1.7v-1.1h1.7V59.5z M340.8,59.5h-1.7v-1.1h1.7V59.5
			z M337.4,59.5h-1.7v-1.1h1.7V59.5z M366.4,59.4l-0.1-1.1l1.7-0.2l0.1,1.1L366.4,59.4z M369.8,59l-0.1-1.1l1.7-0.2l0.1,1.1
			L369.8,59z M178.1,58.7l-1.6-0.7l0.4-1l1.6,0.7L178.1,58.7z M373.1,58.6l-0.1-1.1l1.7-0.2l0.1,1.1L373.1,58.6z M376.5,58.1
			l-0.1-1.1l1.7-0.2l0.1,1.1L376.5,58.1z M379.9,57.7l-0.1-1.1l1.7-0.2l0.1,1.1L379.9,57.7z M175,57.3l-0.2-0.1h-1.2v-1.1h1.5
			l0.4,0.2L175,57.3z M383.3,57.3l-0.1-1.1l1.7-0.2l0.1,1.1L383.3,57.3z M171.8,57.3h-1.7v-1.1h1.7V57.3z M168.4,57.3h-1.7v-1.1h1.7
			V57.3z M165,57.3h-1.7v-1.1h1.7V57.3z M161.6,57.3h-1.7v-1.1h1.7V57.3z M158.2,57.3h-1.7v-1.1h1.7V57.3z M154.8,57.3h-1.7v-1.1
			h1.7V57.3z M151.4,57.3h-1.7v-1.1h1.7V57.3z M148,57.3h-1.7v-1.1h1.7V57.3z M144.6,57.3h-1.7v-1.1h1.7V57.3z M141.2,57.3h-1.7
			v-1.1h1.7V57.3z M137.8,57.3h-1l-0.8-0.3l0.4-1.1l0.6,0.2h0.9V57.3z M386.6,56.8l-0.1-1.1l1.7-0.2l0.1,1.1L386.6,56.8z
			 M134.3,56.4l-1.6-0.5l0.4-1.1l1.6,0.5L134.3,56.4z M390,56.4l-0.1-1.1l1.7-0.2l0.1,1.1L390,56.4z M393.4,56l-0.1-1.1l1.7-0.2
			l0.1,1.1L393.4,56z M396.8,55.5l-0.1-1.1l1.7-0.2l0.1,1.1L396.8,55.5z M131.1,55.4l-1.6-0.5l0.4-1.1l1.6,0.5L131.1,55.4z
			 M400.1,55.1L400,54l1.7-0.2l0.1,1.1L400.1,55.1z M403.5,54.7l-0.1-1.1l1.7-0.2l0.1,1.1L403.5,54.7z M127.9,54.3l-1.6-0.5l0.4-1.1
			l1.6,0.5L127.9,54.3z M446,54.3h-1.7v-1.1h1.7V54.3z M442.6,54.3h-1.7v-1.1h1.7V54.3z M439.2,54.3h-1.7v-1.1h1.7V54.3z
			 M435.8,54.3h-1.7v-1.1h1.7V54.3z M432.4,54.3h-1.7v-1.1h1.7V54.3z M429,54.3h-1.7v-1.1h1.7V54.3z M425.5,54.3h-1.7v-1.1h1.7V54.3
			z M422.1,54.3h-1.7v-1.1h1.7V54.3z M418.7,54.3H417v-1.1h1.7V54.3z M415.3,54.3h-1.7v-1.1h1.7V54.3z M411.9,54.3h-1.7v-1.1h1.7
			V54.3z M408.5,54.3h-1.7v-1.1h1.7V54.3z M447.8,54.1l-0.4-1.1l1.6-0.6l0.4,1.1L447.8,54.1z M64.5,53.8l-0.3-1.1l1.6-0.4l0.3,1.1
			L64.5,53.8z M124.6,53.2l-1.6-0.5l0.4-1.1l1.6,0.5L124.6,53.2z M451,52.9l-0.4-1.1l1.6-0.6l0.4,1.1L451,52.9z M67.8,52.9l-0.3-1.1
			l1.6-0.4l0.3,1.1L67.8,52.9z M121.4,52.1l-1.6-0.5l0.4-1.1l1.6,0.5L121.4,52.1z M71.1,52.1L70.8,51l1.6-0.4l0.3,1.1L71.1,52.1z
			 M454.2,51.7l-0.4-1.1l1.6-0.6l0.4,1.1L454.2,51.7z M74.4,51.2l-0.3-1.1l1.6-0.4l0.3,1.1L74.4,51.2z M118.2,51.1l-1.6-0.5l0.4-1.1
			l1.6,0.5L118.2,51.1z M457.4,50.5l-0.4-1.1l1.6-0.6l0.4,1.1L457.4,50.5z M77.7,50.4l-0.3-1.1l1.6-0.4l0.3,1.1L77.7,50.4z
			 M114.9,50l-1.6-0.5l0.4-1.1l1.6,0.5L114.9,50z M81,49.5l-0.3-1.1l1.6-0.4l0.3,1.1L81,49.5z M460.6,49.3l-0.4-1.1l1.6-0.6l0.4,1.1
			L460.6,49.3z M111.7,48.9l-1.6-0.5l0.4-1.1l1.6,0.5L111.7,48.9z M84.3,48.7L84,47.6l1.6-0.4l0.3,1.1L84.3,48.7z M463.8,48.1
			l-0.4-1.1l1.6-0.6l0.4,1.1L463.8,48.1z M108.5,47.8l-1.6-0.5l0.4-1.1l1.6,0.5L108.5,47.8z M87.6,47.8l-0.3-1.1l1.6-0.4l0.3,1.1
			L87.6,47.8z M90.9,47l-0.3-1.1l1.6-0.4l0.3,1.1L90.9,47z M467,46.9l-0.4-1.1l1.6-0.6l0.4,1.1L467,46.9z M105.3,46.8l-1.6-0.5
			l0.4-1.1l1.6,0.5L105.3,46.8z M94.2,46.1L93.9,45l1.6-0.4l0.3,1.1L94.2,46.1z M470.2,45.8l-0.4-1.1l1.6-0.6l0.4,1.1L470.2,45.8z
			 M102,45.7l-1.6-0.5l0.4-1.1l1.6,0.5L102,45.7z M97.5,45.3l-0.3-1.1l1.6-0.4l0.3,1.1L97.5,45.3z M473.4,44.6l-0.4-1.1l1.6-0.6
			L475,44L473.4,44.6z M476.5,43.4l-0.4-1.1l1.6-0.6l0.4,1.1L476.5,43.4z"/>
		<polygon class="st7" points="480.9,42.2 480.3,42 479.7,42.2 479.3,41.1 480.4,40.7 481.3,41.2 		"/>
		<path class="st7" d="M670,135.8l-0.9-1.4l0.9-0.6l0.9,1.4L670,135.8z M668.1,133l-0.9-1.4l0.9-0.6l0.9,1.4L668.1,133z
			 M666.2,130.2l-0.9-1.4l0.9-0.6l0.9,1.4L666.2,130.2z M664.3,127.3l-0.9-1.4l0.9-0.6l0.9,1.4L664.3,127.3z M662.5,124.5l-0.9-1.4
			l0.9-0.6l0.9,1.4L662.5,124.5z M660.6,121.7l-0.9-1.4l0.9-0.6l0.9,1.4L660.6,121.7z M658.7,118.9l-0.9-1.4l0.9-0.6l0.9,1.4
			L658.7,118.9z M656.8,116l-0.9-1.4l0.9-0.6l0.9,1.4L656.8,116z M654.9,113.2l-0.9-1.4l0.9-0.6l0.9,1.4L654.9,113.2z M653,110.4
			l-0.9-1.4l0.9-0.6l0.9,1.4L653,110.4z M651.1,107.5l-0.9-1.4l0.9-0.6l0.9,1.4L651.1,107.5z M649.3,104.7l-0.9-1.4l0.9-0.6l0.9,1.4
			L649.3,104.7z M647.4,101.9l-0.9-1.4l0.9-0.6l0.9,1.4L647.4,101.9z M645.5,99l-0.9-1.4l0.9-0.6l0.9,1.4L645.5,99z M643.6,96.2
			l-0.9-1.4l0.9-0.6l0.9,1.4L643.6,96.2z M641.7,93.4l-0.9-1.4l0.9-0.6l0.9,1.4L641.7,93.4z M639.8,90.5l-0.9-1.4l0.9-0.6l0.9,1.4
			L639.8,90.5z M637.9,87.7l-0.9-1.4l0.9-0.6l0.9,1.4L637.9,87.7z M636,84.9l-0.9-1.4l0.9-0.6l0.9,1.4L636,84.9z M634.2,82l-0.3-0.5
			l-0.7-0.3l0.5-1l1,0.5l0.5,0.8L634.2,82z M631.6,80.4l-1.5-0.8l0.5-1l1.5,0.8L631.6,80.4z M628.5,78.9l-1.5-0.8l0.5-1l1.5,0.8
			L628.5,78.9z M625.5,77.4l-1.5-0.8l0.5-1l1.5,0.8L625.5,77.4z M622.4,75.9l-1.5-0.8l0.5-1l1.5,0.8L622.4,75.9z M619.4,74.4
			l-1.5-0.8l0.5-1l1.5,0.8L619.4,74.4z M616.3,72.9l-1.5-0.8l0.5-1l1.5,0.8L616.3,72.9z M613.3,71.4l-1.5-0.8l0.5-1l1.5,0.8
			L613.3,71.4z M610.2,69.9l-1.5-0.8l0.5-1l1.5,0.8L610.2,69.9z M607.2,68.4l-1.5-0.8l0.5-1l1.5,0.8L607.2,68.4z M604.1,66.9
			l-1.5-0.8l0.5-1l1.5,0.8L604.1,66.9z M601.1,65.4l-0.5-0.3l-0.9-0.2l0.2-1.1l1.2,0.2l0.6,0.3L601.1,65.4z M597.9,64.7l-1.7-0.3
			l0.2-1.1l1.7,0.3L597.9,64.7z M594.6,64l-1.7-0.3l0.2-1.1l1.7,0.3L594.6,64z M591.2,63.4l-1.7-0.3l0.2-1.1l1.7,0.3L591.2,63.4z
			 M587.9,62.8l-1.7-0.3l0.2-1.1l1.7,0.3L587.9,62.8z M523.4,62.4l-1-0.5l0.5-1l0.7,0.3l0.6-0.1l0.2,1.1L523.4,62.4z M584.5,62.2
			l-1.7-0.3l0.2-1.1l1.7,0.3L584.5,62.2z M526,62l-0.2-1.1l1.7-0.2l0.2,1.1L526,62z M581.2,61.5l-1.7-0.3l0.2-1.1l1.7,0.3
			L581.2,61.5z M529.4,61.5l-0.2-1.1l1.7-0.2l0.2,1.1L529.4,61.5z M520.8,61.2l-1.5-0.7l0.5-1l1.5,0.7L520.8,61.2z M532.7,61
			l-0.2-1.1l1.7-0.2l0.2,1.1L532.7,61z M577.9,60.9l-1.7-0.3l0.2-1.1l1.7,0.3L577.9,60.9z M536.1,60.5l-0.2-1.1l1.7-0.2l0.2,1.1
			L536.1,60.5z M574.5,60.3l-1.7-0.3l0.2-1.1l1.7,0.3L574.5,60.3z M539.5,60l-0.2-1.1l1.7-0.2l0.2,1.1L539.5,60z M517.8,59.7
			l-1.5-0.7l0.5-1l1.5,0.7L517.8,59.7z M571.2,59.6l-1.7-0.3l0.2-1.1l1.7,0.3L571.2,59.6z M542.8,59.6l-0.2-1.1l1.7-0.2l0.2,1.1
			L542.8,59.6z M546.2,59.1l-0.2-1.1l1.7-0.2l0.2,1.1L546.2,59.1z M567.8,59l-1.7-0.3l0.2-1.1l1.7,0.3L567.8,59z M549.6,58.6
			l-0.2-1.1l1.7-0.2l0.2,1.1L549.6,58.6z M564.5,58.4l-1.7-0.3l0.2-1.1l1.7,0.3L564.5,58.4z M514.7,58.3l-1.5-0.7l0.5-1l1.5,0.7
			L514.7,58.3z M552.9,58.1l-0.2-1.1l1.7-0.2l0.2,1.1L552.9,58.1z M561.1,57.7l-1.7-0.3l0.2-1.1l1.7,0.3L561.1,57.7z M556.3,57.6
			l-0.2-1.1l1.7-0.2l0.2,1.1L556.3,57.6z M511.6,56.8l-1.5-0.7l0.5-1l1.5,0.7L511.6,56.8z M508.5,55.3l-1.5-0.7l0.5-1l1.5,0.7
			L508.5,55.3z M505.5,53.9l-1.5-0.7l0.5-1l1.5,0.7L505.5,53.9z M502.4,52.4l-1.5-0.7l0.5-1l1.5,0.7L502.4,52.4z M499.3,51l-1.5-0.7
			l0.5-1l1.5,0.7L499.3,51z M496.2,49.5l-1.5-0.7l0.5-1l1.5,0.7L496.2,49.5z M493.2,48.1l-1.5-0.7l0.5-1l1.5,0.7L493.2,48.1z
			 M490.1,46.6l-1.5-0.7l0.5-1l1.5,0.7L490.1,46.6z M487,45.1l-1.5-0.7l0.5-1l1.5,0.7L487,45.1z M483.9,43.7l-1.5-0.7l0.5-1l1.5,0.7
			L483.9,43.7z"/>
		
			<rect x="671.1" y="136.9" transform="matrix(0.8324 -0.5542 0.5542 0.8324 36.5051 395.2841)" class="st7" width="1.1" height="0.9"/>
	</g>
	<g>
		<g class="st2">
			<path class="st3" d="M21.2,4.1V3.6h3.3v0.5h-1.4v4.2h-0.5V4.1H21.2z"/>
			<path class="st3" d="M26.9,5.9v1.7c0,0.2,0.1,0.3,0.4,0.3l0,0.4c-0.4,0-0.6-0.1-0.8-0.3c-0.4,0.2-0.8,0.3-1.2,0.3
				c-0.3,0-0.5-0.1-0.7-0.3c-0.2-0.2-0.2-0.4-0.2-0.7s0.1-0.6,0.2-0.7c0.2-0.2,0.4-0.2,0.8-0.3l1-0.1V5.9c0-0.2,0-0.4-0.1-0.5
				c-0.1-0.1-0.2-0.1-0.4-0.1c-0.4,0-0.7,0-1.1,0.1l-0.2,0l0-0.4c0.5-0.1,0.9-0.1,1.3-0.1c0.4,0,0.7,0.1,0.8,0.3
				C26.8,5.3,26.9,5.6,26.9,5.9z M24.8,7.3c0,0.4,0.2,0.6,0.5,0.6c0.3,0,0.6-0.1,0.9-0.2l0.2-0.1V6.6l-1,0.1c-0.2,0-0.3,0.1-0.4,0.2
				C24.9,7,24.8,7.1,24.8,7.3z"/>
			<path class="st3" d="M27.9,8.2V4.9h0.5v0.5c0.4-0.3,0.8-0.4,1.2-0.5v0.5c-0.2,0-0.4,0.1-0.6,0.2c-0.2,0.1-0.4,0.1-0.5,0.2
				l-0.2,0.1v2.4H27.9z"/>
			<path class="st3" d="M31.4,9.8c-0.5,0-0.9-0.1-1.1-0.2C30.1,9.5,30,9.2,30,8.8c0-0.2,0-0.3,0.1-0.4c0.1-0.1,0.2-0.2,0.4-0.4
				c-0.1-0.1-0.2-0.2-0.2-0.5c0-0.1,0.1-0.2,0.2-0.4L30.5,7C30.2,6.8,30,6.5,30,6c0-0.8,0.4-1.1,1.2-1.1c0.2,0,0.4,0,0.6,0.1l0.1,0
				l1,0v0.4l-0.6,0c0.1,0.1,0.2,0.4,0.2,0.7c0,0.4-0.1,0.7-0.3,0.9c-0.2,0.2-0.5,0.3-1,0.3c-0.1,0-0.2,0-0.3,0
				c-0.1,0.2-0.1,0.3-0.1,0.4c0,0.1,0,0.2,0.1,0.3c0.1,0,0.3,0.1,0.8,0.1c0.4,0,0.7,0.1,0.9,0.2c0.2,0.1,0.3,0.4,0.3,0.8
				C32.9,9.5,32.4,9.8,31.4,9.8z M30.5,8.8c0,0.2,0.1,0.4,0.2,0.5c0.1,0.1,0.4,0.1,0.7,0.1c0.4,0,0.6,0,0.8-0.1
				c0.2-0.1,0.2-0.3,0.2-0.5c0-0.2-0.1-0.4-0.2-0.4c-0.1-0.1-0.3-0.1-0.7-0.1l-0.7,0c-0.1,0.1-0.2,0.2-0.3,0.3
				C30.5,8.5,30.5,8.6,30.5,8.8z M30.5,6c0,0.3,0.1,0.4,0.2,0.6c0.1,0.1,0.3,0.2,0.6,0.2c0.3,0,0.5-0.1,0.6-0.2C32,6.4,32,6.2,32,6
				c0-0.3-0.1-0.5-0.2-0.6c-0.1-0.1-0.3-0.2-0.6-0.2c-0.3,0-0.5,0.1-0.6,0.2C30.6,5.5,30.5,5.7,30.5,6z"/>
			<path class="st3" d="M35.8,7.8l0.2,0l0,0.4c-0.5,0.1-0.9,0.1-1.3,0.1c-0.5,0-0.8-0.1-1-0.4c-0.2-0.3-0.3-0.7-0.3-1.3
				c0-1.2,0.5-1.8,1.4-1.8c0.4,0,0.8,0.1,1,0.4c0.2,0.3,0.3,0.6,0.3,1.2l0,0.4h-2.2c0,0.4,0.1,0.6,0.2,0.8c0.1,0.2,0.4,0.3,0.7,0.3
				C35.1,7.9,35.5,7.9,35.8,7.8z M35.6,6.4c0-0.4-0.1-0.7-0.2-0.9c-0.1-0.2-0.3-0.3-0.6-0.3c-0.3,0-0.5,0.1-0.7,0.3
				C34,5.7,33.9,6,33.9,6.4H35.6z"/>
			<path class="st3" d="M38.6,5.3h-1.1v1.6c0,0.4,0,0.6,0.1,0.8c0.1,0.1,0.2,0.2,0.4,0.2l0.6,0l0,0.4c-0.3,0-0.5,0.1-0.7,0.1
				c-0.3,0-0.6-0.1-0.7-0.3c-0.1-0.2-0.2-0.5-0.2-1V5.3h-0.5V4.9h0.5v-1h0.5v1h1.1V5.3z"/>
		</g>
		<circle class="st5" cx="15.9" cy="5.6" r="3.4"/>
	</g>
	<g>
		<g class="st2">
			<path class="st3" d="M55.6,8.2V3.6h2.8v0.5h-2.2v1.8H58v0.5h-1.9v1.9H55.6z"/>
			<path class="st3" d="M61.8,8.2c-0.5,0.1-0.9,0.1-1.2,0.1c-0.4,0-0.7,0-0.9-0.1c-0.2-0.1-0.4-0.3-0.5-0.5C59,7.5,58.9,7.2,58.9,7
				c0-0.3-0.1-0.6-0.1-1c0-0.4,0-0.8,0.1-1c0-0.3,0.1-0.5,0.3-0.7c0.1-0.2,0.3-0.4,0.5-0.5c0.2-0.1,0.5-0.1,0.9-0.1s0.8,0,1.3,0.1
				l0,0.4C61.3,4.1,60.9,4,60.6,4c-0.5,0-0.8,0.1-1,0.4c-0.2,0.3-0.2,0.8-0.2,1.5c0,0.4,0,0.6,0,0.8c0,0.2,0.1,0.4,0.2,0.6
				c0.1,0.2,0.2,0.3,0.4,0.4c0.2,0.1,0.4,0.1,0.7,0.1c0.3,0,0.7,0,1.1-0.1L61.8,8.2z"/>
			<path class="st3" d="M63.9,4c-0.7,0-1,0.3-1,0.8c0,0.3,0.1,0.5,0.2,0.6c0.2,0.1,0.5,0.2,0.9,0.3c0.5,0.1,0.8,0.2,1,0.4
				c0.2,0.2,0.3,0.4,0.3,0.8c0,0.9-0.5,1.4-1.5,1.4c-0.3,0-0.7,0-1.2-0.1l-0.2,0l0.1-0.4c0.6,0.1,1.1,0.1,1.4,0.1c0.7,0,1-0.3,1-0.9
				c0-0.2-0.1-0.4-0.2-0.5c-0.1-0.1-0.4-0.2-0.8-0.3c-0.5-0.1-0.9-0.3-1.1-0.4c-0.2-0.2-0.3-0.5-0.3-0.9c0-0.8,0.5-1.2,1.5-1.2
				c0.3,0,0.7,0,1.2,0.1l0.2,0l0,0.4C64.6,4.1,64.1,4,63.9,4z"/>
			<path class="st3" d="M65.7,4.1V3.6h3.3v0.5h-1.4v4.2h-0.5V4.1H65.7z"/>
		</g>
		<circle class="st7" cx="49.7" cy="5.6" r="3.4"/>
	</g>
	<g>
		<g class="st2">
			<path class="st3" d="M91.6,4.5v0.4h-1.1l-0.1,0.6h-3.8l0.1-0.6h-1.1V4.5h1.1L86.8,4h3.8l0,0.6H91.6z M89.3,7.8
				c0.8,0.2,1.6,0.4,2.1,0.6l-0.3,0.3c-0.5-0.2-1.3-0.4-2-0.6L89.3,7.8h-1.5l0.4,0.3c-0.5,0.3-1.4,0.5-2.2,0.7
				c-0.1-0.1-0.2-0.3-0.3-0.3c0.7-0.1,1.6-0.3,2-0.6h-1.3V5.8h4.2v2.1H89.3z M86.3,4.3h-0.5V3.2h2.6c-0.1-0.2-0.2-0.3-0.3-0.5
				l0.4-0.1c0.2,0.2,0.3,0.4,0.4,0.6h2.5v1.1h-0.5V3.7h-4.6V4.3z M87,6.4h3.3V6.1H87V6.4z M87,6.9h3.3V6.6H87V6.9z M87,7.5h3.3V7.2
				H87V7.5z M87.1,5.2h1.2c0-0.1,0-0.2,0-0.3h-1.2L87.1,5.2z M87.2,4.3l0,0.3h1.2l0-0.3H87.2z M90,5.2l0-0.3h-1.2c0,0.1,0,0.2,0,0.3
				H90z M90.1,4.3h-1.2l0,0.3h1.2L90.1,4.3z"/>
			<path class="st3" d="M94.3,3.1c-0.2,0.5-0.4,1.2-0.6,1.7c0.5,0.6,0.6,1,0.6,1.4c0,0.4-0.1,0.6-0.3,0.8c-0.1,0.1-0.2,0.1-0.3,0.1
				c-0.1,0-0.3,0-0.4,0c0-0.1,0-0.3-0.1-0.4c0.1,0,0.3,0,0.4,0c0.1,0,0.1,0,0.2-0.1c0.1-0.1,0.1-0.3,0.1-0.5c0-0.4-0.1-0.8-0.6-1.4
				c0.2-0.5,0.4-1.1,0.5-1.5h-0.9v5.3h-0.4V2.9H94l0.1,0L94.3,3.1z M95.2,4.9c0.1-0.1,0.2-0.2,0.3-0.4c-0.1-0.2-0.4-0.4-0.6-0.5
				c-0.1,0.2-0.3,0.4-0.5,0.6c-0.1-0.1-0.2-0.2-0.3-0.3c0.5-0.4,0.8-1,1-1.6l0.4,0.1c0,0.1-0.1,0.3-0.2,0.4H96l0.1,0l0.3,0.1
				c-0.2,0.8-0.5,1.5-1,2.1h1.9c-0.4-0.5-0.7-1.2-0.9-1.9l0.3-0.1V3h1.3L98,3l0.3,0.2c-0.2,0.5-0.5,1.1-0.9,1.5c0.3,0.4,0.6,0.8,1,1
				c-0.1,0.1-0.2,0.2-0.3,0.3c-0.3-0.2-0.5-0.4-0.8-0.7v0.4h-2.1V5.4C95,5.7,94.8,5.9,94.5,6c-0.1-0.1-0.2-0.2-0.3-0.3
				C94.6,5.5,94.9,5.3,95.2,4.9c-0.4,0.1-0.7,0.1-1,0.2l-0.1-0.3c0.3,0,0.6-0.1,1-0.1L95.2,4.9z M95.5,7.2c-0.3,0.4-0.6,0.9-0.9,1.2
				c-0.1-0.1-0.3-0.2-0.4-0.3c0.3-0.3,0.7-0.7,0.9-1.1L95.5,7.2z M96.5,6.8v2h-0.5v-2h-1.5V6.4H98v0.4H96.5z M95.1,3.5
				c0,0.1-0.1,0.1-0.1,0.2c0.2,0.2,0.4,0.3,0.6,0.5c0.1-0.2,0.2-0.4,0.3-0.7H95.1z M96.8,3.4C96.9,3.7,97,4,97.1,4.3
				c0.2-0.3,0.4-0.6,0.5-0.9H96.8z M97.4,7.1c0.3,0.4,0.8,0.8,1,1.1L98,8.4c-0.2-0.3-0.6-0.8-1-1.2L97.4,7.1z"/>
		</g>
		<circle class="st6" cx="80" cy="5.6" r="3.4"/>
	</g>
</g>
</svg>
