<?xml version="1.0" encoding="utf-8"?>
<!-- Generator: Adobe Illustrator 23.0.6, SVG Export Plug-In . SVG Version: 6.00 Build 0)  -->
<svg version="1.1" id="圖層_2" xmlns="http://www.w3.org/2000/svg" xmlns:xlink="http://www.w3.org/1999/xlink" x="0px" y="0px"
	 viewBox="0 0 375 251" style="enable-background:new 0 0 375 251;" xml:space="preserve">
<style type="text/css">
	.st0{fill:#FE8C38;}
	.st1{fill:#24AD6E;}
	.st2{fill:#6962FF;}
	.st3{fill:#0090D0;}
	.st4{enable-background:new    ;}
	.st5{fill:#FFFFFF;}
</style>
<g id="Group_90" transform="translate(-72.556 -10.498)">
	<path id="Path_1103" class="st0" d="M328,136c0,3.3-0.2,6.5-0.7,9.8l46.1,9.9C384,94.6,344.3,36.1,283.6,23.4
		c-16.2-3.4-32.9-3.2-49.1,0.4l12.3,45.6c36.8-7.3,72.5,16.6,79.8,53.4C327.5,127.1,328,131.5,328,136z"/>
	<path id="Path_1104" class="st1" d="M269.5,203.2l3.5,47c47.4-5.5,86.6-39.6,98.5-85.8l-46.1-9.9
		C318,180.4,296.1,199.4,269.5,203.2z"/>
	<path id="Path_1105" class="st2" d="M192.4,140.5h-47.2c2.5,61.7,53.2,110.4,114.9,110.5c1.3,0,2.7,0,4-0.1l-3.5-47.1
		c-0.2,0-0.3,0-0.5,0C224.3,203.8,194.7,176.1,192.4,140.5z"/>
	<path id="Path_1106" class="st3" d="M238.1,71.7l-12.2-45.6c-46.4,14.6-78.7,56.7-80.7,105.3h47.2
		C194.2,104.2,212.2,80.6,238.1,71.7z"/>
</g>
<g class="st4">
	<path class="st5" d="M251.2,67.5V55h7.6v1.2h-6.2v4.3h5.1v1.2h-5.1v4.5h6.2v1.2H251.2z"/>
	<path class="st5" d="M262.7,63.7c0,1.8,1,2.7,2.9,2.7c1,0,1.8-0.2,2.3-0.6s0.8-1.1,0.8-2.1V55h1.4v8.7c0,1.4-0.4,2.4-1.1,3
		s-1.8,0.9-3.3,0.9c-1.4,0-2.5-0.3-3.2-0.9c-0.7-0.6-1.1-1.6-1.1-3V55h1.4V63.7z"/>
</g>
<g class="st4">
	<path class="st5" d="M243.1,73.7c0.8-0.2,1.6-0.3,2.4-0.3c0.9,0,1.5,0.2,1.9,0.5c0.4,0.3,0.6,0.9,0.6,1.6c0,0.4,0,0.6-0.1,0.8
		c-0.1,0.2-0.2,0.3-0.2,0.4c-0.1,0.1-0.1,0.2-0.2,0.3c-0.2,0.1-0.3,0.2-0.4,0.3l-0.1,0.1c0.5,0.2,0.8,0.4,1,0.6
		c0.2,0.3,0.3,0.7,0.3,1.3c0,0.8-0.2,1.4-0.6,1.8c-0.4,0.4-1.1,0.6-2,0.6c-0.7,0-1.4-0.1-2.2-0.2l-0.4-0.1l0.1-0.8
		c0.9,0.2,1.7,0.3,2.4,0.3c1.1,0,1.7-0.5,1.7-1.5c0-1-0.5-1.4-1.6-1.5h-1.6v-0.8h1.6c0.3,0,0.7-0.1,1-0.4c0.3-0.3,0.5-0.6,0.5-1.1
		c0-0.4-0.1-0.8-0.4-1s-0.7-0.3-1.2-0.3c-0.6,0-1.3,0.1-1.9,0.2l-0.3,0.1L243.1,73.7z"/>
	<path class="st5" d="M249.9,73.7c0.8-0.2,1.6-0.3,2.4-0.3s1.5,0.2,1.9,0.5s0.6,0.9,0.6,1.6c0,0.4-0.1,0.6-0.2,0.8
		c-0.1,0.2-0.2,0.3-0.2,0.4c-0.1,0.1-0.1,0.2-0.2,0.3c-0.2,0.1-0.3,0.2-0.4,0.3l-0.1,0.1c0.5,0.2,0.8,0.4,1,0.6s0.3,0.7,0.3,1.3
		c0,0.8-0.2,1.4-0.6,1.8c-0.4,0.4-1.1,0.6-1.9,0.6c-0.7,0-1.4-0.1-2.2-0.2l-0.4-0.1l0.1-0.8c0.9,0.2,1.7,0.3,2.4,0.3
		c1.1,0,1.7-0.5,1.7-1.5c0-1-0.5-1.4-1.6-1.5h-1.6v-0.8h1.6c0.3,0,0.7-0.1,1-0.4c0.3-0.3,0.5-0.6,0.5-1.1c0-0.4-0.1-0.8-0.4-1
		s-0.7-0.3-1.2-0.3c-0.6,0-1.3,0.1-1.9,0.2l-0.3,0.1L249.9,73.7z"/>
	<path class="st5" d="M256.6,81.5v-1.4h1v1.4H256.6z"/>
	<path class="st5" d="M259.8,73.9c0.5-0.3,1.2-0.5,2.1-0.5s1.6,0.2,2.1,0.5c0.5,0.3,0.8,0.9,0.8,1.5c0,0.5-0.1,0.9-0.3,1.1
		c-0.2,0.3-0.5,0.5-1,0.7c0.5,0.2,0.8,0.5,1.1,0.8c0.2,0.3,0.4,0.7,0.4,1.2c0,1.5-1,2.3-3,2.3c-2,0-3-0.7-3-2.1c0-0.6,0.1-1,0.3-1.3
		c0.2-0.3,0.6-0.6,1-0.8c-0.4-0.2-0.7-0.5-0.9-0.7c-0.2-0.3-0.3-0.7-0.3-1.1C259,74.8,259.3,74.3,259.8,73.9z M259.9,79.3
		c0,1,0.7,1.5,2,1.5c1.3,0,2-0.5,2-1.5c0-0.4-0.1-0.7-0.4-0.9c-0.2-0.2-0.6-0.4-1-0.5h-1.3c-0.4,0.1-0.8,0.3-1,0.5
		C260,78.5,259.9,78.9,259.9,79.3z M263.7,75.6c0-0.9-0.6-1.3-1.9-1.3s-1.9,0.4-1.9,1.3c0,0.4,0.1,0.6,0.3,0.9
		c0.2,0.2,0.5,0.4,0.9,0.5h1.3c0.4-0.1,0.8-0.3,1-0.5C263.6,76.2,263.7,75.9,263.7,75.6z"/>
	<path class="st5" d="M268.3,80.8c1.4,0,2.2-0.9,2.2-2.8c-0.8,0.3-1.5,0.5-2.1,0.5c-1.7,0-2.6-0.8-2.6-2.4c0-0.8,0.2-1.4,0.7-1.9
		s1.2-0.7,2-0.7c1,0,1.7,0.4,2.2,1.1c0.5,0.7,0.7,1.8,0.7,3.2c0,1.4-0.3,2.4-0.8,3s-1.3,0.9-2.3,0.9c-0.6,0-1.2-0.1-1.9-0.2l-0.3,0
		l0.1-0.7C266.9,80.7,267.6,80.8,268.3,80.8z M268.5,77.6c0.5,0,1.1-0.1,1.7-0.3l0.3-0.1c0-2-0.7-3-1.9-3c-0.6,0-1,0.2-1.3,0.5
		c-0.3,0.3-0.5,0.8-0.5,1.3C266.8,77.1,267.3,77.6,268.5,77.6z"/>
	<path class="st5" d="M273.8,73.4c0.9,0,1.3,0.6,1.3,1.7c0,0.6-0.1,1-0.3,1.3c-0.2,0.3-0.6,0.4-1,0.4s-0.7-0.1-1-0.4
		c-0.2-0.3-0.3-0.7-0.3-1.3C272.5,74,272.9,73.4,273.8,73.4z M273.2,75.1c0,0.7,0.2,1.1,0.6,1.1c0.4,0,0.6-0.4,0.6-1.1
		c0-0.4,0-0.6-0.1-0.8S274,74,273.8,74s-0.4,0.1-0.5,0.3S273.2,74.7,273.2,75.1z M274,81.5l2.5-8.2l0.6,0.2l-2.5,8.2L274,81.5z
		 M275.9,79.9c0-1.1,0.4-1.6,1.3-1.6s1.3,0.6,1.3,1.7c0,0.6-0.1,1-0.3,1.3s-0.6,0.4-1,0.4s-0.7-0.1-1-0.4
		C276,80.9,275.9,80.4,275.9,79.9z M276.6,79.9c0,0.7,0.2,1.1,0.6,1.1c0.2,0,0.4-0.1,0.5-0.3s0.1-0.4,0.1-0.8c0-0.4,0-0.6-0.1-0.8
		s-0.2-0.2-0.5-0.2s-0.4,0.1-0.5,0.2S276.6,79.5,276.6,79.9z"/>
</g>
<g class="st4">
	<path class="st5" d="M229.7,190.5V178h2.6l4.8,11.2h0.4V178h1.4v12.5h-2.5l-4.8-11.2h-0.3v11.2H229.7z"/>
	<path class="st5" d="M241,190.5l3.4-12.5h3l3.4,12.5h-1.4l-0.9-3.2h-5.3l-0.9,3.2H241z M245.4,179.2l-1.9,6.8h4.7l-1.9-6.8H245.4z"
		/>
	<path class="st5" d="M259.8,190.5h-6.9V178h1.4v11.2h5.5V190.5z"/>
	<path class="st5" d="M260.6,190.5l3.4-12.5h3l3.4,12.5h-1.4l-0.9-3.2h-5.3l-0.9,3.2H260.6z M265.1,179.2l-1.9,6.8h4.7l-1.9-6.8
		H265.1z"/>
</g>
<g class="st4">
	<path class="st5" d="M240.5,204.5h-5.1v-0.8l2.3-2.4c0.4-0.4,0.7-0.7,0.9-0.9c0.2-0.2,0.4-0.5,0.5-0.8c0.1-0.3,0.2-0.6,0.2-0.9
		c0-0.5-0.1-0.9-0.4-1.1c-0.3-0.2-0.7-0.3-1.3-0.3c-0.5,0-1.1,0.1-1.7,0.2l-0.3,0.1l-0.1-0.8c0.8-0.2,1.5-0.3,2.4-0.3
		c0.8,0,1.4,0.2,1.8,0.5s0.6,0.9,0.6,1.6c0,0.6-0.1,1-0.4,1.5s-0.7,0.9-1.3,1.5l-2.1,2.1h4V204.5z"/>
	<path class="st5" d="M246.1,196.5v7.9h-0.9v-6.9l-2,1.3l-0.4-0.7l2.5-1.7H246.1z"/>
	<path class="st5" d="M249,204.5v-1.4h1v1.4H249z"/>
	<path class="st5" d="M256.8,204.5h-5.1v-0.8l2.3-2.4c0.4-0.4,0.7-0.7,0.9-0.9c0.2-0.2,0.3-0.5,0.5-0.8c0.1-0.3,0.2-0.6,0.2-0.9
		c0-0.5-0.1-0.9-0.4-1.1c-0.3-0.2-0.7-0.3-1.3-0.3c-0.5,0-1.1,0.1-1.7,0.2l-0.3,0.1l-0.1-0.8c0.8-0.2,1.5-0.3,2.4-0.3
		c0.8,0,1.4,0.2,1.8,0.5s0.6,0.9,0.6,1.6c0,0.6-0.1,1-0.4,1.5s-0.7,0.9-1.3,1.5l-2.1,2.1h4V204.5z"/>
	<path class="st5" d="M259.4,196.4c0.9,0,1.3,0.6,1.3,1.7c0,0.6-0.1,1-0.3,1.3c-0.2,0.3-0.6,0.4-1,0.4s-0.7-0.1-1-0.4
		s-0.3-0.7-0.3-1.3C258.1,197,258.5,196.4,259.4,196.4z M258.8,198.1c0,0.7,0.2,1.1,0.6,1.1c0.4,0,0.6-0.4,0.6-1.1
		c0-0.4,0-0.6-0.1-0.8c-0.1-0.2-0.2-0.3-0.5-0.3c-0.2,0-0.4,0.1-0.5,0.3C258.9,197.5,258.8,197.7,258.8,198.1z M259.6,204.5l2.5-8.2
		l0.6,0.2l-2.5,8.2L259.6,204.5z M261.5,202.9c0-1.1,0.4-1.6,1.3-1.6s1.3,0.6,1.3,1.7c0,0.6-0.1,1-0.3,1.3c-0.2,0.3-0.6,0.4-1,0.4
		s-0.7-0.1-1-0.4C261.6,203.9,261.5,203.4,261.5,202.9z M262.2,202.9c0,0.7,0.2,1.1,0.6,1.1c0.2,0,0.4-0.1,0.5-0.3
		c0.1-0.2,0.1-0.4,0.1-0.8c0-0.4,0-0.6-0.1-0.8c-0.1-0.2-0.2-0.2-0.5-0.2c-0.2,0-0.4,0.1-0.5,0.2
		C262.3,202.3,262.2,202.5,262.2,202.9z"/>
</g>
<g class="st4">
	<path class="st5" d="M94.2,67.5L97.7,55h3l3.4,12.5h-1.4l-0.9-3.2h-5.3l-0.9,3.2H94.2z M98.7,56.2L96.8,63h4.7l-1.9-6.8H98.7z"/>
	<path class="st5" d="M110.8,63.3h-3.2v4.2h-1.4V55h4.6c1.4,0,2.4,0.3,3,1s1,1.7,1,3C114.8,61.9,113.4,63.3,110.8,63.3z M107.6,62
		h3.1c1.7,0,2.6-1,2.6-3c0-1-0.2-1.7-0.6-2.1c-0.4-0.5-1.1-0.7-2-0.7h-3.1V62z"/>
	<path class="st5" d="M117.1,67.5V55h7.6v1.2h-6.2v4.3h5.1v1.2h-5.1v4.5h6.2v1.2H117.1z"/>
	<path class="st5" d="M134.6,67.3c-1.2,0.3-2.3,0.4-3.3,0.4c-1,0-1.8-0.1-2.4-0.4c-0.6-0.3-1.1-0.7-1.4-1.3c-0.3-0.6-0.6-1.2-0.7-2
		c-0.1-0.7-0.2-1.7-0.2-2.8c0-1.1,0.1-2,0.2-2.8s0.4-1.4,0.7-2c0.3-0.6,0.8-1,1.4-1.3c0.6-0.3,1.4-0.4,2.3-0.4s2.1,0.1,3.4,0.4
		l-0.1,1.2c-1.2-0.2-2.3-0.3-3.2-0.3c-1.3,0-2.2,0.4-2.6,1.2c-0.4,0.8-0.6,2.1-0.6,4c0,0.9,0,1.7,0.1,2.3c0.1,0.6,0.2,1.1,0.5,1.6
		c0.2,0.5,0.6,0.8,1,1c0.4,0.2,1.1,0.3,1.9,0.3c0.8,0,1.8-0.1,3-0.3L134.6,67.3z"/>
</g>
<g class="st4">
	<path class="st5" d="M102.1,81.5H97v-0.8l2.3-2.4c0.4-0.4,0.7-0.7,0.9-0.9s0.4-0.5,0.5-0.8s0.2-0.6,0.2-0.9c0-0.5-0.1-0.9-0.4-1.1
		c-0.3-0.2-0.7-0.3-1.3-0.3c-0.5,0-1.1,0.1-1.7,0.2l-0.3,0.1l-0.1-0.8c0.8-0.2,1.5-0.3,2.4-0.3c0.8,0,1.4,0.2,1.8,0.5
		c0.4,0.3,0.6,0.9,0.6,1.6c0,0.6-0.1,1-0.4,1.5s-0.7,0.9-1.3,1.5l-2.1,2.1h4V81.5z"/>
	<path class="st5" d="M106.4,73.4c0.7,0,1.2,0.1,1.6,0.4c0.9,0.5,1.3,1.8,1.3,3.8c0,1.4-0.2,2.5-0.7,3.1c-0.5,0.6-1.2,0.9-2.2,0.9
		s-1.7-0.3-2.2-0.9s-0.7-1.6-0.7-3.1c0-1.5,0.2-2.6,0.7-3.2C104.7,73.7,105.4,73.4,106.4,73.4z M106.4,74.2c-0.5,0-0.8,0.1-1.1,0.3
		c-0.6,0.4-0.9,1.4-0.9,3.1c0,1.2,0.2,2,0.5,2.5s0.8,0.7,1.5,0.7s1.2-0.2,1.5-0.7s0.5-1.3,0.5-2.5s-0.1-2.1-0.5-2.6
		C107.6,74.5,107.1,74.2,106.4,74.2z"/>
	<path class="st5" d="M110.6,81.5v-1.4h1v1.4H110.6z"/>
	<path class="st5" d="M115.9,73.4c0.7,0,1.2,0.1,1.6,0.4c0.9,0.5,1.3,1.8,1.3,3.8c0,1.4-0.2,2.5-0.7,3.1c-0.5,0.6-1.2,0.9-2.2,0.9
		s-1.7-0.3-2.2-0.9s-0.7-1.6-0.7-3.1c0-1.5,0.2-2.6,0.7-3.2C114.2,73.7,114.9,73.4,115.9,73.4z M115.9,74.2c-0.5,0-0.8,0.1-1.1,0.3
		c-0.6,0.4-0.9,1.4-0.9,3.1c0,1.2,0.2,2,0.5,2.5s0.8,0.7,1.5,0.7s1.2-0.2,1.5-0.7s0.5-1.3,0.5-2.5s-0.1-2.1-0.5-2.6
		C117.1,74.5,116.6,74.2,115.9,74.2z"/>
	<path class="st5" d="M125.2,81.5h-5.1v-0.8l2.3-2.4c0.4-0.4,0.7-0.7,0.9-0.9s0.4-0.5,0.5-0.8s0.2-0.6,0.2-0.9
		c0-0.5-0.1-0.9-0.4-1.1c-0.3-0.2-0.7-0.3-1.3-0.3c-0.5,0-1.1,0.1-1.7,0.2l-0.3,0.1l-0.1-0.8c0.8-0.2,1.5-0.3,2.4-0.3
		c0.8,0,1.4,0.2,1.8,0.5c0.4,0.3,0.6,0.9,0.6,1.6c0,0.6-0.1,1-0.4,1.5s-0.7,0.9-1.3,1.5l-2.1,2.1h4V81.5z"/>
	<path class="st5" d="M127.8,73.4c0.9,0,1.3,0.6,1.3,1.7c0,0.6-0.1,1-0.3,1.3c-0.2,0.3-0.6,0.4-1,0.4s-0.7-0.1-1-0.4
		c-0.2-0.3-0.3-0.7-0.3-1.3C126.5,74,126.9,73.4,127.8,73.4z M127.2,75.1c0,0.7,0.2,1.1,0.6,1.1s0.6-0.4,0.6-1.1
		c0-0.4,0-0.6-0.1-0.8c-0.1-0.2-0.2-0.3-0.5-0.3c-0.2,0-0.4,0.1-0.5,0.3C127.3,74.5,127.2,74.7,127.2,75.1z M128,81.5l2.5-8.2
		l0.6,0.2l-2.5,8.2L128,81.5z M129.9,79.9c0-1.1,0.4-1.6,1.3-1.6s1.3,0.6,1.3,1.7c0,0.6-0.1,1-0.3,1.3c-0.2,0.3-0.6,0.4-1,0.4
		s-0.7-0.1-1-0.4S129.9,80.4,129.9,79.9z M130.6,79.9c0,0.7,0.2,1.1,0.6,1.1c0.2,0,0.4-0.1,0.5-0.3c0.1-0.2,0.1-0.4,0.1-0.8
		c0-0.4,0-0.6-0.1-0.8c-0.1-0.2-0.2-0.2-0.5-0.2c-0.2,0-0.4,0.1-0.5,0.2C130.7,79.3,130.6,79.5,130.6,79.9z"/>
</g>
<g class="st4">
	<path class="st5" d="M120.7,178.6v8.4h-1.4v-1h-5.2v5.8h-1.4V186h-5.1v1.1h-1.3v-8.5h6.5v-3.2h1.4v3.2H120.7z M112.8,184.7v-4.8
		h-5.1v4.8H112.8z M119.3,184.7v-4.8h-5.2v4.8H119.3z"/>
	<path class="st5" d="M131.4,187.7c0,0,0,0.3,0,0.5c-0.2,1.9-0.4,2.8-0.7,3.1c-0.3,0.3-0.6,0.4-1,0.4c-0.4,0-1.1,0-1.9,0
		c0-0.3-0.1-0.7-0.3-1c0.7,0.1,1.4,0.1,1.6,0.1c0.3,0,0.4,0,0.5-0.1c0.2-0.2,0.3-0.7,0.5-1.9h-2.4c-0.5,1.5-1.5,2.5-3.6,3.2
		c-0.1-0.3-0.4-0.7-0.6-0.9c1.7-0.5,2.5-1.2,3-2.3h-2.4v-1h2.7c0.1-0.4,0.1-0.8,0.2-1.2h1.2c0,0.4-0.1,0.8-0.2,1.2H131.4z
		 M139.5,176.6v1h-7.2v1.1h6v1h-13.2v-1h5.9v-1.1h-7.1v-1h7.1v-1.2h1.3v1.2H139.5z M135.5,184.2c-0.3,0.4-0.5,0.8-0.7,1.1h4.6v1.1
		h-15.5v-1.1h4.7c-0.1-0.4-0.4-0.8-0.7-1.2l0.8-0.2h-2.9v-3.3h11.9v3.3h-3.1L135.5,184.2z M127,183.1h9.3v-1.4H127V183.1z
		 M129.2,184c0.3,0.4,0.6,0.9,0.8,1.2l-0.6,0.1h4.2c0.3-0.4,0.5-1,0.7-1.4H129.2z M132.5,187.3h6.2v4.5h-1.3v-0.5h-3.7v0.6h-1.2
		V187.3z M133.7,188.3v1.9h3.7v-1.9H133.7z"/>
</g>
<g class="st4">
	<path class="st5" d="M110.1,204.5H105v-0.8l2.3-2.4c0.4-0.4,0.7-0.7,0.9-0.9c0.2-0.2,0.4-0.5,0.5-0.8c0.1-0.3,0.2-0.6,0.2-0.9
		c0-0.5-0.1-0.9-0.4-1.1c-0.3-0.2-0.7-0.3-1.3-0.3c-0.5,0-1.1,0.1-1.7,0.2l-0.3,0.1l-0.1-0.8c0.8-0.2,1.5-0.3,2.4-0.3
		c0.8,0,1.4,0.2,1.8,0.5s0.6,0.9,0.6,1.6c0,0.6-0.1,1-0.4,1.5s-0.7,0.9-1.3,1.5l-2.1,2.1h4V204.5z"/>
	<path class="st5" d="M115.3,204.5v-1.5h-3.8v-0.7l2.3-5.7h1l-2.3,5.6h2.9v-2.5h0.9v2.5h1v0.8h-1v1.5H115.3z"/>
	<path class="st5" d="M118.6,204.5v-1.4h1v1.4H118.6z"/>
	<path class="st5" d="M121.8,196.9c0.5-0.3,1.2-0.5,2.1-0.5s1.6,0.2,2.1,0.5c0.5,0.3,0.8,0.9,0.8,1.5c0,0.5-0.1,0.9-0.3,1.1
		c-0.2,0.3-0.5,0.5-1,0.7c0.5,0.2,0.8,0.5,1.1,0.8c0.2,0.3,0.4,0.7,0.4,1.2c0,1.5-1,2.3-3,2.3s-3-0.7-3-2.1c0-0.6,0.1-1,0.3-1.3
		c0.2-0.3,0.6-0.6,1-0.8c-0.4-0.2-0.7-0.5-0.9-0.7c-0.2-0.3-0.3-0.7-0.3-1.1C121,197.8,121.3,197.3,121.8,196.9z M121.9,202.3
		c0,1,0.7,1.5,2,1.5c1.3,0,2-0.5,2-1.5c0-0.4-0.1-0.7-0.4-0.9s-0.6-0.4-1-0.5h-1.3c-0.4,0.1-0.8,0.3-1,0.5
		C122,201.5,121.9,201.9,121.9,202.3z M125.7,198.6c0-0.9-0.6-1.3-1.9-1.3c-1.2,0-1.9,0.4-1.9,1.3c0,0.4,0.1,0.6,0.3,0.9
		c0.2,0.2,0.5,0.4,0.9,0.5h1.3c0.4-0.1,0.8-0.3,1-0.5S125.7,198.9,125.7,198.6z"/>
	<path class="st5" d="M130.3,203.8c1.4,0,2.2-0.9,2.2-2.8c-0.8,0.3-1.5,0.5-2.1,0.5c-1.7,0-2.6-0.8-2.6-2.4c0-0.8,0.2-1.4,0.7-1.9
		c0.5-0.5,1.2-0.7,2-0.7c1,0,1.7,0.4,2.2,1.1c0.5,0.7,0.7,1.8,0.7,3.2c0,1.4-0.3,2.4-0.8,3c-0.5,0.6-1.3,0.9-2.3,0.9
		c-0.6,0-1.2-0.1-1.9-0.2l-0.3,0l0.1-0.7C128.9,203.7,129.6,203.8,130.3,203.8z M130.5,200.6c0.5,0,1.1-0.1,1.7-0.3l0.3-0.1
		c0-2-0.7-3-1.9-3c-0.6,0-1,0.2-1.3,0.5c-0.3,0.3-0.5,0.8-0.5,1.3C128.8,200.1,129.3,200.6,130.5,200.6z"/>
	<path class="st5" d="M135.8,196.4c0.9,0,1.3,0.6,1.3,1.7c0,0.6-0.1,1-0.3,1.3s-0.6,0.4-1,0.4s-0.7-0.1-1-0.4
		c-0.2-0.3-0.3-0.7-0.3-1.3C134.5,197,134.9,196.4,135.8,196.4z M135.2,198.1c0,0.7,0.2,1.1,0.6,1.1s0.6-0.4,0.6-1.1
		c0-0.4,0-0.6-0.1-0.8c-0.1-0.2-0.2-0.3-0.5-0.3c-0.2,0-0.4,0.1-0.5,0.3C135.3,197.5,135.2,197.7,135.2,198.1z M136,204.5l2.5-8.2
		l0.6,0.2l-2.5,8.2L136,204.5z M137.9,202.9c0-1.1,0.4-1.6,1.3-1.6s1.3,0.6,1.3,1.7c0,0.6-0.1,1-0.3,1.3c-0.2,0.3-0.6,0.4-1,0.4
		s-0.7-0.1-1-0.4C138,203.9,137.9,203.4,137.9,202.9z M138.6,202.9c0,0.7,0.2,1.1,0.6,1.1c0.2,0,0.4-0.1,0.5-0.3
		c0.1-0.2,0.1-0.4,0.1-0.8c0-0.4,0-0.6-0.1-0.8c-0.1-0.2-0.2-0.2-0.5-0.2c-0.2,0-0.4,0.1-0.5,0.2
		C138.7,202.3,138.6,202.5,138.6,202.9z"/>
</g>
</svg>
