<?xml version="1.0" encoding="utf-8"?>
<!-- Generator: Adobe Illustrator 23.0.6, SVG Export Plug-In . SVG Version: 6.00 Build 0)  -->
<svg version="1.1" id="圖層_5" xmlns="http://www.w3.org/2000/svg" xmlns:xlink="http://www.w3.org/1999/xlink" x="0px" y="0px"
	 viewBox="0 0 375 159.5" style="enable-background:new 0 0 375 159.5;" xml:space="preserve">
<style type="text/css">
	.st0{fill:#595959;}
	.st1{enable-background:new    ;}
	.st2{fill:#ADADAD;}
</style>
<g id="Group_40" transform="translate(-10.362 -53.417)">
	<g>
		<rect x="59.9" y="170" class="st0" width="316" height="1"/>
		<rect x="59.9" y="89.4" class="st0" width="316" height="1"/>
		<rect x="59.9" y="116.8" class="st0" width="316" height="1"/>
		<rect x="59.9" y="143.8" class="st0" width="316" height="1"/>
		<rect x="41.6" y="65.7" class="st0" width="334.3" height="1"/>
	</g>
	<g transform="translate(10.362 71.476)">
		<g class="st1">
			<path class="st2" d="M43.1,121.6c1.3,0,1.8,1.3,1.8,2.4s-0.5,2.4-1.8,2.4s-1.8-1.3-1.8-2.4S41.8,121.6,43.1,121.6z M43.1,122.2
				c-0.9,0-1.2,1-1.2,1.9s0.3,1.9,1.2,1.9s1.2-1,1.2-1.9S44,122.2,43.1,122.2z"/>
		</g>
		<g class="st1">
			<path class="st2" d="M29.4,98.5c0.3,0.3,0.6,0.5,1.1,0.5s0.9-0.4,0.9-0.9s-0.4-0.9-0.9-0.9c-0.4,0-0.7,0.1-0.9,0.4l-0.4-0.1v-2.2
				h2.4v0.4h-1.9v1.4c0.2-0.2,0.5-0.4,0.9-0.4c0.7,0,1.3,0.5,1.3,1.3s-0.6,1.3-1.4,1.3c-0.7,0-1.1-0.2-1.4-0.6L29.4,98.5z"/>
			<path class="st2" d="M34.1,95.3c1.1,0,1.5,1.1,1.5,2.1s-0.4,2.1-1.5,2.1s-1.5-1.1-1.5-2.1S33,95.3,34.1,95.3z M34.1,95.8
				c-0.8,0-1,0.8-1,1.6s0.3,1.6,1,1.6s1-0.8,1-1.6S34.9,95.8,34.1,95.8z"/>
			<path class="st2" d="M37.8,95.3c1.1,0,1.5,1.1,1.5,2.1s-0.4,2.1-1.5,2.1s-1.5-1.1-1.5-2.1S36.7,95.3,37.8,95.3z M37.8,95.8
				c-0.8,0-1,0.8-1,1.6s0.3,1.6,1,1.6s1-0.8,1-1.6S38.5,95.8,37.8,95.8z"/>
			<path class="st2" d="M41.5,95.3c1.1,0,1.5,1.1,1.5,2.1s-0.4,2.1-1.5,2.1S40,98.4,40,97.4C39.9,96.4,40.4,95.3,41.5,95.3z
				 M41.5,95.8c-0.8,0-1,0.8-1,1.6s0.3,1.6,1,1.6s1-0.8,1-1.6S42.2,95.8,41.5,95.8z"/>
		</g>
		<g class="st1">
			<path class="st2" d="M30.7,68.3c0.5,0,0.9,0.2,1.1,0.5l-0.3,0.4c-0.2-0.2-0.4-0.4-0.9-0.4c-0.8,0-1.1,0.8-1.1,1.6
				c0,0.1,0,0.1,0,0.2c0.2-0.3,0.6-0.6,1.1-0.6c0.7,0,1.3,0.4,1.3,1.3c0,0.7-0.5,1.3-1.4,1.3c-1.1,0-1.5-1-1.5-2.1
				C29,69.3,29.5,68.3,30.7,68.3z M30.5,70.3c-0.4,0-0.8,0.2-1,0.6c0,0.5,0.3,1.1,1,1.1c0.6,0,0.9-0.5,0.9-0.8
				C31.5,70.5,31.1,70.3,30.5,70.3z"/>
			<path class="st2" d="M34.1,68.3c1.1,0,1.5,1.1,1.5,2.1s-0.4,2.1-1.5,2.1s-1.5-1.1-1.5-2.1S33,68.3,34.1,68.3z M34.1,68.7
				c-0.8,0-1,0.8-1,1.6s0.3,1.6,1,1.6s1-0.8,1-1.6S34.9,68.7,34.1,68.7z"/>
			<path class="st2" d="M37.8,68.3c1.1,0,1.5,1.1,1.5,2.1s-0.4,2.1-1.5,2.1s-1.5-1.1-1.5-2.1C36.2,69.4,36.7,68.3,37.8,68.3z
				 M37.8,68.7c-0.8,0-1,0.8-1,1.6s0.3,1.6,1,1.6s1-0.8,1-1.6S38.5,68.7,37.8,68.7z"/>
			<path class="st2" d="M41.4,68.3c1.1,0,1.5,1.1,1.5,2.1s-0.4,2.1-1.5,2.1s-1.5-1.1-1.5-2.1S40.4,68.3,41.4,68.3z M41.4,68.7
				c-0.8,0-1,0.8-1,1.6s0.3,1.6,1,1.6c0.8,0,1-0.8,1-1.6S42.2,68.7,41.4,68.7z"/>
		</g>
		<g class="st1">
			<path class="st2" d="M32,41.2h-2.5v-0.5h3.2v0.4l-1.9,4.3h-0.6L32,41.2z"/>
			<path class="st2" d="M35,40.6c1.3,0,1.8,1.3,1.8,2.4c0,1.1-0.5,2.4-1.8,2.4s-1.8-1.3-1.8-2.4C33.2,41.9,33.7,40.6,35,40.6z
				 M35,41.1c-0.9,0-1.2,1-1.2,1.9s0.3,1.9,1.2,1.9s1.2-1,1.2-1.9S35.9,41.1,35,41.1z"/>
			<path class="st2" d="M39.3,40.6c1.3,0,1.8,1.3,1.8,2.4c0,1.1-0.5,2.4-1.8,2.4s-1.8-1.3-1.8-2.4C37.5,41.9,38,40.6,39.3,40.6z
				 M39.3,41.1c-0.9,0-1.2,1-1.2,1.9s0.3,1.9,1.2,1.9s1.2-1,1.2-1.9S40.2,41.1,39.3,41.1z"/>
			<path class="st2" d="M43.6,40.6c1.3,0,1.8,1.3,1.8,2.4c0,1.1-0.5,2.4-1.8,2.4s-1.8-1.3-1.8-2.4C41.8,41.9,42.3,40.6,43.6,40.6z
				 M43.6,41.1c-0.9,0-1.2,1-1.2,1.9s0.3,1.9,1.2,1.9s1.2-1,1.2-1.9S44.4,41.1,43.6,41.1z"/>
		</g>
		<g class="st1">
			<path class="st2" d="M30.1,16.2c-0.5-0.1-0.9-0.4-0.9-1c0-0.7,0.7-1,1.4-1c0.7,0,1.4,0.3,1.4,1c0,0.5-0.4,0.8-0.9,1
				c0.5,0.1,1,0.5,1,1c0,0.7-0.6,1.1-1.4,1.1s-1.4-0.4-1.4-1.1C29.1,16.8,29.6,16.4,30.1,16.2z M30.5,16.5c-0.2,0-0.9,0.3-0.9,0.8
				c0,0.4,0.4,0.7,0.9,0.7s0.9-0.3,0.9-0.7C31.5,16.7,30.8,16.5,30.5,16.5z M30.5,14.7c-0.5,0-0.9,0.2-0.9,0.7s0.6,0.6,0.9,0.7
				c0.2,0,0.9-0.2,0.9-0.7C31.4,14.9,31,14.7,30.5,14.7z"/>
			<path class="st2" d="M34.1,14.2c1.1,0,1.5,1.1,1.5,2.1s-0.4,2.1-1.5,2.1s-1.5-1.1-1.5-2.1S33,14.2,34.1,14.2z M34.1,14.7
				c-0.8,0-1,0.8-1,1.6s0.3,1.6,1,1.6s1-0.8,1-1.6C35.1,15.5,34.9,14.7,34.1,14.7z"/>
			<path class="st2" d="M37.8,14.2c1.1,0,1.5,1.1,1.5,2.1s-0.4,2.1-1.5,2.1s-1.5-1.1-1.5-2.1S36.7,14.2,37.8,14.2z M37.8,14.7
				c-0.8,0-1,0.8-1,1.6s0.3,1.6,1,1.6s1-0.8,1-1.6C38.8,15.5,38.5,14.7,37.8,14.7z"/>
			<path class="st2" d="M41.5,14.2c1.1,0,1.5,1.1,1.5,2.1s-0.4,2.1-1.5,2.1S40,17.3,40,16.3C39.9,15.3,40.4,14.2,41.5,14.2z
				 M41.5,14.7c-0.8,0-1,0.8-1,1.6s0.3,1.6,1,1.6s1-0.8,1-1.6C42.5,15.5,42.2,14.7,41.5,14.7z"/>
		</g>
	</g>
</g>
<g class="st1">
	<path class="st2" d="M101.4,144.1h-2.5v-0.4l1.2-1.2c0.2-0.2,0.3-0.4,0.4-0.5s0.2-0.2,0.2-0.4c0.1-0.1,0.1-0.3,0.1-0.4
		c0-0.3-0.1-0.4-0.2-0.5s-0.4-0.2-0.7-0.2c-0.3,0-0.5,0-0.9,0.1h-0.2v-0.4c0.4-0.1,0.8-0.2,1.2-0.2c0.4,0,0.7,0.1,0.9,0.3
		s0.3,0.4,0.3,0.8c0,0.3-0.1,0.5-0.2,0.7s-0.3,0.5-0.6,0.8l-1.1,1.1h2L101.4,144.1L101.4,144.1z"/>
	<path class="st2" d="M103.5,140c0.3,0,0.6,0.1,0.8,0.2c0.4,0.3,0.6,0.9,0.6,1.9c0,0.7-0.1,1.2-0.4,1.5c-0.2,0.3-0.6,0.4-1.1,0.4
		s-0.8-0.1-1.1-0.4c-0.2-0.3-0.4-0.8-0.4-1.6s0.1-1.3,0.4-1.6C102.7,140.2,103,140,103.5,140z M103.5,140.4c-0.2,0-0.4,0-0.5,0.1
		c-0.3,0.2-0.4,0.7-0.4,1.6c0,0.6,0.1,1,0.2,1.2c0.2,0.2,0.4,0.3,0.7,0.3s0.6-0.1,0.7-0.3c0.2-0.2,0.2-0.7,0.2-1.3s-0.1-1-0.2-1.3
		S103.9,140.4,103.5,140.4z"/>
	<path class="st2" d="M107.6,140.1v4h-0.5v-3.4l-1,0.7l-0.2-0.3l1.3-0.8h0.4V140.1z"/>
	<path class="st2" d="M110.1,143.7c0.7,0,1.1-0.5,1.1-1.4c-0.4,0.2-0.7,0.2-1,0.2c-0.9,0-1.3-0.4-1.3-1.2c0-0.4,0.1-0.7,0.4-1
		s0.6-0.4,1-0.4c0.5,0,0.8,0.2,1.1,0.5c0.2,0.4,0.4,0.9,0.4,1.6c0,0.7-0.1,1.2-0.4,1.5s-0.7,0.5-1.2,0.5c-0.3,0-0.6,0-0.9-0.1h-0.2
		v-0.4C109.4,143.7,109.7,143.7,110.1,143.7z M110.2,142.2c0.2,0,0.5-0.1,0.8-0.2l0.2-0.1c0-1-0.3-1.5-1-1.5c-0.3,0-0.5,0.1-0.7,0.2
		c-0.2,0.2-0.2,0.4-0.2,0.7C109.3,141.9,109.6,142.2,110.2,142.2z"/>
	<path class="st2" d="M113.4,139.9h0.5l0.7,3.7h0.2l0.8-3.7h0.5l0.8,3.7h0.2l0.7-3.7h0.5l-0.8,4.2h-0.8l-0.8-3.5l-0.8,3.5h-0.8
		L113.4,139.9z"/>
	<path class="st2" d="M120.7,144.1v-0.8h-1.9v-0.4l1.1-2.8h0.5l-1.1,2.8h1.4v-1.2h0.5v1.2h0.5v0.4h-0.5v0.8H120.7z"/>
	<path class="st2" d="M124.1,144.1v-0.8h-1.9v-0.4l1.1-2.8h0.5l-1.1,2.8h1.4v-1.2h0.5v1.2h0.5v0.4h-0.5v0.8H124.1z"/>
</g>
<g class="st1">
	<path class="st2" d="M182.5,144.1H180v-0.4l1.2-1.2c0.2-0.2,0.3-0.4,0.4-0.5c0.1-0.1,0.2-0.2,0.2-0.4c0.1-0.1,0.1-0.3,0.1-0.4
		c0-0.3-0.1-0.4-0.2-0.5c-0.1-0.1-0.4-0.2-0.7-0.2s-0.5,0-0.9,0.1h-0.2v-0.4c0.4-0.1,0.8-0.2,1.2-0.2s0.7,0.1,0.9,0.3
		s0.3,0.4,0.3,0.8c0,0.3-0.1,0.5-0.2,0.7c-0.1,0.2-0.3,0.5-0.6,0.8l-1.1,1.1h2v0.4H182.5z"/>
	<path class="st2" d="M184.6,140c0.3,0,0.6,0.1,0.8,0.2c0.4,0.3,0.6,0.9,0.6,1.9c0,0.7-0.1,1.2-0.4,1.5c-0.2,0.3-0.6,0.4-1.1,0.4
		s-0.8-0.1-1.1-0.4c-0.2-0.3-0.4-0.8-0.4-1.6s0.1-1.3,0.4-1.6C183.8,140.2,184.1,140,184.6,140z M184.6,140.4c-0.2,0-0.4,0-0.5,0.1
		c-0.3,0.2-0.4,0.7-0.4,1.6c0,0.6,0.1,1,0.2,1.2c0.2,0.2,0.4,0.3,0.7,0.3s0.6-0.1,0.7-0.3c0.2-0.2,0.2-0.7,0.2-1.3s-0.1-1-0.2-1.3
		S185,140.4,184.6,140.4z"/>
	<path class="st2" d="M188.6,140.1v4h-0.5v-3.4l-1,0.7l-0.2-0.3l1.3-0.8h0.4V140.1z"/>
	<path class="st2" d="M191.1,143.7c0.7,0,1.1-0.5,1.1-1.4c-0.4,0.2-0.7,0.2-1,0.2c-0.9,0-1.3-0.4-1.3-1.2c0-0.4,0.1-0.7,0.4-1
		s0.6-0.4,1-0.4c0.5,0,0.8,0.2,1.1,0.5c0.2,0.4,0.4,0.9,0.4,1.6c0,0.7-0.1,1.2-0.4,1.5c-0.3,0.3-0.7,0.5-1.2,0.5
		c-0.3,0-0.6,0-0.9-0.1h-0.2v-0.4C190.4,143.7,190.8,143.7,191.1,143.7z M191.2,142.2c0.2,0,0.5-0.1,0.8-0.2l0.2-0.1
		c0-1-0.3-1.5-1-1.5c-0.3,0-0.5,0.1-0.7,0.2s-0.2,0.4-0.2,0.7C190.4,141.9,190.7,142.2,191.2,142.2z"/>
	<path class="st2" d="M194.5,139.9h0.5l0.7,3.7h0.2l0.8-3.7h0.5l0.8,3.7h0.2l0.7-3.7h0.5l-0.8,4.2h-0.8l-0.8-3.5l-0.8,3.5h-0.8
		L194.5,139.9z"/>
	<path class="st2" d="M201.8,144.1v-0.8h-1.9v-0.4l1.1-2.8h0.5l-1.1,2.8h1.4v-1.2h0.5v1.2h0.5v0.4h-0.5v0.8H201.8z"/>
	<path class="st2" d="M205.9,140.1v0.4H204l-0.1,1.3c0.3-0.2,0.6-0.2,0.9-0.2c0.8,0,1.3,0.4,1.3,1.2c0,0.4-0.1,0.8-0.3,1
		s-0.6,0.4-1,0.4c-0.3,0-0.7,0-1.1-0.1h-0.2l0.1-0.4c0.5,0.1,0.8,0.1,1.2,0.1c0.3,0,0.6-0.1,0.7-0.2s0.2-0.4,0.2-0.7
		s-0.1-0.5-0.2-0.6c-0.1-0.1-0.4-0.2-0.6-0.2c-0.1,0-0.3,0-0.5,0.1c-0.2,0-0.3,0.1-0.4,0.1l-0.1,0.1l-0.3-0.1l0.1-2.1h2.2V140.1z"/>
</g>
<g class="st1">
	<path class="st2" d="M264.4,144.1h-2.5v-0.4l1.2-1.2c0.2-0.2,0.3-0.4,0.4-0.5s0.2-0.2,0.2-0.4c0.1-0.1,0.1-0.3,0.1-0.4
		c0-0.3-0.1-0.4-0.2-0.5s-0.4-0.2-0.7-0.2c-0.3,0-0.5,0-0.9,0.1h-0.2v-0.4c0.4-0.1,0.8-0.2,1.2-0.2c0.4,0,0.7,0.1,0.9,0.3
		s0.3,0.4,0.3,0.8c0,0.3-0.1,0.5-0.2,0.7s-0.3,0.5-0.6,0.8l-1.1,1.1h2v0.4H264.4z"/>
	<path class="st2" d="M266.5,140c0.3,0,0.6,0.1,0.8,0.2c0.4,0.3,0.6,0.9,0.6,1.9c0,0.7-0.1,1.2-0.4,1.5c-0.2,0.3-0.6,0.4-1.1,0.4
		s-0.8-0.1-1.1-0.4c-0.2-0.3-0.4-0.8-0.4-1.6s0.1-1.3,0.4-1.6C265.7,140.2,266,140,266.5,140z M266.5,140.4c-0.2,0-0.4,0-0.5,0.1
		c-0.3,0.2-0.4,0.7-0.4,1.6c0,0.6,0.1,1,0.2,1.2c0.2,0.2,0.4,0.3,0.7,0.3s0.6-0.1,0.7-0.3c0.2-0.2,0.2-0.7,0.2-1.3s-0.1-1-0.2-1.3
		C267.1,140.6,266.9,140.4,266.5,140.4z"/>
	<path class="st2" d="M270.5,140.1v4H270v-3.4l-1,0.7l-0.2-0.3l1.3-0.8h0.4V140.1z"/>
	<path class="st2" d="M273,143.7c0.7,0,1.1-0.5,1.1-1.4c-0.4,0.2-0.7,0.2-1,0.2c-0.9,0-1.3-0.4-1.3-1.2c0-0.4,0.1-0.7,0.4-1
		s0.6-0.4,1-0.4c0.5,0,0.8,0.2,1.1,0.5c0.2,0.4,0.4,0.9,0.4,1.6c0,0.7-0.1,1.2-0.4,1.5s-0.7,0.5-1.2,0.5c-0.3,0-0.6,0-0.9-0.1H272
		v-0.4C272.4,143.7,272.7,143.7,273,143.7z M273.1,142.2c0.2,0,0.5-0.1,0.8-0.2l0.2-0.1c0-1-0.3-1.5-1-1.5c-0.3,0-0.5,0.1-0.7,0.2
		s-0.2,0.4-0.2,0.7C272.3,141.9,272.6,142.2,273.1,142.2z"/>
	<path class="st2" d="M276.4,139.9h0.5l0.7,3.7h0.2l0.8-3.7h0.5l0.8,3.7h0.2l0.7-3.7h0.5l-0.8,4.2h-0.8l-0.8-3.5l-0.8,3.5h-0.8
		L276.4,139.9z"/>
	<path class="st2" d="M283.7,144.1v-0.8h-1.9v-0.4l1.1-2.8h0.5l-1.1,2.8h1.4v-1.2h0.5v1.2h0.5v0.4h-0.5v0.8H283.7z"/>
	<path class="st2" d="M287.8,140.5c-0.4,0-0.7-0.1-1-0.1s-0.6,0.1-0.8,0.4s-0.3,0.6-0.3,1l0.2-0.1c0.1,0,0.2-0.1,0.4-0.1
		s0.3-0.1,0.4-0.1c0.9,0,1.3,0.4,1.3,1.2c0,0.4-0.1,0.7-0.4,1c-0.2,0.2-0.6,0.3-1,0.3c-0.9,0-1.4-0.7-1.4-2.1c0-0.7,0.1-1.2,0.4-1.5
		s0.7-0.5,1.1-0.5c0.3,0,0.6,0,0.9,0.1h0.2L287.8,140.5z M286.7,142c-0.1,0-0.3,0-0.4,0.1s-0.3,0.1-0.4,0.1l-0.1,0.1
		c0,0.5,0.1,0.8,0.2,1.1s0.4,0.4,0.7,0.4c0.3,0,0.5-0.1,0.7-0.2s0.2-0.4,0.2-0.7s-0.1-0.5-0.2-0.6C287.2,142.1,286.9,142,286.7,142z
		"/>
</g>
<g class="st1">
	<path class="st2" d="M345.6,144.1h-2.5v-0.4l1.2-1.2c0.2-0.2,0.3-0.4,0.4-0.5s0.2-0.2,0.2-0.4c0.1-0.1,0.1-0.3,0.1-0.4
		c0-0.3-0.1-0.4-0.2-0.5s-0.4-0.2-0.7-0.2c-0.3,0-0.5,0-0.9,0.1H343v-0.4c0.4-0.1,0.8-0.2,1.2-0.2s0.7,0.1,0.9,0.3s0.3,0.4,0.3,0.8
		c0,0.3-0.1,0.5-0.2,0.7s-0.3,0.5-0.6,0.8l-1.1,1.1h2v0.4H345.6z"/>
	<path class="st2" d="M347.7,140c0.3,0,0.6,0.1,0.8,0.2c0.4,0.3,0.6,0.9,0.6,1.9c0,0.7-0.1,1.2-0.4,1.5s-0.6,0.4-1.1,0.4
		s-0.8-0.1-1.1-0.4s-0.4-0.8-0.4-1.6s0.1-1.3,0.4-1.6C346.9,140.2,347.2,140,347.7,140z M347.7,140.4c-0.2,0-0.4,0-0.5,0.1
		c-0.3,0.2-0.4,0.7-0.4,1.6c0,0.6,0.1,1,0.2,1.2c0.2,0.2,0.4,0.3,0.7,0.3s0.6-0.1,0.7-0.3c0.2-0.2,0.2-0.7,0.2-1.3s-0.1-1-0.2-1.3
		C348.3,140.6,348.1,140.4,347.7,140.4z"/>
	<path class="st2" d="M351.7,140.1v4h-0.5v-3.4l-1,0.7l-0.2-0.3l1.3-0.8h0.4V140.1z"/>
	<path class="st2" d="M354.2,143.7c0.7,0,1.1-0.5,1.1-1.4c-0.4,0.2-0.7,0.2-1,0.2c-0.9,0-1.3-0.4-1.3-1.2c0-0.4,0.1-0.7,0.4-1
		s0.6-0.4,1-0.4c0.5,0,0.8,0.2,1.1,0.5c0.2,0.4,0.4,0.9,0.4,1.6c0,0.7-0.1,1.2-0.4,1.5s-0.7,0.5-1.2,0.5c-0.3,0-0.6,0-0.9-0.1h-0.2
		v-0.4C353.6,143.7,353.9,143.7,354.2,143.7z M354.3,142.2c0.2,0,0.5-0.1,0.8-0.2l0.2-0.1c0-1-0.3-1.5-1-1.5c-0.3,0-0.5,0.1-0.7,0.2
		c-0.2,0.2-0.2,0.4-0.2,0.7C353.5,141.9,353.8,142.2,354.3,142.2z"/>
	<path class="st2" d="M357.6,139.9h0.5l0.7,3.7h0.2l0.8-3.7h0.5l0.8,3.7h0.2l0.7-3.7h0.5l-0.8,4.2h-0.8l-0.8-3.5l-0.8,3.5h-0.8
		L357.6,139.9z"/>
	<path class="st2" d="M364.9,144.1v-0.8H363v-0.4l1.1-2.8h0.5l-1.1,2.8h1.4v-1.2h0.5v1.2h0.5v0.4h-0.5v0.8H364.9z"/>
	<path class="st2" d="M366.6,140.5v-0.4h2.5v0.6l-1.5,3.4l-0.4-0.1l1.5-3.3v-0.2H366.6z"/>
</g>
<g class="st1">
	<path class="st2" d="M12.2,89.7c0,1.1,0.4,1.6,1.2,1.6c0.5,0,0.8-0.1,1-0.4c0.2-0.3,0.3-0.8,0.5-1.5c0.2-0.8,0.4-1.3,0.7-1.6
		c0.3-0.3,0.7-0.5,1.4-0.5c1.6,0,2.3,0.8,2.3,2.4c0,0.5-0.1,1.2-0.2,2L19,92.1L18.3,92c0.1-1,0.2-1.8,0.2-2.3c0-1.1-0.5-1.6-1.5-1.6
		c-0.4,0-0.7,0.1-0.9,0.4c-0.2,0.3-0.3,0.7-0.5,1.3c-0.2,0.9-0.4,1.5-0.7,1.8s-0.8,0.5-1.5,0.5c-1.4,0-2-0.8-2-2.5
		c0-0.5,0.1-1.2,0.2-1.9l0.1-0.4l0.7,0.1C12.2,88.6,12.2,89.3,12.2,89.7z"/>
	<path class="st2" d="M18.5,82.3V82h0.6c0.1,0.8,0.2,1.6,0.2,2.1c0,0.8-0.2,1.4-0.7,1.7s-1.2,0.5-2.1,0.5c-1.9,0-2.9-0.8-2.9-2.3
		c0-0.7,0.2-1.3,0.6-1.7s1.1-0.5,2-0.5h0.6v3.6c0.6,0,1.1-0.1,1.4-0.3s0.4-0.6,0.4-1.2C18.5,83.4,18.5,82.8,18.5,82.3z M16.1,82.6
		c-0.7,0-1.2,0.1-1.4,0.3c-0.3,0.2-0.4,0.6-0.4,1.1s0.1,0.9,0.4,1.1c0.3,0.2,0.8,0.4,1.4,0.4V82.6z"/>
	<path class="st2" d="M19.2,80.4h-7.9v-0.8h7.9V80.4z"/>
	<path class="st2" d="M19.2,77.8h-7.9V77h7.9V77.8z"/>
	<path class="st2" d="M19.2,72.8h-7.6V72h7.6V72.8z"/>
	<path class="st2" d="M19.2,69.4v0.8h-5.5v-0.8h0.4c-0.3-0.6-0.5-1.2-0.5-1.7c0-0.7,0.2-1.2,0.6-1.5s1.1-0.4,2.1-0.4h2.9v0.8h-2.9
		c-0.8,0-1.3,0.1-1.6,0.2s-0.4,0.5-0.4,1c0,0.2,0,0.5,0.1,0.7c0.1,0.3,0.1,0.5,0.2,0.6l0.1,0.2h4.5V69.4z"/>
</g>
</svg>
