<?xml version="1.0" encoding="utf-8"?>
<!-- Generator: Adobe Illustrator 23.0.6, SVG Export Plug-In . SVG Version: 6.00 Build 0)  -->
<svg version="1.1" id="圖層_5" xmlns="http://www.w3.org/2000/svg" xmlns:xlink="http://www.w3.org/1999/xlink" x="0px" y="0px"
	 viewBox="0 0 375 159.5" style="enable-background:new 0 0 375 159.5;" xml:space="preserve">
<style type="text/css">
	.st0{fill:#595959;}
	.st1{opacity:0.65;fill:url(#Path_1049_1_);enable-background:new    ;}
	.st2{fill:#FF6400;}
	.st3{enable-background:new    ;}
	.st4{fill:#ADADAD;}
</style>
<g id="Group_40" transform="translate(-10.362 -53.417)">
	<g>
		<rect x="59.5" y="170" class="st0" width="316" height="1"/>
		<rect x="59.5" y="89.4" class="st0" width="316" height="1"/>
		<rect x="59.5" y="116.8" class="st0" width="316" height="1"/>
		<rect x="59.5" y="143.8" class="st0" width="316" height="1"/>
		<rect x="41.2" y="65.7" class="st0" width="334.3" height="1"/>
	</g>
	<g id="圖層_4" transform="translate(52.063 62.139)">
		
			<linearGradient id="Path_1049_1_" gradientUnits="userSpaceOnUse" x1="-645.395" y1="266.7939" x2="-645.382" y2="267.3148" gradientTransform="matrix(302.537 0 0 95.292 195414.2969 -25372.2266)">
			<stop  offset="0" style="stop-color:#FF6400"/>
			<stop  offset="1" style="stop-color:#FF6400;stop-opacity:0"/>
		</linearGradient>
		<path id="Path_1049" class="st1" d="M7.9,99l62-36.6L152.3,49l75.1-11.6l83-25v95.3H7.9V99z"/>
	</g>
	<g id="圖層_3" transform="translate(51.787 61.621)">
		<path id="Path_1050" class="st2" d="M8.5,100l-0.6-1L70,62.3l82.6-13.4l75.1-11.6l82.9-25l0.3,1l-83,25L152.7,50L70.4,63.4
			L8.5,100z"/>
	</g>
	<g transform="translate(10.362 71.476)">
		<g class="st3">
			<path class="st4" d="M42.7,121.6c1.3,0,1.8,1.3,1.8,2.4s-0.5,2.4-1.8,2.4s-1.8-1.3-1.8-2.4S41.4,121.6,42.7,121.6z M42.7,122.2
				c-0.9,0-1.2,1-1.2,1.9s0.3,1.9,1.2,1.9s1.2-1,1.2-1.9S43.6,122.2,42.7,122.2z"/>
		</g>
		<g class="st3">
			<path class="st4" d="M29,98.5c0.3,0.3,0.6,0.5,1.1,0.5s0.9-0.4,0.9-0.9s-0.4-0.9-0.9-0.9c-0.4,0-0.7,0.1-0.9,0.4l-0.4-0.1v-2.2
				h2.4v0.4h-1.9v1.4c0.2-0.2,0.5-0.4,0.9-0.4c0.7,0,1.3,0.5,1.3,1.3s-0.6,1.3-1.4,1.3c-0.7,0-1.1-0.2-1.4-0.6L29,98.5z"/>
			<path class="st4" d="M33.7,95.3c1.1,0,1.5,1.1,1.5,2.1s-0.4,2.1-1.5,2.1s-1.5-1.1-1.5-2.1S32.6,95.3,33.7,95.3z M33.7,95.8
				c-0.8,0-1,0.8-1,1.6s0.3,1.6,1,1.6s1-0.8,1-1.6S34.5,95.8,33.7,95.8z"/>
			<path class="st4" d="M37.4,95.3c1.1,0,1.5,1.1,1.5,2.1s-0.4,2.1-1.5,2.1s-1.5-1.1-1.5-2.1S36.3,95.3,37.4,95.3z M37.4,95.8
				c-0.8,0-1,0.8-1,1.6s0.3,1.6,1,1.6s1-0.8,1-1.6S38.1,95.8,37.4,95.8z"/>
			<path class="st4" d="M41.1,95.3c1.1,0,1.5,1.1,1.5,2.1s-0.4,2.1-1.5,2.1s-1.5-1.1-1.5-2.1C39.5,96.4,40,95.3,41.1,95.3z
				 M41.1,95.8c-0.8,0-1,0.8-1,1.6s0.3,1.6,1,1.6s1-0.8,1-1.6S41.8,95.8,41.1,95.8z"/>
		</g>
		<g class="st3">
			<path class="st4" d="M30.3,68.3c0.5,0,0.9,0.2,1.1,0.5l-0.3,0.4c-0.2-0.2-0.4-0.4-0.9-0.4c-0.8,0-1.1,0.8-1.1,1.6
				c0,0.1,0,0.1,0,0.2c0.2-0.3,0.6-0.6,1.1-0.6c0.7,0,1.3,0.4,1.3,1.3c0,0.7-0.5,1.3-1.4,1.3c-1.1,0-1.5-1-1.5-2.1
				C28.6,69.3,29.1,68.3,30.3,68.3z M30.1,70.3c-0.4,0-0.8,0.2-1,0.6c0,0.5,0.3,1.1,1,1.1c0.6,0,0.9-0.5,0.9-0.8
				C31.1,70.5,30.7,70.3,30.1,70.3z"/>
			<path class="st4" d="M33.7,68.3c1.1,0,1.5,1.1,1.5,2.1s-0.4,2.1-1.5,2.1s-1.5-1.1-1.5-2.1S32.6,68.3,33.7,68.3z M33.7,68.7
				c-0.8,0-1,0.8-1,1.6s0.3,1.6,1,1.6s1-0.8,1-1.6S34.5,68.7,33.7,68.7z"/>
			<path class="st4" d="M37.4,68.3c1.1,0,1.5,1.1,1.5,2.1s-0.4,2.1-1.5,2.1s-1.5-1.1-1.5-2.1C35.8,69.4,36.3,68.3,37.4,68.3z
				 M37.4,68.7c-0.8,0-1,0.8-1,1.6s0.3,1.6,1,1.6s1-0.8,1-1.6S38.1,68.7,37.4,68.7z"/>
			<path class="st4" d="M41,68.3c1.1,0,1.5,1.1,1.5,2.1s-0.4,2.1-1.5,2.1s-1.5-1.1-1.5-2.1S40,68.3,41,68.3z M41,68.7
				c-0.8,0-1,0.8-1,1.6s0.3,1.6,1,1.6c0.8,0,1-0.8,1-1.6S41.8,68.7,41,68.7z"/>
		</g>
		<g class="st3">
			<path class="st4" d="M31.6,41.2h-2.5v-0.5h3.2v0.4l-1.9,4.3h-0.6L31.6,41.2z"/>
			<path class="st4" d="M34.6,40.6c1.3,0,1.8,1.3,1.8,2.4c0,1.1-0.5,2.4-1.8,2.4s-1.8-1.3-1.8-2.4C32.8,41.9,33.3,40.6,34.6,40.6z
				 M34.6,41.1c-0.9,0-1.2,1-1.2,1.9s0.3,1.9,1.2,1.9s1.2-1,1.2-1.9S35.5,41.1,34.6,41.1z"/>
			<path class="st4" d="M38.9,40.6c1.3,0,1.8,1.3,1.8,2.4c0,1.1-0.5,2.4-1.8,2.4s-1.8-1.3-1.8-2.4C37.1,41.9,37.6,40.6,38.9,40.6z
				 M38.9,41.1c-0.9,0-1.2,1-1.2,1.9s0.3,1.9,1.2,1.9s1.2-1,1.2-1.9S39.8,41.1,38.9,41.1z"/>
			<path class="st4" d="M43.2,40.6c1.3,0,1.8,1.3,1.8,2.4c0,1.1-0.5,2.4-1.8,2.4s-1.8-1.3-1.8-2.4C41.4,41.9,41.9,40.6,43.2,40.6z
				 M43.2,41.1c-0.9,0-1.2,1-1.2,1.9s0.3,1.9,1.2,1.9s1.2-1,1.2-1.9S44,41.1,43.2,41.1z"/>
		</g>
		<g class="st3">
			<path class="st4" d="M29.7,16.2c-0.5-0.1-0.9-0.4-0.9-1c0-0.7,0.7-1,1.4-1s1.4,0.3,1.4,1c0,0.5-0.4,0.8-0.9,1c0.5,0.1,1,0.5,1,1
				c0,0.7-0.6,1.1-1.4,1.1s-1.4-0.4-1.4-1.1C28.7,16.8,29.2,16.4,29.7,16.2z M30.1,16.5c-0.2,0-0.9,0.3-0.9,0.8
				c0,0.4,0.4,0.7,0.9,0.7s0.9-0.3,0.9-0.7C31.1,16.7,30.4,16.5,30.1,16.5z M30.1,14.7c-0.5,0-0.9,0.2-0.9,0.7s0.6,0.6,0.9,0.7
				c0.2,0,0.9-0.2,0.9-0.7C31,14.9,30.6,14.7,30.1,14.7z"/>
			<path class="st4" d="M33.7,14.2c1.1,0,1.5,1.1,1.5,2.1s-0.4,2.1-1.5,2.1s-1.5-1.1-1.5-2.1S32.6,14.2,33.7,14.2z M33.7,14.7
				c-0.8,0-1,0.8-1,1.6s0.3,1.6,1,1.6s1-0.8,1-1.6C34.7,15.5,34.5,14.7,33.7,14.7z"/>
			<path class="st4" d="M37.4,14.2c1.1,0,1.5,1.1,1.5,2.1s-0.4,2.1-1.5,2.1s-1.5-1.1-1.5-2.1S36.3,14.2,37.4,14.2z M37.4,14.7
				c-0.8,0-1,0.8-1,1.6s0.3,1.6,1,1.6s1-0.8,1-1.6C38.4,15.5,38.1,14.7,37.4,14.7z"/>
			<path class="st4" d="M41.1,14.2c1.1,0,1.5,1.1,1.5,2.1s-0.4,2.1-1.5,2.1s-1.5-1.1-1.5-2.1C39.5,15.3,40,14.2,41.1,14.2z
				 M41.1,14.7c-0.8,0-1,0.8-1,1.6s0.3,1.6,1,1.6s1-0.8,1-1.6C42.1,15.5,41.8,14.7,41.1,14.7z"/>
		</g>
	</g>
	<g class="st3">
		<path class="st4" d="M22.6,143.1c0,1.1,0.4,1.6,1.2,1.6c0.5,0,0.8-0.1,1-0.4c0.2-0.3,0.3-0.8,0.5-1.5c0.2-0.8,0.4-1.3,0.7-1.6
			c0.3-0.3,0.7-0.5,1.4-0.5c1.6,0,2.3,0.8,2.3,2.4c0,0.5-0.1,1.2-0.2,2l-0.1,0.4l-0.7-0.1c0.1-1,0.2-1.8,0.2-2.3
			c0-1.1-0.5-1.6-1.5-1.6c-0.4,0-0.7,0.1-0.9,0.4s-0.3,0.7-0.5,1.3c-0.2,0.9-0.4,1.5-0.7,1.8s-0.8,0.5-1.5,0.5c-1.4,0-2-0.8-2-2.5
			c0-0.5,0.1-1.2,0.2-1.9l0.1-0.4l0.7,0.1C22.6,142,22.6,142.7,22.6,143.1z"/>
		<path class="st4" d="M28.9,135.7l0-0.3l0.6,0c0.1,0.8,0.2,1.6,0.2,2.1c0,0.8-0.2,1.4-0.7,1.7c-0.5,0.3-1.2,0.5-2.1,0.5
			c-1.9,0-2.9-0.8-2.9-2.3c0-0.7,0.2-1.3,0.6-1.7s1.1-0.5,2-0.5l0.6,0v3.6c0.6,0,1.1-0.1,1.4-0.3c0.3-0.2,0.4-0.6,0.4-1.2
			C28.9,136.8,28.9,136.2,28.9,135.7z M26.5,136c-0.7,0-1.2,0.1-1.4,0.3c-0.3,0.2-0.4,0.6-0.4,1.1s0.1,0.9,0.4,1.1
			c0.3,0.2,0.8,0.4,1.4,0.4V136z"/>
		<path class="st4" d="M29.6,133.8h-7.9V133h7.9V133.8z"/>
		<path class="st4" d="M29.6,131.2h-7.9v-0.8h7.9V131.2z"/>
		<path class="st4" d="M29.6,126.2h-7.6v-0.8h7.6V126.2z"/>
		<path class="st4" d="M29.6,122.8v0.8h-5.5v-0.8h0.4c-0.3-0.6-0.5-1.2-0.5-1.7c0-0.7,0.2-1.2,0.6-1.5c0.4-0.3,1.1-0.4,2.1-0.4h2.9
			v0.8h-2.9c-0.8,0-1.3,0.1-1.6,0.2s-0.4,0.5-0.4,1c0,0.2,0,0.5,0.1,0.7c0.1,0.3,0.1,0.5,0.2,0.6l0.1,0.2H29.6z"/>
	</g>
</g>
<g class="st3">
	<path class="st4" d="M101.4,144.1h-2.5v-0.4l1.2-1.2c0.2-0.2,0.3-0.4,0.4-0.5s0.2-0.2,0.2-0.4c0.1-0.1,0.1-0.3,0.1-0.4
		c0-0.3-0.1-0.4-0.2-0.5s-0.4-0.2-0.7-0.2c-0.3,0-0.5,0-0.9,0.1h-0.2v-0.4c0.4-0.1,0.8-0.2,1.2-0.2c0.4,0,0.7,0.1,0.9,0.3
		s0.3,0.4,0.3,0.8c0,0.3-0.1,0.5-0.2,0.7s-0.3,0.5-0.6,0.8l-1.1,1.1h2L101.4,144.1L101.4,144.1z"/>
	<path class="st4" d="M103.5,140c0.3,0,0.6,0.1,0.8,0.2c0.4,0.3,0.6,0.9,0.6,1.9c0,0.7-0.1,1.2-0.4,1.5c-0.2,0.3-0.6,0.4-1.1,0.4
		s-0.8-0.1-1.1-0.4c-0.2-0.3-0.4-0.8-0.4-1.6s0.1-1.3,0.4-1.6C102.7,140.2,103,140,103.5,140z M103.5,140.4c-0.2,0-0.4,0-0.5,0.1
		c-0.3,0.2-0.4,0.7-0.4,1.6c0,0.6,0.1,1,0.2,1.2c0.2,0.2,0.4,0.3,0.7,0.3s0.6-0.1,0.7-0.3c0.2-0.2,0.2-0.7,0.2-1.3s-0.1-1-0.2-1.3
		S103.9,140.4,103.5,140.4z"/>
	<path class="st4" d="M107.6,140.1v4h-0.5v-3.4l-1,0.7l-0.2-0.3l1.3-0.8h0.4V140.1z"/>
	<path class="st4" d="M110.1,143.7c0.7,0,1.1-0.5,1.1-1.4c-0.4,0.2-0.7,0.2-1,0.2c-0.9,0-1.3-0.4-1.3-1.2c0-0.4,0.1-0.7,0.4-1
		s0.6-0.4,1-0.4c0.5,0,0.8,0.2,1.1,0.5c0.2,0.4,0.4,0.9,0.4,1.6c0,0.7-0.1,1.2-0.4,1.5s-0.7,0.5-1.2,0.5c-0.3,0-0.6,0-0.9-0.1h-0.2
		v-0.4C109.4,143.7,109.7,143.7,110.1,143.7z M110.2,142.2c0.2,0,0.5-0.1,0.8-0.2l0.2-0.1c0-1-0.3-1.5-1-1.5c-0.3,0-0.5,0.1-0.7,0.2
		c-0.2,0.2-0.2,0.4-0.2,0.7C109.3,141.9,109.6,142.2,110.2,142.2z"/>
	<path class="st4" d="M113.4,139.9h0.5l0.7,3.7h0.2l0.8-3.7h0.5l0.8,3.7h0.2l0.7-3.7h0.5l-0.8,4.2h-0.8l-0.8-3.5l-0.8,3.5h-0.8
		L113.4,139.9z"/>
	<path class="st4" d="M120.7,144.1v-0.8h-1.9v-0.4l1.1-2.8h0.5l-1.1,2.8h1.4v-1.2h0.5v1.2h0.5v0.4h-0.5v0.8H120.7z"/>
	<path class="st4" d="M124.1,144.1v-0.8h-1.9v-0.4l1.1-2.8h0.5l-1.1,2.8h1.4v-1.2h0.5v1.2h0.5v0.4h-0.5v0.8H124.1z"/>
</g>
<g class="st3">
	<path class="st4" d="M182.5,144.1H180v-0.4l1.2-1.2c0.2-0.2,0.3-0.4,0.4-0.5c0.1-0.1,0.2-0.2,0.2-0.4c0.1-0.1,0.1-0.3,0.1-0.4
		c0-0.3-0.1-0.4-0.2-0.5c-0.1-0.1-0.4-0.2-0.7-0.2s-0.5,0-0.9,0.1h-0.2v-0.4c0.4-0.1,0.8-0.2,1.2-0.2s0.7,0.1,0.9,0.3
		s0.3,0.4,0.3,0.8c0,0.3-0.1,0.5-0.2,0.7c-0.1,0.2-0.3,0.5-0.6,0.8l-1.1,1.1h2v0.4H182.5z"/>
	<path class="st4" d="M184.6,140c0.3,0,0.6,0.1,0.8,0.2c0.4,0.3,0.6,0.9,0.6,1.9c0,0.7-0.1,1.2-0.4,1.5c-0.2,0.3-0.6,0.4-1.1,0.4
		s-0.8-0.1-1.1-0.4c-0.2-0.3-0.4-0.8-0.4-1.6s0.1-1.3,0.4-1.6C183.8,140.2,184.1,140,184.6,140z M184.6,140.4c-0.2,0-0.4,0-0.5,0.1
		c-0.3,0.2-0.4,0.7-0.4,1.6c0,0.6,0.1,1,0.2,1.2c0.2,0.2,0.4,0.3,0.7,0.3s0.6-0.1,0.7-0.3c0.2-0.2,0.2-0.7,0.2-1.3s-0.1-1-0.2-1.3
		S185,140.4,184.6,140.4z"/>
	<path class="st4" d="M188.6,140.1v4h-0.5v-3.4l-1,0.7l-0.2-0.3l1.3-0.8h0.4V140.1z"/>
	<path class="st4" d="M191.1,143.7c0.7,0,1.1-0.5,1.1-1.4c-0.4,0.2-0.7,0.2-1,0.2c-0.9,0-1.3-0.4-1.3-1.2c0-0.4,0.1-0.7,0.4-1
		s0.6-0.4,1-0.4c0.5,0,0.8,0.2,1.1,0.5c0.2,0.4,0.4,0.9,0.4,1.6c0,0.7-0.1,1.2-0.4,1.5c-0.3,0.3-0.7,0.5-1.2,0.5
		c-0.3,0-0.6,0-0.9-0.1h-0.2v-0.4C190.4,143.7,190.8,143.7,191.1,143.7z M191.2,142.2c0.2,0,0.5-0.1,0.8-0.2l0.2-0.1
		c0-1-0.3-1.5-1-1.5c-0.3,0-0.5,0.1-0.7,0.2s-0.2,0.4-0.2,0.7C190.4,141.9,190.7,142.2,191.2,142.2z"/>
	<path class="st4" d="M194.5,139.9h0.5l0.7,3.7h0.2l0.8-3.7h0.5l0.8,3.7h0.2l0.7-3.7h0.5l-0.8,4.2h-0.8l-0.8-3.5l-0.8,3.5h-0.8
		L194.5,139.9z"/>
	<path class="st4" d="M201.8,144.1v-0.8h-1.9v-0.4l1.1-2.8h0.5l-1.1,2.8h1.4v-1.2h0.5v1.2h0.5v0.4h-0.5v0.8H201.8z"/>
	<path class="st4" d="M205.9,140.1v0.4H204l-0.1,1.3c0.3-0.2,0.6-0.2,0.9-0.2c0.8,0,1.3,0.4,1.3,1.2c0,0.4-0.1,0.8-0.3,1
		s-0.6,0.4-1,0.4c-0.3,0-0.7,0-1.1-0.1h-0.2l0.1-0.4c0.5,0.1,0.8,0.1,1.2,0.1c0.3,0,0.6-0.1,0.7-0.2s0.2-0.4,0.2-0.7
		s-0.1-0.5-0.2-0.6c-0.1-0.1-0.4-0.2-0.6-0.2c-0.1,0-0.3,0-0.5,0.1c-0.2,0-0.3,0.1-0.4,0.1l-0.1,0.1l-0.3-0.1l0.1-2.1h2.2V140.1z"/>
</g>
<g class="st3">
	<path class="st4" d="M264.4,144.1h-2.5v-0.4l1.2-1.2c0.2-0.2,0.3-0.4,0.4-0.5s0.2-0.2,0.2-0.4c0.1-0.1,0.1-0.3,0.1-0.4
		c0-0.3-0.1-0.4-0.2-0.5s-0.4-0.2-0.7-0.2c-0.3,0-0.5,0-0.9,0.1h-0.2v-0.4c0.4-0.1,0.8-0.2,1.2-0.2c0.4,0,0.7,0.1,0.9,0.3
		s0.3,0.4,0.3,0.8c0,0.3-0.1,0.5-0.2,0.7s-0.3,0.5-0.6,0.8l-1.1,1.1h2v0.4H264.4z"/>
	<path class="st4" d="M266.5,140c0.3,0,0.6,0.1,0.8,0.2c0.4,0.3,0.6,0.9,0.6,1.9c0,0.7-0.1,1.2-0.4,1.5c-0.2,0.3-0.6,0.4-1.1,0.4
		s-0.8-0.1-1.1-0.4c-0.2-0.3-0.4-0.8-0.4-1.6s0.1-1.3,0.4-1.6C265.7,140.2,266,140,266.5,140z M266.5,140.4c-0.2,0-0.4,0-0.5,0.1
		c-0.3,0.2-0.4,0.7-0.4,1.6c0,0.6,0.1,1,0.2,1.2c0.2,0.2,0.4,0.3,0.7,0.3s0.6-0.1,0.7-0.3c0.2-0.2,0.2-0.7,0.2-1.3s-0.1-1-0.2-1.3
		C267.1,140.6,266.9,140.4,266.5,140.4z"/>
	<path class="st4" d="M270.5,140.1v4H270v-3.4l-1,0.7l-0.2-0.3l1.3-0.8h0.4V140.1z"/>
	<path class="st4" d="M273,143.7c0.7,0,1.1-0.5,1.1-1.4c-0.4,0.2-0.7,0.2-1,0.2c-0.9,0-1.3-0.4-1.3-1.2c0-0.4,0.1-0.7,0.4-1
		s0.6-0.4,1-0.4c0.5,0,0.8,0.2,1.1,0.5c0.2,0.4,0.4,0.9,0.4,1.6c0,0.7-0.1,1.2-0.4,1.5s-0.7,0.5-1.2,0.5c-0.3,0-0.6,0-0.9-0.1H272
		v-0.4C272.4,143.7,272.7,143.7,273,143.7z M273.1,142.2c0.2,0,0.5-0.1,0.8-0.2l0.2-0.1c0-1-0.3-1.5-1-1.5c-0.3,0-0.5,0.1-0.7,0.2
		s-0.2,0.4-0.2,0.7C272.3,141.9,272.6,142.2,273.1,142.2z"/>
	<path class="st4" d="M276.4,139.9h0.5l0.7,3.7h0.2l0.8-3.7h0.5l0.8,3.7h0.2l0.7-3.7h0.5l-0.8,4.2h-0.8l-0.8-3.5l-0.8,3.5h-0.8
		L276.4,139.9z"/>
	<path class="st4" d="M283.7,144.1v-0.8h-1.9v-0.4l1.1-2.8h0.5l-1.1,2.8h1.4v-1.2h0.5v1.2h0.5v0.4h-0.5v0.8H283.7z"/>
	<path class="st4" d="M287.8,140.5c-0.4,0-0.7-0.1-1-0.1s-0.6,0.1-0.8,0.4s-0.3,0.6-0.3,1l0.2-0.1c0.1,0,0.2-0.1,0.4-0.1
		s0.3-0.1,0.4-0.1c0.9,0,1.3,0.4,1.3,1.2c0,0.4-0.1,0.7-0.4,1c-0.2,0.2-0.6,0.3-1,0.3c-0.9,0-1.4-0.7-1.4-2.1c0-0.7,0.1-1.2,0.4-1.5
		s0.7-0.5,1.1-0.5c0.3,0,0.6,0,0.9,0.1h0.2L287.8,140.5z M286.7,142c-0.1,0-0.3,0-0.4,0.1s-0.3,0.1-0.4,0.1l-0.1,0.1
		c0,0.5,0.1,0.8,0.2,1.1s0.4,0.4,0.7,0.4c0.3,0,0.5-0.1,0.7-0.2s0.2-0.4,0.2-0.7s-0.1-0.5-0.2-0.6C287.2,142.1,286.9,142,286.7,142z
		"/>
</g>
<g class="st3">
	<path class="st4" d="M345.6,144.1h-2.5v-0.4l1.2-1.2c0.2-0.2,0.3-0.4,0.4-0.5s0.2-0.2,0.2-0.4c0.1-0.1,0.1-0.3,0.1-0.4
		c0-0.3-0.1-0.4-0.2-0.5s-0.4-0.2-0.7-0.2c-0.3,0-0.5,0-0.9,0.1H343v-0.4c0.4-0.1,0.8-0.2,1.2-0.2s0.7,0.1,0.9,0.3s0.3,0.4,0.3,0.8
		c0,0.3-0.1,0.5-0.2,0.7s-0.3,0.5-0.6,0.8l-1.1,1.1h2v0.4H345.6z"/>
	<path class="st4" d="M347.7,140c0.3,0,0.6,0.1,0.8,0.2c0.4,0.3,0.6,0.9,0.6,1.9c0,0.7-0.1,1.2-0.4,1.5s-0.6,0.4-1.1,0.4
		s-0.8-0.1-1.1-0.4s-0.4-0.8-0.4-1.6s0.1-1.3,0.4-1.6C346.9,140.2,347.2,140,347.7,140z M347.7,140.4c-0.2,0-0.4,0-0.5,0.1
		c-0.3,0.2-0.4,0.7-0.4,1.6c0,0.6,0.1,1,0.2,1.2c0.2,0.2,0.4,0.3,0.7,0.3s0.6-0.1,0.7-0.3c0.2-0.2,0.2-0.7,0.2-1.3s-0.1-1-0.2-1.3
		C348.3,140.6,348.1,140.4,347.7,140.4z"/>
	<path class="st4" d="M351.7,140.1v4h-0.5v-3.4l-1,0.7l-0.2-0.3l1.3-0.8h0.4V140.1z"/>
	<path class="st4" d="M354.2,143.7c0.7,0,1.1-0.5,1.1-1.4c-0.4,0.2-0.7,0.2-1,0.2c-0.9,0-1.3-0.4-1.3-1.2c0-0.4,0.1-0.7,0.4-1
		s0.6-0.4,1-0.4c0.5,0,0.8,0.2,1.1,0.5c0.2,0.4,0.4,0.9,0.4,1.6c0,0.7-0.1,1.2-0.4,1.5s-0.7,0.5-1.2,0.5c-0.3,0-0.6,0-0.9-0.1h-0.2
		v-0.4C353.6,143.7,353.9,143.7,354.2,143.7z M354.3,142.2c0.2,0,0.5-0.1,0.8-0.2l0.2-0.1c0-1-0.3-1.5-1-1.5c-0.3,0-0.5,0.1-0.7,0.2
		c-0.2,0.2-0.2,0.4-0.2,0.7C353.5,141.9,353.8,142.2,354.3,142.2z"/>
	<path class="st4" d="M357.6,139.9h0.5l0.7,3.7h0.2l0.8-3.7h0.5l0.8,3.7h0.2l0.7-3.7h0.5l-0.8,4.2h-0.8l-0.8-3.5l-0.8,3.5h-0.8
		L357.6,139.9z"/>
	<path class="st4" d="M364.9,144.1v-0.8H363v-0.4l1.1-2.8h0.5l-1.1,2.8h1.4v-1.2h0.5v1.2h0.5v0.4h-0.5v0.8H364.9z"/>
	<path class="st4" d="M366.6,140.5v-0.4h2.5v0.6l-1.5,3.4l-0.4-0.1l1.5-3.3v-0.2H366.6z"/>
</g>
</svg>
