<?xml version="1.0" encoding="utf-8"?>
<!-- Generator: Adobe Illustrator 23.0.6, SVG Export Plug-In . SVG Version: 6.00 Build 0)  -->
<svg version="1.1" id="圖層_1" xmlns="http://www.w3.org/2000/svg" xmlns:xlink="http://www.w3.org/1999/xlink" x="0px" y="0px"
	 viewBox="0 0 99 16" style="enable-background:new 0 0 99 16;" xml:space="preserve">
<style type="text/css">
	.st0{fill:#EB6219;}
	.st1{fill:#28A46A;}
	.st2{enable-background:new    ;}
	.st3{fill:#FFFFFF;}
</style>
<circle id="Ellipse_24" class="st0" cx="5.3" cy="6.8" r="4"/>
<circle id="Ellipse_25" class="st1" cx="51.3" cy="6.8" r="4"/>
<g class="st2">
	<path class="st3" d="M22.4,14c-0.3,0.1-0.8,0.2-1.4,0.2c-1.8,0-3-0.9-3.5-2.3C15.4,11.7,14,9.8,14,7c0-3.1,1.7-4.9,4.1-4.9
		c2.4,0,4.1,1.9,4.1,4.9c0,2.7-1.4,4.6-3.4,4.9c0.4,0.8,1.3,1.3,2.3,1.3c0.4,0,0.8-0.1,1-0.1L22.4,14z M18.1,11c1.7,0,2.8-1.5,2.8-4
		c0-2.4-1.1-3.9-2.8-3.9c-1.7,0-2.8,1.5-2.8,3.9C15.3,9.4,16.4,11,18.1,11z"/>
	<path class="st3" d="M24.3,9.6V5.7h-1.1V4.8l1.1-0.1l0.1-2h1v2h1.9v1h-1.9v3.9c0,0.9,0.3,1.4,1.1,1.4c0.2,0,0.6-0.1,0.8-0.2
		l0.2,0.9c-0.4,0.1-0.9,0.3-1.3,0.3C24.8,12,24.3,11,24.3,9.6z"/>
	<path class="st3" d="M28.3,14.7l0.2-0.9c0.1,0.1,0.4,0.1,0.5,0.1c0.8,0,1.3-0.7,1.6-1.5l0.2-0.5L28,4.7h1.2l1.4,3.9
		c0.2,0.6,0.5,1.3,0.7,2h0.1c0.2-0.6,0.4-1.4,0.6-2l1.3-3.9h1.2l-2.7,7.6c-0.5,1.4-1.2,2.5-2.6,2.5C28.8,14.8,28.5,14.8,28.3,14.7z"
		/>
</g>
<g class="st2">
	<path class="st3" d="M62.6,3.3h-2.9v-1h7v1h-2.9v8.5h-1.2V3.3z"/>
	<path class="st3" d="M66.8,10c0-1.5,1.3-2.3,4.3-2.6c0-0.9-0.3-1.8-1.5-1.8c-0.8,0-1.6,0.4-2.1,0.8l-0.5-0.8
		c0.7-0.4,1.7-0.9,2.8-0.9c1.7,0,2.4,1.2,2.4,2.9v4.3h-1L71.2,11h0c-0.7,0.6-1.5,1-2.3,1C67.6,12,66.8,11.2,66.8,10z M71.1,10.1v-2
		c-2.4,0.3-3.2,0.9-3.2,1.8c0,0.8,0.5,1.1,1.2,1.1C69.9,11,70.4,10.7,71.1,10.1z"/>
	<path class="st3" d="M74.5,4.7h1L75.6,6h0c0.5-0.9,1.2-1.5,2-1.5c0.3,0,0.5,0,0.8,0.2l-0.2,1c-0.2-0.1-0.4-0.1-0.7-0.1
		c-0.6,0-1.3,0.4-1.8,1.6v4.5h-1.2V4.7z"/>
	<path class="st3" d="M78.9,13.2c0-0.6,0.4-1.2,1.1-1.6v-0.1c-0.4-0.2-0.6-0.6-0.6-1.2c0-0.6,0.4-1.1,0.8-1.3V9
		c-0.5-0.4-0.9-1.1-0.9-1.9c0-1.5,1.2-2.5,2.7-2.5c0.4,0,0.7,0.1,1,0.2h2.5v0.9h-1.4c0.3,0.3,0.6,0.8,0.6,1.5c0,1.5-1.1,2.5-2.6,2.5
		c-0.4,0-0.7-0.1-1.1-0.2c-0.3,0.2-0.5,0.5-0.5,0.8c0,0.5,0.3,0.8,1.2,0.8h1.4c1.6,0,2.5,0.5,2.5,1.7c0,1.3-1.4,2.4-3.6,2.4
		C80.1,15.1,78.9,14.4,78.9,13.2z M84.2,12.8c0-0.7-0.5-0.9-1.4-0.9h-1.2c-0.3,0-0.6,0-0.9-0.1c-0.5,0.4-0.7,0.8-0.7,1.2
		c0,0.8,0.8,1.2,2.1,1.2C83.3,14.3,84.2,13.5,84.2,12.8z M83.3,7.1c0-1-0.7-1.7-1.5-1.7S80.3,6,80.3,7.1c0,1,0.7,1.7,1.5,1.7
		C82.6,8.8,83.3,8.1,83.3,7.1z"/>
	<path class="st3" d="M86,8.3c0-2.3,1.5-3.7,3.2-3.7C91,4.6,92,5.9,92,7.9c0,0.3,0,0.5-0.1,0.7h-4.8c0.1,1.5,1,2.5,2.3,2.5
		c0.7,0,1.2-0.2,1.8-0.6l0.4,0.8c-0.6,0.4-1.4,0.7-2.3,0.7C87.5,12,86,10.6,86,8.3z M91,7.7c0-1.4-0.6-2.2-1.8-2.2
		c-1,0-1.9,0.8-2,2.2H91z"/>
	<path class="st3" d="M93.8,9.6V5.7h-1.1V4.8l1.1-0.1l0.1-2h1v2h1.9v1H95v3.9c0,0.9,0.3,1.4,1.1,1.4c0.2,0,0.6-0.1,0.8-0.2l0.2,0.9
		c-0.4,0.1-0.9,0.3-1.3,0.3C94.3,12,93.8,11,93.8,9.6z"/>
</g>
</svg>
