<?xml version="1.0" encoding="utf-8"?>
<!-- Generator: Adobe Illustrator 23.0.6, SVG Export Plug-In . SVG Version: 6.00 Build 0)  -->
<svg version="1.1" id="圖層_5" xmlns="http://www.w3.org/2000/svg" xmlns:xlink="http://www.w3.org/1999/xlink" x="0px" y="0px"
	 viewBox="0 0 375 159.5" style="enable-background:new 0 0 375 159.5;" xml:space="preserve">
<style type="text/css">
	.st0{fill:#FFFFFF;}
	.st1{fill:#24AD6E;}
	.st2{fill:#FE8C38;}
	.st3{enable-background:new    ;}
</style>
<g>
	<g id="Group_84" transform="translate(-75.973 -103)">
		<path id="Path_1085" class="st0" d="M206.2,248.8c0.3-31.6,26.2-57,57.8-56.7c31.2,0.3,56.4,25.5,56.7,56.7H376
			c-0.3-62.1-51-112.3-113.1-111.9c-61.7,0.3-111.6,50.2-111.9,111.9L206.2,248.8L206.2,248.8z"/>
		<path id="Path_1086" class="st1" d="M263.5,137.1c-61.6,0-111.7,49.7-112.2,111.4H206c0.5-31.8,26.6-57.2,58.4-56.7
			c13.1,0.2,25.8,4.9,35.9,13.3l35.1-41.9C315.2,146.3,289.8,137.1,263.5,137.1z"/>
		<path id="Path_1087" class="st2" d="M321,248.5h54.7c-0.2-29.6-12-57.9-33.1-78.7c-2.2-2.2-4.5-4.3-6.8-6.3l-35.1,41.9
			c1.1,1,2.2,2,3.3,3C314.7,219,320.8,233.4,321,248.5z"/>
	</g>
	<g id="Group_83" transform="translate(-84 -103)">
		<rect id="Rectangle_80" x="188" y="118.1" class="st1" width="25" height="7"/>
		<rect id="Rectangle_81" x="282" y="118.1" class="st2" width="25" height="7"/>
		<g class="st3">
			<path class="st0" d="M220.9,117.2c-0.3,0.8-0.7,1.6-1.1,2.3v7.4h-1V121c-0.3,0.4-0.6,0.8-1,1.1c-0.1-0.2-0.4-0.8-0.6-1
				c1.1-1,2.1-2.6,2.7-4.2L220.9,117.2z M222.9,123.7c-0.5,0.9-1.2,2-1.8,2.7c-0.2-0.2-0.6-0.5-0.8-0.6c0.6-0.6,1.2-1.6,1.7-2.4
				L222.9,123.7z M224.5,123v3.9h-1V123h-3v-0.9h3v-1.2h-2.3v-3.6h5.7v3.6h-2.4v1.2h3v0.9H224.5z M222.2,120h3.7v-1.8h-3.7V120z
				 M225.8,123.4c0.7,0.8,1.4,1.7,1.8,2.4l-0.8,0.5c-0.3-0.7-1.1-1.7-1.7-2.5L225.8,123.4z"/>
			<path class="st0" d="M231.9,117.6c-0.3,0.9-0.6,2-0.9,2.9c0.7,0.9,0.8,1.7,0.8,2.3c0,0.6-0.1,1.1-0.4,1.4
				c-0.2,0.1-0.3,0.2-0.6,0.2c-0.2,0-0.4,0-0.7,0c0-0.2-0.1-0.6-0.2-0.9c0.2,0,0.4,0,0.5,0s0.2,0,0.3-0.1s0.2-0.4,0.2-0.7
				c0-0.5-0.1-1.3-0.8-2.1c0.2-0.7,0.5-1.6,0.7-2.4h-1.1v8.7h-0.9v-9.6h2.3h0.1L231.9,117.6z M233.9,123.8c-0.1,0.3-0.2,0.5-0.3,0.7
				c0.4,0.3,0.9,0.6,1.1,0.9l-0.5,0.7c-0.2-0.2-0.6-0.6-1-0.9c-0.4,0.7-1,1.3-1.6,1.7c-0.1-0.2-0.5-0.5-0.7-0.7c1-0.6,1.7-1.5,2-2.6
				L233.9,123.8z M233.3,119.4c-0.4,0.3-0.7,0.5-1.1,0.7c-0.1-0.2-0.5-0.5-0.7-0.7c1.3-0.7,2.5-1.7,3.1-2.8l1,0.3
				c-0.1,0.1-0.2,0.2-0.2,0.4c0.8,0.7,2.1,1.4,3.2,1.8c-0.2,0.2-0.4,0.7-0.4,1c-0.5-0.2-1-0.5-1.6-0.8v0.8h-3.2v-0.7
				C233.4,119.4,233.3,119.4,233.3,119.4z M232.1,120.8h2.5v2.7h-2.5V120.8z M232.9,122.7h1v-1.3h-1V122.7z M236.5,119.3
				c-0.6-0.4-1.2-0.8-1.6-1.2c-0.4,0.4-0.8,0.8-1.3,1.2H236.5z M237,123.8c-0.1,0.3-0.2,0.6-0.3,0.9c0.7,0.4,1.4,1,1.8,1.4l-0.6,0.7
				c-0.4-0.4-1-0.9-1.6-1.3c-0.3,0.6-0.8,1.1-1.3,1.5c-0.1-0.2-0.5-0.5-0.7-0.7c0.9-0.5,1.4-1.5,1.7-2.6L237,123.8z M235.2,120.8
				h2.6v2.7h-2.6V120.8z M236,122.7h1v-1.3h-1V122.7z"/>
			<path class="st0" d="M243.9,123.6v3.3H243v-0.3h-1.7v0.3h-0.9v-3.2c-0.2,0.1-0.3,0.1-0.5,0.2c-0.1-0.2-0.3-0.6-0.5-0.8
				c0.7-0.2,1.4-0.6,2-1c-0.3-0.2-0.5-0.3-0.7-0.4l0.6-0.6c0.3,0.1,0.5,0.3,0.8,0.5c0.3-0.3,0.5-0.6,0.7-1h-1.5
				c-0.3,0.5-0.7,0.9-1.2,1.3c-0.1-0.2-0.4-0.5-0.5-0.7c0.8-0.6,1.4-1.4,1.6-2.1l0.8,0.2c-0.1,0.2-0.2,0.4-0.2,0.6h1.5h0.1l0.5,0.4
				c-0.3,0.7-0.7,1.3-1.1,1.9c0.6,0.4,1.2,0.7,1.6,1L243.9,123.6z M240.4,119.8h-0.8v-1.9h2c-0.1-0.3-0.2-0.5-0.3-0.8l0.8-0.3
				c0.2,0.3,0.3,0.7,0.5,1h1.8v1.9h-0.8v-1.1h-3.2V119.8z M243.7,123.6c-0.4-0.3-0.9-0.6-1.5-1c-0.5,0.4-1,0.7-1.5,1H243.7z
				 M242.9,125.8v-1.4h-1.7v1.4H242.9z M246.8,125.6c-0.6,0.5-1.6,1.1-2.3,1.4c-0.1-0.2-0.3-0.5-0.4-0.8c0.7-0.3,1.6-0.9,2.1-1.3
				L246.8,125.6z M246.4,119.1c0.1-0.3,0.1-0.6,0.2-0.9h-1.9v-0.9h4.8v0.9h-2c-0.1,0.3-0.2,0.6-0.3,0.9h1.9v5.7H245v-5.7H246.4z
				 M248.2,119.9h-2.3v0.8h2.3V119.9z M248.2,121.5h-2.3v0.9h2.3V121.5z M248.2,123.2h-2.3v0.9h2.3V123.2z M247.8,124.9
				c0.6,0.4,1.4,1,1.8,1.4L249,127c-0.4-0.4-1.2-1-1.8-1.4L247.8,124.9z"/>
			<path class="st0" d="M252.4,120.8c0,1.8-0.1,4.4-1,6.1c-0.2-0.2-0.7-0.4-0.9-0.5c0.9-1.7,1-4,1-5.7v-2.9h4.1
				c-0.1-0.3-0.2-0.6-0.4-0.8l1-0.2c0.2,0.3,0.4,0.7,0.5,1.1h3.7v0.9h-8L252.4,120.8L252.4,120.8z M259.6,123.4
				c-0.5,0.9-1.2,1.6-2.1,2.1c0.9,0.3,1.9,0.5,3.1,0.5c-0.2,0.2-0.5,0.6-0.6,0.9c-1.4-0.1-2.6-0.4-3.6-0.9c-1.1,0.4-2.4,0.7-3.7,0.8
				c-0.1-0.3-0.3-0.6-0.4-0.9c1.1-0.1,2.1-0.2,3-0.5c-0.6-0.4-1.2-0.8-1.6-1.4l0.4-0.2h-1.3V123h6.1h0.2L259.6,123.4z M254.3,122.5
				v-1.8h-1.6v-0.8h1.6v-0.8h1v0.8h2.4v-0.8h1v0.8h1.7v0.8h-1.7v1.8H254.3z M254.7,123.9c0.4,0.5,1,0.8,1.7,1.2
				c0.7-0.3,1.3-0.7,1.7-1.2H254.7z M255.2,120.8v1h2.4v-1H255.2z"/>
		</g>
		<g class="st3">
			<path class="st0" d="M317.6,122.3c1,1.3,2.6,2.6,4.1,3.2c-0.2,0.2-0.6,0.6-0.7,0.9c-1.4-0.7-2.8-1.9-3.8-3.3v3.8H316v-3.8
				c-1,1.4-2.5,2.5-3.8,3.2c-0.2-0.3-0.5-0.6-0.7-0.9c1.5-0.7,3.1-1.9,4-3.2h-3.7v-1h4.3v-1.7h-3.5v-1h3.5v-1.7h1.1v1.7h3.6v1H317
				v1.7h4.3v1h-3.7L317.6,122.3L317.6,122.3z"/>
			<path class="st0" d="M324.5,121.7c-0.5-0.4-1.4-0.8-2.1-1.1l0.5-0.8c0.7,0.2,1.7,0.7,2.1,1L324.5,121.7z M322.8,126.1
				c0.6-0.8,1.4-2.2,2-3.5l0.8,0.7c-0.6,1.1-1.3,2.5-1.9,3.5L322.8,126.1z M323.6,116.9c0.7,0.3,1.6,0.7,2.1,1.1l-0.6,0.8
				c-0.4-0.4-1.3-0.9-2-1.2L323.6,116.9z M332.3,118.9v4.9h-1v-0.6h-1.7v3.6h-1v-3.6h-1.7v0.6h-1v-5h2.7v-2.1h1v2.1L332.3,118.9
				L332.3,118.9z M328.6,122.3v-2.4h-1.7v2.4H328.6z M331.3,122.3v-2.4h-1.7v2.4H331.3z"/>
			<path class="st0" d="M334.9,119c-0.4,0.3-0.7,0.6-1.1,0.9c-0.1-0.2-0.3-0.7-0.5-1c0.9-0.5,1.7-1.4,2.2-2.2l0.8,0.3
				c-0.1,0.1-0.1,0.2-0.2,0.3c0.5,0.3,1.1,0.6,1.5,0.9l-0.5,0.8c-0.3-0.3-1-0.7-1.5-1c-0.2,0.3-0.5,0.5-0.7,0.8h1.7v0.7h-1.9V119
				H334.9z M336.6,124.1c0.4,0.7,0.9,1.6,1.1,2.2l-0.8,0.4c-0.1-0.2-0.2-0.5-0.4-0.8c-2.1,0.8-2.4,1-2.6,1.1
				c-0.1-0.2-0.2-0.7-0.4-0.9c0.2-0.1,0.5-0.2,0.5-0.6v-5.2h3.2v3.8H335v1.6l1.2-0.4c-0.1-0.2-0.2-0.5-0.4-0.7L336.6,124.1z
				 M335,120.9v0.7h1.4v-0.7H335z M336.4,123.1v-0.8H335v0.8H336.4z M341,122.9v3c0,0.5-0.1,0.7-0.4,0.9c-0.3,0.1-0.7,0.2-1.4,0.2
				c-0.1-0.2-0.2-0.6-0.3-0.8c0.4,0,0.8,0,1,0c0.1,0,0.2,0,0.2-0.2v-3h-2.3v-1h2.3v-1.1h-1.6V120h4.2c-0.8-0.5-1.5-1.1-2.1-1.8
				c-0.7,0.8-1.6,1.5-2.5,2c-0.1-0.2-0.4-0.5-0.6-0.7c1.2-0.6,2.4-1.6,3.1-2.7l0.8,0.3c-0.1,0.1-0.2,0.3-0.2,0.4
				c0.8,0.8,1.7,1.4,2.7,1.9c-0.2,0.2-0.5,0.6-0.6,0.8c-0.1-0.1-0.3-0.1-0.4-0.2v0.9H341v1.1h2.3v0.9L341,122.9L341,122.9z
				 M339.4,123.6c-0.3,0.8-0.8,1.8-1.2,2.4c-0.2-0.1-0.5-0.4-0.7-0.5c0.4-0.6,0.8-1.4,1.1-2.2L339.4,123.6z M342.4,123.3
				c0.4,0.7,0.9,1.8,1.2,2.3l-0.8,0.4c-0.2-0.6-0.7-1.6-1.1-2.4L342.4,123.3z"/>
			<path class="st0" d="M348.9,123.6v3.3H348v-0.3h-1.7v0.3h-0.9v-3.2c-0.2,0.1-0.3,0.1-0.5,0.2c-0.1-0.2-0.3-0.6-0.5-0.8
				c0.7-0.2,1.4-0.6,2-1c-0.3-0.2-0.5-0.3-0.7-0.4l0.6-0.6c0.3,0.1,0.5,0.3,0.8,0.5c0.3-0.3,0.5-0.6,0.7-1h-1.5
				c-0.3,0.5-0.7,0.9-1.2,1.3c-0.1-0.2-0.4-0.5-0.5-0.7c0.8-0.6,1.4-1.4,1.6-2.1l0.8,0.2c-0.1,0.2-0.2,0.4-0.2,0.6h1.5h0.1l0.5,0.4
				c-0.3,0.7-0.7,1.3-1.1,1.9c0.6,0.4,1.2,0.7,1.6,1L348.9,123.6z M345.4,119.8h-0.8v-1.9h2c-0.1-0.3-0.2-0.5-0.3-0.8l0.8-0.3
				c0.2,0.3,0.3,0.7,0.5,1h1.8v1.9h-0.8v-1.1h-3.2V119.8z M348.7,123.6c-0.4-0.3-0.9-0.6-1.5-1c-0.5,0.4-1,0.7-1.5,1H348.7z
				 M347.9,125.8v-1.4h-1.7v1.4H347.9z M351.8,125.6c-0.6,0.5-1.6,1.1-2.3,1.4c-0.1-0.2-0.3-0.5-0.4-0.8c0.7-0.3,1.6-0.9,2.1-1.3
				L351.8,125.6z M351.4,119.1c0.1-0.3,0.1-0.6,0.2-0.9h-1.9v-0.9h4.8v0.9h-2c-0.1,0.3-0.2,0.6-0.3,0.9h1.9v5.7H350v-5.7H351.4z
				 M353.2,119.9h-2.3v0.8h2.3V119.9z M353.2,121.5h-2.3v0.9h2.3V121.5z M353.2,123.2h-2.3v0.9h2.3V123.2z M352.8,124.9
				c0.6,0.4,1.4,1,1.8,1.4L354,127c-0.4-0.4-1.2-1-1.8-1.4L352.8,124.9z"/>
		</g>
	</g>
	<g class="st3">
		<path class="st0" d="M140.4,74.2c0,2-1.1,3-3.2,3H137l-0.2,1.7c-0.5,0-0.8-0.1-0.8-0.1l0.2-1.7l-2.1-0.3l0.1-0.9
			c0.8,0.1,1.5,0.2,2.1,0.2l0.5-3.8c-1-0.2-1.7-0.5-2.2-0.9s-0.7-1-0.7-1.9c0-1.8,1.1-2.7,3.2-2.7c0.2,0,0.3,0,0.3,0l0.3-1.9h0.8
			l-0.3,2l1.9,0.2L140,68c-0.7-0.1-1.3-0.1-1.9-0.2l-0.5,3.5c1,0.2,1.7,0.5,2.1,0.9C140.2,72.8,140.4,73.4,140.4,74.2z M135.1,69.6
			c0,0.5,0.1,0.9,0.4,1.2c0.3,0.2,0.8,0.4,1.5,0.6l0.4-3.4h-0.1C135.9,68,135.1,68.5,135.1,69.6z M139.3,74.2c0-0.5-0.1-0.8-0.4-1.1
			c-0.2-0.2-0.7-0.4-1.3-0.6l-0.5,3.6l0,0C138.6,76.2,139.3,75.6,139.3,74.2z"/>
		<path class="st0" d="M147.2,67.2v9.9H146v-8.6l-2.6,1.7l-0.5-0.9l3.1-2.1H147.2z"/>
		<path class="st0" d="M155.6,67.2v9.9h-1.2v-8.6l-2.6,1.7l-0.5-0.9l3.1-2.1H155.6z"/>
		<path class="st0" d="M158.7,78.9l0.7-3.5h1.2l-1,3.5H158.7z"/>
		<path class="st0" d="M163.1,67.6c0.6-0.4,1.5-0.7,2.6-0.7s2,0.2,2.6,0.7c0.6,0.4,1,1.1,1,1.9c0,0.6-0.1,1.1-0.4,1.4
			s-0.7,0.6-1.3,0.9c0.6,0.3,1,0.6,1.4,1c0.3,0.4,0.4,0.9,0.4,1.5c0,1.9-1.2,2.8-3.7,2.8s-3.7-0.9-3.7-2.7c0-0.7,0.1-1.2,0.4-1.6
			c0.3-0.4,0.7-0.7,1.3-1c-0.5-0.3-0.9-0.6-1.2-0.9c-0.2-0.3-0.4-0.8-0.4-1.4C162.2,68.7,162.5,68.1,163.1,67.6z M163.3,74.3
			c0,1.2,0.8,1.8,2.5,1.8s2.5-0.6,2.5-1.9c0-0.5-0.1-0.9-0.4-1.2s-0.7-0.5-1.3-0.6H165c-0.6,0.2-1,0.4-1.2,0.7
			C163.4,73.4,163.3,73.8,163.3,74.3z M168.1,69.7c0-1.1-0.8-1.7-2.3-1.7c-1.6,0-2.3,0.5-2.3,1.6c0,0.4,0.1,0.8,0.4,1.1
			c0.2,0.3,0.6,0.5,1.1,0.7h1.6c0.5-0.2,0.9-0.4,1.2-0.7C167.9,70.5,168.1,70.2,168.1,69.7z"/>
		<path class="st0" d="M174.1,67c0.8,0,1.5,0.2,2,0.5c1.1,0.6,1.6,2.2,1.6,4.8c0,1.8-0.3,3.1-0.9,3.8c-0.6,0.7-1.5,1.1-2.7,1.1
			s-2.1-0.4-2.7-1.1c-0.6-0.7-0.9-2-0.9-3.9s0.3-3.2,0.9-4C172,67.4,172.9,67,174.1,67z M174.1,68c-0.6,0-1,0.1-1.4,0.4
			c-0.7,0.5-1.1,1.8-1.1,3.9c0,1.5,0.2,2.5,0.6,3.1c0.4,0.6,1,0.8,1.8,0.8s1.4-0.3,1.8-0.9c0.4-0.6,0.6-1.6,0.6-3.2
			s-0.2-2.6-0.6-3.2C175.6,68.3,175,68,174.1,68z"/>
		<path class="st0" d="M182.5,67c0.8,0,1.5,0.2,2,0.5c1.1,0.6,1.6,2.2,1.6,4.8c0,1.8-0.3,3.1-0.9,3.8c-0.6,0.7-1.5,1.1-2.7,1.1
			s-2.1-0.4-2.7-1.1c-0.6-0.7-0.9-2-0.9-3.9s0.3-3.2,0.9-4C180.4,67.4,181.3,67,182.5,67z M182.5,68c-0.6,0-1,0.1-1.4,0.4
			c-0.7,0.5-1.1,1.8-1.1,3.9c0,1.5,0.2,2.5,0.6,3.1c0.4,0.6,1,0.8,1.8,0.8s1.4-0.3,1.8-0.9c0.4-0.6,0.6-1.6,0.6-3.2
			s-0.2-2.6-0.6-3.2C184,68.3,183.4,68,182.5,68z"/>
		<path class="st0" d="M187.3,78.9l0.7-3.5h1.2l-1,3.5H187.3z"/>
		<path class="st0" d="M194.3,67c0.8,0,1.5,0.2,2,0.5c1.1,0.6,1.6,2.2,1.6,4.8c0,1.8-0.3,3.1-0.9,3.8c-0.6,0.7-1.5,1.1-2.7,1.1
			s-2.1-0.4-2.7-1.1c-0.6-0.7-0.9-2-0.9-3.9s0.3-3.2,0.9-4C192.2,67.4,193.1,67,194.3,67z M194.3,68c-0.6,0-1,0.1-1.4,0.4
			c-0.7,0.5-1.1,1.8-1.1,3.9c0,1.5,0.2,2.5,0.6,3.1c0.4,0.6,1,0.8,1.8,0.8s1.4-0.3,1.8-0.9c0.4-0.6,0.6-1.6,0.6-3.2
			s-0.2-2.6-0.6-3.2C195.8,68.3,195.1,68,194.3,68z"/>
		<path class="st0" d="M202.7,67c0.8,0,1.5,0.2,2,0.5c1.1,0.6,1.6,2.2,1.6,4.8c0,1.8-0.3,3.1-0.9,3.8c-0.6,0.7-1.5,1.1-2.7,1.1
			s-2.1-0.4-2.7-1.1c-0.6-0.7-0.9-2-0.9-3.9s0.3-3.2,0.9-4S201.5,67,202.7,67z M202.7,68c-0.6,0-1,0.1-1.3,0.4
			c-0.7,0.5-1.1,1.8-1.1,3.9c0,1.5,0.2,2.5,0.6,3.1c0.4,0.6,1,0.8,1.8,0.8s1.4-0.3,1.8-0.9c0.4-0.6,0.6-1.6,0.6-3.2
			s-0.2-2.6-0.6-3.2C204.2,68.3,203.5,68,202.7,68z"/>
		<path class="st0" d="M211.1,67c0.8,0,1.5,0.2,2,0.5c1.1,0.6,1.6,2.2,1.6,4.8c0,1.8-0.3,3.1-0.9,3.8c-0.6,0.7-1.5,1.1-2.7,1.1
			s-2.1-0.4-2.7-1.1c-0.6-0.7-0.9-2-0.9-3.9s0.3-3.2,0.9-4S209.9,67,211.1,67z M211.1,68c-0.6,0-1,0.1-1.3,0.4
			c-0.7,0.5-1.1,1.8-1.1,3.9c0,1.5,0.2,2.5,0.6,3.1c0.4,0.6,1,0.8,1.8,0.8s1.4-0.3,1.8-0.9c0.4-0.6,0.6-1.6,0.6-3.2
			s-0.2-2.6-0.6-3.2C212.6,68.3,212,68,211.1,68z"/>
	</g>
	<g class="st3">
		<path class="st0" d="M243,122.2c0,2-1.1,3-3.2,3h-0.2l-0.2,1.7c-0.5,0-0.8-0.1-0.8-0.1l0.2-1.7l-2.1-0.3l0.1-0.9
			c0.8,0.1,1.5,0.2,2.1,0.2l0.5-3.8c-1-0.2-1.7-0.5-2.2-0.9c-0.4-0.4-0.7-1-0.7-1.9c0-1.8,1.1-2.7,3.2-2.7c0.2,0,0.3,0,0.3,0
			l0.3-1.9h0.8l-0.3,2l1.9,0.2l-0.1,0.9c-0.7-0.1-1.3-0.1-1.9-0.2l-0.5,3.5c1,0.2,1.7,0.5,2.1,0.9C242.8,120.8,243,121.4,243,122.2z
			 M237.8,117.6c0,0.5,0.1,0.9,0.4,1.2c0.3,0.2,0.8,0.4,1.5,0.6l0.4-3.4h-0.2C238.5,116,237.8,116.5,237.8,117.6z M241.9,122.2
			c0-0.5-0.1-0.8-0.4-1.1c-0.2-0.2-0.7-0.4-1.3-0.6l-0.5,3.6l0,0C241.2,124.2,241.9,123.6,241.9,122.2z"/>
		<path class="st0" d="M249.4,125.1v-1.9h-4.8v-0.9l2.8-7.1h1.3l-2.9,6.9h3.6V119h1.2v3.1h1.3v1h-1.3v1.9L249.4,125.1L249.4,125.1z"
			/>
		<path class="st0" d="M252.9,126.9l0.7-3.5h1.2l-1,3.5H252.9z"/>
		<path class="st0" d="M262.9,115.2v1.1h-4.8l-0.3,3.2c0.8-0.4,1.5-0.6,2.3-0.6c2.1,0,3.2,1,3.2,2.9c0,1.1-0.3,2-0.9,2.6
			s-1.4,0.9-2.4,0.9c-0.8,0-1.8-0.1-2.8-0.3l-0.5-0.1l0.1-0.9c1.1,0.2,2.1,0.3,2.9,0.3s1.4-0.2,1.8-0.6s0.6-1,0.6-1.7
			s-0.2-1.2-0.5-1.6c-0.4-0.3-0.9-0.5-1.6-0.5c-0.4,0-0.7,0-1.1,0.2c-0.4,0.1-0.7,0.2-0.9,0.3l-0.3,0.1l-0.8-0.1l0.3-5.1h5.7
			L262.9,115.2L262.9,115.2z"/>
		<path class="st0" d="M271.5,125.1h-6.3v-1l2.9-3c0.5-0.5,0.9-0.9,1.1-1.2c0.2-0.3,0.4-0.6,0.6-1s0.3-0.7,0.3-1.1
			c0-0.6-0.2-1.1-0.5-1.3c-0.4-0.3-0.9-0.4-1.6-0.4s-1.4,0.1-2.2,0.3l-0.4,0.1l-0.1-1c1-0.3,1.9-0.4,2.9-0.4s1.8,0.2,2.3,0.6
			s0.8,1.1,0.8,2c0,0.7-0.2,1.3-0.5,1.8s-0.8,1.1-1.6,1.9l-2.6,2.7h5L271.5,125.1L271.5,125.1z"/>
		<path class="st0" d="M278,125.1v-1.9h-4.8v-0.9l2.8-7.1h1.3l-2.9,6.9h3.6V119h1.2v3.1h1.3v1h-1.3v1.9L278,125.1L278,125.1z"/>
		<path class="st0" d="M281.5,126.9l0.7-3.5h1.2l-1,3.5H281.5z"/>
		<path class="st0" d="M290.2,115.2v9.9H289v-8.6l-2.6,1.7l-0.5-0.9l3.1-2.1H290.2z"/>
		<path class="st0" d="M299.9,115.2v1.1h-4.8l-0.3,3.2c0.8-0.4,1.5-0.6,2.3-0.6c2.1,0,3.2,1,3.2,2.9c0,1.1-0.3,2-0.9,2.6
			s-1.4,0.9-2.4,0.9c-0.8,0-1.8-0.1-2.8-0.3l-0.5-0.1l0.1-0.9c1.1,0.2,2.1,0.3,2.9,0.3s1.4-0.2,1.8-0.6s0.6-1,0.6-1.7
			s-0.2-1.2-0.5-1.6c-0.4-0.3-0.9-0.5-1.6-0.5c-0.4,0-0.7,0-1.1,0.2c-0.4,0.1-0.7,0.2-0.9,0.3l-0.3,0.1l-0.8-0.1l0.3-5.1h5.7
			L299.9,115.2L299.9,115.2z"/>
		<path class="st0" d="M308.5,125.1h-6.3v-1l2.9-3c0.5-0.5,0.9-0.9,1.1-1.2c0.2-0.3,0.4-0.6,0.6-1s0.3-0.7,0.3-1.1
			c0-0.6-0.2-1.1-0.5-1.3c-0.4-0.3-0.9-0.4-1.6-0.4s-1.4,0.1-2.2,0.3l-0.4,0.1l-0.1-1c1-0.3,1.9-0.4,2.9-0.4s1.8,0.2,2.3,0.6
			s0.8,1.1,0.8,2c0,0.7-0.2,1.3-0.5,1.8s-0.8,1.1-1.6,1.9l-2.6,2.7h5L308.5,125.1L308.5,125.1z"/>
	</g>
</g>
<g class="st3">
	<path class="st0" d="M160.9,138.7c0.5,0.5,1.2,1,1.8,1.2c-0.2,0.2-0.5,0.5-0.6,0.7c-0.8-0.4-1.7-1.2-2.2-2h-2.4
		c-0.6,0.8-1.7,1.5-2.6,1.9c-0.1-0.2-0.3-0.4-0.5-0.6v1h-2.2v1h-1v-9.6h3.2v7.4c0.7-0.2,1.4-0.7,2-1.1h-1.6v-0.9h1.9v-0.8h-1.5V136
		h1.5v-0.7h-1.2V132h6.4v3.5h-1.1v0.7h1.5v0.9h-1.5v0.8h1.8v0.9L160.9,138.7L160.9,138.7z M152.1,133.5v2.7h1.2v-2.7H152.1z
		 M153.3,140v-2.7h-1.2v2.7H153.3z M161.2,140.3c-0.3,0.4-0.7,0.7-1.1,1.1c0.8,0.3,1.5,0.7,2,1l-0.6,0.8c-0.6-0.4-1.5-0.8-2.4-1.2
		v0.7c0,0.5-0.1,0.7-0.4,0.9c-0.4,0.1-0.9,0.2-1.6,0.2c0-0.3-0.2-0.6-0.3-0.9c0.5,0,1,0,1.1,0c0.2,0,0.2-0.1,0.2-0.2V142
		c-1.1,0.5-2.2,1-3.1,1.3l-0.4-0.9c0.9-0.3,2.2-0.8,3.5-1.3v-1.8h1.1v1.9l0.3,0.1c0.3-0.3,0.8-0.8,1-1.2L161.2,140.3z M156.9,141.3
		c-0.2-0.3-0.5-0.7-0.9-1l0.7-0.5c0.3,0.3,0.7,0.7,0.9,1L156.9,141.3z M156.4,133.4h4.2v-0.6h-4.2V133.4z M156.4,134.8h4.2v-0.6
		h-4.2V134.8z M157.6,136.2h2v-0.7h-2V136.2z M157.6,137.9h2v-0.8h-2V137.9z"/>
	<path class="st0" d="M167.9,132.5c-0.3,1.1-0.7,2.4-1.1,3.4c0.8,1,1,2,1,2.7c0,0.8-0.2,1.3-0.5,1.6c-0.2,0.1-0.4,0.2-0.7,0.3
		c-0.2,0-0.5,0-0.8,0c0-0.3-0.1-0.8-0.3-1c0.2,0,0.4,0,0.6,0c0.1,0,0.2,0,0.3-0.1c0.2-0.1,0.2-0.5,0.2-0.8c0-0.7-0.2-1.5-0.9-2.5
		c0.3-0.9,0.6-2,0.8-2.8h-1.3v10.3h-1v-11.4h2.7h0.2L167.9,132.5z M170.3,139.8c-0.1,0.3-0.2,0.6-0.3,0.9c0.5,0.3,1.1,0.7,1.4,1
		l-0.6,0.8c-0.2-0.3-0.7-0.7-1.2-1c-0.5,0.8-1.2,1.5-1.9,2c-0.2-0.2-0.6-0.6-0.8-0.8c1.2-0.7,2-1.8,2.4-3.1L170.3,139.8z
		 M169.6,134.7c-0.4,0.3-0.9,0.6-1.3,0.9c-0.2-0.2-0.5-0.6-0.8-0.8c1.5-0.8,2.9-2.1,3.7-3.2l1.2,0.4c-0.1,0.1-0.2,0.3-0.3,0.4
		c0.9,0.8,2.5,1.7,3.8,2.1c-0.2,0.3-0.4,0.8-0.5,1.1c-0.6-0.3-1.2-0.6-1.9-1v0.9h-3.8L169.6,134.7L169.6,134.7z M168.1,136.2h3v3.2
		h-3V136.2z M169.1,138.6h1.1v-1.5h-1.1V138.6z M173.3,134.5c-0.7-0.4-1.4-0.9-1.9-1.4c-0.5,0.5-1,1-1.5,1.4H173.3z M173.9,139.8
		c-0.1,0.4-0.2,0.8-0.3,1.1c0.8,0.5,1.7,1.2,2.1,1.6l-0.7,0.8c-0.4-0.4-1.1-1-1.8-1.5c-0.4,0.7-0.9,1.3-1.5,1.7
		c-0.1-0.2-0.5-0.6-0.8-0.8c1-0.7,1.7-1.8,2-3.1L173.9,139.8z M171.9,136.2h3.1v3.2h-3.1V136.2z M172.8,138.6h1.2v-1.5h-1.2V138.6z"
		/>
	<path class="st0" d="M182.6,140.7c0,0.4,0.1,0.9,0.1,1.1c-3.7,1-4.2,1.1-4.6,1.4c-0.1-0.3-0.4-0.8-0.6-1c0.2-0.2,0.6-0.5,0.6-1.1
		v-9.5h1.2v3.9h3.1v1.2h-3.1v4.8L182.6,140.7z M187.1,142.1c0.6,0,0.6-0.5,0.7-2.3c0.3,0.2,0.8,0.5,1.1,0.5
		c-0.2,2.1-0.5,2.9-1.8,2.9h-2c-1.4,0-1.7-0.4-1.7-2v-9.6h1.2v3.9h3.4v1.2h-3.4v4.6c0,0.7,0.1,0.8,0.6,0.8L187.1,142.1L187.1,142.1z
		"/>
	<path class="st0" d="M193.2,131.9c-0.2,0.8-0.5,1.6-0.8,2.4v9.2h-1.1v-6.9c-0.2,0.4-0.5,0.8-0.8,1.1c-0.1-0.3-0.4-1-0.6-1.3
		c0.9-1.2,1.7-3,2.2-4.9L193.2,131.9z M197,135.1l0.7,0.2c-0.4,4.3-1.8,6.9-4,8.2c-0.1-0.3-0.5-0.7-0.7-0.9c1-0.5,1.9-1.4,2.5-2.7
		c-0.4-0.4-1-1-1.6-1.4c-0.2,0.3-0.3,0.5-0.5,0.8c-0.1-0.2-0.4-0.8-0.7-1c0.9-1.1,1.4-2.9,1.7-4.8h-1.1v-1.1h4.3v1.1h-2.1
		c-0.1,0.6-0.2,1.2-0.3,1.7h1.7L197,135.1z M194.9,136.2c-0.1,0.4-0.3,0.8-0.5,1.2c0.5,0.4,1.1,0.9,1.5,1.3c0.3-0.8,0.5-1.6,0.6-2.5
		H194.9z M201.5,131.7V142c0,0.8-0.2,1.1-0.6,1.3c-0.4,0.2-1.2,0.2-2.3,0.2c-0.1-0.3-0.2-0.9-0.4-1.2c0.8,0,1.6,0,1.9,0
		c0.2,0,0.3-0.1,0.3-0.3v-10.3H201.5z M199.3,140.3h-1V133h1V140.3z"/>
</g>
<g class="st3">
	<path class="st0" d="M207.7,133.9v8.6h-1V135l-2.2,1.5l-0.5-0.8l2.7-1.8H207.7z"/>
	<path class="st0" d="M213.7,133.8c0.7,0,1.3,0.1,1.7,0.4c0.9,0.6,1.4,1.9,1.4,4.2c0,1.6-0.3,2.7-0.8,3.3s-1.3,1-2.3,1
		s-1.8-0.3-2.3-1c-0.5-0.6-0.8-1.8-0.8-3.4s0.3-2.8,0.8-3.5C211.8,134.1,212.6,133.8,213.7,133.8z M213.7,134.7
		c-0.5,0-0.9,0.1-1.2,0.3c-0.6,0.4-0.9,1.5-0.9,3.4c0,1.3,0.2,2.2,0.5,2.7s0.9,0.7,1.6,0.7c0.7,0,1.2-0.2,1.6-0.7s0.5-1.4,0.5-2.7
		s-0.2-2.3-0.5-2.8C215,134.9,214.4,134.7,213.7,134.7z"/>
	<path class="st0" d="M219.2,133.8c1,0,1.4,0.6,1.4,1.8c0,0.6-0.1,1.1-0.4,1.4c-0.3,0.3-0.6,0.5-1.1,0.5s-0.8-0.2-1.1-0.5
		s-0.4-0.8-0.4-1.4C217.8,134.4,218.3,133.8,219.2,133.8z M218.6,135.6c0,0.8,0.2,1.2,0.6,1.2c0.4,0,0.6-0.4,0.6-1.2
		c0-0.4,0-0.7-0.1-0.9s-0.3-0.3-0.5-0.3s-0.4,0.1-0.5,0.3C218.6,134.9,218.6,135.2,218.6,135.6z M219.4,142.5l2.7-8.9l0.6,0.2
		l-2.7,8.9L219.4,142.5z M221.5,140.8c0-1.2,0.5-1.8,1.4-1.8s1.4,0.6,1.4,1.8c0,0.6-0.1,1.1-0.4,1.4c-0.3,0.3-0.6,0.5-1.1,0.5
		s-0.8-0.2-1-0.5S221.5,141.4,221.5,140.8z M222.3,140.8c0,0.8,0.2,1.2,0.6,1.2c0.2,0,0.4-0.1,0.5-0.3s0.1-0.5,0.1-0.9
		s0-0.7-0.1-0.9s-0.3-0.3-0.5-0.3s-0.4,0.1-0.5,0.3S222.3,140.4,222.3,140.8z"/>
</g>
</svg>
