<?xml version="1.0" encoding="utf-8"?>
<!-- Generator: Adobe Illustrator 22.1.0, SVG Export Plug-In . SVG Version: 6.00 Build 0)  -->
<svg version="1.1" id="圖層_1" xmlns="http://www.w3.org/2000/svg" xmlns:xlink="http://www.w3.org/1999/xlink" x="0px" y="0px"
	 viewBox="0 0 37 34" style="enable-background:new 0 0 37 34;" xml:space="preserve">
<style type="text/css">
	.st0{fill:#FFFFFF;}
</style>
<g>
	<g>
		<path class="st0" d="M11.5,33.1H4.8c-0.6,0-0.6,0.9,0,0.9h6.6C12,34,12,33.1,11.5,33.1z M36.1,0H0.9C0.4,0,0,0.4,0,0.9v24.4
			c0,0.5,0.4,0.9,0.9,0.9h35.2c0.5,0,0.9-0.4,0.9-0.9V0.9C37,0.4,36.6,0,36.1,0z M7.5,23.1c-1.5,0-2.6-1.2-2.6-2.6
			c0-1.4,1.2-2.6,2.6-2.6s2.6,1.2,2.6,2.6C10.1,21.9,8.9,23.1,7.5,23.1z M7.5,15.7c-1.5,0-2.6-1.2-2.6-2.6c0-1.4,1.2-2.6,2.6-2.6
			s2.6,1.2,2.6,2.6C10.1,14.5,8.9,15.7,7.5,15.7z M12.6,3.1L7.7,8C7.5,8.2,7.2,8.2,7,8L4.5,5.6C4.4,5.4,4.4,5.1,4.5,5l0.6-0.6
			c0.2-0.2,0.5-0.2,0.6,0L7,5.6c0.2,0.2,0.5,0.2,0.6,0l3.7-3.7c0.2-0.2,0.5-0.2,0.6,0l0.6,0.6C12.8,2.7,12.8,2.9,12.6,3.1z
			 M35.2,20.9c0,0.2-0.2,0.4-0.4,0.4H15c-0.2,0-0.4-0.2-0.4-0.4v-0.9c0-0.2,0.2-0.4,0.4-0.4h19.8c0.2,0,0.4,0.2,0.4,0.4V20.9z
			 M35.2,13.5c0,0.2-0.2,0.4-0.4,0.4H15c-0.2,0-0.4-0.2-0.4-0.4v-0.9c0-0.2,0.2-0.4,0.4-0.4h19.8c0.2,0,0.4,0.2,0.4,0.4V13.5z
			 M35.2,6.1c0,0.2-0.2,0.4-0.4,0.4H15c-0.2,0-0.4-0.2-0.4-0.4V5.2c0-0.2,0.2-0.4,0.4-0.4h19.8c0.2,0,0.4,0.2,0.4,0.4V6.1z M34,30.3
			l-3-1.5c-0.1,0-0.1,0-0.2,0h-1.4c-0.1,0-0.2,0.1-0.2,0.2V32c0,0.1,0.1,0.2,0.2,0.2h1.4c0.1,0,0.1,0,0.2,0l3-1.5
			C34.1,30.6,34.1,30.4,34,30.3z M7,32V29c0-0.1-0.1-0.2-0.2-0.2H4.5c-0.9,0-1.7,0.7-1.8,1.6c-0.1,1,0.7,1.9,1.8,1.9h2.4
			C6.9,32.3,7,32.2,7,32z M27.1,28.8H9c-0.1,0-0.2,0.1-0.2,0.2V32c0,0.1,0.1,0.2,0.2,0.2h18.1c0.1,0,0.2-0.1,0.2-0.2V29
			C27.3,28.9,27.2,28.8,27.1,28.8z"/>
	</g>
</g>
</svg>
