<svg id="圖層_2" data-name="圖層 2" xmlns="http://www.w3.org/2000/svg" viewBox="0 0 33 33"><defs><style>.cls-1{fill:#fff;}</style></defs><title>icons</title><polygon class="cls-1" points="33 23.26 32.96 22.53 0.04 22.53 0.04 23.14 18.72 23.22 18.72 23.22 18.72 23.22 20.53 23.22 20.53 23.22 33 23.26"/><path class="cls-1" d="M0,21.63H33L32.8.87C26.75,1.15,2.5,2.48.08,2.6Z"/><path class="cls-1" d="M17.87,25.76a1.8,1.8,0,0,1-.08-.73c0-.68.08-1,.08-1.2h-.32c0,.45-.08,1.36-.08,1.69C17.47,25.68,17.79,25.76,17.87,25.76Z"/><path class="cls-1" d="M19.81,31l-4.24-.08a.21.21,0,0,1-.16-.08.24.24,0,0,1,0-.16v0c-.44,0-1.49,0-2.5.08s-3.91.61-4.8.85a1.78,1.78,0,0,0,.48.24c.37,0,11.82.32,12.55.32.56,0,3.87-.56,4.07-.6a2.54,2.54,0,0,0,.45-.49,0,0,0,0,0,0,0l-5.25-.2s-.08.08-.12.08l-.44.12Z"/><path class="cls-1" d="M18.44,25.52c0-.12,0-.8.08-1.65h-.24a9.6,9.6,0,0,0-.09,1.2,1.13,1.13,0,0,0,0,.61C18.36,25.6,18.44,25.48,18.44,25.52Z"/><path class="cls-1" d="M18.36,26.08a0,0,0,0,1,0,0h0a1.57,1.57,0,0,1-.45.08h0c-.28,0-.81-.2-.81-.68,0-.33.09-1.24.09-1.69h-1l-.33,6.65,4,.12.28-.08.28-6.69H18.92a12.24,12.24,0,0,1-.08,1.73A1,1,0,0,1,18.36,26.08Z"/></svg>