<?xml version="1.0" encoding="utf-8"?>
<!-- Generator: Adobe Illustrator 23.0.6, SVG Export Plug-In . SVG Version: 6.00 Build 0)  -->
<svg version="1.1" id="圖層_1" xmlns="http://www.w3.org/2000/svg" xmlns:xlink="http://www.w3.org/1999/xlink" x="0px" y="0px"
	 viewBox="0 0 33 33" style="enable-background:new 0 0 33 33;" xml:space="preserve">
<style type="text/css">
	.st0{fill-rule:evenodd;clip-rule:evenodd;fill:#FFFFFF;}
	.st1{fill:#FFFFFF;}
</style>
<title>icons</title>
<path class="st0" d="M12.4,0c0.9,0.2,1.8,0.5,2.5,0.9c-0.5,0.7-0.2,1.8,0.5,2.4C16,3.9,17,3.8,17.7,3.2c0.5,0.7,0.9,1.5,1.3,2.4
	c-0.8,0.4-1.4,1.2-1.2,2c0.1,0.9,0.9,1.5,1.8,1.5c0,0.9-0.1,1.9-0.4,2.7c-0.9-0.4-1.9,0-2.4,0.7c-0.4,0.8-0.2,1.8,0.5,2.4
	c-0.6,0.7-1.3,1.3-2,1.8c-0.5-0.8-1.4-1.2-2.2-0.9c-0.8,0.4-1.3,1.3-1.2,2.1C11.5,18,11.1,18,10.6,18s-0.9,0-1.4-0.1
	C9.5,17,9,16.1,8.2,15.7c-0.9-0.2-1.9,0.1-2.2,0.9c-0.8-0.5-1.5-1.1-2.1-1.8c0.7-0.6,0.9-1.5,0.5-2.4c-0.5-0.7-1.4-1.1-2.2-0.7
	C1.8,11,1.5,10.1,1.5,9.1c0.9,0,1.7-0.6,1.9-1.5c0.1-0.8-0.5-1.7-1.3-2C2.5,4.7,3,3.9,3.5,3.2c0.6,0.6,1.7,0.7,2.4,0.1
	s0.8-1.7,0.4-2.4C7.1,0.5,7.9,0.2,8.8,0C9,0.9,9.7,1.5,10.6,1.5C11.5,1.5,12.3,0.9,12.4,0z M10.6,3.8c2.8,0,5.1,2.2,5.1,5.1
	S13.5,14,10.6,14s-5.1-2.2-5.1-5.1S7.8,3.8,10.6,3.8z"/>
<path class="st0" d="M25.5,9.3c0.7,0.2,1.4,0.5,2,0.8c-0.4,0.6-0.2,1.4,0.4,1.9c0.6,0.5,1.4,0.5,1.9,0c0.5,0.6,0.8,1.2,1.2,1.9
	c-0.7,0.2-1.2,0.9-1.1,1.7c0.1,0.7,0.8,1.2,1.5,1.2c0,0.8-0.1,1.5-0.4,2.2c-0.7-0.4-1.5,0-1.9,0.6c-0.4,0.6-0.2,1.4,0.4,1.9
	c-0.5,0.6-1.1,1.1-1.7,1.4c-0.4-0.6-1.2-0.9-1.8-0.7c-0.7,0.2-1.2,0.9-0.9,1.8c-0.4,0-0.8,0-1.2,0s-0.7,0-1.1,0
	c0.1-0.8-0.2-1.5-0.9-1.8c-0.7-0.2-1.4,0.1-1.8,0.7c-0.7-0.4-1.2-0.8-1.7-1.4c0.5-0.5,0.7-1.3,0.4-1.9C18.5,19,17.7,18.7,17,19
	c-0.2-0.7-0.4-1.4-0.4-2.2c0.7,0,1.3-0.5,1.5-1.2c0.1-0.7-0.4-1.4-1.1-1.7c0.2-0.7,0.7-1.3,1.1-1.9c0.6,0.5,1.4,0.5,2,0
	s0.7-1.3,0.2-1.9c0.7-0.4,1.4-0.6,2.1-0.8c0.1,0.8,0.7,1.3,1.4,1.3C24.8,10.6,25.4,10.2,25.5,9.3z M24,12.5c2.4,0,4.1,1.8,4.1,4.1
	c0,2.2-1.8,4.1-4.1,4.1c-2.2,0-4.1-1.9-4.1-4.1C19.9,14.3,21.8,12.5,24,12.5z"/>
<path class="st1" d="M10.6,13.2c-2.3,0-4.2-1.9-4.2-4.2s1.9-4.2,4.2-4.2s4.2,1.9,4.2,4.2S13,13.2,10.6,13.2z M10.6,5.8
	C8.9,5.8,7.4,7.2,7.4,9s1.4,3.2,3.2,3.2c1.8,0,3.2-1.4,3.2-3.2S12.4,5.8,10.6,5.8z"/>
<path class="st1" d="M24,19.9c-1.8,0-3.2-1.5-3.2-3.2c0-1.8,1.5-3.2,3.2-3.2s3.2,1.5,3.2,3.2C27.3,18.5,25.8,19.9,24,19.9z M24,14.4
	c-1.2,0-2.2,1-2.2,2.2s1,2.2,2.2,2.2s2.2-1,2.2-2.2S25.2,14.4,24,14.4z"/>
<path class="st0" d="M16.9,20.3c0.6,0.2,1.2,0.5,1.8,0.8c-0.4,0.6-0.4,1.2,0.1,1.8c0.5,0.4,1.2,0.5,1.7,0.2c0.3,0.5,0.5,1.1,0.7,1.7
	c-0.6,0.2-1.1,0.7-1,1.4c0.1,0.6,0.7,1.1,1.3,1.1c-0.1,0.6-0.2,1.4-0.5,1.8c-0.6-0.3-1.2-0.1-1.7,0.5c-0.3,0.5-0.2,1.2,0.2,1.7
	c-0.5,0.5-1,0.8-1.6,1.1c-0.2-0.5-0.9-1-1.6-0.8c-0.5,0.2-1,0.8-0.9,1.4c-0.4,0.1-0.6,0.1-1,0c-0.4,0-0.6-0.1-1-0.2
	c0.2-0.6,0-1.3-0.6-1.6c-0.6-0.3-1.4,0-1.7,0.5c-0.5-0.4-0.9-0.8-1.4-1.4c0.5-0.3,0.7-1.1,0.5-1.6c-0.3-0.7-0.9-1-1.6-0.8
	c-0.2-0.5-0.3-1.3-0.2-1.9c0.6,0.1,1.3-0.3,1.5-0.9c0.2-0.7-0.1-1.3-0.7-1.6c0.3-0.6,0.6-1.1,1-1.5c0.5,0.4,1.2,0.5,1.7,0.2
	c0.5-0.5,0.7-1.1,0.4-1.7c0.6-0.2,1.3-0.4,1.9-0.5c0.1,0.6,0.5,1.2,1.1,1.2C16.2,21.3,16.8,20.9,16.9,20.3z M15.4,22.9
	c2,0.2,3.5,1.9,3.3,3.9c-0.2,2-1.9,3.5-3.9,3.3c-2-0.2-3.5-1.9-3.3-3.9S13.4,22.7,15.4,22.9z"/>
<path class="st1" d="M15.1,29.2c-0.1,0-0.2,0-0.3,0c-1.5-0.1-2.6-1.5-2.5-3c0.1-1.5,1.5-2.6,3-2.5c0.7,0.1,1.4,0.4,1.8,1
	c0.5,0.6,0.7,1.3,0.6,2c-0.1,0.7-0.4,1.4-1,1.8C16.3,29,15.7,29.2,15.1,29.2z M15.1,24.8c-0.9,0-1.6,0.7-1.7,1.6
	c0,0.5,0.1,0.9,0.4,1.3c0.3,0.4,0.7,0.6,1.2,0.6c0.9,0.1,1.8-0.6,1.9-1.6c0-0.5-0.1-0.9-0.4-1.3c-0.3-0.4-0.7-0.6-1.2-0.6
	C15.2,24.8,15.1,24.8,15.1,24.8z"/>
</svg>
