<svg id="圖層_2" data-name="圖層 2" xmlns="http://www.w3.org/2000/svg" viewBox="0 0 33 33"><defs><style>.cls-1{fill:#fff;}</style></defs><title>icons</title><rect class="cls-1" x="5.34" y="22.31" width="15.33" height="10.65"/><path class="cls-1" d="M5.34,0V20.92H20.67V0ZM9.13,3.08a.41.41,0,1,1,.81,0V5.41a.41.41,0,1,1-.81,0ZM7.44,5.58A2.15,2.15,0,0,1,9,3.56v.73A1.32,1.32,0,0,0,8.16,5.5,1.37,1.37,0,0,0,9.53,6.87,1.31,1.31,0,0,0,10.9,5.5a1.24,1.24,0,0,0-.8-1.21V3.56a2.15,2.15,0,0,1,1.61,2A2.14,2.14,0,0,1,9.62,7.67,2.1,2.1,0,0,1,7.44,5.58ZM17.52,18.51h-9a1.06,1.06,0,1,1,0-2.11h9a1.06,1.06,0,1,1,0,2.11Zm0-3.44h-9A1.06,1.06,0,1,1,8.5,13h9a1.06,1.06,0,1,1,0,2.11Z"/><path class="cls-1" d="M27.62,14.71V2.23L22.07.11V20.86C22.86,18.67,24.52,15.8,27.62,14.71Z"/><path class="cls-1" d="M22.07,23V33l5.59-1.66V16.08C24.22,17.33,22.71,20.8,22.07,23Z"/></svg>