<svg id="圖層_2" data-name="圖層 2" xmlns="http://www.w3.org/2000/svg" viewBox="0 0 33 33"><defs><style>.cls-1{fill:#fff;}</style></defs><title>icons</title><path class="cls-1" d="M14.47,17.36l.86-.86-.86-.86a2.26,2.26,0,0,0,0,1.72Z"/><path class="cls-1" d="M15.64,14.47l.86.86.86-.86A2.23,2.23,0,0,0,15.64,14.47Z"/><path class="cls-1" d="M15.64,18.53a2.23,2.23,0,0,0,1.72,0l-.86-.86Z"/><path class="cls-1" d="M17.67,16.5l.86.86a2.26,2.26,0,0,0,0-1.72Z"/><path class="cls-1" d="M21.21,10.63,22.89,9A9.86,9.86,0,0,0,10.11,9l1.68,1.68A7.49,7.49,0,0,1,21.21,10.63Z"/><path class="cls-1" d="M11.81,20l1.45-1.45a3.85,3.85,0,0,1,0-4.15L11.81,13A5.81,5.81,0,0,0,11.81,20Z"/><path class="cls-1" d="M13,11.81l1.45,1.45a3.85,3.85,0,0,1,4.15,0L20,11.81A5.81,5.81,0,0,0,13,11.81Z"/><path class="cls-1" d="M10.63,11.79,9,10.1A9.86,9.86,0,0,0,9,22.89l1.68-1.68A7.49,7.49,0,0,1,10.63,11.79Z"/><path class="cls-1" d="M24.05,10.11l-1.68,1.68a7.49,7.49,0,0,1,0,9.42l1.68,1.68a9.86,9.86,0,0,0,0-12.78Z"/><path class="cls-1" d="M20,21.19l-1.45-1.45a3.85,3.85,0,0,1-4.15,0L13,21.19A5.81,5.81,0,0,0,20,21.19Z"/><path class="cls-1" d="M21.19,13l-1.45,1.45a3.85,3.85,0,0,1,0,4.15L21.19,20A5.81,5.81,0,0,0,21.19,13Z"/><path class="cls-1" d="M11.79,22.37l-1.68,1.68a9.86,9.86,0,0,0,12.78,0l-1.68-1.68A7.49,7.49,0,0,1,11.79,22.37Z"/><path class="cls-1" d="M30.56,2.44H2.44V30.56H30.56ZM4.12,29.7A.83.83,0,1,1,5,28.88.82.82,0,0,1,4.12,29.7ZM4.12,5A.83.83,0,1,1,5,4.12.83.83,0,0,1,4.12,5ZM26.57,25.41l-1.16,1.16-1.35-1.34a11.54,11.54,0,0,1-15.12,0L7.59,26.57,6.43,25.41l1.34-1.35a11.54,11.54,0,0,1,0-15.12L6.43,7.59,7.59,6.43,8.94,7.77a11.54,11.54,0,0,1,15.12,0l1.35-1.34,1.16,1.16L25.23,8.94a11.54,11.54,0,0,1,0,15.12Zm2.31,4.29a.83.83,0,1,1,.82-.82A.83.83,0,0,1,28.88,29.7ZM28.88,5a.83.83,0,1,1,.82-.83A.83.83,0,0,1,28.88,5Z"/><path class="cls-1" d="M0,0V33H33V0ZM31.56,31.56H1.44V1.44H31.56Z"/></svg>