<svg id="圖層_2" data-name="圖層 2" xmlns="http://www.w3.org/2000/svg" viewBox="0 0 33 33"><defs><style>.cls-1{fill:#fff;}</style></defs><title>icons</title><rect class="cls-1" x="28.93" y="11.88" width="0.96" height="2.04"/><rect class="cls-1" x="28.93" y="14.34" width="0.96" height="1.91"/><path class="cls-1" d="M28.76,16.43l-2.7,2.21v.77c0,2,.89,4.52,3.4,4.52s3.3-2.56,3.3-4.52v-.77l-2.7-2.21Z"/><path class="cls-1" d="M32.62,12.69l-2.25-1.11v4l2.39,2.94L33,13.3A.68.68,0,0,0,32.62,12.69Z"/><path class="cls-1" d="M28.45,15.61v-4L26.2,12.68a.71.71,0,0,0-.38.62l.24,5.26Z"/><path class="cls-1" d="M29.41,11.56s-.05-.94.44-1.21c.33-.19.87,0,1.56.44.51.36.87.46,1.1.29.38-.28.1-1.21.07-1.32l-.23.07c.09.29.21.91,0,1.06,0,0-.25.1-.82-.29-.78-.54-1.39-.7-1.81-.46-.62.35-.56,1.39-.56,1.44Z"/><path class="cls-1" d="M21.66,15.5V12.13a1.32,1.32,0,1,0-2.64,0v3.4a1.31,1.31,0,0,0,1.32,1.31A1.33,1.33,0,0,0,21.66,15.5Z"/><path class="cls-1" d="M12.2,10.79a1.33,1.33,0,0,0-1.31,1.32V15.5a1.31,1.31,0,0,0,1.31,1.32,1.33,1.33,0,0,0,1.32-1.32V12.13A1.34,1.34,0,0,0,12.2,10.79Z"/><path class="cls-1" d="M23.26,12.42v-2a7,7,0,0,0-14,0v2a1.79,1.79,0,0,0,1.1,3.18V12a1.1,1.1,0,0,0-.27,0v-.31a6.15,6.15,0,0,1,12.3,0V12a1.1,1.1,0,0,0-.26,0v3.42s0,0,0,0,.1-.09.15-.12l.36-.74a.54.54,0,0,1-.08-.6.56.56,0,0,1,.72-.26.52.52,0,0,1,.24.72.47.47,0,0,1-.48.33l-.38.79a1.78,1.78,0,0,0,.55-3.08Z"/><path class="cls-1" d="M22.16,15.43c-1,2-3.81,2.61-4.38,2.71a.79.79,0,0,0-.6-.24c-.4,0-.72.21-.72.5s.32.5.72.5a.74.74,0,0,0,.62-.26c.48-.07,3.69-.67,4.84-3v0l0,0,.05-.1a2,2,0,0,1-.55.1Z"/><path class="cls-1" d="M17.45,17.45a1.33,1.33,0,0,1,.46.17c.17,0,.41-.09.69-.17Z"/><path class="cls-1" d="M29.46,24.93a4.32,4.32,0,0,1-.74-.07v1.08a.11.11,0,0,1-.12.12H25a.11.11,0,0,1-.12-.12V24.75a.12.12,0,0,1,.12-.12H27.9a3.92,3.92,0,0,1-.82-.48H26a.11.11,0,0,1-.11-.12v-1.2a.12.12,0,0,1,0-.09,4,4,0,0,1-.24-.51h-.15a.11.11,0,0,1-.12-.12v-.62c0-.12-.08-.23-.11-.35l-.08.1,0-.69c0-.08,0-.15,0-.23h-.6a.12.12,0,0,1-.12-.12V19a.12.12,0,0,1,.12-.12h.53v-.29l0-1.14h-2.5A7.51,7.51,0,0,1,20.1,19V20.2a.12.12,0,0,1-.12.12H18.79a.11.11,0,0,1-.12-.12v-.72l-.41.09-.07,0v.59a.12.12,0,0,1-.12.12h-1.2a.12.12,0,0,1-.12-.12v-.35a2.48,2.48,0,0,1-.48-.17v.52a.11.11,0,0,1-.12.12H15a.11.11,0,0,1-.12-.12V19a.11.11,0,0,1,.12-.12h.6a1.29,1.29,0,0,1-.1-.48,1.4,1.4,0,0,1,.38-.95H13.45a2.3,2.3,0,0,1-1.25.37A2.25,2.25,0,0,1,11,17.45H.36a.37.37,0,0,0-.36.36V29.05a.36.36,0,0,0,.36.36H29.79a.36.36,0,0,0,.36-.36V24.86A3.84,3.84,0,0,1,29.46,24.93Zm-4.21-2.22a.12.12,0,0,1,.12.12V24a.12.12,0,0,1-.12.12h-1.2a.12.12,0,0,1-.12-.12v-1.2a.12.12,0,0,1,.12-.12Zm-.48-1.91a.12.12,0,0,1,.12.12v1.19a.11.11,0,0,1-.12.12h-1.2a.11.11,0,0,1-.12-.12V20.92a.12.12,0,0,1,.12-.12ZM22.49,19a.12.12,0,0,1,.12-.12h1.2a.12.12,0,0,1,.12.12v1.2a.12.12,0,0,1-.12.12h-1.2a.12.12,0,0,1-.12-.12ZM22,22.83a.11.11,0,0,1,.12-.12h1.19a.12.12,0,0,1,.12.12V24a.12.12,0,0,1-.12.12H22.14A.11.11,0,0,1,22,24Zm-.36-.6a.11.11,0,0,1-.12-.12V20.92a.12.12,0,0,1,.12-.12h1.19a.11.11,0,0,1,.12.12v1.19a.11.11,0,0,1-.12.12ZM20.58,19a.12.12,0,0,1,.12-.12h1.2A.12.12,0,0,1,22,19v1.2a.12.12,0,0,1-.12.12H20.7a.12.12,0,0,1-.12-.12Zm1,3.83V24a.12.12,0,0,1-.12.12h-1.2A.12.12,0,0,1,20.1,24v-1.2a.12.12,0,0,1,.12-.12h1.2A.12.12,0,0,1,21.54,22.83Zm-1.92-1.91a.12.12,0,0,1,.12-.12h1.2a.12.12,0,0,1,.12.12v1.19a.11.11,0,0,1-.12.12h-1.2a.11.11,0,0,1-.12-.12Zm0,1.91V24a.11.11,0,0,1-.12.12H18.31a.12.12,0,0,1-.12-.12v-1.2a.12.12,0,0,1,.12-.12H19.5A.11.11,0,0,1,19.62,22.83Zm-.95,1.92v1.19a.11.11,0,0,1-.12.12h-1.2a.11.11,0,0,1-.12-.12V24.75a.12.12,0,0,1,.12-.12h1.2A.12.12,0,0,1,18.67,24.75Zm-1-3.83a.12.12,0,0,1,.12-.12H19a.11.11,0,0,1,.12.12v1.19a.11.11,0,0,1-.12.12H17.83a.11.11,0,0,1-.12-.12Zm0,1.91V24a.12.12,0,0,1-.12.12h-1.2a.12.12,0,0,1-.12-.12v-1.2a.12.12,0,0,1,.12-.12h1.2A.12.12,0,0,1,17.71,22.83Zm-1,1.92v1.19a.11.11,0,0,1-.12.12H15.44a.11.11,0,0,1-.12-.12V24.75a.11.11,0,0,1,.12-.12h1.19A.12.12,0,0,1,16.75,24.75Zm-1-3.83a.12.12,0,0,1,.12-.12h1.2a.12.12,0,0,1,.12.12v1.19a.11.11,0,0,1-.12.12h-1.2a.11.11,0,0,1-.12-.12Zm0,1.91V24a.11.11,0,0,1-.12.12H14.48a.12.12,0,0,1-.12-.12v-1.2a.12.12,0,0,1,.12-.12h1.19A.11.11,0,0,1,15.79,22.83Zm-7.17,0a.11.11,0,0,1,.11-.12h1.2a.12.12,0,0,1,.12.12V24a.12.12,0,0,1-.12.12H8.73A.11.11,0,0,1,8.62,24Zm-.36-.6a.11.11,0,0,1-.12-.12V20.92a.11.11,0,0,1,.12-.12H9.45a.12.12,0,0,1,.12.12v1.19a.11.11,0,0,1-.12.12Zm1.31,2.52a.12.12,0,0,1,.12-.12h1.2a.12.12,0,0,1,.12.12v1.19a.11.11,0,0,1-.12.12H9.69a.11.11,0,0,1-.12-.12Zm.48-2.64V20.92a.12.12,0,0,1,.12-.12h1.2a.12.12,0,0,1,.12.12v1.19a.11.11,0,0,1-.12.12h-1.2A.11.11,0,0,1,10.05,22.11Zm.6,2a.12.12,0,0,1-.12-.12v-1.2a.12.12,0,0,1,.12-.12h1.2a.12.12,0,0,1,.12.12V24a.12.12,0,0,1-.12.12Zm.84.6a.11.11,0,0,1,.12-.12H12.8a.12.12,0,0,1,.12.12v1.19a.11.11,0,0,1-.12.12H11.61a.11.11,0,0,1-.12-.12ZM12,22.11V20.92a.11.11,0,0,1,.12-.12h1.19a.12.12,0,0,1,.12.12v1.19a.11.11,0,0,1-.12.12H12.09A.11.11,0,0,1,12,22.11Zm.59,2a.12.12,0,0,1-.12-.12v-1.2a.12.12,0,0,1,.12-.12h1.2a.12.12,0,0,1,.12.12V24a.12.12,0,0,1-.12.12Zm.84.6a.12.12,0,0,1,.12-.12h1.2a.12.12,0,0,1,.12.12v1.19a.11.11,0,0,1-.12.12h-1.2a.11.11,0,0,1-.12-.12Zm1.8-3.95a.12.12,0,0,1,.12.12v1.19a.11.11,0,0,1-.12.12H14a.11.11,0,0,1-.12-.12V20.92A.12.12,0,0,1,14,20.8ZM12.92,19a.12.12,0,0,1,.12-.12h1.2a.12.12,0,0,1,.12.12v1.2a.12.12,0,0,1-.12.12H13a.12.12,0,0,1-.12-.12ZM11,19a.12.12,0,0,1,.12-.12h1.19a.11.11,0,0,1,.12.12v1.2a.11.11,0,0,1-.12.12H11.13A.12.12,0,0,1,11,20.2ZM9.09,19a.12.12,0,0,1,.12-.12h1.2a.12.12,0,0,1,.12.12v1.2a.12.12,0,0,1-.12.12H9.21a.12.12,0,0,1-.12-.12ZM7.18,19a.12.12,0,0,1,.12-.12H8.5a.12.12,0,0,1,.12.12v1.2a.12.12,0,0,1-.12.12H7.3a.12.12,0,0,1-.12-.12ZM6.7,22.83a.12.12,0,0,1,.12-.12H8a.12.12,0,0,1,.12.12V24a.12.12,0,0,1-.12.12H6.82A.12.12,0,0,1,6.7,24Zm-.36-.6a.11.11,0,0,1-.12-.12V20.92a.12.12,0,0,1,.12-.12h1.2a.12.12,0,0,1,.12.12v1.19a.11.11,0,0,1-.12.12ZM5.26,19a.12.12,0,0,1,.12-.12h1.2A.12.12,0,0,1,6.7,19v1.2a.12.12,0,0,1-.12.12H5.38a.12.12,0,0,1-.12-.12Zm-.47,3.83a.11.11,0,0,1,.12-.12H6.1a.12.12,0,0,1,.12.12V24a.12.12,0,0,1-.12.12H4.91A.11.11,0,0,1,4.79,24Zm-.36-.6a.11.11,0,0,1-.12-.12V20.92a.12.12,0,0,1,.12-.12H5.62a.11.11,0,0,1,.12.12v1.19a.11.11,0,0,1-.12.12ZM3.35,19a.12.12,0,0,1,.12-.12h1.2a.12.12,0,0,1,.12.12v1.2a.12.12,0,0,1-.12.12H3.47a.12.12,0,0,1-.12-.12ZM1.44,19a.11.11,0,0,1,.12-.12H2.75a.12.12,0,0,1,.12.12v1.2a.12.12,0,0,1-.12.12H1.56a.11.11,0,0,1-.12-.12Zm0,1.92a.11.11,0,0,1,.12-.12H3.71a.12.12,0,0,1,.12.12v1.19a.11.11,0,0,1-.12.12H1.56a.11.11,0,0,1-.12-.12Zm0,1.91a.11.11,0,0,1,.12-.12H4.19a.12.12,0,0,1,.12.12V24a.12.12,0,0,1-.12.12H1.56A.11.11,0,0,1,1.44,24Zm1.43,5a.12.12,0,0,1-.12.12H1.56a.11.11,0,0,1-.12-.12v-1.2a.11.11,0,0,1,.12-.12H2.75a.12.12,0,0,1,.12.12Zm1.92,0a.12.12,0,0,1-.12.12H3.47a.12.12,0,0,1-.12-.12v-1.2a.12.12,0,0,1,.12-.12h1.2a.12.12,0,0,1,.12.12Zm.36-1.8H1.56a.11.11,0,0,1-.12-.12V24.75a.11.11,0,0,1,.12-.12H5.15a.11.11,0,0,1,.11.12v1.19C5.26,26,5.22,26.06,5.15,26.06Zm1.55,1.8a.12.12,0,0,1-.12.12H5.38a.12.12,0,0,1-.12-.12v-1.2a.12.12,0,0,1,.12-.12h1.2a.12.12,0,0,1,.12.12Zm.36-1.8H5.86a.11.11,0,0,1-.12-.12V24.75a.12.12,0,0,1,.12-.12h1.2a.12.12,0,0,1,.12.12v1.19A.11.11,0,0,1,7.06,26.06Zm1.56,1.8A.12.12,0,0,1,8.5,28H7.3a.12.12,0,0,1-.12-.12v-1.2a.12.12,0,0,1,.12-.12H8.5a.12.12,0,0,1,.12.12ZM9,26.06H7.78a.11.11,0,0,1-.12-.12V24.75a.12.12,0,0,1,.12-.12H9a.11.11,0,0,1,.12.12v1.19A.11.11,0,0,1,9,26.06Zm10.17,1.8A.11.11,0,0,1,19,28H9.21a.12.12,0,0,1-.12-.12v-1.2a.12.12,0,0,1,.12-.12H19a.11.11,0,0,1,.12.12Zm0-1.92V24.75a.12.12,0,0,1,.12-.12h1.2a.12.12,0,0,1,.12.12v1.19a.11.11,0,0,1-.12.12h-1.2A.11.11,0,0,1,19.14,25.94Zm1.92,1.92a.12.12,0,0,1-.12.12h-1.2a.12.12,0,0,1-.12-.12v-1.2a.12.12,0,0,1,.12-.12h1.2a.12.12,0,0,1,.12.12Zm0-1.92V24.75a.12.12,0,0,1,.12-.12h1.2a.11.11,0,0,1,.11.12v1.19c0,.08,0,.12-.11.12h-1.2A.11.11,0,0,1,21.06,25.94ZM23,27.86a.11.11,0,0,1-.12.12H21.66a.12.12,0,0,1-.12-.12v-1.2a.12.12,0,0,1,.12-.12h1.19a.11.11,0,0,1,.12.12Zm0-1.92V24.75a.12.12,0,0,1,.12-.12h1.2a.12.12,0,0,1,.12.12v1.19a.11.11,0,0,1-.12.12h-1.2A.11.11,0,0,1,23,25.94Zm1.92,2a0,0,0,0,1-.05.05H23.53a.06.06,0,0,1-.06-.05v-.36a.06.06,0,0,1,.06-.05h1.31a.05.05,0,0,1,.05.05Zm1.91,0a0,0,0,0,1,0,.05H25.44a.05.05,0,0,1-.05-.05v-.36a.06.06,0,0,1,.05-.05h1.32s0,0,0,.05Zm0-.95a0,0,0,0,1,0,0H25.44s-.05,0-.05,0v-.36a.06.06,0,0,1,.05-.06h1.32s0,0,0,.06Zm1.92.95a0,0,0,0,1,0,.05H27.36a.06.06,0,0,1-.06-.05v-.36a.06.06,0,0,1,.06-.05h1.31a.05.05,0,0,1,0,.05Z"/></svg>