<?xml version="1.0" encoding="utf-8"?>
<!-- Generator: Adobe Illustrator 23.0.6, SVG Export Plug-In . SVG Version: 6.00 Build 0)  -->
<svg version="1.1" id="圖層_1" xmlns="http://www.w3.org/2000/svg" xmlns:xlink="http://www.w3.org/1999/xlink" x="0px" y="0px"
	 viewBox="0 0 24 24" style="enable-background:new 0 0 24 24;" xml:space="preserve">
<style type="text/css">
	.st0{fill-rule:evenodd;clip-rule:evenodd;fill:#FFFFFF;}
</style>
<g>
	<path id="Path_995" class="st0" d="M8.3,6.7C8.2,6.4,8,6.1,7.7,6C7.3,5.7,6.9,5.6,6.5,5.5C6.1,5.4,5.7,5.2,5.4,5
		C5.2,4.8,5.2,4.6,5.3,4.4c0.1-0.4,0.6-0.5,1-0.5c0.2,0,0.4,0.1,0.6,0.2C7,4.2,7.1,4.4,7.2,4.6l1.2-0.2C8.2,3.8,8,3.4,7.5,3.1
		C7.3,3,7.1,2.9,6.9,2.9l0.1-1H5.5l0.1,1C5.5,2.9,5.4,2.9,5.2,3c-1,0.5-1.4,1.7-0.9,2.6c0.1,0.3,0.4,0.5,0.6,0.7
		c0.4,0.2,0.9,0.4,1.3,0.5c0.4,0.1,0.9,0.2,1.1,0.7c0.1,0.3,0,0.7-0.2,0.9C6.9,8.6,6.6,8.7,6.3,8.7c-0.6,0-1.1-0.5-1.2-1.1L4,7.9
		C4.1,8.5,4.3,9,4.8,9.4C5,9.6,5.3,9.7,5.6,9.8l-0.1,0.9H7L6.9,9.8c0.3-0.1,0.6-0.2,0.9-0.4C8.6,8.8,8.8,7.6,8.3,6.7L8.3,6.7z
		 M12.1,6.4c0,3.2-2.6,5.9-5.9,5.9c-3.2,0-5.9-2.6-5.9-5.9c0-3.2,2.6-5.9,5.9-5.9C9.5,0.5,12.1,3.1,12.1,6.4L12.1,6.4L12.1,6.4z
		 M4.9,15.5c0.2-0.2,0.6-0.2,0.9-0.1l4,2l4.1-4.4c0.2-0.3,0.6-0.3,0.9-0.2l3.7,2l4-6.5c0.2-0.4,0.7-0.5,1.1-0.2
		c0.4,0.2,0.5,0.7,0.3,1.1l-4.4,7.1c-0.1,0.1-0.2,0.3-0.4,0.3v6.7c0,0.1-0.1,0.3-0.3,0.3s-0.3-0.1-0.3-0.3v-6.7c0,0-0.1,0-0.1-0.1
		l-3.5-1.9v8.6c0,0.1-0.1,0.3-0.3,0.3c-0.1,0-0.3-0.1-0.3-0.3l0,0v-8.6l-3.8,4.1v4.5c0,0.1-0.1,0.3-0.3,0.3c-0.1,0-0.3-0.1-0.3-0.3
		l0,0v-4.1c-0.2,0-0.3,0-0.5-0.1l-3.7-1.8v6c0,0.1-0.1,0.3-0.3,0.3c-0.1,0-0.3-0.1-0.3-0.3l0,0v-6.1l-3.9,3.3
		c-0.3,0.3-0.8,0.3-1.1-0.1C0,20,0,19.5,0.4,19.3c0,0,0,0,0,0L4.9,15.5z"/>
</g>
</svg>
