<?xml version="1.0" encoding="utf-8"?>
<!-- Generator: Adobe Illustrator 23.0.6, SVG Export Plug-In . SVG Version: 6.00 Build 0)  -->
<svg version="1.1" id="圖層_1" xmlns="http://www.w3.org/2000/svg" xmlns:xlink="http://www.w3.org/1999/xlink" x="0px" y="0px"
	 viewBox="0 0 375 56" style="enable-background:new 0 0 375 56;" xml:space="preserve">
<style type="text/css">
	.st0{fill:#24AD6E;}
	.st1{fill:#FFFFFF;}
	.st2{fill:#6962FF;}
	.st3{fill:#2876E0;}
	.st4{fill:#FF6400;}
	.st5{fill:#0090D0;}
</style>
<g id="Group_48" transform="translate(43 -764)">
	<circle id="Ellipse_14" class="st0" cx="145" cy="792" r="20"/>
	<path id="Path_1071" class="st1" d="M150,781h-14v16h2v-14h12V781z M149,785l6,6v12h-15v-18H149z M148,792h5.5l-5.5-5.5V792z"/>
</g>
<g id="Group_50" transform="translate(-68 -764)">
	<circle id="Ellipse_15" class="st2" cx="186" cy="792" r="20"/>
	<path id="Path_1073" class="st1" d="M177,797.7v3.8h3.8l11.1-11.1l-3.8-3.8L177,797.7z M195.4,786.8l-3.8-3.8l-2.5,2.5l3.8,3.8
		L195.4,786.8z"/>
</g>
<g id="Group_49" transform="translate(-55 -764)">
	<circle id="Ellipse_16" class="st3" cx="103" cy="792" r="20"/>
	<path id="Path_1075" class="st1" d="M97,801h12v-14H97V801z M110,784h-3.5l-1-1h-5l-1,1H96v2h14V784z"/>
</g>
<g id="Group_52" transform="translate(3 -764)">
	<g id="Group_51" transform="translate(109)">
		<circle id="Ellipse_14-2" class="st4" cx="145" cy="792" r="20"/>
	</g>
	<path id="Path_1076" class="st1" d="M259.9,783h-10.6c-1.3,0-2.3,1-2.3,2.3v0.1h-1.2c-0.4,0-0.8,0.3-0.8,0.8s0.3,0.8,0.8,0.8h1.2
		v2.4h-1.2c-0.4,0-0.8,0.3-0.8,0.8c0,0.4,0.3,0.8,0.8,0.8h1.2v2.4h-1.2c-0.4,0-0.8,0.3-0.8,0.8c0,0.4,0.3,0.8,0.8,0.8h1.2v2.4h-1.2
		c-0.4,0-0.8,0.3-0.8,0.8c0,0.4,0.3,0.8,0.8,0.8h1.2v0.1c0,1.3,1,2.3,2.3,2.3h10.7c1.3,0,2.3-1,2.3-2.3v-13.7
		C262.2,784,261.1,783,259.9,783z M257.7,796.8l-1.2,0.8c-0.3,0.2-0.7,0.2-1,0.1c-0.3-0.2-0.7-0.4-1-0.6c-1.2-1-2.2-2.4-2.8-3.9
		c-0.6-1.5-0.9-3.1-0.7-4.7c0.1-0.4,0.2-0.7,0.3-1.1c0.1-0.3,0.4-0.6,0.8-0.6l1.5-0.3c0.4-0.1,0.7,0.2,0.8,0.5c0,0,0,0,0,0.1
		l0.2,2.2c0,0.3-0.2,0.6-0.5,0.7l-1.1,0.3c0.1,1.6,0.7,3.1,1.7,4.3l1-0.6c0.3-0.1,0.6-0.1,0.8,0.2l1.4,1.7
		C258.1,796.1,258.1,796.5,257.7,796.8C257.8,796.8,257.7,796.8,257.7,796.8z"/>
</g>
<g id="Group_53" transform="translate(16 -765)">
	<g id="Group_51-2" transform="translate(166 1)">
		<circle id="Ellipse_14-3" class="st5" cx="145" cy="792" r="20"/>
	</g>
	<circle id="Ellipse_17" class="st1" cx="302" cy="793" r="2"/>
	<circle id="Ellipse_17-2" class="st1" cx="311" cy="793" r="2"/>
	<circle id="Ellipse_17-3" class="st1" cx="320" cy="793" r="2"/>
</g>
</svg>
