<?xml version="1.0" encoding="utf-8"?>
<!-- Generator: Adobe Illustrator 23.0.6, SVG Export Plug-In . SVG Version: 6.00 Build 0)  -->
<svg version="1.1" id="圖層_1" xmlns="http://www.w3.org/2000/svg" xmlns:xlink="http://www.w3.org/1999/xlink" x="0px" y="0px"
	 viewBox="0 0 375 279" style="enable-background:new 0 0 375 279;" xml:space="preserve">
<style type="text/css">
	.st0{fill:#343434;}
	.st1{enable-background:new    ;}
	.st2{fill:#FFFFFF;}
	.st3{fill:#FF0000;}
	.st4{fill:#2876E0;}
	.st5{fill:none;}
	.st6{fill:none;stroke:#FFFFFF;}
	.st7{fill:#24AD6E;}
	.st8{fill:#0090D0;}
	.st9{fill:#4840FF;}
	.st10{fill:#FF6400;}
</style>
<g>
	<g id="Group_55" transform="translate(-14 -333)">
		<path id="Path_1053" class="st0" d="M28,343.5h347v49H28V343.5z"/>
		<g class="st1">
			<path class="st2" d="M90.9,365.6c-0.5,0.8-1,1.5-1.6,2.3v7.8h-1.4v-6.3c-0.5,0.5-1,1-1.5,1.3c-0.2-0.3-0.7-0.9-1-1.2
				c1.5-1.1,3.1-2.8,4.2-4.5L90.9,365.6z M90.3,362.5c-1,1.3-2.6,2.8-4,3.8c-0.2-0.3-0.5-0.9-0.8-1.1c1.2-0.8,2.7-2.1,3.4-3.2
				L90.3,362.5z M99.3,368.2h-2.2v5.8c0,0.8-0.2,1.2-0.7,1.4c-0.6,0.2-1.4,0.2-2.8,0.2c-0.1-0.4-0.3-1-0.5-1.4c1,0,2,0,2.2,0
				c0.3,0,0.4-0.1,0.4-0.3v-5.8H91v-1.3h8.3V368.2z M98.9,364.1h-7.3v-1.3h7.3V364.1z"/>
			<path class="st2" d="M106.1,374c-1.8,0.4-3.8,0.9-5.2,1.2l-0.3-1.3c0.6-0.1,1.5-0.2,2.4-0.4v-4.1h-2.2v-1.2h2.2v-1.4h-1.3v-0.5
				c-0.2,0.2-0.4,0.4-0.6,0.6c-0.1-0.3-0.4-1.1-0.7-1.4c1.1-0.9,2.2-2.2,2.8-3.6l1.2,0.4c-0.1,0.2-0.2,0.3-0.3,0.5
				c0.9,0.7,1.8,1.6,2.4,2.1l-0.8,1.1c-0.5-0.6-1.4-1.4-2.2-2.1c-0.4,0.6-0.8,1.2-1.3,1.8h3.1v1.2h-1.2v1.4h1.8v1.2h-1.8v3.9
				l1.9-0.3L106.1,374z M101.8,370.1c0.2,0.9,0.5,1.9,0.6,2.7l-1,0.3c-0.1-0.7-0.3-1.8-0.6-2.7L101.8,370.1z M104.5,372.6
				c0.2-0.7,0.5-1.9,0.7-2.6l1.1,0.3c-0.3,0.9-0.6,2-0.9,2.6L104.5,372.6z M113.8,374.1c0,0.7-0.1,1.1-0.6,1.3
				c-0.5,0.2-1.2,0.2-2.3,0.2c0-0.4-0.2-0.9-0.4-1.3c0.8,0,1.5,0,1.7,0s0.3-0.1,0.3-0.3v-2.3c-1.4,0.4-2.8,0.7-4,1l-0.4-1.1
				c-0.1,1.4-0.3,3-1,4.1c-0.2-0.2-0.8-0.6-1.1-0.8c0.7-1.3,0.8-3.1,0.8-4.5v-4.3h2.8v-4.2h1.3v4.2h2.8V374.1z M107.8,365.7
				c-0.2-0.8-0.8-1.9-1.4-2.8l1.1-0.5c0.6,0.8,1.2,2,1.5,2.7L107.8,365.7z M108.1,370.4c0,0.4,0,0.7,0,1.1c1.1-0.2,2.7-0.6,4.4-1
				v-3.3h-4.3V370.4z M108.8,368.2c1.1,0.2,2.5,0.7,3.3,1.1l-0.6,1c-0.7-0.4-2.1-0.9-3.3-1.2L108.8,368.2z M114.2,362.8
				c-0.5,1-1,2.1-1.5,2.8l-1.2-0.5c0.5-0.8,1.1-2,1.4-2.8L114.2,362.8z"/>
			<path class="st2" d="M118.4,368.8c-0.6-0.4-1.9-1.1-2.8-1.6l0.8-1c0.9,0.4,2.1,1.1,2.8,1.5L118.4,368.8z M116,374.6
				c0.8-1.1,1.9-3,2.8-4.7l1,0.9c-0.8,1.5-1.8,3.3-2.7,4.7L116,374.6z M119.1,364.8c-0.6-0.4-1.9-1.2-2.7-1.7l0.8-1
				c0.9,0.4,2.1,1.1,2.8,1.5L119.1,364.8z M125.4,367.6v2.2h3.1v5.8h-1.3V375h-5v0.6h-1.3v-5.8h3.1v-2.2h-4.2v-1.3h4.2v-2.1
				c-1,0.2-2.1,0.3-3.1,0.4c-0.1-0.3-0.2-0.9-0.4-1.2c2.6-0.3,5.5-0.8,7.1-1.4l1.1,1.1c-1,0.4-2.1,0.6-3.4,0.9v2.4h4v1.3H125.4z
				 M127.1,371.1h-5v2.7h5V371.1z"/>
			<path class="st2" d="M144.1,365.3c0,0,0,0.5,0,0.6c-0.2,6.2-0.3,8.3-0.8,9c-0.3,0.5-0.6,0.6-1.1,0.6c-0.4,0.1-1.1,0.1-1.8,0
				c0-0.4-0.2-0.9-0.4-1.3c0.7,0.1,1.3,0.1,1.6,0.1c0.3,0,0.4,0,0.5-0.2c0.3-0.4,0.5-2.3,0.6-7.5h-1.8c-0.2,4-0.9,7.2-3.4,9.2
				c-0.2-0.3-0.7-0.8-1-1c0.1-0.1,0.2-0.1,0.3-0.2c-2.2,0.3-4.3,0.5-5.9,0.6l-0.2-1.2c0.9-0.1,2-0.1,3.1-0.3v-1.1H131v-1h2.7v-0.8
				h-2.7v-4.5h2.7v-0.8h-3.1v-1h3.1v-0.8c-0.9,0.1-1.8,0.1-2.7,0.2c0-0.3-0.2-0.7-0.3-1c2.2-0.1,4.9-0.4,6.4-0.7l0.7,1.1
				c-0.8,0.2-1.8,0.3-2.8,0.4v1h3v0.9h1.6c0-1,0-2.1,0-3.2h1.3c0,1.1,0,2.2,0,3.2H144.1z M132.2,368.1h1.5v-0.9h-1.5V368.1z
				 M133.8,369.9V369h-1.5v0.9H133.8z M135,373.6c0.9-0.1,1.9-0.2,2.8-0.3c1.2-1.7,1.6-4,1.7-6.7H138v-1.1h-3v0.8h2.8v4.5H135v0.8
				h2.8v1H135V373.6z M136.6,368.1v-0.9H135v0.9H136.6z M135,369v0.9h1.6V369H135z"/>
			<path class="st2" d="M148.4,372.7c-0.4,0.9-1,1.9-1.6,2.5c-0.2-0.2-0.7-0.6-1-0.8c0.6-0.6,1.1-1.3,1.4-2.1L148.4,372.7z
				 M154,368.5h-8.1v-1.1h3.4c-0.1-0.2-0.2-0.4-0.3-0.6l1.2-0.3h-3.6v-4.2h6.9v4.2h-3.1c0.1,0.2,0.3,0.5,0.5,0.8h3.2V368.5z
				 M150.6,372.1v2.2c0,0.6-0.1,0.9-0.5,1.1c-0.4,0.2-1,0.2-1.8,0.2c-0.1-0.4-0.2-0.8-0.4-1.1c0.5,0,1.1,0,1.2,0
				c0.2,0,0.2,0,0.2-0.2v-2.2h-2.5v-3h6.5v3H150.6z M147.9,364.1h4.2v-0.7h-4.2V364.1z M147.9,365.7h4.2v-0.8h-4.2V365.7z
				 M148,371.2h3.9v-1H148V371.2z M159.4,370.9c-1.1,2-3,3.6-5,4.7c-0.2-0.3-0.6-0.8-0.9-1l-1,0.5c-0.2-0.6-0.8-1.6-1.3-2.3l1-0.4
				c0.5,0.7,1,1.6,1.3,2.2c1.8-0.9,3.7-2.3,4.6-4L159.4,370.9z M158.7,362.7c-1,1.4-2.5,2.7-3.9,3.5c-0.2-0.3-0.6-0.7-1-1
				c1.3-0.7,2.8-1.9,3.6-3.1L158.7,362.7z M159.1,366.8c-1.1,1.5-2.8,2.8-4.3,3.7c-0.2-0.3-0.6-0.7-1-1c1.4-0.8,3.1-2,4-3.3
				L159.1,366.8z"/>
			<path class="st2" d="M165.4,365.1c-0.7,1.8-2.2,3.1-4.1,3.9c-0.1-0.2-0.4-0.7-0.6-0.9c1.1-0.4,2.1-1,2.9-1.8
				c-1.9,0.2-2.2,0.3-2.4,0.4v0c-0.1-0.2-0.2-0.7-0.3-0.9c0.3,0,0.5-0.2,0.9-0.4c0.2-0.1,0.5-0.4,0.8-0.7c-1,0.1-1.2,0.1-1.4,0.2
				c-0.1-0.2-0.2-0.7-0.3-0.9c0.2,0,0.4-0.2,0.6-0.3c0.2-0.2,0.9-0.9,1.4-1.7l0.9,0.5c-0.4,0.6-0.9,1.1-1.4,1.6l1.1-0.1
				c0.3-0.3,0.6-0.6,0.8-0.9l0.8,0.5c-0.7,0.8-1.6,1.6-2.4,2.2l1.5-0.1c0.1-0.2,0.2-0.4,0.3-0.7L165.4,365.1v-2.3h1.2v0h0.3
				c-0.1-0.2-0.2-0.5-0.3-0.7l1.1-0.3c0.2,0.3,0.4,0.6,0.5,1h1.6v3.5h-0.6c0.5,0.5,0.9,1,1.2,1.4v-5.2h3.1l0.2-0.1l0.8,0.4
				c-0.3,0.8-0.8,1.5-1.1,2.1c0.8,0.6,1.1,1.2,1.1,1.7c0,0.5-0.2,0.9-0.6,1.1c-0.2,0.1-0.4,0.2-0.7,0.2c-0.3,0-0.7,0-1.1,0
				c0-0.3-0.1-0.7-0.3-1c0.4,0,0.7,0,1,0c0.1,0,0.3,0,0.4-0.1c0.2-0.1,0.3-0.3,0.3-0.5c0-0.4-0.4-0.8-1.2-1.4
				c0.3-0.6,0.6-1.2,0.8-1.7h-1.4v5.1h-1.1v-0.8l-0.8,0.4c-0.1-0.2-0.3-0.5-0.4-0.7c-3,0.7-3.4,0.8-3.7,0.9c-0.1-0.3-0.3-0.8-0.4-1
				c0.2-0.1,0.6-0.3,0.6-0.9V365.1z M171,369.7c-0.3,0.3-0.5,0.6-0.8,0.9h4v0.9h-13.4v-0.9h4c-0.1-0.3-0.3-0.6-0.5-0.8l0.5-0.2h-2.4
				v-0.9h4.5c-0.1-0.2-0.2-0.4-0.3-0.6l1.3-0.3c0.2,0.3,0.3,0.6,0.4,0.9h4.5v0.9h-2.1L171,369.7z M162.9,372h9.4v3.6h-1.4v-0.4h-6.7
				v0.4h-1.3V372z M164.2,372.8v0.6h6.7v-0.6H164.2z M170.9,374.6V374h-6.7v0.6H170.9z M168.9,370.6c0.2-0.3,0.4-0.6,0.6-0.9h-4
				c0.2,0.3,0.4,0.6,0.5,0.8l-0.2,0.1H168.9z M166.5,363.4v0.6h2v-0.6H166.5z M166.5,365.5h2v-0.7h-2V365.5z M168.3,366.6
				c-0.1-0.1-0.3-0.3-0.4-0.4l0.1-0.1h-1.5v0.8L168.3,366.6z"/>
		</g>
		<g id="Group_54" transform="translate(-12)">
			<circle id="Ellipse_18" class="st3" cx="216" cy="368.5" r="10"/>
			<g class="st1">
				<path class="st2" d="M217.7,362.9v10.6h-1.2v-9.2l-2.7,1.8l-0.6-0.9l3.4-2.2H217.7z"/>
			</g>
		</g>
		<path id="Rectangle_61" class="st4" d="M48,355.5h20c1.7,0,3,1.3,3,3v20c0,1.7-1.3,3-3,3H48c-1.7,0-3-1.3-3-3v-20
			C45,356.8,46.3,355.5,48,355.5z"/>
		<g id="Group_63">
			<circle id="Ellipse_19" class="st2" cx="58" cy="368.5" r="2"/>
			<g id="Ellipse_20" transform="translate(39 353)">
				<circle class="st5" cx="19" cy="15.5" r="5"/>
				<circle class="st6" cx="19" cy="15.5" r="4.5"/>
			</g>
			<g id="Ellipse_21" transform="translate(36 350)">
				<circle class="st5" cx="22" cy="18.5" r="8"/>
				<circle class="st6" cx="22" cy="18.5" r="7.5"/>
			</g>
		</g>
	</g>
	<g id="Group_56" transform="translate(-14 -281)">
		<path id="Path_1053-2" class="st0" d="M28,343.5h347v49H28V343.5z"/>
		<g class="st1">
			<path class="st2" d="M90.2,363.8v11.9H89V373c-1.1,0.2-2.3,0.4-3.2,0.6l-0.3-1.2l0.8-0.1v-8.4h-0.7v-1.3h5v1.3H90.2z M89,363.8
				h-1.5v1.9H89V363.8z M89,366.8h-1.5v1.9H89V366.8z M89,371.8v-2h-1.5v2.2L89,371.8z M94.2,366.5c0.3,0.8,0.6,1.8,0.7,2.5
				l-0.9,0.3c0-0.2-0.1-0.5-0.2-0.8c-2.5,0.3-2.9,0.4-3.1,0.5c-0.1-0.3-0.2-0.9-0.3-1.2c0.2-0.1,0.5-0.3,0.9-0.7
				c0.1-0.2,0.5-0.6,0.8-1.1c-0.9,0.1-1.2,0.2-1.3,0.2c0-0.3-0.2-0.9-0.3-1.3c0.2,0,0.4-0.2,0.6-0.5c0.2-0.3,0.9-1.3,1.3-2.4l1,0.4
				c-0.5,1-1.1,1.9-1.6,2.7l0.9,0c0.3-0.4,0.5-0.9,0.8-1.3l0.9,0.5c-0.8,1.3-1.7,2.6-2.5,3.5l1.7-0.2c-0.1-0.3-0.2-0.6-0.3-0.9
				L94.2,366.5z M94.5,369.3v2.3c0,1.5-0.5,3.2-2.7,4.2c-0.1-0.3-0.5-0.8-0.7-1c1.3-0.6,1.9-1.3,2.1-2.1h-2v-3.4h1.1v2.2h1v-2.2
				H94.5z M98.6,369.2c-0.1-0.2-0.1-0.5-0.2-0.8c-2.5,0.4-2.9,0.5-3.1,0.6c0-0.3-0.2-0.9-0.3-1.2c0.2,0,0.5-0.3,0.8-0.7
				c0.2-0.2,0.5-0.6,0.8-1.2c-1.1,0.1-1.3,0.2-1.5,0.3c-0.1-0.3-0.2-0.9-0.3-1.2c0.2,0,0.4-0.2,0.6-0.5c0.2-0.3,0.9-1.3,1.3-2.4
				l0.9,0.5c-0.5,0.9-1,1.8-1.5,2.5l1-0.1c0.2-0.4,0.4-0.8,0.6-1.2l0.9,0.5c-0.7,1.3-1.4,2.5-2.2,3.5l1.6-0.2
				c-0.1-0.3-0.2-0.6-0.3-0.9l0.8-0.3c0.3,0.8,0.8,1.8,0.9,2.5L98.6,369.2z M97.6,369.4h1.1v3.8h-1.1v-0.5h-1v3h-1.2v-6.4h1.2v2.2h1
				V369.4z"/>
			<path class="st2" d="M104.9,371.1c0-0.2-0.1-0.5-0.2-0.8c-2.9,0.4-3.4,0.6-3.7,0.7c-0.1-0.3-0.3-0.9-0.4-1.3
				c0.3-0.1,0.7-0.5,1.1-1c0.2-0.2,0.6-0.8,1.1-1.5c-1.4,0.2-1.7,0.3-1.9,0.3c-0.1-0.3-0.3-0.9-0.4-1.2c0.2-0.1,0.5-0.4,0.8-0.8
				c0.3-0.4,1.3-2.1,1.9-3.7l1.2,0.5c-0.6,1.3-1.5,2.7-2.3,3.8l1.4-0.1c0.4-0.6,0.8-1.3,1.1-2l1.2,0.7c-0.9,1.6-2.1,3.3-3.3,4.6
				l1.8-0.3c-0.1-0.5-0.3-0.9-0.4-1.3l1-0.3c0.4,1,0.8,2.3,0.9,3.1L104.9,371.1z M102.4,371.8c-0.1,1.3-0.4,2.7-0.7,3.6
				c-0.2-0.2-0.8-0.3-1.1-0.4c0.3-0.9,0.6-2.2,0.7-3.4L102.4,371.8z M103.9,371.5c0.2,1,0.4,2.3,0.4,3.2l-1.1,0.2
				c0-0.9-0.2-2.2-0.4-3.2L103.9,371.5z M105.4,371.2c0.3,0.9,0.7,2,0.8,2.8l-1,0.3c-0.1-0.8-0.5-1.9-0.8-2.8L105.4,371.2z
				 M113.8,363.8c-0.6,1.5-1.4,2.8-2.4,3.8c0.9,0.8,2,1.4,3.2,1.8c-0.3,0.3-0.7,0.8-0.9,1.2l-0.2-0.1v5h-1.3v-0.5h-3.7v0.5h-1.3v-5
				c-0.1,0.1-0.3,0.1-0.4,0.2c-0.2-0.3-0.5-0.8-0.8-1.1c1.2-0.5,2.5-1.2,3.6-2.1c-0.6-0.6-1-1.2-1.4-1.8c-0.4,0.5-0.9,0.9-1.3,1.3
				c-0.2-0.3-0.7-0.8-1.1-1c1.4-1,2.6-2.6,3.2-4.3l1.3,0.4c-0.2,0.4-0.4,0.8-0.6,1.2h2.9l0.3-0.1L113.8,363.8z M112.7,370.2
				c-0.9-0.5-1.6-1-2.3-1.6c-0.7,0.6-1.5,1.2-2.3,1.6H112.7z M112.2,373.9v-2.5h-3.7v2.5H112.2z M108.9,364.8c0.4,0.6,0.9,1.3,1.5,2
				c0.6-0.7,1.2-1.4,1.6-2.2H109L108.9,364.8z"/>
			<path class="st2" d="M123.2,362c0,0.6,0,1.3-0.1,2.2c0.2,1.9,1.1,7.9,6.4,10.2c-0.4,0.3-0.8,0.8-1,1.2c-3.5-1.7-5.2-5-6-7.7
				c-0.8,2.8-2.3,5.8-5.7,7.7c-0.2-0.4-0.7-0.8-1.2-1.1c6.1-3.2,6-10.2,6-12.6H123.2z"/>
			<path class="st2" d="M143.1,374c0,0.8-0.2,1.2-0.8,1.5c-0.6,0.2-1.6,0.2-3.1,0.2c-0.1-0.4-0.3-1-0.5-1.4c1.1,0.1,2.3,0,2.7,0
				c0.3,0,0.4-0.1,0.4-0.4v-1.6h-8c-0.4,1.2-1.1,2.4-2.3,3.3c-0.2-0.3-0.7-0.8-1-1c2.1-1.6,2.3-3.8,2.3-5.7v-2.5
				c-0.3,0.3-0.7,0.6-1,0.8c-0.2-0.3-0.7-0.8-1-1c2-1.3,3.3-3.1,4-4.6l1.5,0.3c-0.1,0.2-0.2,0.4-0.3,0.6h3.3l0.2-0.1l0.9,0.6
				c-0.3,0.6-0.8,1.4-1.3,2h3.9V374z M134.2,369.4c0,0.6-0.1,1.2-0.2,1.8h3.1v-1.8H134.2z M135.3,363.9c-0.3,0.5-0.7,0.9-1.1,1.4
				h3.5c0.3-0.4,0.6-0.9,0.9-1.4H135.3z M134.2,368.2h3v-1.7h-3V368.2z M141.7,366.6h-3.2v1.7h3.2V366.6z M141.7,371.2v-1.8h-3.2
				v1.8H141.7z"/>
			<path class="st2" d="M156.2,374.2c1.4,0,1.7-0.4,1.9-2.3c0.3,0.2,0.9,0.4,1.3,0.5c-0.3,2.4-0.8,3.1-3.1,3.1h-5.5
				c-2.5,0-3.3-0.5-3.3-2.4v-6c-0.4,0.3-0.8,0.6-1.1,0.9c-0.1-0.3-0.5-1-0.8-1.3c1.8-1.1,3.6-2.9,4.6-4.8l1.3,0.5
				c-0.1,0.3-0.3,0.6-0.5,0.8h3.7l0.3-0.1l0.9,0.6c-0.5,0.8-1.2,1.6-1.9,2.3h3.9v5.4h-1.4v-0.6h-7.7v2.2c0,0.9,0.3,1.1,1.9,1.1
				H156.2z M150.1,364.4c-0.4,0.6-0.9,1.1-1.4,1.6h3.7c0.5-0.5,1-1.1,1.4-1.6H150.1z M148.8,369.6h3.1v-2.2h-3.1V369.6z
				 M156.5,367.3h-3.2v2.2h3.2V367.3z"/>
		</g>
		<g id="Group_54-2" transform="translate(-34)">
			<circle id="Ellipse_18-2" class="st3" cx="216" cy="368.5" r="10"/>
			<g class="st1">
				<path class="st2" d="M212.7,363.2c1-0.3,2.1-0.4,3.2-0.4s2,0.2,2.5,0.7c0.5,0.4,0.8,1.1,0.8,2.1c0,0.5-0.1,0.8-0.2,1.1
					c-0.1,0.2-0.2,0.4-0.3,0.5c-0.1,0.1-0.2,0.2-0.3,0.3c-0.2,0.2-0.4,0.3-0.6,0.4l-0.2,0.1c0.6,0.2,1.1,0.5,1.4,0.9
					c0.3,0.3,0.4,0.9,0.4,1.7c0,1.1-0.3,1.9-0.8,2.4s-1.4,0.8-2.6,0.8c-0.9,0-1.9-0.1-3-0.3l-0.5-0.1l0.1-1c1.2,0.2,2.2,0.4,3.2,0.4
					c1.5,0,2.3-0.7,2.3-2c0-1.3-0.7-1.9-2.2-2h-2.1v-1.1h2.1c0.4,0,0.9-0.2,1.3-0.5s0.6-0.8,0.6-1.4s-0.2-1-0.5-1.3
					c-0.3-0.3-0.9-0.4-1.7-0.4c-0.9,0-1.7,0.1-2.5,0.2l-0.4,0.1L212.7,363.2z"/>
			</g>
		</g>
		<path id="Rectangle_61-2" class="st7" d="M48,355.5h20c1.7,0,3,1.3,3,3v20c0,1.7-1.3,3-3,3H48c-1.7,0-3-1.3-3-3v-20
			C45,356.8,46.3,355.5,48,355.5z"/>
		<g id="icon-user" transform="translate(33.519 349)">
			<path id="Path_14" class="st2" d="M35.1,29.4c-0.6-1.3-3.6-2.2-5.6-3s-1.7-1.3-1.8-2c0-0.1,0-0.2,0-0.4c0.6-0.6,1.1-1.4,1.4-2.2
				l0-0.1c0.1-0.2,0.1-0.4,0.2-0.6c0.4-0.1,0.8-0.5,0.8-1c0.2-0.3,0.3-0.7,0.3-1.1c0-0.4-0.2-0.7-0.4-0.9c0-0.2,0-0.4,0-0.6
				c0-0.9,0.4-3.5-0.6-4.5c-0.5-0.6-1.1-1.1-1.7-1.5l0.1-0.3l-0.8,0l-0.1,0l0.1-0.4L26.4,11l0.2-0.5l-1,0.4c-0.1,0-0.2,0-0.4,0
				c-1.4,0-2.7,0.4-3.7,1.3c-0.3,0.1-0.9,0.4-0.9,0.4l0.2,0.3l0,0L20,13.2l0.4,0.2l0,0.1l-0.7,0.5l0.5-0.1c-0.3,1.2-0.5,2.5-0.5,3.7
				c0,0,0,0.1,0,0.2c-0.4,0.2-0.6,0.6-0.6,1c0,0.4,0.1,0.8,0.3,1.1c0.1,0.5,0.4,0.9,0.8,1c0.1,0.2,0.1,0.4,0.2,0.6l0,0l0,0
				c0.3,0.8,0.8,1.6,1.5,2.3c0,0.1,0,0.2,0,0.3c-0.1,0.7,0.1,1.2-1.9,2c-2,0.8-5,1.7-5.6,3c-0.4,0.6-0.5,1.4-0.4,2.1h21.4
				C35.6,30.8,35.5,30,35.1,29.4z"/>
		</g>
	</g>
	<g id="Group_57" transform="translate(-14 -229)">
		<path id="Path_1053-3" class="st0" d="M28,343.5h347v49H28V343.5z"/>
		<g class="st1">
			<path class="st2" d="M89.7,371.6h2.5v1.2h-2.5v2.8h-1.3v-2.8h-2.7v-1.2h2.7v-1.4H86V369h1.3c-0.1-0.5-0.4-1.2-0.6-1.7l0.9-0.3
				h-1.9v-1.2h2.7v-1.3h-2.2v-1.2h2.2V362h1.3v1.4h2.2v1.2h-2.2v1.3h2.5v1.2h-1.6l1,0.3c-0.3,0.6-0.6,1.2-0.9,1.7H92v1.2h-2.2V371.6
				z M87.7,367c0.3,0.5,0.6,1.3,0.7,1.7l-0.7,0.2h1.8c0.3-0.6,0.7-1.4,0.9-1.9H87.7z M99,367.9c-0.3,1.7-0.9,3.4-1.7,4.8
				c0.7,0.7,1.4,1.3,2.2,1.8c-0.3,0.2-0.7,0.8-0.9,1.1c-0.8-0.4-1.5-1-2.1-1.8c-0.6,0.7-1.2,1.4-2,1.9c-0.1-0.2-0.3-0.4-0.6-0.6v0.6
				h-1.3v-13.1h5.9v2.8c0,0.6-0.1,1-0.6,1.2c-0.5,0.2-1.3,0.2-2.4,0.2c-0.1-0.4-0.2-0.9-0.4-1.2c0.9,0,1.7,0,1.9,0
				c0.2,0,0.3-0.1,0.3-0.2v-1.6H94v3.8h3.9l0.2-0.1L99,367.9z M94,374.5c0.7-0.5,1.2-1.1,1.7-1.8c-0.7-1.1-1.3-2.4-1.7-3.9V374.5z
				 M95.2,368.8c0.3,1,0.8,2,1.3,2.8c0.5-0.9,0.8-1.8,1-2.8H95.2z"/>
			<path class="st2" d="M104.7,362.3c-0.3,1-0.7,2-1.2,3v10.4h-1.3v-7.9c-0.4,0.6-0.8,1.2-1.2,1.6c-0.1-0.3-0.5-1.1-0.7-1.5
				c1.2-1.5,2.4-3.7,3.1-5.9L104.7,362.3z M107.7,373.5l1,0.7c-0.9,0.7-2.4,1.2-3.7,1.5c-0.2-0.3-0.5-0.7-0.8-1
				C105.5,374.5,106.9,374,107.7,373.5h-2.4V368h8.3v5.4H107.7z M107.6,363.7h-2.8v-1.1h9.5v1.1h-3.1v0.8h2.6v3H105v-3h2.5V363.7z
				 M106.3,366.6h1.3v-1.3h-1.3V366.6z M106.6,369.6h5.7v-0.7h-5.7V369.6z M106.6,371.1h5.7v-0.7h-5.7V371.1z M106.6,372.7h5.7v-0.8
				h-5.7V372.7z M110,363.7h-1.4v0.8h1.4V363.7z M108.7,366.6h1.4v-1.3h-1.4V366.6z M110.9,373.5c1.3,0.4,2.7,1,3.6,1.4l-1.2,0.8
				c-0.7-0.4-2-1-3.3-1.4L110.9,373.5z M111.2,365.3v1.3h1.4v-1.3H111.2z"/>
		</g>
		<g id="Group_54-3" transform="translate(-80)">
			<circle id="Ellipse_18-3" class="st3" cx="216" cy="368.5" r="10"/>
			<g class="st1">
				<path class="st2" d="M217.7,362.9v10.6h-1.2v-9.2l-2.7,1.8l-0.6-0.9l3.4-2.2H217.7z"/>
			</g>
		</g>
		<path id="Rectangle_61-3" class="st8" d="M48,355.5h20c1.7,0,3,1.3,3,3v20c0,1.7-1.3,3-3,3H48c-1.7,0-3-1.3-3-3v-20
			C45,356.8,46.3,355.5,48,355.5z"/>
		<path id="Path_1084" class="st2" d="M66.1,357.3c-2,0-4.1,1.9-4.2,4.9c0,0.2,0.2,0.5,0.4,0.5c0.2,0,0.4-0.2,0.5-0.4
			c0-2.4,1.7-4,3.3-4c1.1-0.1,2.1,0.7,2.2,1.8c0,0.1,0,0.2,0,0.4c0,1.5-1.6,2.9-3.1,3.6c-0.6,0.3-1.1,0.5-1.7,0.6l-0.1-0.7
			c0-0.3-0.3-0.6-0.7-0.7l-5.6-0.6c-0.2,0-0.4,0.1-0.6,0.2l-9.5,9.5c-0.2,0.2-0.2,0.6,0,0.9c0,0,0,0,0,0l0,0l6.4,6.4
			c0.2,0.2,0.6,0.2,0.9,0c0,0,0,0,0,0l0,0l9.5-9.5c0.2-0.2,0.2-0.4,0.2-0.6l-0.3-3.1c-0.5,0.1-1,0.2-1.5,0.2c-0.1,0-0.2,0-0.4-0.1
			c-0.6,0.4-1.3,0.2-1.7-0.4c-0.4-0.6-0.2-1.3,0.4-1.7c0.6-0.4,1.3-0.2,1.7,0.3c-0.1,0-0.1,0-0.2,0c-0.1,0-0.1,0-0.2,0
			c-0.2-0.1-0.5,0-0.6,0.2s0,0.5,0.2,0.6c0.2,0.1,0.3,0.1,0.5,0.1c0.1,0,0.1,0,0.2,0c1.2-0.1,2.4-0.4,3.5-0.9
			c2.3-1.1,3.7-2.7,3.7-4.4c0.1-1.6-1.1-3-2.7-3C66.3,357.3,66.2,357.3,66.1,357.3z M58.4,371.6L58.4,371.6l-1.3,0.1v-0.1
			c0-0.6-0.2-1.2-0.6-1.7c-0.3-0.4-0.9-0.5-1.4-0.2c-0.3,0.3-0.2,0.9,0.2,1.7c0.8,1.8,0.4,2.7,0,3.2c-0.8,0.7-1.9,0.7-2.7,0.2
			l-0.7,0.7l-0.9-0.9l0.7-0.7c-0.4-0.6-0.6-1.3-0.6-2v-0.1l1.3-0.1v0.1c0,0.6,0.2,1.2,0.6,1.7c0.3,0.4,0.9,0.5,1.4,0.2
			c0.3-0.3,0.2-0.9-0.2-1.7c-0.8-1.8-0.4-2.7,0-3.2c0.8-0.7,1.9-0.7,2.7-0.2l0.7-0.7l0.9,0.9l-0.7,0.7
			C58.2,370.2,58.4,370.9,58.4,371.6z"/>
	</g>
	<g id="Group_58" transform="translate(-14 -177)">
		<path id="Path_1053-4" class="st0" d="M28,343.5h347v49H28V343.5z"/>
		<g class="st1">
			<path class="st2" d="M99.4,374.1v1.1h-11v-1.1h4.7v-1.2h-3.3v-1.1h3.3v-1.1h-2.8c-0.4,0.7-0.9,1.4-1.5,1.9
				c-0.1-0.3-0.4-0.9-0.7-1.2c-0.1,1.5-0.5,3.3-1.6,4.5c-0.2-0.3-0.8-0.8-1.1-0.9c1.2-1.4,1.3-3.5,1.3-5v-2.9h1.9
				c-0.2-0.2-0.4-0.5-0.6-0.6c1.1-0.2,2.4-0.5,3.7-0.8c-1.1-0.3-2.2-0.6-3.1-0.8l0.8-0.6h-2.5v-1.1h5.3c-0.2-0.3-0.5-0.7-0.7-1
				l1-0.5c0.4,0.4,0.8,1,1.1,1.4h5.1v1.1h-2.2l0.7,0.4c-0.6,0.3-1.3,0.6-2.1,0.9c1,0.3,1.9,0.6,2.7,0.8l-0.7,0.6h2.2v1.1h-11v1.8
				c0,0.4,0,0.9-0.1,1.4c0.8-0.8,1.5-1.8,1.9-3l1.2,0.3c-0.1,0.3-0.2,0.6-0.4,0.8h2.2v-1.1h1.4v1.1h3.9v1.1h-3.9v1.1H98v1.1h-3.5
				v1.2H99.4z M96.3,367.1c-0.8-0.3-1.8-0.6-2.9-0.9c-1.2,0.4-2.5,0.7-3.7,0.9H96.3z M90.1,364.3c1.1,0.3,2.3,0.6,3.4,0.9
				c0.9-0.3,1.7-0.6,2.3-0.9H90.1z"/>
			<path class="st2" d="M101.2,369.1h5.4v6.5h-1.4v-0.7h-2.7v0.8h-1.3V369.1z M102.6,370.5v3.1h2.7v-3.1H102.6z M111.7,367.7h-8.4
				v-5.1h8.4V367.7z M110.3,363.9h-5.6v2.4h5.6V363.9z M113.8,369.1v6.5h-1.4v-0.7h-3v0.8h-1.3v-6.6H113.8z M112.4,373.6v-3.1h-3
				v3.1H112.4z"/>
		</g>
		<path id="Rectangle_61-4" class="st9" d="M48,355.5h20c1.7,0,3,1.3,3,3v20c0,1.7-1.3,3-3,3H48c-1.7,0-3-1.3-3-3v-20
			C45,356.8,46.3,355.5,48,355.5z"/>
		<g id="Group_61" transform="translate(32 346)">
			<path id="Path_1078" class="st2" d="M22.1,23.7c2.4,0,4.3-1.9,4.3-4.3c0-2.4-1.9-4.3-4.3-4.3c-2.4,0-4.3,1.9-4.3,4.3c0,0,0,0,0,0
				C17.8,21.7,19.7,23.7,22.1,23.7z M22.1,15.8c2,0,3.5,1.6,3.5,3.5c0,2-1.6,3.5-3.5,3.5c-2,0-3.5-1.6-3.5-3.5c0,0,0,0,0,0l0,0
				C18.5,17.4,20.1,15.8,22.1,15.8z"/>
			<rect id="Rectangle_62" x="21.7" y="24.5" class="st2" width="0.8" height="1.2"/>
			<path id="Path_1079" class="st2" d="M24.4,28.8c0.2,0,0.4-0.2,0.4-0.4c0-0.2-0.2-0.4-0.4-0.4h-2.4v-0.8h1.6
				c0.2,0,0.4-0.2,0.4-0.4v-0.4h-3.3l-2.2,1.9c-0.1,0.1-0.2,0.1-0.3,0.1H15v4.3h2.4v-0.8h0.8v0.8c0.1,0,0.2,0.1,0.3,0.1
				c0.4,0.4,0.9,0.7,1.4,0.7h3.8c0.2,0,0.4-0.2,0.4-0.4c0-0.2-0.2-0.4-0.4-0.4c0,0,0,0,0,0h-0.4v-0.8h1.2c0.2,0,0.4-0.2,0.4-0.4
				c0-0.2-0.2-0.4-0.4-0.4h-1.2v-0.8h1.2c0.2,0,0.4-0.2,0.4-0.4c0-0.2-0.2-0.4-0.4-0.4h-1.2v-0.8L24.4,28.8z"/>
			<path id="Path_1080" class="st2" d="M27.2,19.4c0,2.1-1.2,3.9-3.1,4.7h3.5v-8.3h-1.8C26.7,16.8,27.2,18,27.2,19.4z"/>
			<path id="Path_1081" class="st2" d="M22.1,22.1c1.5,0,2.8-1.2,2.8-2.8c0-1.5-1.2-2.8-2.8-2.8c-1.5,0-2.8,1.2-2.8,2.8
				C19.3,20.9,20.6,22.1,22.1,22.1z M23.2,18.2H24v2.4h-0.8V18.2z M21.7,18.2h0.8v2.4h-0.8V18.2z M20.1,18.2h0.8v2.4h-0.8V18.2z"/>
			<rect id="Rectangle_63" x="31.9" y="11.5" class="st2" width="5.1" height="3.5"/>
			<path id="Path_1082" class="st2" d="M22.5,14.3c0.8,0.1,1.6,0.3,2.3,0.8h2.8v-3.5h-5.1V14.3z"/>
			<rect id="Rectangle_64" x="28.4" y="11.5" class="st2" width="2.8" height="3.5"/>
			<rect id="Rectangle_65" x="31.9" y="15.8" class="st2" width="4.3" height="8.2"/>
			<rect id="Rectangle_66" x="28.4" y="15.8" class="st2" width="2.8" height="8.2"/>
		</g>
	</g>
	<g id="Group_59" transform="translate(-14 -125)">
		<path id="Path_1053-5" class="st0" d="M28,343.5h347v49H28V343.5z"/>
		<g class="st1">
			<path class="st2" d="M89.7,362.3c-0.3,1-0.7,2-1.1,3v10.4h-1.3v-7.8c-0.3,0.6-0.7,1-1.1,1.5c-0.1-0.3-0.5-1.1-0.7-1.5
				c1.2-1.5,2.3-3.7,2.9-5.9L89.7,362.3z M92.9,367.1c-0.2,0.4-0.5,0.7-0.7,1h6.4v6.2c0,0.6-0.1,0.9-0.5,1.1
				c-0.4,0.2-0.9,0.2-1.6,0.2c-0.1-0.3-0.2-0.8-0.4-1.1c0.4,0,0.9,0,1,0c0.1,0,0.2-0.1,0.2-0.2v-0.9h-2.1v1.9h-1.3v-1.9h-2.3
				c-0.2,0.8-0.5,1.7-1,2.3c-0.2-0.2-0.8-0.7-1.1-0.8c0.9-1.2,1-2.7,1-4v-1.3c-0.4,0.3-0.7,0.6-1.1,0.8c-0.1-0.3-0.6-0.9-0.8-1.1
				c1-0.5,2-1.4,2.7-2.3h-1.9v-1.3H92v-1.2h-2.2v-1.3H92V362h1.3v1.3h2.2V362h1.3v1.3h1.9v1.3h-1.9v1.2h2.3v1.3H92.9z M93.9,372.4
				v-1.1h-2c0,0.3,0,0.7-0.1,1.1H93.9z M91.9,370.3h2v-1.1h-2V370.3z M93.3,365.8h2.2v-1.2h-2.2V365.8z M97.3,369.2h-2.1v1.1h2.1
				V369.2z M97.3,372.4v-1.1h-2.1v1.1H97.3z"/>
			<path class="st2" d="M103.6,364.2h2.6v1.1h-5.6v-1.1h2.7c-0.2-0.5-0.6-1.2-0.9-1.8l1-0.5c0.4,0.5,0.9,1.3,1,1.8L103.6,364.2z
				 M101.2,368.5h4.7v1.1h-4.7V368.5z M105.9,366.4v1.1h-4.5v-1.1H105.9z M105.9,374.8h-3.2v0.7h-1.3v-4.9h4.5V374.8z M102.7,371.6
				v2.1h1.9v-2.1H102.7z M114.4,373.8v1.3h-7.9v-1.3h3.1v-3.5h-2.6v-1.3h2.6V366h-2.9v-1.3h3.4c-0.3-0.6-0.9-1.6-1.4-2.2l1.1-0.6
				c0.6,0.7,1.3,1.6,1.5,2.3l-1,0.6h3.8v1.3h-3.1v2.9h2.8v1.3h-2.8v3.5H114.4z"/>
		</g>
		<path id="Path_1083" class="st10" d="M48,355.5h20c1.7,0,3,1.3,3,3v20c0,1.7-1.3,3-3,3H48c-1.7,0-3-1.3-3-3v-20
			C45,356.8,46.3,355.5,48,355.5z"/>
		<g id="Group_62" transform="translate(25 338.83)">
			<path id="Path_1083-2" class="st2" d="M25.1,23.3H24v1.1h1.1v1.1H24v1.1h1.1v1.1H24V29h1.1v1.1H24v1.1h1.1v1.1H24v1.1h1.1v1.1H24
				v1.1h1.1v2.8h17V20.5h-17V23.3z M37.5,36.3c-0.4,0.4-1,0.7-1.6,0.7V35c0.7,0.2,1.5,0.2,2.2,0C38.1,35.5,37.8,35.9,37.5,36.3z
				 M39.3,34.6V22.2h1.1V37h-2C39,36.3,39.3,35.5,39.3,34.6z M26.8,35.8H28v-1.1h-1.1v-1.1H28v-1.1h-1.1v-1.1H28v-1.1h-1.1V29H28
				v-1.1h-1.1v-1.1H28v-1.1h-1.1v-1.1H28v-1.1h-1.1v-1.1h11.4v11.6c-0.8,0.4-1.8,0.4-2.5-0.1l-0.9-0.6V37h-8V35.8z"/>
			<rect id="Rectangle_67" x="29.1" y="24.5" class="st2" width="7.9" height="1.1"/>
			<rect id="Rectangle_68" x="29.1" y="26.7" class="st2" width="7.9" height="1.1"/>
			<rect id="Rectangle_69" x="29.1" y="29" class="st2" width="7.9" height="1.1"/>
			<rect id="Rectangle_70" x="29.1" y="31.3" class="st2" width="7.9" height="1.1"/>
			<rect id="Rectangle_71" x="29.1" y="33.6" class="st2" width="4.5" height="1.1"/>
		</g>
	</g>
</g>
</svg>
