<?xml version="1.0" encoding="utf-8"?>
<!-- Generator: Adobe Illustrator 23.0.6, SVG Export Plug-In . SVG Version: 6.00 Build 0)  -->
<svg version="1.1" id="圖層_1" xmlns="http://www.w3.org/2000/svg" xmlns:xlink="http://www.w3.org/1999/xlink" x="0px" y="0px"
	 viewBox="0 0 375 670" style="enable-background:new 0 0 375 670;" xml:space="preserve">
<style type="text/css">
	.st0{fill:#4A4B4B;}
	.st1{enable-background:new    ;}
	.st2{fill:#FFFFFF;}
	.st3{fill:#DCDCDC;}
	.st4{fill:#ACACAC;}
	.st5{fill:#717070;}
	.st6{fill:none;}
	.st7{fill-rule:evenodd;clip-rule:evenodd;fill:#FFFFFF;}
</style>
<g>
	<rect id="Rectangle_75" x="24" y="472.8" class="st0" width="327" height="43"/>
	<g class="st1">
		<path class="st2" d="M29,12.7v1.7h2.5v1H29v1.9h3.1v1.1h-1.4c-0.1,0.8-0.3,1.6-0.5,2.3h1.4v1H29v1.9h3.1v1.1H29v2.8h-1.1v-2.8
			h-3.2v-1.1h3.2v-1.9h-2.6v-1h1.4c-0.2-0.8-0.3-1.6-0.5-2.3h-1.4v-1.1h3.1v-1.9h-2.5v-1h2.5v-1.7H29z M29.7,18.4h-2.5
			c0.2,0.7,0.4,1.4,0.5,2.3h1.4C29.4,19.9,29.5,19.2,29.7,18.4z M33.6,27.4h-1.1v-14h6.1c0,1.8-0.1,3-0.3,3.6
			c-0.2,0.6-0.8,0.9-1.8,0.9h-1.1l-0.3-1c0.2,0,0.5,0,0.8,0c0.4,0,0.7,0,0.8-0.1c0.2-0.1,0.3-0.2,0.4-0.4c0.1-0.3,0.2-1,0.2-2h-3.9
			v4.7h5.1v1c-0.3,1.8-0.8,3.2-1.6,4.5c0.6,0.7,1.4,1.4,2.3,1.9l-0.8,0.9c-0.8-0.6-1.6-1.3-2.1-1.9c-0.6,0.8-1.4,1.5-2.3,2l-0.6-1
			c0.8-0.5,1.6-1.1,2.1-1.9c-1-1.3-1.6-2.8-1.8-4.4h-0.4V27.4z M36.4,23.6c0.6-1,1-2.2,1.2-3.5H35C35.2,21.4,35.7,22.6,36.4,23.6z"
			/>
		<path class="st2" d="M45.4,13.2c-0.3,1-0.7,2-1.2,2.9v11.3h-1.1v-9.4c-0.6,0.8-1.2,1.6-1.9,2.4l-0.3-1.2c1.6-1.9,2.8-4.1,3.5-6.5
			L45.4,13.2z M49.5,26c-0.9,0.5-2.2,1-3.9,1.3l-0.5-0.8c1.7-0.3,3-0.7,3.9-1.2L49.5,26z M55.5,13.3v1h-3.2v1h2.5v3.1H46v-3.1h2.6
			v-1h-2.8v-1H55.5z M54.4,19.2v6h-7.9v-6H54.4z M48.7,16.2H47v1.4h1.7V16.2z M53.4,21v-1h-5.8v1H53.4z M53.4,22.7v-0.9h-5.8v0.9
			H53.4z M53.4,23.4h-5.8v1h5.8V23.4z M51.3,14.3h-1.7v1h1.7V14.3z M51.3,16.2h-1.7v1.4h1.7V16.2z M55.6,26.5l-0.4,0.9
			c-1.2-0.6-2.5-1-3.9-1.4l0.4-0.7C53.1,25.6,54.4,26,55.6,26.5z M53.8,16.2h-1.7v1.4h1.7V16.2z"/>
		<path class="st2" d="M62,16.5v1h-4.6v-1H62z M63.1,25.9c-1.2,0.6-2.9,1.2-5.1,1.6l-0.5-0.9c2.2-0.4,3.9-0.8,5.1-1.4L63.1,25.9z
			 M61.7,13.6v1h-3.9v-1H61.7z M69.7,18.7V25H59.3v-6.3H69.7z M68.5,20.6v-1h-8.1v1H68.5z M68.5,22.3v-0.9h-8.1v0.9H68.5z
			 M68.5,23.1h-8.1v1h8.1V23.1z M62.7,16.4L62,15.5c1.2-0.8,2-1.7,2.4-2.9l1.1,0.1c-0.1,0.3-0.2,0.6-0.4,0.8h5.7v0.8
			c-0.4,0.8-0.9,1.5-1.4,2.1l-0.8-0.6c0.4-0.4,0.7-0.8,1-1.3h-5.1C64,15.3,63.4,15.8,62.7,16.4z M67.4,15.1
			c-0.1,0.3-0.1,0.5-0.2,0.7c1.2,1.2,2.6,1.9,4.4,2.1l-0.5,1c-1.7-0.3-3.2-1-4.4-2.3c-0.8,1.1-2,1.7-3.7,2.1l-0.5-0.8
			c2.2-0.4,3.5-1.4,3.9-3L67.4,15.1z M71.5,26.6l-0.4,0.9c-1.7-0.6-3.5-1.1-5.3-1.5l0.4-0.8C68,25.5,69.8,26,71.5,26.6z"/>
		<path class="st2" d="M75.9,14.8c-0.2-0.6-0.5-1.3-0.8-1.8l1.1-0.3c0.3,0.7,0.5,1.4,0.7,1.9l-0.5,0.2h2.6v1.1h-5.4v-1.1H75.9z
			 M78.5,27.1h-1.1v-0.8H75v0.9H74v-5.5h4.5V27.1z M78.3,17.1v1h-4.2v-1H78.3z M78.3,19.4v1h-4.2v-1H78.3z M77.4,25.3v-2.5H75v2.5
			H77.4z M81.2,19.3v-4.7h-1.9v-1.1H86v5c0,3.2,0.2,5.4,0.5,6.7c0.2,0.5,0.3,0.8,0.4,0.8c0.1,0,0.1-0.2,0.2-0.6
			c0-0.4,0.1-1.1,0.1-1.9l0.9,0.4c-0.1,1.5-0.2,2.5-0.4,2.9c-0.2,0.3-0.3,0.5-0.6,0.5c-0.5,0-1-0.4-1.3-1.1c-0.7-1.3-1-3.9-1-7.7
			v-3.9h-2.5v4.7h2v1.1h-2v6.9h-1.1v-6.9h-1.9v-1.1H81.2z"/>
	</g>
	<g class="st1">
		<path class="st3" d="M28.7,31.7v1.6H31v1h-2.3V36h2.9v1h-1.3c-0.1,0.8-0.3,1.5-0.5,2.1H31v1h-2.4v1.8h2.9v1h-2.9v2.6h-1.1v-2.6h-3
			v-1h3v-1.8h-2.4v-1h1.3c-0.1-0.8-0.3-1.5-0.5-2.1h-1.3v-1h2.9v-1.8h-2.4v-1h2.4v-1.6H28.7z M29.3,37H27c0.2,0.6,0.3,1.3,0.5,2.1
			h1.3C29,38.4,29.2,37.7,29.3,37z M33,45.4h-1V32.3h5.7c0,1.7-0.1,2.8-0.3,3.4c-0.2,0.6-0.7,0.8-1.7,0.8h-1l-0.3-0.9
			c0.2,0,0.5,0,0.8,0c0.4,0,0.6,0,0.8-0.1c0.2-0.1,0.3-0.2,0.4-0.3c0.1-0.3,0.2-0.9,0.2-1.9H33v4.4h4.8v0.9c-0.3,1.7-0.8,3-1.5,4.2
			c0.6,0.7,1.3,1.3,2.1,1.8l-0.7,0.8c-0.8-0.6-1.5-1.2-2-1.8c-0.6,0.8-1.3,1.4-2.2,1.9L33,44.5c0.8-0.5,1.5-1,2-1.8
			c-0.9-1.3-1.5-2.6-1.7-4.1H33V45.4z M35.6,41.9c0.5-0.9,0.9-2,1.2-3.3h-2.4C34.5,39.8,34.9,40.9,35.6,41.9z"/>
		<path class="st3" d="M44,32.1c-0.3,1-0.7,1.9-1.1,2.8v10.6h-1v-8.8c-0.5,0.8-1.1,1.5-1.7,2.2l-0.3-1.1c1.5-1.8,2.6-3.8,3.3-6.1
			L44,32.1z M47.9,44.2c-0.8,0.5-2.1,0.9-3.6,1.2l-0.5-0.8c1.6-0.3,2.8-0.7,3.6-1.1L47.9,44.2z M53.5,32.3v0.9h-3v1h2.4V37h-8.3
			v-2.9h2.5v-1h-2.6v-0.9H53.5z M52.5,37.8v5.7h-7.4v-5.7H52.5z M47.2,35h-1.6v1.3h1.6V35z M51.5,39.5v-0.9H46v0.9H51.5z M51.5,41
			v-0.9H46V41H51.5z M51.5,41.7H46v0.9h5.5V41.7z M49.6,33.2H48v1h1.6V33.2z M49.6,35H48v1.3h1.6V35z M53.7,44.6l-0.3,0.8
			c-1.2-0.5-2.4-1-3.6-1.3l0.3-0.7C51.3,43.7,52.5,44.1,53.7,44.6z M52,35h-1.6v1.3H52V35z"/>
		<path class="st3" d="M56.4,41.8c-0.1,1.3-0.2,2.5-0.5,3.5L55,45c0.3-1,0.4-2.1,0.5-3.3L56.4,41.8z M60.2,40.7l-0.8,0.2
			c-0.1-0.3-0.1-0.6-0.2-0.9c-1.3,0.4-2.4,0.6-3.6,0.8l-0.3-0.9c0.2-0.1,0.3-0.2,0.4-0.3c0.5-0.6,1.1-1.5,1.8-2.8
			c-0.7,0.1-1.4,0.2-2.1,0.3l-0.2-0.9c0.1-0.1,0.3-0.2,0.4-0.4c0.7-1.2,1.2-2.6,1.7-4.2l1,0.4c-0.7,1.8-1.3,3.1-2,4.2
			c0.6-0.1,1.2-0.1,1.7-0.3c0.3-0.6,0.6-1.3,1-2l0.9,0.4c-1.3,2.6-2.4,4.4-3.2,5.5c0.8-0.1,1.5-0.3,2.3-0.5
			c-0.1-0.5-0.3-0.9-0.4-1.4l0.8-0.3C59.6,38.5,59.9,39.5,60.2,40.7z M58.3,44.6l-0.9,0.2c-0.1-1.2-0.2-2.2-0.4-3.1l0.8-0.2
			C58,42.5,58.2,43.5,58.3,44.6z M60,43.4c0.5-1.6,0.7-3.5,0.8-5.8v-5.2c2.6,0,4.9-0.3,7-0.7l0.5,0.8c-1.9,0.4-4.1,0.6-6.5,0.6v0.9
			h6.6v3h-6.6v0.4c-0.1,3.3-0.6,5.8-1.5,7.8l-0.7-0.7c0.1-0.3,0.3-0.7,0.4-1.1l-0.7,0.2c-0.2-0.8-0.4-1.6-0.6-2.4l0.8-0.2
			C59.6,41.9,59.8,42.6,60,43.4z M67.4,36.3v-1.2h-5.7v1.2H67.4z M66.9,45.4l-0.2-0.8l0.4,0c0.3,0,0.4-0.1,0.4-0.4v-2.2h-1.1v3.1
			h-0.7v-3.1h-1v3.1h-0.7v-3.1h-1.1v3.3H62v-7.1h6.3v6.2c0,0.6-0.3,0.9-1,0.9H66.9z M63.9,41.2v-2h-1.1v2H63.9z M64.6,41.2h1v-2h-1
			V41.2z M66.4,41.2h1.1v-2h-1.1V41.2z"/>
		<path class="st3" d="M75.6,37.3v1h-2.9c-0.1,0.6-0.3,1.2-0.5,1.8H75c0,2.8-0.3,4.4-0.8,4.8c-0.4,0.3-1.1,0.5-2.4,0.5h-0.2l-0.3-1
			c0.2,0,0.4,0,0.5,0c0.8,0,1.3-0.1,1.5-0.3c0.3-0.2,0.5-1.2,0.5-3.1h-3c0.3-1,0.5-1.9,0.7-2.7h-1.3v-1H75.6z M75.2,32.3v4h-4.3v-4
			H75.2z M74.2,33.2h-2.3v2.2h2.3V33.2z M80.2,31.6v0.9h3.1v0.9h-3.1v1.1h3.4V35c-0.1,0.7-0.3,1.5-0.6,2.2l-1-0.3
			c0.2-0.4,0.4-0.9,0.5-1.5h-2.3v1.3l1.7-0.2l0.2,0.9l-1.9,0.3v0.8c0,0.3,0.1,0.4,0.5,0.4h2.6v0.9h-2.8c-0.8,0-1.2-0.4-1.2-1.1v-0.8
			L77.8,38l-0.1-0.9l1.6-0.2v-1.5h-2v3.4c0,2.6-0.4,4.8-1.4,6.6L75,44.7c0.8-1.5,1.1-3.5,1.2-5.8v-4.4h3v-2.9H80.2z M79.4,40.3
			c0,2.5-0.6,4.3-1.6,5.2L77,44.8c0.9-0.8,1.4-2.3,1.5-4.6H79.4z M82,45.2c-0.9,0-1.3-0.4-1.3-1.1v-3.8h1v3.6c0,0.2,0.1,0.3,0.4,0.3
			h0.6c0.3,0,0.4-0.2,0.4-0.4c0-0.3,0.1-0.9,0.1-1.6l0.9,0.3c0,1.2-0.1,2-0.3,2.2c-0.2,0.3-0.5,0.4-1.1,0.4H82z"/>
	</g>
	<g id="Group_64" transform="translate(-24.5 -467)">
		<g class="st1">
			<path class="st4" d="M53.1,624.4c-0.1-0.4-0.4-1-0.7-1.6v7.2h-1.2v-6.5c-0.4,1.3-0.8,2.5-1.2,3.3c-0.1-0.4-0.4-1-0.6-1.4
				c0.7-1.1,1.4-3.3,1.7-5.1h-1.4V619h1.5v-2.8h1.2v2.8h1.1v1.3h-1.1v0.8c0.3,0.5,1.2,1.9,1.4,2.2L53.1,624.4z M62.4,625.4
				c-0.4,0.9-1,1.6-1.7,2.3c0.4,0.5,0.8,0.8,1.3,0.8c0.3,0,0.5-0.5,0.6-1.6c0.2,0.3,0.7,0.6,0.9,0.7c-0.3,1.8-0.8,2.3-1.5,2.2
				c-0.9-0.1-1.7-0.6-2.3-1.4c-0.8,0.5-1.6,1-2.5,1.3c-0.2-0.3-0.5-0.7-0.7-0.9c1-0.4,1.9-0.9,2.7-1.5c-0.3-0.7-0.6-1.6-0.8-2.6
				h-2.3c0,0.2,0,0.3,0,0.5c0.7,0.5,1.6,1.3,2,1.7l-0.9,0.8c-0.3-0.3-0.8-0.8-1.3-1.3c-0.3,1.2-0.9,2.3-2.1,3.3
				c-0.2-0.2-0.7-0.7-0.9-0.8c1.7-1.3,2.1-2.9,2.1-4.2h-1v-1.1h4.3c-0.3-2.1-0.5-4.7-0.6-7.6h1.2c0.1,2.9,0.3,5.5,0.6,7.6h1.8
				c-0.3-0.3-0.7-0.6-1.1-0.8l0.6-0.6c-0.7,0.1-0.9,0.2-1.1,0.3c-0.1-0.2-0.2-0.8-0.3-1c0.2-0.1,0.5-0.3,0.7-0.7
				c0.1-0.2,0.5-0.6,0.8-1.2c-1,0.1-1.2,0.2-1.4,0.3c-0.1-0.2-0.2-0.7-0.3-1c0.2,0,0.3-0.2,0.5-0.5c0.2-0.3,0.7-1.3,1-2.3l1,0.3
				c-0.3,0.8-0.8,1.7-1.2,2.4l0.9-0.1c0.2-0.3,0.3-0.6,0.5-1l1,0.4c-0.6,1.2-1.4,2.3-2.1,3.3l1.2-0.1c-0.1-0.3-0.2-0.5-0.3-0.8
				l0.8-0.2c0.3,0.7,0.6,1.6,0.8,2.2l-0.9,0.3c0-0.2-0.1-0.4-0.2-0.6c-0.6,0.1-1,0.1-1.4,0.2c0.5,0.3,1.1,0.7,1.4,1l-0.4,0.4H63v1.1
				h-3.5c0.2,0.6,0.3,1.2,0.5,1.7c0.5-0.5,0.9-1.1,1.2-1.7L62.4,625.4z M56.8,623.1c0-0.2-0.1-0.4-0.1-0.6c-2,0.3-2.3,0.4-2.5,0.5
				c-0.1-0.2-0.2-0.7-0.3-1c0.2,0,0.5-0.3,0.8-0.7c0.1-0.2,0.5-0.6,0.8-1.2c-1,0.1-1.2,0.2-1.4,0.3c-0.1-0.2-0.2-0.7-0.3-1
				c0.2,0,0.4-0.2,0.6-0.5c0.2-0.3,0.8-1.4,1.1-2.5l1,0.3c-0.4,0.9-0.9,1.9-1.4,2.6l0.9-0.1c0.2-0.3,0.3-0.6,0.5-1l1,0.4
				c-0.6,1.2-1.4,2.3-2.2,3.2l1.2-0.2c-0.1-0.3-0.2-0.6-0.3-0.8l0.8-0.2c0.3,0.7,0.6,1.6,0.7,2.2L56.8,623.1z"/>
			<path class="st4" d="M72.5,616.6c-0.1,0.1-0.1,0.2-0.2,0.3c1.4,1.3,3.9,2.4,6.3,2.9c-0.3,0.2-0.7,0.7-0.9,1.1
				c-0.4-0.1-0.8-0.2-1.1-0.4v3.9H66.4v-3.8c-0.4,0.1-0.7,0.3-1.1,0.4c-0.1-0.3-0.5-0.8-0.8-1.1c2.7-0.7,5.4-2,6.7-3.8L72.5,616.6z
				 M76.5,620.5c-0.8-0.3-1.6-0.6-2.4-1.1v0.4h-5.2v-0.4c-0.7,0.4-1.4,0.7-2.2,1H76.5z M67.3,625h8.5v4.9h-1.4v-0.4h-5.7v0.5h-1.4
				V625z M69.3,621.5c0.3,0.5,0.7,1.2,0.8,1.6l-1,0.3h1.8v-2.1h-3.3v2.1h1.4c-0.1-0.5-0.4-1.2-0.7-1.7L69.3,621.5z M68.7,625.9v0.8
				h5.7v-0.8H68.7z M74.4,628.5v-0.8h-5.7v0.8H74.4z M73.2,618.9c-0.6-0.4-1.2-0.8-1.6-1.3c-0.5,0.5-1,0.9-1.6,1.3H73.2z
				 M75.3,621.4H72v2.1h1.7l-0.9-0.3c0.3-0.5,0.6-1.2,0.8-1.8l1.2,0.3c-0.3,0.6-0.7,1.3-0.9,1.7h1.6V621.4z"/>
			<path class="st4" d="M91.7,630h-1.4v-0.7h-6.2v0.7h-1.4v-4.8c-0.8,0.3-1.6,0.5-2.4,0.7c-0.1-0.4-0.5-1-0.7-1.3
				c1.9-0.4,3.7-1,5.4-1.9c-0.7-0.7-1.7-1.5-2.6-2.2c-0.5,0.3-1,0.6-1.5,0.9c-0.2-0.3-0.6-0.9-1-1.1c2.4-1.1,4.1-2.7,5-4.1l1.6,0.3
				c-0.3,0.4-0.6,0.8-0.9,1.2h4.9l0.2-0.1l1,0.6c-1.1,2.3-3.1,4.1-5.4,5.4h5.4V630z M84.4,618.9c-0.3,0.2-0.5,0.5-0.8,0.7
				c0.9,0.7,2.1,1.6,2.8,2.2c1.3-0.8,2.4-1.8,3.2-2.9H84.4z M90.3,628v-3.1h-6.2v3.1H90.3z"/>
			<path class="st4" d="M99.2,625.3c-0.2-0.4-0.7-1-1.1-1.6v6.3h-1.3v-5.8c-0.4,1.3-1,2.5-1.6,3.3c-0.1-0.4-0.5-1-0.7-1.3
				c0.8-1,1.6-2.8,2.1-4.4h-1.8v-1.3h2.1v-2.1c-0.6,0.1-1.2,0.2-1.8,0.3c-0.1-0.3-0.2-0.8-0.4-1c1.5-0.3,3.3-0.7,4.3-1.2l1,1
				c-0.5,0.2-1.2,0.4-1.8,0.6v2.4h1.8v1.2h-1.8v0.6c0.4,0.4,1.6,1.6,1.9,1.9L99.2,625.3z M108.5,627.1h-0.8v1.4c0,0.6-0.1,1-0.6,1.2
				c-0.4,0.2-1.1,0.2-2,0.2c-0.1-0.4-0.3-0.9-0.4-1.2c0.6,0,1.3,0,1.5,0c0.2,0,0.3-0.1,0.3-0.2v-1.4h-4.7v2.8h-1.3v-2.8h-1.1V626
				h1.1v-4.5h2.9v-0.7h1.3v0.7h3.1v4.5h0.8V627.1z M107.9,617.3c-2,0.6-5,1-7.5,1.2c0-0.3-0.2-0.8-0.3-1c2.4-0.2,5.4-0.6,7-1.1
				L107.9,617.3z M101.4,621c-0.2-0.6-0.7-1.4-1.1-2l1.1-0.4c0.5,0.6,0.9,1.4,1.2,1.9L101.4,621z M101.7,622.6v1.2h1.6v-1.2H101.7z
				 M101.7,626h1.6v-1.2h-1.6V626z M103.8,620.6c-0.1-0.5-0.5-1.3-0.8-1.9l1.1-0.4c0.4,0.5,0.8,1.3,0.9,1.8L103.8,620.6z
				 M104.6,622.6v1.2h1.8v-1.2H104.6z M106.4,626v-1.2h-1.8v1.2H106.4z M107.9,618.3c-0.4,0.9-1.1,2-1.7,2.6
				c-0.2-0.2-0.8-0.5-1.1-0.6c0.7-0.6,1.2-1.5,1.6-2.3L107.9,618.3z"/>
		</g>
		<g class="st1">
			<path class="st2" d="M49.9,651.9c0-3.8,2.4-6.1,5.5-6.1c1.7,0,2.8,0.7,3.5,1.5l-1,1.2c-0.6-0.6-1.3-1.1-2.4-1.1
				c-2.2,0-3.6,1.7-3.6,4.5c0,2.8,1.3,4.5,3.7,4.5c0.7,0,1.4-0.2,1.9-0.6V653h-2.3v-1.5h4v5.1c-0.8,0.8-2.1,1.4-3.7,1.4
				C52.2,658,49.9,655.8,49.9,651.9z"/>
			<path class="st2" d="M61.6,655.7V645h1.8v10.8c0,0.5,0.2,0.7,0.4,0.7c0.1,0,0.1,0,0.3,0l0.2,1.4c-0.2,0.1-0.5,0.1-1,0.1
				C62.1,658,61.6,657.1,61.6,655.7z"/>
			<path class="st2" d="M65.8,653.4c0-2.9,2-4.6,4.1-4.6s4.1,1.7,4.1,4.6c0,2.9-2,4.6-4.1,4.6S65.8,656.3,65.8,653.4z M72.2,653.4
				c0-1.9-0.9-3.1-2.3-3.1c-1.4,0-2.2,1.2-2.2,3.1c0,1.9,0.9,3.1,2.2,3.1C71.3,656.5,72.2,655.3,72.2,653.4z"/>
			<path class="st2" d="M77.9,656.9L77.9,656.9l-0.2,0.9h-1.4V645H78v3.4l0,1.5c0.8-0.7,1.7-1.2,2.6-1.2c2.2,0,3.5,1.8,3.5,4.5
				c0,3-1.8,4.8-3.8,4.8C79.5,658,78.6,657.6,77.9,656.9z M82.2,653.3c0-1.8-0.6-3-2.1-3c-0.7,0-1.4,0.4-2.1,1.1v4.3
				c0.7,0.6,1.4,0.8,1.9,0.8C81.2,656.5,82.2,655.3,82.2,653.3z"/>
			<path class="st2" d="M85.5,655.4c0-1.9,1.6-2.9,5.3-3.3c0-1-0.4-1.9-1.7-1.9c-0.9,0-1.8,0.4-2.5,0.9l-0.7-1.2
				c0.9-0.6,2.1-1.2,3.6-1.2c2.2,0,3.2,1.4,3.2,3.7v5.3h-1.5l-0.2-1h0c-0.8,0.7-1.7,1.2-2.8,1.2C86.6,658,85.5,657,85.5,655.4z
				 M90.8,655.5v-2.2c-2.6,0.3-3.5,1-3.5,2c0,0.9,0.6,1.2,1.4,1.2C89.4,656.5,90.1,656.2,90.8,655.5z"/>
			<path class="st2" d="M95.2,655.7V645H97v10.8c0,0.5,0.2,0.7,0.4,0.7c0.1,0,0.1,0,0.3,0l0.2,1.4c-0.2,0.1-0.5,0.1-1,0.1
				C95.7,658,95.2,657.1,95.2,655.7z"/>
			<path class="st2" d="M103.8,646h2.1l2.2,6c0.3,0.8,0.5,1.6,0.8,2.4h0.1c0.3-0.8,0.5-1.6,0.8-2.4l2.1-6h2.1v11.8h-1.7V652
				c0-1.1,0.1-2.6,0.2-3.6h-0.1l-0.9,2.7l-2,5.6h-1.2l-2.1-5.6l-0.9-2.7h-0.1c0.1,1.1,0.2,2.6,0.2,3.6v5.8h-1.7V646z"/>
			<path class="st2" d="M116.2,653.4c0-2.9,2-4.6,4-4.6c2.3,0,3.6,1.7,3.6,4.2c0,0.4,0,0.7-0.1,0.9h-5.7c0.1,1.7,1.2,2.7,2.7,2.7
				c0.8,0,1.5-0.2,2.1-0.7l0.6,1.2c-0.8,0.5-1.8,0.9-3,0.9C118.2,658,116.2,656.3,116.2,653.4z M122.3,652.6c0-1.5-0.7-2.4-2-2.4
				c-1.1,0-2.1,0.8-2.3,2.4H122.3z"/>
			<path class="st2" d="M125.3,653.4c0-2.9,1.8-4.6,3.8-4.6c1,0,1.6,0.4,2.4,1l-0.1-1.5V645h1.8v12.8h-1.5l-0.2-1h0
				c-0.7,0.7-1.6,1.2-2.6,1.2C126.7,658,125.3,656.3,125.3,653.4z M131.4,655.4v-4.3c-0.7-0.6-1.3-0.8-1.9-0.8
				c-1.2,0-2.2,1.2-2.2,3.1c0,2,0.8,3.1,2.2,3.1C130.1,656.5,130.7,656.1,131.4,655.4z"/>
			<path class="st2" d="M135.7,646.2c0-0.7,0.5-1.1,1.2-1.1c0.7,0,1.2,0.4,1.2,1.1c0,0.6-0.5,1.1-1.2,1.1
				C136.2,647.3,135.7,646.9,135.7,646.2z M136,649h1.8v8.8H136V649z"/>
			<path class="st2" d="M140.1,655.4c0-1.9,1.6-2.9,5.3-3.3c0-1-0.4-1.9-1.7-1.9c-0.9,0-1.8,0.4-2.5,0.9l-0.7-1.2
				c0.9-0.6,2.1-1.2,3.6-1.2c2.2,0,3.2,1.4,3.2,3.7v5.3h-1.5l-0.2-1h0c-0.8,0.7-1.7,1.2-2.8,1.2C141.1,658,140.1,657,140.1,655.4z
				 M145.3,655.5v-2.2c-2.6,0.3-3.5,1-3.5,2c0,0.9,0.6,1.2,1.4,1.2C144,656.5,144.6,656.2,145.3,655.5z"/>
			<path class="st2" d="M152.7,652.6h4.2v1.4h-4.2V652.6z"/>
			<path class="st2" d="M162,656.7c3.5-3.1,5.3-5.4,5.3-7.3c0-1.3-0.7-2.2-2-2.2c-0.9,0-1.7,0.6-2.3,1.3l-1-1c1-1.1,2-1.8,3.6-1.8
				c2.2,0,3.6,1.4,3.6,3.5c0,2.3-1.8,4.6-4.3,7c0.6-0.1,1.3-0.1,1.9-0.1h2.9v1.6H162V656.7z"/>
			<path class="st2" d="M176.7,647.6h-5.5V646h7.6v1.1c-2.8,3.5-3.2,6.1-3.4,10.7h-1.9C173.7,653.5,174.5,650.7,176.7,647.6z"/>
			<path class="st2" d="M180.3,651.8c0-4.1,1.5-6.1,3.8-6.1c2.3,0,3.8,2,3.8,6.1c0,4.1-1.5,6.1-3.8,6.1
				C181.8,658,180.3,655.9,180.3,651.8z M186.2,651.8c0-3.4-0.8-4.6-2-4.6c-1.2,0-2,1.2-2,4.6c0,3.4,0.8,4.7,2,4.7
				C185.3,656.5,186.2,655.3,186.2,651.8z"/>
			<path class="st2" d="M192.6,646h1.9l1.1,6.1l0.6,3.8h0.1c0.3-1.3,0.5-2.5,0.8-3.8l1.5-6.1h1.6l1.5,6.1c0.3,1.2,0.5,2.5,0.8,3.8
				h0.1c0.2-1.3,0.4-2.5,0.6-3.8l1.1-6.1h1.8l-2.3,11.8h-2.3l-1.6-6.5c-0.2-0.9-0.4-1.8-0.5-2.7h-0.1c-0.2,0.9-0.4,1.8-0.5,2.7
				l-1.6,6.5H195L192.6,646z"/>
			<path class="st2" d="M207.7,646.2c0-0.7,0.5-1.1,1.2-1.1c0.7,0,1.2,0.4,1.2,1.1c0,0.6-0.5,1.1-1.2,1.1
				C208.2,647.3,207.7,646.9,207.7,646.2z M208,649h1.8v8.8H208V649z"/>
			<path class="st2" d="M212,653.4c0-2.9,1.8-4.6,3.8-4.6c1,0,1.6,0.4,2.4,1l-0.1-1.5V645h1.8v12.8h-1.5l-0.2-1h0
				c-0.7,0.7-1.6,1.2-2.6,1.2C213.4,658,212,656.3,212,653.4z M218,655.4v-4.3c-0.7-0.6-1.3-0.8-1.9-0.8c-1.2,0-2.2,1.2-2.2,3.1
				c0,2,0.8,3.1,2.2,3.1C216.8,656.5,217.4,656.1,218,655.4z"/>
			<path class="st2" d="M222,659.4c0-0.7,0.5-1.4,1.3-1.9v-0.1c-0.4-0.3-0.8-0.7-0.8-1.5c0-0.7,0.5-1.3,1-1.6v-0.1
				c-0.6-0.5-1.2-1.3-1.2-2.3c0-2,1.6-3.2,3.4-3.2c0.5,0,0.9,0.1,1.3,0.2h3.1v1.4h-1.7c0.3,0.4,0.6,0.9,0.6,1.6c0,1.9-1.5,3-3.3,3
				c-0.4,0-0.8-0.1-1.2-0.3c-0.3,0.3-0.5,0.5-0.5,0.9c0,0.5,0.4,0.9,1.5,0.9h1.6c2.1,0,3.2,0.6,3.2,2.1c0,1.7-1.8,3.1-4.6,3.1
				C223.5,661.7,222,661,222,659.4z M228.5,659c0-0.7-0.6-1-1.6-1h-1.3c-0.4,0-0.8,0-1.2-0.1c-0.5,0.4-0.8,0.8-0.8,1.3
				c0,0.9,0.9,1.4,2.4,1.4C227.4,660.5,228.5,659.8,228.5,659z M227.4,651.9c0-1.2-0.7-1.9-1.7-1.9c-0.9,0-1.7,0.7-1.7,1.9
				c0,1.2,0.8,1.9,1.7,1.9S227.4,653.1,227.4,651.9z"/>
			<path class="st2" d="M231,653.4c0-2.9,2-4.6,4-4.6c2.3,0,3.6,1.7,3.6,4.2c0,0.4,0,0.7-0.1,0.9h-5.7c0.1,1.7,1.2,2.7,2.7,2.7
				c0.8,0,1.5-0.2,2.1-0.7l0.6,1.2c-0.8,0.5-1.8,0.9-3,0.9C232.9,658,231,656.3,231,653.4z M237,652.6c0-1.5-0.7-2.4-2-2.4
				c-1.1,0-2.1,0.8-2.3,2.4H237z"/>
			<path class="st2" d="M240.8,654.9v-4.5h-1.3v-1.4l1.4-0.1l0.2-2.4h1.6v2.4h2.3v1.5h-2.3v4.5c0,1.1,0.4,1.6,1.3,1.6
				c0.3,0,0.7-0.1,0.9-0.2l0.3,1.4c-0.5,0.2-1.1,0.3-1.7,0.3C241.4,658,240.8,656.8,240.8,654.9z"/>
			<path class="st2" d="M245.7,656.8l0.9-1.2c0.8,0.6,1.6,1,2.5,1c1.1,0,1.6-0.5,1.6-1.2c0-0.8-1-1.2-2-1.5
				c-1.2-0.4-2.5-1.1-2.5-2.6c0-1.5,1.2-2.6,3.1-2.6c1.2,0,2.1,0.5,2.9,1l-0.9,1.1c-0.6-0.4-1.2-0.8-2-0.8c-1,0-1.4,0.5-1.4,1.1
				c0,0.8,0.9,1,1.9,1.4c1.2,0.5,2.6,1,2.6,2.7c0,1.5-1.2,2.7-3.3,2.7C247.8,658,246.5,657.5,245.7,656.8z"/>
		</g>
		<rect x="48.5" y="666.8" class="st5" width="327" height="1"/>
	</g>
	<g id="Group_65" transform="translate(-24.5 -391)">
		<g class="st1">
			<path class="st4" d="M54.9,625.5c0,0.5-0.1,0.8-0.3,1c-0.3,0.2-0.6,0.2-1.1,0.2c0-0.3-0.2-0.9-0.3-1.2c0.3,0,0.6,0,0.7,0
				c0.1,0,0.1,0,0.1-0.2v-5.2H53v9.8h-1.2v-9.8H51v6.7h-1V619h1.9v-2.8H53v2.8h1.9V625.5z M62.9,625.3c-0.7,0.5-1.4,1-2.1,1.5
				c0.7,0.8,1.6,1.5,2.5,1.9c-0.3,0.3-0.7,0.8-0.9,1.1c-2-1-3.6-3.1-4.5-5.6h-0.8v4l2.2-0.7c0,0.4,0,0.9,0.1,1.2
				c-2.8,1-3.3,1.2-3.6,1.4c-0.1-0.3-0.4-1-0.7-1.3c0.2-0.2,0.6-0.6,0.6-1.2v-3.4h-0.6V623h1v-6.1h6.6v1.1h-5.3v1h4.7v1h-4.7v1h4.7
				v1h-4.7v1h5.7v1.2h-4c0.3,0.6,0.6,1.2,1,1.7c0.6-0.5,1.3-1.1,1.7-1.5L62.9,625.3z"/>
			<path class="st4" d="M76.6,620.1v6h-1.4v-0.8h-7.4c-0.3,1.7-0.9,3.4-2.2,4.7c-0.2-0.3-0.8-0.8-1.1-1c1.9-1.9,2.1-4.8,2.1-6.9
				v-4.4c3-0.3,6.5-0.8,8.4-1.5l1.1,1.1c-2.2,0.6-5.3,1.1-8.2,1.4v1.4H76.6z M75.2,624v-2.6h-7.1v0.8c0,0.6,0,1.2-0.1,1.9H75.2z"/>
			<path class="st4" d="M91.7,630h-1.4v-0.7h-6.2v0.7h-1.4v-4.8c-0.8,0.3-1.6,0.5-2.4,0.7c-0.1-0.4-0.5-1-0.7-1.3
				c1.9-0.4,3.7-1,5.4-1.9c-0.7-0.7-1.7-1.5-2.6-2.2c-0.5,0.3-1,0.6-1.5,0.9c-0.2-0.3-0.6-0.9-1-1.1c2.4-1.1,4.1-2.7,5-4.1l1.6,0.3
				c-0.3,0.4-0.6,0.8-0.9,1.2h4.9l0.2-0.1l1,0.6c-1.1,2.3-3.1,4.1-5.4,5.4h5.4V630z M84.4,618.9c-0.3,0.2-0.5,0.5-0.8,0.7
				c0.9,0.7,2.1,1.6,2.8,2.2c1.3-0.8,2.4-1.8,3.2-2.9H84.4z M90.3,628v-3.1h-6.2v3.1H90.3z"/>
			<path class="st4" d="M99.2,625.3c-0.2-0.4-0.7-1-1.1-1.6v6.3h-1.3v-5.8c-0.4,1.3-1,2.5-1.6,3.3c-0.1-0.4-0.5-1-0.7-1.3
				c0.8-1,1.6-2.8,2.1-4.4h-1.8v-1.3h2.1v-2.1c-0.6,0.1-1.2,0.2-1.8,0.3c-0.1-0.3-0.2-0.8-0.4-1c1.5-0.3,3.3-0.7,4.3-1.2l1,1
				c-0.5,0.2-1.2,0.4-1.8,0.6v2.4h1.8v1.2h-1.8v0.6c0.4,0.4,1.6,1.6,1.9,1.9L99.2,625.3z M108.5,627.1h-0.8v1.4c0,0.6-0.1,1-0.6,1.2
				c-0.4,0.2-1.1,0.2-2,0.2c-0.1-0.4-0.3-0.9-0.4-1.2c0.6,0,1.3,0,1.5,0c0.2,0,0.3-0.1,0.3-0.2v-1.4h-4.7v2.8h-1.3v-2.8h-1.1V626
				h1.1v-4.5h2.9v-0.7h1.3v0.7h3.1v4.5h0.8V627.1z M107.9,617.3c-2,0.6-5,1-7.5,1.2c0-0.3-0.2-0.8-0.3-1c2.4-0.2,5.4-0.6,7-1.1
				L107.9,617.3z M101.4,621c-0.2-0.6-0.7-1.4-1.1-2l1.1-0.4c0.5,0.6,0.9,1.4,1.2,1.9L101.4,621z M101.7,622.6v1.2h1.6v-1.2H101.7z
				 M101.7,626h1.6v-1.2h-1.6V626z M103.8,620.6c-0.1-0.5-0.5-1.3-0.8-1.9l1.1-0.4c0.4,0.5,0.8,1.3,0.9,1.8L103.8,620.6z
				 M104.6,622.6v1.2h1.8v-1.2H104.6z M106.4,626v-1.2h-1.8v1.2H106.4z M107.9,618.3c-0.4,0.9-1.1,2-1.7,2.6
				c-0.2-0.2-0.8-0.5-1.1-0.6c0.7-0.6,1.2-1.5,1.6-2.3L107.9,618.3z"/>
		</g>
		<g class="st1">
			<path class="st2" d="M49.9,651.9c0-3.8,2.4-6.1,5.5-6.1c1.7,0,2.8,0.7,3.5,1.5l-1,1.2c-0.6-0.6-1.3-1.1-2.4-1.1
				c-2.2,0-3.6,1.7-3.6,4.5c0,2.8,1.3,4.5,3.7,4.5c0.7,0,1.4-0.2,1.9-0.6V653h-2.3v-1.5h4v5.1c-0.8,0.8-2.1,1.4-3.7,1.4
				C52.2,658,49.9,655.8,49.9,651.9z"/>
			<path class="st2" d="M61.6,655.7V645h1.8v10.8c0,0.5,0.2,0.7,0.4,0.7c0.1,0,0.1,0,0.3,0l0.2,1.4c-0.2,0.1-0.5,0.1-1,0.1
				C62.1,658,61.6,657.1,61.6,655.7z"/>
			<path class="st2" d="M65.8,653.4c0-2.9,2-4.6,4.1-4.6s4.1,1.7,4.1,4.6c0,2.9-2,4.6-4.1,4.6S65.8,656.3,65.8,653.4z M72.2,653.4
				c0-1.9-0.9-3.1-2.3-3.1c-1.4,0-2.2,1.2-2.2,3.1c0,1.9,0.9,3.1,2.2,3.1C71.3,656.5,72.2,655.3,72.2,653.4z"/>
			<path class="st2" d="M77.9,656.9L77.9,656.9l-0.2,0.9h-1.4V645H78v3.4l0,1.5c0.8-0.7,1.7-1.2,2.6-1.2c2.2,0,3.5,1.8,3.5,4.5
				c0,3-1.8,4.8-3.8,4.8C79.5,658,78.6,657.6,77.9,656.9z M82.2,653.3c0-1.8-0.6-3-2.1-3c-0.7,0-1.4,0.4-2.1,1.1v4.3
				c0.7,0.6,1.4,0.8,1.9,0.8C81.2,656.5,82.2,655.3,82.2,653.3z"/>
			<path class="st2" d="M85.5,655.4c0-1.9,1.6-2.9,5.3-3.3c0-1-0.4-1.9-1.7-1.9c-0.9,0-1.8,0.4-2.5,0.9l-0.7-1.2
				c0.9-0.6,2.1-1.2,3.6-1.2c2.2,0,3.2,1.4,3.2,3.7v5.3h-1.5l-0.2-1h0c-0.8,0.7-1.7,1.2-2.8,1.2C86.6,658,85.5,657,85.5,655.4z
				 M90.8,655.5v-2.2c-2.6,0.3-3.5,1-3.5,2c0,0.9,0.6,1.2,1.4,1.2C89.4,656.5,90.1,656.2,90.8,655.5z"/>
			<path class="st2" d="M95.2,655.7V645H97v10.8c0,0.5,0.2,0.7,0.4,0.7c0.1,0,0.1,0,0.3,0l0.2,1.4c-0.2,0.1-0.5,0.1-1,0.1
				C95.7,658,95.2,657.1,95.2,655.7z"/>
			<path class="st2" d="M103.8,646h2.1l2.2,6c0.3,0.8,0.5,1.6,0.8,2.4h0.1c0.3-0.8,0.5-1.6,0.8-2.4l2.1-6h2.1v11.8h-1.7V652
				c0-1.1,0.1-2.6,0.2-3.6h-0.1l-0.9,2.7l-2,5.6h-1.2l-2.1-5.6l-0.9-2.7h-0.1c0.1,1.1,0.2,2.6,0.2,3.6v5.8h-1.7V646z"/>
			<path class="st2" d="M116.2,653.4c0-2.9,2-4.6,4-4.6c2.3,0,3.6,1.7,3.6,4.2c0,0.4,0,0.7-0.1,0.9h-5.7c0.1,1.7,1.2,2.7,2.7,2.7
				c0.8,0,1.5-0.2,2.1-0.7l0.6,1.2c-0.8,0.5-1.8,0.9-3,0.9C118.2,658,116.2,656.3,116.2,653.4z M122.3,652.6c0-1.5-0.7-2.4-2-2.4
				c-1.1,0-2.1,0.8-2.3,2.4H122.3z"/>
			<path class="st2" d="M125.3,653.4c0-2.9,1.8-4.6,3.8-4.6c1,0,1.6,0.4,2.4,1l-0.1-1.5V645h1.8v12.8h-1.5l-0.2-1h0
				c-0.7,0.7-1.6,1.2-2.6,1.2C126.7,658,125.3,656.3,125.3,653.4z M131.4,655.4v-4.3c-0.7-0.6-1.3-0.8-1.9-0.8
				c-1.2,0-2.2,1.2-2.2,3.1c0,2,0.8,3.1,2.2,3.1C130.1,656.5,130.7,656.1,131.4,655.4z"/>
			<path class="st2" d="M135.7,646.2c0-0.7,0.5-1.1,1.2-1.1c0.7,0,1.2,0.4,1.2,1.1c0,0.6-0.5,1.1-1.2,1.1
				C136.2,647.3,135.7,646.9,135.7,646.2z M136,649h1.8v8.8H136V649z"/>
			<path class="st2" d="M140.1,655.4c0-1.9,1.6-2.9,5.3-3.3c0-1-0.4-1.9-1.7-1.9c-0.9,0-1.8,0.4-2.5,0.9l-0.7-1.2
				c0.9-0.6,2.1-1.2,3.6-1.2c2.2,0,3.2,1.4,3.2,3.7v5.3h-1.5l-0.2-1h0c-0.8,0.7-1.7,1.2-2.8,1.2C141.1,658,140.1,657,140.1,655.4z
				 M145.3,655.5v-2.2c-2.6,0.3-3.5,1-3.5,2c0,0.9,0.6,1.2,1.4,1.2C144,656.5,144.6,656.2,145.3,655.5z"/>
		</g>
		<rect x="48.5" y="666.8" class="st5" width="327" height="1"/>
	</g>
	<g class="st1">
		<path class="st4" d="M30.1,312.2c1-0.2,2-0.3,3-0.5l0.1,1.2c-2.6,0.5-5.5,1-7.4,1.4l-0.3-1.3c0.9-0.1,2.1-0.3,3.3-0.5v-2.3h-2.8
			v-1.2h2.8v-1.5h1.3v1.5h2.8v1.2h-2.8V312.2z M25.6,302.1h7.7v1.2h-4c-0.4,0.9-1,1.8-1.5,2.5l3.3-0.3c-0.3-0.5-0.7-1-1-1.4l1-0.6
			c0.8,1,1.8,2.3,2.2,3.2l-1.1,0.7c-0.1-0.2-0.3-0.5-0.4-0.8c-4.4,0.4-5,0.5-5.4,0.6c-0.1-0.3-0.3-0.9-0.5-1.3
			c0.2-0.1,0.5-0.3,0.7-0.7c0.2-0.3,0.7-1.1,1.1-2h-2.1V302.1z M35.3,311.5H34v-9h1.3V311.5z M38.2,301.4V313c0,0.8-0.2,1.2-0.7,1.4
			c-0.5,0.2-1.3,0.3-2.4,0.3c-0.1-0.4-0.3-1-0.5-1.4c0.8,0,1.7,0,1.9,0c0.3,0,0.3-0.1,0.3-0.3v-11.6H38.2z"/>
		<path class="st4" d="M43.4,312c-0.5,1.1-1.4,2.3-2.2,3c-0.2-0.2-0.8-0.6-1.1-0.8c0.8-0.6,1.6-1.6,2-2.5L43.4,312z M47.4,311.4
			h-7.3v-1.2h1.4v-5.8h-1.2v-1.2h1.2v-1.7h1.3v1.7h2.3v-1.7h1.3v1.7h1.1v1.2h-1.1v5.8h1V311.4z M42.8,304.3v1.1h2.3v-1.1H42.8z
			 M42.8,307.8h2.3v-1.2h-2.3V307.8z M42.8,310.2h2.3v-1.3h-2.3V310.2z M45.3,311.6c0.6,0.7,1.3,1.6,1.6,2.2l-1.1,0.7
			c-0.3-0.6-1-1.6-1.6-2.3L45.3,311.6z M53.4,313.3c0,0.7-0.2,1.1-0.6,1.3c-0.4,0.2-1.2,0.3-2.3,0.3c0-0.4-0.2-1-0.4-1.3
			c0.7,0,1.5,0,1.6,0c0.2,0,0.3-0.1,0.3-0.3V310h-2.8c-0.2,1.8-0.5,3.7-1.4,5.1c-0.2-0.3-0.8-0.7-1.1-0.8c1.2-2,1.3-4.8,1.3-6.9
			v-5.4h5.3V313.3z M52.1,308.7v-2.2h-2.6v0.8c0,0.4,0,0.9,0,1.4H52.1z M49.4,303.2v2.1h2.6v-2.1H49.4z"/>
		<path class="st4" d="M67,302.2v12.6h-1.5v-0.9h-7.1v1h-1.4v-12.6H67z M58.5,303.6v3.7h7.1v-3.7H58.5z M65.6,312.4v-3.8h-7.1v3.8
			H65.6z"/>
		<path class="st4" d="M73.4,312c-0.5,1.1-1.4,2.3-2.2,3c-0.2-0.2-0.8-0.6-1.1-0.8c0.8-0.6,1.6-1.6,2-2.5L73.4,312z M77.4,311.4
			h-7.3v-1.2h1.4v-5.8h-1.2v-1.2h1.2v-1.7h1.3v1.7h2.3v-1.7h1.3v1.7h1.1v1.2h-1.1v5.8h1V311.4z M72.8,304.3v1.1h2.3v-1.1H72.8z
			 M72.8,307.8h2.3v-1.2h-2.3V307.8z M72.8,310.2h2.3v-1.3h-2.3V310.2z M75.3,311.6c0.6,0.7,1.3,1.6,1.6,2.2l-1.1,0.7
			c-0.3-0.6-1-1.6-1.6-2.3L75.3,311.6z M83.4,313.3c0,0.7-0.2,1.1-0.6,1.3c-0.4,0.2-1.2,0.3-2.3,0.3c0-0.4-0.2-1-0.4-1.3
			c0.7,0,1.5,0,1.6,0c0.2,0,0.3-0.1,0.3-0.3V310h-2.8c-0.2,1.8-0.5,3.7-1.4,5.1c-0.2-0.3-0.8-0.7-1.1-0.8c1.2-2,1.3-4.8,1.3-6.9
			v-5.4h5.3V313.3z M82.1,308.7v-2.2h-2.6v0.8c0,0.4,0,0.9,0,1.4H82.1z M79.4,303.2v2.1h2.6v-2.1H79.4z"/>
	</g>
	<g class="st1">
		<path class="st4" d="M30.2,544.9c-0.6,0.2-1.1,0.3-1.7,0.5v4c0,0.7-0.1,1.1-0.6,1.3c-0.4,0.2-1.1,0.3-2.1,0.2
			c0-0.3-0.2-0.9-0.4-1.3c0.6,0,1.3,0,1.4,0c0.2,0,0.3-0.1,0.3-0.3v-3.6c-0.7,0.2-1.3,0.4-1.9,0.5L25,545c0.6-0.2,1.4-0.3,2.2-0.6
			v-3h-2v-1.3h2v-2.9h1.3v2.9h1.3V539h1.8v-1.9h1.4v1.9H34v1.3h-1.1v1.4h-1.4v-1.4H30v1.1h-1.6v2.6l1.6-0.4L30.2,544.9z M30.5,542.4
			h7.8v8.5H37v-0.7h-5.2v0.8h-1.3V542.4z M31.8,543.6v2h1.9v-2H31.8z M31.8,549h1.9v-2.1h-1.9V549z M38.9,539v1.3h-1.8v1.4h-1.4
			v-1.4h-1.1V539h1.1v-1.8h1.4v1.8H38.9z M37,543.6h-2v2h2V543.6z M37,549v-2.1h-2v2.1H37z"/>
		<path class="st4" d="M44.4,544.2c-0.3,1.4-0.9,2.9-1.5,4c0.2,0.2,0.5,0.4,0.9,0.6c1,0.6,2.4,0.7,4.1,0.7c1.8,0,4.3-0.1,6-0.3
			c-0.2,0.4-0.4,1.1-0.4,1.4c-1.2,0.1-3.9,0.2-5.6,0.2c-2,0-3.2-0.2-4.3-0.8c-0.6-0.3-1.1-0.9-1.5-0.9c-0.3,0-0.9,1-1.2,1.9
			l-0.9-1.3c0.6-0.8,1.2-1.5,1.8-1.7c0.4-0.8,0.8-1.8,1-2.8h-2c0.4-0.9,0.8-2.1,1.2-3.2h-1.8v-1.3h3.5c-0.3,1-0.8,2.2-1.2,3.3h1.1
			l0.2-0.1L44.4,544.2z M41.9,540.2c-0.2-0.6-0.5-1.7-0.8-2.5l1.3-0.4c0.3,0.8,0.6,1.7,0.8,2.4L41.9,540.2z M47.1,543.7
			c0,1.5-0.4,3.4-2,4.7c-0.2-0.2-0.7-0.6-1-0.8c1.5-1.2,1.8-2.7,1.8-3.9v-1.2h1.2V543.7z M48.2,541.3h-3.8V540h3.8v-2.6h1.4v2.6h4
			v1.3h-4v7.5h-1.4V541.3z M52.2,539.9c-0.4-0.5-1.1-1.3-1.8-1.9l1-0.6c0.6,0.6,1.4,1.3,1.8,1.8L52.2,539.9z M53,546.6
			c0.2,0,0.5,0,0.6-0.1c0,0.3,0.1,0.8,0.1,1.1c-0.2,0.1-0.5,0.1-0.7,0.1h-0.9c-1.1,0-1.4-0.4-1.4-1.7v-3.6h1.1v3.7
			c0,0.4,0,0.5,0.2,0.5H53z"/>
	</g>
	<g class="st1">
		<path class="st4" d="M35.4,456.9c0.2,2.1,0.9,5.2,3.7,6.9c-0.4,0.3-0.8,0.7-1,1.1c-1.9-1.2-2.9-3.2-3.4-5.1
			c-0.5,1.9-1.5,3.8-3.7,5.3c-0.2-0.3-0.5-0.7-0.8-1v0.9h-1.3v-5.1h-1.3v0.4c0,1.2-0.2,3.2-1.4,4.4c-0.2-0.2-0.8-0.5-1-0.7
			c1-1.1,1.2-2.8,1.2-3.8v-0.4h-1v-1.3h3.6v-1.9h-2.5v0h-0.6v-4.8H27v3.6h1.8v-4.2h1.3v12.6c2.7-2,3.4-4.5,3.5-6.9h-3v-1.4h3.1v-0.1
			v-4.2H35v4.2v0.1h3.8v1.4H35.4z M37.4,454.9c-0.3-0.7-1.1-1.9-1.8-2.7l1.1-0.5c0.7,0.8,1.5,1.9,1.9,2.6L37.4,454.9z"/>
		<path class="st4" d="M40.3,463.9c0.5-0.7,0.9-1.8,1.2-2.7l1.2,0.4c-0.3,0.9-0.7,2.1-1.2,2.8L40.3,463.9z M46.4,454.9
			c-0.1-0.2-0.3-0.5-0.5-0.7c-4.3,0.4-4.9,0.5-5.2,0.6c-0.1-0.2-0.3-0.8-0.4-1.1c0.2,0,0.5-0.2,0.8-0.4c0.3-0.2,1.3-1.1,1.9-2
			l1.3,0.4c-0.6,0.7-1.2,1.3-1.9,1.8l2.8-0.2c-0.2-0.3-0.5-0.6-0.7-0.8l1-0.5c0.7,0.8,1.5,1.8,1.9,2.5L46.4,454.9z M46.4,459.8
			c0,0.6-0.1,0.8-0.5,1c-0.4,0.2-1,0.2-1.8,0.2c-0.1-0.3-0.2-0.7-0.4-0.9c0.5,0,1.1,0,1.2,0c0.2,0,0.2,0,0.2-0.2v-1
			c-0.9,0.3-1.8,0.7-2.6,1l-0.3-0.8c-0.1,0.8-0.4,1.6-0.9,2.2c-0.2-0.2-0.7-0.6-1-0.8c0.8-0.9,0.8-2,0.8-3V455h5.2V459.8z
			 M42.4,457.4c0,0.4,0,0.9-0.1,1.3c0.8-0.2,1.8-0.5,3-0.8V456h-2.9V457.4z M42.9,456.3c0.7,0.3,1.7,0.6,2.2,0.9l-0.5,0.8
			c-0.5-0.3-1.5-0.7-2.2-1L42.9,456.3z M48.7,463.6c0.7,0,0.8-0.2,0.9-1.5c0.3,0.2,0.8,0.4,1.2,0.5c-0.1,1.8-0.5,2.2-1.9,2.2h-3
			c-1.8,0-2.2-0.3-2.2-1.5v-1.7h1.3v1.7c0,0.4,0.1,0.4,1,0.4H48.7z M47.5,463c-0.3-0.5-1-1.3-1.5-1.8l1-0.6c0.5,0.6,1.2,1.3,1.5,1.8
			L47.5,463z M49.6,455.7c-1.4,0-1.7-0.5-1.7-1.7v-2.7h1.3v1h3.6v1.1h-3.6v0.6c0,0.4,0.1,0.6,0.5,0.6h2.3c0.4,0,0.9,0,1.2-0.1
			c0,0.4,0.1,0.8,0.1,1.1c-0.2,0.1-0.8,0.1-1.3,0.1H49.6z M49.7,460.8c-1.5,0-1.9-0.3-1.9-1.5v-3.1h1.3v1.1h3.6v1.1h-3.6v0.9
			c0,0.4,0.1,0.4,0.7,0.4h2c0.4,0,0.5-0.1,0.6-0.9c0.3,0.2,0.8,0.4,1.1,0.5c-0.1,1.3-0.5,1.6-1.6,1.6H49.7z M52.3,461.2
			c0.4,0.8,1,2,1.2,2.7l-1.3,0.4c-0.2-0.7-0.7-1.9-1.1-2.8L52.3,461.2z"/>
	</g>
	<g class="st1">
		<path class="st2" d="M33,488h3.1c3.6,0,5.7,2,5.7,5.8c0,3.8-2.1,5.9-5.6,5.9H33V488z M36,498.3c2.5,0,3.9-1.5,3.9-4.4
			c0-2.9-1.4-4.3-3.9-4.3h-1.1v8.8H36z"/>
		<path class="st2" d="M44.1,491h1.5l0.1,1.6h0c0.6-1.1,1.6-1.8,2.5-1.8c0.4,0,0.7,0.1,1,0.2l-0.3,1.6c-0.3-0.1-0.5-0.1-0.9-0.1
			c-0.7,0-1.6,0.5-2.1,1.9v5.5h-1.8V491z"/>
		<path class="st2" d="M49.6,497.4c0-1.9,1.6-2.9,5.3-3.3c0-1-0.4-1.9-1.7-1.9c-0.9,0-1.8,0.4-2.5,0.9l-0.7-1.2
			c0.9-0.6,2.1-1.2,3.6-1.2c2.2,0,3.2,1.4,3.2,3.7v5.3h-1.5l-0.2-1h0c-0.8,0.7-1.7,1.2-2.8,1.2C50.7,500,49.6,499,49.6,497.4z
			 M54.9,497.5v-2.2c-2.6,0.3-3.5,1-3.5,2c0,0.9,0.6,1.2,1.4,1.2C53.6,498.5,54.2,498.2,54.9,497.5z"/>
		<path class="st2" d="M63.6,488.5c-0.3-0.1-0.7-0.2-1-0.2c-0.8,0-1.2,0.5-1.2,1.6v1.1h1.8v1.5h-1.8v7.3h-1.8v-7.3h-1.2v-1.4
			l1.2-0.1v-1.1c0-1.8,0.8-3.1,2.8-3.1c0.6,0,1.2,0.1,1.6,0.3L63.6,488.5z"/>
		<path class="st2" d="M65.2,496.9v-4.5h-1.3v-1.4l1.4-0.1l0.2-2.4H67v2.4h2.3v1.5H67v4.5c0,1.1,0.4,1.6,1.3,1.6
			c0.3,0,0.7-0.1,0.9-0.2l0.3,1.4c-0.5,0.2-1.1,0.3-1.7,0.3C65.8,500,65.2,498.8,65.2,496.9z"/>
	</g>
	<g class="st1">
		<path class="st4" d="M38.7,394v1.3H25.3V394h2v-6.8h1.4v6.8h3v-9.4h-5.8v-1.4h12.4v1.4h-5.1v3.7h4.5v1.3h-4.5v4.4H38.7z"/>
		<path class="st4" d="M53.6,384.4v1.3h-8.1c-0.5,1.1-1.1,2.1-1.8,3v7.2h-1.4v-5.6c-0.5,0.5-1,0.9-1.6,1.3c-0.2-0.4-0.5-1-0.7-1.3
			c1.6-1.1,2.9-2.8,3.9-4.6h-3.4v-1.3h4c0.3-0.7,0.5-1.5,0.7-2.2l1.5,0.4c-0.2,0.6-0.4,1.2-0.6,1.8H53.6z M49.8,394.3h3.8v1.3h-9
			v-1.3h3.8v-3.9h-3.2v-1.3h3.2v-2.7h1.4v2.7H53v1.3h-3.2V394.3z"/>
		<path class="st4" d="M68.2,394.3c0,0.8-0.2,1.2-0.7,1.4C67,396,66.3,396,65,396c-0.1-0.4-0.3-1-0.5-1.4c0.9,0,1.7,0,2,0
			c0.3,0,0.3-0.1,0.3-0.4v-10h-9.7V396h-1.4v-13.1h12.4V394.3z M65.8,386.8h-7.5v-1.2h7.5V386.8z M60.3,393v1H59v-5.9h6v4.8H60.3z
			 M60.3,389.3v2.5h3.4v-2.5H60.3z"/>
		<path class="st4" d="M77.8,387.9v4.3c1.5-0.9,2.6-2.1,3.4-3.7l1.4,0.6c-2.1,4-5.9,5.8-11.6,6.7c-0.1-0.4-0.4-1-0.7-1.3
			c2.9-0.4,5.3-1,7.2-2.1h-1.1v-4.6h-5.9v-1.3h2.1v-3.3H74v3.3h2.5v-4.4H78v1.4h4.3v1.3H78v1.7h5.6v1.3H77.8z M75.1,389
			c-0.8,1.3-2.1,2.7-3.3,3.6c-0.2-0.3-0.7-0.8-1-1.1c1.1-0.7,2.3-1.9,3-3.1L75.1,389z"/>
	</g>
	<g id="Rectangle_54" transform="translate(0.5 400)">
		<rect x="24" y="7.8" class="st6" width="21" height="21"/>
		<path class="st2" d="M45,28.8H24v-21h21V28.8z M26,26.8h17v-17H26V26.8z"/>
	</g>
	<rect id="Rectangle_73" x="24" y="92.8" class="st0" width="327" height="43"/>
	<rect id="Rectangle_74" x="24" y="322.8" class="st0" width="327" height="43"/>
	<rect id="Rectangle_76" x="24" y="558.8" class="st0" width="327" height="88"/>
	<g class="st1">
		<path class="st3" d="M28.7,71.5v1.6H31v1h-2.3v1.8h2.9v1h-1.3c-0.1,0.8-0.3,1.5-0.5,2.1H31v1h-2.4v1.8h2.9v1h-2.9v2.6h-1.1v-2.6
			h-3v-1h3v-1.8h-2.4v-1h1.3c-0.1-0.8-0.3-1.5-0.5-2.1h-1.3v-1h2.9v-1.8h-2.4v-1h2.4v-1.6H28.7z M29.3,76.8H27
			c0.2,0.6,0.3,1.3,0.5,2.1h1.3C29,78.3,29.2,77.6,29.3,76.8z M33,85.3h-1V72.1h5.7c0,1.7-0.1,2.8-0.3,3.4c-0.2,0.6-0.7,0.8-1.7,0.8
			h-1l-0.3-0.9c0.2,0,0.5,0,0.8,0c0.4,0,0.6,0,0.8-0.1c0.2-0.1,0.3-0.2,0.4-0.3c0.1-0.3,0.2-0.9,0.2-1.9H33v4.4h4.8v0.9
			c-0.3,1.7-0.8,3-1.5,4.2c0.6,0.7,1.3,1.3,2.1,1.8l-0.7,0.8c-0.8-0.6-1.5-1.2-2-1.8c-0.6,0.8-1.3,1.4-2.2,1.9L33,84.4
			c0.8-0.5,1.5-1,2-1.8c-0.9-1.3-1.5-2.6-1.7-4.1H33V85.3z M35.6,81.8c0.5-0.9,0.9-2,1.2-3.3h-2.4C34.5,79.7,34.9,80.8,35.6,81.8z"
			/>
		<path class="st3" d="M44,72c-0.3,1-0.7,1.9-1.1,2.8v10.6h-1v-8.8c-0.5,0.8-1.1,1.5-1.7,2.2l-0.3-1.1c1.5-1.8,2.6-3.8,3.3-6.1
			L44,72z M47.9,84c-0.8,0.5-2.1,0.9-3.6,1.2l-0.5-0.8c1.6-0.3,2.8-0.7,3.6-1.1L47.9,84z M53.5,72.1V73h-3v1h2.4v2.9h-8.3V74h2.5v-1
			h-2.6v-0.9H53.5z M52.5,77.7v5.7h-7.4v-5.7H52.5z M47.2,74.8h-1.6v1.3h1.6V74.8z M51.5,79.3v-0.9H46v0.9H51.5z M51.5,80.9V80H46
			v0.9H51.5z M51.5,81.6H46v0.9h5.5V81.6z M49.6,73H48v1h1.6V73z M49.6,74.8H48v1.3h1.6V74.8z M53.7,84.5l-0.3,0.8
			c-1.2-0.5-2.4-1-3.6-1.3l0.3-0.7C51.3,83.6,52.5,84,53.7,84.5z M52,74.8h-1.6v1.3H52V74.8z"/>
		<path class="st3" d="M59.8,85.2h-1.1v-5.3c-0.9,0.3-1.9,0.6-3,0.8l-0.6-1c2.6-0.5,4.8-1.2,6.5-2.1c-0.7-0.6-1.6-1.2-2.7-1.8
			l0.9-0.6c1.1,0.7,2,1.3,2.7,1.9c1.5-0.9,2.6-2,3.3-3.2h-5.5c-1,0.9-2.3,1.8-3.9,2.5l-0.7-0.9c2.6-1.1,4.3-2.4,5.2-4l1.2,0.1
			c-0.2,0.5-0.5,0.9-0.8,1.3h5.9v1c-1.1,2.1-3,3.7-5.8,5h6.3v6.3h-1.1v-0.9h-6.7V85.2z M66.5,79.9h-6.7v3.4h6.7V79.9z"/>
		<path class="st3" d="M70.5,72.6c1.7-0.2,3.2-0.5,4.5-1l0.4,1c-0.5,0.2-1.1,0.3-1.7,0.5v2.5h1.8v1h-1.8v0.8c0.6,0.6,1.3,1.3,1.9,2
			L75,80.3c-0.5-0.8-0.9-1.5-1.3-2v6.9h-1v-6.9c-0.5,1.5-1.1,2.9-2,4.1l-0.5-1.2c1.1-1.3,1.8-2.9,2.3-4.6h-2v-1h2.1v-2.3
			c-0.6,0.1-1.2,0.2-1.9,0.3L70.5,72.6z M80.8,85.1l-0.3-1l1,0c0.3,0,0.5-0.2,0.5-0.6v-1.2h-5V85h-1v-2.7H75v-0.9h1.1v-4.6h3v-0.9h1
			v0.9h3.1v4.6h0.6v0.9h-0.6v1.5c0,0.9-0.4,1.3-1.2,1.3H80.8z M83.6,72.5c-1.9,0.5-4.4,0.8-7.6,0.8l-0.3-1c3,0,5.5-0.2,7.4-0.7
			L83.6,72.5z M77.7,75.8l-1,0.3c-0.2-0.7-0.5-1.3-0.8-1.9l0.9-0.3C77.2,74.4,77.5,75,77.7,75.8z M79.1,79.1v-1.4h-2v1.4H79.1z
			 M79.1,81.4V80h-2v1.4H79.1z M80.3,75.3l-1,0.2c-0.2-0.6-0.5-1.1-0.8-1.7l0.9-0.3C79.8,74.1,80.1,74.7,80.3,75.3z M80.1,79.1h2
			v-1.4h-2V79.1z M82.2,81.4V80h-2v1.4H82.2z M83.5,73.6c-0.4,1-0.8,1.9-1.3,2.6l-0.9-0.3c0.5-0.7,1-1.5,1.3-2.5L83.5,73.6z"/>
	</g>
	<g class="st1">
		<path class="st2" d="M40.3,106.6v1.7h2.5v1h-2.5v1.9h3.1v1.1H42c-0.1,0.8-0.3,1.6-0.5,2.3h1.4v1h-2.5v1.9h3.1v1.1h-3.1v2.8h-1.1
			v-2.8H36v-1.1h3.2v-1.9h-2.6v-1h1.4c-0.2-0.8-0.3-1.6-0.5-2.3h-1.4v-1.1h3.1v-1.9h-2.5v-1h2.5v-1.7H40.3z M40.9,112.2h-2.5
			c0.2,0.7,0.4,1.4,0.5,2.3h1.4C40.6,113.8,40.8,113,40.9,112.2z M44.9,121.2h-1.1v-14h6.1c0,1.8-0.1,3-0.3,3.6s-0.8,0.9-1.8,0.9
			h-1.1l-0.3-1c0.2,0,0.5,0,0.8,0c0.4,0,0.7,0,0.8-0.1c0.2-0.1,0.3-0.2,0.4-0.4c0.1-0.3,0.2-1,0.2-2h-3.9v4.7H50v1
			c-0.3,1.8-0.8,3.2-1.6,4.5c0.6,0.7,1.4,1.4,2.3,1.9l-0.8,0.9c-0.8-0.6-1.6-1.3-2.1-1.9c-0.6,0.8-1.4,1.5-2.3,2l-0.6-1
			c0.8-0.5,1.6-1.1,2.1-1.9c-1-1.3-1.6-2.8-1.8-4.4h-0.4V121.2z M47.7,117.5c0.6-1,1-2.2,1.2-3.5h-2.6
			C46.5,115.3,47,116.4,47.7,117.5z"/>
		<path class="st2" d="M56.7,107c-0.3,1-0.7,2-1.2,2.9v11.3h-1.1v-9.4c-0.6,0.8-1.2,1.6-1.9,2.4l-0.3-1.2c1.6-1.9,2.8-4.1,3.5-6.5
			L56.7,107z M60.8,119.9c-0.9,0.5-2.2,1-3.9,1.3l-0.5-0.8c1.7-0.3,3-0.7,3.9-1.2L60.8,119.9z M66.7,107.2v1h-3.2v1h2.5v3.1h-8.9
			v-3.1h2.6v-1h-2.8v-1H66.7z M65.7,113.1v6h-7.9v-6H65.7z M60,110.1h-1.7v1.4H60V110.1z M64.6,114.9v-1h-5.8v1H64.6z M64.6,116.6
			v-0.9h-5.8v0.9H64.6z M64.6,117.3h-5.8v1h5.8V117.3z M62.6,108.2h-1.7v1h1.7V108.2z M62.6,110.1h-1.7v1.4h1.7V110.1z M66.9,120.4
			l-0.4,0.9c-1.2-0.6-2.5-1-3.9-1.4l0.4-0.7C64.4,119.4,65.7,119.8,66.9,120.4z M65.1,110.1h-1.7v1.4h1.7V110.1z"/>
	</g>
	<g class="st1">
		<path class="st2" d="M72.2,109.6c-1.6,0-2.4,0.6-2.4,1.8c0,0.7,0.2,1.1,0.6,1.4c0.4,0.3,1.1,0.5,2.2,0.8c1.1,0.3,1.9,0.6,2.4,1
			c0.5,0.4,0.7,1.1,0.7,2c0,2.3-1.2,3.4-3.5,3.4c-0.8,0-1.8-0.1-2.9-0.3l-0.6-0.1l0.1-1c1.5,0.2,2.6,0.3,3.3,0.3
			c1.6,0,2.4-0.7,2.4-2.2c0-0.6-0.2-1-0.5-1.3c-0.3-0.3-1-0.5-1.9-0.7c-1.2-0.3-2.1-0.6-2.7-1c-0.5-0.4-0.8-1.1-0.8-2.1
			c0-2,1.2-3,3.6-3c0.8,0,1.7,0.1,2.8,0.2l0.5,0.1l-0.1,1C73.8,109.7,72.8,109.6,72.2,109.6z"/>
		<path class="st2" d="M83.5,114.2v4.1c0,0.4,0.3,0.6,0.9,0.7l0,0.9c-0.8,0-1.5-0.2-1.9-0.6c-1,0.4-1.9,0.6-2.9,0.6
			c-0.7,0-1.3-0.2-1.7-0.6c-0.4-0.4-0.6-1-0.6-1.8s0.2-1.4,0.6-1.7c0.4-0.4,1-0.6,1.9-0.7l2.5-0.2v-0.7c0-0.5-0.1-0.9-0.4-1.2
			c-0.2-0.2-0.6-0.4-1-0.4c-0.9,0-1.7,0.1-2.7,0.2l-0.5,0l0-0.9c1.2-0.2,2.2-0.4,3.1-0.4c0.9,0,1.6,0.2,2,0.6S83.5,113.3,83.5,114.2
			z M78.5,117.5c0,1,0.4,1.5,1.2,1.5c0.7,0,1.4-0.1,2.1-0.4l0.4-0.1v-2.6l-2.4,0.2c-0.5,0-0.8,0.2-1,0.4S78.5,117,78.5,117.5z"/>
		<path class="st2" d="M87.3,119.8h-1.2v-8h1.2v0.6c0.8-0.5,1.6-0.7,2.3-0.7c1,0,1.7,0.3,2.1,0.8c0.4-0.2,0.8-0.4,1.4-0.6
			c0.6-0.2,1.1-0.2,1.5-0.2c1.1,0,1.8,0.3,2.2,0.9s0.6,1.6,0.6,3.1v4.2H96v-4.2c0-1.1-0.1-1.9-0.3-2.3c-0.2-0.4-0.7-0.6-1.4-0.6
			c-0.4,0-0.7,0.1-1.1,0.2c-0.4,0.1-0.7,0.2-0.9,0.3l-0.3,0.1c0.1,0.4,0.2,1.1,0.2,2.3v4.2h-1.2v-4.1c0-1.2-0.1-1.9-0.3-2.3
			c-0.2-0.4-0.7-0.6-1.4-0.6c-0.3,0-0.7,0.1-1,0.2c-0.4,0.1-0.6,0.2-0.8,0.3l-0.3,0.1V119.8z"/>
		<path class="st2" d="M99.7,123.3v-11.6h1.2v0.6c0.8-0.5,1.6-0.7,2.4-0.7c1,0,1.7,0.3,2.2,1c0.5,0.6,0.7,1.7,0.7,3.2
			s-0.3,2.5-0.8,3.2c-0.5,0.6-1.4,1-2.7,1c-0.7,0-1.2-0.1-1.8-0.2v3.6H99.7z M103.1,112.7c-0.3,0-0.7,0.1-1,0.2
			c-0.4,0.1-0.7,0.2-0.9,0.3l-0.3,0.2v5.4c0.8,0.1,1.3,0.2,1.7,0.2c0.9,0,1.5-0.2,1.8-0.7c0.3-0.5,0.5-1.3,0.5-2.4s-0.2-1.9-0.5-2.4
			S103.7,112.7,103.1,112.7z"/>
		<path class="st2" d="M108.5,119.8v-11.5h1.2v11.5H108.5z"/>
		<path class="st2" d="M117.7,118.8l0.5,0l0,0.9c-1.2,0.2-2.3,0.3-3.1,0.3c-1.2,0-2-0.3-2.4-1s-0.7-1.7-0.7-3.1
			c0-2.8,1.1-4.2,3.3-4.2c1.1,0,1.9,0.3,2.4,0.9c0.5,0.6,0.8,1.5,0.8,2.8l-0.1,0.9h-5.3c0,0.9,0.2,1.5,0.5,2
			c0.3,0.4,0.9,0.6,1.7,0.6C116.1,118.9,116.9,118.9,117.7,118.8z M117.3,115.3c0-1-0.2-1.7-0.5-2.1c-0.3-0.4-0.8-0.6-1.5-0.6
			s-1.2,0.2-1.6,0.6s-0.5,1.1-0.6,2H117.3z"/>
	</g>
	<g id="Component_29_6" transform="translate(318.4 490.66) rotate(180)">
		<path id="Path_1033" class="st7" d="M-16.4-7.4l5.4,5.1c0.5,0.5,0.5,1.2,0.1,1.7c0,0,0,0-0.1,0.1l-0.1,0.1c-0.5,0.5-1.3,0.5-1.8,0
			l-3.5-3.3c-0.5-0.5-1.3-0.5-1.9,0l-3.5,3.3C-22.2,0-23,0-23.5-0.5l-0.1-0.1c-0.5-0.5-0.5-1.2-0.1-1.7c0,0,0,0,0.1-0.1l5.4-5.1
			C-17.7-7.9-16.9-7.9-16.4-7.4L-16.4-7.4z"/>
	</g>
</g>
</svg>
