<?xml version="1.0" encoding="utf-8"?>
<!-- Generator: Adobe Illustrator 23.0.6, SVG Export Plug-In . SVG Version: 6.00 Build 0)  -->
<svg version="1.1" id="圖層_1" xmlns="http://www.w3.org/2000/svg" xmlns:xlink="http://www.w3.org/1999/xlink" x="0px" y="0px"
	 viewBox="0 0 610.1 610.1" style="enable-background:new 0 0 610.1 610.1;" xml:space="preserve">
<style type="text/css">
	.st0{opacity:0.6;fill:#367B9A;enable-background:new    ;}
	.st1{opacity:0.5;fill:#5A3A71;enable-background:new    ;}
	.st2{opacity:0.5;fill:#B47E36;enable-background:new    ;}
	.st3{opacity:0.35;fill:#28714F;enable-background:new    ;}
	.st4{enable-background:new    ;}
	.st5{fill:#FFFFFF;}
	.st6{opacity:0.6;fill:#FFFFFF;enable-background:new    ;}
	.st7{fill:#FFFFFF;enable-background:new    ;}
	.st8{opacity:0.7;fill:#FFFFFF;enable-background:new    ;}
</style>
<g>
	<path id="Mask" class="st0" d="M308.7,0h301.4v301.4H308.7V0z"/>
	<rect id="Mask-2" x="308.7" y="308.7" class="st1" width="301.4" height="301.4"/>
	<path id="Mask-3" class="st2" d="M0,0h301.4v301.4H0V0z"/>
	<path id="Mask-4" class="st3" d="M0,308.7h301.4v301.4H0V308.7z"/>
	<g id="Repeat_Grid_16" transform="translate(19 84)">
		<g transform="translate(-24 -95)">
			<g class="st4">
				<path class="st5" d="M38.5,31.2v38.6H33V36.7h-6.6v-5.5H38.5z"/>
			</g>
			<g class="st4">
				<path class="st5" d="M101.9,58.8c-0.4,1.8-1.3,3.6-3.5,5.3c1.8,0.8,3.4,1.6,4.6,2.4l-2,1.7c-1.3-0.8-3-1.7-5-2.6
					c-2.6,1.3-6.2,2.5-11.3,3.5c-0.2-0.6-0.8-1.5-1.3-2c4.3-0.7,7.5-1.7,9.7-2.7c-2.1-0.9-4.2-1.7-6.2-2.2c0.6-0.8,1.4-1.7,2.1-2.7
					l-4.8,0.2l-0.3-2.2c1.8,0,4.1-0.2,6.5-0.2c0.6-1.1,1.3-2.1,1.8-3.2h-6.6v-6.6h7.6v-1.7H87v-4.4h-2.7v-2.3H87v-4.1h6.5v-2.8h2.4
					v2.8h6.9v4.1h2.7v2.3h-2.7v4.4h-6.9v1.7h7.8v6.6h-8.5c-0.5,1-1.1,2-1.7,3c2-0.1,4-0.2,6.1-0.3v-0.4V55h2.5v1.6v0.2l2-0.1l0,2.1
					L101.9,58.8z M88.4,52.1h5.1v-2.5h-5.1V52.1z M89.6,37.2v2.1h3.9v-2.1H89.6z M93.5,43.8v-2.4h-3.9v2.4H93.5z M92.1,59.4
					c-0.4,0.6-0.8,1.3-1.3,1.8c1.7,0.5,3.4,1.2,5.1,1.9c2-1.3,3-2.7,3.4-4L92.1,59.4z M95.9,37.2v2.1h4.2v-2.1H95.9z M100.1,43.8
					v-2.4h-4.2v2.4H100.1z M95.9,49.6v2.5h5.2v-2.5H95.9z M117.9,42.7c-0.8,6-1.8,11.2-3.7,15.5c1.8,3.6,4,6.6,6.8,8.4
					c-0.6,0.5-1.4,1.4-1.8,2.1c-2.6-1.8-4.7-4.4-6.3-7.6c-1.8,3.3-4.2,6.1-7.3,8.3c-0.2-0.6-1.1-1.7-1.7-2.3
					c3.4-2.3,5.9-5.3,7.6-9.1c-1.3-3.2-2.2-6.8-3-10.7c-0.6,1.7-1.3,3.2-2.1,4.4c-0.4-0.4-1.5-1.4-2.1-1.8
					c2.7-4.2,4.2-10.8,5.2-17.4l2.5,0.4c-0.3,2.3-0.8,4.7-1.3,7h9.9v2.7H117.9z M110.1,42.7c0.6,4.3,1.5,8.4,2.7,12
					c1.2-3.5,1.9-7.5,2.3-12H110.1z"/>
				<path class="st5" d="M132.4,53.5v12.3c0,1.6-0.4,2.4-1.4,2.9c-0.9,0.4-2.4,0.6-5,0.5c-0.1-0.7-0.5-1.9-0.9-2.7
					c1.7,0,3.4,0,3.8,0c0.5,0,0.7-0.2,0.7-0.7V54.4c-1.7,0.6-3.3,1.1-4.7,1.6l-0.8-2.9c1.5-0.4,3.4-1,5.5-1.6v-8.2h-4.9v-2.8h4.9
					v-8.1h2.8v8.1h3.7v2.8h-3.7v7.4l4-1.3l0.4,2.8L132.4,53.5z M140.2,50.7c0,5.7-0.6,13.4-4.4,18.5c-0.5-0.4-1.6-1.3-2.2-1.5
					c3.6-4.9,4-11.7,4-17V39.3h9.1v-6.9h2.9v2.5h9.5v2.2h-9.5v2.2h9.3l0.5-0.1l1.8,0.4c-0.5,1.9-1.3,4.2-1.9,5.6l-2.3-0.5
					c0.4-0.8,0.8-2,1.1-3.2h-9.1v2.3l6.5-0.6l0.2,1.9l-6.8,0.6v0.5c0,1,0.2,1.3,1.1,1.3h5.6c0.8,0,2.2,0,2.9-0.2
					c0,0.6,0.1,1.4,0.2,1.9c-0.6,0.2-1.8,0.2-2.9,0.2h-6.2c-2.5,0-3.2-1-3.2-3.2l-5,0.5l-0.3-2.3l5.3-0.5v-2.5h-6.2V50.7z M161,55.9
					c-1.4,0.8-3,1.6-4.6,2.3c1,3.4,3,6.5,5.7,8c-0.6,0.4-1.4,1.3-1.7,2c-2.8-1.8-4.8-5.3-5.8-9.1c-0.6,0.2-1.3,0.5-1.9,0.7
					c1.3,3.5,0.8,7.2-0.6,8.5c-0.8,0.8-1.6,1-2.9,1c-0.6,0-1.3,0-2.1-0.1c0-0.6-0.2-1.6-0.6-2.2c0.9,0.1,1.8,0.1,2.3,0.1
					c0.6,0,1.2,0,1.6-0.6c0.6-0.6,1-2.4,0.7-4.4c-2.7,2.3-6.7,4.6-9.9,5.9c-0.3-0.5-0.8-1.4-1.3-1.8c3.7-1.1,8.3-3.7,10.7-6.1
					c-0.1-0.4-0.4-0.9-0.6-1.4c-2.3,1.6-5.6,3.3-8.4,4.3c-0.2-0.5-0.7-1.3-1.2-1.7c2.9-0.7,6.5-2.3,8.6-4c-0.3-0.4-0.6-0.8-1.1-1.2
					c-1.9,1-4,1.8-5.9,2.3c-0.2-0.4-0.7-1.2-1-1.6c2.9-0.8,6.3-2.2,8.6-3.7h-8.1v-2.1h19.7v2.1h-8.8c-0.7,0.7-1.7,1.3-2.7,2
					c1,0.9,1.7,1.9,2.3,3c2.5-1.1,5.5-2.6,7.4-3.8L161,55.9z"/>
				<path class="st5" d="M200.7,33.9v35.2h-2.9v-1.6h-27.9v1.6h-2.8V33.9H200.7z M197.8,65V36.5h-27.9V65H197.8z M196.1,46.5v1.9
					h-24.2v-1.9h10.6v-1.8h-6.6v-6.3h16v6.3H185v1.8H196.1z M174.6,50.1h18.6v12.7h-18.6V50.1z M176.9,61h13.7v-9h-13.7V61z
					 M178.4,42.8h10.9v-2.7h-10.9V42.8z M179.5,53.7h8.6v5.5h-8.6V53.7z M181.4,57.6h4.8v-2.3h-4.8V57.6z"/>
				<path class="st5" d="M223.7,50.8v18.4h-2.9V50.8h-6.5c-0.2,6.8-1.2,13.4-6,18.7c-0.5-0.6-1.6-1.6-2.3-2
					c4.4-4.8,5.3-10.7,5.4-16.7h-5.2V48h5.3V37.6h-4.6v-2.8h20.7v2.8h-3.8V48h4.4v2.8H223.7z M220.8,48V37.6h-6.5V48H220.8z
					 M243.4,56c-3.4,5.6-9.1,10.4-15.4,13.2c-0.5-0.7-1.4-1.8-2.1-2.4c5.9-2.5,11.6-7,14.6-11.9L243.4,56z M241.3,34.1
					c-2.9,3.7-7.5,7.3-11.5,9.5c-0.6-0.6-1.4-1.6-2.2-2.1c3.8-1.9,8.5-5.3,10.9-8.6L241.3,34.1z M242.5,45.2
					c-3.2,3.9-8,7.8-12.3,10.2c-0.5-0.6-1.4-1.6-2.1-2.1c4.1-2.1,8.9-5.7,11.6-9.2L242.5,45.2z"/>
				<path class="st5" d="M260.6,33.4c-1.2,2.6-2.5,5.2-4,7.6v28.2h-2.9V45.3c-1.7,2.3-3.6,4.4-5.5,6.1c-0.3-0.7-1.2-2.3-1.7-3
					c4.4-3.8,8.7-9.8,11.3-16L260.6,33.4z M277.7,65.1c2.3,0,2.6-1.8,2.9-8.7c0.8,0.6,1.9,1.2,2.8,1.4c-0.5,7.5-1.3,10.1-5.5,10.1
					h-7.7c-4,0-5.3-1.2-5.3-5.5V32.9h2.9v11h14.4v2.9h-14.4v15.6c0,2.1,0.4,2.6,2.5,2.6H277.7z"/>
			</g>
			
				<rect x="41.9" y="48.7" transform="matrix(0.4472 -0.8944 0.8944 0.4472 -8.3828 87.4497)" class="st6" width="49.3" height="3.7"/>
		</g>
		<g transform="translate(146 -95)">
			<g class="st4">
				<path class="st5" d="M167.7,36.7v5h-5.5v-5c0-0.8,0.1-1.5,0.4-2.1c0.3-0.7,0.7-1.3,1.2-1.7c0.5-0.5,1.1-0.9,1.8-1.2
					c0.7-0.3,1.4-0.4,2.1-0.4h17.5c0.8,0,1.5,0.1,2.1,0.4c0.7,0.3,1.3,0.7,1.7,1.2c0.5,0.5,0.9,1.1,1.2,1.7c0.3,0.7,0.4,1.4,0.4,2.1
					v7.1c0,0.8-0.1,1.4-0.2,2c-0.1,0.6-0.4,1.1-0.7,1.6c-0.3,0.5-0.7,0.9-1.2,1.3c-0.5,0.4-1.1,0.7-1.8,1.1l-19.1,9v5.6h18.2v-5h5.5
					v10.5h-29.2V59.7c0-0.8,0.1-1.4,0.2-2c0.2-0.6,0.4-1.1,0.7-1.6c0.3-0.5,0.7-0.9,1.2-1.3c0.5-0.4,1.1-0.7,1.7-1.1l19.1-9v-8
					H167.7z"/>
			</g>
			<g class="st4">
				<path class="st5" d="M233.7,50.4c-1.6-1.4-4.7-3.3-7.3-4.4l1.6-2.3c2.5,1.1,5.8,2.9,7.4,4.2L233.7,50.4z M237.2,55.7
					c-2.1,4.2-5,9.3-7.3,13l-2.5-2c2.1-3.1,5.3-8.4,7.6-12.9L237.2,55.7z M234.9,40.1c-1.3-1.5-4.3-3.8-6.8-5.2l1.8-2.1
					c2.4,1.3,5.4,3.4,6.8,4.9L234.9,40.1z M241,51.3h2.8v4.2c0,4.4-0.6,9.6-5.8,13.5c-0.4-0.6-1.5-1.6-2.1-2c4.7-3.4,5.2-8,5.2-11.6
					V51.3z M237.9,47.1c0.8-0.2,1.8-1.2,3-2.5c0.6-0.7,1.9-2.3,3.3-4.3h-6.9v-2.7h8.7c1.1-1.6,2.1-3.4,3-5.1l3,1.2
					c-0.8,1.3-1.6,2.7-2.5,4h13.1v2.7h-14.9c-1.7,2.3-3.4,4.5-5.1,6.3l13.8-0.8c-1-1.3-2-2.5-2.9-3.6l2.3-1.3
					c2.4,2.7,5.5,6.4,7.1,8.7l-2.5,1.6c-0.5-0.8-1.3-1.9-2.1-3c-16.3,1.1-18.2,1.2-19.4,1.7C238.7,49.3,238.2,47.9,237.9,47.1z
					 M248,51.5h2.7v15.9H248V51.5z M261,66c0.5,0,1.3,0,1.8-0.2c0,0.7,0.1,1.7,0.2,2.3c-0.4,0.2-1.2,0.2-1.9,0.2h-2.6
					c-2.7,0-3.2-1.1-3.2-3.8V51.3h2.8v13.2c0,1.2,0.1,1.5,0.6,1.5H261z"/>
				<path class="st5" d="M279.4,56.6c-0.5-1.3-1.9-3.7-3.1-5.6v18.2h-2.9V51.1c-1.5,4.2-3.4,8.5-5.3,11.1c-0.3-0.8-1-2.1-1.5-2.9
					c2.3-2.9,4.8-8,6.2-12.7h-5.5v-2.8h6.2v-6.5c-1.6,0.4-3.3,0.6-4.9,0.9c-0.1-0.7-0.5-1.7-0.8-2.4c4-0.7,8.7-1.9,11.3-3.2l1.8,2.5
					c-1.3,0.6-2.9,1.1-4.5,1.5v7.2h5.1v2.8h-5.1v1.1c1,1.2,4.2,5.4,4.9,6.5L279.4,56.6z M303.8,65.5v2.7h-23.2v-2.7H291v-5.4h-8.1
					v-2.6h8.1v-4.8c-2.3,0.2-4.6,0.4-6.8,0.6c-0.1-0.7-0.5-1.7-0.8-2.3c5.6-0.4,12.3-1.2,16.1-2.3l2,2.2c-2.1,0.6-4.6,1.1-7.4,1.5
					v5.2h8.2v2.6h-8.2v5.4H303.8z M301.6,47.1h-18.3V34.3h18.3V47.1z M298.7,36.9h-12.6v7.6h12.6V36.9z"/>
				<path class="st5" d="M340.4,37.8v31.3h-3.1V67h-21.5v2.3h-3V37.8h10.1c0.6-1.8,1.3-4,1.6-5.5l3.4,0.4c-0.6,1.7-1.3,3.6-2,5.1
					H340.4z M315.8,40.7v6h21.5v-6H315.8z M315.8,49.5v5.9h21.5v-5.9H315.8z M337.3,64.2v-6h-21.5v6H337.3z"/>
				<path class="st5" d="M384.6,41.7c0,0,0,1.1,0,1.5c-0.4,16.9-0.8,22.6-2.2,24.3c-0.7,1-1.5,1.4-2.7,1.5c-1.1,0.2-3,0.1-4.9,0
					c-0.1-0.8-0.4-2.1-0.8-2.8c1.9,0.2,3.7,0.2,4.5,0.2c0.7,0,1.1-0.1,1.5-0.6c0.9-1.2,1.4-6.5,1.8-21.2h-5.8
					c-0.5,10.8-2.3,19.6-9.5,24.9c-0.4-0.6-1.5-1.7-2.2-2.1c0.6-0.4,1.2-0.9,1.8-1.4c-6.1,0.7-12.4,1.4-16.9,1.9l-0.4-2.6
					c2.4-0.2,5.5-0.5,8.8-0.8v-3.5h-7.6v-2.3h7.6v-2.5h-7.6v-12h7.6v-2.5h-8.7v-2.3h8.7v-2.7c-2.6,0.2-5.2,0.4-7.6,0.4
					c-0.1-0.6-0.4-1.6-0.7-2.2c6-0.3,13.3-1.1,17.4-2L368,35c-2.2,0.5-4.9,0.9-7.9,1.2v3h8.6v2.3h-8.6v2.5h7.8v12h-7.8v2.5h7.9v2.3
					h-7.9V64c2.6-0.2,5.4-0.5,8.1-0.8v0.2c3.5-4.8,4.6-11.3,4.9-18.9h-4.7v-2.8h4.8c0.1-2.8,0.1-5.8,0.1-8.9h2.8c0,3,0,6-0.1,8.9
					H384.6z M352.3,49h5.1v-2.9h-5.1V49z M357.4,54v-3h-5.1v3H357.4z M360.1,46.1V49h5.3v-2.9H360.1z M365.4,51h-5.3v3h5.3V51z"/>
				<path class="st5" d="M403,33.4c-1.2,2.6-2.5,5.2-4,7.6v28.2H396V45.3c-1.7,2.3-3.6,4.4-5.5,6.1c-0.3-0.7-1.2-2.3-1.7-3
					c4.4-3.8,8.7-9.8,11.3-16L403,33.4z M420.1,65.1c2.3,0,2.6-1.8,2.9-8.7c0.8,0.6,1.9,1.2,2.8,1.4c-0.5,7.5-1.3,10.1-5.5,10.1
					h-7.7c-4,0-5.3-1.2-5.3-5.5V32.9h2.9v11h14.4v2.9h-14.4v15.6c0,2.1,0.4,2.6,2.5,2.6H420.1z"/>
			</g>
			
				<rect x="184.3" y="48.7" transform="matrix(0.4472 -0.8944 0.8944 0.4472 70.3221 214.7968)" class="st6" width="49.3" height="3.7"/>
		</g>
		<g transform="translate(-24 74)">
			<g class="st4">
				<path class="st5" d="M19,199.7h5.4v2c0,1.5,0.3,2.5,1,3.2c0.6,0.7,1.7,1,3.2,1h11.1c1.5,0,2.5-0.3,3.2-1c0.6-0.7,1-1.7,1-3.2v-3
					c0-1.5-0.3-2.5-1-3.2c-0.6-0.7-1.7-1-3.2-1H28.3v-5.4h11.3c1.3-0.1,2.3-0.4,2.9-1.1c0.6-0.7,0.9-1.7,0.9-3.1v-2.5
					c0-1.5-0.3-2.5-1-3.2c-0.7-0.7-1.7-1-3.2-1h-10c-1.5,0-2.5,0.3-3.1,1c-0.6,0.7-1,1.8-1,3.2v2h-5.4v-2.3c0-6.3,3.1-9.4,9.4-9.4
					h10.4c3.2,0,5.5,0.8,7.1,2.3c1.5,1.5,2.3,3.9,2.3,7.1v0.7c0,2.2-0.4,4-1.1,5.4s-1.9,2.5-3.3,3.1c1.6,0.5,2.9,1.5,3.7,2.9
					c0.9,1.5,1.3,3.4,1.3,5.8v1.9c0,6.2-3.1,9.4-9.4,9.4H28.4c-6.3,0-9.4-3.1-9.4-9.4V199.7z"/>
			</g>
			<g class="st4">
				<path class="st5" d="M97.5,183.5c-1.3,2.1-2.8,4.1-4.4,6.1v21.3h-3v-18c-1.5,1.6-3.1,3-4.6,4.2c-0.4-0.6-1.5-1.9-2.1-2.5
					c4.2-3,8.5-7.6,11.3-12.2L97.5,183.5z M95.9,175c-2.6,3.6-6.8,7.5-10.4,10c-0.4-0.6-1.3-1.8-1.8-2.4c3.4-2.3,7.2-5.9,9.3-8.8
					L95.9,175z M120.7,190.2h-6.1v16.7c0,1.9-0.4,2.8-1.8,3.3c-1.4,0.4-3.6,0.4-7.6,0.4c-0.1-0.8-0.5-2.1-1-2.9
					c2.9,0.1,5.5,0.1,6.3,0c0.8,0,1-0.2,1-0.9v-16.7H98v-2.9h22.6V190.2z M119.5,179.1H99.8v-2.8h19.7V179.1z"/>
				<path class="st5" d="M160.7,183.2c0,0,0,1.1,0,1.5c-0.4,16.9-0.8,22.6-2.2,24.3c-0.7,1-1.5,1.4-2.7,1.5c-1.1,0.2-3,0.1-4.9,0
					c-0.1-0.8-0.4-2.1-0.8-2.8c1.9,0.2,3.7,0.2,4.5,0.2c0.7,0,1.1-0.1,1.5-0.6c0.9-1.2,1.4-6.5,1.8-21.2H152
					c-0.5,10.8-2.3,19.6-9.5,24.9c-0.4-0.6-1.5-1.7-2.2-2.1c0.6-0.4,1.2-0.9,1.8-1.4c-6.1,0.7-12.4,1.4-16.9,1.9l-0.4-2.6
					c2.4-0.2,5.5-0.5,8.8-0.8v-3.5h-7.6v-2.3h7.6v-2.5H126v-12h7.6V183h-8.7v-2.3h8.7V178c-2.6,0.2-5.2,0.4-7.6,0.4
					c-0.1-0.6-0.4-1.6-0.7-2.2c6-0.3,13.3-1.1,17.4-2l1.5,2.3c-2.2,0.5-4.9,0.9-7.9,1.2v3h8.6v2.3h-8.6v2.5h7.8v12h-7.8v2.5h7.9v2.3
					h-7.9v3.2c2.6-0.2,5.4-0.5,8.1-0.8v0.2c3.5-4.8,4.6-11.3,4.9-18.9h-4.7v-2.8h4.8c0.1-2.8,0.1-5.8,0.1-8.9h2.8c0,3,0,6-0.1,8.9
					H160.7z M128.4,190.6h5.1v-2.9h-5.1V190.6z M133.5,195.5v-3h-5.1v3H133.5z M136.2,187.7v2.9h5.3v-2.9H136.2z M141.5,192.5h-5.3
					v3h5.3V192.5z"/>
				<path class="st5" d="M179.1,174.9c-1.2,2.6-2.5,5.2-4,7.6v28.2h-2.9v-23.9c-1.7,2.3-3.6,4.4-5.5,6.1c-0.3-0.7-1.2-2.3-1.7-3
					c4.4-3.8,8.7-9.8,11.3-16L179.1,174.9z M196.2,206.7c2.3,0,2.6-1.8,2.9-8.7c0.8,0.6,1.9,1.2,2.8,1.4c-0.5,7.5-1.3,10.1-5.5,10.1
					h-7.7c-4,0-5.3-1.2-5.3-5.5v-29.5h2.9v11h14.4v2.9h-14.4V204c0,2.1,0.4,2.6,2.5,2.6H196.2z"/>
			</g>
			
				<rect x="41.9" y="190.2" transform="matrix(0.4472 -0.8944 0.8944 0.4472 -134.9808 165.6916)" class="st6" width="49.3" height="3.7"/>
		</g>
		<g transform="translate(146 74)">
			<g class="st4">
				<path class="st5" d="M161.2,198l19-25.3h6.5V198h5.2v5.3h-5.2v8h-5.5v-8h-20V198z M181.2,198v-18.6l-14,18.6H181.2z"/>
			</g>
			<g class="st4">
				<path class="st5" d="M242.5,193.2c-1.2-1-4.2-3.2-6.2-4.5c-1.4,2.3-3.8,4.6-8,6.5c-0.4-0.6-1.2-1.6-1.9-2.1
					c5.1-2,7.3-4.7,8.1-7.2h-7.8v-2.5h8.3c0.1-0.5,0.1-1,0.1-1.5v-2.3h-3.4c-0.8,1.4-1.7,2.6-2.5,3.6c-0.6-0.4-1.7-1.1-2.4-1.5
					c2.1-2,3.6-5,4.6-8l2.7,0.5c-0.3,1-0.7,2-1.1,3h11v2.4h-5.9v2.3c0,0.5,0,0.9-0.1,1.5h7v2.5h-7.5c0,0.2-0.1,0.4-0.2,0.7
					c1.6,0.8,6.2,3.7,7.4,4.5L242.5,193.2z M232.6,194.2h24.7v16.5h-3v-1.4h-18.7v1.5h-3V194.2z M235.5,196.7v3.8h18.7v-3.8H235.5z
					 M254.2,206.8v-4h-18.7v4H254.2z M260.7,177.1v14h-14.1v-14H260.7z M257.7,179.8h-8.3v8.6h8.3V179.8z"/>
				<path class="st5" d="M283.9,207.5c0,1.5-0.3,2.2-1.4,2.7c-1,0.4-2.8,0.5-5.3,0.5c-0.2-0.8-0.6-1.8-1-2.5c1.9,0.1,3.6,0,4.1,0
					c0.6,0,0.7-0.2,0.7-0.7v-6.2c-2.7,1.6-5.4,3.2-7.7,4.4l-1-2.4c-0.4,2.7-1.2,5.5-2.9,7.6c-0.4-0.6-1.5-1.7-2.1-2.1
					c2.3-3.1,2.5-7.3,2.5-10.8v-9.9h14V207.5z M281.3,176.8c2,2.7,4.3,6.5,5.3,8.9l-2.6,1.2c-0.3-0.8-0.8-1.7-1.3-2.7
					c-11,0.9-12.4,1.1-13.3,1.5c-0.2-0.6-0.6-2.1-1-2.8c0.6-0.1,1.3-0.7,2.1-1.6c0.8-0.9,3.4-4.1,5.1-7.4l3,1
					c-1.7,2.6-3.6,5.3-5.6,7.4l8.3-0.6c-0.8-1.4-1.7-2.7-2.5-4L281.3,176.8z M272.7,198c0,1.5-0.1,3.3-0.3,5.1
					c2.3-1,5.5-2.6,8.7-4.2v-8.2h-8.4V198z M274.6,193c2.1,1.3,5,3.1,6.4,4.2l-1.6,1.7c-1.4-1.2-4.2-3-6.4-4.4L274.6,193z
					 M292.1,191.3c-3.6,0-4.5-1.3-4.5-4.6v-12.7h3v5.6h10.9v2.7h-10.9v4.6c0,1.5,0.3,1.9,1.6,1.9h7.4c1,0,2.6,0,3.4-0.2
					c0.1,0.8,0.2,1.9,0.3,2.6c-0.7,0.2-2.1,0.2-3.6,0.2H292.1z M299.4,207.7c1.7,0,2-0.8,2.2-5.1c0.7,0.5,1.9,0.9,2.7,1.1
					c-0.4,5.3-1.3,6.6-4.6,6.6h-7.2c-3.9,0-4.9-0.9-4.9-4.2v-13.6h3v4.8h11.3v2.7h-11.3v6.1c0,1.3,0.4,1.6,2.3,1.6H299.4z"/>
				<path class="st5" d="M321.5,174.9c-1.2,2.6-2.5,5.2-4,7.6v28.2h-2.9v-23.9c-1.7,2.3-3.6,4.4-5.5,6.1c-0.3-0.7-1.2-2.3-1.7-3
					c4.4-3.8,8.7-9.8,11.3-16L321.5,174.9z M338.6,206.7c2.3,0,2.6-1.8,2.9-8.7c0.8,0.6,1.9,1.2,2.8,1.4c-0.5,7.5-1.3,10.1-5.5,10.1
					H331c-4,0-5.3-1.2-5.3-5.5v-29.5h2.9v11H343v2.9h-14.4V204c0,2.1,0.4,2.6,2.5,2.6H338.6z"/>
			</g>
			
				<rect x="184.3" y="190.2" transform="matrix(0.4472 -0.8944 0.8944 0.4472 -56.276 293.0387)" class="st6" width="49.3" height="3.7"/>
		</g>
	</g>
	<path id="Path_1280" class="st7" d="M397.9,172.6h15v10c0,1.4,1.1,2.5,2.5,2.5c0,0,0,0,0,0h52.6v7.5H448c-1.4,0-2.5,1.1-2.5,2.5v20
		c0,1.4,1.1,2.5,2.5,2.5h20.1v15h-10c-6.9,0-12.5,5.6-12.5,12.5c0,6.9,5.6,12.5,12.5,12.5h25.1c6.9,0,12.5-5.6,12.5-12.5
		c0-6.9-5.6-12.5-12.5-12.5h-10v-15h20c1.4,0,2.5-1.1,2.5-2.5v-20.1c0-1.4-1.1-2.5-2.5-2.5h-20v-18.6l21.3-11.8
		c1.2-0.7,1.6-2.2,1-3.4c-0.2-0.4-0.6-0.7-1-1l-21.3-11.8v-13.6h10c6.9,0,12.5-5.6,12.5-12.5c0-6.9-5.6-12.5-12.5-12.5h-25.1
		c-6.9,0-12.5,5.6-12.5,12.5c0,6.9,5.6,12.5,12.5,12.5l0,0h10v13.6l-20.7,11.5h-11.9v-7.5c0-1.4-1.1-2.5-2.5-2.5h-35.1
		c-1.4,0-2.5,1.1-2.5,2.5v20.1C395.4,171.5,396.5,172.6,397.9,172.6z M483.1,237.8c4.2,0,7.5,3.4,7.5,7.5s-3.4,7.5-7.5,7.5
		c0,0,0,0,0,0h-25.1c-4.2,0-7.5-3.4-7.5-7.5c0-4.2,3.4-7.5,7.5-7.5c0,0,0,0,0,0H483.1z M490.7,197.7v15h-40.1v-15H490.7z
		 M458.1,127.5c-4.2,0-7.5-3.4-7.5-7.5c0-4.2,3.4-7.5,7.5-7.5c0,0,0,0,0,0h25.1c4.2,0,7.5,3.4,7.5,7.5c0,4.2-3.4,7.5-7.5,7.5H458.1z
		 M470.6,150.4l17.4,9.7l-17.4,9.7l-17.4-9.7L470.6,150.4z M435.5,170.1v-7.5h11.9l20.7,11.5v6H418v-7.5h15
		C434.4,172.6,435.5,171.5,435.5,170.1z M400.4,152.6h30.1v15h-30.1L400.4,152.6z"/>
	<g id="Group_368" transform="translate(56.036 143.683)">
		<path id="Path_1282" class="st5" d="M97.6-9.6c-6.1-1.1-12.3-1.1-18.3,0c-1.4,0.3-2.3,1.6-2.1,3s1.6,2.3,3,2.1c5.4-1,11-1,16.5,0
			c1.4,0.3,2.7-0.7,3-2.1C99.9-8,99-9.4,97.6-9.6L97.6-9.6z"/>
		<path id="Path_1283" class="st8" d="M170.9-28.5h-27.5c-3.8,0-6.9,3.1-6.9,6.9v13.8c0,0.2,0,0.4,0.1,0.5l-1.8,1.6
			C109.4-31.3,68-31.5,42.4-6.1S16.6,60.6,42,86.3s66.8,25.8,92.4,0.4c23.3-23.1,25.9-59.8,6.1-85.9l2.1-1.9
			c0.3,0.1,0.6,0.1,0.9,0.1h27.5c3.8,0,6.9-3.1,6.9-6.9v-13.8C177.8-25.4,174.7-28.5,170.9-28.5z M31.6,40.3
			c0-19.1,9.6-36.9,25.6-47.4L66,7.7C48,20,43.4,44.6,55.8,62.6c6.9,10,17.9,16.3,30,17.1v17.2C55.5,95.5,31.7,70.6,31.6,40.3z
			 M121.5,61.8l15,8.4c-1.2,2-2.6,3.8-4,5.6l-4.6-4.7c-0.5-0.5-1.3-0.5-1.8,0s-0.5,1.3,0,1.8l4.8,4.8c-1.2,1.3-2.4,2.6-3.8,3.9
			l-5.1-5.9c-0.5-0.5-1.3-0.6-1.8-0.1c-0.5,0.5-0.6,1.3-0.1,1.8l5.2,6c-1.3,1.1-2.7,2.2-4.1,3.2l-4.1-5.9c-0.4-0.6-1.2-0.7-1.8-0.3
			c-0.6,0.4-0.7,1.2-0.3,1.8l4,5.9c-1.4,0.9-2.9,1.8-4.4,2.6l-3.2-5.8c-0.3-0.6-1.1-0.9-1.7-0.5c-0.6,0.3-0.9,1.1-0.5,1.7l3.1,5.7
			c-1.6,0.7-3.2,1.4-4.8,2l-1.7-3.8c-0.3-0.7-1.1-0.9-1.7-0.7c-0.7,0.3-0.9,1.1-0.7,1.7l1.6,3.6c-1.8,0.5-3.6,1-5.4,1.4l-0.5-3.6
			c-0.1-0.7-0.7-1.2-1.5-1.1c-0.7,0.1-1.2,0.7-1.1,1.5l0.5,3.7c-1.9,0.3-3.9,0.5-5.8,0.6V79.7C103.4,78.9,114.7,72.3,121.5,61.8
			L121.5,61.8z M88.4,71.2c-17.1,0-30.9-13.9-30.9-30.9S71.3,9.3,88.4,9.3s30.9,13.9,30.9,30.9C119.3,57.3,105.4,71.2,88.4,71.2
			L88.4,71.2z M145.1,40.3c0,8.9-2.1,17.6-6.1,25.5l-15-8.4c9.4-19.7,1.1-43.3-18.6-52.7c-11.1-5.3-24-5.2-35,0.4L61.7-9.8
			c22-11.8,49.1-7.8,66.7,9.8l-5.1,4.6c-1.8,1.5-2.1,4.2-0.6,6s4.2,2.1,6,0.6c0.1-0.1,0.2-0.2,0.3-0.3l4.9-4.4
			C141.2,16.3,145.1,28.1,145.1,40.3L145.1,40.3z M169.2-9.6h-24.1v-10.3h24.1V-9.6z"/>
	</g>
	<g id="Group_369" transform="translate(71.941 309.72)">
		<path id="Path_1284" class="st5" d="M112.7,110.6H43.1c-3.7-0.1-6.7,2.9-6.8,6.6c0,0.1,0,0.1,0,0.2v8.8h83.1v-8.8
			c0.1-3.7-2.9-6.7-6.6-6.8C112.9,110.6,112.8,110.6,112.7,110.6z M57,122.4c-1.8,0-3.2-1.5-3.2-3.3c0-1.8,1.5-3.2,3.3-3.2
			c1.8,0,3.2,1.5,3.2,3.2C60.2,120.9,58.8,122.3,57,122.4z M102.1,119.1c0,1.1-0.9,2-2,2.1c0,0-0.1,0-0.1,0H68.8c-1.1,0-2-0.9-2.1-2
			c0,0,0-0.1,0-0.1v-0.3c0-1.1,0.9-2,2-2.1c0,0,0.1,0,0.1,0H100c1.1,0,2,0.9,2.1,2c0,0,0,0.1,0,0.1V119.1z"/>
		<path id="Path_1285" class="st5" d="M55.2,217H36.4v9.1c-0.1,3.7,2.9,6.7,6.6,6.8c0.1,0,0.1,0,0.2,0h23.3
			C62.3,222.9,59.7,224.1,55.2,217z"/>
		<path id="Path_1286" class="st5" d="M115.1,232.6c2.7-1,4.5-3.6,4.4-6.5V217h-4.1C115.4,225.8,115.7,228.2,115.1,232.6z"/>
		<path id="Path_1287" class="st5" d="M36.4,210.8h17.1c0.1-3.4,1.6-6.6,4.1-8.9c2.7-2.2,6.3-3.2,9.7-2.7v-9.7
			c-8.6-4-14.1-12.6-14.1-22.1c0.1-13.6,11.1-24.7,24.8-24.8c23.9,0,33.9,30.7,14.4,44.8c1.6,1.1,2.9,2.5,3.8,4.1
			c3.4,0.1,6.6,1.9,8.5,4.7c0.3,0,10.6,0.3,10.6,10.3v4.4h4.1v-78.4H36.4V210.8z"/>
		<path id="Path_1288" class="st5" d="M88.3,182.2c15-10,8-33.6-10.3-33.6c-17.7,0-25.4,23-10.6,33.3v-8.5c-3.7-5.9-1.8-13.6,4-17.3
			c5.9-3.7,13.6-1.8,17.3,4c2.6,4.3,2.5,9.7-0.4,13.8L88.3,182.2z"/>
		<path id="Path_1289" class="st5" d="M104.8,202.2c-2.4,0.1-4.4,2-4.4,4.4v-5c0-2.4-1.9-4.5-4.3-4.5c-2.4,0-4.5,1.9-4.5,4.3
			c0,0.1,0,0.1,0,0.2v-5.9c-0.1-2.4-2-4.4-4.4-4.4c-1.7,0-3.3,0.9-4.1,2.4h-0.6v-20.6c-0.1-2.6-2.3-4.7-5-4.6
			c-0.3,0-0.6,0.1-0.9,0.1c-2,0.7-3.3,2.6-3.2,4.7v37.1h-0.3l-3-3.2c-2.2-2.5-6-2.8-8.5-0.6c-2.5,2-2.9,5.7-0.9,8.2
			c0.1,0.1,0.2,0.2,0.3,0.4c6.5,7.4,9.4,10,11.2,15.9c1.5,5.6,2.4,9.4,5.9,13.6c1.4,2.3,3.8,3.8,6.5,4.1h17.7c0.6,0,1.2-0.6,1.8-1.2
			c5-4.7,5.9-13.6,5.9-20.3v-20.9C109.3,204,107.2,202.2,104.8,202.2z"/>
	</g>
	<g id="Group_370" transform="translate(229.935 305.106)">
		<path id="Path_1290" class="st5" d="M226.1,121.9c1.1,0,1.9-0.9,1.9-1.9v-11.4c0-1.1-0.9-1.9-1.9-1.9c-1.1,0-1.9,0.9-1.9,1.9V120
			C224.2,121,225.1,121.9,226.1,121.9z"/>
		<path id="Path_1291" class="st5" d="M265.7,162.8c0,1.1,0.9,1.9,1.9,1.9h11.4c1.1,0,1.9-0.9,1.9-1.9c0-1.1-0.9-1.9-1.9-1.9l0,0
			h-11.4C266.5,160.9,265.7,161.7,265.7,162.8z"/>
		<path id="Path_1292" class="st5" d="M182,160.9h-11.4c-1.1,0-1.9,0.9-1.9,1.9c0,1.1,0.9,1.9,1.9,1.9H182c1.1,0,1.9-0.9,1.9-1.9
			C183.9,161.7,183,160.9,182,160.9z"/>
		<path id="Path_1293" class="st5" d="M255.9,133.6c0.5,0,1-0.2,1.3-0.6l8.9-8.9c0.7-0.7,0.7-2,0-2.7c-0.7-0.7-2-0.7-2.7,0l-8.9,8.9
			c-0.7,0.8-0.7,1.9,0,2.7C254.9,133.4,255.4,133.6,255.9,133.6z"/>
		<path id="Path_1294" class="st5" d="M183.4,124.1l8.9,8.9c0.7,0.8,1.9,0.8,2.7,0c0.8-0.7,0.8-1.9,0-2.7l0,0l0,0l-8.9-8.9
			c-0.7-0.7-2-0.7-2.7,0C182.7,122.2,182.7,123.4,183.4,124.1L183.4,124.1z"/>
		<circle id="Ellipse_26" class="st5" cx="236.9" cy="231" r="1.9"/>
		<circle id="Ellipse_27" class="st5" cx="262.7" cy="206.2" r="1.9"/>
		<path id="Path_1295" class="st5" d="M210,231.4v0.5c0,2.1,1.7,3.8,3.8,3.8c0,0,0,0,0,0h11c-0.2-1.4-0.4-2.9-0.4-4.3H210z"/>
		<path id="Path_1296" class="st5" d="M275.8,220.8c0-1.1-0.9-1.9-1.9-1.9s-1.9,0.9-1.9,1.9c0,1.1,0.9,1.9,1.9,1.9h0
			C274.9,222.7,275.8,221.9,275.8,220.8z"/>
		<path id="Path_1297" class="st5" d="M210,219.4h4.6c1.1,0,1.9,0.9,1.9,1.9c0,1.1-0.9,1.9-1.9,1.9l0,0H210v4.3h14.4
			c0.1-1.4,0.3-2.9,0.5-4.3h-4.5c-1.1,0-1.9-0.9-1.9-1.9c0-1.1,0.9-1.9,1.9-1.9h5.4c0.4-1.4,0.9-2.7,1.5-4.1H210L210,219.4
			L210,219.4z"/>
		<path id="Path_1298" class="st5" d="M244.5,197.5c1.2-1.8,2.6-3.4,4.2-4.9c14.2-13.2,14.9-35.4,1.7-49.5
			c-13.2-14.2-35.4-14.9-49.5-1.7c-14.2,13.2-14.9,35.4-1.7,49.5c0,0,0,0,0,0c0.6,0.7,1.3,1.3,1.9,1.9c5.3,4.9,8.5,11.6,8.9,18.7
			h19.4C233,205.5,238.2,200.7,244.5,197.5z"/>
		<path id="Path_1299" class="st5" d="M286.5,210.6c-10.6-14.3-30.9-17.3-45.2-6.7c-14.3,10.6-17.3,30.9-6.7,45.2
			c1.9,2.6,4.2,4.9,6.8,6.8v-10.3l-5.2-2.1c-0.7-0.3-1.2-1-1.2-1.8v-5.4c-3-1.1-4.5-4.3-3.5-7.3c1.1-3,4.3-4.5,7.3-3.5
			c3,1.1,4.5,4.3,3.5,7.3c-0.6,1.6-1.9,2.9-3.5,3.5v4.1l5.2,2.1c0.7,0.3,1.2,1,1.2,1.8v14c1.8,1,3.8,1.8,5.7,2.4v-27.1l-5.2-5.2
			c-0.4-0.4-0.6-0.8-0.6-1.3v-3.8c-3-1.1-4.5-4.3-3.5-7.3c1.1-3,4.3-4.5,7.3-3.5c3,1.1,4.5,4.3,3.5,7.3c-0.6,1.6-1.9,2.9-3.5,3.5v3
			l5.2,5.2c0.4,0.4,0.6,0.8,0.6,1.3v28.8c0.6,0.1,1.2,0.2,1.8,0.3v-21.2c0-0.5,0.2-1,0.6-1.3l3.6-3.6v-24.3c-3-1.1-4.5-4.3-3.5-7.3
			c1.1-3,4.3-4.5,7.3-3.5c3,1.1,4.5,4.3,3.5,7.3c-0.6,1.6-1.9,2.9-3.5,3.5v25.1c0,0.5-0.2,1-0.6,1.3l-3.6,3.6v20.6h0.1
			c1.5,0,3.1-0.1,4.6-0.3v-16.2c0-0.4,0.1-0.8,0.4-1.1l6.5-8.9v-9.4c-3-1.1-4.5-4.3-3.5-7.3c1.1-3,4.3-4.5,7.3-3.5
			c3,1.1,4.5,4.3,3.5,7.3c-0.6,1.6-1.9,2.9-3.5,3.5v10c0,0.4-0.1,0.8-0.4,1.1l-6.5,8.9v14.8c2.5-0.7,4.8-1.6,7.1-2.9V251
			c0-0.5,0.2-1,0.6-1.4l4.4-4.2v-2.9c-3-1.1-4.5-4.3-3.5-7.3c1.1-3,4.3-4.5,7.3-3.5c3,1.1,4.5,4.3,3.5,7.3c-0.6,1.6-1.9,2.9-3.5,3.5
			v3.7c0,0.5-0.2,1-0.6,1.4l-4.4,4.2v4c14.3-10.6,17.3-30.8,6.7-45.1C286.5,210.7,286.5,210.6,286.5,210.6z"/>
		<circle id="Ellipse_28" class="st5" cx="282.9" cy="237.2" r="1.9"/>
		<path id="Path_1300" class="st5" d="M249,217.9c0-1.1-0.9-1.9-1.9-1.9c-1.1,0-1.9,0.9-1.9,1.9c0,1.1,0.9,1.9,1.9,1.9h0
			C248.1,219.8,249,219,249,217.9C249,217.9,249,217.9,249,217.9z"/>
	</g>
</g>
</svg>
