<?xml version="1.0" encoding="utf-8"?>
<!-- Generator: Adobe Illustrator 22.1.0, SVG Export Plug-In . SVG Version: 6.00 Build 0)  -->
<svg version="1.1" id="圖層_1" xmlns="http://www.w3.org/2000/svg" xmlns:xlink="http://www.w3.org/1999/xlink" x="0px" y="0px"
	 viewBox="0 0 131 127.1" style="enable-background:new 0 0 131 127.1;" xml:space="preserve">
<style type="text/css">
	.st0{fill:#212121;}
</style>
<g>
	<path class="st0" d="M131,4c0-2.2-1.8-4-4-4c-0.5,0-1,0-1.5,0.2l-16.3,6.6l-9.7,11L88.9,15l20.4-8.2L98.7,4.1L6.8,41.2l0.3,0.6
		c0,0,4.7-0.3,10,2.3C15.9,44.6,0,51,0,51s0.1,0.3,0.3,0.7c6-1,16.2-0.4,24.4,5c-2.2,0.9-13.9,5.6-13.9,5.6s0.1,0.3,0.2,0.7
		c4.7,0,11.6,2.2,15.1,4.9c0.6,4,1.3,24-1,37.1c0.2,0.2,0.5,0.5,0.5,0.5s23.4-23.4,47.9-47.8c29.6-29.5,44.2-44.8,50.4-49.4
		c0.2-0.2,0.5-0.3,0.8-0.3c0.8,0,1.3,0.6,1.4,1.4c0.3,1.8,0,7.7,0,7.7l4.7-11.5C130.9,5,131,4.5,131,4z"/>
	<path class="st0" d="M34.6,99.4l35.7-35.8l-10,30.4l5.5,3.8l38.8-20.4l-11.4-4.6l17.9-3.7l6.9,10.1c0,0-58.3,47.1-59.3,47.8
		c-11.5-5.4-23.3-15.4-26-18.4C33.6,105.1,34.6,99.4,34.6,99.4z"/>
</g>
</svg>
