<?xml version="1.0" encoding="utf-8"?>
<!-- Generator: Adobe Illustrator 23.0.6, SVG Export Plug-In . SVG Version: 6.00 Build 0)  -->
<svg version="1.1" id="圖層_1" xmlns="http://www.w3.org/2000/svg" xmlns:xlink="http://www.w3.org/1999/xlink" x="0px" y="0px"
	 viewBox="0 0 24 24" style="enable-background:new 0 0 24 24;" xml:space="preserve">
<style type="text/css">
	.st0{fill:#FFFFFF;}
</style>
<title>A_112</title>
<path class="st0" d="M20.1,0.8c-2,0-4.1,1.9-4.2,4.9c0,0.2,0.2,0.5,0.4,0.5c0.2,0,0.4-0.2,0.5-0.4c0-2.4,1.7-4,3.3-4
	c1.4,0,2.2,0.8,2.2,2.1c0,1.5-1.6,2.9-3.1,3.6C18.6,7.7,18,7.9,17.4,8l-0.1-0.7c0-0.3-0.3-0.6-0.7-0.7L11.1,6
	c-0.2,0-0.4,0.1-0.6,0.2L1,15.7c-0.2,0.2-0.2,0.6,0,0.9c0,0,0,0,0,0L7.4,23c0.2,0.2,0.6,0.2,0.9,0c0,0,0,0,0,0l9.5-9.5
	c0.2-0.2,0.2-0.4,0.2-0.6l-0.3-3.1c-0.5,0.1-1,0.2-1.5,0.2c-0.1,0-0.2,0-0.4-0.1c-0.6,0.4-1.3,0.2-1.7-0.4c-0.4-0.6-0.2-1.3,0.4-1.7
	C14.9,7.6,15.6,7.6,16,8c0,0,0.1,0.1,0.1,0.2c-0.1,0-0.1,0-0.2,0c-0.1,0-0.1,0-0.2,0c-0.2-0.1-0.5,0-0.6,0.2c-0.1,0.2,0,0.5,0.2,0.6
	c0.2,0.1,0.3,0.1,0.5,0.1c0.1,0,0.1,0,0.2,0c1.2-0.1,2.4-0.4,3.5-0.9c2.3-1.1,3.7-2.7,3.7-4.4C23.2,2,22,0.8,20.1,0.8z M12.4,15.1
	L12.4,15.1l-1.3,0.1l0-0.1c0-0.4-0.1-1.1-0.6-1.7c-0.4-0.4-1.1-0.5-1.4-0.2c-0.3,0.3-0.2,0.9,0.2,1.7c0.8,1.8,0.4,2.7,0,3.2
	c-0.7,0.7-1.8,0.7-2.7,0.2l-0.7,0.7l-0.9-0.9l0.7-0.7c-0.4-0.6-0.6-1.3-0.6-2l0-0.1l1.3-0.1l0,0.1c0,0.4,0.1,1.1,0.6,1.7
	c0.4,0.4,1.1,0.5,1.4,0.2c0.3-0.3,0.2-0.9-0.2-1.7c-0.8-1.8-0.4-2.7,0-3.2c0.7-0.7,1.8-0.7,2.7-0.2l0.7-0.7l0.9,0.9l-0.7,0.7
	C12.2,13.7,12.4,14.4,12.4,15.1z"/>
</svg>
