<?xml version="1.0" encoding="utf-8"?>
<!-- Generator: Adobe Illustrator 23.0.6, SVG Export Plug-In . SVG Version: 6.00 Build 0)  -->
<svg version="1.1" id="圖層_1" xmlns="http://www.w3.org/2000/svg" xmlns:xlink="http://www.w3.org/1999/xlink" x="0px" y="0px"
	 viewBox="0 0 24 24" style="enable-background:new 0 0 24 24;" xml:space="preserve">
<style type="text/css">
	.st0{fill:#FFFFFF;}
</style>
<path class="st0" d="M3.1,5H1.8v1.3h1.3v1.3H1.8v1.3h1.3v1.3H1.8v1.3h1.3v1.3H1.8v1.3h1.3v1.3H1.8v1.3h1.3v1.3H1.8V19h1.3v3.2h19.1
	V1.8H3.1V5z M17,19.5c-0.5,0.5-1.1,0.7-1.8,0.8v-2.2c0.8,0.3,1.7,0.3,2.5,0C17.6,18.7,17.4,19.1,17,19.5z M19,17.7V3.7h1.3v16.6H18
	C18.6,19.6,19,18.6,19,17.7z M5,19h1.3v-1.3H5v-1.3h1.3v-1.3H5v-1.3h1.3v-1.3H5v-1.3h1.3v-1.3H5V8.8h1.3V7.5H5V6.3h1.3V5H5V3.7h12.7
	v13c-0.9,0.5-2,0.4-2.8-0.2l-1-0.7v4.4H5V19z"/>
<rect x="7.5" y="6.3" class="st0" width="8.9" height="1.3"/>
<rect x="7.5" y="8.8" class="st0" width="8.9" height="1.3"/>
<rect x="7.5" y="11.4" class="st0" width="8.9" height="1.3"/>
<rect x="7.5" y="13.9" class="st0" width="8.9" height="1.3"/>
<rect x="7.5" y="16.5" class="st0" width="5.1" height="1.3"/>
</svg>
