<?xml version="1.0" encoding="utf-8"?>
<!-- Generator: Adobe Illustrator 23.0.6, SVG Export Plug-In . SVG Version: 6.00 Build 0)  -->
<svg version="1.1" id="圖層_1" xmlns="http://www.w3.org/2000/svg" xmlns:xlink="http://www.w3.org/1999/xlink" x="0px" y="0px"
	 viewBox="0 0 24 24" style="enable-background:new 0 0 24 24;" xml:space="preserve">
<style type="text/css">
	.st0{fill-rule:evenodd;clip-rule:evenodd;fill:#FFFFFF;}
</style>
<path id="Path_1033" class="st0" d="M13.6,5.7L23,15c0.9,0.9,0.9,2.3,0,3.2l-0.2,0.2c-0.9,0.9-2.3,0.9-3.2,0l-6-6
	c-0.9-0.9-2.3-0.9-3.2,0c0,0,0,0,0,0l-6,6c-0.9,0.9-2.3,0.9-3.2,0L1,18.2c-0.9-0.9-0.9-2.3,0-3.2l9.4-9.3
	C11.3,4.8,12.7,4.8,13.6,5.7L13.6,5.7z"/>
</svg>
