<?xml version="1.0" encoding="utf-8"?>
<!-- Generator: Adobe Illustrator 23.0.6, SVG Export Plug-In . SVG Version: 6.00 Build 0)  -->
<svg version="1.1" id="圖層_1" xmlns="http://www.w3.org/2000/svg" xmlns:xlink="http://www.w3.org/1999/xlink" x="0px" y="0px"
	 viewBox="0 0 24 24" style="enable-background:new 0 0 24 24;" xml:space="preserve">
<style type="text/css">
	.st0{fill:#FFFFFF;}
</style>
<g id="Group_13" transform="translate(-15.355 -0.001)">
	<path id="Path_996" class="st0" d="M22.7,5.4H32L33.8,2C34,1.7,34,1.2,33.3,0.9c-1.1-0.5-3.1,1.6-5.8,0.5c-2.8-1.2-4.9-1-5.8-0.6
		C21.1,1,20.8,1.5,20.9,2L22.7,5.4z"/>
	<path id="Path_997" class="st0" d="M36.8,8.7l-2.2-1.3l2.2-1.3c0.4-0.3,0.6-0.8,0.3-1.2c-0.3-0.4-0.8-0.6-1.2-0.3l-3.2,1.9h-11
		c-0.5,0-0.9,0.4-0.9,0.9s0.4,0.9,0.9,0.9h11l3.2,1.9c0.4,0.3,1,0.1,1.2-0.3C37.4,9.5,37.3,8.9,36.8,8.7L36.8,8.7z"/>
	<path id="Path_998" class="st0" d="M36.8,16.5c-0.6-1-2.9-4.7-4.4-7.1h-10c-1.5,2.4-3.8,6.2-4.4,7.1c-2,3.1-2.1,7,1.8,7H35
		C38.9,23.5,38.8,19.6,36.8,16.5z M30,18.5c-0.1,0.3-0.4,0.5-0.6,0.7c-0.3,0.2-0.6,0.3-0.9,0.4c-0.2,0-0.3,0.1-0.5,0.1v1h-1.2v-1
		c-0.3,0-0.7-0.1-1-0.2c-0.4-0.2-0.8-0.4-1.1-0.7c-0.1-0.1-0.1-0.2-0.1-0.3c0,0,0,0,0,0l0.6-0.6c0.1-0.1,0.2-0.1,0.3,0
		c0.2,0.2,0.5,0.4,0.8,0.5c0.3,0.1,0.7,0.1,1,0.1c0.4,0,0.7-0.1,1.1-0.2c0.3-0.1,0.4-0.4,0.4-0.7c0-0.2-0.1-0.4-0.2-0.6
		c-0.2-0.2-0.5-0.3-0.7-0.3l-1.1-0.1c-0.5,0-1.1-0.2-1.5-0.5c-0.4-0.4-0.6-0.9-0.5-1.4c0-0.3,0.1-0.6,0.2-0.9
		c0.1-0.3,0.3-0.5,0.6-0.7c0.2-0.2,0.5-0.3,0.8-0.4c0.1,0,0.3-0.1,0.4-0.1v-0.9H28v0.9c0.3,0,0.5,0.1,0.8,0.1
		c0.3,0.1,0.6,0.3,0.9,0.5c0.1,0,0.1,0.1,0.1,0.1c0,0.1,0,0.1-0.1,0.2l-0.6,0.6c-0.1,0.1-0.2,0.1-0.2,0c-0.2-0.1-0.4-0.2-0.6-0.3
		c-0.3-0.1-0.6-0.1-0.9-0.1c-0.3,0-0.7,0.1-0.9,0.2c-0.2,0.2-0.3,0.4-0.3,0.6c0,0.2,0.1,0.4,0.2,0.5c0.2,0.2,0.5,0.2,0.7,0.2l1,0.1
		c0.6,0,1.2,0.2,1.6,0.6c0.4,0.4,0.6,0.9,0.6,1.4C30.2,17.8,30.1,18.2,30,18.5z"/>
</g>
</svg>
