<?xml version="1.0" encoding="utf-8"?>
<!-- Generator: Adobe Illustrator 23.0.6, SVG Export Plug-In . SVG Version: 6.00 Build 0)  -->
<svg version="1.1" id="圖層_1" xmlns="http://www.w3.org/2000/svg" xmlns:xlink="http://www.w3.org/1999/xlink" x="0px" y="0px"
	 viewBox="0 0 24 24" style="enable-background:new 0 0 24 24;" xml:space="preserve">
<style type="text/css">
	.st0{fill:#FFFFFF;}
</style>
<title>barcode-label-code-bar</title>
<path class="st0" d="M8.1,13.2c2.4,0,4.3-1.9,4.3-4.3s-1.9-4.3-4.3-4.3S3.8,6.5,3.8,8.9S5.7,13.2,8.1,13.2z M8.1,5.3
	c2,0,3.5,1.6,3.5,3.5s-1.6,3.5-3.5,3.5s-3.5-1.6-3.5-3.5l0,0C4.5,6.9,6.1,5.3,8.1,5.3z"/>
<rect x="7.7" y="14" class="st0" width="0.8" height="1.2"/>
<path class="st0" d="M10.4,18.3c0.2,0,0.4-0.2,0.4-0.4s-0.2-0.4-0.4-0.4H8.1v-0.8h1.6c0.2,0,0.4-0.2,0.4-0.4v-0.4H6.7l-2.2,1.9
	c-0.1,0.1-0.2,0.1-0.3,0.1H1v4.3h2.4v-0.8h0.8v0.8c0.1,0,0.2,0.1,0.3,0.1C4.8,22.8,5.3,23,5.9,23h3.8c0.2,0,0.4-0.2,0.4-0.4
	s-0.2-0.4-0.4-0.4H9.2v-0.8h1.2c0.2,0,0.4-0.2,0.4-0.4c0-0.2-0.2-0.4-0.4-0.4H9.2v-0.8h1.2c0.2,0,0.4-0.2,0.4-0.4
	c0-0.2-0.2-0.4-0.4-0.4H9.2v-0.8H10.4z"/>
<path class="st0" d="M13.2,8.9c0,2.1-1.2,3.9-3.1,4.7h3.5V5.3h-1.8C12.7,6.3,13.2,7.5,13.2,8.9z"/>
<path class="st0" d="M8.1,11.6c1.5,0,2.8-1.2,2.8-2.8S9.6,6.1,8.1,6.1S5.3,7.3,5.3,8.9S6.6,11.6,8.1,11.6z M9.2,7.7H10V10H9.2V7.7z
	 M7.7,7.7h0.8V10H7.7V7.7z M6.1,7.7h0.8V10H6.1V7.7z"/>
<rect x="17.9" y="1" class="st0" width="5.1" height="3.5"/>
<path class="st0" d="M8.5,3.8c0.8,0.1,1.6,0.3,2.3,0.8h2.8V1H8.5V3.8z"/>
<rect x="14.4" y="1" class="st0" width="2.8" height="3.5"/>
<rect x="17.9" y="5.3" class="st0" width="4.3" height="8.2"/>
<rect x="14.4" y="5.3" class="st0" width="2.8" height="8.2"/>
</svg>
