<?xml version="1.0" encoding="utf-8"?>
<!-- Generator: Adobe Illustrator 23.0.6, SVG Export Plug-In . SVG Version: 6.00 Build 0)  -->
<svg version="1.1" id="圖層_1" xmlns="http://www.w3.org/2000/svg" xmlns:xlink="http://www.w3.org/1999/xlink" x="0px" y="0px"
	 viewBox="0 0 24 24" style="enable-background:new 0 0 24 24;" xml:space="preserve">
<style type="text/css">
	.st0{fill:#1C1C1C;}
</style>
<path class="st0" d="M12,1C5.9,1,1,5.9,1,12s4.9,11,11,11s11-4.9,11-11S18.1,1,12,1z M12,22.7c-2.7,0-5.2-1-7-2.7
	c0.9-0.4,2-0.8,2.9-1.1c1.7-0.7,1.5-1.1,1.6-1.7c0-0.1,0-0.2,0-0.3c-0.6-0.6-1-1.2-1.3-1.9l0,0c0,0,0,0,0,0C8.1,14.7,8,14.5,8,14.3
	c-0.4-0.1-0.7-0.4-0.7-0.9C7.1,13.2,7,12.8,7,12.5c0-0.4,0.2-0.7,0.5-0.9c0-0.1,0-0.2,0-0.2c0-1.1,0.2-2.2,0.4-3.2L7.5,8.3l0.6-0.5
	c0,0,0,0,0-0.1L7.8,7.6l0.7-0.3l0,0L8.3,7c0,0,0.5-0.2,0.8-0.4c0.9-0.8,2.1-1.2,3.3-1.1c0.1,0,0.2,0,0.3,0l0.9-0.4l-0.2,0.4L14,5.5
	l-0.1,0.3c0,0,0,0,0.1,0l0.7,0l-0.1,0.3c0.6,0.3,1.1,0.8,1.5,1.3c0.9,0.8,0.5,3.1,0.5,3.9c0,0.2,0,0.3,0,0.5
	c0.2,0.2,0.4,0.5,0.4,0.8c0,0.3-0.1,0.7-0.2,0.9c-0.1,0.4-0.3,0.7-0.7,0.8c-0.1,0.2-0.1,0.4-0.2,0.5c0,0,0,0.1,0,0.1
	c-0.3,0.7-0.7,1.4-1.2,1.9c0,0.1,0,0.2,0,0.3c0.1,0.6-0.2,1,1.6,1.7c0.9,0.4,2,0.7,2.9,1.2C17.1,21.7,14.7,22.7,12,22.7z"/>
</svg>
