<?xml version="1.0" encoding="utf-8"?>
<!-- Generator: Adobe Illustrator 23.0.6, SVG Export Plug-In . SVG Version: 6.00 Build 0)  -->
<svg version="1.1" xmlns="http://www.w3.org/2000/svg" xmlns:xlink="http://www.w3.org/1999/xlink" x="0px" y="0px"
	 viewBox="0 0 24 24" style="enable-background:new 0 0 24 24;" xml:space="preserve">
<style type="text/css">
	.st0{fill:#FFFFFF;}
</style>
<g id="圖層_2">
</g>
<g id="圖層_1">
	<path class="st0" d="M18.3,2.9H7.6c-1.2,0-2.3,1-2.3,2.3v0.1H4.2C3.8,5.3,3.4,5.6,3.4,6s0.3,0.8,0.8,0.8h1.2v2.4H4.2
		c-0.4,0-0.8,0.3-0.8,0.8c0,0.4,0.3,0.8,0.8,0.8h1.2v2.4H4.2c-0.4,0-0.8,0.3-0.8,0.8s0.3,0.8,0.8,0.8h1.2v2.4H4.2
		c-0.4,0-0.8,0.3-0.8,0.8s0.3,0.8,0.8,0.8h1.2v0.1c0,1.2,1,2.3,2.3,2.3h10.7c1.2,0,2.3-1,2.3-2.3V5.1C20.6,3.9,19.5,2.9,18.3,2.9z
		 M16.2,16.6l-1.2,0.8c-0.3,0.2-0.7,0.2-1,0.1c-0.3-0.2-0.7-0.4-1-0.6c-1.1-0.9-2.1-2.3-2.8-3.9c-0.6-1.6-0.9-3.3-0.7-4.7
		C9.6,8,9.7,7.6,9.8,7.2c0.1-0.3,0.4-0.6,0.7-0.6l1.5-0.3c0.4-0.1,0.7,0.2,0.8,0.6L13,9.1c0,0.3-0.2,0.6-0.5,0.7l-1.1,0.3
		c0.1,0.8,0.2,1.4,0.5,2.3c0.3,0.8,0.7,1.4,1.2,2l1-0.6c0.3-0.2,0.6-0.1,0.8,0.2l1.4,1.7C16.5,16,16.5,16.4,16.2,16.6z"/>
</g>
</svg>
